*
*
G04 PADS VX.2.2 Build Number: 9133945 generated Gerber (RS-274-X) file*
G04 PC Version=2.1*
*
%IN "TMC5160-EVAL_V30.pcb"*%
*
%MOMM*%
*
%FSLAX33Y33*%
*
*
*
*
G04 PC Standard Apertures*
*
*
G04 Thermal Relief Aperture macro.*
%AMTER*
1,1,$1,0,0*
1,0,$1-$2,0,0*
21,0,$3,$4,0,0,45*
21,0,$3,$4,0,0,135*
%
*
*
G04 Annular Aperture macro.*
%AMANN*
1,1,$1,0,0*
1,0,$2,0,0*
%
*
*
G04 Odd Aperture macro.*
%AMODD*
1,1,$1,0,0*
1,0,$1-0.005,0,0*
%
*
*
G04 PC Custom Aperture Macros*
*
*
*
*
*
*
G04 PC Aperture Table*
*
%ADD058C,1*%
%ADD070C,3*%
%ADD075C,0.5*%
%ADD103C,1.8*%
%ADD129R,3X3*%
%ADD146R,1.8X1.8*%
%ADD150R,1.6X1.6*%
%ADD151C,1.6*%
%ADD157C,0.4*%
%ADD166C,0.1*%
%ADD182C,6.7*%
%ADD183C,2*%
%ADD184C,1.3*%
%ADD186C,2.5*%
%ADD200C,0.01*%
*
*
*
*
G04 PC Circuitry*
G04 Layer Name TMC5160-EVAL_V30.pcb - circuitry*
%LPD*%
*
*
G04 PC Custom Flashes*
G04 Layer Name TMC5160-EVAL_V30.pcb - flashes*
%LPD*%
*
*
G04 PC Circuitry*
G04 Layer Name TMC5160-EVAL_V30.pcb - circuitry*
%LPD*%
*
G54D58*
G01X126240Y104000D03*
X118620D03*
X121160D03*
X123700D03*
X111000D03*
X131320D03*
X128780D03*
X113540D03*
X116080D03*
X133860D03*
G54D70*
X162300Y175000D03*
G54D75*
X124600Y148600D03*
Y146600D03*
X123600D03*
X120600Y147600D03*
X122600D03*
X121600D03*
Y145600D03*
X124600Y147600D03*
X120600Y145600D03*
X123600Y147600D03*
X122600Y148600D03*
Y145600D03*
X121600Y146600D03*
Y148600D03*
X120600D03*
X123600D03*
X124600Y145600D03*
X120600Y146600D03*
X123600Y145600D03*
X122600Y146600D03*
X121600Y149600D03*
X122600D03*
X120600D03*
X123600D03*
X124600D03*
G54D103*
X171040Y163900D03*
Y131100D03*
G54D129*
X167300Y175000D03*
G54D146*
X165960Y163900D03*
Y131100D03*
G54D150*
X169000Y104000D03*
X104000Y175000D03*
X133020Y182000D03*
X120320D03*
X175000Y121680D03*
X145040Y182000D03*
G54D151*
X130480D03*
X127940D03*
X117780D03*
X115240D03*
X112700D03*
X175000Y119140D03*
Y116600D03*
Y114060D03*
Y111520D03*
X142500Y182000D03*
G54D157*
X133945Y98125D02*
X134127Y98375D01*
X134400Y98500*
X134763*
X134763D02*
X135036Y98375D01*
X135218Y98125*
Y97875*
X135127Y97625*
X135036Y97500*
X134854Y97375*
X134854D02*
X134309Y97125D01*
X134127Y97000*
X134036Y96875*
X133945Y96625*
Y96250*
X134127Y96000*
X134400Y95875*
X134763*
X134763D02*
X135036Y96000D01*
X135218Y96250*
X132672Y97625D02*
X132854Y97500D01*
X132854D02*
X133036Y97250D01*
X133127Y96875*
Y96625*
X133036Y96250*
X132854Y96000*
X132854D02*
X132672Y95875D01*
X132672D02*
X132400D01*
X132218Y96000*
X132036Y96250*
X131945Y96625*
Y96875*
X132036Y97250*
X132218Y97500*
X132400Y97625*
X132672*
X131127Y98500D02*
Y95875D01*
X129218Y98500D02*
Y95875D01*
Y97250D02*
X129400Y97500D01*
X129581Y97625*
X129581D02*
X129854D01*
X129854D02*
X130036Y97500D01*
X130218Y97250*
X130309Y96875*
Y96625*
X130218Y96250*
X130036Y96000*
X129854Y95875*
X129854D02*
X129581D01*
X129581D02*
X129400Y96000D01*
X129218Y96250*
X128400Y96875D02*
X127309D01*
Y97125*
X127400Y97375*
X127490Y97500*
X127490D02*
X127672Y97625D01*
X127672D02*
X127945D01*
X128127Y97500*
X128309Y97250*
X128400Y96875*
Y96625*
X128309Y96250*
X128127Y96000*
X127945Y95875*
X127672*
X127672D02*
X127490Y96000D01*
X127490D02*
X127309Y96250D01*
X126490Y97625D02*
Y95875D01*
Y96875D02*
X126400Y97250D01*
X126218Y97500*
X126036Y97625*
X125763*
X122854Y98500D02*
Y95875D01*
Y98500D02*
X122127Y95875D01*
X121400Y98500D02*
X122127Y95875D01*
X121400Y98500D02*
Y95875D01*
X119490Y97625D02*
Y95875D01*
Y97250D02*
X119672Y97500D01*
X119672D02*
X119854Y97625D01*
X119854D02*
X120127D01*
X120309Y97500*
X120490Y97250*
X120490D02*
X120581Y96875D01*
X120581D02*
Y96625D01*
X120581D02*
X120490Y96250D01*
X120490D02*
X120309Y96000D01*
X120127Y95875*
X119854*
X119854D02*
X119672Y96000D01*
X119672D02*
X119490Y96250D01*
X117672Y97250D02*
X117763Y97500D01*
X117763D02*
X118036Y97625D01*
X118309*
X118581Y97500*
X118581D02*
X118672Y97250D01*
X118672D02*
X118581Y97000D01*
X118581D02*
X118400Y96875D01*
X117945Y96750*
X117763Y96625*
X117763D02*
X117672Y96375D01*
X117672D02*
Y96250D01*
X117672D02*
X117763Y96000D01*
X117763D02*
X118036Y95875D01*
X118309*
X118581Y96000*
X118581D02*
X118672Y96250D01*
X116854Y98500D02*
Y95875D01*
X115945Y97625D02*
X116854Y96375D01*
X116490Y96875D02*
X115854Y95875D01*
X112945Y98500D02*
Y95875D01*
Y98500D02*
X112127D01*
X111854Y98375*
X111854D02*
X111763Y98250D01*
X111763D02*
X111672Y98000D01*
X111672D02*
Y97750D01*
X111672D02*
X111763Y97500D01*
X111763D02*
X111854Y97375D01*
X111854D02*
X112127Y97250D01*
X112945D02*
X112127D01*
X111854Y97125*
X111854D02*
X111763Y97000D01*
X111763D02*
X111672Y96750D01*
X111672D02*
Y96375D01*
X111672D02*
X111763Y96125D01*
X111763D02*
X111854Y96000D01*
X111854D02*
X112127Y95875D01*
X112945*
X110400Y97625D02*
X110581Y97500D01*
X110581D02*
X110763Y97250D01*
X110763D02*
X110854Y96875D01*
X110854D02*
Y96625D01*
X110854D02*
X110763Y96250D01*
X110763D02*
X110581Y96000D01*
X110581D02*
X110400Y95875D01*
X110127*
X109945Y96000*
X109763Y96250*
X109763D02*
X109672Y96625D01*
X109672D02*
Y96875D01*
X109672D02*
X109763Y97250D01*
X109763D02*
X109945Y97500D01*
X110127Y97625*
X110400*
X108581Y98500D02*
Y96375D01*
X108581D02*
X108490Y96000D01*
X108490D02*
X108309Y95875D01*
X108127*
X108854Y97625D02*
X108218D01*
X107036Y98500D02*
Y96375D01*
X106945Y96000*
X106763Y95875*
X106763D02*
X106581D01*
X107309Y97625D02*
X106672D01*
X105309D02*
X105490Y97500D01*
X105490D02*
X105672Y97250D01*
X105672D02*
X105763Y96875D01*
X105763D02*
Y96625D01*
X105763D02*
X105672Y96250D01*
X105672D02*
X105490Y96000D01*
X105490D02*
X105309Y95875D01*
X105036*
X104854Y96000*
X104854D02*
X104672Y96250D01*
X104672D02*
X104581Y96625D01*
X104581D02*
Y96875D01*
X104581D02*
X104672Y97250D01*
X104672D02*
X104854Y97500D01*
X104854D02*
X105036Y97625D01*
X105309*
X103763D02*
Y95875D01*
Y97125D02*
X103490Y97500D01*
X103490D02*
X103309Y97625D01*
X103036*
X102854Y97500*
X102854D02*
X102763Y97125D01*
X102763D02*
Y95875D01*
Y97125D02*
X102490Y97500D01*
X102490D02*
X102309Y97625D01*
X102036*
X101854Y97500*
X101854D02*
X101763Y97125D01*
X101763D02*
Y95875D01*
X101636Y92500D02*
Y89875D01*
X101000Y92500D02*
X102272D01*
X103090D02*
Y89875D01*
Y92500D02*
X103818Y89875D01*
X104545Y92500D02*
X103818Y89875D01*
X104545Y92500D02*
Y89875D01*
X106727Y91875D02*
X106636Y92125D01*
X106454Y92375*
X106454D02*
X106272Y92500D01*
X106272D02*
X105909D01*
X105727Y92375*
X105545Y92125*
X105454Y91875*
X105454D02*
X105363Y91500D01*
X105363D02*
Y90875D01*
X105363D02*
X105454Y90500D01*
X105454D02*
X105545Y90250D01*
X105727Y90000*
X105909Y89875*
X106272*
X106272D02*
X106454Y90000D01*
X106454D02*
X106636Y90250D01*
X106727Y90500*
X108727Y92500D02*
X107818D01*
X107727Y91375*
X107818Y91500*
X108090Y91625*
X108090D02*
X108363D01*
X108363D02*
X108636Y91500D01*
X108818Y91250*
X108909Y90875*
X108818Y90625*
X108727Y90250*
X108545Y90000*
X108272Y89875*
X108272D02*
X108000D01*
X107727Y90000*
X107636Y90125*
X107545Y90375*
X109727Y92000D02*
X109909Y92125D01*
X110181Y92500*
X110181D02*
Y89875D01*
X112090Y92125D02*
X112000Y92375D01*
X111727Y92500*
X111545*
X111272Y92375*
X111272D02*
X111090Y92000D01*
X111090D02*
X111000Y91375D01*
Y90750*
X111090Y90250*
X111090D02*
X111272Y90000D01*
X111272D02*
X111545Y89875D01*
X111636*
X111909Y90000*
X112090Y90250*
X112090D02*
X112181Y90625D01*
X112181D02*
Y90750D01*
X112181D02*
X112090Y91125D01*
X112090D02*
X111909Y91375D01*
X111636Y91500*
X111545*
X111272Y91375*
X111272D02*
X111090Y91125D01*
X111090D02*
X111000Y90750D01*
X113545Y92500D02*
X113272Y92375D01*
X113272D02*
X113090Y92000D01*
X113090D02*
X113000Y91375D01*
Y91000*
X113090Y90375*
X113090D02*
X113272Y90000D01*
X113272D02*
X113545Y89875D01*
X113727*
X114000Y90000*
X114181Y90375*
X114181D02*
X114272Y91000D01*
X114272D02*
Y91375D01*
X114272D02*
X114181Y92000D01*
X114181D02*
X114000Y92375D01*
X113727Y92500*
X113545*
X115090Y91000D02*
X116727D01*
X117545Y92500D02*
Y89875D01*
Y92500D02*
X118727D01*
X117545Y91250D02*
X118272D01*
X117545Y89875D02*
X118727D01*
X119545Y92500D02*
X120272Y89875D01*
X121000Y92500D02*
X120272Y89875D01*
X122545Y92500D02*
X121818Y89875D01*
X122545Y92500D02*
X123272Y89875D01*
X122090Y90750D02*
X123000D01*
X124090Y92500D02*
Y89875D01*
X124090D02*
X125181D01*
X128090Y92500D02*
X128818Y89875D01*
X129545Y92500D02*
X128818Y89875D01*
X130545Y92500D02*
X131545D01*
X131000Y91500*
X131272*
X131272D02*
X131454Y91375D01*
X131454D02*
X131545Y91250D01*
X131636Y90875*
Y90625*
X131545Y90250*
X131363Y90000*
X131363D02*
X131090Y89875D01*
X131090D02*
X130818D01*
X130545Y90000*
X130454Y90125*
X130454D02*
X130363Y90375D01*
X132545Y90125D02*
X132454Y90000D01*
X132454D02*
X132545Y89875D01*
X132636Y90000*
X132545Y90125*
X133454Y92000D02*
X133636Y92125D01*
X133909Y92500*
Y89875*
X143181Y91875D02*
Y92000D01*
X143181D02*
X143272Y92250D01*
X143272D02*
X143363Y92375D01*
X143363D02*
X143545Y92500D01*
X143909*
X144090Y92375*
X144090D02*
X144181Y92250D01*
X144181D02*
X144272Y92000D01*
X144272D02*
Y91750D01*
X144272D02*
X144181Y91500D01*
X144181D02*
X144000Y91125D01*
X143090Y89875*
X143090D02*
X144363D01*
X146363Y91625D02*
X146272Y91250D01*
X146272D02*
X146090Y91000D01*
X146090D02*
X145818Y90875D01*
X145727*
X145454Y91000*
X145454D02*
X145272Y91250D01*
X145272D02*
X145181Y91625D01*
X145181D02*
Y91750D01*
X145181D02*
X145272Y92125D01*
X145272D02*
X145454Y92375D01*
X145454D02*
X145727Y92500D01*
X145818*
X146090Y92375*
X146090D02*
X146272Y92125D01*
X146272D02*
X146363Y91625D01*
X146363D02*
Y91000D01*
X146363D02*
X146272Y90375D01*
X146272D02*
X146090Y90000D01*
X146090D02*
X145818Y89875D01*
X145636*
X145363Y90000*
X145363D02*
X145272Y90250D01*
X147272Y90125D02*
X147181Y90000D01*
X147181D02*
X147272Y89875D01*
X147272D02*
X147363Y90000D01*
X147363D02*
X147272Y90125D01*
X148181Y92000D02*
X148363Y92125D01*
X148363D02*
X148636Y92500D01*
Y89875*
X149545Y91875D02*
Y92000D01*
X149636Y92250*
X149727Y92375*
X149909Y92500*
X150272*
X150272D02*
X150454Y92375D01*
X150454D02*
X150545Y92250D01*
X150636Y92000*
Y91750*
X150545Y91500*
X150363Y91125*
X150363D02*
X149454Y89875D01*
X149454D02*
X150727D01*
X151636Y90125D02*
X151545Y90000D01*
X151636Y89875*
X151727Y90000*
X151636Y90125*
X152636Y91875D02*
Y92000D01*
X152727Y92250*
X152818Y92375*
X153000Y92500*
X153363*
X153363D02*
X153545Y92375D01*
X153636Y92250*
X153727Y92000*
Y91750*
X153636Y91500*
X153454Y91125*
X153454D02*
X152545Y89875D01*
X153818*
X155181Y92500D02*
X154909Y92375D01*
X154727Y92000*
X154636Y91375*
Y91000*
X154727Y90375*
X154909Y90000*
X155181Y89875*
X155181D02*
X155363D01*
X155363D02*
X155636Y90000D01*
X155818Y90375*
X155909Y91000*
Y91375*
X155818Y92000*
X155636Y92375*
X155363Y92500*
X155363D02*
X155181D01*
X156727Y92000D02*
X156909Y92125D01*
X157181Y92500*
X157181D02*
Y89875D01*
X159272Y92500D02*
X158363Y89875D01*
X158000Y92500D02*
X159272D01*
G54D166*
X100000Y104000D02*
G75*
G03X104000Y100000I4000J0D01*
G01X175000*
G03X179000Y104000I0J4000*
G01Y181000*
G03X175000Y185000I-4000J0*
G01X104000*
G03X100000Y181000I0J-4000*
G01Y104000*
X99350Y93000D02*
X86650D01*
X93000Y99350D02*
Y86650D01*
X94905Y93000D02*
X93000Y94905D01*
X91095Y93000*
X93000Y91095*
X94905Y93000*
X96175D02*
X93000Y96175D01*
X89825Y93000*
X93000Y89825*
X96175Y93000*
X97445D02*
X93000Y97445D01*
X88555Y93000*
X93000Y88555*
X97445Y93000*
X99350Y192000D02*
X86650D01*
X93000Y198350D02*
Y185650D01*
X94905Y192000D02*
X93000Y193905D01*
X91095Y192000*
X93000Y190095*
X94905Y192000*
X96175D02*
X93000Y195175D01*
X89825Y192000*
X93000Y188825*
X96175Y192000*
X97445D02*
X93000Y196445D01*
X88555Y192000*
X93000Y187555*
X97445Y192000*
X192350D02*
X179650D01*
X186000Y198350D02*
Y185650D01*
X187905Y192000D02*
X186000Y193905D01*
X184095Y192000*
X186000Y190095*
X187905Y192000*
X189175D02*
X186000Y195175D01*
X182825Y192000*
X186000Y188825*
X189175Y192000*
X190445D02*
X186000Y196445D01*
X181555Y192000*
X186000Y187555*
X190445Y192000*
G54D182*
X103999Y103999D03*
Y180999D03*
X175000Y181000D03*
Y104000D03*
G54D183*
X106000Y117100D03*
Y167900D03*
G54D184*
X104730Y115830D03*
X107270D03*
X104730Y118370D03*
X107270D03*
X104730Y120910D03*
X107270D03*
X104730Y123450D03*
X107270D03*
X104730Y125990D03*
X107270D03*
X104730Y128530D03*
X107270D03*
X104730Y131070D03*
X107270D03*
X104730Y133610D03*
X107270D03*
X104730Y136150D03*
X107270D03*
X104730Y138690D03*
X107270D03*
X104730Y141230D03*
X107270D03*
X104730Y143770D03*
X107270D03*
X104730Y146310D03*
X107270D03*
X104730Y148850D03*
X107270D03*
X104730Y151390D03*
X107270D03*
X104730Y153930D03*
X107270D03*
X104730Y156470D03*
X107270D03*
X104730Y159010D03*
X107270D03*
X104730Y161550D03*
X107270D03*
X104730Y164090D03*
X107270D03*
X104730Y166630D03*
X107270D03*
X104730Y169170D03*
X107270D03*
G54D186*
X169300Y142250D03*
Y145750D03*
Y149250D03*
Y152750D03*
G54D200*
G74*
X0Y0D02*
M02*
