*
*
G04 PADS VX.2.2 Build Number: 9133945 generated Gerber (RS-274-X) file*
G04 PC Version=2.1*
*
%IN "TMC5160-EVAL_V30.pcb"*%
*
%MOMM*%
*
%FSLAX33Y33*%
*
*
*
*
G04 PC Standard Apertures*
*
*
G04 Thermal Relief Aperture macro.*
%AMTER*
1,1,$1,0,0*
1,0,$1-$2,0,0*
21,0,$3,$4,0,0,45*
21,0,$3,$4,0,0,135*
%
*
*
G04 Annular Aperture macro.*
%AMANN*
1,1,$1,0,0*
1,0,$2,0,0*
%
*
*
G04 Odd Aperture macro.*
%AMODD*
1,1,$1,0,0*
1,0,$1-0.005,0,0*
%
*
*
G04 PC Custom Aperture Macros*
*
*
*
*
*
*
G04 PC Aperture Table*
*
%ADD132C,0.00025*%
%ADD157C,0.4*%
%ADD166C,0.1*%
%ADD200C,0.01*%
*
*
*
*
G04 PC Circuitry*
G04 Layer Name TMC5160-EVAL_V30.pcb - circuitry*
%LPD*%
*
G54D200*
G01X142992Y95790D02*
X141960Y98352D01*
X141960D02*
X141574D01*
X141574D02*
X140543Y95790D01*
X140543D02*
X140925D01*
X140925D02*
X141209Y96573D01*
X141209D02*
X141214Y96576D01*
X142321*
X142326Y96573*
X142610Y95790*
X142610D02*
X142992D01*
X142219Y96857D02*
X142219D01*
X142214Y96852*
X141321*
X141316Y96857*
Y96858*
X141316D02*
X141566Y97537D01*
X141566D02*
X141673Y97822D01*
X141673D02*
X141745Y98072D01*
X141745D02*
X141754Y98073D01*
X141754D02*
X141933Y97608D01*
X141933D02*
X142218Y96858D01*
X142218D02*
X142219Y96857D01*
X140422Y96352D02*
X140110Y96387D01*
X140110D02*
X140076Y96248D01*
X140076D02*
X140075Y96247D01*
X139968Y96104*
X139965Y96102*
X139822Y96066*
X139822D02*
X139822D01*
X139822D02*
X139643Y96030D01*
X139643D02*
X139642D01*
X139642D02*
X139464D01*
X139464D02*
X139462Y96031D01*
X139319Y96102*
X139319D02*
X139317Y96104D01*
X139245Y96211*
X139245D02*
Y96212D01*
X139245D02*
X139209Y96319D01*
X139209D02*
Y96321D01*
Y96323*
X139209D02*
X139245Y96395D01*
X139245D02*
X139246Y96396D01*
X139317Y96467*
X139317D02*
X139320Y96469D01*
X139462Y96504*
X139462D02*
X139641Y96576D01*
X139641*
X139641D02*
X139927Y96647D01*
X139927D02*
X140104Y96718D01*
X140104D02*
X140317Y96895D01*
X140317D02*
X140352Y97001D01*
X140387Y97142*
X140387D02*
X140316Y97354D01*
X140316D02*
X140175Y97531D01*
X140175D02*
X139998Y97638D01*
X139714Y97673*
X139714D02*
X139358Y97602D01*
X139358D02*
X139217Y97531D01*
X139217D02*
X139111Y97425D01*
X139111D02*
X139006Y97147D01*
X139006D02*
X139317Y97112D01*
X139317D02*
X139352Y97215D01*
X139352D02*
Y97217D01*
X139352D02*
X139424Y97324D01*
X139426Y97326*
X139426D02*
X139534Y97361D01*
X139534D02*
Y97362D01*
X139534D02*
X139713Y97397D01*
X139713D02*
X139715D01*
X139715D02*
X140001Y97326D01*
X140004Y97323*
X140004D02*
X140075Y97180D01*
X140075D02*
X140076Y97178D01*
X140076D02*
Y97176D01*
X140076D02*
X140040Y97069D01*
X140040D02*
X140038Y97067D01*
X139931Y96995*
X139931D02*
X139930D01*
X139823Y96959*
X139823D02*
X139822D01*
X139822D02*
X139680Y96923D01*
X139680D02*
X139394Y96816D01*
X139394D02*
X139393D01*
X139393D02*
X139216Y96781D01*
X138968Y96604*
X138968D02*
X138933Y96498D01*
X138933D02*
X138897Y96321D01*
X138897D02*
X138933Y96180D01*
X139004Y96038*
X139004D02*
X139110Y95932D01*
X139252Y95825*
X139252D02*
X139429Y95755D01*
X139429D02*
X139642D01*
X139642D02*
X139962Y95790D01*
X139962D02*
X140175Y95896D01*
X140175D02*
X140352Y96109D01*
X140352D02*
X140422Y96352D01*
X138636D02*
X138325Y96387D01*
X138290Y96248*
X138290D02*
X138289Y96247D01*
X138289D02*
X138182Y96104D01*
X138182D02*
X138179Y96102D01*
X138179D02*
X138036Y96066D01*
X138036D02*
X138036D01*
X138036D02*
X137858Y96030D01*
X137858D02*
X137857D01*
X137857D02*
X137678D01*
X137678D02*
X137676Y96031D01*
X137533Y96102*
X137533D02*
X137531Y96104D01*
X137531D02*
X137460Y96211D01*
X137460D02*
X137459Y96212D01*
X137459D02*
X137423Y96319D01*
X137423D02*
Y96321D01*
X137423D02*
X137424Y96323D01*
X137424D02*
X137459Y96395D01*
X137459D02*
X137460Y96396D01*
X137460D02*
X137532Y96467D01*
X137532D02*
X137534Y96469D01*
X137534D02*
X137677Y96504D01*
X137677D02*
X137855Y96576D01*
X137855*
X137855D02*
X138141Y96647D01*
X138141D02*
X138318Y96718D01*
X138318D02*
X138531Y96895D01*
X138531D02*
X138566Y97001D01*
X138566D02*
X138601Y97142D01*
X138601D02*
X138531Y97354D01*
X138531D02*
X138389Y97531D01*
X138389D02*
X138212Y97638D01*
X138212D02*
X137928Y97673D01*
X137928D02*
X137573Y97602D01*
X137431Y97531*
X137431D02*
X137325Y97425D01*
X137325D02*
X137221Y97147D01*
X137532Y97112*
X137532D02*
X137566Y97215D01*
X137566D02*
X137567Y97217D01*
X137638Y97324*
X137638D02*
X137641Y97326D01*
X137748Y97361*
X137748D02*
X137749Y97362D01*
X137927Y97397*
X137927D02*
X137929D01*
X137929D02*
X138215Y97326D01*
X138218Y97323*
X138218D02*
X138290Y97180D01*
X138290D02*
Y97178D01*
X138290D02*
Y97176D01*
X138290D02*
X138254Y97069D01*
X138254D02*
X138252Y97067D01*
X138252D02*
X138145Y96995D01*
X138145D02*
X138144D01*
X138037Y96959*
X138037D02*
X138036D01*
X138036D02*
X137894Y96923D01*
X137894D02*
X137608Y96816D01*
X137608D02*
X137608D01*
X137608D02*
X137430Y96781D01*
X137430D02*
X137182Y96604D01*
X137182D02*
X137147Y96498D01*
X137147D02*
X137112Y96321D01*
X137112D02*
X137147Y96180D01*
X137147D02*
X137218Y96038D01*
X137218D02*
X137324Y95932D01*
X137324D02*
X137466Y95825D01*
X137466D02*
X137643Y95755D01*
X137643D02*
X137856D01*
X137856D02*
X138177Y95790D01*
X138177D02*
X138389Y95896D01*
X138389D02*
X138566Y96109D01*
X138566D02*
X138636Y96352D01*
X136852Y96714D02*
X136780Y97105D01*
X136780D02*
X136603Y97425D01*
X136319Y97602*
X136319D02*
X135964Y97673D01*
X135609Y97602*
X135360Y97425*
X135360D02*
X135183Y97105D01*
X135112Y96713*
X135112D02*
Y96647D01*
X135112D02*
X136535D01*
X136535D02*
X136540Y96642D01*
X136540D02*
Y96641D01*
X136540D02*
X136469Y96391D01*
X136468Y96390*
X136468D02*
X136361Y96176D01*
X136361D02*
X136359Y96174D01*
X136359D02*
X136181Y96067D01*
X136179Y96066*
X135929Y96030*
X135929D02*
X135928D01*
X135928D02*
X135785D01*
X135785D02*
X135783Y96031D01*
X135640Y96102*
X135640D02*
X135639Y96103D01*
X135639D02*
X135532Y96210D01*
X135532D02*
X135531Y96211D01*
X135531D02*
X135426Y96351D01*
X135426D02*
X135114Y96317D01*
X135218Y96074*
X135218D02*
X135395Y95897D01*
X135395D02*
X135644Y95790D01*
X135644D02*
X135964Y95755D01*
X136319Y95826*
X136319D02*
X136603Y96003D01*
X136603D02*
X136780Y96287D01*
X136780D02*
X136852Y96714D01*
X136535Y96923D02*
X135428D01*
X135428D02*
X135423Y96928D01*
X135423D02*
Y96929D01*
X135423D02*
X135459Y97108D01*
X135460Y97110*
X135567Y97253*
X135568Y97254*
X135568D02*
X135747Y97361D01*
X135749Y97362*
X135963Y97397*
X135963D02*
X135965D01*
X135965D02*
X136179Y97362D01*
X136181Y97361*
X136359Y97254*
X136359D02*
X136360Y97253D01*
X136360D02*
X136503Y97110D01*
X136503D02*
X136504Y97108D01*
X136504D02*
X136540Y96929D01*
X136540D02*
X136535Y96923D01*
X134745Y97637D02*
X134433D01*
X134433D02*
Y97357D01*
X134433D02*
X134425Y97353D01*
X134425D02*
X134211Y97567D01*
X134034Y97638*
X133892Y97673*
X133892D02*
X133715Y97638D01*
X133715D02*
X133538Y97567D01*
X133538D02*
X133432Y97461D01*
X133432D02*
X133361Y97319D01*
X133361D02*
X133352Y97318D01*
X133352D02*
X133246Y97496D01*
X133246D02*
X133104Y97602D01*
X133104D02*
X132963Y97637D01*
X132963D02*
X132785Y97673D01*
X132785D02*
X132537Y97638D01*
X132360Y97532*
X132360D02*
X132254Y97319D01*
X132254D02*
X132219Y97071D01*
Y95790*
X132219D02*
X132530D01*
X132530D02*
Y97107D01*
X132530D02*
Y97108D01*
X132530D02*
X132566Y97215D01*
X132566D02*
X132567Y97217D01*
X132674Y97360*
X132674D02*
X132677Y97362D01*
X132677D02*
X132856Y97397D01*
X132856D02*
X132858D01*
X132858D02*
X133036Y97362D01*
X133036D02*
X133038Y97361D01*
X133038D02*
X133181Y97254D01*
X133181D02*
X133182Y97253D01*
X133182D02*
X133289Y97110D01*
X133289D02*
X133290Y97107D01*
X133290D02*
X133326Y96857D01*
X133326D02*
X133326D01*
Y95790*
X133326D02*
X133637D01*
X133637D02*
Y97142D01*
X133637D02*
X133638Y97145D01*
X133709Y97287*
X133709D02*
X133711Y97289D01*
X133711D02*
X133818Y97361D01*
X133818D02*
X133820D01*
X133820D02*
X133963Y97397D01*
X133963D02*
X133965D01*
X133965D02*
X134215Y97326D01*
X134215D02*
X134218Y97324D01*
X134218D02*
X134396Y97110D01*
X134396D02*
X134397Y97108D01*
X134397D02*
X134433Y96965D01*
Y96964*
X134433D02*
Y95790D01*
X134433D02*
X134745D01*
X134745D02*
Y97637D01*
X131745Y98352D02*
X131433D01*
X131433D02*
Y97392D01*
X131433D02*
X131425Y97389D01*
X131211Y97602*
X131211D02*
X130928Y97673D01*
X130928D02*
X130609Y97602D01*
X130361Y97425*
X130219Y97105*
X130219D02*
X130147Y96749D01*
X130147D02*
X130219Y96322D01*
X130219D02*
X130361Y96003D01*
X130644Y95826*
X130644D02*
X130929Y95755D01*
X131070*
X131211Y95825*
X131211D02*
X131425Y96039D01*
X131433Y96035*
X131433D02*
Y95790D01*
X131433D02*
X131745D01*
X131745D02*
Y98352D01*
X131433Y96714D02*
X131433D01*
X131433D02*
Y96713D01*
X131433D02*
X131397Y96463D01*
X131397D02*
X131362Y96249D01*
X131360Y96246*
X131181Y96103*
X131181D02*
X131180Y96102D01*
X130965Y96030*
X130965D02*
X130963D01*
X130963D02*
X130749Y96066D01*
X130746Y96067*
X130746D02*
X130603Y96210D01*
X130603D02*
X130602Y96212D01*
X130602D02*
X130495Y96426D01*
X130495D02*
Y96427D01*
X130495D02*
X130459Y96713D01*
X130459D02*
Y96714D01*
X130459*
X130459D02*
X130495Y97000D01*
X130495D02*
Y97002D01*
X130495D02*
X130602Y97216D01*
X130602D02*
X130603Y97217D01*
X130603D02*
X130746Y97360D01*
X130746D02*
X130749Y97362D01*
X130927Y97397*
X130927D02*
X130929D01*
X130929D02*
X131108Y97362D01*
X131110Y97361*
X131288Y97218*
X131288D02*
X131290Y97216D01*
X131290D02*
X131397Y97002D01*
Y97000*
X131397D02*
X131433Y96714D01*
X131433D02*
X131433D01*
X129709Y98352D02*
X129397D01*
X129397D02*
Y95790D01*
X129397D02*
X129709D01*
X129709D02*
Y98352D01*
X129135Y97637D02*
X128789D01*
X128789D02*
X128433Y96605D01*
X128433D02*
X128326Y96177D01*
X128316Y96176*
X128316D02*
X128173Y96569D01*
X128173D02*
X127782Y97637D01*
X127782D02*
X127435D01*
X127435D02*
X128147Y95751D01*
X128147D02*
X128147D01*
X128147D02*
X128218Y95502D01*
X128218D02*
X128325Y95324D01*
X128325D02*
X128396Y95217D01*
X128396D02*
X128503Y95111D01*
X128608Y95040*
X128608D02*
X128749D01*
X128749D02*
X128924Y95075D01*
X128924D02*
X128958Y95350D01*
X128958D02*
X128822Y95316D01*
X128822D02*
X128820D01*
X128820D02*
X128641Y95352D01*
X128641D02*
X128638Y95354D01*
X128638D02*
X128567Y95461D01*
X128567D02*
X128566Y95462D01*
X128566D02*
X128531Y95533D01*
X128530Y95534*
X128530D02*
X128495Y95676D01*
X128495D02*
X128459Y95747D01*
X128459D02*
Y95750D01*
Y95751*
X128459D02*
X129135Y97637D01*
X126137Y98352D02*
X125000D01*
X124822Y98316*
X124822D02*
X124609Y98245D01*
X124431Y98139*
X124431D02*
X124254Y97925D01*
X124254D02*
X124147Y97676D01*
X124147D02*
X124076Y97391D01*
X124076D02*
X124040Y97071D01*
X124040D02*
Y96822D01*
X124040D02*
X124111Y96572D01*
X124111D02*
X124183Y96359D01*
X124289Y96181*
X124289D02*
X124502Y95968D01*
X124502D02*
X124822Y95826D01*
X124822D02*
X125214Y95790D01*
X125214D02*
X126137D01*
X126137D02*
Y98352D01*
X125790Y98071D02*
Y96071D01*
X125790D02*
X125785Y96066D01*
X125785D02*
X125035D01*
X125035D02*
X125034D01*
X125034D02*
X124856Y96102D01*
X124854*
X124854D02*
X124640Y96245D01*
X124640D02*
X124638Y96247D01*
X124638D02*
X124531Y96389D01*
X124531D02*
Y96391D01*
X124459Y96569*
X124459D02*
Y96570D01*
X124388Y96820*
X124387Y96821*
X124387D02*
Y97071D01*
X124387D02*
X124387D01*
X124387D02*
X124423Y97464D01*
X124423D02*
Y97466D01*
X124423D02*
X124531Y97716D01*
Y97717*
X124531D02*
X124674Y97895D01*
X124674D02*
X124675Y97896D01*
X124675D02*
X124818Y98004D01*
X124819*
X124819D02*
X124998Y98076D01*
X125000*
X125785*
X125785D02*
X125790Y98071D01*
X123602Y97637D02*
X123326D01*
X123326D02*
Y97392D01*
X123326D02*
X123317Y97389D01*
X123317D02*
X123210Y97532D01*
X123140Y97602*
X123140D02*
X122928Y97673D01*
X122787Y97638*
X122649Y97568*
X122649D02*
X122752Y97293D01*
X122854Y97361*
X122855*
X122855D02*
X122962Y97397D01*
X122962D02*
X122966D01*
X123144Y97326*
X123144D02*
X123147Y97324D01*
X123254Y97145*
Y97143*
X123254D02*
X123290Y96786D01*
X123290D02*
Y96785D01*
X123290D02*
Y95790D01*
X123290D02*
X123602D01*
X123602D02*
Y97637D01*
X122530Y96285D02*
X122459Y96533D01*
X122459D02*
X122318Y96710D01*
X122105Y96816*
X122105D02*
X122000D01*
X121999*
X121999D02*
X121820Y96852D01*
X121820D02*
X121499Y96887D01*
X121499D02*
X121498Y96888D01*
X121284Y96959*
X121284D02*
X121280Y96964D01*
X121280D02*
Y97035D01*
X121280D02*
Y97036D01*
X121280D02*
X121316Y97179D01*
X121316D02*
Y97180D01*
X121316D02*
X121352Y97287D01*
X121354Y97290*
X121354D02*
X121497Y97361D01*
X121497D02*
X121499Y97362D01*
X121713Y97397*
X121713D02*
X121715D01*
X121715D02*
X121893Y97362D01*
X121893D02*
X121894Y97361D01*
X121894D02*
X122036Y97326D01*
X122036D02*
X122039Y97324D01*
X122039D02*
X122111Y97217D01*
Y97216*
X122111D02*
X122181Y97076D01*
X122181D02*
X122492Y97111D01*
X122492D02*
X122424Y97283D01*
X122424D02*
X122353Y97425D01*
X122353D02*
X122247Y97531D01*
X122070Y97602*
X121642Y97673*
X121642D02*
X121429D01*
X121429D02*
X121251Y97602D01*
X121251D02*
X121251D01*
X121251D02*
X121145Y97567D01*
X121145D02*
X121039Y97461D01*
X121039D02*
X120933Y97248D01*
X120933D02*
Y96107D01*
X120933D02*
Y96104D01*
X120933D02*
X120897Y96033D01*
X120897D02*
X120828Y95790D01*
X120828D02*
X121139D01*
X121139D02*
X121245Y96037D01*
X121245D02*
X121253Y96039D01*
X121253D02*
X121431Y95897D01*
X121573Y95826*
X121928Y95755*
X121928D02*
X122177Y95790D01*
X122177D02*
X122389Y95896D01*
X122389D02*
X122495Y96073D01*
X122530Y96285*
X122219Y96284D02*
X122183Y96176D01*
X122183D02*
X122182Y96175D01*
X122110Y96103*
X122110D02*
X122109Y96102D01*
X122109D02*
X122002Y96031D01*
X122002D02*
X122000Y96030D01*
X122000D02*
X121678D01*
X121678D02*
X121676Y96031D01*
X121533Y96102*
X121533D02*
X121532D01*
X121532D02*
X121425Y96174D01*
X121425D02*
X121424Y96175D01*
X121424D02*
X121317Y96318D01*
X121316Y96319*
X121316D02*
X121280Y96426D01*
X121280D02*
Y96428D01*
X121280D02*
Y96678D01*
X121280D02*
X121287Y96683D01*
X121501Y96612*
X121786Y96576*
X121786*
X121786D02*
X121929Y96540D01*
X121929D02*
X121930D01*
X122037Y96504*
X122037D02*
X122037D01*
X122037D02*
X122180Y96433D01*
X122180D02*
X122183Y96429D01*
X122183D02*
X122219Y96286D01*
X122219D02*
Y96284D01*
X120671Y97637D02*
X120360D01*
X120360D02*
X120040Y96570D01*
X120040D02*
X119969Y96177D01*
X119969D02*
X119960Y96175D01*
X119960D02*
X119925Y96210D01*
X119925D02*
X119923Y96214D01*
X119923D02*
Y96284D01*
X119923D02*
X119888Y96391D01*
X119887*
X119887D02*
X119852Y96570D01*
X119567Y97637*
X119567D02*
X119253D01*
X119253D02*
X118969Y96570D01*
Y96569*
X118969D02*
X118861Y96212D01*
X118861D02*
X118852Y96213D01*
X118780Y96570*
X118780D02*
X118460Y97637D01*
X118460D02*
X118113D01*
X118113D02*
X118682Y95790D01*
X118682D02*
X119031D01*
X119031D02*
X119316Y96894D01*
X119316D02*
X119387Y97215D01*
X119387D02*
X119397D01*
X119397D02*
X119789Y95790D01*
X119789D02*
X120139D01*
X120139D02*
X120671Y97637D01*
X117887D02*
X117576D01*
X117576D02*
Y95790D01*
X117576D02*
X117887D01*
X117887D02*
Y97637D01*
Y98352D02*
X117576D01*
Y98040*
X117576D02*
X117887D01*
X117887D02*
Y98352D01*
X117102Y97637D02*
X116790D01*
X116790D02*
Y97392D01*
X116790D02*
X116782Y97389D01*
X116675Y97496*
X116533Y97602*
X116533D02*
X116391Y97637D01*
X116391D02*
X116214Y97673D01*
X115930Y97602*
X115930D02*
X115718Y97460D01*
X115718D02*
X115612Y97213D01*
Y95790*
X115612D02*
X115923D01*
X115923D02*
Y97071D01*
X115923D02*
Y97073D01*
X115923D02*
X115959Y97180D01*
X115959D02*
X115960Y97182D01*
X115960D02*
X116103Y97324D01*
X116103D02*
X116105Y97326D01*
X116105D02*
X116319Y97397D01*
X116319D02*
X116322D01*
X116322D02*
X116500Y97362D01*
X116500D02*
X116503Y97361D01*
X116645Y97254*
X116645D02*
X116647Y97252D01*
X116647D02*
X116754Y97074D01*
Y97072*
X116754D02*
X116790Y96786D01*
X116790D02*
Y96785D01*
X116790D02*
Y95790D01*
X116790D02*
X117102D01*
X117102D02*
Y97637D01*
X115244Y96714D02*
X115209Y96963D01*
X115138Y97212*
X115031Y97389*
X115031D02*
X114889Y97531D01*
X114889D02*
X114712Y97638D01*
X114712D02*
X114464Y97673D01*
X114464D02*
X114181Y97602D01*
X114181D02*
X113967Y97389D01*
X113967D02*
X113959Y97392D01*
X113959D02*
Y97637D01*
X113959D02*
X113647D01*
X113647D02*
Y96035D01*
X113647D02*
X113683Y95679D01*
X113683D02*
X113719Y95430D01*
X113719D02*
X113860Y95253D01*
X113860D02*
X114002Y95147D01*
X114215Y95076*
X114464Y95040*
X114464D02*
X114784Y95076D01*
X114997Y95182*
X114997D02*
X115173Y95359D01*
X115173D02*
X115208Y95637D01*
X115208D02*
X114896Y95602D01*
X114896D02*
X114861Y95498D01*
X114861D02*
Y95497D01*
X114789Y95390*
X114789D02*
X114786Y95388D01*
X114786D02*
X114644Y95352D01*
X114643*
X114643D02*
X114465Y95316D01*
X114465D02*
X114463D01*
X114463D02*
X114284Y95352D01*
X114284D02*
X114284D01*
X114284D02*
X114141Y95388D01*
X114141D02*
X114139Y95389D01*
X114032Y95496*
X114030Y95498*
X114030D02*
X113959Y95784D01*
X113959D02*
Y95785D01*
X113959D02*
Y96035D01*
X113959D02*
X113967Y96039D01*
X113967D02*
X114180Y95861D01*
X114180D02*
X114464Y95790D01*
X114464D02*
X114783Y95861D01*
X114783D02*
X115031Y96074D01*
X115031D02*
X115209Y96358D01*
X115209D02*
X115244Y96714D01*
X114933Y96750D02*
Y96749D01*
X114933D02*
X114897Y96428D01*
X114897D02*
Y96426D01*
X114790Y96212*
X114788Y96210*
X114788D02*
X114645Y96103D01*
X114645D02*
X114643Y96102D01*
X114643D02*
X114465Y96066D01*
X114465D02*
X114463D01*
X114249Y96102*
X114247Y96103*
X114104Y96210*
X114102Y96212*
X114102D02*
X113995Y96426D01*
X113995D02*
Y96427D01*
X113995D02*
X113959Y96713D01*
X113959D02*
Y96714D01*
X113959*
X113959D02*
X113995Y97000D01*
X113995D02*
Y97002D01*
X113995D02*
X114102Y97216D01*
X114102D02*
X114103Y97217D01*
X114103D02*
X114246Y97360D01*
X114246D02*
X114249Y97362D01*
X114463Y97397*
X114463D02*
X114465D01*
X114465D02*
X114643Y97362D01*
X114643D02*
X114646Y97360D01*
X114646D02*
X114789Y97217D01*
X114789D02*
X114790Y97216D01*
X114790D02*
X114897Y97038D01*
Y97036*
X114897D02*
X114933Y96750D01*
X114933D02*
X114933D01*
X112102Y98352D02*
X111143D01*
X110857Y98316*
X110857D02*
X110680Y98280D01*
X110680D02*
X110503Y98174D01*
X110503D02*
X110397Y98033D01*
X110326Y97855*
X110326D02*
X110290Y97678D01*
X110290D02*
X110326Y97537D01*
X110397Y97395*
X110503Y97253*
X110503D02*
X110681Y97147D01*
X110683Y97142*
X110683D02*
X110680Y97138D01*
X110680D02*
X110467Y97031D01*
X110467D02*
X110325Y96889D01*
X110325D02*
X110219Y96712D01*
X110183Y96535*
X110183D02*
Y96358D01*
X110183D02*
X110254Y96180D01*
X110254D02*
X110325Y96039D01*
X110431Y95968*
X110431D02*
X110715Y95826D01*
X110715D02*
X110893Y95790D01*
X110893D02*
X112102D01*
X112102D02*
Y98352D01*
X111755Y98071D02*
Y97250D01*
X111750Y97245*
X111035*
X111035D02*
X111034D01*
X111034D02*
X110891Y97280D01*
X110891D02*
X110889Y97281D01*
X110889D02*
X110711Y97424D01*
X110711D02*
X110710Y97425D01*
X110710D02*
X110638Y97532D01*
X110638D02*
X110637Y97535D01*
X110637D02*
Y97642D01*
X110637D02*
X110638Y97644D01*
X110709Y97894*
X110710Y97896*
X110710D02*
X110853Y98039D01*
X110853D02*
X110856Y98040D01*
X110856D02*
X111034Y98076D01*
X111034D02*
X111035D01*
X111035D02*
X111750D01*
X111755Y98071*
Y96964D02*
Y96071D01*
X111750Y96066*
X110892*
X110892D02*
X110891D01*
X110891D02*
X110712Y96138D01*
X110710Y96139*
X110710D02*
X110567Y96282D01*
X110567D02*
X110566Y96284D01*
X110566D02*
X110530Y96499D01*
X110530D02*
Y96500D01*
X110530D02*
Y96642D01*
X110530D02*
X110531Y96645D01*
X110531D02*
X110602Y96752D01*
X110602D02*
X110603Y96753D01*
X110603D02*
X110818Y96932D01*
X110820Y96933*
X110963Y96969*
X110964*
X111750*
X111755Y96964*
X109852Y96714D02*
X109780Y97140D01*
X109780D02*
X109567Y97460D01*
X109567D02*
X109319Y97602D01*
X109319D02*
X108999Y97673D01*
X108999D02*
X108644Y97602D01*
X108644D02*
X108396Y97425D01*
X108396D02*
X108219Y97141D01*
X108147Y96749*
X108147D02*
X108183Y96429D01*
X108183D02*
X108254Y96180D01*
X108254D02*
X108396Y96003D01*
X108396D02*
X108573Y95861D01*
X108573D02*
X108751Y95790D01*
X108751D02*
X108999Y95755D01*
X108999D02*
X109355Y95826D01*
X109603Y96003*
X109780Y96287*
X109780D02*
X109852Y96714D01*
X109540Y96713D02*
X109504Y96427D01*
X109504D02*
Y96426D01*
X109397Y96212*
X109395Y96210*
X109395D02*
X109217Y96067D01*
X109217D02*
X109215Y96066D01*
X109000Y96030*
X109000D02*
X108999D01*
X108999D02*
X108784Y96066D01*
X108784D02*
X108782Y96067D01*
X108782D02*
X108604Y96210D01*
X108602Y96212*
X108602D02*
X108495Y96426D01*
X108495D02*
Y96427D01*
X108495D02*
X108459Y96713D01*
X108459D02*
Y96714D01*
X108459*
X108459D02*
X108495Y97000D01*
X108495D02*
Y97002D01*
X108495D02*
X108602Y97216D01*
X108602D02*
X108604Y97218D01*
X108782Y97361*
X108782D02*
X108784Y97362D01*
X108784D02*
X108999Y97397D01*
X108999D02*
X109000D01*
X109000D02*
X109215Y97362D01*
X109217Y97361*
X109395Y97218*
X109395D02*
X109397Y97216D01*
X109397D02*
X109504Y97002D01*
Y97000*
X109504D02*
X109540Y96714D01*
X109540D02*
Y96713D01*
X107959Y97637D02*
X107714D01*
X107714D02*
X107709Y97642D01*
X107709D02*
Y98104D01*
X107397Y98277*
X107397D02*
Y97642D01*
X107397D02*
X107392Y97637D01*
X107392D02*
X107076D01*
X107076D02*
Y97362D01*
X107392*
X107392D02*
X107397Y97357D01*
X107397D02*
Y96178D01*
X107397D02*
Y96176D01*
X107361Y96104*
X107361D02*
X107360Y96103D01*
X107360D02*
X107324Y96067D01*
X107324D02*
X107323Y96066D01*
X107323D02*
X107215Y96030D01*
X107215D02*
X107214D01*
X107214D02*
X107075D01*
X107075D02*
X107041Y95789D01*
X107041D02*
X107286Y95755D01*
X107427*
X107427D02*
X107533Y95790D01*
X107674Y95931*
X107709Y96072*
Y97357*
X107714Y97362*
X107959*
Y97637*
X106959D02*
X106714D01*
X106714D02*
X106709Y97642D01*
X106709D02*
Y98104D01*
X106397Y98277*
X106397D02*
Y97642D01*
X106397D02*
X106392Y97637D01*
X106392D02*
X106076D01*
X106076D02*
Y97362D01*
X106392*
X106392D02*
X106397Y97357D01*
X106397D02*
Y96178D01*
X106397D02*
Y96176D01*
X106361Y96104*
X106361D02*
X106360Y96103D01*
X106360D02*
X106324Y96067D01*
X106324D02*
X106323Y96066D01*
X106323D02*
X106215Y96030D01*
X106215D02*
X106214D01*
X106214D02*
X106075D01*
X106075D02*
X106041Y95789D01*
X106041D02*
X106286Y95755D01*
X106427*
X106427D02*
X106533Y95790D01*
X106674Y95931*
X106709Y96072*
Y97357*
X106714Y97362*
X106959*
Y97637*
X105852Y96714D02*
X105780Y97140D01*
X105780D02*
X105567Y97460D01*
X105567D02*
X105319Y97602D01*
X105319D02*
X104999Y97673D01*
X104999D02*
X104644Y97602D01*
X104644D02*
X104396Y97425D01*
X104396D02*
X104219Y97141D01*
X104147Y96749*
X104147D02*
X104183Y96429D01*
X104183D02*
X104254Y96180D01*
X104254D02*
X104396Y96003D01*
X104396D02*
X104573Y95861D01*
X104573D02*
X104751Y95790D01*
X104751D02*
X104999Y95755D01*
X104999D02*
X105355Y95826D01*
X105603Y96003*
X105780Y96287*
X105780D02*
X105852Y96714D01*
X105540Y96713D02*
X105504Y96427D01*
X105504D02*
Y96426D01*
X105397Y96212*
X105395Y96210*
X105395D02*
X105217Y96067D01*
X105217D02*
X105215Y96066D01*
X105000Y96030*
X105000D02*
X104999D01*
X104999D02*
X104784Y96066D01*
X104784D02*
X104782Y96067D01*
X104782D02*
X104604Y96210D01*
X104602Y96212*
X104602D02*
X104495Y96426D01*
X104495D02*
Y96427D01*
X104495D02*
X104459Y96713D01*
X104459D02*
Y96714D01*
X104459*
X104459D02*
X104495Y97000D01*
X104495D02*
Y97002D01*
X104495D02*
X104602Y97216D01*
X104602D02*
X104604Y97218D01*
X104782Y97361*
X104782D02*
X104784Y97362D01*
X104784D02*
X104999Y97397D01*
X104999D02*
X105000D01*
X105000D02*
X105215Y97362D01*
X105217Y97361*
X105395Y97218*
X105395D02*
X105397Y97216D01*
X105397D02*
X105504Y97002D01*
Y97000*
X105504D02*
X105540Y96714D01*
X105540D02*
Y96713D01*
X103780Y97637D02*
X103469D01*
X103469D02*
Y97357D01*
X103460Y97353*
X103460D02*
X103247Y97567D01*
X103069Y97638*
X103069D02*
X102928Y97673D01*
X102751Y97638*
X102574Y97567*
X102468Y97461*
X102397Y97319*
X102388Y97318*
X102388D02*
X102281Y97496D01*
X102281D02*
X102140Y97602D01*
X102140D02*
X101998Y97637D01*
X101998D02*
X101821Y97673D01*
X101821D02*
X101573Y97638D01*
X101396Y97532*
X101396D02*
X101290Y97319D01*
X101290D02*
X101255Y97071D01*
Y95790*
X101255D02*
X101566D01*
X101566D02*
Y97107D01*
Y97108*
X101566D02*
X101602Y97215D01*
X101602D02*
X101603Y97217D01*
X101710Y97360*
X101713Y97362*
X101891Y97397*
X101891D02*
X101893D01*
X101893D02*
X102072Y97362D01*
X102074Y97361*
X102217Y97254*
X102218Y97253*
X102325Y97110*
X102326Y97107*
X102326D02*
X102362Y96857D01*
X102362D02*
X102362D01*
Y95790*
X102362D02*
X102673D01*
X102673D02*
Y97142D01*
X102673D02*
X102674Y97145D01*
X102745Y97287*
X102745D02*
X102747Y97289D01*
X102747D02*
X102854Y97361D01*
X102855*
X102855D02*
X102998Y97397D01*
X102998D02*
X103001D01*
X103001D02*
X103251Y97326D01*
X103253Y97324*
X103253D02*
X103432Y97110D01*
X103433Y97108*
X103469Y96965*
Y96964*
Y95790*
X103469D02*
X103780D01*
X103780D02*
Y97637D01*
X101260Y95790D02*
Y97106D01*
X101270Y95790D02*
Y97176D01*
X101280Y95790D02*
Y97246D01*
X101290Y95790D02*
Y97316D01*
X101300Y95790D02*
Y97338D01*
X101310Y95790D02*
Y97358D01*
X101320Y95790D02*
Y97378D01*
X101330Y95790D02*
Y97398D01*
X101340Y95790D02*
Y97418D01*
X101350Y95790D02*
Y97438D01*
X101360Y95790D02*
Y97458D01*
X101370Y95790D02*
Y97478D01*
X101380Y95790D02*
Y97498D01*
X101390Y95790D02*
Y97518D01*
X101400Y95790D02*
Y97534D01*
X101410Y95790D02*
Y97540D01*
X101420Y95790D02*
Y97546D01*
X101430Y95790D02*
Y97552D01*
X101440Y95790D02*
Y97558D01*
X101450Y95790D02*
Y97564D01*
X101460Y95790D02*
Y97570D01*
X101470Y95790D02*
Y97576D01*
X101480Y95790D02*
Y97582D01*
X101490Y95790D02*
Y97588D01*
X101500Y95790D02*
Y97594D01*
X101510Y95790D02*
Y97600D01*
X101520Y95790D02*
Y97606D01*
X101530Y95790D02*
Y97612D01*
X101540Y95790D02*
Y97618D01*
X101550Y95790D02*
Y97624D01*
X101560Y95790D02*
Y97630D01*
X101570Y97118D02*
Y97636D01*
X101580Y97148D02*
Y97639D01*
X101590Y97178D02*
Y97640D01*
X101600Y97208D02*
Y97641D01*
X101610Y97226D02*
Y97643D01*
X101620Y97239D02*
Y97644D01*
X101630Y97253D02*
Y97646D01*
X101640Y97266D02*
Y97647D01*
X101650Y97279D02*
Y97649D01*
X101660Y97293D02*
Y97650D01*
X101670Y97306D02*
Y97651D01*
X101680Y97319D02*
Y97653D01*
X101690Y97333D02*
Y97654D01*
X101700Y97346D02*
Y97656D01*
X101710Y97359D02*
Y97657D01*
X101720Y97363D02*
Y97659D01*
X101730Y97365D02*
Y97660D01*
X101740Y97367D02*
Y97661D01*
X101750Y97369D02*
Y97663D01*
X101760Y97371D02*
Y97664D01*
X101770Y97373D02*
Y97666D01*
X101780Y97375D02*
Y97667D01*
X101790Y97377D02*
Y97669D01*
X101800Y97379D02*
Y97670D01*
X101810Y97381D02*
Y97671D01*
X101820Y97383D02*
Y97673D01*
X101830Y97385D02*
Y97671D01*
X101840Y97387D02*
Y97669D01*
X101850Y97389D02*
Y97667D01*
X101860Y97391D02*
Y97665D01*
X101870Y97393D02*
Y97663D01*
X101880Y97395D02*
Y97661D01*
X101890Y97397D02*
Y97659D01*
X101900Y97396D02*
Y97657D01*
X101910Y97394D02*
Y97655D01*
X101920Y97392D02*
Y97653D01*
X101930Y97390D02*
Y97651D01*
X101940Y97388D02*
Y97649D01*
X101950Y97386D02*
Y97647D01*
X101960Y97384D02*
Y97645D01*
X101970Y97382D02*
Y97643D01*
X101980Y97380D02*
Y97641D01*
X101990Y97378D02*
Y97639D01*
X102000Y97376D02*
Y97637D01*
X102010Y97374D02*
Y97635D01*
X102020Y97372D02*
Y97632D01*
X102030Y97370D02*
Y97630D01*
X102040Y97368D02*
Y97627D01*
X102050Y97366D02*
Y97625D01*
X102060Y97364D02*
Y97622D01*
X102070Y97362D02*
Y97620D01*
X102080Y97356D02*
Y97617D01*
X102090Y97349D02*
Y97615D01*
X102100Y97341D02*
Y97612D01*
X102110Y97334D02*
Y97610D01*
X102120Y97326D02*
Y97607D01*
X102130Y97319D02*
Y97605D01*
X102140Y97311D02*
Y97602D01*
X102150Y97304D02*
Y97595D01*
X102160Y97296D02*
Y97588D01*
X102170Y97289D02*
Y97580D01*
X102180Y97281D02*
Y97573D01*
X102190Y97274D02*
Y97565D01*
X102200Y97266D02*
Y97558D01*
X102210Y97259D02*
Y97550D01*
X102220Y97250D02*
Y97543D01*
X102230Y97237D02*
Y97535D01*
X102240Y97224D02*
Y97528D01*
X102250Y97210D02*
Y97520D01*
X102260Y97197D02*
Y97513D01*
X102270Y97184D02*
Y97505D01*
X102280Y97170D02*
Y97498D01*
X102290Y97157D02*
Y97483D01*
X102300Y97144D02*
Y97466D01*
X102310Y97130D02*
Y97449D01*
X102320Y97117D02*
Y97433D01*
X102330Y97082D02*
Y97416D01*
X102340Y97012D02*
Y97399D01*
X102350Y96942D02*
Y97383D01*
X102360Y96872D02*
Y97366D01*
X102370Y95790D02*
Y97349D01*
X102380Y95790D02*
Y97333D01*
X102390Y95790D02*
Y97317D01*
X102400Y95790D02*
Y97324D01*
X102410Y95790D02*
Y97344D01*
X102420Y95790D02*
Y97364D01*
X102430Y95790D02*
Y97384D01*
X102440Y95790D02*
Y97404D01*
X102450Y95790D02*
Y97424D01*
X102460Y95790D02*
Y97444D01*
X102470Y95790D02*
Y97462D01*
X102480Y95790D02*
Y97472D01*
X102490Y95790D02*
Y97482D01*
X102500Y95790D02*
Y97492D01*
X102510Y95790D02*
Y97502D01*
X102520Y95790D02*
Y97512D01*
X102530Y95790D02*
Y97522D01*
X102540Y95790D02*
Y97532D01*
X102550Y95790D02*
Y97542D01*
X102560Y95790D02*
Y97552D01*
X102570Y95790D02*
Y97562D01*
X102580Y95790D02*
Y97569D01*
X102590Y95790D02*
Y97573D01*
X102600Y95790D02*
Y97577D01*
X102610Y95790D02*
Y97581D01*
X102620Y95790D02*
Y97585D01*
X102630Y95790D02*
Y97589D01*
X102640Y95790D02*
Y97593D01*
X102650Y95790D02*
Y97597D01*
X102660Y95790D02*
Y97601D01*
X102670Y95790D02*
Y97605D01*
X102680Y97156D02*
Y97609D01*
X102690Y97176D02*
Y97613D01*
X102700Y97196D02*
Y97617D01*
X102710Y97216D02*
Y97621D01*
X102720Y97236D02*
Y97625D01*
X102730Y97256D02*
Y97629D01*
X102740Y97276D02*
Y97633D01*
X102750Y97291D02*
Y97637D01*
X102760Y97298D02*
Y97639D01*
X102770Y97305D02*
Y97641D01*
X102780Y97311D02*
Y97643D01*
X102790Y97318D02*
Y97645D01*
X102800Y97325D02*
Y97647D01*
X102810Y97331D02*
Y97649D01*
X102820Y97338D02*
Y97651D01*
X102830Y97345D02*
Y97653D01*
X102840Y97351D02*
Y97655D01*
X102850Y97358D02*
Y97657D01*
X102860Y97363D02*
Y97659D01*
X102870Y97365D02*
Y97661D01*
X102880Y97368D02*
Y97663D01*
X102890Y97370D02*
Y97665D01*
X102900Y97373D02*
Y97667D01*
X102910Y97375D02*
Y97669D01*
X102920Y97378D02*
Y97671D01*
X102930Y97380D02*
Y97673D01*
X102940Y97383D02*
Y97670D01*
X102950Y97385D02*
Y97668D01*
X102960Y97388D02*
Y97665D01*
X102970Y97390D02*
Y97663D01*
X102980Y97393D02*
Y97660D01*
X102990Y97395D02*
Y97658D01*
X103000Y97397D02*
Y97655D01*
X103010Y97395D02*
Y97653D01*
X103020Y97392D02*
Y97650D01*
X103030Y97389D02*
Y97648D01*
X103040Y97386D02*
Y97645D01*
X103050Y97383D02*
Y97643D01*
X103060Y97380D02*
Y97640D01*
X103070Y97378D02*
Y97638D01*
X103080Y97375D02*
Y97634D01*
X103090Y97372D02*
Y97630D01*
X103100Y97369D02*
Y97626D01*
X103110Y97366D02*
Y97622D01*
X103120Y97363D02*
Y97618D01*
X103130Y97360D02*
Y97614D01*
X103140Y97358D02*
Y97610D01*
X103150Y97355D02*
Y97606D01*
X103160Y97352D02*
Y97602D01*
X103170Y97349D02*
Y97598D01*
X103180Y97346D02*
Y97594D01*
X103190Y97343D02*
Y97590D01*
X103200Y97340D02*
Y97586D01*
X103210Y97338D02*
Y97582D01*
X103220Y97335D02*
Y97578D01*
X103230Y97332D02*
Y97574D01*
X103240Y97329D02*
Y97570D01*
X103250Y97326D02*
Y97564D01*
X103260Y97317D02*
Y97554D01*
X103270Y97305D02*
Y97544D01*
X103280Y97293D02*
Y97534D01*
X103290Y97281D02*
Y97524D01*
X103300Y97269D02*
Y97514D01*
X103310Y97257D02*
Y97504D01*
X103320Y97245D02*
Y97494D01*
X103330Y97233D02*
Y97484D01*
X103340Y97221D02*
Y97474D01*
X103350Y97209D02*
Y97464D01*
X103360Y97197D02*
Y97454D01*
X103370Y97185D02*
Y97444D01*
X103380Y97173D02*
Y97434D01*
X103390Y97161D02*
Y97424D01*
X103400Y97149D02*
Y97414D01*
X103410Y97137D02*
Y97404D01*
X103420Y97125D02*
Y97394D01*
X103430Y97113D02*
Y97384D01*
X103440Y97082D02*
Y97374D01*
X103450Y97042D02*
Y97364D01*
X103460Y97002D02*
Y97354D01*
X103470Y95790D02*
Y97637D01*
X103480Y95790D02*
Y97637D01*
X103490Y95790D02*
Y97637D01*
X103500Y95790D02*
Y97637D01*
X103510Y95790D02*
Y97637D01*
X103520Y95790D02*
Y97637D01*
X103530Y95790D02*
Y97637D01*
X103540Y95790D02*
Y97637D01*
X103550Y95790D02*
Y97637D01*
X103560Y95790D02*
Y97637D01*
X103570Y95790D02*
Y97637D01*
X103580Y95790D02*
Y97637D01*
X103590Y95790D02*
Y97637D01*
X103600Y95790D02*
Y97637D01*
X103610Y95790D02*
Y97637D01*
X103620Y95790D02*
Y97637D01*
X103630Y95790D02*
Y97637D01*
X103640Y95790D02*
Y97637D01*
X103650Y95790D02*
Y97637D01*
X103660Y95790D02*
Y97637D01*
X103670Y95790D02*
Y97637D01*
X103680Y95790D02*
Y97637D01*
X103690Y95790D02*
Y97637D01*
X103700Y95790D02*
Y97637D01*
X103710Y95790D02*
Y97637D01*
X103720Y95790D02*
Y97637D01*
X103730Y95790D02*
Y97637D01*
X103740Y95790D02*
Y97637D01*
X103750Y95790D02*
Y97637D01*
X103760Y95790D02*
Y97637D01*
X103770Y95790D02*
Y97637D01*
X103780Y95790D02*
Y97637D01*
X104150Y96730D02*
Y96761D01*
X104160Y96640D02*
Y96816D01*
X104170Y96550D02*
Y96871D01*
X104180Y96460D02*
Y96926D01*
X104190Y96406D02*
Y96981D01*
X104200Y96371D02*
Y97036D01*
X104210Y96336D02*
Y97091D01*
X104220Y96301D02*
Y97142D01*
X104230Y96266D02*
Y97158D01*
X104240Y96231D02*
Y97174D01*
X104250Y96196D02*
Y97190D01*
X104260Y96174D02*
Y97206D01*
X104270Y96161D02*
Y97222D01*
X104280Y96149D02*
Y97238D01*
X104290Y96136D02*
Y97254D01*
X104300Y96124D02*
Y97270D01*
X104310Y96111D02*
Y97286D01*
X104320Y96099D02*
Y97302D01*
X104330Y96086D02*
Y97318D01*
X104340Y96074D02*
Y97334D01*
X104350Y96061D02*
Y97350D01*
X104360Y96049D02*
Y97366D01*
X104370Y96036D02*
Y97382D01*
X104380Y96024D02*
Y97398D01*
X104390Y96011D02*
Y97414D01*
X104400Y96000D02*
Y97427D01*
X104410Y95992D02*
Y97434D01*
X104420Y95984D02*
Y97441D01*
X104430Y95976D02*
Y97448D01*
X104440Y95968D02*
Y97456D01*
X104450Y95960D02*
Y97463D01*
X104460Y95952D02*
Y96708D01*
Y96720D02*
Y97470D01*
X104470Y95944D02*
Y96628D01*
Y96800D02*
Y97477D01*
X104480Y95936D02*
Y96548D01*
Y96880D02*
Y97484D01*
X104490Y95928D02*
Y96468D01*
Y96960D02*
Y97491D01*
X104500Y95920D02*
Y96417D01*
Y97011D02*
Y97498D01*
X104510Y95912D02*
Y96397D01*
Y97031D02*
Y97506D01*
X104520Y95904D02*
Y96377D01*
Y97051D02*
Y97513D01*
X104530Y95896D02*
Y96357D01*
Y97071D02*
Y97520D01*
X104540Y95888D02*
Y96337D01*
Y97091D02*
Y97527D01*
X104550Y95880D02*
Y96317D01*
Y97111D02*
Y97534D01*
X104560Y95872D02*
Y96297D01*
Y97131D02*
Y97541D01*
X104570Y95864D02*
Y96277D01*
Y97151D02*
Y97548D01*
X104580Y95859D02*
Y96257D01*
Y97171D02*
Y97556D01*
X104590Y95855D02*
Y96237D01*
Y97191D02*
Y97563D01*
X104600Y95851D02*
Y96217D01*
Y97211D02*
Y97570D01*
X104610Y95847D02*
Y96205D01*
Y97222D02*
Y97577D01*
X104620Y95843D02*
Y96197D01*
Y97230D02*
Y97584D01*
X104630Y95839D02*
Y96189D01*
Y97238D02*
Y97591D01*
X104640Y95835D02*
Y96181D01*
Y97246D02*
Y97598D01*
X104650Y95831D02*
Y96173D01*
Y97254D02*
Y97603D01*
X104660Y95827D02*
Y96165D01*
Y97262D02*
Y97605D01*
X104670Y95823D02*
Y96157D01*
Y97270D02*
Y97607D01*
X104680Y95819D02*
Y96149D01*
Y97278D02*
Y97609D01*
X104690Y95815D02*
Y96141D01*
Y97286D02*
Y97611D01*
X104700Y95811D02*
Y96133D01*
Y97294D02*
Y97613D01*
X104710Y95807D02*
Y96125D01*
Y97302D02*
Y97615D01*
X104720Y95803D02*
Y96117D01*
Y97310D02*
Y97617D01*
X104730Y95799D02*
Y96109D01*
Y97318D02*
Y97619D01*
X104740Y95795D02*
Y96101D01*
Y97326D02*
Y97621D01*
X104750Y95791D02*
Y96093D01*
Y97334D02*
Y97623D01*
X104760Y95789D02*
Y96085D01*
Y97342D02*
Y97625D01*
X104770Y95787D02*
Y96077D01*
Y97350D02*
Y97627D01*
X104780Y95786D02*
Y96069D01*
Y97358D02*
Y97629D01*
X104790Y95785D02*
Y96065D01*
Y97362D02*
Y97631D01*
X104800Y95783D02*
Y96063D01*
Y97364D02*
Y97633D01*
X104810Y95782D02*
Y96062D01*
Y97366D02*
Y97635D01*
X104820Y95780D02*
Y96060D01*
Y97367D02*
Y97637D01*
X104830Y95779D02*
Y96058D01*
Y97369D02*
Y97639D01*
X104840Y95777D02*
Y96057D01*
Y97371D02*
Y97641D01*
X104850Y95776D02*
Y96055D01*
Y97372D02*
Y97643D01*
X104860Y95775D02*
Y96053D01*
Y97374D02*
Y97645D01*
X104870Y95773D02*
Y96052D01*
Y97376D02*
Y97647D01*
X104880Y95772D02*
Y96050D01*
Y97377D02*
Y97649D01*
X104890Y95770D02*
Y96048D01*
Y97379D02*
Y97651D01*
X104900Y95769D02*
Y96047D01*
Y97381D02*
Y97653D01*
X104910Y95767D02*
Y96045D01*
Y97382D02*
Y97655D01*
X104920Y95766D02*
Y96043D01*
Y97384D02*
Y97657D01*
X104930Y95765D02*
Y96042D01*
Y97386D02*
Y97659D01*
X104940Y95763D02*
Y96040D01*
Y97387D02*
Y97661D01*
X104950Y95762D02*
Y96038D01*
Y97389D02*
Y97663D01*
X104960Y95760D02*
Y96037D01*
Y97391D02*
Y97665D01*
X104970Y95759D02*
Y96035D01*
Y97392D02*
Y97667D01*
X104980Y95757D02*
Y96033D01*
Y97394D02*
Y97669D01*
X104990Y95756D02*
Y96032D01*
Y97396D02*
Y97671D01*
X105000Y95755D02*
Y96030D01*
Y97397D02*
Y97673D01*
X105010Y95757D02*
Y96032D01*
Y97396D02*
Y97671D01*
X105020Y95759D02*
Y96033D01*
Y97394D02*
Y97669D01*
X105030Y95761D02*
Y96035D01*
Y97392D02*
Y97666D01*
X105040Y95763D02*
Y96037D01*
Y97391D02*
Y97664D01*
X105050Y95765D02*
Y96038D01*
Y97389D02*
Y97662D01*
X105060Y95767D02*
Y96040D01*
Y97387D02*
Y97660D01*
X105070Y95769D02*
Y96042D01*
Y97386D02*
Y97657D01*
X105080Y95771D02*
Y96043D01*
Y97384D02*
Y97655D01*
X105090Y95773D02*
Y96045D01*
Y97382D02*
Y97653D01*
X105100Y95775D02*
Y96047D01*
Y97381D02*
Y97651D01*
X105110Y95777D02*
Y96048D01*
Y97379D02*
Y97649D01*
X105120Y95779D02*
Y96050D01*
Y97377D02*
Y97646D01*
X105130Y95781D02*
Y96052D01*
Y97376D02*
Y97644D01*
X105140Y95783D02*
Y96053D01*
Y97374D02*
Y97642D01*
X105150Y95785D02*
Y96055D01*
Y97372D02*
Y97640D01*
X105160Y95787D02*
Y96057D01*
Y97371D02*
Y97637D01*
X105170Y95789D02*
Y96058D01*
Y97369D02*
Y97635D01*
X105180Y95791D02*
Y96060D01*
Y97367D02*
Y97633D01*
X105190Y95793D02*
Y96062D01*
Y97366D02*
Y97631D01*
X105200Y95795D02*
Y96063D01*
Y97364D02*
Y97629D01*
X105210Y95797D02*
Y96065D01*
Y97362D02*
Y97626D01*
X105220Y95799D02*
Y96069D01*
Y97358D02*
Y97624D01*
X105230Y95801D02*
Y96077D01*
Y97350D02*
Y97622D01*
X105240Y95803D02*
Y96085D01*
Y97342D02*
Y97620D01*
X105250Y95805D02*
Y96093D01*
Y97334D02*
Y97617D01*
X105260Y95807D02*
Y96101D01*
Y97326D02*
Y97615D01*
X105270Y95809D02*
Y96109D01*
Y97318D02*
Y97613D01*
X105280Y95811D02*
Y96117D01*
Y97310D02*
Y97611D01*
X105290Y95813D02*
Y96125D01*
Y97302D02*
Y97609D01*
X105300Y95815D02*
Y96133D01*
Y97294D02*
Y97606D01*
X105310Y95817D02*
Y96141D01*
Y97286D02*
Y97604D01*
X105320Y95819D02*
Y96149D01*
Y97278D02*
Y97602D01*
X105330Y95821D02*
Y96157D01*
Y97270D02*
Y97596D01*
X105340Y95823D02*
Y96165D01*
Y97262D02*
Y97590D01*
X105350Y95825D02*
Y96173D01*
Y97254D02*
Y97585D01*
X105360Y95829D02*
Y96181D01*
Y97246D02*
Y97579D01*
X105370Y95836D02*
Y96189D01*
Y97238D02*
Y97573D01*
X105380Y95843D02*
Y96197D01*
Y97230D02*
Y97567D01*
X105390Y95851D02*
Y96205D01*
Y97222D02*
Y97562D01*
X105400Y95858D02*
Y96217D01*
Y97211D02*
Y97556D01*
X105410Y95865D02*
Y96237D01*
Y97191D02*
Y97550D01*
X105420Y95872D02*
Y96257D01*
Y97171D02*
Y97545D01*
X105430Y95879D02*
Y96277D01*
Y97151D02*
Y97539D01*
X105440Y95886D02*
Y96297D01*
Y97131D02*
Y97533D01*
X105450Y95893D02*
Y96317D01*
Y97111D02*
Y97527D01*
X105460Y95901D02*
Y96337D01*
Y97091D02*
Y97522D01*
X105470Y95908D02*
Y96357D01*
Y97071D02*
Y97516D01*
X105480Y95915D02*
Y96377D01*
Y97051D02*
Y97510D01*
X105490Y95922D02*
Y96397D01*
Y97031D02*
Y97505D01*
X105500Y95929D02*
Y96417D01*
Y97011D02*
Y97499D01*
X105510Y95936D02*
Y96468D01*
Y96960D02*
Y97493D01*
X105520Y95943D02*
Y96548D01*
Y96880D02*
Y97487D01*
X105530Y95951D02*
Y96628D01*
Y96800D02*
Y97482D01*
X105540Y95958D02*
Y96708D01*
Y96720D02*
Y97476D01*
X105550Y95965D02*
Y97470D01*
X105560Y95972D02*
Y97465D01*
X105570Y95979D02*
Y97457D01*
X105580Y95986D02*
Y97442D01*
X105590Y95993D02*
Y97427D01*
X105600Y96001D02*
Y97412D01*
X105610Y96014D02*
Y97397D01*
X105620Y96030D02*
Y97382D01*
X105630Y96046D02*
Y97367D01*
X105640Y96062D02*
Y97352D01*
X105650Y96078D02*
Y97337D01*
X105660Y96094D02*
Y97322D01*
X105670Y96110D02*
Y97307D01*
X105680Y96126D02*
Y97292D01*
X105690Y96142D02*
Y97277D01*
X105700Y96158D02*
Y97262D01*
X105710Y96174D02*
Y97247D01*
X105720Y96190D02*
Y97232D01*
X105730Y96206D02*
Y97217D01*
X105740Y96222D02*
Y97202D01*
X105750Y96238D02*
Y97187D01*
X105760Y96254D02*
Y97172D01*
X105770Y96270D02*
Y97157D01*
X105780Y96286D02*
Y97142D01*
X105790Y96341D02*
Y97086D01*
X105800Y96401D02*
Y97026D01*
X105810Y96461D02*
Y96966D01*
X105820Y96521D02*
Y96906D01*
X105830Y96581D02*
Y96846D01*
X105840Y96641D02*
Y96786D01*
X105850Y96701D02*
Y96726D01*
X106050Y95788D02*
Y95850D01*
X106060Y95787D02*
Y95920D01*
X106070Y95785D02*
Y95990D01*
X106080Y95784D02*
Y96030D01*
Y97362D02*
Y97637D01*
X106090Y95783D02*
Y96030D01*
Y97362D02*
Y97637D01*
X106100Y95781D02*
Y96030D01*
Y97362D02*
Y97637D01*
X106110Y95780D02*
Y96030D01*
Y97362D02*
Y97637D01*
X106120Y95778D02*
Y96030D01*
Y97362D02*
Y97637D01*
X106130Y95777D02*
Y96030D01*
Y97362D02*
Y97637D01*
X106140Y95775D02*
Y96030D01*
Y97362D02*
Y97637D01*
X106150Y95774D02*
Y96030D01*
Y97362D02*
Y97637D01*
X106160Y95773D02*
Y96030D01*
Y97362D02*
Y97637D01*
X106170Y95771D02*
Y96030D01*
Y97362D02*
Y97637D01*
X106180Y95770D02*
Y96030D01*
Y97362D02*
Y97637D01*
X106190Y95768D02*
Y96030D01*
Y97362D02*
Y97637D01*
X106200Y95767D02*
Y96030D01*
Y97362D02*
Y97637D01*
X106210Y95765D02*
Y96030D01*
Y97362D02*
Y97637D01*
X106220Y95764D02*
Y96032D01*
Y97362D02*
Y97637D01*
X106230Y95763D02*
Y96035D01*
Y97362D02*
Y97637D01*
X106240Y95761D02*
Y96039D01*
Y97362D02*
Y97637D01*
X106250Y95760D02*
Y96042D01*
Y97362D02*
Y97637D01*
X106260Y95758D02*
Y96045D01*
Y97362D02*
Y97637D01*
X106270Y95757D02*
Y96049D01*
Y97362D02*
Y97637D01*
X106280Y95755D02*
Y96052D01*
Y97362D02*
Y97637D01*
X106290Y95755D02*
Y96055D01*
Y97362D02*
Y97637D01*
X106300Y95755D02*
Y96059D01*
Y97362D02*
Y97637D01*
X106310Y95755D02*
Y96062D01*
Y97362D02*
Y97637D01*
X106320Y95755D02*
Y96065D01*
Y97362D02*
Y97637D01*
X106330Y95755D02*
Y96072D01*
Y97362D02*
Y97637D01*
X106340Y95755D02*
Y96082D01*
Y97362D02*
Y97637D01*
X106350Y95755D02*
Y96092D01*
Y97362D02*
Y97637D01*
X106360Y95755D02*
Y96102D01*
Y97362D02*
Y97637D01*
X106370Y95755D02*
Y96121D01*
Y97362D02*
Y97637D01*
X106380Y95755D02*
Y96141D01*
Y97362D02*
Y97637D01*
X106390Y95755D02*
Y96161D01*
Y97362D02*
Y97637D01*
X106400Y95755D02*
Y98276D01*
X106410Y95755D02*
Y98270D01*
X106420Y95755D02*
Y98264D01*
X106430Y95755D02*
Y98259D01*
X106440Y95759D02*
Y98253D01*
X106450Y95762D02*
Y98248D01*
X106460Y95765D02*
Y98242D01*
X106470Y95769D02*
Y98237D01*
X106480Y95772D02*
Y98231D01*
X106490Y95775D02*
Y98226D01*
X106500Y95779D02*
Y98220D01*
X106510Y95782D02*
Y98214D01*
X106520Y95785D02*
Y98209D01*
X106530Y95789D02*
Y98203D01*
X106540Y95797D02*
Y98198D01*
X106550Y95807D02*
Y98192D01*
X106560Y95817D02*
Y98187D01*
X106570Y95827D02*
Y98181D01*
X106580Y95837D02*
Y98176D01*
X106590Y95847D02*
Y98170D01*
X106600Y95857D02*
Y98164D01*
X106610Y95867D02*
Y98159D01*
X106620Y95877D02*
Y98153D01*
X106630Y95887D02*
Y98148D01*
X106640Y95897D02*
Y98142D01*
X106650Y95907D02*
Y98137D01*
X106660Y95917D02*
Y98131D01*
X106670Y95927D02*
Y98126D01*
X106680Y95954D02*
Y98120D01*
X106690Y95994D02*
Y98114D01*
X106700Y96034D02*
Y98109D01*
X106710Y97359D02*
Y97640D01*
X106720Y97362D02*
Y97637D01*
X106730Y97362D02*
Y97637D01*
X106740Y97362D02*
Y97637D01*
X106750Y97362D02*
Y97637D01*
X106760Y97362D02*
Y97637D01*
X106770Y97362D02*
Y97637D01*
X106780Y97362D02*
Y97637D01*
X106790Y97362D02*
Y97637D01*
X106800Y97362D02*
Y97637D01*
X106810Y97362D02*
Y97637D01*
X106820Y97362D02*
Y97637D01*
X106830Y97362D02*
Y97637D01*
X106840Y97362D02*
Y97637D01*
X106850Y97362D02*
Y97637D01*
X106860Y97362D02*
Y97637D01*
X106870Y97362D02*
Y97637D01*
X106880Y97362D02*
Y97637D01*
X106890Y97362D02*
Y97637D01*
X106900Y97362D02*
Y97637D01*
X106910Y97362D02*
Y97637D01*
X106920Y97362D02*
Y97637D01*
X106930Y97362D02*
Y97637D01*
X106940Y97362D02*
Y97637D01*
X106950Y97362D02*
Y97637D01*
X107050Y95788D02*
Y95850D01*
X107060Y95787D02*
Y95920D01*
X107070Y95785D02*
Y95990D01*
X107080Y95784D02*
Y96030D01*
Y97362D02*
Y97637D01*
X107090Y95783D02*
Y96030D01*
Y97362D02*
Y97637D01*
X107100Y95781D02*
Y96030D01*
Y97362D02*
Y97637D01*
X107110Y95780D02*
Y96030D01*
Y97362D02*
Y97637D01*
X107120Y95778D02*
Y96030D01*
Y97362D02*
Y97637D01*
X107130Y95777D02*
Y96030D01*
Y97362D02*
Y97637D01*
X107140Y95775D02*
Y96030D01*
Y97362D02*
Y97637D01*
X107150Y95774D02*
Y96030D01*
Y97362D02*
Y97637D01*
X107160Y95773D02*
Y96030D01*
Y97362D02*
Y97637D01*
X107170Y95771D02*
Y96030D01*
Y97362D02*
Y97637D01*
X107180Y95770D02*
Y96030D01*
Y97362D02*
Y97637D01*
X107190Y95768D02*
Y96030D01*
Y97362D02*
Y97637D01*
X107200Y95767D02*
Y96030D01*
Y97362D02*
Y97637D01*
X107210Y95765D02*
Y96030D01*
Y97362D02*
Y97637D01*
X107220Y95764D02*
Y96032D01*
Y97362D02*
Y97637D01*
X107230Y95763D02*
Y96035D01*
Y97362D02*
Y97637D01*
X107240Y95761D02*
Y96039D01*
Y97362D02*
Y97637D01*
X107250Y95760D02*
Y96042D01*
Y97362D02*
Y97637D01*
X107260Y95758D02*
Y96045D01*
Y97362D02*
Y97637D01*
X107270Y95757D02*
Y96049D01*
Y97362D02*
Y97637D01*
X107280Y95755D02*
Y96052D01*
Y97362D02*
Y97637D01*
X107290Y95755D02*
Y96055D01*
Y97362D02*
Y97637D01*
X107300Y95755D02*
Y96059D01*
Y97362D02*
Y97637D01*
X107310Y95755D02*
Y96062D01*
Y97362D02*
Y97637D01*
X107320Y95755D02*
Y96065D01*
Y97362D02*
Y97637D01*
X107330Y95755D02*
Y96072D01*
Y97362D02*
Y97637D01*
X107340Y95755D02*
Y96082D01*
Y97362D02*
Y97637D01*
X107350Y95755D02*
Y96092D01*
Y97362D02*
Y97637D01*
X107360Y95755D02*
Y96102D01*
Y97362D02*
Y97637D01*
X107370Y95755D02*
Y96121D01*
Y97362D02*
Y97637D01*
X107380Y95755D02*
Y96141D01*
Y97362D02*
Y97637D01*
X107390Y95755D02*
Y96161D01*
Y97362D02*
Y97637D01*
X107400Y95755D02*
Y98276D01*
X107410Y95755D02*
Y98270D01*
X107420Y95755D02*
Y98264D01*
X107430Y95755D02*
Y98259D01*
X107440Y95759D02*
Y98253D01*
X107450Y95762D02*
Y98248D01*
X107460Y95765D02*
Y98242D01*
X107470Y95769D02*
Y98237D01*
X107480Y95772D02*
Y98231D01*
X107490Y95775D02*
Y98226D01*
X107500Y95779D02*
Y98220D01*
X107510Y95782D02*
Y98214D01*
X107520Y95785D02*
Y98209D01*
X107530Y95789D02*
Y98203D01*
X107540Y95797D02*
Y98198D01*
X107550Y95807D02*
Y98192D01*
X107560Y95817D02*
Y98187D01*
X107570Y95827D02*
Y98181D01*
X107580Y95837D02*
Y98176D01*
X107590Y95847D02*
Y98170D01*
X107600Y95857D02*
Y98164D01*
X107610Y95867D02*
Y98159D01*
X107620Y95877D02*
Y98153D01*
X107630Y95887D02*
Y98148D01*
X107640Y95897D02*
Y98142D01*
X107650Y95907D02*
Y98137D01*
X107660Y95917D02*
Y98131D01*
X107670Y95927D02*
Y98126D01*
X107680Y95954D02*
Y98120D01*
X107690Y95994D02*
Y98114D01*
X107700Y96034D02*
Y98109D01*
X107710Y97359D02*
Y97640D01*
X107720Y97362D02*
Y97637D01*
X107730Y97362D02*
Y97637D01*
X107740Y97362D02*
Y97637D01*
X107750Y97362D02*
Y97637D01*
X107760Y97362D02*
Y97637D01*
X107770Y97362D02*
Y97637D01*
X107780Y97362D02*
Y97637D01*
X107790Y97362D02*
Y97637D01*
X107800Y97362D02*
Y97637D01*
X107810Y97362D02*
Y97637D01*
X107820Y97362D02*
Y97637D01*
X107830Y97362D02*
Y97637D01*
X107840Y97362D02*
Y97637D01*
X107850Y97362D02*
Y97637D01*
X107860Y97362D02*
Y97637D01*
X107870Y97362D02*
Y97637D01*
X107880Y97362D02*
Y97637D01*
X107890Y97362D02*
Y97637D01*
X107900Y97362D02*
Y97637D01*
X107910Y97362D02*
Y97637D01*
X107920Y97362D02*
Y97637D01*
X107930Y97362D02*
Y97637D01*
X107940Y97362D02*
Y97637D01*
X107950Y97362D02*
Y97637D01*
X108150Y96730D02*
Y96761D01*
X108160Y96640D02*
Y96816D01*
X108170Y96550D02*
Y96871D01*
X108180Y96460D02*
Y96926D01*
X108190Y96406D02*
Y96981D01*
X108200Y96371D02*
Y97036D01*
X108210Y96336D02*
Y97091D01*
X108220Y96301D02*
Y97142D01*
X108230Y96266D02*
Y97158D01*
X108240Y96231D02*
Y97174D01*
X108250Y96196D02*
Y97190D01*
X108260Y96174D02*
Y97206D01*
X108270Y96161D02*
Y97222D01*
X108280Y96149D02*
Y97238D01*
X108290Y96136D02*
Y97254D01*
X108300Y96124D02*
Y97270D01*
X108310Y96111D02*
Y97286D01*
X108320Y96099D02*
Y97302D01*
X108330Y96086D02*
Y97318D01*
X108340Y96074D02*
Y97334D01*
X108350Y96061D02*
Y97350D01*
X108360Y96049D02*
Y97366D01*
X108370Y96036D02*
Y97382D01*
X108380Y96024D02*
Y97398D01*
X108390Y96011D02*
Y97414D01*
X108400Y96000D02*
Y97427D01*
X108410Y95992D02*
Y97434D01*
X108420Y95984D02*
Y97441D01*
X108430Y95976D02*
Y97448D01*
X108440Y95968D02*
Y97456D01*
X108450Y95960D02*
Y97463D01*
X108460Y95952D02*
Y96708D01*
Y96720D02*
Y97470D01*
X108470Y95944D02*
Y96628D01*
Y96800D02*
Y97477D01*
X108480Y95936D02*
Y96548D01*
Y96880D02*
Y97484D01*
X108490Y95928D02*
Y96468D01*
Y96960D02*
Y97491D01*
X108500Y95920D02*
Y96417D01*
Y97011D02*
Y97498D01*
X108510Y95912D02*
Y96397D01*
Y97031D02*
Y97506D01*
X108520Y95904D02*
Y96377D01*
Y97051D02*
Y97513D01*
X108530Y95896D02*
Y96357D01*
Y97071D02*
Y97520D01*
X108540Y95888D02*
Y96337D01*
Y97091D02*
Y97527D01*
X108550Y95880D02*
Y96317D01*
Y97111D02*
Y97534D01*
X108560Y95872D02*
Y96297D01*
Y97131D02*
Y97541D01*
X108570Y95864D02*
Y96277D01*
Y97151D02*
Y97548D01*
X108580Y95859D02*
Y96257D01*
Y97171D02*
Y97556D01*
X108590Y95855D02*
Y96237D01*
Y97191D02*
Y97563D01*
X108600Y95851D02*
Y96217D01*
Y97211D02*
Y97570D01*
X108610Y95847D02*
Y96205D01*
Y97222D02*
Y97577D01*
X108620Y95843D02*
Y96197D01*
Y97230D02*
Y97584D01*
X108630Y95839D02*
Y96189D01*
Y97238D02*
Y97591D01*
X108640Y95835D02*
Y96181D01*
Y97246D02*
Y97598D01*
X108650Y95831D02*
Y96173D01*
Y97254D02*
Y97603D01*
X108660Y95827D02*
Y96165D01*
Y97262D02*
Y97605D01*
X108670Y95823D02*
Y96157D01*
Y97270D02*
Y97607D01*
X108680Y95819D02*
Y96149D01*
Y97278D02*
Y97609D01*
X108690Y95815D02*
Y96141D01*
Y97286D02*
Y97611D01*
X108700Y95811D02*
Y96133D01*
Y97294D02*
Y97613D01*
X108710Y95807D02*
Y96125D01*
Y97302D02*
Y97615D01*
X108720Y95803D02*
Y96117D01*
Y97310D02*
Y97617D01*
X108730Y95799D02*
Y96109D01*
Y97318D02*
Y97619D01*
X108740Y95795D02*
Y96101D01*
Y97326D02*
Y97621D01*
X108750Y95791D02*
Y96093D01*
Y97334D02*
Y97623D01*
X108760Y95789D02*
Y96085D01*
Y97342D02*
Y97625D01*
X108770Y95787D02*
Y96077D01*
Y97350D02*
Y97627D01*
X108780Y95786D02*
Y96069D01*
Y97358D02*
Y97629D01*
X108790Y95785D02*
Y96065D01*
Y97362D02*
Y97631D01*
X108800Y95783D02*
Y96063D01*
Y97364D02*
Y97633D01*
X108810Y95782D02*
Y96062D01*
Y97366D02*
Y97635D01*
X108820Y95780D02*
Y96060D01*
Y97367D02*
Y97637D01*
X108830Y95779D02*
Y96058D01*
Y97369D02*
Y97639D01*
X108840Y95777D02*
Y96057D01*
Y97371D02*
Y97641D01*
X108850Y95776D02*
Y96055D01*
Y97372D02*
Y97643D01*
X108860Y95775D02*
Y96053D01*
Y97374D02*
Y97645D01*
X108870Y95773D02*
Y96052D01*
Y97376D02*
Y97647D01*
X108880Y95772D02*
Y96050D01*
Y97377D02*
Y97649D01*
X108890Y95770D02*
Y96048D01*
Y97379D02*
Y97651D01*
X108900Y95769D02*
Y96047D01*
Y97381D02*
Y97653D01*
X108910Y95767D02*
Y96045D01*
Y97382D02*
Y97655D01*
X108920Y95766D02*
Y96043D01*
Y97384D02*
Y97657D01*
X108930Y95765D02*
Y96042D01*
Y97386D02*
Y97659D01*
X108940Y95763D02*
Y96040D01*
Y97387D02*
Y97661D01*
X108950Y95762D02*
Y96038D01*
Y97389D02*
Y97663D01*
X108960Y95760D02*
Y96037D01*
Y97391D02*
Y97665D01*
X108970Y95759D02*
Y96035D01*
Y97392D02*
Y97667D01*
X108980Y95757D02*
Y96033D01*
Y97394D02*
Y97669D01*
X108990Y95756D02*
Y96032D01*
Y97396D02*
Y97671D01*
X109000Y95755D02*
Y96030D01*
Y97397D02*
Y97673D01*
X109010Y95757D02*
Y96032D01*
Y97396D02*
Y97671D01*
X109020Y95759D02*
Y96033D01*
Y97394D02*
Y97669D01*
X109030Y95761D02*
Y96035D01*
Y97392D02*
Y97666D01*
X109040Y95763D02*
Y96037D01*
Y97391D02*
Y97664D01*
X109050Y95765D02*
Y96038D01*
Y97389D02*
Y97662D01*
X109060Y95767D02*
Y96040D01*
Y97387D02*
Y97660D01*
X109070Y95769D02*
Y96042D01*
Y97386D02*
Y97657D01*
X109080Y95771D02*
Y96043D01*
Y97384D02*
Y97655D01*
X109090Y95773D02*
Y96045D01*
Y97382D02*
Y97653D01*
X109100Y95775D02*
Y96047D01*
Y97381D02*
Y97651D01*
X109110Y95777D02*
Y96048D01*
Y97379D02*
Y97649D01*
X109120Y95779D02*
Y96050D01*
Y97377D02*
Y97646D01*
X109130Y95781D02*
Y96052D01*
Y97376D02*
Y97644D01*
X109140Y95783D02*
Y96053D01*
Y97374D02*
Y97642D01*
X109150Y95785D02*
Y96055D01*
Y97372D02*
Y97640D01*
X109160Y95787D02*
Y96057D01*
Y97371D02*
Y97637D01*
X109170Y95789D02*
Y96058D01*
Y97369D02*
Y97635D01*
X109180Y95791D02*
Y96060D01*
Y97367D02*
Y97633D01*
X109190Y95793D02*
Y96062D01*
Y97366D02*
Y97631D01*
X109200Y95795D02*
Y96063D01*
Y97364D02*
Y97629D01*
X109210Y95797D02*
Y96065D01*
Y97362D02*
Y97626D01*
X109220Y95799D02*
Y96069D01*
Y97358D02*
Y97624D01*
X109230Y95801D02*
Y96077D01*
Y97350D02*
Y97622D01*
X109240Y95803D02*
Y96085D01*
Y97342D02*
Y97620D01*
X109250Y95805D02*
Y96093D01*
Y97334D02*
Y97617D01*
X109260Y95807D02*
Y96101D01*
Y97326D02*
Y97615D01*
X109270Y95809D02*
Y96109D01*
Y97318D02*
Y97613D01*
X109280Y95811D02*
Y96117D01*
Y97310D02*
Y97611D01*
X109290Y95813D02*
Y96125D01*
Y97302D02*
Y97609D01*
X109300Y95815D02*
Y96133D01*
Y97294D02*
Y97606D01*
X109310Y95817D02*
Y96141D01*
Y97286D02*
Y97604D01*
X109320Y95819D02*
Y96149D01*
Y97278D02*
Y97602D01*
X109330Y95821D02*
Y96157D01*
Y97270D02*
Y97596D01*
X109340Y95823D02*
Y96165D01*
Y97262D02*
Y97590D01*
X109350Y95825D02*
Y96173D01*
Y97254D02*
Y97585D01*
X109360Y95829D02*
Y96181D01*
Y97246D02*
Y97579D01*
X109370Y95836D02*
Y96189D01*
Y97238D02*
Y97573D01*
X109380Y95843D02*
Y96197D01*
Y97230D02*
Y97567D01*
X109390Y95851D02*
Y96205D01*
Y97222D02*
Y97562D01*
X109400Y95858D02*
Y96217D01*
Y97211D02*
Y97556D01*
X109410Y95865D02*
Y96237D01*
Y97191D02*
Y97550D01*
X109420Y95872D02*
Y96257D01*
Y97171D02*
Y97545D01*
X109430Y95879D02*
Y96277D01*
Y97151D02*
Y97539D01*
X109440Y95886D02*
Y96297D01*
Y97131D02*
Y97533D01*
X109450Y95893D02*
Y96317D01*
Y97111D02*
Y97527D01*
X109460Y95901D02*
Y96337D01*
Y97091D02*
Y97522D01*
X109470Y95908D02*
Y96357D01*
Y97071D02*
Y97516D01*
X109480Y95915D02*
Y96377D01*
Y97051D02*
Y97510D01*
X109490Y95922D02*
Y96397D01*
Y97031D02*
Y97505D01*
X109500Y95929D02*
Y96417D01*
Y97011D02*
Y97499D01*
X109510Y95936D02*
Y96468D01*
Y96960D02*
Y97493D01*
X109520Y95943D02*
Y96548D01*
Y96880D02*
Y97487D01*
X109530Y95951D02*
Y96628D01*
Y96800D02*
Y97482D01*
X109540Y95958D02*
Y96708D01*
Y96720D02*
Y97476D01*
X109550Y95965D02*
Y97470D01*
X109560Y95972D02*
Y97465D01*
X109570Y95979D02*
Y97457D01*
X109580Y95986D02*
Y97442D01*
X109590Y95993D02*
Y97427D01*
X109600Y96001D02*
Y97412D01*
X109610Y96014D02*
Y97397D01*
X109620Y96030D02*
Y97382D01*
X109630Y96046D02*
Y97367D01*
X109640Y96062D02*
Y97352D01*
X109650Y96078D02*
Y97337D01*
X109660Y96094D02*
Y97322D01*
X109670Y96110D02*
Y97307D01*
X109680Y96126D02*
Y97292D01*
X109690Y96142D02*
Y97277D01*
X109700Y96158D02*
Y97262D01*
X109710Y96174D02*
Y97247D01*
X109720Y96190D02*
Y97232D01*
X109730Y96206D02*
Y97217D01*
X109740Y96222D02*
Y97202D01*
X109750Y96238D02*
Y97187D01*
X109760Y96254D02*
Y97172D01*
X109770Y96270D02*
Y97157D01*
X109780Y96286D02*
Y97142D01*
X109790Y96341D02*
Y97086D01*
X109800Y96401D02*
Y97026D01*
X109810Y96461D02*
Y96966D01*
X109820Y96521D02*
Y96906D01*
X109830Y96581D02*
Y96846D01*
X109840Y96641D02*
Y96786D01*
X109850Y96701D02*
Y96726D01*
X110190Y96342D02*
Y96567D01*
X110200Y96317D02*
Y96617D01*
X110210Y96292D02*
Y96667D01*
X110220Y96267D02*
Y96714D01*
X110230Y96242D02*
Y96730D01*
X110240Y96217D02*
Y96747D01*
X110250Y96192D02*
Y96764D01*
X110260Y96169D02*
Y96780D01*
X110270Y96149D02*
Y96797D01*
X110280Y96129D02*
Y96814D01*
X110290Y96109D02*
Y96830D01*
X110300Y96089D02*
Y96847D01*
Y97642D02*
Y97724D01*
X110310Y96069D02*
Y96864D01*
Y97602D02*
Y97774D01*
X110320Y96049D02*
Y96880D01*
Y97562D02*
Y97824D01*
X110330Y96036D02*
Y96894D01*
Y97529D02*
Y97865D01*
X110340Y96029D02*
Y96904D01*
Y97509D02*
Y97890D01*
X110350Y96022D02*
Y96914D01*
Y97489D02*
Y97915D01*
X110360Y96016D02*
Y96924D01*
Y97469D02*
Y97940D01*
X110370Y96009D02*
Y96934D01*
Y97449D02*
Y97965D01*
X110380Y96002D02*
Y96944D01*
Y97429D02*
Y97990D01*
X110390Y95996D02*
Y96954D01*
Y97409D02*
Y98015D01*
X110400Y95989D02*
Y96964D01*
Y97391D02*
Y98036D01*
X110410Y95982D02*
Y96974D01*
Y97378D02*
Y98050D01*
X110420Y95976D02*
Y96984D01*
Y97365D02*
Y98063D01*
X110430Y95969D02*
Y96994D01*
Y97351D02*
Y98076D01*
X110440Y95964D02*
Y97004D01*
Y97338D02*
Y98090D01*
X110450Y95959D02*
Y97014D01*
Y97325D02*
Y98103D01*
X110460Y95954D02*
Y97024D01*
Y97311D02*
Y98116D01*
X110470Y95949D02*
Y97032D01*
Y97298D02*
Y98130D01*
X110480Y95944D02*
Y97037D01*
Y97285D02*
Y98143D01*
X110490Y95939D02*
Y97042D01*
Y97271D02*
Y98156D01*
X110500Y95934D02*
Y97047D01*
Y97258D02*
Y98170D01*
X110510Y95929D02*
Y97052D01*
Y97249D02*
Y98178D01*
X110520Y95924D02*
Y97057D01*
Y97243D02*
Y98184D01*
X110530Y95919D02*
Y97062D01*
Y97237D02*
Y98190D01*
X110540Y95914D02*
Y96443D01*
Y96658D02*
Y97067D01*
Y97231D02*
Y98196D01*
X110550Y95909D02*
Y96383D01*
Y96673D02*
Y97072D01*
Y97225D02*
Y98202D01*
X110560Y95904D02*
Y96323D01*
Y96688D02*
Y97077D01*
Y97219D02*
Y98208D01*
X110570Y95899D02*
Y96280D01*
Y96703D02*
Y97082D01*
Y97213D02*
Y98214D01*
X110580Y95894D02*
Y96270D01*
Y96718D02*
Y97087D01*
Y97207D02*
Y98220D01*
X110590Y95889D02*
Y96260D01*
Y96733D02*
Y97092D01*
Y97201D02*
Y98226D01*
X110600Y95884D02*
Y96250D01*
Y96748D02*
Y97097D01*
Y97195D02*
Y98232D01*
X110610Y95879D02*
Y96240D01*
Y96758D02*
Y97102D01*
Y97189D02*
Y98238D01*
X110620Y95874D02*
Y96230D01*
Y96767D02*
Y97107D01*
Y97183D02*
Y98244D01*
X110630Y95869D02*
Y96220D01*
Y96775D02*
Y97112D01*
Y97177D02*
Y98250D01*
X110640Y95864D02*
Y96210D01*
Y96783D02*
Y97117D01*
Y97171D02*
Y97530D01*
Y97651D02*
Y98256D01*
X110650Y95859D02*
Y96200D01*
Y96792D02*
Y97122D01*
Y97165D02*
Y97515D01*
Y97686D02*
Y98262D01*
X110660Y95854D02*
Y96190D01*
Y96800D02*
Y97127D01*
Y97159D02*
Y97500D01*
Y97721D02*
Y98268D01*
X110670Y95849D02*
Y96180D01*
Y96808D02*
Y97132D01*
Y97153D02*
Y97485D01*
Y97756D02*
Y98274D01*
X110680Y95844D02*
Y96170D01*
Y96817D02*
Y97137D01*
Y97147D02*
Y97470D01*
Y97791D02*
Y98280D01*
X110690Y95839D02*
Y96160D01*
Y96825D02*
Y97455D01*
Y97826D02*
Y98282D01*
X110700Y95834D02*
Y96150D01*
Y96833D02*
Y97440D01*
Y97861D02*
Y98284D01*
X110710Y95829D02*
Y96140D01*
Y96842D02*
Y97425D01*
Y97895D02*
Y98286D01*
X110720Y95825D02*
Y96135D01*
Y96850D02*
Y97417D01*
Y97905D02*
Y98288D01*
X110730Y95823D02*
Y96131D01*
Y96858D02*
Y97409D01*
Y97915D02*
Y98290D01*
X110740Y95821D02*
Y96127D01*
Y96867D02*
Y97401D01*
Y97925D02*
Y98292D01*
X110750Y95819D02*
Y96123D01*
Y96875D02*
Y97393D01*
Y97935D02*
Y98294D01*
X110760Y95817D02*
Y96119D01*
Y96883D02*
Y97385D01*
Y97945D02*
Y98296D01*
X110770Y95815D02*
Y96115D01*
Y96892D02*
Y97377D01*
Y97955D02*
Y98298D01*
X110780Y95813D02*
Y96111D01*
Y96900D02*
Y97369D01*
Y97965D02*
Y98300D01*
X110790Y95811D02*
Y96107D01*
Y96908D02*
Y97361D01*
Y97975D02*
Y98302D01*
X110800Y95809D02*
Y96103D01*
Y96917D02*
Y97353D01*
Y97985D02*
Y98304D01*
X110810Y95807D02*
Y96099D01*
Y96925D02*
Y97345D01*
Y97995D02*
Y98306D01*
X110820Y95805D02*
Y96095D01*
Y96933D02*
Y97337D01*
Y98005D02*
Y98308D01*
X110830Y95803D02*
Y96091D01*
Y96935D02*
Y97329D01*
Y98015D02*
Y98310D01*
X110840Y95801D02*
Y96087D01*
Y96938D02*
Y97321D01*
Y98025D02*
Y98312D01*
X110850Y95799D02*
Y96083D01*
Y96940D02*
Y97313D01*
Y98035D02*
Y98314D01*
X110860Y95797D02*
Y96079D01*
Y96943D02*
Y97305D01*
Y98041D02*
Y98316D01*
X110870Y95795D02*
Y96075D01*
Y96945D02*
Y97297D01*
Y98043D02*
Y98318D01*
X110880Y95793D02*
Y96071D01*
Y96948D02*
Y97289D01*
Y98045D02*
Y98319D01*
X110890Y95791D02*
Y96067D01*
Y96950D02*
Y97281D01*
Y98047D02*
Y98320D01*
X110900Y95790D02*
Y96066D01*
Y96953D02*
Y97278D01*
Y98049D02*
Y98321D01*
X110910Y95790D02*
Y96066D01*
Y96955D02*
Y97276D01*
Y98051D02*
Y98323D01*
X110920Y95790D02*
Y96066D01*
Y96958D02*
Y97273D01*
Y98053D02*
Y98324D01*
X110930Y95790D02*
Y96066D01*
Y96960D02*
Y97271D01*
Y98055D02*
Y98325D01*
X110940Y95790D02*
Y96066D01*
Y96963D02*
Y97268D01*
Y98057D02*
Y98326D01*
X110950Y95790D02*
Y96066D01*
Y96965D02*
Y97266D01*
Y98059D02*
Y98328D01*
X110960Y95790D02*
Y96066D01*
Y96968D02*
Y97263D01*
Y98061D02*
Y98329D01*
X110970Y95790D02*
Y96066D01*
Y96969D02*
Y97261D01*
Y98063D02*
Y98330D01*
X110980Y95790D02*
Y96066D01*
Y96969D02*
Y97258D01*
Y98065D02*
Y98331D01*
X110990Y95790D02*
Y96066D01*
Y96969D02*
Y97256D01*
Y98067D02*
Y98333D01*
X111000Y95790D02*
Y96066D01*
Y96969D02*
Y97253D01*
Y98069D02*
Y98334D01*
X111010Y95790D02*
Y96066D01*
Y96969D02*
Y97251D01*
Y98071D02*
Y98335D01*
X111020Y95790D02*
Y96066D01*
Y96969D02*
Y97248D01*
Y98073D02*
Y98336D01*
X111030Y95790D02*
Y96066D01*
Y96969D02*
Y97246D01*
Y98075D02*
Y98338D01*
X111040Y95790D02*
Y96066D01*
Y96969D02*
Y97245D01*
Y98076D02*
Y98339D01*
X111050Y95790D02*
Y96066D01*
Y96969D02*
Y97245D01*
Y98076D02*
Y98340D01*
X111060Y95790D02*
Y96066D01*
Y96969D02*
Y97245D01*
Y98076D02*
Y98341D01*
X111070Y95790D02*
Y96066D01*
Y96969D02*
Y97245D01*
Y98076D02*
Y98343D01*
X111080Y95790D02*
Y96066D01*
Y96969D02*
Y97245D01*
Y98076D02*
Y98344D01*
X111090Y95790D02*
Y96066D01*
Y96969D02*
Y97245D01*
Y98076D02*
Y98345D01*
X111100Y95790D02*
Y96066D01*
Y96969D02*
Y97245D01*
Y98076D02*
Y98346D01*
X111110Y95790D02*
Y96066D01*
Y96969D02*
Y97245D01*
Y98076D02*
Y98348D01*
X111120Y95790D02*
Y96066D01*
Y96969D02*
Y97245D01*
Y98076D02*
Y98349D01*
X111130Y95790D02*
Y96066D01*
Y96969D02*
Y97245D01*
Y98076D02*
Y98350D01*
X111140Y95790D02*
Y96066D01*
Y96969D02*
Y97245D01*
Y98076D02*
Y98351D01*
X111150Y95790D02*
Y96066D01*
Y96969D02*
Y97245D01*
Y98076D02*
Y98352D01*
X111160Y95790D02*
Y96066D01*
Y96969D02*
Y97245D01*
Y98076D02*
Y98352D01*
X111170Y95790D02*
Y96066D01*
Y96969D02*
Y97245D01*
Y98076D02*
Y98352D01*
X111180Y95790D02*
Y96066D01*
Y96969D02*
Y97245D01*
Y98076D02*
Y98352D01*
X111190Y95790D02*
Y96066D01*
Y96969D02*
Y97245D01*
Y98076D02*
Y98352D01*
X111200Y95790D02*
Y96066D01*
Y96969D02*
Y97245D01*
Y98076D02*
Y98352D01*
X111210Y95790D02*
Y96066D01*
Y96969D02*
Y97245D01*
Y98076D02*
Y98352D01*
X111220Y95790D02*
Y96066D01*
Y96969D02*
Y97245D01*
Y98076D02*
Y98352D01*
X111230Y95790D02*
Y96066D01*
Y96969D02*
Y97245D01*
Y98076D02*
Y98352D01*
X111240Y95790D02*
Y96066D01*
Y96969D02*
Y97245D01*
Y98076D02*
Y98352D01*
X111250Y95790D02*
Y96066D01*
Y96969D02*
Y97245D01*
Y98076D02*
Y98352D01*
X111260Y95790D02*
Y96066D01*
Y96969D02*
Y97245D01*
Y98076D02*
Y98352D01*
X111270Y95790D02*
Y96066D01*
Y96969D02*
Y97245D01*
Y98076D02*
Y98352D01*
X111280Y95790D02*
Y96066D01*
Y96969D02*
Y97245D01*
Y98076D02*
Y98352D01*
X111290Y95790D02*
Y96066D01*
Y96969D02*
Y97245D01*
Y98076D02*
Y98352D01*
X111300Y95790D02*
Y96066D01*
Y96969D02*
Y97245D01*
Y98076D02*
Y98352D01*
X111310Y95790D02*
Y96066D01*
Y96969D02*
Y97245D01*
Y98076D02*
Y98352D01*
X111320Y95790D02*
Y96066D01*
Y96969D02*
Y97245D01*
Y98076D02*
Y98352D01*
X111330Y95790D02*
Y96066D01*
Y96969D02*
Y97245D01*
Y98076D02*
Y98352D01*
X111340Y95790D02*
Y96066D01*
Y96969D02*
Y97245D01*
Y98076D02*
Y98352D01*
X111350Y95790D02*
Y96066D01*
Y96969D02*
Y97245D01*
Y98076D02*
Y98352D01*
X111360Y95790D02*
Y96066D01*
Y96969D02*
Y97245D01*
Y98076D02*
Y98352D01*
X111370Y95790D02*
Y96066D01*
Y96969D02*
Y97245D01*
Y98076D02*
Y98352D01*
X111380Y95790D02*
Y96066D01*
Y96969D02*
Y97245D01*
Y98076D02*
Y98352D01*
X111390Y95790D02*
Y96066D01*
Y96969D02*
Y97245D01*
Y98076D02*
Y98352D01*
X111400Y95790D02*
Y96066D01*
Y96969D02*
Y97245D01*
Y98076D02*
Y98352D01*
X111410Y95790D02*
Y96066D01*
Y96969D02*
Y97245D01*
Y98076D02*
Y98352D01*
X111420Y95790D02*
Y96066D01*
Y96969D02*
Y97245D01*
Y98076D02*
Y98352D01*
X111430Y95790D02*
Y96066D01*
Y96969D02*
Y97245D01*
Y98076D02*
Y98352D01*
X111440Y95790D02*
Y96066D01*
Y96969D02*
Y97245D01*
Y98076D02*
Y98352D01*
X111450Y95790D02*
Y96066D01*
Y96969D02*
Y97245D01*
Y98076D02*
Y98352D01*
X111460Y95790D02*
Y96066D01*
Y96969D02*
Y97245D01*
Y98076D02*
Y98352D01*
X111470Y95790D02*
Y96066D01*
Y96969D02*
Y97245D01*
Y98076D02*
Y98352D01*
X111480Y95790D02*
Y96066D01*
Y96969D02*
Y97245D01*
Y98076D02*
Y98352D01*
X111490Y95790D02*
Y96066D01*
Y96969D02*
Y97245D01*
Y98076D02*
Y98352D01*
X111500Y95790D02*
Y96066D01*
Y96969D02*
Y97245D01*
Y98076D02*
Y98352D01*
X111510Y95790D02*
Y96066D01*
Y96969D02*
Y97245D01*
Y98076D02*
Y98352D01*
X111520Y95790D02*
Y96066D01*
Y96969D02*
Y97245D01*
Y98076D02*
Y98352D01*
X111530Y95790D02*
Y96066D01*
Y96969D02*
Y97245D01*
Y98076D02*
Y98352D01*
X111540Y95790D02*
Y96066D01*
Y96969D02*
Y97245D01*
Y98076D02*
Y98352D01*
X111550Y95790D02*
Y96066D01*
Y96969D02*
Y97245D01*
Y98076D02*
Y98352D01*
X111560Y95790D02*
Y96066D01*
Y96969D02*
Y97245D01*
Y98076D02*
Y98352D01*
X111570Y95790D02*
Y96066D01*
Y96969D02*
Y97245D01*
Y98076D02*
Y98352D01*
X111580Y95790D02*
Y96066D01*
Y96969D02*
Y97245D01*
Y98076D02*
Y98352D01*
X111590Y95790D02*
Y96066D01*
Y96969D02*
Y97245D01*
Y98076D02*
Y98352D01*
X111600Y95790D02*
Y96066D01*
Y96969D02*
Y97245D01*
Y98076D02*
Y98352D01*
X111610Y95790D02*
Y96066D01*
Y96969D02*
Y97245D01*
Y98076D02*
Y98352D01*
X111620Y95790D02*
Y96066D01*
Y96969D02*
Y97245D01*
Y98076D02*
Y98352D01*
X111630Y95790D02*
Y96066D01*
Y96969D02*
Y97245D01*
Y98076D02*
Y98352D01*
X111640Y95790D02*
Y96066D01*
Y96969D02*
Y97245D01*
Y98076D02*
Y98352D01*
X111650Y95790D02*
Y96066D01*
Y96969D02*
Y97245D01*
Y98076D02*
Y98352D01*
X111660Y95790D02*
Y96066D01*
Y96969D02*
Y97245D01*
Y98076D02*
Y98352D01*
X111670Y95790D02*
Y96066D01*
Y96969D02*
Y97245D01*
Y98076D02*
Y98352D01*
X111680Y95790D02*
Y96066D01*
Y96969D02*
Y97245D01*
Y98076D02*
Y98352D01*
X111690Y95790D02*
Y96066D01*
Y96969D02*
Y97245D01*
Y98076D02*
Y98352D01*
X111700Y95790D02*
Y96066D01*
Y96969D02*
Y97245D01*
Y98076D02*
Y98352D01*
X111710Y95790D02*
Y96066D01*
Y96969D02*
Y97245D01*
Y98076D02*
Y98352D01*
X111720Y95790D02*
Y96066D01*
Y96969D02*
Y97245D01*
Y98076D02*
Y98352D01*
X111730Y95790D02*
Y96066D01*
Y96969D02*
Y97245D01*
Y98076D02*
Y98352D01*
X111740Y95790D02*
Y96066D01*
Y96969D02*
Y97245D01*
Y98076D02*
Y98352D01*
X111750Y95790D02*
Y96066D01*
Y96969D02*
Y97245D01*
Y98076D02*
Y98352D01*
X111760Y95790D02*
Y98352D01*
X111770Y95790D02*
Y98352D01*
X111780Y95790D02*
Y98352D01*
X111790Y95790D02*
Y98352D01*
X111800Y95790D02*
Y98352D01*
X111810Y95790D02*
Y98352D01*
X111820Y95790D02*
Y98352D01*
X111830Y95790D02*
Y98352D01*
X111840Y95790D02*
Y98352D01*
X111850Y95790D02*
Y98352D01*
X111860Y95790D02*
Y98352D01*
X111870Y95790D02*
Y98352D01*
X111880Y95790D02*
Y98352D01*
X111890Y95790D02*
Y98352D01*
X111900Y95790D02*
Y98352D01*
X111910Y95790D02*
Y98352D01*
X111920Y95790D02*
Y98352D01*
X111930Y95790D02*
Y98352D01*
X111940Y95790D02*
Y98352D01*
X111950Y95790D02*
Y98352D01*
X111960Y95790D02*
Y98352D01*
X111970Y95790D02*
Y98352D01*
X111980Y95790D02*
Y98352D01*
X111990Y95790D02*
Y98352D01*
X112000Y95790D02*
Y98352D01*
X112010Y95790D02*
Y98352D01*
X112020Y95790D02*
Y98352D01*
X112030Y95790D02*
Y98352D01*
X112040Y95790D02*
Y98352D01*
X112050Y95790D02*
Y98352D01*
X112060Y95790D02*
Y98352D01*
X112070Y95790D02*
Y98352D01*
X112080Y95790D02*
Y98352D01*
X112090Y95790D02*
Y98352D01*
X112100Y95790D02*
Y98352D01*
X113650Y96014D02*
Y97637D01*
X113660Y95914D02*
Y97637D01*
X113670Y95814D02*
Y97637D01*
X113680Y95714D02*
Y97637D01*
X113690Y95633D02*
Y97637D01*
X113700Y95563D02*
Y97637D01*
X113710Y95493D02*
Y97637D01*
X113720Y95429D02*
Y97637D01*
X113730Y95416D02*
Y97637D01*
X113740Y95404D02*
Y97637D01*
X113750Y95391D02*
Y97637D01*
X113760Y95379D02*
Y97637D01*
X113770Y95366D02*
Y97637D01*
X113780Y95354D02*
Y97637D01*
X113790Y95341D02*
Y97637D01*
X113800Y95329D02*
Y97637D01*
X113810Y95316D02*
Y97637D01*
X113820Y95304D02*
Y97637D01*
X113830Y95291D02*
Y97637D01*
X113840Y95279D02*
Y97637D01*
X113850Y95266D02*
Y97637D01*
X113860Y95254D02*
Y97637D01*
X113870Y95246D02*
Y97637D01*
X113880Y95239D02*
Y97637D01*
X113890Y95231D02*
Y97637D01*
X113900Y95224D02*
Y97637D01*
X113910Y95216D02*
Y97637D01*
X113920Y95209D02*
Y97637D01*
X113930Y95201D02*
Y97637D01*
X113940Y95194D02*
Y97637D01*
X113950Y95186D02*
Y97637D01*
X113960Y95179D02*
Y95782D01*
Y96038D02*
Y96708D01*
Y96720D02*
Y97390D01*
X113970Y95171D02*
Y95742D01*
Y96037D02*
Y96628D01*
Y96800D02*
Y97391D01*
X113980Y95164D02*
Y95702D01*
Y96029D02*
Y96548D01*
Y96880D02*
Y97401D01*
X113990Y95156D02*
Y95662D01*
Y96020D02*
Y96468D01*
Y96960D02*
Y97411D01*
X114000Y95149D02*
Y95622D01*
Y96012D02*
Y96417D01*
Y97011D02*
Y97421D01*
X114010Y95144D02*
Y95582D01*
Y96004D02*
Y96397D01*
Y97031D02*
Y97431D01*
X114020Y95141D02*
Y95542D01*
Y95995D02*
Y96377D01*
Y97051D02*
Y97441D01*
X114030Y95138D02*
Y95502D01*
Y95987D02*
Y96357D01*
Y97071D02*
Y97451D01*
X114040Y95134D02*
Y95488D01*
Y95979D02*
Y96337D01*
Y97091D02*
Y97461D01*
X114050Y95131D02*
Y95478D01*
Y95970D02*
Y96317D01*
Y97111D02*
Y97471D01*
X114060Y95128D02*
Y95468D01*
Y95962D02*
Y96297D01*
Y97131D02*
Y97481D01*
X114070Y95124D02*
Y95458D01*
Y95954D02*
Y96277D01*
Y97151D02*
Y97491D01*
X114080Y95121D02*
Y95448D01*
Y95945D02*
Y96257D01*
Y97171D02*
Y97501D01*
X114090Y95118D02*
Y95438D01*
Y95937D02*
Y96237D01*
Y97191D02*
Y97511D01*
X114100Y95114D02*
Y95428D01*
Y95929D02*
Y96217D01*
Y97211D02*
Y97521D01*
X114110Y95111D02*
Y95418D01*
Y95920D02*
Y96205D01*
Y97224D02*
Y97531D01*
X114120Y95108D02*
Y95408D01*
Y95912D02*
Y96198D01*
Y97234D02*
Y97541D01*
X114130Y95104D02*
Y95398D01*
Y95904D02*
Y96190D01*
Y97244D02*
Y97551D01*
X114140Y95101D02*
Y95388D01*
Y95895D02*
Y96183D01*
Y97254D02*
Y97561D01*
X114150Y95098D02*
Y95385D01*
Y95887D02*
Y96175D01*
Y97264D02*
Y97571D01*
X114160Y95094D02*
Y95383D01*
Y95879D02*
Y96168D01*
Y97274D02*
Y97581D01*
X114170Y95091D02*
Y95380D01*
Y95870D02*
Y96160D01*
Y97284D02*
Y97591D01*
X114180Y95088D02*
Y95378D01*
Y95862D02*
Y96153D01*
Y97294D02*
Y97601D01*
X114190Y95084D02*
Y95375D01*
Y95859D02*
Y96145D01*
Y97304D02*
Y97604D01*
X114200Y95081D02*
Y95373D01*
Y95856D02*
Y96138D01*
Y97314D02*
Y97607D01*
X114210Y95078D02*
Y95370D01*
Y95854D02*
Y96130D01*
Y97324D02*
Y97609D01*
X114220Y95075D02*
Y95368D01*
Y95851D02*
Y96123D01*
Y97334D02*
Y97612D01*
X114230Y95074D02*
Y95365D01*
Y95849D02*
Y96115D01*
Y97344D02*
Y97614D01*
X114240Y95072D02*
Y95363D01*
Y95846D02*
Y96108D01*
Y97354D02*
Y97617D01*
X114250Y95071D02*
Y95360D01*
Y95844D02*
Y96102D01*
Y97362D02*
Y97619D01*
X114260Y95069D02*
Y95358D01*
Y95841D02*
Y96100D01*
Y97363D02*
Y97622D01*
X114270Y95068D02*
Y95355D01*
Y95839D02*
Y96098D01*
Y97365D02*
Y97624D01*
X114280Y95067D02*
Y95353D01*
Y95836D02*
Y96097D01*
Y97367D02*
Y97627D01*
X114290Y95065D02*
Y95351D01*
Y95834D02*
Y96095D01*
Y97368D02*
Y97629D01*
X114300Y95064D02*
Y95349D01*
Y95831D02*
Y96093D01*
Y97370D02*
Y97632D01*
X114310Y95062D02*
Y95347D01*
Y95829D02*
Y96092D01*
Y97372D02*
Y97634D01*
X114320Y95061D02*
Y95345D01*
Y95826D02*
Y96090D01*
Y97373D02*
Y97637D01*
X114330Y95059D02*
Y95343D01*
Y95824D02*
Y96088D01*
Y97375D02*
Y97639D01*
X114340Y95058D02*
Y95341D01*
Y95821D02*
Y96087D01*
Y97377D02*
Y97642D01*
X114350Y95057D02*
Y95339D01*
Y95819D02*
Y96085D01*
Y97378D02*
Y97644D01*
X114360Y95055D02*
Y95337D01*
Y95816D02*
Y96083D01*
Y97380D02*
Y97647D01*
X114370Y95054D02*
Y95335D01*
Y95814D02*
Y96082D01*
Y97382D02*
Y97649D01*
X114380Y95052D02*
Y95333D01*
Y95811D02*
Y96080D01*
Y97383D02*
Y97652D01*
X114390Y95051D02*
Y95331D01*
Y95809D02*
Y96078D01*
Y97385D02*
Y97654D01*
X114400Y95049D02*
Y95329D01*
Y95806D02*
Y96077D01*
Y97387D02*
Y97657D01*
X114410Y95048D02*
Y95327D01*
Y95804D02*
Y96075D01*
Y97388D02*
Y97659D01*
X114420Y95047D02*
Y95325D01*
Y95801D02*
Y96073D01*
Y97390D02*
Y97662D01*
X114430Y95045D02*
Y95323D01*
Y95799D02*
Y96072D01*
Y97392D02*
Y97664D01*
X114440Y95044D02*
Y95321D01*
Y95796D02*
Y96070D01*
Y97393D02*
Y97667D01*
X114450Y95042D02*
Y95319D01*
Y95794D02*
Y96068D01*
Y97395D02*
Y97669D01*
X114460Y95041D02*
Y95317D01*
Y95791D02*
Y96067D01*
Y97397D02*
Y97672D01*
X114470Y95041D02*
Y95317D01*
Y95792D02*
Y96067D01*
Y97396D02*
Y97672D01*
X114480Y95042D02*
Y95319D01*
Y95794D02*
Y96069D01*
Y97394D02*
Y97671D01*
X114490Y95043D02*
Y95321D01*
Y95796D02*
Y96071D01*
Y97392D02*
Y97669D01*
X114500Y95044D02*
Y95323D01*
Y95798D02*
Y96073D01*
Y97390D02*
Y97668D01*
X114510Y95045D02*
Y95325D01*
Y95800D02*
Y96075D01*
Y97388D02*
Y97666D01*
X114520Y95046D02*
Y95327D01*
Y95803D02*
Y96077D01*
Y97386D02*
Y97665D01*
X114530Y95048D02*
Y95329D01*
Y95805D02*
Y96079D01*
Y97384D02*
Y97664D01*
X114540Y95049D02*
Y95331D01*
Y95807D02*
Y96081D01*
Y97382D02*
Y97662D01*
X114550Y95050D02*
Y95333D01*
Y95809D02*
Y96083D01*
Y97380D02*
Y97661D01*
X114560Y95051D02*
Y95335D01*
Y95812D02*
Y96085D01*
Y97378D02*
Y97659D01*
X114570Y95052D02*
Y95337D01*
Y95814D02*
Y96087D01*
Y97376D02*
Y97658D01*
X114580Y95053D02*
Y95339D01*
Y95816D02*
Y96089D01*
Y97374D02*
Y97656D01*
X114590Y95054D02*
Y95341D01*
Y95818D02*
Y96091D01*
Y97372D02*
Y97655D01*
X114600Y95055D02*
Y95343D01*
Y95820D02*
Y96093D01*
Y97370D02*
Y97654D01*
X114610Y95056D02*
Y95345D01*
Y95823D02*
Y96095D01*
Y97368D02*
Y97652D01*
X114620Y95058D02*
Y95347D01*
Y95825D02*
Y96097D01*
Y97366D02*
Y97651D01*
X114630Y95059D02*
Y95349D01*
Y95827D02*
Y96099D01*
Y97364D02*
Y97649D01*
X114640Y95060D02*
Y95351D01*
Y95829D02*
Y96101D01*
Y97362D02*
Y97648D01*
X114650Y95061D02*
Y95353D01*
Y95832D02*
Y96106D01*
Y97357D02*
Y97646D01*
X114660Y95062D02*
Y95356D01*
Y95834D02*
Y96113D01*
Y97347D02*
Y97645D01*
X114670Y95063D02*
Y95358D01*
Y95836D02*
Y96121D01*
Y97337D02*
Y97644D01*
X114680Y95064D02*
Y95361D01*
Y95838D02*
Y96128D01*
Y97327D02*
Y97642D01*
X114690Y95065D02*
Y95363D01*
Y95840D02*
Y96136D01*
Y97317D02*
Y97641D01*
X114700Y95066D02*
Y95366D01*
Y95843D02*
Y96143D01*
Y97307D02*
Y97639D01*
X114710Y95068D02*
Y95368D01*
Y95845D02*
Y96151D01*
Y97297D02*
Y97638D01*
X114720Y95069D02*
Y95371D01*
Y95847D02*
Y96158D01*
Y97287D02*
Y97633D01*
X114730Y95070D02*
Y95373D01*
Y95849D02*
Y96166D01*
Y97277D02*
Y97627D01*
X114740Y95071D02*
Y95376D01*
Y95852D02*
Y96173D01*
Y97267D02*
Y97621D01*
X114750Y95072D02*
Y95378D01*
Y95854D02*
Y96181D01*
Y97257D02*
Y97615D01*
X114760Y95073D02*
Y95381D01*
Y95856D02*
Y96188D01*
Y97247D02*
Y97609D01*
X114770Y95074D02*
Y95383D01*
Y95858D02*
Y96196D01*
Y97237D02*
Y97603D01*
X114780Y95075D02*
Y95386D01*
Y95860D02*
Y96203D01*
Y97227D02*
Y97597D01*
X114790Y95079D02*
Y95390D01*
Y95867D02*
Y96211D01*
Y97216D02*
Y97591D01*
X114800Y95084D02*
Y95405D01*
Y95875D02*
Y96231D01*
Y97200D02*
Y97585D01*
X114810Y95089D02*
Y95420D01*
Y95884D02*
Y96251D01*
Y97183D02*
Y97579D01*
X114820Y95094D02*
Y95435D01*
Y95893D02*
Y96271D01*
Y97166D02*
Y97573D01*
X114830Y95099D02*
Y95450D01*
Y95901D02*
Y96291D01*
Y97150D02*
Y97567D01*
X114840Y95104D02*
Y95465D01*
Y95910D02*
Y96311D01*
Y97133D02*
Y97561D01*
X114850Y95109D02*
Y95480D01*
Y95918D02*
Y96331D01*
Y97116D02*
Y97555D01*
X114860Y95114D02*
Y95495D01*
Y95927D02*
Y96351D01*
Y97100D02*
Y97549D01*
X114870Y95119D02*
Y95522D01*
Y95935D02*
Y96371D01*
Y97083D02*
Y97543D01*
X114880Y95124D02*
Y95552D01*
Y95944D02*
Y96391D01*
Y97066D02*
Y97537D01*
X114890Y95129D02*
Y95582D01*
Y95953D02*
Y96411D01*
Y97050D02*
Y97531D01*
X114900Y95134D02*
Y95602D01*
Y95961D02*
Y96447D01*
Y97018D02*
Y97521D01*
X114910Y95139D02*
Y95604D01*
Y95970D02*
Y96537D01*
Y96938D02*
Y97511D01*
X114920Y95144D02*
Y95605D01*
Y95978D02*
Y96627D01*
Y96858D02*
Y97501D01*
X114930Y95149D02*
Y95606D01*
Y95987D02*
Y96717D01*
Y96778D02*
Y97491D01*
X114940Y95154D02*
Y95607D01*
Y95995D02*
Y97481D01*
X114950Y95159D02*
Y95608D01*
Y96004D02*
Y97471D01*
X114960Y95164D02*
Y95609D01*
Y96013D02*
Y97461D01*
X114970Y95169D02*
Y95610D01*
Y96021D02*
Y97451D01*
X114980Y95174D02*
Y95611D01*
Y96030D02*
Y97441D01*
X114990Y95179D02*
Y95612D01*
Y96038D02*
Y97431D01*
X115000Y95185D02*
Y95614D01*
Y96047D02*
Y97421D01*
X115010Y95195D02*
Y95615D01*
Y96055D02*
Y97411D01*
X115020Y95205D02*
Y95616D01*
Y96064D02*
Y97401D01*
X115030Y95215D02*
Y95617D01*
Y96073D02*
Y97391D01*
X115040Y95225D02*
Y95618D01*
Y96087D02*
Y97376D01*
X115050Y95235D02*
Y95619D01*
Y96103D02*
Y97359D01*
X115060Y95245D02*
Y95620D01*
Y96119D02*
Y97342D01*
X115070Y95255D02*
Y95621D01*
Y96135D02*
Y97326D01*
X115080Y95265D02*
Y95622D01*
Y96151D02*
Y97309D01*
X115090Y95275D02*
Y95624D01*
Y96167D02*
Y97292D01*
X115100Y95285D02*
Y95625D01*
Y96183D02*
Y97276D01*
X115110Y95295D02*
Y95626D01*
Y96199D02*
Y97259D01*
X115120Y95305D02*
Y95627D01*
Y96215D02*
Y97242D01*
X115130Y95315D02*
Y95628D01*
Y96231D02*
Y97226D01*
X115140Y95325D02*
Y95629D01*
Y96247D02*
Y97206D01*
X115150Y95335D02*
Y95630D01*
Y96263D02*
Y97171D01*
X115160Y95345D02*
Y95631D01*
Y96279D02*
Y97136D01*
X115170Y95355D02*
Y95632D01*
Y96295D02*
Y97101D01*
X115180Y95408D02*
Y95634D01*
Y96311D02*
Y97066D01*
X115190Y95488D02*
Y95635D01*
Y96327D02*
Y97031D01*
X115200Y95568D02*
Y95636D01*
Y96343D02*
Y96996D01*
X115210Y96364D02*
Y96958D01*
X115220Y96464D02*
Y96888D01*
X115230Y96564D02*
Y96818D01*
X115240Y96664D02*
Y96748D01*
X115620Y95790D02*
Y97231D01*
X115630Y95790D02*
Y97254D01*
X115640Y95790D02*
Y97278D01*
X115650Y95790D02*
Y97301D01*
X115660Y95790D02*
Y97324D01*
X115670Y95790D02*
Y97348D01*
X115680Y95790D02*
Y97371D01*
X115690Y95790D02*
Y97394D01*
X115700Y95790D02*
Y97418D01*
X115710Y95790D02*
Y97441D01*
X115720Y95790D02*
Y97462D01*
X115730Y95790D02*
Y97468D01*
X115740Y95790D02*
Y97475D01*
X115750Y95790D02*
Y97482D01*
X115760Y95790D02*
Y97488D01*
X115770Y95790D02*
Y97495D01*
X115780Y95790D02*
Y97502D01*
X115790Y95790D02*
Y97508D01*
X115800Y95790D02*
Y97515D01*
X115810Y95790D02*
Y97522D01*
X115820Y95790D02*
Y97528D01*
X115830Y95790D02*
Y97535D01*
X115840Y95790D02*
Y97542D01*
X115850Y95790D02*
Y97548D01*
X115860Y95790D02*
Y97555D01*
X115870Y95790D02*
Y97562D01*
X115880Y95790D02*
Y97568D01*
X115890Y95790D02*
Y97575D01*
X115900Y95790D02*
Y97582D01*
X115910Y95790D02*
Y97588D01*
X115920Y95790D02*
Y97595D01*
X115930Y97091D02*
Y97602D01*
X115940Y97121D02*
Y97604D01*
X115950Y97151D02*
Y97607D01*
X115960Y97181D02*
Y97609D01*
X115970Y97191D02*
Y97612D01*
X115980Y97201D02*
Y97614D01*
X115990Y97211D02*
Y97617D01*
X116000Y97221D02*
Y97619D01*
X116010Y97231D02*
Y97622D01*
X116020Y97241D02*
Y97624D01*
X116030Y97251D02*
Y97627D01*
X116040Y97261D02*
Y97629D01*
X116050Y97271D02*
Y97632D01*
X116060Y97281D02*
Y97634D01*
X116070Y97291D02*
Y97637D01*
X116080Y97301D02*
Y97639D01*
X116090Y97311D02*
Y97642D01*
X116100Y97321D02*
Y97644D01*
X116110Y97327D02*
Y97647D01*
X116120Y97330D02*
Y97649D01*
X116130Y97334D02*
Y97652D01*
X116140Y97337D02*
Y97654D01*
X116150Y97340D02*
Y97657D01*
X116160Y97344D02*
Y97659D01*
X116170Y97347D02*
Y97662D01*
X116180Y97350D02*
Y97664D01*
X116190Y97354D02*
Y97667D01*
X116200Y97357D02*
Y97669D01*
X116210Y97360D02*
Y97672D01*
X116220Y97364D02*
Y97672D01*
X116230Y97367D02*
Y97670D01*
X116240Y97370D02*
Y97668D01*
X116250Y97374D02*
Y97666D01*
X116260Y97377D02*
Y97664D01*
X116270Y97380D02*
Y97662D01*
X116280Y97384D02*
Y97660D01*
X116290Y97387D02*
Y97658D01*
X116300Y97390D02*
Y97656D01*
X116310Y97394D02*
Y97654D01*
X116320Y97397D02*
Y97652D01*
X116330Y97396D02*
Y97650D01*
X116340Y97394D02*
Y97648D01*
X116350Y97392D02*
Y97646D01*
X116360Y97390D02*
Y97644D01*
X116370Y97388D02*
Y97642D01*
X116380Y97386D02*
Y97640D01*
X116390Y97384D02*
Y97638D01*
X116400Y97382D02*
Y97635D01*
X116410Y97380D02*
Y97633D01*
X116420Y97378D02*
Y97630D01*
X116430Y97376D02*
Y97628D01*
X116440Y97374D02*
Y97625D01*
X116450Y97372D02*
Y97623D01*
X116460Y97370D02*
Y97620D01*
X116470Y97368D02*
Y97618D01*
X116480Y97366D02*
Y97615D01*
X116490Y97364D02*
Y97613D01*
X116500Y97362D02*
Y97610D01*
X116510Y97355D02*
Y97608D01*
X116520Y97348D02*
Y97605D01*
X116530Y97340D02*
Y97603D01*
X116540Y97333D02*
Y97597D01*
X116550Y97325D02*
Y97590D01*
X116560Y97318D02*
Y97582D01*
X116570Y97310D02*
Y97575D01*
X116580Y97303D02*
Y97567D01*
X116590Y97295D02*
Y97560D01*
X116600Y97288D02*
Y97552D01*
X116610Y97280D02*
Y97545D01*
X116620Y97273D02*
Y97537D01*
X116630Y97265D02*
Y97530D01*
X116640Y97258D02*
Y97522D01*
X116650Y97247D02*
Y97515D01*
X116660Y97231D02*
Y97507D01*
X116670Y97214D02*
Y97500D01*
X116680Y97197D02*
Y97491D01*
X116690Y97181D02*
Y97481D01*
X116700Y97164D02*
Y97471D01*
X116710Y97147D02*
Y97461D01*
X116720Y97131D02*
Y97451D01*
X116730Y97114D02*
Y97441D01*
X116740Y97097D02*
Y97431D01*
X116750Y97081D02*
Y97421D01*
X116760Y97031D02*
Y97411D01*
X116770Y96951D02*
Y97401D01*
X116780Y96871D02*
Y97391D01*
X116790Y96791D02*
Y97390D01*
X116800Y95790D02*
Y97637D01*
X116810Y95790D02*
Y97637D01*
X116820Y95790D02*
Y97637D01*
X116830Y95790D02*
Y97637D01*
X116840Y95790D02*
Y97637D01*
X116850Y95790D02*
Y97637D01*
X116860Y95790D02*
Y97637D01*
X116870Y95790D02*
Y97637D01*
X116880Y95790D02*
Y97637D01*
X116890Y95790D02*
Y97637D01*
X116900Y95790D02*
Y97637D01*
X116910Y95790D02*
Y97637D01*
X116920Y95790D02*
Y97637D01*
X116930Y95790D02*
Y97637D01*
X116940Y95790D02*
Y97637D01*
X116950Y95790D02*
Y97637D01*
X116960Y95790D02*
Y97637D01*
X116970Y95790D02*
Y97637D01*
X116980Y95790D02*
Y97637D01*
X116990Y95790D02*
Y97637D01*
X117000Y95790D02*
Y97637D01*
X117010Y95790D02*
Y97637D01*
X117020Y95790D02*
Y97637D01*
X117030Y95790D02*
Y97637D01*
X117040Y95790D02*
Y97637D01*
X117050Y95790D02*
Y97637D01*
X117060Y95790D02*
Y97637D01*
X117070Y95790D02*
Y97637D01*
X117080Y95790D02*
Y97637D01*
X117090Y95790D02*
Y97637D01*
X117100Y95790D02*
Y97637D01*
X117580Y95790D02*
Y97637D01*
Y98040D02*
Y98352D01*
X117590Y95790D02*
Y97637D01*
Y98040D02*
Y98352D01*
X117600Y95790D02*
Y97637D01*
Y98040D02*
Y98352D01*
X117610Y95790D02*
Y97637D01*
Y98040D02*
Y98352D01*
X117620Y95790D02*
Y97637D01*
Y98040D02*
Y98352D01*
X117630Y95790D02*
Y97637D01*
Y98040D02*
Y98352D01*
X117640Y95790D02*
Y97637D01*
Y98040D02*
Y98352D01*
X117650Y95790D02*
Y97637D01*
Y98040D02*
Y98352D01*
X117660Y95790D02*
Y97637D01*
Y98040D02*
Y98352D01*
X117670Y95790D02*
Y97637D01*
Y98040D02*
Y98352D01*
X117680Y95790D02*
Y97637D01*
Y98040D02*
Y98352D01*
X117690Y95790D02*
Y97637D01*
Y98040D02*
Y98352D01*
X117700Y95790D02*
Y97637D01*
Y98040D02*
Y98352D01*
X117710Y95790D02*
Y97637D01*
Y98040D02*
Y98352D01*
X117720Y95790D02*
Y97637D01*
Y98040D02*
Y98352D01*
X117730Y95790D02*
Y97637D01*
Y98040D02*
Y98352D01*
X117740Y95790D02*
Y97637D01*
Y98040D02*
Y98352D01*
X117750Y95790D02*
Y97637D01*
Y98040D02*
Y98352D01*
X117760Y95790D02*
Y97637D01*
Y98040D02*
Y98352D01*
X117770Y95790D02*
Y97637D01*
Y98040D02*
Y98352D01*
X117780Y95790D02*
Y97637D01*
Y98040D02*
Y98352D01*
X117790Y95790D02*
Y97637D01*
Y98040D02*
Y98352D01*
X117800Y95790D02*
Y97637D01*
Y98040D02*
Y98352D01*
X117810Y95790D02*
Y97637D01*
Y98040D02*
Y98352D01*
X117820Y95790D02*
Y97637D01*
Y98040D02*
Y98352D01*
X117830Y95790D02*
Y97637D01*
Y98040D02*
Y98352D01*
X117840Y95790D02*
Y97637D01*
Y98040D02*
Y98352D01*
X117850Y95790D02*
Y97637D01*
Y98040D02*
Y98352D01*
X117860Y95790D02*
Y97637D01*
Y98040D02*
Y98352D01*
X117870Y95790D02*
Y97637D01*
Y98040D02*
Y98352D01*
X117880Y95790D02*
Y97637D01*
Y98040D02*
Y98352D01*
X118120Y97618D02*
Y97637D01*
X118130Y97585D02*
Y97637D01*
X118140Y97553D02*
Y97637D01*
X118150Y97520D02*
Y97637D01*
X118160Y97488D02*
Y97637D01*
X118170Y97455D02*
Y97637D01*
X118180Y97423D02*
Y97637D01*
X118190Y97390D02*
Y97637D01*
X118200Y97358D02*
Y97637D01*
X118210Y97325D02*
Y97637D01*
X118220Y97293D02*
Y97637D01*
X118230Y97260D02*
Y97637D01*
X118240Y97228D02*
Y97637D01*
X118250Y97195D02*
Y97637D01*
X118260Y97163D02*
Y97637D01*
X118270Y97130D02*
Y97637D01*
X118280Y97098D02*
Y97637D01*
X118290Y97065D02*
Y97637D01*
X118300Y97033D02*
Y97637D01*
X118310Y97000D02*
Y97637D01*
X118320Y96968D02*
Y97637D01*
X118330Y96935D02*
Y97637D01*
X118340Y96903D02*
Y97637D01*
X118350Y96870D02*
Y97637D01*
X118360Y96838D02*
Y97637D01*
X118370Y96805D02*
Y97637D01*
X118380Y96773D02*
Y97637D01*
X118390Y96740D02*
Y97637D01*
X118400Y96708D02*
Y97637D01*
X118410Y96675D02*
Y97637D01*
X118420Y96643D02*
Y97637D01*
X118430Y96610D02*
Y97637D01*
X118440Y96578D02*
Y97637D01*
X118450Y96545D02*
Y97637D01*
X118460Y96513D02*
Y97637D01*
X118470Y96480D02*
Y97606D01*
X118480Y96448D02*
Y97573D01*
X118490Y96415D02*
Y97539D01*
X118500Y96383D02*
Y97506D01*
X118510Y96350D02*
Y97473D01*
X118520Y96318D02*
Y97439D01*
X118530Y96285D02*
Y97406D01*
X118540Y96253D02*
Y97373D01*
X118550Y96220D02*
Y97339D01*
X118560Y96188D02*
Y97306D01*
X118570Y96155D02*
Y97273D01*
X118580Y96123D02*
Y97239D01*
X118590Y96090D02*
Y97206D01*
X118600Y96058D02*
Y97173D01*
X118610Y96025D02*
Y97139D01*
X118620Y95993D02*
Y97106D01*
X118630Y95960D02*
Y97073D01*
X118640Y95928D02*
Y97039D01*
X118650Y95895D02*
Y97006D01*
X118660Y95863D02*
Y96973D01*
X118670Y95830D02*
Y96939D01*
X118680Y95798D02*
Y96906D01*
X118690Y95790D02*
Y96873D01*
X118700Y95790D02*
Y96839D01*
X118710Y95790D02*
Y96806D01*
X118720Y95790D02*
Y96773D01*
X118730Y95790D02*
Y96739D01*
X118740Y95790D02*
Y96706D01*
X118750Y95790D02*
Y96673D01*
X118760Y95790D02*
Y96639D01*
X118770Y95790D02*
Y96606D01*
X118780Y95790D02*
Y96573D01*
X118790Y95790D02*
Y96524D01*
X118800Y95790D02*
Y96474D01*
X118810Y95790D02*
Y96424D01*
X118820Y95790D02*
Y96374D01*
X118830Y95790D02*
Y96324D01*
X118840Y95790D02*
Y96274D01*
X118850Y95790D02*
Y96224D01*
X118860Y95790D02*
Y96210D01*
X118870Y95790D02*
Y96239D01*
X118880Y95790D02*
Y96273D01*
X118890Y95790D02*
Y96306D01*
X118900Y95790D02*
Y96339D01*
X118910Y95790D02*
Y96373D01*
X118920Y95790D02*
Y96406D01*
X118930Y95790D02*
Y96439D01*
X118940Y95790D02*
Y96473D01*
X118950Y95790D02*
Y96506D01*
X118960Y95790D02*
Y96539D01*
X118970Y95790D02*
Y96573D01*
X118980Y95790D02*
Y96610D01*
X118990Y95790D02*
Y96648D01*
X119000Y95790D02*
Y96685D01*
X119010Y95790D02*
Y96723D01*
X119020Y95790D02*
Y96760D01*
X119030Y95790D02*
Y96798D01*
X119040Y95822D02*
Y96835D01*
X119050Y95861D02*
Y96873D01*
X119060Y95899D02*
Y96910D01*
X119070Y95938D02*
Y96948D01*
X119080Y95977D02*
Y96985D01*
X119090Y96016D02*
Y97023D01*
X119100Y96054D02*
Y97060D01*
X119110Y96093D02*
Y97098D01*
X119120Y96132D02*
Y97135D01*
X119130Y96171D02*
Y97173D01*
X119140Y96209D02*
Y97210D01*
X119150Y96248D02*
Y97248D01*
X119160Y96287D02*
Y97285D01*
X119170Y96326D02*
Y97323D01*
X119180Y96364D02*
Y97360D01*
X119190Y96403D02*
Y97398D01*
X119200Y96442D02*
Y97435D01*
X119210Y96481D02*
Y97473D01*
X119220Y96519D02*
Y97510D01*
X119230Y96558D02*
Y97548D01*
X119240Y96597D02*
Y97585D01*
X119250Y96636D02*
Y97623D01*
X119260Y96674D02*
Y97637D01*
X119270Y96713D02*
Y97637D01*
X119280Y96752D02*
Y97637D01*
X119290Y96791D02*
Y97637D01*
X119300Y96829D02*
Y97637D01*
X119310Y96868D02*
Y97637D01*
X119320Y96909D02*
Y97637D01*
X119330Y96954D02*
Y97637D01*
X119340Y96999D02*
Y97637D01*
X119350Y97044D02*
Y97637D01*
X119360Y97089D02*
Y97637D01*
X119370Y97134D02*
Y97637D01*
X119380Y97179D02*
Y97637D01*
X119390Y97218D02*
Y97637D01*
X119400Y97207D02*
Y97637D01*
X119410Y97170D02*
Y97637D01*
X119420Y97134D02*
Y97637D01*
X119430Y97098D02*
Y97637D01*
X119440Y97061D02*
Y97637D01*
X119450Y97025D02*
Y97637D01*
X119460Y96988D02*
Y97637D01*
X119470Y96952D02*
Y97637D01*
X119480Y96916D02*
Y97637D01*
X119490Y96879D02*
Y97637D01*
X119500Y96843D02*
Y97637D01*
X119510Y96807D02*
Y97637D01*
X119520Y96770D02*
Y97637D01*
X119530Y96734D02*
Y97637D01*
X119540Y96698D02*
Y97637D01*
X119550Y96661D02*
Y97637D01*
X119560Y96625D02*
Y97637D01*
X119570Y96588D02*
Y97628D01*
X119580Y96552D02*
Y97591D01*
X119590Y96516D02*
Y97553D01*
X119600Y96479D02*
Y97516D01*
X119610Y96443D02*
Y97478D01*
X119620Y96407D02*
Y97441D01*
X119630Y96370D02*
Y97403D01*
X119640Y96334D02*
Y97366D01*
X119650Y96298D02*
Y97328D01*
X119660Y96261D02*
Y97291D01*
X119670Y96225D02*
Y97253D01*
X119680Y96188D02*
Y97216D01*
X119690Y96152D02*
Y97178D01*
X119700Y96116D02*
Y97141D01*
X119710Y96079D02*
Y97103D01*
X119720Y96043D02*
Y97066D01*
X119730Y96007D02*
Y97028D01*
X119740Y95970D02*
Y96991D01*
X119750Y95934D02*
Y96953D01*
X119760Y95898D02*
Y96916D01*
X119770Y95861D02*
Y96878D01*
X119780Y95825D02*
Y96841D01*
X119790Y95790D02*
Y96803D01*
X119800Y95790D02*
Y96766D01*
X119810Y95790D02*
Y96728D01*
X119820Y95790D02*
Y96691D01*
X119830Y95790D02*
Y96653D01*
X119840Y95790D02*
Y96616D01*
X119850Y95790D02*
Y96578D01*
X119860Y95790D02*
Y96531D01*
X119870Y95790D02*
Y96481D01*
X119880Y95790D02*
Y96431D01*
X119890Y95790D02*
Y96385D01*
X119900Y95790D02*
Y96355D01*
X119910Y95790D02*
Y96325D01*
X119920Y95790D02*
Y96295D01*
X119930Y95790D02*
Y96205D01*
X119940Y95790D02*
Y96195D01*
X119950Y95790D02*
Y96185D01*
X119960Y95790D02*
Y96175D01*
X119970Y95790D02*
Y96182D01*
X119980Y95790D02*
Y96237D01*
X119990Y95790D02*
Y96292D01*
X120000Y95790D02*
Y96347D01*
X120010Y95790D02*
Y96402D01*
X120020Y95790D02*
Y96457D01*
X120030Y95790D02*
Y96512D01*
X120040Y95790D02*
Y96567D01*
X120050Y95790D02*
Y96601D01*
X120060Y95790D02*
Y96634D01*
X120070Y95790D02*
Y96668D01*
X120080Y95790D02*
Y96701D01*
X120090Y95790D02*
Y96734D01*
X120100Y95790D02*
Y96768D01*
X120110Y95790D02*
Y96801D01*
X120120Y95790D02*
Y96834D01*
X120130Y95790D02*
Y96868D01*
X120140Y95793D02*
Y96901D01*
X120150Y95828D02*
Y96934D01*
X120160Y95863D02*
Y96968D01*
X120170Y95897D02*
Y97001D01*
X120180Y95932D02*
Y97034D01*
X120190Y95967D02*
Y97068D01*
X120200Y96001D02*
Y97101D01*
X120210Y96036D02*
Y97134D01*
X120220Y96071D02*
Y97168D01*
X120230Y96105D02*
Y97201D01*
X120240Y96140D02*
Y97234D01*
X120250Y96175D02*
Y97268D01*
X120260Y96209D02*
Y97301D01*
X120270Y96244D02*
Y97334D01*
X120280Y96279D02*
Y97368D01*
X120290Y96313D02*
Y97401D01*
X120300Y96348D02*
Y97434D01*
X120310Y96383D02*
Y97468D01*
X120320Y96417D02*
Y97501D01*
X120330Y96452D02*
Y97534D01*
X120340Y96487D02*
Y97568D01*
X120350Y96521D02*
Y97601D01*
X120360Y96556D02*
Y97634D01*
X120370Y96591D02*
Y97637D01*
X120380Y96625D02*
Y97637D01*
X120390Y96660D02*
Y97637D01*
X120400Y96695D02*
Y97637D01*
X120410Y96729D02*
Y97637D01*
X120420Y96764D02*
Y97637D01*
X120430Y96799D02*
Y97637D01*
X120440Y96833D02*
Y97637D01*
X120450Y96868D02*
Y97637D01*
X120460Y96903D02*
Y97637D01*
X120470Y96937D02*
Y97637D01*
X120480Y96972D02*
Y97637D01*
X120490Y97007D02*
Y97637D01*
X120500Y97041D02*
Y97637D01*
X120510Y97076D02*
Y97637D01*
X120520Y97111D02*
Y97637D01*
X120530Y97145D02*
Y97637D01*
X120540Y97180D02*
Y97637D01*
X120550Y97215D02*
Y97637D01*
X120560Y97249D02*
Y97637D01*
X120570Y97284D02*
Y97637D01*
X120580Y97319D02*
Y97637D01*
X120590Y97353D02*
Y97637D01*
X120600Y97388D02*
Y97637D01*
X120610Y97423D02*
Y97637D01*
X120620Y97457D02*
Y97637D01*
X120630Y97492D02*
Y97637D01*
X120640Y97527D02*
Y97637D01*
X120650Y97561D02*
Y97637D01*
X120660Y97596D02*
Y97637D01*
X120670Y97631D02*
Y97637D01*
X120830Y95790D02*
Y95797D01*
X120840Y95790D02*
Y95832D01*
X120850Y95790D02*
Y95867D01*
X120860Y95790D02*
Y95902D01*
X120870Y95790D02*
Y95937D01*
X120880Y95790D02*
Y95972D01*
X120890Y95790D02*
Y96007D01*
X120900Y95790D02*
Y96038D01*
X120910Y95790D02*
Y96058D01*
X120920Y95790D02*
Y96078D01*
X120930Y95790D02*
Y96098D01*
X120940Y95790D02*
Y97261D01*
X120950Y95790D02*
Y97281D01*
X120960Y95790D02*
Y97301D01*
X120970Y95790D02*
Y97321D01*
X120980Y95790D02*
Y97341D01*
X120990Y95790D02*
Y97361D01*
X121000Y95790D02*
Y97381D01*
X121010Y95790D02*
Y97401D01*
X121020Y95790D02*
Y97421D01*
X121030Y95790D02*
Y97441D01*
X121040Y95790D02*
Y97461D01*
X121050Y95790D02*
Y97471D01*
X121060Y95790D02*
Y97481D01*
X121070Y95790D02*
Y97491D01*
X121080Y95790D02*
Y97501D01*
X121090Y95790D02*
Y97511D01*
X121100Y95790D02*
Y97521D01*
X121110Y95790D02*
Y97531D01*
X121120Y95790D02*
Y97541D01*
X121130Y95790D02*
Y97551D01*
X121140Y95791D02*
Y97561D01*
X121150Y95815D02*
Y97568D01*
X121160Y95838D02*
Y97571D01*
X121170Y95861D02*
Y97575D01*
X121180Y95885D02*
Y97578D01*
X121190Y95908D02*
Y97581D01*
X121200Y95931D02*
Y97585D01*
X121210Y95955D02*
Y97588D01*
X121220Y95978D02*
Y97591D01*
X121230Y96001D02*
Y97595D01*
X121240Y96025D02*
Y97598D01*
X121250Y96040D02*
Y97601D01*
X121260Y96034D02*
Y97605D01*
X121270Y96026D02*
Y97609D01*
X121280Y96018D02*
Y97613D01*
X121290Y96010D02*
Y96399D01*
Y96682D02*
Y96957D01*
Y97073D02*
Y97617D01*
X121300Y96002D02*
Y96369D01*
Y96679D02*
Y96954D01*
Y97113D02*
Y97621D01*
X121310Y95994D02*
Y96339D01*
Y96675D02*
Y96950D01*
Y97153D02*
Y97625D01*
X121320Y95986D02*
Y96315D01*
Y96672D02*
Y96947D01*
Y97190D02*
Y97629D01*
X121330Y95978D02*
Y96301D01*
Y96669D02*
Y96944D01*
Y97220D02*
Y97633D01*
X121340Y95970D02*
Y96288D01*
Y96665D02*
Y96940D01*
Y97250D02*
Y97637D01*
X121350Y95962D02*
Y96275D01*
Y96662D02*
Y96937D01*
Y97280D02*
Y97641D01*
X121360Y95954D02*
Y96261D01*
Y96659D02*
Y96934D01*
Y97292D02*
Y97645D01*
X121370Y95946D02*
Y96248D01*
Y96655D02*
Y96930D01*
Y97297D02*
Y97649D01*
X121380Y95938D02*
Y96235D01*
Y96652D02*
Y96927D01*
Y97302D02*
Y97653D01*
X121390Y95930D02*
Y96221D01*
Y96649D02*
Y96924D01*
Y97307D02*
Y97657D01*
X121400Y95922D02*
Y96208D01*
Y96645D02*
Y96920D01*
Y97312D02*
Y97661D01*
X121410Y95914D02*
Y96195D01*
Y96642D02*
Y96917D01*
Y97317D02*
Y97665D01*
X121420Y95906D02*
Y96181D01*
Y96639D02*
Y96914D01*
Y97322D02*
Y97669D01*
X121430Y95898D02*
Y96171D01*
Y96635D02*
Y96910D01*
Y97327D02*
Y97673D01*
X121440Y95892D02*
Y96164D01*
Y96632D02*
Y96907D01*
Y97332D02*
Y97673D01*
X121450Y95887D02*
Y96158D01*
Y96629D02*
Y96904D01*
Y97337D02*
Y97673D01*
X121460Y95882D02*
Y96151D01*
Y96625D02*
Y96900D01*
Y97342D02*
Y97673D01*
X121470Y95877D02*
Y96144D01*
Y96622D02*
Y96897D01*
Y97347D02*
Y97673D01*
X121480Y95872D02*
Y96138D01*
Y96619D02*
Y96894D01*
Y97352D02*
Y97673D01*
X121490Y95867D02*
Y96131D01*
Y96615D02*
Y96890D01*
Y97357D02*
Y97673D01*
X121500Y95862D02*
Y96124D01*
Y96612D02*
Y96887D01*
Y97362D02*
Y97673D01*
X121510Y95857D02*
Y96118D01*
Y96610D02*
Y96886D01*
Y97363D02*
Y97673D01*
X121520Y95852D02*
Y96111D01*
Y96609D02*
Y96885D01*
Y97365D02*
Y97673D01*
X121530Y95847D02*
Y96104D01*
Y96608D02*
Y96884D01*
Y97367D02*
Y97673D01*
X121540Y95842D02*
Y96099D01*
Y96607D02*
Y96883D01*
Y97368D02*
Y97673D01*
X121550Y95837D02*
Y96094D01*
Y96605D02*
Y96882D01*
Y97370D02*
Y97673D01*
X121560Y95832D02*
Y96089D01*
Y96604D02*
Y96881D01*
Y97372D02*
Y97673D01*
X121570Y95827D02*
Y96084D01*
Y96603D02*
Y96880D01*
Y97373D02*
Y97673D01*
X121580Y95824D02*
Y96079D01*
Y96602D02*
Y96878D01*
Y97375D02*
Y97673D01*
X121590Y95822D02*
Y96074D01*
Y96600D02*
Y96877D01*
Y97377D02*
Y97673D01*
X121600Y95820D02*
Y96069D01*
Y96599D02*
Y96876D01*
Y97378D02*
Y97673D01*
X121610Y95818D02*
Y96064D01*
Y96598D02*
Y96875D01*
Y97380D02*
Y97673D01*
X121620Y95816D02*
Y96059D01*
Y96597D02*
Y96874D01*
Y97382D02*
Y97673D01*
X121630Y95814D02*
Y96054D01*
Y96595D02*
Y96873D01*
Y97383D02*
Y97673D01*
X121640Y95812D02*
Y96049D01*
Y96594D02*
Y96872D01*
Y97385D02*
Y97673D01*
X121650Y95810D02*
Y96044D01*
Y96593D02*
Y96871D01*
Y97387D02*
Y97672D01*
X121660Y95808D02*
Y96039D01*
Y96592D02*
Y96870D01*
Y97388D02*
Y97670D01*
X121670Y95806D02*
Y96034D01*
Y96590D02*
Y96868D01*
Y97390D02*
Y97668D01*
X121680Y95804D02*
Y96030D01*
Y96589D02*
Y96867D01*
Y97392D02*
Y97667D01*
X121690Y95802D02*
Y96030D01*
Y96588D02*
Y96866D01*
Y97393D02*
Y97665D01*
X121700Y95800D02*
Y96030D01*
Y96587D02*
Y96865D01*
Y97395D02*
Y97663D01*
X121710Y95798D02*
Y96030D01*
Y96585D02*
Y96864D01*
Y97397D02*
Y97662D01*
X121720Y95796D02*
Y96030D01*
Y96584D02*
Y96863D01*
Y97396D02*
Y97660D01*
X121730Y95794D02*
Y96030D01*
Y96583D02*
Y96862D01*
Y97394D02*
Y97658D01*
X121740Y95792D02*
Y96030D01*
Y96582D02*
Y96861D01*
Y97392D02*
Y97657D01*
X121750Y95790D02*
Y96030D01*
Y96580D02*
Y96860D01*
Y97390D02*
Y97655D01*
X121760Y95788D02*
Y96030D01*
Y96579D02*
Y96858D01*
Y97388D02*
Y97653D01*
X121770Y95786D02*
Y96030D01*
Y96578D02*
Y96857D01*
Y97386D02*
Y97652D01*
X121780Y95784D02*
Y96030D01*
Y96577D02*
Y96856D01*
Y97384D02*
Y97650D01*
X121790Y95782D02*
Y96030D01*
Y96575D02*
Y96855D01*
Y97382D02*
Y97648D01*
X121800Y95780D02*
Y96030D01*
Y96573D02*
Y96854D01*
Y97380D02*
Y97647D01*
X121810Y95778D02*
Y96030D01*
Y96570D02*
Y96853D01*
Y97378D02*
Y97645D01*
X121820Y95776D02*
Y96030D01*
Y96568D02*
Y96852D01*
Y97376D02*
Y97643D01*
X121830Y95774D02*
Y96030D01*
Y96565D02*
Y96850D01*
Y97374D02*
Y97642D01*
X121840Y95772D02*
Y96030D01*
Y96563D02*
Y96848D01*
Y97372D02*
Y97640D01*
X121850Y95770D02*
Y96030D01*
Y96560D02*
Y96846D01*
Y97370D02*
Y97638D01*
X121860Y95768D02*
Y96030D01*
Y96558D02*
Y96844D01*
Y97368D02*
Y97637D01*
X121870Y95766D02*
Y96030D01*
Y96555D02*
Y96842D01*
Y97366D02*
Y97635D01*
X121880Y95764D02*
Y96030D01*
Y96553D02*
Y96840D01*
Y97364D02*
Y97633D01*
X121890Y95762D02*
Y96030D01*
Y96550D02*
Y96838D01*
Y97362D02*
Y97632D01*
X121900Y95760D02*
Y96030D01*
Y96548D02*
Y96836D01*
Y97360D02*
Y97630D01*
X121910Y95758D02*
Y96030D01*
Y96545D02*
Y96834D01*
Y97358D02*
Y97628D01*
X121920Y95756D02*
Y96030D01*
Y96543D02*
Y96832D01*
Y97355D02*
Y97627D01*
X121930Y95755D02*
Y96030D01*
Y96540D02*
Y96830D01*
Y97353D02*
Y97625D01*
X121940Y95756D02*
Y96030D01*
Y96537D02*
Y96828D01*
Y97350D02*
Y97623D01*
X121950Y95758D02*
Y96030D01*
Y96533D02*
Y96826D01*
Y97348D02*
Y97622D01*
X121960Y95759D02*
Y96030D01*
Y96530D02*
Y96824D01*
Y97345D02*
Y97620D01*
X121970Y95760D02*
Y96030D01*
Y96527D02*
Y96822D01*
Y97343D02*
Y97618D01*
X121980Y95762D02*
Y96030D01*
Y96523D02*
Y96820D01*
Y97340D02*
Y97617D01*
X121990Y95763D02*
Y96030D01*
Y96520D02*
Y96818D01*
Y97338D02*
Y97615D01*
X122000Y95765D02*
Y96030D01*
Y96517D02*
Y96816D01*
Y97335D02*
Y97613D01*
X122010Y95766D02*
Y96036D01*
Y96513D02*
Y96816D01*
Y97333D02*
Y97612D01*
X122020Y95768D02*
Y96043D01*
Y96510D02*
Y96816D01*
Y97330D02*
Y97610D01*
X122030Y95769D02*
Y96049D01*
Y96507D02*
Y96816D01*
Y97328D02*
Y97608D01*
X122040Y95770D02*
Y96056D01*
Y96503D02*
Y96816D01*
Y97324D02*
Y97607D01*
X122050Y95772D02*
Y96063D01*
Y96498D02*
Y96816D01*
Y97309D02*
Y97605D01*
X122060Y95773D02*
Y96069D01*
Y96493D02*
Y96816D01*
Y97294D02*
Y97603D01*
X122070Y95775D02*
Y96076D01*
Y96488D02*
Y96816D01*
Y97279D02*
Y97602D01*
X122080Y95776D02*
Y96083D01*
Y96483D02*
Y96816D01*
Y97264D02*
Y97598D01*
X122090Y95778D02*
Y96089D01*
Y96478D02*
Y96816D01*
Y97249D02*
Y97594D01*
X122100Y95779D02*
Y96096D01*
Y96473D02*
Y96816D01*
Y97234D02*
Y97590D01*
X122110Y95780D02*
Y96103D01*
Y96468D02*
Y96814D01*
Y97219D02*
Y97586D01*
X122120Y95782D02*
Y96112D01*
Y96463D02*
Y96809D01*
Y97199D02*
Y97582D01*
X122130Y95783D02*
Y96122D01*
Y96458D02*
Y96804D01*
Y97179D02*
Y97578D01*
X122140Y95785D02*
Y96132D01*
Y96453D02*
Y96799D01*
Y97159D02*
Y97574D01*
X122150Y95786D02*
Y96142D01*
Y96448D02*
Y96794D01*
Y97139D02*
Y97570D01*
X122160Y95788D02*
Y96152D01*
Y96443D02*
Y96789D01*
Y97119D02*
Y97566D01*
X122170Y95789D02*
Y96162D01*
Y96438D02*
Y96784D01*
Y97099D02*
Y97562D01*
X122180Y95792D02*
Y96172D01*
Y96433D02*
Y96779D01*
Y97079D02*
Y97558D01*
X122190Y95797D02*
Y96197D01*
Y96403D02*
Y96774D01*
Y97077D02*
Y97554D01*
X122200Y95802D02*
Y96227D01*
Y96363D02*
Y96769D01*
Y97078D02*
Y97550D01*
X122210Y95807D02*
Y96257D01*
Y96323D02*
Y96764D01*
Y97079D02*
Y97546D01*
X122220Y95812D02*
Y96759D01*
Y97081D02*
Y97542D01*
X122230Y95817D02*
Y96754D01*
Y97082D02*
Y97538D01*
X122240Y95822D02*
Y96749D01*
Y97083D02*
Y97534D01*
X122250Y95827D02*
Y96744D01*
Y97084D02*
Y97528D01*
X122260Y95832D02*
Y96739D01*
Y97085D02*
Y97518D01*
X122270Y95837D02*
Y96734D01*
Y97086D02*
Y97508D01*
X122280Y95842D02*
Y96729D01*
Y97087D02*
Y97498D01*
X122290Y95847D02*
Y96724D01*
Y97088D02*
Y97488D01*
X122300Y95852D02*
Y96719D01*
Y97089D02*
Y97478D01*
X122310Y95857D02*
Y96714D01*
Y97091D02*
Y97468D01*
X122320Y95862D02*
Y96708D01*
Y97092D02*
Y97458D01*
X122330Y95867D02*
Y96695D01*
Y97093D02*
Y97448D01*
X122340Y95872D02*
Y96683D01*
Y97094D02*
Y97438D01*
X122350Y95877D02*
Y96670D01*
Y97095D02*
Y97428D01*
X122360Y95882D02*
Y96658D01*
Y97096D02*
Y97411D01*
X122370Y95887D02*
Y96645D01*
Y97097D02*
Y97391D01*
X122380Y95892D02*
Y96633D01*
Y97098D02*
Y97371D01*
X122390Y95897D02*
Y96620D01*
Y97099D02*
Y97351D01*
X122400Y95914D02*
Y96608D01*
Y97101D02*
Y97331D01*
X122410Y95931D02*
Y96595D01*
Y97102D02*
Y97311D01*
X122420Y95947D02*
Y96583D01*
Y97103D02*
Y97291D01*
X122430Y95964D02*
Y96570D01*
Y97104D02*
Y97268D01*
X122440Y95981D02*
Y96558D01*
Y97105D02*
Y97243D01*
X122450Y95997D02*
Y96545D01*
Y97106D02*
Y97218D01*
X122460Y96014D02*
Y96532D01*
Y97107D02*
Y97193D01*
X122470Y96031D02*
Y96497D01*
Y97108D02*
Y97168D01*
X122480Y96047D02*
Y96462D01*
Y97109D02*
Y97143D01*
X122490Y96064D02*
Y96427D01*
Y97111D02*
Y97118D01*
X122500Y96101D02*
Y96392D01*
X122510Y96161D02*
Y96357D01*
X122520Y96221D02*
Y96322D01*
X122530Y96281D02*
Y96287D01*
X122650Y97566D02*
Y97569D01*
X122660Y97539D02*
Y97574D01*
X122670Y97513D02*
Y97579D01*
X122680Y97486D02*
Y97584D01*
X122690Y97459D02*
Y97589D01*
X122700Y97433D02*
Y97594D01*
X122710Y97406D02*
Y97599D01*
X122720Y97379D02*
Y97604D01*
X122730Y97353D02*
Y97609D01*
X122740Y97326D02*
Y97614D01*
X122750Y97299D02*
Y97619D01*
X122760Y97298D02*
Y97624D01*
X122770Y97305D02*
Y97629D01*
X122780Y97311D02*
Y97634D01*
X122790Y97318D02*
Y97638D01*
X122800Y97325D02*
Y97641D01*
X122810Y97331D02*
Y97643D01*
X122820Y97338D02*
Y97646D01*
X122830Y97345D02*
Y97648D01*
X122840Y97351D02*
Y97651D01*
X122850Y97358D02*
Y97653D01*
X122860Y97363D02*
Y97656D01*
X122870Y97366D02*
Y97658D01*
X122880Y97370D02*
Y97661D01*
X122890Y97373D02*
Y97663D01*
X122900Y97376D02*
Y97666D01*
X122910Y97380D02*
Y97668D01*
X122920Y97383D02*
Y97671D01*
X122930Y97386D02*
Y97672D01*
X122940Y97390D02*
Y97669D01*
X122950Y97393D02*
Y97666D01*
X122960Y97396D02*
Y97662D01*
X122970Y97395D02*
Y97659D01*
X122980Y97391D02*
Y97656D01*
X122990Y97387D02*
Y97652D01*
X123000Y97383D02*
Y97649D01*
X123010Y97379D02*
Y97646D01*
X123020Y97375D02*
Y97642D01*
X123030Y97371D02*
Y97639D01*
X123040Y97367D02*
Y97636D01*
X123050Y97363D02*
Y97632D01*
X123060Y97359D02*
Y97629D01*
X123070Y97355D02*
Y97626D01*
X123080Y97351D02*
Y97622D01*
X123090Y97347D02*
Y97619D01*
X123100Y97343D02*
Y97616D01*
X123110Y97339D02*
Y97612D01*
X123120Y97335D02*
Y97609D01*
X123130Y97331D02*
Y97606D01*
X123140Y97327D02*
Y97602D01*
X123150Y97319D02*
Y97592D01*
X123160Y97302D02*
Y97582D01*
X123170Y97285D02*
Y97572D01*
X123180Y97269D02*
Y97562D01*
X123190Y97252D02*
Y97552D01*
X123200Y97235D02*
Y97542D01*
X123210Y97219D02*
Y97532D01*
X123220Y97202D02*
Y97519D01*
X123230Y97185D02*
Y97506D01*
X123240Y97169D02*
Y97493D01*
X123250Y97152D02*
Y97479D01*
X123260Y97093D02*
Y97466D01*
X123270Y96993D02*
Y97453D01*
X123280Y96893D02*
Y97439D01*
X123290Y96793D02*
Y97426D01*
X123300Y95790D02*
Y97413D01*
X123310Y95790D02*
Y97399D01*
X123320Y95790D02*
Y97388D01*
X123330Y95790D02*
Y97637D01*
X123340Y95790D02*
Y97637D01*
X123350Y95790D02*
Y97637D01*
X123360Y95790D02*
Y97637D01*
X123370Y95790D02*
Y97637D01*
X123380Y95790D02*
Y97637D01*
X123390Y95790D02*
Y97637D01*
X123400Y95790D02*
Y97637D01*
X123410Y95790D02*
Y97637D01*
X123420Y95790D02*
Y97637D01*
X123430Y95790D02*
Y97637D01*
X123440Y95790D02*
Y97637D01*
X123450Y95790D02*
Y97637D01*
X123460Y95790D02*
Y97637D01*
X123470Y95790D02*
Y97637D01*
X123480Y95790D02*
Y97637D01*
X123490Y95790D02*
Y97637D01*
X123500Y95790D02*
Y97637D01*
X123510Y95790D02*
Y97637D01*
X123520Y95790D02*
Y97637D01*
X123530Y95790D02*
Y97637D01*
X123540Y95790D02*
Y97637D01*
X123550Y95790D02*
Y97637D01*
X123560Y95790D02*
Y97637D01*
X123570Y95790D02*
Y97637D01*
X123580Y95790D02*
Y97637D01*
X123590Y95790D02*
Y97637D01*
X123600Y95790D02*
Y97637D01*
X124050Y96789D02*
Y97154D01*
X124060Y96754D02*
Y97244D01*
X124070Y96719D02*
Y97334D01*
X124080Y96684D02*
Y97406D01*
X124090Y96649D02*
Y97446D01*
X124100Y96614D02*
Y97486D01*
X124110Y96579D02*
Y97526D01*
X124120Y96548D02*
Y97566D01*
X124130Y96518D02*
Y97606D01*
X124140Y96488D02*
Y97646D01*
X124150Y96458D02*
Y97682D01*
X124160Y96428D02*
Y97705D01*
X124170Y96398D02*
Y97729D01*
X124180Y96368D02*
Y97752D01*
X124190Y96347D02*
Y97775D01*
X124200Y96331D02*
Y97799D01*
X124210Y96314D02*
Y97822D01*
X124220Y96297D02*
Y97845D01*
X124230Y96281D02*
Y97869D01*
X124240Y96264D02*
Y97892D01*
X124250Y96247D02*
Y97915D01*
X124260Y96231D02*
Y97932D01*
X124270Y96214D02*
Y97944D01*
X124280Y96197D02*
Y97956D01*
X124290Y96181D02*
Y97968D01*
X124300Y96171D02*
Y97980D01*
X124310Y96161D02*
Y97992D01*
X124320Y96151D02*
Y98004D01*
X124330Y96141D02*
Y98016D01*
X124340Y96131D02*
Y98028D01*
X124350Y96121D02*
Y98040D01*
X124360Y96111D02*
Y98052D01*
X124370Y96101D02*
Y98064D01*
X124380Y96091D02*
Y98076D01*
X124390Y96081D02*
Y96813D01*
Y97095D02*
Y98088D01*
X124400Y96071D02*
Y96778D01*
Y97205D02*
Y98100D01*
X124410Y96061D02*
Y96743D01*
Y97315D02*
Y98112D01*
X124420Y96051D02*
Y96708D01*
Y97425D02*
Y98124D01*
X124430Y96041D02*
Y96673D01*
Y97480D02*
Y98136D01*
X124440Y96031D02*
Y96638D01*
Y97503D02*
Y98143D01*
X124450Y96021D02*
Y96603D01*
Y97526D02*
Y98149D01*
X124460Y96011D02*
Y96568D01*
Y97550D02*
Y98155D01*
X124470Y96001D02*
Y96543D01*
Y97573D02*
Y98161D01*
X124480Y95991D02*
Y96518D01*
Y97596D02*
Y98167D01*
X124490Y95981D02*
Y96493D01*
Y97620D02*
Y98173D01*
X124500Y95971D02*
Y96468D01*
Y97643D02*
Y98179D01*
X124510Y95965D02*
Y96443D01*
Y97666D02*
Y98185D01*
X124520Y95960D02*
Y96418D01*
Y97690D02*
Y98191D01*
X124530Y95956D02*
Y96393D01*
Y97713D02*
Y98197D01*
X124540Y95951D02*
Y96378D01*
Y97727D02*
Y98203D01*
X124550Y95947D02*
Y96365D01*
Y97740D02*
Y98209D01*
X124560Y95943D02*
Y96352D01*
Y97752D02*
Y98215D01*
X124570Y95938D02*
Y96338D01*
Y97765D02*
Y98221D01*
X124580Y95934D02*
Y96325D01*
Y97777D02*
Y98227D01*
X124590Y95929D02*
Y96312D01*
Y97790D02*
Y98233D01*
X124600Y95925D02*
Y96298D01*
Y97802D02*
Y98239D01*
X124610Y95920D02*
Y96285D01*
Y97815D02*
Y98245D01*
X124620Y95916D02*
Y96272D01*
Y97827D02*
Y98249D01*
X124630Y95911D02*
Y96258D01*
Y97840D02*
Y98252D01*
X124640Y95907D02*
Y96245D01*
Y97852D02*
Y98255D01*
X124650Y95903D02*
Y96239D01*
Y97865D02*
Y98259D01*
X124660Y95898D02*
Y96232D01*
Y97877D02*
Y98262D01*
X124670Y95894D02*
Y96225D01*
Y97890D02*
Y98265D01*
X124680Y95889D02*
Y96219D01*
Y97900D02*
Y98269D01*
X124690Y95885D02*
Y96212D01*
Y97907D02*
Y98272D01*
X124700Y95880D02*
Y96205D01*
Y97915D02*
Y98275D01*
X124710Y95876D02*
Y96199D01*
Y97922D02*
Y98279D01*
X124720Y95871D02*
Y96192D01*
Y97930D02*
Y98282D01*
X124730Y95867D02*
Y96185D01*
Y97937D02*
Y98285D01*
X124740Y95863D02*
Y96179D01*
Y97945D02*
Y98289D01*
X124750Y95858D02*
Y96172D01*
Y97952D02*
Y98292D01*
X124760Y95854D02*
Y96165D01*
Y97960D02*
Y98295D01*
X124770Y95849D02*
Y96159D01*
Y97967D02*
Y98299D01*
X124780Y95845D02*
Y96152D01*
Y97975D02*
Y98302D01*
X124790Y95840D02*
Y96145D01*
Y97982D02*
Y98305D01*
X124800Y95836D02*
Y96139D01*
Y97990D02*
Y98309D01*
X124810Y95831D02*
Y96132D01*
Y97997D02*
Y98312D01*
X124820Y95827D02*
Y96125D01*
Y98004D02*
Y98315D01*
X124830Y95825D02*
Y96119D01*
Y98008D02*
Y98318D01*
X124840Y95824D02*
Y96112D01*
Y98012D02*
Y98320D01*
X124850Y95823D02*
Y96105D01*
Y98016D02*
Y98322D01*
X124860Y95822D02*
Y96101D01*
Y98020D02*
Y98324D01*
X124870Y95822D02*
Y96099D01*
Y98024D02*
Y98326D01*
X124880Y95821D02*
Y96097D01*
Y98028D02*
Y98328D01*
X124890Y95820D02*
Y96095D01*
Y98032D02*
Y98330D01*
X124900Y95819D02*
Y96093D01*
Y98036D02*
Y98332D01*
X124910Y95818D02*
Y96091D01*
Y98040D02*
Y98334D01*
X124920Y95817D02*
Y96089D01*
Y98044D02*
Y98336D01*
X124930Y95816D02*
Y96087D01*
Y98048D02*
Y98338D01*
X124940Y95815D02*
Y96085D01*
Y98052D02*
Y98340D01*
X124950Y95814D02*
Y96083D01*
Y98056D02*
Y98342D01*
X124960Y95813D02*
Y96081D01*
Y98060D02*
Y98344D01*
X124970Y95812D02*
Y96079D01*
Y98064D02*
Y98346D01*
X124980Y95812D02*
Y96077D01*
Y98068D02*
Y98348D01*
X124990Y95811D02*
Y96075D01*
Y98072D02*
Y98350D01*
X125000Y95810D02*
Y96073D01*
Y98076D02*
Y98352D01*
X125010Y95809D02*
Y96071D01*
Y98076D02*
Y98352D01*
X125020Y95808D02*
Y96069D01*
Y98076D02*
Y98352D01*
X125030Y95807D02*
Y96067D01*
Y98076D02*
Y98352D01*
X125040Y95806D02*
Y96066D01*
Y98076D02*
Y98352D01*
X125050Y95805D02*
Y96066D01*
Y98076D02*
Y98352D01*
X125060Y95804D02*
Y96066D01*
Y98076D02*
Y98352D01*
X125070Y95803D02*
Y96066D01*
Y98076D02*
Y98352D01*
X125080Y95802D02*
Y96066D01*
Y98076D02*
Y98352D01*
X125090Y95802D02*
Y96066D01*
Y98076D02*
Y98352D01*
X125100Y95801D02*
Y96066D01*
Y98076D02*
Y98352D01*
X125110Y95800D02*
Y96066D01*
Y98076D02*
Y98352D01*
X125120Y95799D02*
Y96066D01*
Y98076D02*
Y98352D01*
X125130Y95798D02*
Y96066D01*
Y98076D02*
Y98352D01*
X125140Y95797D02*
Y96066D01*
Y98076D02*
Y98352D01*
X125150Y95796D02*
Y96066D01*
Y98076D02*
Y98352D01*
X125160Y95795D02*
Y96066D01*
Y98076D02*
Y98352D01*
X125170Y95794D02*
Y96066D01*
Y98076D02*
Y98352D01*
X125180Y95793D02*
Y96066D01*
Y98076D02*
Y98352D01*
X125190Y95792D02*
Y96066D01*
Y98076D02*
Y98352D01*
X125200Y95792D02*
Y96066D01*
Y98076D02*
Y98352D01*
X125210Y95791D02*
Y96066D01*
Y98076D02*
Y98352D01*
X125220Y95790D02*
Y96066D01*
Y98076D02*
Y98352D01*
X125230Y95790D02*
Y96066D01*
Y98076D02*
Y98352D01*
X125240Y95790D02*
Y96066D01*
Y98076D02*
Y98352D01*
X125250Y95790D02*
Y96066D01*
Y98076D02*
Y98352D01*
X125260Y95790D02*
Y96066D01*
Y98076D02*
Y98352D01*
X125270Y95790D02*
Y96066D01*
Y98076D02*
Y98352D01*
X125280Y95790D02*
Y96066D01*
Y98076D02*
Y98352D01*
X125290Y95790D02*
Y96066D01*
Y98076D02*
Y98352D01*
X125300Y95790D02*
Y96066D01*
Y98076D02*
Y98352D01*
X125310Y95790D02*
Y96066D01*
Y98076D02*
Y98352D01*
X125320Y95790D02*
Y96066D01*
Y98076D02*
Y98352D01*
X125330Y95790D02*
Y96066D01*
Y98076D02*
Y98352D01*
X125340Y95790D02*
Y96066D01*
Y98076D02*
Y98352D01*
X125350Y95790D02*
Y96066D01*
Y98076D02*
Y98352D01*
X125360Y95790D02*
Y96066D01*
Y98076D02*
Y98352D01*
X125370Y95790D02*
Y96066D01*
Y98076D02*
Y98352D01*
X125380Y95790D02*
Y96066D01*
Y98076D02*
Y98352D01*
X125390Y95790D02*
Y96066D01*
Y98076D02*
Y98352D01*
X125400Y95790D02*
Y96066D01*
Y98076D02*
Y98352D01*
X125410Y95790D02*
Y96066D01*
Y98076D02*
Y98352D01*
X125420Y95790D02*
Y96066D01*
Y98076D02*
Y98352D01*
X125430Y95790D02*
Y96066D01*
Y98076D02*
Y98352D01*
X125440Y95790D02*
Y96066D01*
Y98076D02*
Y98352D01*
X125450Y95790D02*
Y96066D01*
Y98076D02*
Y98352D01*
X125460Y95790D02*
Y96066D01*
Y98076D02*
Y98352D01*
X125470Y95790D02*
Y96066D01*
Y98076D02*
Y98352D01*
X125480Y95790D02*
Y96066D01*
Y98076D02*
Y98352D01*
X125490Y95790D02*
Y96066D01*
Y98076D02*
Y98352D01*
X125500Y95790D02*
Y96066D01*
Y98076D02*
Y98352D01*
X125510Y95790D02*
Y96066D01*
Y98076D02*
Y98352D01*
X125520Y95790D02*
Y96066D01*
Y98076D02*
Y98352D01*
X125530Y95790D02*
Y96066D01*
Y98076D02*
Y98352D01*
X125540Y95790D02*
Y96066D01*
Y98076D02*
Y98352D01*
X125550Y95790D02*
Y96066D01*
Y98076D02*
Y98352D01*
X125560Y95790D02*
Y96066D01*
Y98076D02*
Y98352D01*
X125570Y95790D02*
Y96066D01*
Y98076D02*
Y98352D01*
X125580Y95790D02*
Y96066D01*
Y98076D02*
Y98352D01*
X125590Y95790D02*
Y96066D01*
Y98076D02*
Y98352D01*
X125600Y95790D02*
Y96066D01*
Y98076D02*
Y98352D01*
X125610Y95790D02*
Y96066D01*
Y98076D02*
Y98352D01*
X125620Y95790D02*
Y96066D01*
Y98076D02*
Y98352D01*
X125630Y95790D02*
Y96066D01*
Y98076D02*
Y98352D01*
X125640Y95790D02*
Y96066D01*
Y98076D02*
Y98352D01*
X125650Y95790D02*
Y96066D01*
Y98076D02*
Y98352D01*
X125660Y95790D02*
Y96066D01*
Y98076D02*
Y98352D01*
X125670Y95790D02*
Y96066D01*
Y98076D02*
Y98352D01*
X125680Y95790D02*
Y96066D01*
Y98076D02*
Y98352D01*
X125690Y95790D02*
Y96066D01*
Y98076D02*
Y98352D01*
X125700Y95790D02*
Y96066D01*
Y98076D02*
Y98352D01*
X125710Y95790D02*
Y96066D01*
Y98076D02*
Y98352D01*
X125720Y95790D02*
Y96066D01*
Y98076D02*
Y98352D01*
X125730Y95790D02*
Y96066D01*
Y98076D02*
Y98352D01*
X125740Y95790D02*
Y96066D01*
Y98076D02*
Y98352D01*
X125750Y95790D02*
Y96066D01*
Y98076D02*
Y98352D01*
X125760Y95790D02*
Y96066D01*
Y98076D02*
Y98352D01*
X125770Y95790D02*
Y96066D01*
Y98076D02*
Y98352D01*
X125780Y95790D02*
Y96066D01*
Y98076D02*
Y98352D01*
X125790Y95790D02*
Y96068D01*
Y98074D02*
Y98352D01*
X125800Y95790D02*
Y98352D01*
X125810Y95790D02*
Y98352D01*
X125820Y95790D02*
Y98352D01*
X125830Y95790D02*
Y98352D01*
X125840Y95790D02*
Y98352D01*
X125850Y95790D02*
Y98352D01*
X125860Y95790D02*
Y98352D01*
X125870Y95790D02*
Y98352D01*
X125880Y95790D02*
Y98352D01*
X125890Y95790D02*
Y98352D01*
X125900Y95790D02*
Y98352D01*
X125910Y95790D02*
Y98352D01*
X125920Y95790D02*
Y98352D01*
X125930Y95790D02*
Y98352D01*
X125940Y95790D02*
Y98352D01*
X125950Y95790D02*
Y98352D01*
X125960Y95790D02*
Y98352D01*
X125970Y95790D02*
Y98352D01*
X125980Y95790D02*
Y98352D01*
X125990Y95790D02*
Y98352D01*
X126000Y95790D02*
Y98352D01*
X126010Y95790D02*
Y98352D01*
X126020Y95790D02*
Y98352D01*
X126030Y95790D02*
Y98352D01*
X126040Y95790D02*
Y98352D01*
X126050Y95790D02*
Y98352D01*
X126060Y95790D02*
Y98352D01*
X126070Y95790D02*
Y98352D01*
X126080Y95790D02*
Y98352D01*
X126090Y95790D02*
Y98352D01*
X126100Y95790D02*
Y98352D01*
X126110Y95790D02*
Y98352D01*
X126120Y95790D02*
Y98352D01*
X126130Y95790D02*
Y98352D01*
X127440Y97626D02*
Y97637D01*
X127450Y97600D02*
Y97637D01*
X127460Y97573D02*
Y97637D01*
X127470Y97547D02*
Y97637D01*
X127480Y97520D02*
Y97637D01*
X127490Y97494D02*
Y97637D01*
X127500Y97467D02*
Y97637D01*
X127510Y97441D02*
Y97637D01*
X127520Y97414D02*
Y97637D01*
X127530Y97388D02*
Y97637D01*
X127540Y97361D02*
Y97637D01*
X127550Y97335D02*
Y97637D01*
X127560Y97308D02*
Y97637D01*
X127570Y97282D02*
Y97637D01*
X127580Y97255D02*
Y97637D01*
X127590Y97229D02*
Y97637D01*
X127600Y97202D02*
Y97637D01*
X127610Y97176D02*
Y97637D01*
X127620Y97149D02*
Y97637D01*
X127630Y97123D02*
Y97637D01*
X127640Y97096D02*
Y97637D01*
X127650Y97070D02*
Y97637D01*
X127660Y97043D02*
Y97637D01*
X127670Y97017D02*
Y97637D01*
X127680Y96990D02*
Y97637D01*
X127690Y96964D02*
Y97637D01*
X127700Y96937D02*
Y97637D01*
X127710Y96911D02*
Y97637D01*
X127720Y96884D02*
Y97637D01*
X127730Y96858D02*
Y97637D01*
X127740Y96831D02*
Y97637D01*
X127750Y96805D02*
Y97637D01*
X127760Y96778D02*
Y97637D01*
X127770Y96752D02*
Y97637D01*
X127780Y96725D02*
Y97637D01*
X127790Y96699D02*
Y97616D01*
X127800Y96672D02*
Y97589D01*
X127810Y96646D02*
Y97562D01*
X127820Y96619D02*
Y97534D01*
X127830Y96593D02*
Y97507D01*
X127840Y96566D02*
Y97480D01*
X127850Y96540D02*
Y97453D01*
X127860Y96513D02*
Y97425D01*
X127870Y96487D02*
Y97398D01*
X127880Y96460D02*
Y97371D01*
X127890Y96434D02*
Y97343D01*
X127900Y96407D02*
Y97316D01*
X127910Y96381D02*
Y97289D01*
X127920Y96354D02*
Y97262D01*
X127930Y96328D02*
Y97234D01*
X127940Y96301D02*
Y97207D01*
X127950Y96275D02*
Y97180D01*
X127960Y96248D02*
Y97153D01*
X127970Y96222D02*
Y97125D01*
X127980Y96195D02*
Y97098D01*
X127990Y96169D02*
Y97071D01*
X128000Y96142D02*
Y97043D01*
X128010Y96116D02*
Y97016D01*
X128020Y96089D02*
Y96989D01*
X128030Y96063D02*
Y96962D01*
X128040Y96036D02*
Y96934D01*
X128050Y96010D02*
Y96907D01*
X128060Y95983D02*
Y96880D01*
X128070Y95957D02*
Y96853D01*
X128080Y95930D02*
Y96825D01*
X128090Y95904D02*
Y96798D01*
X128100Y95877D02*
Y96771D01*
X128110Y95851D02*
Y96743D01*
X128120Y95824D02*
Y96716D01*
X128130Y95798D02*
Y96689D01*
X128140Y95771D02*
Y96662D01*
X128150Y95743D02*
Y96634D01*
X128160Y95708D02*
Y96607D01*
X128170Y95673D02*
Y96580D01*
X128180Y95638D02*
Y96552D01*
X128190Y95603D02*
Y96525D01*
X128200Y95568D02*
Y96497D01*
X128210Y95533D02*
Y96470D01*
X128220Y95500D02*
Y96442D01*
X128230Y95483D02*
Y96415D01*
X128240Y95466D02*
Y96387D01*
X128250Y95450D02*
Y96360D01*
X128260Y95433D02*
Y96332D01*
X128270Y95416D02*
Y96305D01*
X128280Y95400D02*
Y96277D01*
X128290Y95383D02*
Y96250D01*
X128300Y95366D02*
Y96222D01*
X128310Y95350D02*
Y96195D01*
X128320Y95333D02*
Y96173D01*
X128330Y95317D02*
Y96192D01*
X128340Y95302D02*
Y96232D01*
X128350Y95287D02*
Y96272D01*
X128360Y95272D02*
Y96312D01*
X128370Y95257D02*
Y96352D01*
X128380Y95242D02*
Y96392D01*
X128390Y95227D02*
Y96432D01*
X128400Y95214D02*
Y96472D01*
X128410Y95204D02*
Y96512D01*
X128420Y95194D02*
Y96552D01*
X128430Y95184D02*
Y96592D01*
X128440Y95174D02*
Y96624D01*
X128450Y95164D02*
Y96653D01*
X128460Y95154D02*
Y95747D01*
Y95752D02*
Y96682D01*
X128470Y95144D02*
Y95727D01*
Y95780D02*
Y96711D01*
X128480Y95134D02*
Y95707D01*
Y95808D02*
Y96740D01*
X128490Y95124D02*
Y95687D01*
Y95836D02*
Y96769D01*
X128500Y95114D02*
Y95657D01*
Y95864D02*
Y96798D01*
X128510Y95106D02*
Y95617D01*
Y95892D02*
Y96827D01*
X128520Y95099D02*
Y95577D01*
Y95920D02*
Y96856D01*
X128530Y95093D02*
Y95537D01*
Y95948D02*
Y96885D01*
X128540Y95086D02*
Y95515D01*
Y95976D02*
Y96914D01*
X128550Y95079D02*
Y95495D01*
Y96003D02*
Y96943D01*
X128560Y95073D02*
Y95475D01*
Y96031D02*
Y96972D01*
X128570Y95066D02*
Y95457D01*
Y96059D02*
Y97001D01*
X128580Y95059D02*
Y95442D01*
Y96087D02*
Y97030D01*
X128590Y95053D02*
Y95427D01*
Y96115D02*
Y97059D01*
X128600Y95046D02*
Y95412D01*
Y96143D02*
Y97088D01*
X128610Y95040D02*
Y95397D01*
Y96171D02*
Y97117D01*
X128620Y95040D02*
Y95382D01*
Y96199D02*
Y97146D01*
X128630Y95040D02*
Y95367D01*
Y96227D02*
Y97175D01*
X128640Y95040D02*
Y95353D01*
Y96254D02*
Y97204D01*
X128650Y95040D02*
Y95350D01*
Y96282D02*
Y97233D01*
X128660Y95040D02*
Y95348D01*
Y96310D02*
Y97262D01*
X128670Y95040D02*
Y95346D01*
Y96338D02*
Y97291D01*
X128680Y95040D02*
Y95344D01*
Y96366D02*
Y97320D01*
X128690Y95040D02*
Y95342D01*
Y96394D02*
Y97349D01*
X128700Y95040D02*
Y95340D01*
Y96422D02*
Y97378D01*
X128710Y95040D02*
Y95338D01*
Y96450D02*
Y97407D01*
X128720Y95040D02*
Y95336D01*
Y96478D02*
Y97436D01*
X128730Y95040D02*
Y95334D01*
Y96506D02*
Y97465D01*
X128740Y95040D02*
Y95332D01*
Y96533D02*
Y97494D01*
X128750Y95040D02*
Y95330D01*
Y96561D02*
Y97523D01*
X128760Y95042D02*
Y95328D01*
Y96589D02*
Y97552D01*
X128770Y95044D02*
Y95326D01*
Y96617D02*
Y97581D01*
X128780Y95046D02*
Y95324D01*
Y96645D02*
Y97610D01*
X128790Y95048D02*
Y95322D01*
Y96673D02*
Y97637D01*
X128800Y95050D02*
Y95320D01*
Y96701D02*
Y97637D01*
X128810Y95052D02*
Y95318D01*
Y96729D02*
Y97637D01*
X128820Y95054D02*
Y95316D01*
Y96757D02*
Y97637D01*
X128830Y95056D02*
Y95318D01*
Y96784D02*
Y97637D01*
X128840Y95058D02*
Y95320D01*
Y96812D02*
Y97637D01*
X128850Y95060D02*
Y95323D01*
Y96840D02*
Y97637D01*
X128860Y95062D02*
Y95325D01*
Y96868D02*
Y97637D01*
X128870Y95064D02*
Y95328D01*
Y96896D02*
Y97637D01*
X128880Y95066D02*
Y95330D01*
Y96924D02*
Y97637D01*
X128890Y95068D02*
Y95333D01*
Y96952D02*
Y97637D01*
X128900Y95070D02*
Y95335D01*
Y96980D02*
Y97637D01*
X128910Y95072D02*
Y95338D01*
Y97008D02*
Y97637D01*
X128920Y95074D02*
Y95340D01*
Y97036D02*
Y97637D01*
X128930Y95123D02*
Y95343D01*
Y97063D02*
Y97637D01*
X128940Y95203D02*
Y95345D01*
Y97091D02*
Y97637D01*
X128950Y95283D02*
Y95348D01*
Y97119D02*
Y97637D01*
X128960Y97147D02*
Y97637D01*
X128970Y97175D02*
Y97637D01*
X128980Y97203D02*
Y97637D01*
X128990Y97231D02*
Y97637D01*
X129000Y97259D02*
Y97637D01*
X129010Y97287D02*
Y97637D01*
X129020Y97314D02*
Y97637D01*
X129030Y97342D02*
Y97637D01*
X129040Y97370D02*
Y97637D01*
X129050Y97398D02*
Y97637D01*
X129060Y97426D02*
Y97637D01*
X129070Y97454D02*
Y97637D01*
X129080Y97482D02*
Y97637D01*
X129090Y97510D02*
Y97637D01*
X129100Y97538D02*
Y97637D01*
X129110Y97566D02*
Y97637D01*
X129120Y97593D02*
Y97637D01*
X129130Y97621D02*
Y97637D01*
X129400Y95790D02*
Y98352D01*
X129410Y95790D02*
Y98352D01*
X129420Y95790D02*
Y98352D01*
X129430Y95790D02*
Y98352D01*
X129440Y95790D02*
Y98352D01*
X129450Y95790D02*
Y98352D01*
X129460Y95790D02*
Y98352D01*
X129470Y95790D02*
Y98352D01*
X129480Y95790D02*
Y98352D01*
X129490Y95790D02*
Y98352D01*
X129500Y95790D02*
Y98352D01*
X129510Y95790D02*
Y98352D01*
X129520Y95790D02*
Y98352D01*
X129530Y95790D02*
Y98352D01*
X129540Y95790D02*
Y98352D01*
X129550Y95790D02*
Y98352D01*
X129560Y95790D02*
Y98352D01*
X129570Y95790D02*
Y98352D01*
X129580Y95790D02*
Y98352D01*
X129590Y95790D02*
Y98352D01*
X129600Y95790D02*
Y98352D01*
X129610Y95790D02*
Y98352D01*
X129620Y95790D02*
Y98352D01*
X129630Y95790D02*
Y98352D01*
X129640Y95790D02*
Y98352D01*
X129650Y95790D02*
Y98352D01*
X129660Y95790D02*
Y98352D01*
X129670Y95790D02*
Y98352D01*
X129680Y95790D02*
Y98352D01*
X129690Y95790D02*
Y98352D01*
X129700Y95790D02*
Y98352D01*
X130150Y96737D02*
Y96760D01*
X130160Y96677D02*
Y96810D01*
X130170Y96617D02*
Y96860D01*
X130180Y96557D02*
Y96910D01*
X130190Y96497D02*
Y96960D01*
X130200Y96437D02*
Y97010D01*
X130210Y96377D02*
Y97060D01*
X130220Y96320D02*
Y97107D01*
X130230Y96298D02*
Y97130D01*
X130240Y96275D02*
Y97152D01*
X130250Y96253D02*
Y97175D01*
X130260Y96230D02*
Y97197D01*
X130270Y96208D02*
Y97220D01*
X130280Y96185D02*
Y97242D01*
X130290Y96163D02*
Y97265D01*
X130300Y96140D02*
Y97287D01*
X130310Y96118D02*
Y97310D01*
X130320Y96095D02*
Y97332D01*
X130330Y96073D02*
Y97355D01*
X130340Y96050D02*
Y97377D01*
X130350Y96028D02*
Y97400D01*
X130360Y96005D02*
Y97422D01*
X130370Y95997D02*
Y97431D01*
X130380Y95991D02*
Y97438D01*
X130390Y95985D02*
Y97445D01*
X130400Y95979D02*
Y97453D01*
X130410Y95972D02*
Y97460D01*
X130420Y95966D02*
Y97467D01*
X130430Y95960D02*
Y97474D01*
X130440Y95954D02*
Y97481D01*
X130450Y95947D02*
Y97488D01*
X130460Y95941D02*
Y96708D01*
Y96720D02*
Y97495D01*
X130470Y95935D02*
Y96628D01*
Y96800D02*
Y97503D01*
X130480Y95929D02*
Y96548D01*
Y96880D02*
Y97510D01*
X130490Y95922D02*
Y96468D01*
Y96960D02*
Y97517D01*
X130500Y95916D02*
Y96417D01*
Y97011D02*
Y97524D01*
X130510Y95910D02*
Y96397D01*
Y97031D02*
Y97531D01*
X130520Y95904D02*
Y96377D01*
Y97051D02*
Y97538D01*
X130530Y95897D02*
Y96357D01*
Y97071D02*
Y97545D01*
X130540Y95891D02*
Y96337D01*
Y97091D02*
Y97553D01*
X130550Y95885D02*
Y96317D01*
Y97111D02*
Y97560D01*
X130560Y95879D02*
Y96297D01*
Y97131D02*
Y97567D01*
X130570Y95872D02*
Y96277D01*
Y97151D02*
Y97574D01*
X130580Y95866D02*
Y96257D01*
Y97171D02*
Y97581D01*
X130590Y95860D02*
Y96237D01*
Y97191D02*
Y97588D01*
X130600Y95854D02*
Y96217D01*
Y97211D02*
Y97595D01*
X130610Y95847D02*
Y96204D01*
Y97224D02*
Y97602D01*
X130620Y95841D02*
Y96194D01*
Y97234D02*
Y97604D01*
X130630Y95835D02*
Y96184D01*
Y97244D02*
Y97607D01*
X130640Y95829D02*
Y96174D01*
Y97254D02*
Y97609D01*
X130650Y95824D02*
Y96164D01*
Y97264D02*
Y97611D01*
X130660Y95822D02*
Y96154D01*
Y97274D02*
Y97613D01*
X130670Y95819D02*
Y96144D01*
Y97284D02*
Y97615D01*
X130680Y95817D02*
Y96134D01*
Y97294D02*
Y97618D01*
X130690Y95814D02*
Y96124D01*
Y97304D02*
Y97620D01*
X130700Y95812D02*
Y96114D01*
Y97314D02*
Y97622D01*
X130710Y95809D02*
Y96104D01*
Y97324D02*
Y97624D01*
X130720Y95807D02*
Y96094D01*
Y97334D02*
Y97627D01*
X130730Y95804D02*
Y96084D01*
Y97344D02*
Y97629D01*
X130740Y95802D02*
Y96074D01*
Y97354D02*
Y97631D01*
X130750Y95799D02*
Y96066D01*
Y97362D02*
Y97633D01*
X130760Y95797D02*
Y96064D01*
Y97364D02*
Y97635D01*
X130770Y95794D02*
Y96063D01*
Y97366D02*
Y97638D01*
X130780Y95792D02*
Y96061D01*
Y97368D02*
Y97640D01*
X130790Y95789D02*
Y96059D01*
Y97370D02*
Y97642D01*
X130800Y95787D02*
Y96058D01*
Y97372D02*
Y97644D01*
X130810Y95784D02*
Y96056D01*
Y97374D02*
Y97647D01*
X130820Y95782D02*
Y96054D01*
Y97376D02*
Y97649D01*
X130830Y95779D02*
Y96053D01*
Y97378D02*
Y97651D01*
X130840Y95777D02*
Y96051D01*
Y97380D02*
Y97653D01*
X130850Y95774D02*
Y96049D01*
Y97382D02*
Y97655D01*
X130860Y95772D02*
Y96048D01*
Y97384D02*
Y97658D01*
X130870Y95769D02*
Y96046D01*
Y97386D02*
Y97660D01*
X130880Y95767D02*
Y96044D01*
Y97388D02*
Y97662D01*
X130890Y95764D02*
Y96043D01*
Y97390D02*
Y97664D01*
X130900Y95762D02*
Y96041D01*
Y97392D02*
Y97667D01*
X130910Y95759D02*
Y96039D01*
Y97394D02*
Y97669D01*
X130920Y95757D02*
Y96038D01*
Y97396D02*
Y97671D01*
X130930Y95755D02*
Y96036D01*
Y97397D02*
Y97673D01*
X130940Y95755D02*
Y96034D01*
Y97395D02*
Y97670D01*
X130950Y95755D02*
Y96033D01*
Y97393D02*
Y97668D01*
X130960Y95755D02*
Y96031D01*
Y97391D02*
Y97665D01*
X130970Y95755D02*
Y96032D01*
Y97389D02*
Y97663D01*
X130980Y95755D02*
Y96035D01*
Y97387D02*
Y97660D01*
X130990Y95755D02*
Y96039D01*
Y97385D02*
Y97658D01*
X131000Y95755D02*
Y96042D01*
Y97383D02*
Y97655D01*
X131010Y95755D02*
Y96045D01*
Y97381D02*
Y97653D01*
X131020Y95755D02*
Y96049D01*
Y97379D02*
Y97650D01*
X131030Y95755D02*
Y96052D01*
Y97377D02*
Y97648D01*
X131040Y95755D02*
Y96055D01*
Y97375D02*
Y97645D01*
X131050Y95755D02*
Y96059D01*
Y97373D02*
Y97643D01*
X131060Y95755D02*
Y96062D01*
Y97371D02*
Y97640D01*
X131070Y95755D02*
Y96065D01*
Y97369D02*
Y97638D01*
X131080Y95759D02*
Y96069D01*
Y97367D02*
Y97635D01*
X131090Y95764D02*
Y96072D01*
Y97365D02*
Y97633D01*
X131100Y95769D02*
Y96075D01*
Y97363D02*
Y97630D01*
X131110Y95774D02*
Y96079D01*
Y97361D02*
Y97628D01*
X131120Y95779D02*
Y96082D01*
Y97353D02*
Y97625D01*
X131130Y95784D02*
Y96085D01*
Y97345D02*
Y97623D01*
X131140Y95789D02*
Y96089D01*
Y97337D02*
Y97620D01*
X131150Y95794D02*
Y96092D01*
Y97329D02*
Y97618D01*
X131160Y95799D02*
Y96095D01*
Y97321D02*
Y97615D01*
X131170Y95804D02*
Y96099D01*
Y97313D02*
Y97613D01*
X131180Y95809D02*
Y96102D01*
Y97305D02*
Y97610D01*
X131190Y95814D02*
Y96109D01*
Y97297D02*
Y97608D01*
X131200Y95819D02*
Y96117D01*
Y97289D02*
Y97605D01*
X131210Y95824D02*
Y96125D01*
Y97281D02*
Y97603D01*
X131220Y95834D02*
Y96133D01*
Y97273D02*
Y97594D01*
X131230Y95844D02*
Y96141D01*
Y97265D02*
Y97584D01*
X131240Y95854D02*
Y96149D01*
Y97257D02*
Y97574D01*
X131250Y95864D02*
Y96157D01*
Y97249D02*
Y97564D01*
X131260Y95874D02*
Y96165D01*
Y97241D02*
Y97554D01*
X131270Y95884D02*
Y96173D01*
Y97233D02*
Y97544D01*
X131280Y95894D02*
Y96181D01*
Y97225D02*
Y97534D01*
X131290Y95904D02*
Y96189D01*
Y97216D02*
Y97524D01*
X131300Y95914D02*
Y96197D01*
Y97196D02*
Y97514D01*
X131310Y95924D02*
Y96205D01*
Y97176D02*
Y97504D01*
X131320Y95934D02*
Y96213D01*
Y97156D02*
Y97494D01*
X131330Y95944D02*
Y96221D01*
Y97136D02*
Y97484D01*
X131340Y95954D02*
Y96229D01*
Y97116D02*
Y97474D01*
X131350Y95964D02*
Y96237D01*
Y97096D02*
Y97464D01*
X131360Y95974D02*
Y96245D01*
Y97076D02*
Y97454D01*
X131370Y95984D02*
Y96296D01*
Y97056D02*
Y97444D01*
X131380Y95994D02*
Y96356D01*
Y97036D02*
Y97434D01*
X131390Y96004D02*
Y96416D01*
Y97016D02*
Y97424D01*
X131400Y96014D02*
Y96478D01*
Y96983D02*
Y97414D01*
X131410Y96024D02*
Y96548D01*
Y96903D02*
Y97404D01*
X131420Y96034D02*
Y96618D01*
Y96823D02*
Y97394D01*
X131430Y96040D02*
Y96688D01*
Y96743D02*
Y97388D01*
X131440Y95790D02*
Y98352D01*
X131450Y95790D02*
Y98352D01*
X131460Y95790D02*
Y98352D01*
X131470Y95790D02*
Y98352D01*
X131480Y95790D02*
Y98352D01*
X131490Y95790D02*
Y98352D01*
X131500Y95790D02*
Y98352D01*
X131510Y95790D02*
Y98352D01*
X131520Y95790D02*
Y98352D01*
X131530Y95790D02*
Y98352D01*
X131540Y95790D02*
Y98352D01*
X131550Y95790D02*
Y98352D01*
X131560Y95790D02*
Y98352D01*
X131570Y95790D02*
Y98352D01*
X131580Y95790D02*
Y98352D01*
X131590Y95790D02*
Y98352D01*
X131600Y95790D02*
Y98352D01*
X131610Y95790D02*
Y98352D01*
X131620Y95790D02*
Y98352D01*
X131630Y95790D02*
Y98352D01*
X131640Y95790D02*
Y98352D01*
X131650Y95790D02*
Y98352D01*
X131660Y95790D02*
Y98352D01*
X131670Y95790D02*
Y98352D01*
X131680Y95790D02*
Y98352D01*
X131690Y95790D02*
Y98352D01*
X131700Y95790D02*
Y98352D01*
X131710Y95790D02*
Y98352D01*
X131720Y95790D02*
Y98352D01*
X131730Y95790D02*
Y98352D01*
X131740Y95790D02*
Y98352D01*
X132220Y95790D02*
Y97076D01*
X132230Y95790D02*
Y97146D01*
X132240Y95790D02*
Y97216D01*
X132250Y95790D02*
Y97286D01*
X132260Y95790D02*
Y97330D01*
X132270Y95790D02*
Y97350D01*
X132280Y95790D02*
Y97370D01*
X132290Y95790D02*
Y97390D01*
X132300Y95790D02*
Y97410D01*
X132310Y95790D02*
Y97430D01*
X132320Y95790D02*
Y97450D01*
X132330Y95790D02*
Y97470D01*
X132340Y95790D02*
Y97490D01*
X132350Y95790D02*
Y97510D01*
X132360Y95790D02*
Y97530D01*
X132370Y95790D02*
Y97537D01*
X132380Y95790D02*
Y97543D01*
X132390Y95790D02*
Y97549D01*
X132400Y95790D02*
Y97555D01*
X132410Y95790D02*
Y97561D01*
X132420Y95790D02*
Y97567D01*
X132430Y95790D02*
Y97573D01*
X132440Y95790D02*
Y97579D01*
X132450Y95790D02*
Y97585D01*
X132460Y95790D02*
Y97591D01*
X132470Y95790D02*
Y97597D01*
X132480Y95790D02*
Y97603D01*
X132490Y95790D02*
Y97609D01*
X132500Y95790D02*
Y97615D01*
X132510Y95790D02*
Y97621D01*
X132520Y95790D02*
Y97627D01*
X132530Y95790D02*
Y97633D01*
X132540Y97135D02*
Y97638D01*
X132550Y97165D02*
Y97639D01*
X132560Y97195D02*
Y97641D01*
X132570Y97220D02*
Y97642D01*
X132580Y97234D02*
Y97644D01*
X132590Y97247D02*
Y97645D01*
X132600Y97260D02*
Y97646D01*
X132610Y97274D02*
Y97648D01*
X132620Y97287D02*
Y97649D01*
X132630Y97300D02*
Y97651D01*
X132640Y97314D02*
Y97652D01*
X132650Y97327D02*
Y97654D01*
X132660Y97340D02*
Y97655D01*
X132670Y97354D02*
Y97656D01*
X132680Y97362D02*
Y97658D01*
X132690Y97364D02*
Y97659D01*
X132700Y97366D02*
Y97661D01*
X132710Y97368D02*
Y97662D01*
X132720Y97370D02*
Y97664D01*
X132730Y97372D02*
Y97665D01*
X132740Y97374D02*
Y97666D01*
X132750Y97376D02*
Y97668D01*
X132760Y97378D02*
Y97669D01*
X132770Y97380D02*
Y97671D01*
X132780Y97382D02*
Y97672D01*
X132790Y97384D02*
Y97672D01*
X132800Y97386D02*
Y97670D01*
X132810Y97388D02*
Y97668D01*
X132820Y97390D02*
Y97666D01*
X132830Y97392D02*
Y97664D01*
X132840Y97394D02*
Y97662D01*
X132850Y97396D02*
Y97660D01*
X132860Y97397D02*
Y97658D01*
X132870Y97395D02*
Y97656D01*
X132880Y97393D02*
Y97654D01*
X132890Y97391D02*
Y97652D01*
X132900Y97389D02*
Y97650D01*
X132910Y97387D02*
Y97648D01*
X132920Y97385D02*
Y97646D01*
X132930Y97383D02*
Y97644D01*
X132940Y97381D02*
Y97642D01*
X132950Y97379D02*
Y97640D01*
X132960Y97377D02*
Y97638D01*
X132970Y97375D02*
Y97636D01*
X132980Y97373D02*
Y97633D01*
X132990Y97371D02*
Y97631D01*
X133000Y97369D02*
Y97628D01*
X133010Y97367D02*
Y97626D01*
X133020Y97365D02*
Y97623D01*
X133030Y97363D02*
Y97621D01*
X133040Y97360D02*
Y97618D01*
X133050Y97352D02*
Y97616D01*
X133060Y97345D02*
Y97613D01*
X133070Y97337D02*
Y97611D01*
X133080Y97330D02*
Y97608D01*
X133090Y97322D02*
Y97606D01*
X133100Y97315D02*
Y97603D01*
X133110Y97307D02*
Y97598D01*
X133120Y97300D02*
Y97591D01*
X133130Y97292D02*
Y97583D01*
X133140Y97285D02*
Y97576D01*
X133150Y97277D02*
Y97568D01*
X133160Y97270D02*
Y97561D01*
X133170Y97262D02*
Y97553D01*
X133180Y97255D02*
Y97546D01*
X133190Y97243D02*
Y97538D01*
X133200Y97229D02*
Y97531D01*
X133210Y97216D02*
Y97523D01*
X133220Y97203D02*
Y97516D01*
X133230Y97189D02*
Y97508D01*
X133240Y97176D02*
Y97501D01*
X133250Y97163D02*
Y97490D01*
X133260Y97149D02*
Y97473D01*
X133270Y97136D02*
Y97456D01*
X133280Y97123D02*
Y97440D01*
X133290Y97109D02*
Y97423D01*
X133300Y97042D02*
Y97406D01*
X133310Y96972D02*
Y97390D01*
X133320Y96902D02*
Y97373D01*
X133330Y95790D02*
Y97356D01*
X133340Y95790D02*
Y97340D01*
X133350Y95790D02*
Y97323D01*
X133360Y95790D02*
Y97317D01*
X133370Y95790D02*
Y97335D01*
X133380Y95790D02*
Y97355D01*
X133390Y95790D02*
Y97375D01*
X133400Y95790D02*
Y97395D01*
X133410Y95790D02*
Y97415D01*
X133420Y95790D02*
Y97435D01*
X133430Y95790D02*
Y97455D01*
X133440Y95790D02*
Y97468D01*
X133450Y95790D02*
Y97478D01*
X133460Y95790D02*
Y97488D01*
X133470Y95790D02*
Y97498D01*
X133480Y95790D02*
Y97508D01*
X133490Y95790D02*
Y97518D01*
X133500Y95790D02*
Y97528D01*
X133510Y95790D02*
Y97538D01*
X133520Y95790D02*
Y97548D01*
X133530Y95790D02*
Y97558D01*
X133540Y95790D02*
Y97567D01*
X133550Y95790D02*
Y97571D01*
X133560Y95790D02*
Y97575D01*
X133570Y95790D02*
Y97579D01*
X133580Y95790D02*
Y97583D01*
X133590Y95790D02*
Y97587D01*
X133600Y95790D02*
Y97591D01*
X133610Y95790D02*
Y97595D01*
X133620Y95790D02*
Y97599D01*
X133630Y95790D02*
Y97603D01*
X133640Y97148D02*
Y97607D01*
X133650Y97168D02*
Y97611D01*
X133660Y97188D02*
Y97615D01*
X133670Y97208D02*
Y97619D01*
X133680Y97228D02*
Y97623D01*
X133690Y97248D02*
Y97627D01*
X133700Y97268D02*
Y97631D01*
X133710Y97288D02*
Y97635D01*
X133720Y97295D02*
Y97638D01*
X133730Y97302D02*
Y97640D01*
X133740Y97308D02*
Y97642D01*
X133750Y97315D02*
Y97644D01*
X133760Y97322D02*
Y97646D01*
X133770Y97328D02*
Y97648D01*
X133780Y97335D02*
Y97650D01*
X133790Y97342D02*
Y97652D01*
X133800Y97348D02*
Y97654D01*
X133810Y97355D02*
Y97656D01*
X133820Y97361D02*
Y97658D01*
X133830Y97364D02*
Y97660D01*
X133840Y97366D02*
Y97662D01*
X133850Y97369D02*
Y97664D01*
X133860Y97371D02*
Y97666D01*
X133870Y97374D02*
Y97668D01*
X133880Y97376D02*
Y97670D01*
X133890Y97379D02*
Y97672D01*
X133900Y97381D02*
Y97671D01*
X133910Y97384D02*
Y97669D01*
X133920Y97386D02*
Y97666D01*
X133930Y97389D02*
Y97664D01*
X133940Y97391D02*
Y97661D01*
X133950Y97394D02*
Y97659D01*
X133960Y97396D02*
Y97656D01*
X133970Y97396D02*
Y97654D01*
X133980Y97393D02*
Y97651D01*
X133990Y97390D02*
Y97649D01*
X134000Y97387D02*
Y97646D01*
X134010Y97385D02*
Y97644D01*
X134020Y97382D02*
Y97641D01*
X134030Y97379D02*
Y97639D01*
X134040Y97376D02*
Y97635D01*
X134050Y97373D02*
Y97631D01*
X134060Y97370D02*
Y97627D01*
X134070Y97367D02*
Y97623D01*
X134080Y97365D02*
Y97619D01*
X134090Y97362D02*
Y97615D01*
X134100Y97359D02*
Y97611D01*
X134110Y97356D02*
Y97607D01*
X134120Y97353D02*
Y97603D01*
X134130Y97350D02*
Y97599D01*
X134140Y97347D02*
Y97595D01*
X134150Y97345D02*
Y97591D01*
X134160Y97342D02*
Y97587D01*
X134170Y97339D02*
Y97583D01*
X134180Y97336D02*
Y97579D01*
X134190Y97333D02*
Y97575D01*
X134200Y97330D02*
Y97571D01*
X134210Y97327D02*
Y97567D01*
X134220Y97322D02*
Y97558D01*
X134230Y97310D02*
Y97548D01*
X134240Y97298D02*
Y97538D01*
X134250Y97286D02*
Y97528D01*
X134260Y97274D02*
Y97518D01*
X134270Y97262D02*
Y97508D01*
X134280Y97250D02*
Y97498D01*
X134290Y97238D02*
Y97488D01*
X134300Y97226D02*
Y97478D01*
X134310Y97214D02*
Y97468D01*
X134320Y97202D02*
Y97458D01*
X134330Y97190D02*
Y97448D01*
X134340Y97178D02*
Y97438D01*
X134350Y97166D02*
Y97428D01*
X134360Y97154D02*
Y97418D01*
X134370Y97142D02*
Y97408D01*
X134380Y97130D02*
Y97398D01*
X134390Y97118D02*
Y97388D01*
X134400Y97099D02*
Y97378D01*
X134410Y97059D02*
Y97368D01*
X134420Y97019D02*
Y97358D01*
X134430Y96979D02*
Y97352D01*
X134440Y95790D02*
Y97637D01*
X134450Y95790D02*
Y97637D01*
X134460Y95790D02*
Y97637D01*
X134470Y95790D02*
Y97637D01*
X134480Y95790D02*
Y97637D01*
X134490Y95790D02*
Y97637D01*
X134500Y95790D02*
Y97637D01*
X134510Y95790D02*
Y97637D01*
X134520Y95790D02*
Y97637D01*
X134530Y95790D02*
Y97637D01*
X134540Y95790D02*
Y97637D01*
X134550Y95790D02*
Y97637D01*
X134560Y95790D02*
Y97637D01*
X134570Y95790D02*
Y97637D01*
X134580Y95790D02*
Y97637D01*
X134590Y95790D02*
Y97637D01*
X134600Y95790D02*
Y97637D01*
X134610Y95790D02*
Y97637D01*
X134620Y95790D02*
Y97637D01*
X134630Y95790D02*
Y97637D01*
X134640Y95790D02*
Y97637D01*
X134650Y95790D02*
Y97637D01*
X134660Y95790D02*
Y97637D01*
X134670Y95790D02*
Y97637D01*
X134680Y95790D02*
Y97637D01*
X134690Y95790D02*
Y97637D01*
X134700Y95790D02*
Y97637D01*
X134710Y95790D02*
Y97637D01*
X134720Y95790D02*
Y97637D01*
X134730Y95790D02*
Y97637D01*
X134740Y95790D02*
Y97637D01*
X135120Y96304D02*
Y96317D01*
Y96647D02*
Y96757D01*
X135130Y96280D02*
Y96318D01*
Y96647D02*
Y96812D01*
X135140Y96257D02*
Y96320D01*
Y96647D02*
Y96867D01*
X135150Y96234D02*
Y96321D01*
Y96647D02*
Y96922D01*
X135160Y96210D02*
Y96322D01*
Y96647D02*
Y96977D01*
X135170Y96187D02*
Y96323D01*
Y96647D02*
Y97032D01*
X135180Y96164D02*
Y96324D01*
Y96647D02*
Y97087D01*
X135190Y96140D02*
Y96325D01*
Y96647D02*
Y97117D01*
X135200Y96117D02*
Y96326D01*
Y96647D02*
Y97135D01*
X135210Y96094D02*
Y96327D01*
Y96647D02*
Y97153D01*
X135220Y96072D02*
Y96328D01*
Y96647D02*
Y97171D01*
X135230Y96062D02*
Y96330D01*
Y96647D02*
Y97189D01*
X135240Y96052D02*
Y96331D01*
Y96647D02*
Y97207D01*
X135250Y96042D02*
Y96332D01*
Y96647D02*
Y97225D01*
X135260Y96032D02*
Y96333D01*
Y96647D02*
Y97243D01*
X135270Y96022D02*
Y96334D01*
Y96647D02*
Y97261D01*
X135280Y96012D02*
Y96335D01*
Y96647D02*
Y97279D01*
X135290Y96002D02*
Y96336D01*
Y96647D02*
Y97297D01*
X135300Y95992D02*
Y96337D01*
Y96647D02*
Y97315D01*
X135310Y95982D02*
Y96338D01*
Y96647D02*
Y97333D01*
X135320Y95972D02*
Y96340D01*
Y96647D02*
Y97351D01*
X135330Y95962D02*
Y96341D01*
Y96647D02*
Y97369D01*
X135340Y95952D02*
Y96342D01*
Y96647D02*
Y97387D01*
X135350Y95942D02*
Y96343D01*
Y96647D02*
Y97405D01*
X135360Y95932D02*
Y96344D01*
Y96647D02*
Y97423D01*
X135370Y95922D02*
Y96345D01*
Y96647D02*
Y97431D01*
X135380Y95912D02*
Y96346D01*
Y96647D02*
Y97438D01*
X135390Y95902D02*
Y96347D01*
Y96647D02*
Y97445D01*
X135400Y95895D02*
Y96348D01*
Y96647D02*
Y97453D01*
X135410Y95890D02*
Y96350D01*
Y96647D02*
Y97460D01*
X135420Y95886D02*
Y96351D01*
Y96647D02*
Y97467D01*
X135430Y95882D02*
Y96346D01*
Y96647D02*
Y96923D01*
Y96961D02*
Y97474D01*
X135440Y95878D02*
Y96333D01*
Y96647D02*
Y96923D01*
Y97011D02*
Y97481D01*
X135450Y95873D02*
Y96320D01*
Y96647D02*
Y96923D01*
Y97061D02*
Y97488D01*
X135460Y95869D02*
Y96306D01*
Y96647D02*
Y96923D01*
Y97109D02*
Y97495D01*
X135470Y95865D02*
Y96293D01*
Y96647D02*
Y96923D01*
Y97123D02*
Y97503D01*
X135480Y95860D02*
Y96280D01*
Y96647D02*
Y96923D01*
Y97136D02*
Y97510D01*
X135490Y95856D02*
Y96266D01*
Y96647D02*
Y96923D01*
Y97149D02*
Y97517D01*
X135500Y95852D02*
Y96253D01*
Y96647D02*
Y96923D01*
Y97163D02*
Y97524D01*
X135510Y95848D02*
Y96240D01*
Y96647D02*
Y96923D01*
Y97176D02*
Y97531D01*
X135520Y95843D02*
Y96226D01*
Y96647D02*
Y96923D01*
Y97189D02*
Y97538D01*
X135530Y95839D02*
Y96213D01*
Y96647D02*
Y96923D01*
Y97203D02*
Y97545D01*
X135540Y95835D02*
Y96202D01*
Y96647D02*
Y96923D01*
Y97216D02*
Y97553D01*
X135550Y95830D02*
Y96192D01*
Y96647D02*
Y96923D01*
Y97229D02*
Y97560D01*
X135560Y95826D02*
Y96182D01*
Y96647D02*
Y96923D01*
Y97243D02*
Y97567D01*
X135570Y95822D02*
Y96172D01*
Y96647D02*
Y96923D01*
Y97254D02*
Y97574D01*
X135580Y95818D02*
Y96162D01*
Y96647D02*
Y96923D01*
Y97260D02*
Y97581D01*
X135590Y95813D02*
Y96152D01*
Y96647D02*
Y96923D01*
Y97266D02*
Y97588D01*
X135600Y95809D02*
Y96142D01*
Y96647D02*
Y96923D01*
Y97272D02*
Y97595D01*
X135610Y95805D02*
Y96132D01*
Y96647D02*
Y96923D01*
Y97278D02*
Y97602D01*
X135620Y95800D02*
Y96122D01*
Y96647D02*
Y96923D01*
Y97284D02*
Y97604D01*
X135630Y95796D02*
Y96112D01*
Y96647D02*
Y96923D01*
Y97290D02*
Y97606D01*
X135640Y95792D02*
Y96103D01*
Y96647D02*
Y96923D01*
Y97296D02*
Y97608D01*
X135650Y95789D02*
Y96097D01*
Y96647D02*
Y96923D01*
Y97302D02*
Y97610D01*
X135660Y95788D02*
Y96092D01*
Y96647D02*
Y96923D01*
Y97308D02*
Y97612D01*
X135670Y95787D02*
Y96087D01*
Y96647D02*
Y96923D01*
Y97314D02*
Y97614D01*
X135680Y95786D02*
Y96082D01*
Y96647D02*
Y96923D01*
Y97320D02*
Y97616D01*
X135690Y95785D02*
Y96077D01*
Y96647D02*
Y96923D01*
Y97326D02*
Y97618D01*
X135700Y95784D02*
Y96072D01*
Y96647D02*
Y96923D01*
Y97332D02*
Y97620D01*
X135710Y95783D02*
Y96067D01*
Y96647D02*
Y96923D01*
Y97338D02*
Y97622D01*
X135720Y95782D02*
Y96062D01*
Y96647D02*
Y96923D01*
Y97344D02*
Y97624D01*
X135730Y95781D02*
Y96057D01*
Y96647D02*
Y96923D01*
Y97350D02*
Y97626D01*
X135740Y95779D02*
Y96052D01*
Y96647D02*
Y96923D01*
Y97356D02*
Y97628D01*
X135750Y95778D02*
Y96047D01*
Y96647D02*
Y96923D01*
Y97362D02*
Y97630D01*
X135760Y95777D02*
Y96042D01*
Y96647D02*
Y96923D01*
Y97363D02*
Y97632D01*
X135770Y95776D02*
Y96037D01*
Y96647D02*
Y96923D01*
Y97365D02*
Y97634D01*
X135780Y95775D02*
Y96032D01*
Y96647D02*
Y96923D01*
Y97367D02*
Y97636D01*
X135790Y95774D02*
Y96030D01*
Y96647D02*
Y96923D01*
Y97368D02*
Y97638D01*
X135800Y95773D02*
Y96030D01*
Y96647D02*
Y96923D01*
Y97370D02*
Y97640D01*
X135810Y95772D02*
Y96030D01*
Y96647D02*
Y96923D01*
Y97372D02*
Y97642D01*
X135820Y95771D02*
Y96030D01*
Y96647D02*
Y96923D01*
Y97373D02*
Y97644D01*
X135830Y95769D02*
Y96030D01*
Y96647D02*
Y96923D01*
Y97375D02*
Y97646D01*
X135840Y95768D02*
Y96030D01*
Y96647D02*
Y96923D01*
Y97377D02*
Y97648D01*
X135850Y95767D02*
Y96030D01*
Y96647D02*
Y96923D01*
Y97378D02*
Y97650D01*
X135860Y95766D02*
Y96030D01*
Y96647D02*
Y96923D01*
Y97380D02*
Y97652D01*
X135870Y95765D02*
Y96030D01*
Y96647D02*
Y96923D01*
Y97382D02*
Y97654D01*
X135880Y95764D02*
Y96030D01*
Y96647D02*
Y96923D01*
Y97383D02*
Y97656D01*
X135890Y95763D02*
Y96030D01*
Y96647D02*
Y96923D01*
Y97385D02*
Y97658D01*
X135900Y95762D02*
Y96030D01*
Y96647D02*
Y96923D01*
Y97387D02*
Y97660D01*
X135910Y95761D02*
Y96030D01*
Y96647D02*
Y96923D01*
Y97388D02*
Y97662D01*
X135920Y95759D02*
Y96030D01*
Y96647D02*
Y96923D01*
Y97390D02*
Y97664D01*
X135930Y95758D02*
Y96030D01*
Y96647D02*
Y96923D01*
Y97392D02*
Y97666D01*
X135940Y95757D02*
Y96032D01*
Y96647D02*
Y96923D01*
Y97393D02*
Y97668D01*
X135950Y95756D02*
Y96033D01*
Y96647D02*
Y96923D01*
Y97395D02*
Y97670D01*
X135960Y95755D02*
Y96035D01*
Y96647D02*
Y96923D01*
Y97397D02*
Y97672D01*
X135970Y95756D02*
Y96036D01*
Y96647D02*
Y96923D01*
Y97396D02*
Y97672D01*
X135980Y95758D02*
Y96038D01*
Y96647D02*
Y96923D01*
Y97395D02*
Y97670D01*
X135990Y95760D02*
Y96039D01*
Y96647D02*
Y96923D01*
Y97393D02*
Y97668D01*
X136000Y95762D02*
Y96040D01*
Y96647D02*
Y96923D01*
Y97391D02*
Y97666D01*
X136010Y95764D02*
Y96042D01*
Y96647D02*
Y96923D01*
Y97390D02*
Y97664D01*
X136020Y95766D02*
Y96043D01*
Y96647D02*
Y96923D01*
Y97388D02*
Y97662D01*
X136030Y95768D02*
Y96045D01*
Y96647D02*
Y96923D01*
Y97386D02*
Y97660D01*
X136040Y95770D02*
Y96046D01*
Y96647D02*
Y96923D01*
Y97385D02*
Y97658D01*
X136050Y95772D02*
Y96048D01*
Y96647D02*
Y96923D01*
Y97383D02*
Y97656D01*
X136060Y95774D02*
Y96049D01*
Y96647D02*
Y96923D01*
Y97381D02*
Y97654D01*
X136070Y95776D02*
Y96050D01*
Y96647D02*
Y96923D01*
Y97380D02*
Y97652D01*
X136080Y95778D02*
Y96052D01*
Y96647D02*
Y96923D01*
Y97378D02*
Y97650D01*
X136090Y95780D02*
Y96053D01*
Y96647D02*
Y96923D01*
Y97376D02*
Y97648D01*
X136100Y95782D02*
Y96055D01*
Y96647D02*
Y96923D01*
Y97375D02*
Y97646D01*
X136110Y95784D02*
Y96056D01*
Y96647D02*
Y96923D01*
Y97373D02*
Y97644D01*
X136120Y95786D02*
Y96058D01*
Y96647D02*
Y96923D01*
Y97371D02*
Y97642D01*
X136130Y95788D02*
Y96059D01*
Y96647D02*
Y96923D01*
Y97370D02*
Y97640D01*
X136140Y95790D02*
Y96060D01*
Y96647D02*
Y96923D01*
Y97368D02*
Y97638D01*
X136150Y95792D02*
Y96062D01*
Y96647D02*
Y96923D01*
Y97366D02*
Y97636D01*
X136160Y95794D02*
Y96063D01*
Y96647D02*
Y96923D01*
Y97365D02*
Y97634D01*
X136170Y95796D02*
Y96065D01*
Y96647D02*
Y96923D01*
Y97363D02*
Y97632D01*
X136180Y95798D02*
Y96066D01*
Y96647D02*
Y96923D01*
Y97361D02*
Y97630D01*
X136190Y95800D02*
Y96072D01*
Y96647D02*
Y96923D01*
Y97356D02*
Y97628D01*
X136200Y95802D02*
Y96078D01*
Y96647D02*
Y96923D01*
Y97350D02*
Y97626D01*
X136210Y95804D02*
Y96084D01*
Y96647D02*
Y96923D01*
Y97344D02*
Y97624D01*
X136220Y95806D02*
Y96090D01*
Y96647D02*
Y96923D01*
Y97338D02*
Y97622D01*
X136230Y95808D02*
Y96096D01*
Y96647D02*
Y96923D01*
Y97332D02*
Y97620D01*
X136240Y95810D02*
Y96102D01*
Y96647D02*
Y96923D01*
Y97326D02*
Y97618D01*
X136250Y95812D02*
Y96108D01*
Y96647D02*
Y96923D01*
Y97320D02*
Y97616D01*
X136260Y95814D02*
Y96114D01*
Y96647D02*
Y96923D01*
Y97314D02*
Y97614D01*
X136270Y95816D02*
Y96120D01*
Y96647D02*
Y96923D01*
Y97308D02*
Y97612D01*
X136280Y95818D02*
Y96126D01*
Y96647D02*
Y96923D01*
Y97302D02*
Y97610D01*
X136290Y95820D02*
Y96132D01*
Y96647D02*
Y96923D01*
Y97296D02*
Y97608D01*
X136300Y95822D02*
Y96138D01*
Y96647D02*
Y96923D01*
Y97290D02*
Y97606D01*
X136310Y95824D02*
Y96144D01*
Y96647D02*
Y96923D01*
Y97284D02*
Y97604D01*
X136320Y95826D02*
Y96150D01*
Y96647D02*
Y96923D01*
Y97278D02*
Y97602D01*
X136330Y95832D02*
Y96156D01*
Y96647D02*
Y96923D01*
Y97272D02*
Y97595D01*
X136340Y95838D02*
Y96162D01*
Y96647D02*
Y96923D01*
Y97266D02*
Y97589D01*
X136350Y95845D02*
Y96168D01*
Y96647D02*
Y96923D01*
Y97260D02*
Y97583D01*
X136360Y95851D02*
Y96174D01*
Y96647D02*
Y96923D01*
Y97254D02*
Y97577D01*
X136370Y95857D02*
Y96193D01*
Y96647D02*
Y96923D01*
Y97244D02*
Y97570D01*
X136380Y95863D02*
Y96213D01*
Y96647D02*
Y96923D01*
Y97234D02*
Y97564D01*
X136390Y95870D02*
Y96233D01*
Y96647D02*
Y96923D01*
Y97224D02*
Y97558D01*
X136400Y95876D02*
Y96253D01*
Y96647D02*
Y96923D01*
Y97214D02*
Y97552D01*
X136410Y95882D02*
Y96273D01*
Y96647D02*
Y96923D01*
Y97204D02*
Y97545D01*
X136420Y95888D02*
Y96293D01*
Y96647D02*
Y96923D01*
Y97194D02*
Y97539D01*
X136430Y95895D02*
Y96313D01*
Y96647D02*
Y96923D01*
Y97184D02*
Y97533D01*
X136440Y95901D02*
Y96333D01*
Y96647D02*
Y96923D01*
Y97174D02*
Y97527D01*
X136450Y95907D02*
Y96353D01*
Y96647D02*
Y96923D01*
Y97164D02*
Y97520D01*
X136460Y95913D02*
Y96373D01*
Y96647D02*
Y96923D01*
Y97154D02*
Y97514D01*
X136470Y95920D02*
Y96394D01*
Y96647D02*
Y96923D01*
Y97144D02*
Y97508D01*
X136480Y95926D02*
Y96429D01*
Y96647D02*
Y96923D01*
Y97134D02*
Y97502D01*
X136490Y95932D02*
Y96464D01*
Y96647D02*
Y96923D01*
Y97124D02*
Y97495D01*
X136500Y95938D02*
Y96499D01*
Y96647D02*
Y96923D01*
Y97114D02*
Y97489D01*
X136510Y95945D02*
Y96534D01*
Y96647D02*
Y96923D01*
Y97082D02*
Y97483D01*
X136520Y95951D02*
Y96569D01*
Y96647D02*
Y96923D01*
Y97032D02*
Y97477D01*
X136530Y95957D02*
Y96604D01*
Y96647D02*
Y96923D01*
Y96982D02*
Y97470D01*
X136540Y95963D02*
Y96639D01*
Y96645D02*
Y96926D01*
Y96932D02*
Y97464D01*
X136550Y95970D02*
Y97458D01*
X136560Y95976D02*
Y97452D01*
X136570Y95982D02*
Y97445D01*
X136580Y95988D02*
Y97439D01*
X136590Y95995D02*
Y97433D01*
X136600Y96001D02*
Y97427D01*
X136610Y96014D02*
Y97413D01*
X136620Y96030D02*
Y97395D01*
X136630Y96046D02*
Y97377D01*
X136640Y96062D02*
Y97359D01*
X136650Y96078D02*
Y97341D01*
X136660Y96094D02*
Y97323D01*
X136670Y96110D02*
Y97305D01*
X136680Y96126D02*
Y97287D01*
X136690Y96142D02*
Y97269D01*
X136700Y96158D02*
Y97251D01*
X136710Y96174D02*
Y97233D01*
X136720Y96190D02*
Y97215D01*
X136730Y96206D02*
Y97197D01*
X136740Y96222D02*
Y97179D01*
X136750Y96238D02*
Y97161D01*
X136760Y96254D02*
Y97143D01*
X136770Y96270D02*
Y97125D01*
X136780Y96286D02*
Y97107D01*
X136790Y96341D02*
Y97055D01*
X136800Y96401D02*
Y97000D01*
X136810Y96461D02*
Y96945D01*
X136820Y96521D02*
Y96890D01*
X136830Y96581D02*
Y96835D01*
X136840Y96641D02*
Y96780D01*
X136850Y96701D02*
Y96725D01*
X137120Y96290D02*
Y96360D01*
X137130Y96250D02*
Y96410D01*
X137140Y96210D02*
Y96460D01*
X137150Y96175D02*
Y96505D01*
X137160Y96155D02*
Y96535D01*
X137170Y96135D02*
Y96565D01*
X137180Y96115D02*
Y96595D01*
X137190Y96095D02*
Y96609D01*
X137200Y96075D02*
Y96616D01*
X137210Y96055D02*
Y96623D01*
X137220Y96037D02*
Y96630D01*
X137230Y96027D02*
Y96637D01*
Y97146D02*
Y97170D01*
X137240Y96017D02*
Y96644D01*
Y97145D02*
Y97197D01*
X137250Y96007D02*
Y96652D01*
Y97143D02*
Y97223D01*
X137260Y95997D02*
Y96659D01*
Y97142D02*
Y97250D01*
X137270Y95987D02*
Y96666D01*
Y97141D02*
Y97277D01*
X137280Y95977D02*
Y96673D01*
Y97140D02*
Y97303D01*
X137290Y95967D02*
Y96680D01*
Y97139D02*
Y97330D01*
X137300Y95957D02*
Y96687D01*
Y97138D02*
Y97357D01*
X137310Y95947D02*
Y96694D01*
Y97137D02*
Y97383D01*
X137320Y95937D02*
Y96702D01*
Y97136D02*
Y97410D01*
X137330Y95928D02*
Y96709D01*
Y97135D02*
Y97430D01*
X137340Y95920D02*
Y96716D01*
Y97133D02*
Y97440D01*
X137350Y95913D02*
Y96723D01*
Y97132D02*
Y97450D01*
X137360Y95905D02*
Y96730D01*
Y97131D02*
Y97460D01*
X137370Y95898D02*
Y96737D01*
Y97130D02*
Y97470D01*
X137380Y95890D02*
Y96744D01*
Y97129D02*
Y97480D01*
X137390Y95883D02*
Y96752D01*
Y97128D02*
Y97490D01*
X137400Y95875D02*
Y96759D01*
Y97127D02*
Y97500D01*
X137410Y95868D02*
Y96766D01*
Y97126D02*
Y97510D01*
X137420Y95860D02*
Y96773D01*
Y97125D02*
Y97520D01*
X137430Y95853D02*
Y96301D01*
Y96335D02*
Y96780D01*
Y97123D02*
Y97530D01*
X137440Y95845D02*
Y96271D01*
Y96355D02*
Y96782D01*
Y97122D02*
Y97535D01*
X137450Y95838D02*
Y96241D01*
Y96375D02*
Y96784D01*
Y97121D02*
Y97540D01*
X137460Y95830D02*
Y96211D01*
Y96395D02*
Y96786D01*
Y97120D02*
Y97545D01*
X137470Y95824D02*
Y96196D01*
Y96405D02*
Y96788D01*
Y97119D02*
Y97550D01*
X137480Y95820D02*
Y96181D01*
Y96415D02*
Y96790D01*
Y97118D02*
Y97555D01*
X137490Y95816D02*
Y96166D01*
Y96425D02*
Y96792D01*
Y97117D02*
Y97560D01*
X137500Y95812D02*
Y96151D01*
Y96435D02*
Y96794D01*
Y97116D02*
Y97565D01*
X137510Y95808D02*
Y96136D01*
Y96445D02*
Y96796D01*
Y97115D02*
Y97570D01*
X137520Y95804D02*
Y96121D01*
Y96455D02*
Y96798D01*
Y97113D02*
Y97575D01*
X137530Y95800D02*
Y96106D01*
Y96465D02*
Y96800D01*
Y97112D02*
Y97580D01*
X137540Y95796D02*
Y96099D01*
Y96470D02*
Y96802D01*
Y97135D02*
Y97585D01*
X137550Y95792D02*
Y96094D01*
Y96473D02*
Y96804D01*
Y97165D02*
Y97590D01*
X137560Y95788D02*
Y96089D01*
Y96475D02*
Y96806D01*
Y97195D02*
Y97595D01*
X137570Y95784D02*
Y96084D01*
Y96478D02*
Y96808D01*
Y97221D02*
Y97600D01*
X137580Y95780D02*
Y96079D01*
Y96480D02*
Y96810D01*
Y97236D02*
Y97603D01*
X137590Y95776D02*
Y96074D01*
Y96483D02*
Y96812D01*
Y97251D02*
Y97605D01*
X137600Y95772D02*
Y96069D01*
Y96485D02*
Y96814D01*
Y97266D02*
Y97607D01*
X137610Y95768D02*
Y96064D01*
Y96488D02*
Y96817D01*
Y97281D02*
Y97609D01*
X137620Y95764D02*
Y96059D01*
Y96490D02*
Y96820D01*
Y97296D02*
Y97611D01*
X137630Y95760D02*
Y96054D01*
Y96493D02*
Y96824D01*
Y97311D02*
Y97613D01*
X137640Y95756D02*
Y96049D01*
Y96495D02*
Y96828D01*
Y97325D02*
Y97615D01*
X137650Y95755D02*
Y96044D01*
Y96498D02*
Y96832D01*
Y97329D02*
Y97617D01*
X137660Y95755D02*
Y96039D01*
Y96500D02*
Y96835D01*
Y97332D02*
Y97619D01*
X137670Y95755D02*
Y96034D01*
Y96503D02*
Y96839D01*
Y97335D02*
Y97621D01*
X137680Y95755D02*
Y96030D01*
Y96505D02*
Y96843D01*
Y97339D02*
Y97623D01*
X137690Y95755D02*
Y96030D01*
Y96509D02*
Y96847D01*
Y97342D02*
Y97625D01*
X137700Y95755D02*
Y96030D01*
Y96513D02*
Y96850D01*
Y97345D02*
Y97627D01*
X137710Y95755D02*
Y96030D01*
Y96517D02*
Y96854D01*
Y97349D02*
Y97629D01*
X137720Y95755D02*
Y96030D01*
Y96521D02*
Y96858D01*
Y97352D02*
Y97631D01*
X137730Y95755D02*
Y96030D01*
Y96525D02*
Y96862D01*
Y97355D02*
Y97633D01*
X137740Y95755D02*
Y96030D01*
Y96529D02*
Y96865D01*
Y97359D02*
Y97635D01*
X137750Y95755D02*
Y96030D01*
Y96533D02*
Y96869D01*
Y97362D02*
Y97637D01*
X137760Y95755D02*
Y96030D01*
Y96537D02*
Y96873D01*
Y97364D02*
Y97639D01*
X137770Y95755D02*
Y96030D01*
Y96541D02*
Y96877D01*
Y97366D02*
Y97641D01*
X137780Y95755D02*
Y96030D01*
Y96545D02*
Y96880D01*
Y97368D02*
Y97643D01*
X137790Y95755D02*
Y96030D01*
Y96549D02*
Y96884D01*
Y97370D02*
Y97645D01*
X137800Y95755D02*
Y96030D01*
Y96553D02*
Y96888D01*
Y97372D02*
Y97647D01*
X137810Y95755D02*
Y96030D01*
Y96557D02*
Y96892D01*
Y97374D02*
Y97649D01*
X137820Y95755D02*
Y96030D01*
Y96561D02*
Y96895D01*
Y97376D02*
Y97651D01*
X137830Y95755D02*
Y96030D01*
Y96565D02*
Y96899D01*
Y97378D02*
Y97653D01*
X137840Y95755D02*
Y96030D01*
Y96569D02*
Y96903D01*
Y97380D02*
Y97655D01*
X137850Y95755D02*
Y96030D01*
Y96573D02*
Y96907D01*
Y97382D02*
Y97657D01*
X137860Y95755D02*
Y96031D01*
Y96577D02*
Y96910D01*
Y97384D02*
Y97659D01*
X137870Y95756D02*
Y96033D01*
Y96579D02*
Y96914D01*
Y97386D02*
Y97661D01*
X137880Y95757D02*
Y96035D01*
Y96582D02*
Y96918D01*
Y97388D02*
Y97663D01*
X137890Y95758D02*
Y96037D01*
Y96584D02*
Y96922D01*
Y97390D02*
Y97665D01*
X137900Y95759D02*
Y96039D01*
Y96587D02*
Y96925D01*
Y97392D02*
Y97667D01*
X137910Y95760D02*
Y96041D01*
Y96589D02*
Y96927D01*
Y97394D02*
Y97669D01*
X137920Y95762D02*
Y96043D01*
Y96592D02*
Y96930D01*
Y97396D02*
Y97671D01*
X137930Y95763D02*
Y96045D01*
Y96594D02*
Y96932D01*
Y97397D02*
Y97673D01*
X137940Y95764D02*
Y96047D01*
Y96597D02*
Y96935D01*
Y97395D02*
Y97672D01*
X137950Y95765D02*
Y96049D01*
Y96599D02*
Y96937D01*
Y97392D02*
Y97670D01*
X137960Y95766D02*
Y96051D01*
Y96602D02*
Y96940D01*
Y97390D02*
Y97669D01*
X137970Y95767D02*
Y96053D01*
Y96604D02*
Y96942D01*
Y97387D02*
Y97668D01*
X137980Y95768D02*
Y96055D01*
Y96607D02*
Y96945D01*
Y97385D02*
Y97667D01*
X137990Y95769D02*
Y96057D01*
Y96609D02*
Y96947D01*
Y97382D02*
Y97665D01*
X138000Y95770D02*
Y96059D01*
Y96612D02*
Y96950D01*
Y97380D02*
Y97664D01*
X138010Y95772D02*
Y96061D01*
Y96614D02*
Y96952D01*
Y97377D02*
Y97663D01*
X138020Y95773D02*
Y96063D01*
Y96617D02*
Y96955D01*
Y97375D02*
Y97662D01*
X138030Y95774D02*
Y96065D01*
Y96619D02*
Y96957D01*
Y97372D02*
Y97660D01*
X138040Y95775D02*
Y96067D01*
Y96622D02*
Y96960D01*
Y97370D02*
Y97659D01*
X138050Y95776D02*
Y96069D01*
Y96624D02*
Y96963D01*
Y97367D02*
Y97658D01*
X138060Y95777D02*
Y96072D01*
Y96627D02*
Y96967D01*
Y97365D02*
Y97657D01*
X138070Y95778D02*
Y96074D01*
Y96629D02*
Y96970D01*
Y97362D02*
Y97655D01*
X138080Y95779D02*
Y96077D01*
Y96632D02*
Y96973D01*
Y97360D02*
Y97654D01*
X138090Y95780D02*
Y96079D01*
Y96634D02*
Y96977D01*
Y97357D02*
Y97653D01*
X138100Y95782D02*
Y96082D01*
Y96637D02*
Y96980D01*
Y97355D02*
Y97652D01*
X138110Y95783D02*
Y96084D01*
Y96639D02*
Y96983D01*
Y97352D02*
Y97650D01*
X138120Y95784D02*
Y96087D01*
Y96642D02*
Y96987D01*
Y97350D02*
Y97649D01*
X138130Y95785D02*
Y96089D01*
Y96644D02*
Y96990D01*
Y97347D02*
Y97648D01*
X138140Y95786D02*
Y96092D01*
Y96647D02*
Y96993D01*
Y97345D02*
Y97647D01*
X138150Y95787D02*
Y96094D01*
Y96651D02*
Y96998D01*
Y97342D02*
Y97645D01*
X138160Y95788D02*
Y96097D01*
Y96655D02*
Y97005D01*
Y97340D02*
Y97644D01*
X138170Y95789D02*
Y96099D01*
Y96659D02*
Y97012D01*
Y97337D02*
Y97643D01*
X138180Y95792D02*
Y96102D01*
Y96663D02*
Y97018D01*
Y97335D02*
Y97642D01*
X138190Y95797D02*
Y96114D01*
Y96667D02*
Y97025D01*
Y97332D02*
Y97640D01*
X138200Y95802D02*
Y96127D01*
Y96671D02*
Y97032D01*
Y97330D02*
Y97639D01*
X138210Y95807D02*
Y96140D01*
Y96675D02*
Y97038D01*
Y97327D02*
Y97638D01*
X138220Y95812D02*
Y96154D01*
Y96679D02*
Y97045D01*
Y97321D02*
Y97633D01*
X138230Y95817D02*
Y96167D01*
Y96683D02*
Y97052D01*
Y97301D02*
Y97627D01*
X138240Y95822D02*
Y96180D01*
Y96687D02*
Y97058D01*
Y97281D02*
Y97621D01*
X138250Y95827D02*
Y96194D01*
Y96691D02*
Y97065D01*
Y97261D02*
Y97615D01*
X138260Y95832D02*
Y96207D01*
Y96695D02*
Y97085D01*
Y97241D02*
Y97609D01*
X138270Y95837D02*
Y96220D01*
Y96699D02*
Y97115D01*
Y97221D02*
Y97603D01*
X138280Y95842D02*
Y96234D01*
Y96703D02*
Y97145D01*
Y97201D02*
Y97597D01*
X138290Y95847D02*
Y96247D01*
Y96707D02*
Y97175D01*
Y97181D02*
Y97591D01*
X138300Y95852D02*
Y96286D01*
Y96711D02*
Y97585D01*
X138310Y95857D02*
Y96326D01*
Y96715D02*
Y97579D01*
X138320Y95862D02*
Y96366D01*
Y96719D02*
Y97573D01*
X138330Y95867D02*
Y96386D01*
Y96727D02*
Y97567D01*
X138340Y95872D02*
Y96385D01*
Y96736D02*
Y97561D01*
X138350Y95877D02*
Y96384D01*
Y96744D02*
Y97555D01*
X138360Y95882D02*
Y96383D01*
Y96752D02*
Y97549D01*
X138370Y95887D02*
Y96382D01*
Y96761D02*
Y97543D01*
X138380Y95892D02*
Y96381D01*
Y96769D02*
Y97537D01*
X138390Y95897D02*
Y96380D01*
Y96777D02*
Y97531D01*
X138400Y95909D02*
Y96379D01*
Y96786D02*
Y97518D01*
X138410Y95921D02*
Y96377D01*
Y96794D02*
Y97506D01*
X138420Y95933D02*
Y96376D01*
Y96802D02*
Y97493D01*
X138430Y95945D02*
Y96375D01*
Y96811D02*
Y97481D01*
X138440Y95957D02*
Y96374D01*
Y96819D02*
Y97468D01*
X138450Y95969D02*
Y96373D01*
Y96827D02*
Y97456D01*
X138460Y95981D02*
Y96372D01*
Y96836D02*
Y97443D01*
X138470Y95993D02*
Y96371D01*
Y96844D02*
Y97431D01*
X138480Y96005D02*
Y96370D01*
Y96852D02*
Y97418D01*
X138490Y96017D02*
Y96369D01*
Y96861D02*
Y97406D01*
X138500Y96029D02*
Y96367D01*
Y96869D02*
Y97393D01*
X138510Y96041D02*
Y96366D01*
Y96877D02*
Y97381D01*
X138520Y96053D02*
Y96365D01*
Y96886D02*
Y97368D01*
X138530Y96065D02*
Y96364D01*
Y96894D02*
Y97356D01*
X138540Y96077D02*
Y96363D01*
Y96921D02*
Y97328D01*
X138550Y96089D02*
Y96362D01*
Y96951D02*
Y97298D01*
X138560Y96101D02*
Y96361D01*
Y96981D02*
Y97268D01*
X138570Y96120D02*
Y96360D01*
Y97014D02*
Y97238D01*
X138580Y96155D02*
Y96359D01*
Y97054D02*
Y97208D01*
X138590Y96190D02*
Y96357D01*
Y97094D02*
Y97178D01*
X138600Y96225D02*
Y96356D01*
Y97134D02*
Y97148D01*
X138610Y96260D02*
Y96355D01*
X138620Y96295D02*
Y96354D01*
X138630Y96330D02*
Y96353D01*
X138900Y96313D02*
Y96331D01*
X138910Y96273D02*
Y96381D01*
X138920Y96233D02*
Y96431D01*
X138930Y96193D02*
Y96481D01*
X138940Y96166D02*
Y96518D01*
X138950Y96146D02*
Y96548D01*
X138960Y96126D02*
Y96578D01*
X138970Y96106D02*
Y96605D01*
X138980Y96086D02*
Y96612D01*
X138990Y96066D02*
Y96619D01*
X139000Y96046D02*
Y96626D01*
X139010Y96032D02*
Y96633D01*
Y97146D02*
Y97155D01*
X139020Y96022D02*
Y96640D01*
Y97145D02*
Y97181D01*
X139030Y96012D02*
Y96647D01*
Y97144D02*
Y97208D01*
X139040Y96002D02*
Y96655D01*
Y97143D02*
Y97235D01*
X139050Y95992D02*
Y96662D01*
Y97142D02*
Y97261D01*
X139060Y95982D02*
Y96669D01*
Y97141D02*
Y97288D01*
X139070Y95972D02*
Y96676D01*
Y97140D02*
Y97315D01*
X139080Y95962D02*
Y96683D01*
Y97139D02*
Y97341D01*
X139090Y95952D02*
Y96690D01*
Y97137D02*
Y97368D01*
X139100Y95942D02*
Y96697D01*
Y97136D02*
Y97395D01*
X139110Y95932D02*
Y96705D01*
Y97135D02*
Y97421D01*
X139120Y95925D02*
Y96712D01*
Y97134D02*
Y97434D01*
X139130Y95917D02*
Y96719D01*
Y97133D02*
Y97444D01*
X139140Y95910D02*
Y96726D01*
Y97132D02*
Y97454D01*
X139150Y95902D02*
Y96733D01*
Y97131D02*
Y97464D01*
X139160Y95895D02*
Y96740D01*
Y97130D02*
Y97474D01*
X139170Y95887D02*
Y96747D01*
Y97129D02*
Y97484D01*
X139180Y95880D02*
Y96755D01*
Y97127D02*
Y97494D01*
X139190Y95872D02*
Y96762D01*
Y97126D02*
Y97504D01*
X139200Y95865D02*
Y96769D01*
Y97125D02*
Y97514D01*
X139210Y95857D02*
Y96318D01*
Y96324D02*
Y96776D01*
Y97124D02*
Y97524D01*
X139220Y95850D02*
Y96288D01*
Y96344D02*
Y96781D01*
Y97123D02*
Y97532D01*
X139230Y95842D02*
Y96258D01*
Y96364D02*
Y96783D01*
Y97122D02*
Y97537D01*
X139240Y95835D02*
Y96228D01*
Y96384D02*
Y96785D01*
Y97121D02*
Y97542D01*
X139250Y95827D02*
Y96205D01*
Y96399D02*
Y96787D01*
Y97120D02*
Y97547D01*
X139260Y95822D02*
Y96190D01*
Y96409D02*
Y96789D01*
Y97119D02*
Y97552D01*
X139270Y95818D02*
Y96175D01*
Y96419D02*
Y96791D01*
Y97117D02*
Y97557D01*
X139280Y95814D02*
Y96160D01*
Y96429D02*
Y96793D01*
Y97116D02*
Y97562D01*
X139290Y95810D02*
Y96145D01*
Y96439D02*
Y96795D01*
Y97115D02*
Y97567D01*
X139300Y95806D02*
Y96130D01*
Y96449D02*
Y96797D01*
Y97114D02*
Y97572D01*
X139310Y95802D02*
Y96115D01*
Y96459D02*
Y96799D01*
Y97113D02*
Y97577D01*
X139320Y95798D02*
Y96102D01*
Y96469D02*
Y96801D01*
Y97118D02*
Y97582D01*
X139330Y95794D02*
Y96097D01*
Y96471D02*
Y96803D01*
Y97148D02*
Y97587D01*
X139340Y95790D02*
Y96092D01*
Y96474D02*
Y96805D01*
Y97178D02*
Y97592D01*
X139350Y95786D02*
Y96087D01*
Y96476D02*
Y96807D01*
Y97208D02*
Y97597D01*
X139360Y95782D02*
Y96082D01*
Y96479D02*
Y96809D01*
Y97227D02*
Y97602D01*
X139370Y95778D02*
Y96077D01*
Y96481D02*
Y96811D01*
Y97242D02*
Y97604D01*
X139380Y95774D02*
Y96072D01*
Y96484D02*
Y96813D01*
Y97257D02*
Y97606D01*
X139390Y95770D02*
Y96067D01*
Y96486D02*
Y96815D01*
Y97272D02*
Y97608D01*
X139400Y95766D02*
Y96062D01*
Y96489D02*
Y96818D01*
Y97287D02*
Y97610D01*
X139410Y95762D02*
Y96057D01*
Y96491D02*
Y96822D01*
Y97302D02*
Y97612D01*
X139420Y95758D02*
Y96052D01*
Y96494D02*
Y96826D01*
Y97317D02*
Y97614D01*
X139430Y95755D02*
Y96047D01*
Y96496D02*
Y96830D01*
Y97327D02*
Y97616D01*
X139440Y95755D02*
Y96042D01*
Y96499D02*
Y96833D01*
Y97330D02*
Y97618D01*
X139450Y95755D02*
Y96037D01*
Y96501D02*
Y96837D01*
Y97333D02*
Y97620D01*
X139460Y95755D02*
Y96032D01*
Y96504D02*
Y96841D01*
Y97337D02*
Y97622D01*
X139470Y95755D02*
Y96030D01*
Y96507D02*
Y96845D01*
Y97340D02*
Y97624D01*
X139480Y95755D02*
Y96030D01*
Y96511D02*
Y96848D01*
Y97343D02*
Y97626D01*
X139490Y95755D02*
Y96030D01*
Y96515D02*
Y96852D01*
Y97347D02*
Y97628D01*
X139500Y95755D02*
Y96030D01*
Y96519D02*
Y96856D01*
Y97350D02*
Y97630D01*
X139510Y95755D02*
Y96030D01*
Y96523D02*
Y96860D01*
Y97353D02*
Y97632D01*
X139520Y95755D02*
Y96030D01*
Y96527D02*
Y96863D01*
Y97357D02*
Y97634D01*
X139530Y95755D02*
Y96030D01*
Y96531D02*
Y96867D01*
Y97360D02*
Y97636D01*
X139540Y95755D02*
Y96030D01*
Y96535D02*
Y96871D01*
Y97363D02*
Y97638D01*
X139550Y95755D02*
Y96030D01*
Y96539D02*
Y96875D01*
Y97365D02*
Y97640D01*
X139560Y95755D02*
Y96030D01*
Y96543D02*
Y96878D01*
Y97367D02*
Y97642D01*
X139570Y95755D02*
Y96030D01*
Y96547D02*
Y96882D01*
Y97369D02*
Y97644D01*
X139580Y95755D02*
Y96030D01*
Y96551D02*
Y96886D01*
Y97371D02*
Y97646D01*
X139590Y95755D02*
Y96030D01*
Y96555D02*
Y96890D01*
Y97373D02*
Y97648D01*
X139600Y95755D02*
Y96030D01*
Y96559D02*
Y96893D01*
Y97375D02*
Y97650D01*
X139610Y95755D02*
Y96030D01*
Y96563D02*
Y96897D01*
Y97377D02*
Y97652D01*
X139620Y95755D02*
Y96030D01*
Y96567D02*
Y96901D01*
Y97379D02*
Y97654D01*
X139630Y95755D02*
Y96030D01*
Y96571D02*
Y96905D01*
Y97381D02*
Y97656D01*
X139640Y95755D02*
Y96030D01*
Y96575D02*
Y96908D01*
Y97383D02*
Y97658D01*
X139650Y95755D02*
Y96032D01*
Y96578D02*
Y96912D01*
Y97385D02*
Y97660D01*
X139660Y95756D02*
Y96034D01*
Y96580D02*
Y96916D01*
Y97387D02*
Y97662D01*
X139670Y95758D02*
Y96036D01*
Y96583D02*
Y96920D01*
Y97389D02*
Y97664D01*
X139680Y95759D02*
Y96038D01*
Y96585D02*
Y96923D01*
Y97391D02*
Y97666D01*
X139690Y95760D02*
Y96040D01*
Y96588D02*
Y96926D01*
Y97393D02*
Y97668D01*
X139700Y95761D02*
Y96042D01*
Y96590D02*
Y96928D01*
Y97395D02*
Y97670D01*
X139710Y95762D02*
Y96044D01*
Y96593D02*
Y96931D01*
Y97397D02*
Y97672D01*
X139720Y95763D02*
Y96046D01*
Y96595D02*
Y96933D01*
Y97396D02*
Y97672D01*
X139730Y95764D02*
Y96048D01*
Y96598D02*
Y96936D01*
Y97394D02*
Y97671D01*
X139740Y95765D02*
Y96050D01*
Y96600D02*
Y96938D01*
Y97391D02*
Y97670D01*
X139750Y95766D02*
Y96052D01*
Y96603D02*
Y96941D01*
Y97389D02*
Y97669D01*
X139760Y95768D02*
Y96054D01*
Y96605D02*
Y96943D01*
Y97386D02*
Y97667D01*
X139770Y95769D02*
Y96056D01*
Y96608D02*
Y96946D01*
Y97384D02*
Y97666D01*
X139780Y95770D02*
Y96058D01*
Y96610D02*
Y96948D01*
Y97381D02*
Y97665D01*
X139790Y95771D02*
Y96060D01*
Y96613D02*
Y96951D01*
Y97379D02*
Y97664D01*
X139800Y95772D02*
Y96062D01*
Y96615D02*
Y96953D01*
Y97376D02*
Y97662D01*
X139810Y95773D02*
Y96064D01*
Y96618D02*
Y96956D01*
Y97374D02*
Y97661D01*
X139820Y95774D02*
Y96066D01*
Y96620D02*
Y96958D01*
Y97371D02*
Y97660D01*
X139830Y95775D02*
Y96068D01*
Y96623D02*
Y96961D01*
Y97369D02*
Y97659D01*
X139840Y95776D02*
Y96070D01*
Y96625D02*
Y96965D01*
Y97366D02*
Y97657D01*
X139850Y95778D02*
Y96073D01*
Y96628D02*
Y96968D01*
Y97364D02*
Y97656D01*
X139860Y95779D02*
Y96075D01*
Y96630D02*
Y96971D01*
Y97361D02*
Y97655D01*
X139870Y95780D02*
Y96078D01*
Y96633D02*
Y96975D01*
Y97359D02*
Y97654D01*
X139880Y95781D02*
Y96080D01*
Y96635D02*
Y96978D01*
Y97356D02*
Y97652D01*
X139890Y95782D02*
Y96083D01*
Y96638D02*
Y96981D01*
Y97354D02*
Y97651D01*
X139900Y95783D02*
Y96085D01*
Y96640D02*
Y96985D01*
Y97351D02*
Y97650D01*
X139910Y95784D02*
Y96088D01*
Y96643D02*
Y96988D01*
Y97349D02*
Y97649D01*
X139920Y95785D02*
Y96090D01*
Y96645D02*
Y96991D01*
Y97346D02*
Y97647D01*
X139930Y95786D02*
Y96093D01*
Y96648D02*
Y96995D01*
Y97344D02*
Y97646D01*
X139940Y95788D02*
Y96095D01*
Y96652D02*
Y97001D01*
Y97341D02*
Y97645D01*
X139950Y95789D02*
Y96098D01*
Y96656D02*
Y97008D01*
Y97339D02*
Y97644D01*
X139960Y95790D02*
Y96100D01*
Y96660D02*
Y97014D01*
Y97336D02*
Y97642D01*
X139970Y95794D02*
Y96106D01*
Y96664D02*
Y97021D01*
Y97334D02*
Y97641D01*
X139980Y95799D02*
Y96119D01*
Y96668D02*
Y97028D01*
Y97331D02*
Y97640D01*
X139990Y95804D02*
Y96133D01*
Y96672D02*
Y97034D01*
Y97329D02*
Y97639D01*
X140000Y95809D02*
Y96146D01*
Y96676D02*
Y97041D01*
Y97326D02*
Y97637D01*
X140010Y95814D02*
Y96159D01*
Y96680D02*
Y97048D01*
Y97312D02*
Y97631D01*
X140020Y95819D02*
Y96173D01*
Y96684D02*
Y97054D01*
Y97292D02*
Y97625D01*
X140030Y95824D02*
Y96186D01*
Y96688D02*
Y97061D01*
Y97272D02*
Y97619D01*
X140040Y95829D02*
Y96199D01*
Y96692D02*
Y97068D01*
Y97252D02*
Y97613D01*
X140050Y95834D02*
Y96213D01*
Y96696D02*
Y97098D01*
Y97232D02*
Y97607D01*
X140060Y95839D02*
Y96226D01*
Y96700D02*
Y97128D01*
Y97212D02*
Y97601D01*
X140070Y95844D02*
Y96239D01*
Y96704D02*
Y97158D01*
Y97192D02*
Y97595D01*
X140080Y95849D02*
Y96263D01*
Y96708D02*
Y97589D01*
X140090Y95854D02*
Y96303D01*
Y96712D02*
Y97583D01*
X140100Y95859D02*
Y96343D01*
Y96716D02*
Y97577D01*
X140110Y95864D02*
Y96383D01*
Y96723D02*
Y97571D01*
X140120Y95869D02*
Y96386D01*
Y96731D02*
Y97565D01*
X140130Y95874D02*
Y96385D01*
Y96739D02*
Y97559D01*
X140140Y95879D02*
Y96384D01*
Y96748D02*
Y97553D01*
X140150Y95884D02*
Y96383D01*
Y96756D02*
Y97547D01*
X140160Y95889D02*
Y96381D01*
Y96764D02*
Y97541D01*
X140170Y95894D02*
Y96380D01*
Y96773D02*
Y97535D01*
X140180Y95902D02*
Y96379D01*
Y96781D02*
Y97525D01*
X140190Y95914D02*
Y96378D01*
Y96789D02*
Y97513D01*
X140200Y95926D02*
Y96377D01*
Y96798D02*
Y97500D01*
X140210Y95938D02*
Y96376D01*
Y96806D02*
Y97488D01*
X140220Y95950D02*
Y96375D01*
Y96814D02*
Y97475D01*
X140230Y95962D02*
Y96374D01*
Y96823D02*
Y97463D01*
X140240Y95974D02*
Y96373D01*
Y96831D02*
Y97450D01*
X140250Y95986D02*
Y96371D01*
Y96839D02*
Y97438D01*
X140260Y95998D02*
Y96370D01*
Y96848D02*
Y97425D01*
X140270Y96010D02*
Y96369D01*
Y96856D02*
Y97413D01*
X140280Y96022D02*
Y96368D01*
Y96864D02*
Y97400D01*
X140290Y96034D02*
Y96367D01*
Y96873D02*
Y97388D01*
X140300Y96046D02*
Y96366D01*
Y96881D02*
Y97375D01*
X140310Y96058D02*
Y96365D01*
Y96889D02*
Y97363D01*
X140320Y96070D02*
Y96364D01*
Y96904D02*
Y97345D01*
X140330Y96082D02*
Y96363D01*
Y96934D02*
Y97315D01*
X140340Y96094D02*
Y96361D01*
Y96964D02*
Y97285D01*
X140350Y96106D02*
Y96360D01*
Y96994D02*
Y97255D01*
X140360Y96135D02*
Y96359D01*
Y97032D02*
Y97225D01*
X140370Y96170D02*
Y96358D01*
Y97072D02*
Y97195D01*
X140380Y96205D02*
Y96357D01*
Y97112D02*
Y97165D01*
X140390Y96240D02*
Y96356D01*
X140400Y96275D02*
Y96355D01*
X140410Y96310D02*
Y96354D01*
X140420Y96345D02*
Y96353D01*
X140550Y95790D02*
Y95807D01*
X140560Y95790D02*
Y95832D01*
X140570Y95790D02*
Y95857D01*
X140580Y95790D02*
Y95882D01*
X140590Y95790D02*
Y95907D01*
X140600Y95790D02*
Y95931D01*
X140610Y95790D02*
Y95956D01*
X140620Y95790D02*
Y95981D01*
X140630Y95790D02*
Y96006D01*
X140640Y95790D02*
Y96031D01*
X140650Y95790D02*
Y96056D01*
X140660Y95790D02*
Y96080D01*
X140670Y95790D02*
Y96105D01*
X140680Y95790D02*
Y96130D01*
X140690Y95790D02*
Y96155D01*
X140700Y95790D02*
Y96180D01*
X140710Y95790D02*
Y96205D01*
X140720Y95790D02*
Y96229D01*
X140730Y95790D02*
Y96254D01*
X140740Y95790D02*
Y96279D01*
X140750Y95790D02*
Y96304D01*
X140760Y95790D02*
Y96329D01*
X140770Y95790D02*
Y96354D01*
X140780Y95790D02*
Y96378D01*
X140790Y95790D02*
Y96403D01*
X140800Y95790D02*
Y96428D01*
X140810Y95790D02*
Y96453D01*
X140820Y95790D02*
Y96478D01*
X140830Y95790D02*
Y96502D01*
X140840Y95790D02*
Y96527D01*
X140850Y95790D02*
Y96552D01*
X140860Y95790D02*
Y96577D01*
X140870Y95790D02*
Y96602D01*
X140880Y95790D02*
Y96627D01*
X140890Y95790D02*
Y96651D01*
X140900Y95790D02*
Y96676D01*
X140910Y95790D02*
Y96701D01*
X140920Y95790D02*
Y96726D01*
X140930Y95804D02*
Y96751D01*
X140940Y95831D02*
Y96776D01*
X140950Y95859D02*
Y96800D01*
X140960Y95886D02*
Y96825D01*
X140970Y95914D02*
Y96850D01*
X140980Y95941D02*
Y96875D01*
X140990Y95969D02*
Y96900D01*
X141000Y95996D02*
Y96925D01*
X141010Y96024D02*
Y96949D01*
X141020Y96051D02*
Y96974D01*
X141030Y96079D02*
Y96999D01*
X141040Y96106D02*
Y97024D01*
X141050Y96134D02*
Y97049D01*
X141060Y96161D02*
Y97074D01*
X141070Y96189D02*
Y97098D01*
X141080Y96216D02*
Y97123D01*
X141090Y96244D02*
Y97148D01*
X141100Y96271D02*
Y97173D01*
X141110Y96299D02*
Y97198D01*
X141120Y96326D02*
Y97222D01*
X141130Y96354D02*
Y97247D01*
X141140Y96381D02*
Y97272D01*
X141150Y96409D02*
Y97297D01*
X141160Y96436D02*
Y97322D01*
X141170Y96464D02*
Y97347D01*
X141180Y96491D02*
Y97371D01*
X141190Y96519D02*
Y97396D01*
X141200Y96546D02*
Y97421D01*
X141210Y96574D02*
Y97446D01*
X141220Y96576D02*
Y97471D01*
X141230Y96576D02*
Y97496D01*
X141240Y96576D02*
Y97520D01*
X141250Y96576D02*
Y97545D01*
X141260Y96576D02*
Y97570D01*
X141270Y96576D02*
Y97595D01*
X141280Y96576D02*
Y97620D01*
X141290Y96576D02*
Y97645D01*
X141300Y96576D02*
Y97669D01*
X141310Y96576D02*
Y97694D01*
X141320Y96576D02*
Y96852D01*
Y96867D02*
Y97719D01*
X141330Y96576D02*
Y96852D01*
Y96894D02*
Y97744D01*
X141340Y96576D02*
Y96852D01*
Y96922D02*
Y97769D01*
X141350Y96576D02*
Y96852D01*
Y96949D02*
Y97794D01*
X141360Y96576D02*
Y96852D01*
Y96976D02*
Y97818D01*
X141370Y96576D02*
Y96852D01*
Y97003D02*
Y97843D01*
X141380Y96576D02*
Y96852D01*
Y97030D02*
Y97868D01*
X141390Y96576D02*
Y96852D01*
Y97057D02*
Y97893D01*
X141400Y96576D02*
Y96852D01*
Y97084D02*
Y97918D01*
X141410Y96576D02*
Y96852D01*
Y97112D02*
Y97942D01*
X141420Y96576D02*
Y96852D01*
Y97139D02*
Y97967D01*
X141430Y96576D02*
Y96852D01*
Y97166D02*
Y97992D01*
X141440Y96576D02*
Y96852D01*
Y97193D02*
Y98017D01*
X141450Y96576D02*
Y96852D01*
Y97220D02*
Y98042D01*
X141460Y96576D02*
Y96852D01*
Y97247D02*
Y98067D01*
X141470Y96576D02*
Y96852D01*
Y97274D02*
Y98091D01*
X141480Y96576D02*
Y96852D01*
Y97302D02*
Y98116D01*
X141490Y96576D02*
Y96852D01*
Y97329D02*
Y98141D01*
X141500Y96576D02*
Y96852D01*
Y97356D02*
Y98166D01*
X141510Y96576D02*
Y96852D01*
Y97383D02*
Y98191D01*
X141520Y96576D02*
Y96852D01*
Y97410D02*
Y98216D01*
X141530Y96576D02*
Y96852D01*
Y97437D02*
Y98240D01*
X141540Y96576D02*
Y96852D01*
Y97464D02*
Y98265D01*
X141550Y96576D02*
Y96852D01*
Y97492D02*
Y98290D01*
X141560Y96576D02*
Y96852D01*
Y97519D02*
Y98315D01*
X141570Y96576D02*
Y96852D01*
Y97546D02*
Y98340D01*
X141580Y96576D02*
Y96852D01*
Y97572D02*
Y98352D01*
X141590Y96576D02*
Y96852D01*
Y97599D02*
Y98352D01*
X141600Y96576D02*
Y96852D01*
Y97626D02*
Y98352D01*
X141610Y96576D02*
Y96852D01*
Y97652D02*
Y98352D01*
X141620Y96576D02*
Y96852D01*
Y97679D02*
Y98352D01*
X141630Y96576D02*
Y96852D01*
Y97706D02*
Y98352D01*
X141640Y96576D02*
Y96852D01*
Y97732D02*
Y98352D01*
X141650Y96576D02*
Y96852D01*
Y97759D02*
Y98352D01*
X141660Y96576D02*
Y96852D01*
Y97786D02*
Y98352D01*
X141670Y96576D02*
Y96852D01*
Y97812D02*
Y98352D01*
X141680Y96576D02*
Y96852D01*
Y97844D02*
Y98352D01*
X141690Y96576D02*
Y96852D01*
Y97879D02*
Y98352D01*
X141700Y96576D02*
Y96852D01*
Y97914D02*
Y98352D01*
X141710Y96576D02*
Y96852D01*
Y97949D02*
Y98352D01*
X141720Y96576D02*
Y96852D01*
Y97984D02*
Y98352D01*
X141730Y96576D02*
Y96852D01*
Y98019D02*
Y98352D01*
X141740Y96576D02*
Y96852D01*
Y98054D02*
Y98352D01*
X141750Y96576D02*
Y96852D01*
Y98076D02*
Y98352D01*
X141760Y96576D02*
Y96852D01*
Y98059D02*
Y98352D01*
X141770Y96576D02*
Y96852D01*
Y98033D02*
Y98352D01*
X141780Y96576D02*
Y96852D01*
Y98007D02*
Y98352D01*
X141790Y96576D02*
Y96852D01*
Y97981D02*
Y98352D01*
X141800Y96576D02*
Y96852D01*
Y97955D02*
Y98352D01*
X141810Y96576D02*
Y96852D01*
Y97929D02*
Y98352D01*
X141820Y96576D02*
Y96852D01*
Y97903D02*
Y98352D01*
X141830Y96576D02*
Y96852D01*
Y97877D02*
Y98352D01*
X141840Y96576D02*
Y96852D01*
Y97851D02*
Y98352D01*
X141850Y96576D02*
Y96852D01*
Y97825D02*
Y98352D01*
X141860Y96576D02*
Y96852D01*
Y97799D02*
Y98352D01*
X141870Y96576D02*
Y96852D01*
Y97773D02*
Y98352D01*
X141880Y96576D02*
Y96852D01*
Y97747D02*
Y98352D01*
X141890Y96576D02*
Y96852D01*
Y97721D02*
Y98352D01*
X141900Y96576D02*
Y96852D01*
Y97695D02*
Y98352D01*
X141910Y96576D02*
Y96852D01*
Y97669D02*
Y98352D01*
X141920Y96576D02*
Y96852D01*
Y97643D02*
Y98352D01*
X141930Y96576D02*
Y96852D01*
Y97617D02*
Y98352D01*
X141940Y96576D02*
Y96852D01*
Y97591D02*
Y98352D01*
X141950Y96576D02*
Y96852D01*
Y97564D02*
Y98352D01*
X141960Y96576D02*
Y96852D01*
Y97538D02*
Y98352D01*
X141970Y96576D02*
Y96852D01*
Y97512D02*
Y98329D01*
X141980Y96576D02*
Y96852D01*
Y97486D02*
Y98304D01*
X141990Y96576D02*
Y96852D01*
Y97459D02*
Y98279D01*
X142000Y96576D02*
Y96852D01*
Y97433D02*
Y98255D01*
X142010Y96576D02*
Y96852D01*
Y97407D02*
Y98230D01*
X142020Y96576D02*
Y96852D01*
Y97381D02*
Y98205D01*
X142030Y96576D02*
Y96852D01*
Y97354D02*
Y98180D01*
X142040Y96576D02*
Y96852D01*
Y97328D02*
Y98155D01*
X142050Y96576D02*
Y96852D01*
Y97302D02*
Y98130D01*
X142060Y96576D02*
Y96852D01*
Y97276D02*
Y98106D01*
X142070Y96576D02*
Y96852D01*
Y97249D02*
Y98081D01*
X142080Y96576D02*
Y96852D01*
Y97223D02*
Y98056D01*
X142090Y96576D02*
Y96852D01*
Y97197D02*
Y98031D01*
X142100Y96576D02*
Y96852D01*
Y97171D02*
Y98006D01*
X142110Y96576D02*
Y96852D01*
Y97144D02*
Y97981D01*
X142120Y96576D02*
Y96852D01*
Y97118D02*
Y97957D01*
X142130Y96576D02*
Y96852D01*
Y97092D02*
Y97932D01*
X142140Y96576D02*
Y96852D01*
Y97066D02*
Y97907D01*
X142150Y96576D02*
Y96852D01*
Y97039D02*
Y97882D01*
X142160Y96576D02*
Y96852D01*
Y97013D02*
Y97857D01*
X142170Y96576D02*
Y96852D01*
Y96987D02*
Y97833D01*
X142180Y96576D02*
Y96852D01*
Y96961D02*
Y97808D01*
X142190Y96576D02*
Y96852D01*
Y96934D02*
Y97783D01*
X142200Y96576D02*
Y96852D01*
Y96908D02*
Y97758D01*
X142210Y96576D02*
Y96852D01*
Y96882D02*
Y97733D01*
X142220Y96576D02*
Y97708D01*
X142230Y96576D02*
Y97684D01*
X142240Y96576D02*
Y97659D01*
X142250Y96576D02*
Y97634D01*
X142260Y96576D02*
Y97609D01*
X142270Y96576D02*
Y97584D01*
X142280Y96576D02*
Y97559D01*
X142290Y96576D02*
Y97535D01*
X142300Y96576D02*
Y97510D01*
X142310Y96576D02*
Y97485D01*
X142320Y96576D02*
Y97460D01*
X142330Y96562D02*
Y97435D01*
X142340Y96534D02*
Y97410D01*
X142350Y96507D02*
Y97386D01*
X142360Y96479D02*
Y97361D01*
X142370Y96452D02*
Y97336D01*
X142380Y96424D02*
Y97311D01*
X142390Y96397D02*
Y97286D01*
X142400Y96369D02*
Y97261D01*
X142410Y96342D02*
Y97237D01*
X142420Y96314D02*
Y97212D01*
X142430Y96287D02*
Y97187D01*
X142440Y96259D02*
Y97162D01*
X142450Y96232D02*
Y97137D01*
X142460Y96204D02*
Y97113D01*
X142470Y96177D02*
Y97088D01*
X142480Y96149D02*
Y97063D01*
X142490Y96122D02*
Y97038D01*
X142500Y96094D02*
Y97013D01*
X142510Y96067D02*
Y96988D01*
X142520Y96039D02*
Y96964D01*
X142530Y96012D02*
Y96939D01*
X142540Y95984D02*
Y96914D01*
X142550Y95957D02*
Y96889D01*
X142560Y95929D02*
Y96864D01*
X142570Y95902D02*
Y96839D01*
X142580Y95874D02*
Y96815D01*
X142590Y95847D02*
Y96790D01*
X142600Y95819D02*
Y96765D01*
X142610Y95792D02*
Y96740D01*
X142620Y95790D02*
Y96715D01*
X142630Y95790D02*
Y96690D01*
X142640Y95790D02*
Y96666D01*
X142650Y95790D02*
Y96641D01*
X142660Y95790D02*
Y96616D01*
X142670Y95790D02*
Y96591D01*
X142680Y95790D02*
Y96566D01*
X142690Y95790D02*
Y96541D01*
X142700Y95790D02*
Y96517D01*
X142710Y95790D02*
Y96492D01*
X142720Y95790D02*
Y96467D01*
X142730Y95790D02*
Y96442D01*
X142740Y95790D02*
Y96417D01*
X142750Y95790D02*
Y96393D01*
X142760Y95790D02*
Y96368D01*
X142770Y95790D02*
Y96343D01*
X142780Y95790D02*
Y96318D01*
X142790Y95790D02*
Y96293D01*
X142800Y95790D02*
Y96268D01*
X142810Y95790D02*
Y96244D01*
X142820Y95790D02*
Y96219D01*
X142830Y95790D02*
Y96194D01*
X142840Y95790D02*
Y96169D01*
X142850Y95790D02*
Y96144D01*
X142860Y95790D02*
Y96119D01*
X142870Y95790D02*
Y96095D01*
X142880Y95790D02*
Y96070D01*
X142890Y95790D02*
Y96045D01*
X142900Y95790D02*
Y96020D01*
X142910Y95790D02*
Y95995D01*
X142920Y95790D02*
Y95970D01*
X142930Y95790D02*
Y95946D01*
X142940Y95790D02*
Y95921D01*
X142950Y95790D02*
Y95896D01*
X142960Y95790D02*
Y95871D01*
X142970Y95790D02*
Y95846D01*
X142980Y95790D02*
Y95821D01*
X142990Y95790D02*
Y95797D01*
*
G04 PC Custom Flashes*
G04 Layer Name TMC5160-EVAL_V30.pcb - flashes*
%LPD*%
*
*
G04 PC Circuitry*
G04 Layer Name TMC5160-EVAL_V30.pcb - circuitry*
%LPD*%
*
G54D132*
X127510Y104000D02*
G75*
G03X127510I-1270J0D01*
G01X119890D02*
G03X119890I-1270J0D01*
G01X122430D02*
G03X122430I-1270J0D01*
G01X124970D02*
G03X124970I-1270J0D01*
G01X112270D02*
G03X112270I-1270J0D01*
G01X132590D02*
G03X132590I-1270J0D01*
G01X130050D02*
G03X130050I-1270J0D01*
G01X114810D02*
G03X114810I-1270J0D01*
G01X117350D02*
G03X117350I-1270J0D01*
G01X135130D02*
G03X135130I-1270J0D01*
G01X126103Y102737D02*
X127502Y104136D01*
X125576Y102917D02*
X127322Y104663D01*
X125209Y103257D02*
X126982Y105030D01*
X124994Y103749D02*
X126490Y105245D01*
X125102Y104564D02*
X125675Y105137D01*
X118483Y102737D02*
X119882Y104136D01*
X117956Y102917D02*
X119702Y104663D01*
X117589Y103257D02*
X119362Y105030D01*
X117374Y103749D02*
X118870Y105245D01*
X117482Y104564D02*
X118055Y105137D01*
X121023Y102737D02*
X122422Y104136D01*
X120496Y102917D02*
X122242Y104663D01*
X120129Y103257D02*
X121902Y105030D01*
X119914Y103749D02*
X121410Y105245D01*
X120022Y104564D02*
X120595Y105137D01*
X123563Y102737D02*
X124962Y104136D01*
X123036Y102917D02*
X124782Y104663D01*
X122669Y103257D02*
X124442Y105030D01*
X122454Y103749D02*
X123950Y105245D01*
X122562Y104564D02*
X123135Y105137D01*
X110863Y102737D02*
X112262Y104136D01*
X110336Y102917D02*
X112082Y104663D01*
X109969Y103257D02*
X111742Y105030D01*
X109754Y103749D02*
X111250Y105245D01*
X109862Y104564D02*
X110435Y105137D01*
X131183Y102737D02*
X132582Y104136D01*
X130656Y102917D02*
X132402Y104663D01*
X130289Y103257D02*
X132062Y105030D01*
X130074Y103749D02*
X131570Y105245D01*
X130182Y104564D02*
X130755Y105137D01*
X128643Y102737D02*
X130042Y104136D01*
X128116Y102917D02*
X129862Y104663D01*
X127749Y103257D02*
X129522Y105030D01*
X127534Y103749D02*
X129030Y105245D01*
X127642Y104564D02*
X128215Y105137D01*
X113403Y102737D02*
X114802Y104136D01*
X112876Y102917D02*
X114622Y104663D01*
X112509Y103257D02*
X114282Y105030D01*
X112294Y103749D02*
X113790Y105245D01*
X112402Y104564D02*
X112975Y105137D01*
X115943Y102737D02*
X117342Y104136D01*
X115416Y102917D02*
X117162Y104663D01*
X115049Y103257D02*
X116822Y105030D01*
X114834Y103749D02*
X116330Y105245D01*
X114942Y104564D02*
X115515Y105137D01*
X133723Y102737D02*
X135122Y104136D01*
X133196Y102917D02*
X134942Y104663D01*
X132829Y103257D02*
X134602Y105030D01*
X132614Y103749D02*
X134110Y105245D01*
X132722Y104564D02*
X133295Y105137D01*
X125989Y105245D02*
X127485Y103749D01*
X126804Y105137D02*
X127377Y104564D01*
X125497Y105030D02*
X127270Y103257D01*
X125157Y104663D02*
X126903Y102917D01*
X124977Y104136D02*
X126376Y102737D01*
X118369Y105245D02*
X119865Y103749D01*
X119184Y105137D02*
X119757Y104564D01*
X117877Y105030D02*
X119650Y103257D01*
X117537Y104663D02*
X119283Y102917D01*
X117357Y104136D02*
X118756Y102737D01*
X120909Y105245D02*
X122405Y103749D01*
X121724Y105137D02*
X122297Y104564D01*
X120417Y105030D02*
X122190Y103257D01*
X120077Y104663D02*
X121823Y102917D01*
X119897Y104136D02*
X121296Y102737D01*
X123449Y105245D02*
X124945Y103749D01*
X124264Y105137D02*
X124837Y104564D01*
X122957Y105030D02*
X124730Y103257D01*
X122617Y104663D02*
X124363Y102917D01*
X122437Y104136D02*
X123836Y102737D01*
X110749Y105245D02*
X112245Y103749D01*
X111564Y105137D02*
X112137Y104564D01*
X110257Y105030D02*
X112030Y103257D01*
X109917Y104663D02*
X111663Y102917D01*
X109737Y104136D02*
X111136Y102737D01*
X131069Y105245D02*
X132565Y103749D01*
X131884Y105137D02*
X132457Y104564D01*
X130577Y105030D02*
X132350Y103257D01*
X130237Y104663D02*
X131983Y102917D01*
X130057Y104136D02*
X131456Y102737D01*
X128529Y105245D02*
X130025Y103749D01*
X129344Y105137D02*
X129917Y104564D01*
X128037Y105030D02*
X129810Y103257D01*
X127697Y104663D02*
X129443Y102917D01*
X127517Y104136D02*
X128916Y102737D01*
X113289Y105245D02*
X114785Y103749D01*
X114104Y105137D02*
X114677Y104564D01*
X112797Y105030D02*
X114570Y103257D01*
X112457Y104663D02*
X114203Y102917D01*
X112277Y104136D02*
X113676Y102737D01*
X115829Y105245D02*
X117325Y103749D01*
X116644Y105137D02*
X117217Y104564D01*
X115337Y105030D02*
X117110Y103257D01*
X114997Y104663D02*
X116743Y102917D01*
X114817Y104136D02*
X116216Y102737D01*
X133609Y105245D02*
X135105Y103749D01*
X134424Y105137D02*
X134997Y104564D01*
X133117Y105030D02*
X134890Y103257D01*
X132777Y104663D02*
X134523Y102917D01*
X132597Y104136D02*
X133996Y102737D01*
X176000Y169000D02*
X178500D01*
Y163000*
X176000*
Y169000*
Y166156D02*
X178500Y168656D01*
X176000Y165449D02*
X178500Y167949D01*
X176000Y164741D02*
X178500Y167241D01*
X176000Y164034D02*
X178500Y166534D01*
X176000Y163327D02*
X178500Y165827D01*
X176379Y163000D02*
X178500Y165120D01*
X177086Y163000D02*
X178500Y164413D01*
X177793Y163000D02*
X178500Y163706D01*
X176000Y166863D02*
X178136Y169000D01*
X176000Y167570D02*
X177429Y169000D01*
X176000Y168277D02*
X176722Y169000D01*
X176000Y168984D02*
X176015Y169000D01*
X178484D02*
X178500Y168984D01*
X177777Y169000D02*
X178500Y168277D01*
X177070Y169000D02*
X178500Y167570D01*
X176363Y169000D02*
X178500Y166863D01*
X176000Y168656D02*
X178500Y166156D01*
X176000Y167949D02*
X178500Y165449D01*
X176000Y167241D02*
X178500Y164741D01*
X176000Y166534D02*
X178500Y164034D01*
X176000Y165827D02*
X178500Y163327D01*
X176000Y165120D02*
X178120Y163000D01*
X176000Y164413D02*
X177413Y163000D01*
X176000Y163706D02*
X176706Y163000D01*
G54D157*
X101636Y92500D02*
Y89875D01*
X101000Y92500D02*
X102272D01*
X103090D02*
Y89875D01*
Y92500D02*
X103818Y89875D01*
X104545Y92500D02*
X103818Y89875D01*
X104545Y92500D02*
Y89875D01*
X106727Y91875D02*
X106636Y92125D01*
X106454Y92375*
X106454D02*
X106272Y92500D01*
X106272D02*
X105909D01*
X105727Y92375*
X105545Y92125*
X105454Y91875*
X105454D02*
X105363Y91500D01*
X105363D02*
Y90875D01*
X105363D02*
X105454Y90500D01*
X105454D02*
X105545Y90250D01*
X105727Y90000*
X105909Y89875*
X106272*
X106272D02*
X106454Y90000D01*
X106454D02*
X106636Y90250D01*
X106727Y90500*
X108727Y92500D02*
X107818D01*
X107727Y91375*
X107818Y91500*
X108090Y91625*
X108090D02*
X108363D01*
X108363D02*
X108636Y91500D01*
X108818Y91250*
X108909Y90875*
X108818Y90625*
X108727Y90250*
X108545Y90000*
X108272Y89875*
X108272D02*
X108000D01*
X107727Y90000*
X107636Y90125*
X107545Y90375*
X109727Y92000D02*
X109909Y92125D01*
X110181Y92500*
X110181D02*
Y89875D01*
X112090Y92125D02*
X112000Y92375D01*
X111727Y92500*
X111545*
X111272Y92375*
X111272D02*
X111090Y92000D01*
X111090D02*
X111000Y91375D01*
Y90750*
X111090Y90250*
X111090D02*
X111272Y90000D01*
X111272D02*
X111545Y89875D01*
X111636*
X111909Y90000*
X112090Y90250*
X112090D02*
X112181Y90625D01*
X112181D02*
Y90750D01*
X112181D02*
X112090Y91125D01*
X112090D02*
X111909Y91375D01*
X111636Y91500*
X111545*
X111272Y91375*
X111272D02*
X111090Y91125D01*
X111090D02*
X111000Y90750D01*
X113545Y92500D02*
X113272Y92375D01*
X113272D02*
X113090Y92000D01*
X113090D02*
X113000Y91375D01*
Y91000*
X113090Y90375*
X113090D02*
X113272Y90000D01*
X113272D02*
X113545Y89875D01*
X113727*
X114000Y90000*
X114181Y90375*
X114181D02*
X114272Y91000D01*
X114272D02*
Y91375D01*
X114272D02*
X114181Y92000D01*
X114181D02*
X114000Y92375D01*
X113727Y92500*
X113545*
X115090Y91000D02*
X116727D01*
X117545Y92500D02*
Y89875D01*
Y92500D02*
X118727D01*
X117545Y91250D02*
X118272D01*
X117545Y89875D02*
X118727D01*
X119545Y92500D02*
X120272Y89875D01*
X121000Y92500D02*
X120272Y89875D01*
X122545Y92500D02*
X121818Y89875D01*
X122545Y92500D02*
X123272Y89875D01*
X122090Y90750D02*
X123000D01*
X124090Y92500D02*
Y89875D01*
X124090D02*
X125181D01*
X128090Y92500D02*
X128818Y89875D01*
X129545Y92500D02*
X128818Y89875D01*
X130545Y92500D02*
X131545D01*
X131000Y91500*
X131272*
X131272D02*
X131454Y91375D01*
X131454D02*
X131545Y91250D01*
X131636Y90875*
Y90625*
X131545Y90250*
X131363Y90000*
X131363D02*
X131090Y89875D01*
X131090D02*
X130818D01*
X130545Y90000*
X130454Y90125*
X130454D02*
X130363Y90375D01*
X132545Y90125D02*
X132454Y90000D01*
X132454D02*
X132545Y89875D01*
X132636Y90000*
X132545Y90125*
X133454Y92000D02*
X133636Y92125D01*
X133909Y92500*
Y89875*
X143181Y91875D02*
Y92000D01*
X143181D02*
X143272Y92250D01*
X143272D02*
X143363Y92375D01*
X143363D02*
X143545Y92500D01*
X143909*
X144090Y92375*
X144090D02*
X144181Y92250D01*
X144181D02*
X144272Y92000D01*
X144272D02*
Y91750D01*
X144272D02*
X144181Y91500D01*
X144181D02*
X144000Y91125D01*
X143090Y89875*
X143090D02*
X144363D01*
X146363Y91625D02*
X146272Y91250D01*
X146272D02*
X146090Y91000D01*
X146090D02*
X145818Y90875D01*
X145727*
X145454Y91000*
X145454D02*
X145272Y91250D01*
X145272D02*
X145181Y91625D01*
X145181D02*
Y91750D01*
X145181D02*
X145272Y92125D01*
X145272D02*
X145454Y92375D01*
X145454D02*
X145727Y92500D01*
X145818*
X146090Y92375*
X146090D02*
X146272Y92125D01*
X146272D02*
X146363Y91625D01*
X146363D02*
Y91000D01*
X146363D02*
X146272Y90375D01*
X146272D02*
X146090Y90000D01*
X146090D02*
X145818Y89875D01*
X145636*
X145363Y90000*
X145363D02*
X145272Y90250D01*
X147272Y90125D02*
X147181Y90000D01*
X147181D02*
X147272Y89875D01*
X147272D02*
X147363Y90000D01*
X147363D02*
X147272Y90125D01*
X148181Y92000D02*
X148363Y92125D01*
X148363D02*
X148636Y92500D01*
Y89875*
X149545Y91875D02*
Y92000D01*
X149636Y92250*
X149727Y92375*
X149909Y92500*
X150272*
X150272D02*
X150454Y92375D01*
X150454D02*
X150545Y92250D01*
X150636Y92000*
Y91750*
X150545Y91500*
X150363Y91125*
X150363D02*
X149454Y89875D01*
X149454D02*
X150727D01*
X151636Y90125D02*
X151545Y90000D01*
X151636Y89875*
X151727Y90000*
X151636Y90125*
X152636Y91875D02*
Y92000D01*
X152727Y92250*
X152818Y92375*
X153000Y92500*
X153363*
X153363D02*
X153545Y92375D01*
X153636Y92250*
X153727Y92000*
Y91750*
X153636Y91500*
X153454Y91125*
X153454D02*
X152545Y89875D01*
X153818*
X155181Y92500D02*
X154909Y92375D01*
X154727Y92000*
X154636Y91375*
Y91000*
X154727Y90375*
X154909Y90000*
X155181Y89875*
X155181D02*
X155363D01*
X155363D02*
X155636Y90000D01*
X155818Y90375*
X155909Y91000*
Y91375*
X155818Y92000*
X155636Y92375*
X155363Y92500*
X155363D02*
X155181D01*
X156727Y92000D02*
X156909Y92125D01*
X157181Y92500*
X157181D02*
Y89875D01*
X159272Y92500D02*
X158363Y89875D01*
X158000Y92500D02*
X159272D01*
G54D166*
X100000Y104000D02*
G03X104000Y100000I4000J0D01*
G01X175000*
G03X179000Y104000I0J4000*
G01Y181000*
G03X175000Y185000I-4000J0*
G01X104000*
G03X100000Y181000I0J-4000*
G01Y104000*
X99350Y93000D02*
X86650D01*
X93000Y99350D02*
Y86650D01*
X94905Y93000D02*
X93000Y94905D01*
X91095Y93000*
X93000Y91095*
X94905Y93000*
X96175D02*
X93000Y96175D01*
X89825Y93000*
X93000Y89825*
X96175Y93000*
X97445D02*
X93000Y97445D01*
X88555Y93000*
X93000Y88555*
X97445Y93000*
X99350Y192000D02*
X86650D01*
X93000Y198350D02*
Y185650D01*
X94905Y192000D02*
X93000Y193905D01*
X91095Y192000*
X93000Y190095*
X94905Y192000*
X96175D02*
X93000Y195175D01*
X89825Y192000*
X93000Y188825*
X96175Y192000*
X97445D02*
X93000Y196445D01*
X88555Y192000*
X93000Y187555*
X97445Y192000*
X192350D02*
X179650D01*
X186000Y198350D02*
Y185650D01*
X187905Y192000D02*
X186000Y193905D01*
X184095Y192000*
X186000Y190095*
X187905Y192000*
X189175D02*
X186000Y195175D01*
X182825Y192000*
X186000Y188825*
X189175Y192000*
X190445D02*
X186000Y196445D01*
X181555Y192000*
X186000Y187555*
X190445Y192000*
G54D200*
G74*
X0Y0D02*
M02*
