G04*
G04 #@! TF.GenerationSoftware,Altium Limited,Altium Designer,22.1.2 (22)*
G04*
G04 Layer_Color=255*
%FSLAX25Y25*%
%MOIN*%
G70*
G04*
G04 #@! TF.SameCoordinates,718D4045-E2B1-425D-88C3-508A2C93E544*
G04*
G04*
G04 #@! TF.FilePolarity,Positive*
G04*
G01*
G75*
%ADD27R,0.03000X0.03500*%
%ADD29R,0.03500X0.03000*%
%ADD32R,0.10984X0.10118*%
%ADD35R,0.03622X0.03228*%
%ADD42R,0.04000X0.06000*%
%ADD257C,0.22835*%
%ADD258R,0.06260X0.06260*%
%ADD259C,0.06260*%
%ADD260R,0.10394X0.10394*%
%ADD261C,0.10394*%
%ADD262C,0.03937*%
%ADD263C,0.07087*%
%ADD264C,0.11811*%
%ADD279R,0.13386X0.06299*%
%ADD280R,0.03150X0.03150*%
%ADD281R,0.07874X0.04331*%
%ADD282R,0.01181X0.03898*%
%ADD283R,0.03898X0.01181*%
%ADD284R,0.01614X0.06299*%
%ADD285R,0.01457X0.01063*%
%ADD286R,0.07874X0.02362*%
%ADD287R,0.07000X0.06000*%
%ADD288R,0.03150X0.10630*%
%ADD289R,0.01800X0.02500*%
%ADD290R,0.03937X0.02362*%
%ADD291R,0.06102X0.01378*%
%ADD292R,0.03228X0.03622*%
%ADD293R,0.04724X0.04724*%
%ADD294R,0.04724X0.10630*%
%ADD295R,0.03150X0.04331*%
%ADD296R,0.02362X0.08661*%
%ADD297R,0.09843X0.06693*%
G04:AMPARAMS|DCode=298|XSize=98.43mil|YSize=66.93mil|CornerRadius=0mil|HoleSize=0mil|Usage=FLASHONLY|Rotation=315.000|XOffset=0mil|YOffset=0mil|HoleType=Round|Shape=Rectangle|*
%AMROTATEDRECTD298*
4,1,4,-0.05846,0.01114,-0.01114,0.05846,0.05846,-0.01114,0.01114,-0.05846,-0.05846,0.01114,0.0*
%
%ADD298ROTATEDRECTD298*%

%ADD299R,0.06102X0.02362*%
%ADD300R,0.02500X0.01800*%
%ADD301R,0.07874X0.09843*%
%ADD302R,0.06339X0.02284*%
%ADD303R,0.02362X0.00984*%
%ADD304R,0.10236X0.11811*%
%ADD305R,0.08661X0.19685*%
%ADD306R,0.01772X0.01181*%
%ADD307R,0.03937X0.06299*%
D27*
X-74000Y152100D02*
D03*
X-80000D02*
D03*
X56100Y218200D02*
D03*
X62100D02*
D03*
X45500Y208200D02*
D03*
X51500D02*
D03*
X45500Y213300D02*
D03*
X51500D02*
D03*
X-58271Y193700D02*
D03*
X-52271D02*
D03*
X59900Y16300D02*
D03*
X65900D02*
D03*
X53200Y22800D02*
D03*
X59200D02*
D03*
X-58271Y198669D02*
D03*
X-52271D02*
D03*
X-58271Y203637D02*
D03*
X-52271D02*
D03*
X-98172Y215300D02*
D03*
X-92172D02*
D03*
X-87500D02*
D03*
X-81500D02*
D03*
X58000Y187300D02*
D03*
X64000D02*
D03*
X58000Y182500D02*
D03*
X64000D02*
D03*
X51500Y203237D02*
D03*
X45500D02*
D03*
X28000Y11500D02*
D03*
X22000D02*
D03*
X32500D02*
D03*
X38500D02*
D03*
X51500Y218300D02*
D03*
X45500D02*
D03*
X76400Y75600D02*
D03*
X82400D02*
D03*
X35500Y70000D02*
D03*
X41500D02*
D03*
X-75072Y193037D02*
D03*
X-81072D02*
D03*
X-64400Y193100D02*
D03*
X-70400D02*
D03*
X-29372Y204937D02*
D03*
X-23371D02*
D03*
D29*
X-96300Y117200D02*
D03*
Y111200D02*
D03*
X-94300Y42600D02*
D03*
Y36600D02*
D03*
X5600Y132500D02*
D03*
Y126500D02*
D03*
Y162900D02*
D03*
Y156900D02*
D03*
X58500Y156100D02*
D03*
X42900D02*
D03*
Y133100D02*
D03*
Y127100D02*
D03*
Y162100D02*
D03*
X58500Y133100D02*
D03*
Y127100D02*
D03*
Y162100D02*
D03*
X-58900Y32900D02*
D03*
Y26900D02*
D03*
X-54300Y47900D02*
D03*
Y41900D02*
D03*
X-92400Y192300D02*
D03*
Y186300D02*
D03*
X-45871Y241037D02*
D03*
Y235037D02*
D03*
X300Y225500D02*
D03*
Y219500D02*
D03*
X51800Y223800D02*
D03*
Y229800D02*
D03*
X5250Y225500D02*
D03*
Y219500D02*
D03*
X10200D02*
D03*
Y225500D02*
D03*
X-50836Y241137D02*
D03*
Y235137D02*
D03*
X-55800D02*
D03*
Y241137D02*
D03*
X-92400Y181500D02*
D03*
Y175500D02*
D03*
X-87300D02*
D03*
Y181500D02*
D03*
X-94500Y60600D02*
D03*
Y54600D02*
D03*
X-54272Y208337D02*
D03*
Y214337D02*
D03*
X-49272Y208337D02*
D03*
Y214337D02*
D03*
X-14972Y201737D02*
D03*
Y195737D02*
D03*
X-33171Y197337D02*
D03*
Y191337D02*
D03*
X-72471Y215137D02*
D03*
Y221137D02*
D03*
X86028Y191737D02*
D03*
Y197737D02*
D03*
D32*
X19800Y186600D02*
D03*
X45154D02*
D03*
D35*
X-65409Y98615D02*
D03*
X-57535Y102355D02*
D03*
Y94875D02*
D03*
D42*
X-94100Y151000D02*
D03*
X-86100D02*
D03*
X-94100Y143400D02*
D03*
X-86100D02*
D03*
D257*
X-14200Y76789D02*
D03*
Y105135D02*
D03*
X-14700Y178694D02*
D03*
Y150347D02*
D03*
D258*
X125700Y112272D02*
D03*
D259*
Y122114D02*
D03*
Y131957D02*
D03*
Y141799D02*
D03*
D260*
X117000Y103732D02*
D03*
D261*
Y119323D02*
D03*
Y134913D02*
D03*
Y150504D02*
D03*
D262*
X-65799Y27678D02*
D03*
Y46576D02*
D03*
X-48870Y27678D02*
D03*
Y46576D02*
D03*
D263*
X-39000Y108919D02*
D03*
Y98919D02*
D03*
Y88919D02*
D03*
Y78919D02*
D03*
X-49000Y113919D02*
D03*
Y103919D02*
D03*
Y93919D02*
D03*
Y83919D02*
D03*
X-39000Y171680D02*
D03*
Y161680D02*
D03*
Y151680D02*
D03*
Y141680D02*
D03*
X-49000Y176680D02*
D03*
Y166680D02*
D03*
Y156680D02*
D03*
Y146680D02*
D03*
D264*
X0Y255906D02*
D03*
X110810Y191929D02*
D03*
X-110810D02*
D03*
Y63976D02*
D03*
X110810D02*
D03*
X0Y0D02*
D03*
D279*
X23086Y80705D02*
D03*
Y106295D02*
D03*
X7028Y80705D02*
D03*
Y106295D02*
D03*
D280*
X-94600Y136400D02*
D03*
X70060Y186800D02*
D03*
X58060Y244500D02*
D03*
D281*
X-87120Y136400D02*
D03*
X77540Y186800D02*
D03*
X65540Y244500D02*
D03*
D282*
X-91469Y111731D02*
D03*
X-89500D02*
D03*
X-87532D02*
D03*
Y118069D02*
D03*
X-89500D02*
D03*
X-91469D02*
D03*
D283*
X-84531Y86068D02*
D03*
Y84100D02*
D03*
Y82131D02*
D03*
X-90869D02*
D03*
Y84100D02*
D03*
Y86068D02*
D03*
D284*
X-80100Y38140D02*
D03*
X-77600D02*
D03*
X-90100D02*
D03*
X-87600D02*
D03*
X-85100D02*
D03*
X-82600D02*
D03*
X-75100D02*
D03*
X-72600D02*
D03*
Y59400D02*
D03*
X-75100D02*
D03*
X-77600D02*
D03*
X-80100D02*
D03*
X-82600D02*
D03*
X-85100D02*
D03*
X-87600D02*
D03*
X-90100D02*
D03*
D285*
X-75100Y30917D02*
D03*
Y33083D02*
D03*
D286*
X84507Y69600D02*
D03*
Y64600D02*
D03*
Y59600D02*
D03*
Y54600D02*
D03*
Y49600D02*
D03*
Y44600D02*
D03*
Y39600D02*
D03*
Y34600D02*
D03*
X47893D02*
D03*
Y39600D02*
D03*
Y44600D02*
D03*
Y49600D02*
D03*
Y54600D02*
D03*
Y59600D02*
D03*
Y64600D02*
D03*
Y69600D02*
D03*
D287*
X59000Y236800D02*
D03*
Y226800D02*
D03*
D288*
X-89272Y161500D02*
D03*
X-98328D02*
D03*
D289*
X-88150Y169900D02*
D03*
X-84450D02*
D03*
X-96222Y208437D02*
D03*
X-92522D02*
D03*
X-87172Y219837D02*
D03*
X-90872D02*
D03*
D290*
X-83124Y165040D02*
D03*
Y161300D02*
D03*
Y157560D02*
D03*
X-73676D02*
D03*
Y161300D02*
D03*
Y165040D02*
D03*
D291*
X-72693Y90938D02*
D03*
Y93497D02*
D03*
Y96056D02*
D03*
Y98615D02*
D03*
Y101174D02*
D03*
Y103733D02*
D03*
Y106292D02*
D03*
X-94740Y90938D02*
D03*
Y93497D02*
D03*
Y96056D02*
D03*
Y98615D02*
D03*
Y101174D02*
D03*
Y103733D02*
D03*
Y106292D02*
D03*
D292*
X-65240Y149563D02*
D03*
X-57760D02*
D03*
X-61500Y157437D02*
D03*
D293*
X65400Y163609D02*
D03*
Y152586D02*
D03*
X49800Y163612D02*
D03*
Y152588D02*
D03*
X12400Y163013D02*
D03*
Y151989D02*
D03*
X12403Y121688D02*
D03*
Y132712D02*
D03*
X65398Y122788D02*
D03*
Y133812D02*
D03*
X49800Y122900D02*
D03*
Y133924D02*
D03*
D294*
X-42323Y41072D02*
D03*
Y21780D02*
D03*
X37323Y41072D02*
D03*
Y21780D02*
D03*
D295*
X22500Y20599D02*
D03*
X17500D02*
D03*
X7500D02*
D03*
X2500D02*
D03*
X-2500D02*
D03*
X-7500D02*
D03*
X-12500D02*
D03*
X-17500D02*
D03*
X-22500D02*
D03*
X-27500D02*
D03*
X27500D02*
D03*
X12500D02*
D03*
X-32500D02*
D03*
Y42253D02*
D03*
X-27500D02*
D03*
X-22500D02*
D03*
X-17500D02*
D03*
X-12500D02*
D03*
X-7500D02*
D03*
X-2500D02*
D03*
X2500D02*
D03*
X7500D02*
D03*
X12500D02*
D03*
X17500D02*
D03*
X22500D02*
D03*
X27500D02*
D03*
D296*
X32000Y117800D02*
D03*
X74800Y151864D02*
D03*
X84800Y117800D02*
D03*
X22000Y151864D02*
D03*
X37000Y138272D02*
D03*
X32000D02*
D03*
X27000D02*
D03*
X22000D02*
D03*
Y117800D02*
D03*
X27000D02*
D03*
X37000D02*
D03*
Y151864D02*
D03*
X32000D02*
D03*
X27000D02*
D03*
X22000Y172336D02*
D03*
X27000D02*
D03*
X32000D02*
D03*
X37000D02*
D03*
X89800Y117800D02*
D03*
X79800D02*
D03*
X74800D02*
D03*
Y138272D02*
D03*
X79800D02*
D03*
X84800D02*
D03*
X89800D02*
D03*
Y151864D02*
D03*
X84800D02*
D03*
X79800D02*
D03*
X74800Y172336D02*
D03*
X79800D02*
D03*
X84800D02*
D03*
X89800D02*
D03*
D297*
X37200Y227300D02*
D03*
X21452D02*
D03*
X-59548Y226600D02*
D03*
X-43800D02*
D03*
D298*
X96668Y209332D02*
D03*
X85532Y220468D02*
D03*
D299*
X79058Y207737D02*
D03*
Y202737D02*
D03*
Y197737D02*
D03*
Y192737D02*
D03*
X57799D02*
D03*
Y197737D02*
D03*
Y202737D02*
D03*
Y207737D02*
D03*
D300*
X10200Y213450D02*
D03*
Y209750D02*
D03*
X-86900Y205100D02*
D03*
Y208800D02*
D03*
X-58772Y209637D02*
D03*
Y213337D02*
D03*
D301*
X26653Y211000D02*
D03*
D302*
X16200Y218500D02*
D03*
Y213500D02*
D03*
Y208500D02*
D03*
Y203500D02*
D03*
X37106D02*
D03*
Y208500D02*
D03*
Y213500D02*
D03*
Y218500D02*
D03*
D303*
X-66071Y209074D02*
D03*
Y207106D02*
D03*
Y205137D02*
D03*
Y203169D02*
D03*
Y201200D02*
D03*
Y199232D02*
D03*
X-81032D02*
D03*
Y201200D02*
D03*
Y203169D02*
D03*
Y205137D02*
D03*
Y207106D02*
D03*
Y209074D02*
D03*
D304*
X-73552Y204153D02*
D03*
D305*
X49400Y244100D02*
D03*
X34833D02*
D03*
D306*
X-21071Y199855D02*
D03*
Y197296D02*
D03*
Y194737D02*
D03*
X-28749D02*
D03*
Y197296D02*
D03*
Y199855D02*
D03*
D307*
X-24910Y197296D02*
D03*
M02*
