G04*
G04 #@! TF.GenerationSoftware,Altium Limited,Altium Designer,22.1.2 (22)*
G04*
G04 Layer_Physical_Order=4*
G04 Layer_Color=16711680*
%FSLAX25Y25*%
%MOIN*%
G70*
G04*
G04 #@! TF.SameCoordinates,718D4045-E2B1-425D-88C3-508A2C93E544*
G04*
G04*
G04 #@! TF.FilePolarity,Positive*
G04*
G01*
G75*
%ADD11C,0.01000*%
%ADD13C,0.00800*%
%ADD27R,0.03000X0.03500*%
%ADD29R,0.03500X0.03000*%
%ADD32R,0.10984X0.10118*%
%ADD35R,0.03622X0.03228*%
%ADD42R,0.04000X0.06000*%
%ADD91C,0.00800*%
%ADD98C,0.03000*%
%ADD99C,0.05000*%
%ADD100C,0.01200*%
%ADD101C,0.02500*%
%ADD102C,0.04000*%
%ADD103C,0.02200*%
%ADD105C,0.02000*%
%ADD189R,0.10300X0.03000*%
%ADD257C,0.22835*%
%ADD258R,0.06260X0.06260*%
%ADD259C,0.06260*%
%ADD260R,0.10394X0.10394*%
%ADD261C,0.10394*%
%ADD262C,0.03937*%
%ADD263C,0.07087*%
%ADD264C,0.11811*%
%ADD265C,0.02362*%
%ADD279R,0.13386X0.06299*%
%ADD280R,0.03150X0.03150*%
%ADD281R,0.07874X0.04331*%
%ADD282R,0.01181X0.03898*%
%ADD283R,0.03898X0.01181*%
%ADD284R,0.01614X0.06299*%
%ADD285R,0.01457X0.01063*%
%ADD286R,0.07874X0.02362*%
%ADD287R,0.07000X0.06000*%
%ADD288R,0.03150X0.10630*%
%ADD289R,0.01800X0.02500*%
%ADD290R,0.03937X0.02362*%
%ADD291R,0.06102X0.01378*%
%ADD292R,0.03228X0.03622*%
%ADD293R,0.04724X0.04724*%
%ADD294R,0.04724X0.10630*%
%ADD295R,0.03150X0.04331*%
%ADD296R,0.02362X0.08661*%
%ADD297R,0.09843X0.06693*%
G04:AMPARAMS|DCode=298|XSize=98.43mil|YSize=66.93mil|CornerRadius=0mil|HoleSize=0mil|Usage=FLASHONLY|Rotation=315.000|XOffset=0mil|YOffset=0mil|HoleType=Round|Shape=Rectangle|*
%AMROTATEDRECTD298*
4,1,4,-0.05846,0.01114,-0.01114,0.05846,0.05846,-0.01114,0.01114,-0.05846,-0.05846,0.01114,0.0*
%
%ADD298ROTATEDRECTD298*%

%ADD299R,0.06102X0.02362*%
%ADD300R,0.02500X0.01800*%
%ADD301R,0.07874X0.09843*%
%ADD302R,0.06339X0.02284*%
%ADD303R,0.02362X0.00984*%
%ADD304R,0.10236X0.11811*%
%ADD305R,0.08661X0.19685*%
%ADD306R,0.01772X0.01181*%
%ADD307R,0.03937X0.06299*%
%ADD308C,0.01800*%
%ADD309C,0.01500*%
%ADD310R,0.22086X0.10200*%
%ADD311R,0.03850X0.06000*%
%ADD312R,0.24854X0.21700*%
%ADD313R,0.04337X0.12200*%
%ADD314R,0.09200X0.06100*%
%ADD315R,0.07394X0.07800*%
%ADD316R,0.04802X0.08750*%
%ADD317R,0.10100X0.18400*%
%ADD318R,0.03250X0.05300*%
%ADD319R,0.03929X0.03897*%
%ADD320R,0.03972X0.13200*%
%ADD321R,0.03152X0.04066*%
%ADD322R,0.09878X0.06300*%
%ADD323R,0.22971X0.71100*%
%ADD324R,0.23882X0.17509*%
%ADD325R,0.26600X0.06035*%
%ADD326R,0.06800X0.16200*%
%ADD327R,0.21600X0.13259*%
%ADD328R,0.08600X0.15600*%
%ADD329R,0.11000X0.04200*%
%ADD330R,0.13651X0.11400*%
%ADD331R,0.49800X0.06763*%
%ADD332R,0.10200X0.04537*%
%ADD333R,0.08750X0.02400*%
%ADD334R,0.30400X0.07300*%
%ADD335R,0.28100X0.06481*%
%ADD336R,0.34800X0.17400*%
%ADD337R,0.04504X0.09600*%
%ADD338R,0.07460X0.10111*%
%ADD339R,0.07874X0.03181*%
%ADD340R,0.02500X0.02474*%
%ADD341R,0.08814X0.04181*%
%ADD342R,0.08358X0.02800*%
%ADD343R,0.04189X0.01322*%
%ADD344R,0.04385X0.06300*%
%ADD345R,0.07675X0.06200*%
%ADD346R,0.01714X0.06299*%
%ADD347R,0.08980X0.02227*%
%ADD348R,0.03880X0.06149*%
%ADD349R,0.04268X0.06300*%
%ADD350R,0.04268X0.07591*%
%ADD351R,0.07007X0.03909*%
%ADD352R,0.02828X0.04049*%
%ADD353R,0.06757X0.03110*%
%ADD354R,0.09600X0.05800*%
%ADD355R,0.04479X0.13645*%
%ADD356R,0.03200X0.14000*%
%ADD357R,0.18900X0.06300*%
%ADD358R,0.15283X0.08040*%
%ADD359R,0.04826X0.09351*%
%ADD360R,0.09351X0.03900*%
%ADD361R,0.07800X0.23500*%
%ADD362R,0.26700X0.07800*%
%ADD363R,0.05400X0.24200*%
%ADD364R,0.22500X0.17600*%
%ADD365R,0.06993X0.05541*%
%ADD366R,0.15800X0.09200*%
%ADD367R,0.07800X0.07500*%
%ADD368R,0.05250X0.03900*%
%ADD369R,0.04700X0.20500*%
%ADD370R,0.16350X0.03314*%
%ADD371R,0.28300X0.04600*%
%ADD372R,0.07600X0.10800*%
%ADD373R,0.04300X0.07400*%
%ADD374R,0.07300X0.08700*%
%ADD375R,0.04400X0.12300*%
%ADD376R,0.04900X0.32700*%
%ADD377R,0.05000X0.15465*%
%ADD378R,0.25800X0.03573*%
%ADD379R,0.18000X0.04472*%
%ADD380R,0.15800X0.22100*%
G04:AMPARAMS|DCode=381|XSize=53.03mil|YSize=106.77mil|CornerRadius=0mil|HoleSize=0mil|Usage=FLASHONLY|Rotation=315.000|XOffset=0mil|YOffset=0mil|HoleType=Round|Shape=Rectangle|*
%AMROTATEDRECTD381*
4,1,4,-0.05650,-0.01900,0.01900,0.05650,0.05650,0.01900,-0.01900,-0.05650,-0.05650,-0.01900,0.0*
%
%ADD381ROTATEDRECTD381*%

%ADD382R,0.05300X0.04100*%
%ADD383R,0.11400X0.05500*%
%ADD384R,0.02286X0.08884*%
%ADD385R,0.05500X0.07600*%
G04:AMPARAMS|DCode=386|XSize=33.23mil|YSize=82.02mil|CornerRadius=0mil|HoleSize=0mil|Usage=FLASHONLY|Rotation=135.000|XOffset=0mil|YOffset=0mil|HoleType=Round|Shape=Rectangle|*
%AMROTATEDRECTD386*
4,1,4,0.04075,0.01725,-0.01725,-0.04075,-0.04075,-0.01725,0.01725,0.04075,0.04075,0.01725,0.0*
%
%ADD386ROTATEDRECTD386*%

%ADD387R,0.02286X0.09584*%
%ADD388R,0.04100X0.07400*%
%ADD389R,0.02273X0.03900*%
%ADD390R,0.03700X0.18900*%
%ADD391R,0.12300X0.02300*%
%ADD392R,0.02000X0.15764*%
G04:AMPARAMS|DCode=393|XSize=39.46mil|YSize=86.27mil|CornerRadius=0mil|HoleSize=0mil|Usage=FLASHONLY|Rotation=45.000|XOffset=0mil|YOffset=0mil|HoleType=Round|Shape=Rectangle|*
%AMROTATEDRECTD393*
4,1,4,0.01655,-0.04445,-0.04445,0.01655,-0.01655,0.04445,0.04445,-0.01655,0.01655,-0.04445,0.0*
%
%ADD393ROTATEDRECTD393*%

%ADD394R,0.10000X0.01900*%
%ADD395R,0.03207X0.08044*%
%ADD396R,0.03100X0.11400*%
%ADD397R,0.14500X0.03800*%
%ADD398R,0.03700X0.03700*%
%ADD399R,0.03400X0.07558*%
%ADD400R,0.08500X0.02900*%
%ADD401R,0.05001X0.08878*%
%ADD402R,0.03400X0.09281*%
%ADD403R,0.06200X0.06923*%
%ADD404R,0.03400X0.07198*%
%ADD405R,0.03400X0.07500*%
%ADD406R,0.03400X0.07198*%
%ADD407R,0.05581X0.09100*%
%ADD408R,0.05400X0.06874*%
%ADD409R,0.03700X0.03900*%
%ADD410R,0.03700X0.16100*%
%ADD411R,0.07600X0.03650*%
%ADD412R,0.07400X0.03400*%
%ADD413R,0.04300X0.05900*%
%ADD414R,0.04200X0.07500*%
%ADD415R,0.03500X0.06462*%
%ADD416R,0.12700X0.03600*%
%ADD417R,0.13800X0.13145*%
%ADD418R,0.07200X0.08058*%
%ADD419R,0.07200X0.08500*%
%ADD420R,0.25000X0.06300*%
%ADD421R,0.14500X0.05800*%
%ADD422R,0.40700X0.07900*%
%ADD423R,0.04800X0.20800*%
%ADD424R,0.02800X0.15300*%
%ADD425R,0.09800X0.04400*%
%ADD426R,0.08700X0.09700*%
%ADD427R,0.13800X0.02900*%
%ADD428R,0.16300X0.09300*%
%ADD429R,0.03600X0.13300*%
%ADD430R,0.04400X0.16157*%
%ADD431R,0.10200X0.17000*%
%ADD432R,0.25300X0.04300*%
%ADD433R,0.31972X0.05363*%
G04:AMPARAMS|DCode=434|XSize=113.14mil|YSize=52.32mil|CornerRadius=0mil|HoleSize=0mil|Usage=FLASHONLY|Rotation=135.000|XOffset=0mil|YOffset=0mil|HoleType=Round|Shape=Rectangle|*
%AMROTATEDRECTD434*
4,1,4,0.05850,-0.02150,0.02150,-0.05850,-0.05850,0.02150,-0.02150,0.05850,0.05850,-0.02150,0.0*
%
%ADD434ROTATEDRECTD434*%

%ADD435R,0.13386X0.10200*%
%ADD436R,0.03500X0.19800*%
%ADD437R,0.26100X0.05200*%
%ADD438R,0.22400X0.03700*%
%ADD439R,0.09600X0.06100*%
%ADD440R,0.14623X0.03800*%
%ADD441R,0.10400X0.04900*%
%ADD442R,0.03300X0.10300*%
%ADD443R,0.04300X0.07300*%
%ADD444R,0.23500X0.04700*%
G04:AMPARAMS|DCode=445|XSize=44.55mil|YSize=89.8mil|CornerRadius=0mil|HoleSize=0mil|Usage=FLASHONLY|Rotation=45.000|XOffset=0mil|YOffset=0mil|HoleType=Round|Shape=Rectangle|*
%AMROTATEDRECTD445*
4,1,4,0.01600,-0.04750,-0.04750,0.01600,-0.01600,0.04750,0.04750,-0.01600,0.01600,-0.04750,0.0*
%
%ADD445ROTATEDRECTD445*%

%ADD446R,0.10000X0.09200*%
%ADD447R,0.86200X0.08900*%
%ADD448R,0.13100X0.20100*%
%ADD449R,0.04700X0.14700*%
%ADD450R,0.04400X0.12900*%
%ADD451R,0.03600X0.12000*%
%ADD452R,0.15269X0.04100*%
%ADD453R,0.10600X0.11100*%
%ADD454R,0.15100X0.18400*%
%ADD455R,0.03600X0.13900*%
%ADD456R,0.07800X0.08900*%
%ADD457R,0.03700X0.15100*%
%ADD458R,0.12800X0.04300*%
%ADD459R,0.08700X0.04600*%
%ADD460R,0.03800X0.10236*%
%ADD461R,0.15000X0.09700*%
G04:AMPARAMS|DCode=462|XSize=169.71mil|YSize=96.86mil|CornerRadius=0mil|HoleSize=0mil|Usage=FLASHONLY|Rotation=135.000|XOffset=0mil|YOffset=0mil|HoleType=Round|Shape=Rectangle|*
%AMROTATEDRECTD462*
4,1,4,0.09425,-0.02576,0.02576,-0.09425,-0.09425,0.02576,-0.02576,0.09425,0.09425,-0.02576,0.0*
%
%ADD462ROTATEDRECTD462*%

%ADD463R,0.07100X0.06487*%
%ADD464R,0.03072X0.07422*%
%ADD465R,0.10900X0.04800*%
%ADD466R,0.03800X0.09900*%
%ADD467R,0.09400X0.05000*%
%ADD468R,0.14700X0.06400*%
%ADD469R,0.11300X0.22200*%
%ADD470R,0.09000X0.05600*%
%ADD471R,0.01900X0.16055*%
%ADD472R,0.09500X0.05000*%
%ADD473R,0.09400X0.21300*%
%ADD474R,0.02900X0.05500*%
%ADD475R,0.10800X0.03700*%
%ADD476R,0.20300X0.08600*%
%ADD477R,0.04800X0.11378*%
%ADD478R,0.21268X0.04600*%
%ADD479R,0.08800X0.03100*%
%ADD480R,0.05800X0.13300*%
%ADD481R,0.03206X0.04400*%
%ADD482R,0.20300X0.04300*%
%ADD483R,0.06200X0.15700*%
%ADD484R,0.06400X0.04200*%
%ADD485R,0.10000X0.05500*%
%ADD486R,0.03800X0.14300*%
%ADD487R,0.09400X0.04000*%
%ADD488R,0.07300X0.06900*%
%ADD489R,0.12200X0.03700*%
%ADD490R,0.06600X0.09300*%
%ADD491R,0.04200X0.13563*%
%ADD492R,0.12117X0.37000*%
%ADD493R,0.13673X0.15200*%
%ADD494R,0.04400X0.09500*%
%ADD495R,0.05200X0.12900*%
%ADD496R,0.04100X0.14300*%
%ADD497R,0.08400X0.14300*%
%ADD498R,0.04100X0.16300*%
%ADD499R,0.05300X0.16600*%
%ADD500R,0.15700X0.14300*%
%ADD501R,0.09800X0.08196*%
%ADD502R,0.10500X0.11900*%
%ADD503R,0.04900X0.14300*%
%ADD504R,0.09900X0.08700*%
%ADD505R,0.15300X0.09704*%
%ADD506R,0.12900X0.08900*%
%ADD507R,0.14300X0.05604*%
%ADD508R,0.17900X0.06400*%
%ADD509R,0.12200X0.10000*%
%ADD510R,0.35500X0.06000*%
%ADD511R,0.15800X0.06000*%
%ADD512R,0.13800X0.17400*%
%ADD513R,0.14700X0.09237*%
%ADD514R,0.14500X0.03600*%
%ADD515R,0.14100X0.08400*%
%ADD516R,0.04800X0.03600*%
G04:AMPARAMS|DCode=517|XSize=163.34mil|YSize=183.14mil|CornerRadius=0mil|HoleSize=0mil|Usage=FLASHONLY|Rotation=135.000|XOffset=0mil|YOffset=0mil|HoleType=Round|Shape=Rectangle|*
%AMROTATEDRECTD517*
4,1,4,0.12250,0.00700,-0.00700,-0.12250,-0.12250,-0.00700,0.00700,0.12250,0.12250,0.00700,0.0*
%
%ADD517ROTATEDRECTD517*%

%ADD518R,0.08329X0.02900*%
%ADD519R,0.11000X0.09700*%
%ADD520R,0.05400X0.10900*%
%ADD521R,0.10300X0.08237*%
%ADD522R,0.14000X0.08700*%
%ADD523R,0.06029X0.17763*%
%ADD524R,0.10278X0.05850*%
%ADD525R,0.05472X0.18437*%
%ADD526R,0.09871X0.11200*%
%ADD527R,0.03000X0.09300*%
%ADD528R,0.04200X0.06300*%
%ADD529R,0.04572X0.08400*%
%ADD530R,0.18472X0.04200*%
%ADD531R,0.21000X0.04600*%
%ADD532R,0.27700X0.03963*%
%ADD533R,0.36629X0.03800*%
G36*
X59700Y254100D02*
Y249147D01*
X43900D01*
Y257078D01*
X53085D01*
X59700Y254100D01*
D02*
G37*
G36*
X74300Y245931D02*
Y241812D01*
X73945Y241459D01*
X61122Y241547D01*
Y249600D01*
X68523D01*
X74300Y245931D01*
D02*
G37*
G36*
X30600Y202891D02*
X28355Y200645D01*
X22900D01*
X30600Y207126D01*
Y202891D01*
D02*
G37*
G36*
X88800Y201100D02*
X88800Y201100D01*
X88761Y201019D01*
X88740Y200841D01*
X88797Y200671D01*
X88920Y200542D01*
X89000Y200500D01*
X83200Y200500D01*
Y208800D01*
X88800D01*
X88800Y201100D01*
D02*
G37*
G36*
X6800Y181118D02*
X-3300Y181707D01*
Y165900D01*
X-31800D01*
Y183342D01*
X-31333D01*
X-31829Y183371D01*
X-26600Y188600D01*
X6800D01*
Y181118D01*
D02*
G37*
G36*
X102100Y183600D02*
Y178285D01*
X89500D01*
Y191500D01*
X94200D01*
X102100Y183600D01*
D02*
G37*
G36*
X124900Y144600D02*
X105600Y144600D01*
Y156800D01*
X124900D01*
Y144600D01*
D02*
G37*
G36*
X-9500Y143400D02*
X-7222Y145678D01*
X-3218Y145291D01*
X-8899Y140263D01*
X-9179Y138900D01*
X-27100D01*
Y146655D01*
X-9500Y143400D01*
D02*
G37*
G36*
X-78012Y145600D02*
X-83183Y138565D01*
X-88500Y140000D01*
Y154700D01*
X-78012D01*
Y145600D01*
D02*
G37*
G36*
X129000Y133000D02*
Y128600D01*
X108900D01*
Y142900D01*
X119100D01*
X129000Y133000D01*
D02*
G37*
G36*
X18000Y136700D02*
X3297D01*
X2662Y136065D01*
Y128904D01*
X2641Y128873D01*
X2586Y128600D01*
Y125000D01*
X2641Y124727D01*
X2662Y124696D01*
Y118400D01*
Y118100D01*
X-197D01*
X-3300Y121203D01*
Y138596D01*
X3704Y145600D01*
X18000D01*
Y136700D01*
D02*
G37*
G36*
X129000Y123200D02*
X118168Y113900D01*
X109000D01*
Y127209D01*
X129000D01*
Y123200D01*
D02*
G37*
G36*
X-2900Y113600D02*
Y106557D01*
X-15632Y120336D01*
X-10702Y121402D01*
X-2900Y113600D01*
D02*
G37*
G36*
X-89100Y106200D02*
X-90100Y105200D01*
X-98300Y105200D01*
Y108100D01*
Y108500D01*
X-89100D01*
Y106200D01*
D02*
G37*
G36*
X104600Y101800D02*
X78900D01*
Y108200D01*
X104600D01*
Y101800D01*
D02*
G37*
G36*
X-63600Y98600D02*
X-67200D01*
Y105400D01*
X-75800D01*
Y107700D01*
X-63600D01*
Y98600D01*
D02*
G37*
G36*
X131800Y112300D02*
X123500Y104000D01*
X123500Y98400D01*
X111800D01*
Y112800D01*
X120200D01*
X125300Y117900D01*
X131800D01*
X131800Y112300D01*
D02*
G37*
G36*
X-64800Y98000D02*
X-62100Y95300D01*
X-62100Y93500D01*
X-63900D01*
X-68400Y98000D01*
X-64800Y98000D01*
D02*
G37*
G36*
X9682Y78237D02*
X-6301Y62600D01*
X-24335Y62600D01*
X-31800Y69941D01*
Y78700D01*
X9493D01*
X9682Y78237D01*
D02*
G37*
D11*
X-53100Y99600D02*
G03*
X-55855Y102355I-2755J0D01*
G01*
X-53100Y98019D02*
G03*
X-49000Y93919I4100J0D01*
G01*
X69471Y95671D02*
G03*
X72400Y102742I-7071J7071D01*
G01*
X-84660Y202889D02*
G03*
X-84721Y202823I701J-713D01*
G01*
X400Y145667D02*
Y160900D01*
X-5854Y139413D02*
X400Y145667D01*
X-5854Y120634D02*
Y139413D01*
Y120634D02*
X-1000Y115781D01*
X1962Y91438D02*
X20762D01*
X24600Y87600D01*
X-1000Y94400D02*
Y115781D01*
Y94400D02*
X1962Y91438D01*
X64341Y59560D02*
X76800Y47100D01*
X47852Y59560D02*
X64341D01*
X76800Y47100D02*
X91086D01*
X-37300Y57800D02*
Y73200D01*
X-40678Y55381D02*
Y70441D01*
X5421Y131679D02*
X5600D01*
Y132500D01*
X-97531Y82131D02*
X-90869D01*
X-100300Y84900D02*
Y97228D01*
Y84900D02*
X-97531Y82131D01*
X-29822Y191237D02*
X-28749Y192310D01*
X-33072Y191237D02*
X-29822D01*
X-28749Y192310D02*
Y194737D01*
X64900Y91100D02*
X69471Y95671D01*
X-27500Y16781D02*
Y20599D01*
X-18727Y198428D02*
X-18501D01*
X-21071Y197296D02*
X-20981Y197387D01*
X-84368Y203176D02*
X-81040D01*
X-84660Y202889D02*
X-84368Y203176D01*
X-92650Y198950D02*
Y200300D01*
X-82635Y54054D02*
Y59365D01*
X-87755Y48935D02*
X-82635Y54054D01*
X-90136Y50101D02*
X-85100Y55137D01*
X-90136Y45881D02*
Y50101D01*
X64500Y22800D02*
X71733D01*
X77505Y28573D01*
X88227D01*
X58000Y29300D02*
X64500Y22800D01*
X53400Y29300D02*
X58000D01*
X92600Y32946D02*
Y45586D01*
X88227Y28573D02*
X92600Y32946D01*
X91086Y47100D02*
X92600Y45586D01*
X15028Y63800D02*
X47893D01*
X47852Y59560D02*
X47893Y59600D01*
X26653Y211000D02*
X29180Y208472D01*
X-94175Y96075D02*
X-89275D01*
X-88800Y96000D02*
X-88750Y96050D01*
X-89200Y96000D02*
X-88800D01*
X-89275Y96075D02*
X-89200Y96000D01*
X-94707Y103700D02*
X-88800D01*
X-88874Y101174D02*
X-76438Y88738D01*
X-94740Y101174D02*
X-88874D01*
X-76438Y88738D02*
X-69438D01*
X-77800Y103722D02*
X-73079D01*
Y103922D02*
X-72890Y103733D01*
X-94200Y96050D02*
X-94175Y96075D01*
X-77600Y44600D02*
X-73800Y48400D01*
X-77600Y38140D02*
Y44600D01*
X-94740Y93497D02*
X-84497D01*
X-77881Y86881D02*
X-70181D01*
X-84497Y93497D02*
X-77881Y86881D01*
X-63700Y67962D02*
Y80400D01*
X-70181Y86881D02*
X-63700Y80400D01*
X-61300Y66000D02*
Y80600D01*
X-65100Y62200D02*
X-61300Y66000D01*
X-69481Y62181D02*
X-63700Y67962D01*
X-58800Y64469D02*
Y86600D01*
X-60700Y62569D02*
X-58800Y64469D01*
X-69438Y88738D02*
X-61300Y80600D01*
X-85100Y55137D02*
Y59400D01*
X-82635Y59365D02*
X-82600Y59400D01*
X-98913Y98615D02*
X-94740D01*
X-100300Y97228D02*
X-98913Y98615D01*
X-80100Y46700D02*
X-78000Y48800D01*
X-80100Y38140D02*
Y46700D01*
X-61700Y103400D02*
Y142200D01*
Y96597D02*
Y103400D01*
X-57760Y102580D02*
Y149563D01*
X-57535Y102355D02*
X-55855D01*
X-57760Y149563D02*
Y152540D01*
X-85200Y38240D02*
Y46100D01*
X-53100Y98019D02*
Y99600D01*
X-75100Y33083D02*
Y38140D01*
X42600Y161796D02*
Y165000D01*
X72400Y102742D02*
Y124700D01*
X-68256Y96056D02*
X-58800Y86600D01*
X-60772Y203169D02*
X-59772Y202169D01*
Y200837D02*
Y202169D01*
X-66071Y203169D02*
X-60772D01*
X111500Y83900D02*
X125100Y97500D01*
X71561Y83900D02*
X111500D01*
X125100Y97500D02*
Y103700D01*
X67161Y79500D02*
X71561Y83900D01*
X-57637Y94977D02*
X-57535Y94875D01*
X-57817Y95157D02*
X-57637Y94977D01*
X-72693Y96056D02*
X-68256D01*
X-87172Y213001D02*
Y219337D01*
X-88500Y211673D02*
X-87172Y213001D01*
X-65112Y149691D02*
Y152288D01*
X-64000Y153400D01*
X-65240Y149563D02*
X-65112Y149691D01*
X-65240Y145740D02*
Y149563D01*
Y145740D02*
X-61700Y142200D01*
X-64000Y153400D02*
X-59600D01*
X-51320Y161680D01*
X-39000D01*
X-57760Y152540D02*
X-53620Y156680D01*
X-49000D01*
X-60260Y95157D02*
X-57817D01*
X-61700Y96597D02*
X-60260Y95157D01*
X77600Y96400D02*
Y125400D01*
X102546Y130644D02*
X103402Y131500D01*
X77600Y125400D02*
X82844Y130644D01*
X16200Y203500D02*
X16600Y203100D01*
Y201400D02*
Y203100D01*
X9814Y58586D02*
X15028Y63800D01*
X35000Y66600D02*
X35281Y66319D01*
X42116Y19700D02*
X49300D01*
X-22500Y24600D02*
Y24700D01*
Y20599D02*
Y24600D01*
X-57760Y102580D02*
X-57535Y102355D01*
X-83272Y201200D02*
X-81032D01*
X-85307Y202237D02*
X-84721Y202823D01*
X-86872Y197600D02*
X-83272Y201200D01*
X-91300Y197600D02*
X-86872D01*
X-81040Y203176D02*
X-81032Y203169D01*
X-88800Y200500D02*
X-88782Y200518D01*
X-87026D02*
X-85307Y202237D01*
X-88782Y200518D02*
X-87026D01*
X-92650Y198950D02*
X-91300Y197600D01*
X-62545Y196373D02*
Y200545D01*
X-63200Y201200D02*
X-62545Y200545D01*
X-66071Y201200D02*
X-63200D01*
X-66071Y205137D02*
X-63271D01*
X-62471Y205937D02*
Y209837D01*
X-63271Y205137D02*
X-62471Y205937D01*
X125100Y103700D02*
X133200Y111800D01*
Y113700D01*
X95100Y133672D02*
Y136100D01*
X80200Y132500D02*
X93928D01*
X95100Y136100D02*
X99800Y140800D01*
X93928Y132500D02*
X95100Y133672D01*
X72400Y124700D02*
X80200Y132500D01*
X82844Y130644D02*
X102546D01*
X21300Y161796D02*
X42700D01*
X42600Y165000D02*
X43100Y165500D01*
X101700Y138200D02*
X101800D01*
X103250Y139650D02*
Y142700D01*
X101800Y138200D02*
X103250Y139650D01*
X-96222Y208437D02*
X-95927Y208731D01*
X19150Y208450D02*
X20600Y209900D01*
X16200Y218500D02*
X20400D01*
X20600Y218300D01*
X17100Y208450D02*
X19150D01*
X-62545Y196373D02*
X-61596Y195425D01*
X-59527D01*
X-59400Y195298D01*
X-24910Y198387D02*
X-23442Y199855D01*
X-33012Y197296D02*
X-28749D01*
X-33072Y197237D02*
X-33012Y197296D01*
D13*
X69105Y42300D02*
G03*
X71860Y43441I0J3896D01*
G01*
X-75212Y93562D02*
G03*
X-75055Y93497I156J157D01*
G01*
X72333Y13638D02*
G03*
X72390Y13671I-533J962D01*
G01*
X-39000Y98919D02*
G03*
X-43048Y94876I0J-4048D01*
G01*
X-44900Y90400D02*
G03*
X-43048Y94873I-4471J4471D01*
G01*
X-54500Y93200D02*
G03*
X-56175Y94875I-1675J0D01*
G01*
X-54500Y93200D02*
G03*
X-50200Y88900I4300J0D01*
G01*
X-48527Y88900D02*
G03*
X-44900Y90400I6J5121D01*
G01*
X-89500Y107000D02*
Y111731D01*
X-97700Y64800D02*
X-88100Y74400D01*
X-97700Y32926D02*
Y64800D01*
X-88100Y74400D02*
Y81000D01*
X-12500Y42253D02*
Y45800D01*
X14809Y73109D01*
X61191D01*
X-97700Y32926D02*
X-94353Y29579D01*
X64474Y61800D02*
X76674Y49600D01*
X16254Y61800D02*
X64474D01*
X76674Y49600D02*
X84507D01*
X-21794Y43549D02*
X10857Y76200D01*
X63600D01*
X-16725Y43028D02*
Y45149D01*
X-17500Y42253D02*
X-16725Y43028D01*
Y45149D02*
X-2487Y59387D01*
X12009Y74609D02*
X62491D01*
X-2500Y59400D02*
X12409Y74309D01*
X79613Y54687D02*
X84507D01*
X71751Y43441D02*
X71860D01*
X42296Y42300D02*
X69105D01*
X-46500Y56500D02*
X-43100Y53100D01*
X-64000Y56500D02*
X-46500D01*
X-10126Y11500D02*
X-6152Y15474D01*
X-68500Y11500D02*
X-10126D01*
X-6038Y12962D02*
X7960D01*
X-9119Y9881D02*
X-6038Y12962D01*
X-68845Y9881D02*
X-9119D01*
X-84721Y81941D02*
X-84531Y82131D01*
X-88100Y81000D02*
X-87159Y81941D01*
X-84721D01*
X77600Y59500D02*
X84507D01*
X62491Y74609D02*
X77600Y59500D01*
X44700Y4400D02*
X53758D01*
X38200Y-2100D02*
X44700Y4400D01*
X22600Y-2100D02*
X38200D01*
X61191Y73109D02*
X79613Y54687D01*
X47893Y39600D02*
X71800D01*
X51430Y53000D02*
X55348Y49082D01*
X71818D01*
X79100Y41800D01*
X51430Y53000D02*
Y53819D01*
X50649Y54600D02*
X51430Y53819D01*
X-66774Y13000D02*
X-12000D01*
X-63775Y14500D02*
X-15234D01*
X-73137Y23863D02*
X-63775Y14500D01*
X-15234D02*
X-12500Y17234D01*
X-12000Y13000D02*
X-7481Y17519D01*
X-77137Y23363D02*
X-66774Y13000D01*
X-81300Y24300D02*
X-68500Y11500D01*
X-87532Y105882D02*
X-75212Y93562D01*
X-75055Y93497D02*
X-72693D01*
X-75212Y93562D02*
X-75212Y93562D01*
X-7481Y17519D02*
Y20580D01*
X7960Y12962D02*
X17622Y3300D01*
X-85997Y21897D02*
X-68845Y9881D01*
X17622Y3300D02*
X17900D01*
X18000Y3200D01*
X40856D01*
X38656Y49000D02*
X41300Y46356D01*
X13149Y49000D02*
X38656D01*
X10909Y46760D02*
X13149Y49000D01*
X57500Y32700D02*
X59281Y30919D01*
X57500Y32700D02*
Y32760D01*
X59281Y30919D02*
X88311D01*
X91000Y33608D01*
X71800Y39600D02*
X77500Y33900D01*
X39671Y52227D02*
Y54091D01*
X42298Y49600D02*
X47893D01*
X39671Y52227D02*
X42298Y49600D01*
X44556Y6900D02*
X60181D01*
X72333Y13638D01*
X72390Y13671D02*
X88518Y23914D01*
X59338Y21688D02*
X60000Y22350D01*
X59338Y20138D02*
Y21688D01*
X91000Y33608D02*
Y39500D01*
X88700Y41800D02*
X91000Y39500D01*
X88518Y23914D02*
X97000Y32396D01*
Y48800D01*
X79100Y41800D02*
X88700D01*
X47893Y54600D02*
X50649D01*
X42796Y46981D02*
X71619D01*
X79000Y39600D01*
X84507D01*
X34237Y55540D02*
X42796Y46981D01*
X15297Y55540D02*
X34237D01*
X41300Y43296D02*
Y46356D01*
Y43296D02*
X42296Y42300D01*
X40856Y3200D02*
X44556Y6900D01*
X75300Y64500D02*
X84507D01*
X63600Y76200D02*
X75300Y64500D01*
X13615Y57040D02*
X54373D01*
X57400Y54014D01*
X37106Y213500D02*
Y215094D01*
X-87515Y120689D02*
X-86534Y121670D01*
X-87532Y118069D02*
X-87515Y118086D01*
X-86534Y121670D02*
Y123362D01*
X-87515Y118086D02*
Y120689D01*
X-89500Y118069D02*
Y122600D01*
X-85900Y106400D02*
Y114431D01*
Y106400D02*
X-80674Y101174D01*
X-87532Y105882D02*
Y111731D01*
X-80674Y101174D02*
X-72693D01*
X-84531Y86068D02*
X-80276D01*
X-78707Y84500D01*
X-73500D01*
X-89792Y25178D02*
X-86027Y21924D01*
X-85997Y21897D01*
X-87039Y88631D02*
Y90800D01*
X-87821Y87850D02*
X-87039Y88631D01*
X-87352Y84100D02*
X-84531D01*
X-87821Y84569D02*
X-87352Y84100D01*
X-87821Y84569D02*
Y87850D01*
X-42009Y21022D02*
Y22153D01*
X-89792Y25178D02*
X-89792Y25178D01*
X-94353Y29579D02*
X-89792Y25178D01*
X-65800Y54700D02*
X-64000Y56500D01*
X-65179Y53200D02*
X-63414Y54965D01*
X-49065D02*
X-46700Y52600D01*
X-63414Y54965D02*
X-49065D01*
X-76700Y54700D02*
X-65800D01*
X-80100Y54900D02*
X-78400Y53200D01*
X-82600Y48100D02*
X-79000Y51700D01*
X-78400Y53200D02*
X-65179D01*
X-77519Y55519D02*
X-76700Y54700D01*
X-79000Y51700D02*
X-62700D01*
X-82600Y38140D02*
Y48100D01*
X-92460Y121960D02*
Y126619D01*
X-91469Y118069D02*
Y120968D01*
X-92460Y121960D02*
X-91469Y120968D01*
X-86369Y114900D02*
X-85900Y114431D01*
X-91137Y114900D02*
X-86369D01*
X-91469Y111731D02*
Y114568D01*
X-91137Y114900D01*
X-57900Y99500D02*
Y101990D01*
X-80100Y54900D02*
Y59400D01*
X-77519Y55519D02*
Y59319D01*
X-77600Y59400D02*
X-77519Y59319D01*
X-85200Y38240D02*
X-85100Y38140D01*
X-43048Y94873D02*
X-43048Y94876D01*
X-57637Y94977D02*
X-56277D01*
X-56175Y94875D01*
X-50200Y88900D02*
X-48527D01*
X5644Y49069D02*
X13615Y57040D01*
X7500Y47743D02*
X15297Y55540D01*
X48487Y44494D02*
X48593Y44600D01*
X9024Y54571D02*
X16254Y61800D01*
X-66901Y36100D02*
X-56300D01*
X-52000Y31800D02*
X-49800D01*
X-56300Y36100D02*
X-52000Y31800D01*
X-68127Y34874D02*
X-66901Y36100D01*
X-68150Y34874D02*
X-68127D01*
X-54726Y39226D02*
X-50381Y34881D01*
X-68150Y39226D02*
X-54726D01*
X89850Y68900D02*
X93500D01*
X-48100Y33500D02*
Y38100D01*
X-49800Y31800D02*
X-48100Y33500D01*
X-12500Y17234D02*
Y20599D01*
X-65600Y100100D02*
X-65350Y99850D01*
X-57900Y101990D02*
X-57535Y102355D01*
X47893Y63800D02*
X48593Y64500D01*
X-7500Y20599D02*
X-7481Y20580D01*
X1571Y54571D02*
X9024D01*
X-2500Y42253D02*
Y50500D01*
X1571Y54571D01*
X7500Y42253D02*
Y47743D01*
X-81051Y205119D02*
X-81032Y205137D01*
X-86881Y205119D02*
X-81051D01*
X-86900Y205100D02*
X-86881Y205119D01*
X-44285Y24430D02*
X-42009Y22153D01*
X16175Y213475D02*
X16200Y213500D01*
X9625Y213475D02*
X16175D01*
X9600Y213450D02*
X9625Y213475D01*
X37106Y208500D02*
Y210194D01*
X7400Y20499D02*
X7500Y20599D01*
X17500D02*
X17600Y20499D01*
D27*
X-74000Y152100D02*
D03*
X-80000D02*
D03*
X56100Y218200D02*
D03*
X62100D02*
D03*
X45500Y208200D02*
D03*
X51500D02*
D03*
X45500Y213300D02*
D03*
X51500D02*
D03*
X-58271Y193700D02*
D03*
X-52271D02*
D03*
X59900Y16300D02*
D03*
X65900D02*
D03*
X53200Y22800D02*
D03*
X59200D02*
D03*
X-58271Y198669D02*
D03*
X-52271D02*
D03*
X-58271Y203637D02*
D03*
X-52271D02*
D03*
X-98172Y215300D02*
D03*
X-92172D02*
D03*
X-87500D02*
D03*
X-81500D02*
D03*
X58000Y187300D02*
D03*
X64000D02*
D03*
X58000Y182500D02*
D03*
X64000D02*
D03*
X51500Y203237D02*
D03*
X45500D02*
D03*
X28000Y11500D02*
D03*
X22000D02*
D03*
X32500D02*
D03*
X38500D02*
D03*
X51500Y218300D02*
D03*
X45500D02*
D03*
X76400Y75600D02*
D03*
X82400D02*
D03*
X35500Y70000D02*
D03*
X41500D02*
D03*
X-75072Y193037D02*
D03*
X-81072D02*
D03*
X-64400Y193100D02*
D03*
X-70400D02*
D03*
X-29372Y204937D02*
D03*
X-23371D02*
D03*
D29*
X-96300Y117200D02*
D03*
Y111200D02*
D03*
X-94300Y42600D02*
D03*
Y36600D02*
D03*
X5600Y132500D02*
D03*
Y126500D02*
D03*
Y162900D02*
D03*
Y156900D02*
D03*
X58500Y156100D02*
D03*
X42900D02*
D03*
Y133100D02*
D03*
Y127100D02*
D03*
Y162100D02*
D03*
X58500Y133100D02*
D03*
Y127100D02*
D03*
Y162100D02*
D03*
X-58900Y32900D02*
D03*
Y26900D02*
D03*
X-54300Y47900D02*
D03*
Y41900D02*
D03*
X-92400Y192300D02*
D03*
Y186300D02*
D03*
X-45871Y241037D02*
D03*
Y235037D02*
D03*
X300Y225500D02*
D03*
Y219500D02*
D03*
X51800Y223800D02*
D03*
Y229800D02*
D03*
X5250Y225500D02*
D03*
Y219500D02*
D03*
X10200D02*
D03*
Y225500D02*
D03*
X-50836Y241137D02*
D03*
Y235137D02*
D03*
X-55800D02*
D03*
Y241137D02*
D03*
X-92400Y181500D02*
D03*
Y175500D02*
D03*
X-87300D02*
D03*
Y181500D02*
D03*
X-94500Y60600D02*
D03*
Y54600D02*
D03*
X-54272Y208337D02*
D03*
Y214337D02*
D03*
X-49272Y208337D02*
D03*
Y214337D02*
D03*
X-14972Y201737D02*
D03*
Y195737D02*
D03*
X-33171Y197337D02*
D03*
Y191337D02*
D03*
X-72471Y215137D02*
D03*
Y221137D02*
D03*
X86028Y191737D02*
D03*
Y197737D02*
D03*
D32*
X19800Y186600D02*
D03*
X45154D02*
D03*
D35*
X-65409Y98615D02*
D03*
X-57535Y102355D02*
D03*
Y94875D02*
D03*
D42*
X-94100Y151000D02*
D03*
X-86100D02*
D03*
X-94100Y143400D02*
D03*
X-86100D02*
D03*
D91*
X-75212Y93562D02*
D03*
D98*
X-87522Y69600D02*
X-83900D01*
X-93000Y64122D02*
X-87522Y69600D01*
X18679Y185479D02*
X19800Y186600D01*
X-99500Y203200D02*
X-93400D01*
X-94250Y60600D02*
X-93000Y61850D01*
Y64122D01*
X-94500Y60600D02*
X-94250D01*
X87550Y80313D02*
X90997D01*
X-94250Y60600D02*
X-94100D01*
X-93700Y33100D02*
Y36000D01*
X-94300Y36600D02*
X-94050D01*
X-94500Y54600D02*
X-94250D01*
X-94300Y42600D02*
X-94159D01*
X-37000Y22626D02*
X-35639Y21264D01*
X-32575D01*
X-32500Y20599D02*
Y21190D01*
X-32575Y21264D02*
X-32500Y21190D01*
X32950Y18700D02*
X35650Y16000D01*
X37300Y18850D02*
Y19300D01*
X-92400Y181500D02*
Y186300D01*
D99*
X-72346Y158300D02*
G03*
X-68000Y160100I0J6146D01*
G01*
X-63871Y171429D02*
G03*
X-66800Y164358I7071J-7071D01*
G01*
X-68000Y160100D02*
G03*
X-66800Y162997I-2897J2897D01*
G01*
X125359Y132743D02*
X125700D01*
X117000Y135700D02*
X118032Y134668D01*
X-63871Y171429D02*
X-55900Y179400D01*
X-73200Y158300D02*
X-72346D01*
X-66800Y162997D02*
Y164358D01*
X117000Y120109D02*
X118459D01*
X121009Y122659D02*
X125459D01*
X125700Y122900D01*
X118459Y120109D02*
X121009Y122659D01*
X117000Y151288D02*
Y151291D01*
X125700Y142585D02*
Y142588D01*
X117000Y151288D02*
X125700Y142588D01*
D100*
X26098Y27502D02*
G03*
X24690Y27781I-1408J-3412D01*
G01*
X27300Y26700D02*
G03*
X26098Y27502I-2610J-2610D01*
G01*
X-20186Y197296D02*
G03*
X-19241Y197687I0J1335D01*
G01*
X-65600Y104700D02*
G03*
X-67192Y106292I-1592J0D01*
G01*
X133200Y153061D02*
G03*
X131900Y156200I-4439J0D01*
G01*
X-21044Y27781D02*
X24690D01*
X-7076Y42677D02*
Y46398D01*
X-7500Y42253D02*
X-7076Y42677D01*
X54500Y113300D02*
Y139100D01*
X37000Y140300D02*
X53300D01*
X54500Y139100D01*
X46600Y111300D02*
X52500D01*
X54500Y113300D01*
X36419Y139506D02*
X37000Y140087D01*
X34706Y139506D02*
X36419D01*
X37000Y140087D02*
Y140300D01*
X32679Y232621D02*
X33219Y233160D01*
X32300Y232242D02*
X32679Y232621D01*
X-18880Y36820D02*
X-18854Y36847D01*
X10246Y34365D02*
X12500Y36619D01*
X-13200Y34365D02*
X10246D01*
X847Y36847D02*
X2500Y38500D01*
X-18854Y36847D02*
X847D01*
X104000Y160800D02*
X106100Y158700D01*
X28600Y29871D02*
X30977Y27494D01*
X28600Y34700D02*
X31800Y37900D01*
X28600Y29871D02*
Y34700D01*
X43539Y95539D02*
X50000Y102000D01*
X43539Y88161D02*
X53219Y78481D01*
X43539Y88161D02*
Y95539D01*
X-19241Y197687D02*
X-18501Y198428D01*
X-21071Y197296D02*
X-20186D01*
X7726Y15600D02*
X18326Y5000D01*
X-1075Y15600D02*
X7726D01*
X-2500Y17025D02*
X-1075Y15600D01*
X-2500Y17025D02*
Y20599D01*
X18326Y5000D02*
X36200D01*
X78000Y25700D02*
X87900D01*
X94400Y32200D01*
Y67900D01*
X12450Y16419D02*
Y20549D01*
X2500Y38500D02*
Y42253D01*
X12500Y36619D02*
Y42253D01*
X-65600Y100100D02*
Y104700D01*
X-27734Y36366D02*
X-27500Y36600D01*
Y42253D01*
X-21132Y27869D02*
X-21044Y27781D01*
X17550Y20449D02*
X17600Y20499D01*
X17550Y16523D02*
Y20449D01*
X-96300Y86300D02*
X-94100Y84100D01*
X-90869D01*
X-94740Y106292D02*
X-94454Y106578D01*
X6300Y94319D02*
X38900D01*
X41081Y96500D01*
X53219Y78481D02*
X59273D01*
X133200Y113700D02*
Y153061D01*
X85207Y69500D02*
X85807Y68900D01*
X-54300Y41900D02*
X-48100D01*
X2500Y20599D02*
Y24558D01*
X17550Y16523D02*
X17600Y16473D01*
X12450Y20549D02*
X12500Y20599D01*
X35778Y7278D02*
X36000Y7500D01*
X22000Y11500D02*
X22331Y11169D01*
X34600Y69100D02*
X35500Y70000D01*
X34600Y67903D02*
Y69100D01*
X106100Y158700D02*
X125309D01*
X131200Y152809D01*
X125700Y113057D02*
X128230Y115587D01*
X129187D02*
X131200Y117600D01*
Y152809D01*
X128230Y115587D02*
X129187D01*
X106300Y145100D02*
X110998Y149798D01*
X115507D01*
X117000Y151291D01*
X112800Y163500D02*
Y164100D01*
X7500Y20599D02*
Y24400D01*
X19500Y111622D02*
Y161600D01*
X34361Y236000D02*
X36058D01*
X33219Y234858D02*
X34361Y236000D01*
X33219Y233160D02*
Y234858D01*
X20835Y210383D02*
Y220465D01*
X18200Y220600D02*
X20700D01*
X20835Y220465D01*
D101*
X56400Y15800D02*
X60000D01*
X-87200Y181600D02*
X-84100D01*
X-87300Y181500D02*
X-87200Y181600D01*
X-32500Y42253D02*
Y42400D01*
X-32400Y42500D01*
X84507Y34600D02*
X88444D01*
X87450Y80313D02*
X90641D01*
X96950Y69792D02*
X98400Y71242D01*
Y79905D01*
X90641Y80313D02*
X91178Y79777D01*
X-96301Y117349D02*
X-95901D01*
X-95800Y117450D02*
Y117850D01*
X-95901Y117349D02*
X-95800Y117450D01*
X-96301Y117349D02*
X-96300Y117349D01*
Y117200D02*
Y117349D01*
X-85415Y136400D02*
X-84500Y135485D01*
X-87120Y136400D02*
X-85415D01*
X-84500Y132600D02*
Y135485D01*
X-61500Y157437D02*
Y160800D01*
X100300Y44800D02*
Y52800D01*
X96950Y56150D02*
Y69792D01*
Y56150D02*
X100300Y52800D01*
X-88100Y161400D02*
X-88000Y161300D01*
X-95800Y175500D02*
X-92400D01*
X53200Y19000D02*
Y20942D01*
Y19000D02*
X56400Y15800D01*
X-87300Y175500D02*
X-83900D01*
X27600Y111200D02*
X36290D01*
X-92400Y181500D02*
X-87300D01*
X96668Y209332D02*
X96785Y209450D01*
D102*
X1400Y192300D02*
X3700Y194600D01*
X10388D01*
X91700Y201400D02*
X91800Y201300D01*
D103*
X82200Y110197D02*
Y110366D01*
X5229Y106172D02*
Y106295D01*
X6650D02*
X8125Y104821D01*
X-37175Y37975D02*
Y48100D01*
Y37975D02*
X-33900Y34700D01*
X51400Y208200D02*
Y208300D01*
Y208200D02*
X51500Y208100D01*
X-77751Y32978D02*
X-77746Y32983D01*
X-94454Y106578D02*
X-94432Y106600D01*
X-33900Y30100D02*
Y34700D01*
X-77784Y32978D02*
X-77751D01*
X-77790Y32983D02*
X-77784Y32978D01*
X20686Y106295D02*
X23416D01*
X66000Y16050D02*
X66400Y16450D01*
X60200Y12700D02*
X60750Y13250D01*
Y13500D01*
X67689Y16500D02*
X70200D01*
X66400Y16450D02*
X67639D01*
X66000Y15800D02*
Y16050D01*
X67639Y16450D02*
X67689Y16500D01*
X6528Y106295D02*
X6650D01*
X8125Y104821D02*
X8325D01*
X82269Y110085D02*
Y110128D01*
X3100Y97400D02*
X20700D01*
Y98100D02*
X20700Y98100D01*
X71000Y201600D02*
X72900D01*
X73400Y202737D02*
X79058D01*
X72900Y201600D02*
Y202237D01*
X72419Y202081D02*
X72900Y201600D01*
X70150Y200750D02*
X71000Y201600D01*
X71481Y202081D01*
X72900Y202237D02*
X73400Y202737D01*
X71481Y202081D02*
X72419D01*
X60000Y15800D02*
X60187Y15613D01*
X-42323Y41072D02*
Y43675D01*
X59900Y137200D02*
X59931Y137169D01*
X67022Y133068D02*
X68400D01*
X-43585Y44937D02*
X-42323Y43675D01*
X45531Y218569D02*
Y221469D01*
Y218569D02*
X45600Y218500D01*
X45500Y221500D02*
X45531Y221469D01*
X-42323Y43675D02*
Y44377D01*
X-42100Y44600D01*
X-42171Y44671D02*
X-42100Y44600D01*
X-42171Y44671D02*
Y45737D01*
X-43700Y225800D02*
X-43400Y226100D01*
X-50148Y225800D02*
X-43700D01*
X-24910Y197296D02*
Y198387D01*
X-23371Y204987D02*
Y205237D01*
D105*
X4100Y163100D02*
X8550D01*
X2800D02*
X4100D01*
X45400Y69900D02*
X60367D01*
X75084Y55184D01*
X37000Y38000D02*
Y40749D01*
X37323Y41072D01*
X-85500Y32100D02*
X-85474D01*
X2500Y228900D02*
X2600Y229000D01*
X-65497Y98703D02*
X-65350Y98850D01*
X-65585Y98615D02*
X-65497Y98703D01*
X-89100Y28500D02*
X-73700D01*
X-93700Y33100D02*
X-89100Y28500D01*
X-63300Y18100D02*
X-53900D01*
X-73700Y28500D02*
X-63300Y18100D01*
X-72693Y90938D02*
X-67136D01*
X-65497Y98703D02*
X-65409Y98615D01*
X-65720Y98926D02*
X-65497Y98703D01*
X-72693Y98615D02*
X-65585D01*
X-64500Y95998D02*
Y98300D01*
X-63400Y94800D02*
Y94898D01*
X-64815Y98615D02*
X-64500Y98300D01*
X-65350Y98615D02*
X-64815D01*
X35281Y66319D02*
X41500D01*
X22400Y11600D02*
X22450Y11650D01*
Y20549D02*
X22500Y20599D01*
X22700Y158000D02*
X41500D01*
X2424Y229176D02*
X2600Y229000D01*
X2500Y228700D02*
Y228900D01*
D189*
X-85850Y161300D02*
D03*
D257*
X-14200Y76789D02*
D03*
Y105135D02*
D03*
X-14700Y178694D02*
D03*
Y150347D02*
D03*
D258*
X125700Y112272D02*
D03*
D259*
Y122114D02*
D03*
Y131957D02*
D03*
Y141799D02*
D03*
D260*
X117000Y103732D02*
D03*
D261*
Y119323D02*
D03*
Y134913D02*
D03*
Y150504D02*
D03*
D262*
X-65799Y27678D02*
D03*
Y46576D02*
D03*
X-48870Y27678D02*
D03*
Y46576D02*
D03*
D263*
X-39000Y108919D02*
D03*
Y98919D02*
D03*
Y88919D02*
D03*
Y78919D02*
D03*
X-49000Y113919D02*
D03*
Y103919D02*
D03*
Y93919D02*
D03*
Y83919D02*
D03*
X-39000Y171680D02*
D03*
Y161680D02*
D03*
Y151680D02*
D03*
Y141680D02*
D03*
X-49000Y176680D02*
D03*
Y166680D02*
D03*
Y156680D02*
D03*
Y146680D02*
D03*
D264*
X0Y255906D02*
D03*
X110810Y191929D02*
D03*
X-110810D02*
D03*
Y63976D02*
D03*
X110810D02*
D03*
X0Y0D02*
D03*
D265*
X92400Y182700D02*
D03*
X95009D02*
D03*
X97618D02*
D03*
X-13900Y5200D02*
D03*
X32000Y105900D02*
D03*
X16600Y144900D02*
D03*
X14127D02*
D03*
X5500Y147700D02*
D03*
X-83900Y69600D02*
D03*
X7723Y122709D02*
D03*
Y120109D02*
D03*
X5161D02*
D03*
X14127Y139484D02*
D03*
Y142150D02*
D03*
X16600D02*
D03*
X-20900Y242900D02*
D03*
X-27808Y213695D02*
D03*
X-25316D02*
D03*
X-27808Y216387D02*
D03*
X-25316D02*
D03*
X-27808Y227171D02*
D03*
X-25316D02*
D03*
X-27808Y224479D02*
D03*
X-25316D02*
D03*
Y221787D02*
D03*
X-27808D02*
D03*
X-25316Y219095D02*
D03*
X-27808D02*
D03*
X-30300Y227171D02*
D03*
Y219072D02*
D03*
Y221772D02*
D03*
Y224471D02*
D03*
X58200Y132900D02*
D03*
X-84100Y181600D02*
D03*
X-83600Y64900D02*
D03*
X-72600Y64500D02*
D03*
X41500Y59400D02*
D03*
X75084Y55184D02*
D03*
X37000Y38000D02*
D03*
X-37300Y57800D02*
D03*
X-7076Y46398D02*
D03*
X1400Y192300D02*
D03*
X-94231Y218269D02*
D03*
X-65600Y104487D02*
D03*
X-37175Y48100D02*
D03*
X-32400Y42500D02*
D03*
X-40678Y55381D02*
D03*
X23700Y190489D02*
D03*
X26528D02*
D03*
X36900Y146200D02*
D03*
X26543Y169660D02*
D03*
Y172352D02*
D03*
Y175044D02*
D03*
X20971Y169660D02*
D03*
Y172352D02*
D03*
Y175044D02*
D03*
X23772Y169660D02*
D03*
Y172352D02*
D03*
Y175044D02*
D03*
X26528Y182413D02*
D03*
Y185105D02*
D03*
Y187797D02*
D03*
X23700D02*
D03*
Y185105D02*
D03*
Y182413D02*
D03*
X-30300Y216400D02*
D03*
Y213671D02*
D03*
X50550Y116700D02*
D03*
X47800D02*
D03*
X45050D02*
D03*
X42300D02*
D03*
X28100Y131000D02*
D03*
X30681Y114603D02*
D03*
X46100Y133800D02*
D03*
X46600Y111300D02*
D03*
X16600Y139400D02*
D03*
X5600Y131480D02*
D03*
X32281Y147700D02*
D03*
X-18501Y198428D02*
D03*
X-8600Y200200D02*
D03*
X-25400Y205500D02*
D03*
X90219Y44600D02*
D03*
X53758Y4400D02*
D03*
X22600Y-2100D02*
D03*
X-289Y229900D02*
D03*
X30800Y45000D02*
D03*
X-18880Y36820D02*
D03*
X-13200Y34365D02*
D03*
X64900Y91100D02*
D03*
X53900Y54000D02*
D03*
X-27500Y16781D02*
D03*
X46900Y89700D02*
D03*
X-6152Y15474D02*
D03*
X78000Y179700D02*
D03*
X-99500Y203200D02*
D03*
X61271Y64174D02*
D03*
X61200Y57100D02*
D03*
X58035D02*
D03*
X21600Y37700D02*
D03*
X24300D02*
D03*
X33500Y45000D02*
D03*
X-85474Y32100D02*
D03*
X-87755Y48935D02*
D03*
X-93169Y45460D02*
D03*
X-90136Y45881D02*
D03*
X-93169Y51500D02*
D03*
X62828Y33437D02*
D03*
X57500Y32760D02*
D03*
X71700Y33700D02*
D03*
X77500Y33900D02*
D03*
X18231Y52631D02*
D03*
X47352Y44700D02*
D03*
X78000Y25700D02*
D03*
X59338Y20138D02*
D03*
X71700Y36154D02*
D03*
X88444Y34600D02*
D03*
X53400Y29300D02*
D03*
X71860Y43441D02*
D03*
X56300Y36500D02*
D03*
X45095D02*
D03*
X39671Y54091D02*
D03*
X65600Y37319D02*
D03*
X26019Y7782D02*
D03*
X12450Y16419D02*
D03*
X87200Y76419D02*
D03*
X92200D02*
D03*
X54800Y64219D02*
D03*
X58035D02*
D03*
X61200Y54100D02*
D03*
X-88800Y103700D02*
D03*
X-86534Y123362D02*
D03*
X-89500Y122600D02*
D03*
X-89300Y96100D02*
D03*
X-90500Y107100D02*
D03*
X-46700Y61200D02*
D03*
X-27734Y36366D02*
D03*
X-33900Y30100D02*
D03*
X-37000Y22626D02*
D03*
X-21132Y27869D02*
D03*
X-53900Y18100D02*
D03*
X-73137Y23863D02*
D03*
X-77137Y23363D02*
D03*
X-81300Y24300D02*
D03*
X-87039Y90800D02*
D03*
X-73500Y84500D02*
D03*
X-43100Y53100D02*
D03*
X-65100Y62200D02*
D03*
X-60700Y62569D02*
D03*
X-77811Y103722D02*
D03*
X-73800Y48400D02*
D03*
X-77710Y32947D02*
D03*
X-96300Y86300D02*
D03*
X-69481Y62181D02*
D03*
X-67136Y90938D02*
D03*
X-62700Y51700D02*
D03*
X-78000Y48800D02*
D03*
X-96200Y120600D02*
D03*
X-92460Y126619D02*
D03*
X-58600Y99500D02*
D03*
X-46700Y52600D02*
D03*
X-40678Y70441D02*
D03*
X31800Y37900D02*
D03*
X30977Y27494D02*
D03*
X-85200Y46100D02*
D03*
X-72600Y44340D02*
D03*
X-93700Y33100D02*
D03*
X-87200Y132500D02*
D03*
X12623Y111800D02*
D03*
X7500D02*
D03*
X10061D02*
D03*
X7500Y114400D02*
D03*
X10061D02*
D03*
X12623D02*
D03*
X6300Y94319D02*
D03*
X9600Y100500D02*
D03*
X41081Y96500D02*
D03*
X5161Y122709D02*
D03*
X32300Y53259D02*
D03*
X57400Y54014D02*
D03*
X65319Y192100D02*
D03*
X62900D02*
D03*
X-84500Y132500D02*
D03*
X-79400Y145750D02*
D03*
X-98200Y135700D02*
D03*
Y138650D02*
D03*
X58200Y250285D02*
D03*
X67900Y248200D02*
D03*
X62900D02*
D03*
X65400D02*
D03*
X72800Y245500D02*
D03*
Y243000D02*
D03*
X70500Y243300D02*
D03*
Y245800D02*
D03*
X55700Y240900D02*
D03*
X58200D02*
D03*
X69500Y227200D02*
D03*
Y229626D02*
D03*
Y233300D02*
D03*
Y238160D02*
D03*
Y235730D02*
D03*
X47400Y255700D02*
D03*
X52400D02*
D03*
X49900D02*
D03*
X64500Y233300D02*
D03*
X53222D02*
D03*
X67000Y235730D02*
D03*
X64500Y238160D02*
D03*
X50610Y233300D02*
D03*
X55700Y252712D02*
D03*
X67000Y238160D02*
D03*
X53222Y235726D02*
D03*
X58200Y247859D02*
D03*
X45387Y233300D02*
D03*
X55700Y250285D02*
D03*
X64500Y235730D02*
D03*
X47999Y235726D02*
D03*
X67000Y233300D02*
D03*
X45387Y235726D02*
D03*
X47999Y233300D02*
D03*
X50610Y235726D02*
D03*
X58200Y252712D02*
D03*
X55700Y247859D02*
D03*
X-73500Y167900D02*
D03*
X67000Y229626D02*
D03*
Y227200D02*
D03*
X64500Y229626D02*
D03*
Y227200D02*
D03*
X24280Y204600D02*
D03*
Y207292D02*
D03*
Y209984D02*
D03*
X-103000Y212400D02*
D03*
X-61500Y160800D02*
D03*
X67161Y79500D02*
D03*
X-42100Y48100D02*
D03*
X-46600Y22400D02*
D03*
X-49600D02*
D03*
X-82100Y148400D02*
D03*
Y143000D02*
D03*
Y145750D02*
D03*
X-79400Y148400D02*
D03*
Y157481D02*
D03*
X-77303Y165240D02*
D03*
X-98200Y144550D02*
D03*
Y141600D02*
D03*
Y147500D02*
D03*
Y150450D02*
D03*
Y153400D02*
D03*
X100300Y44800D02*
D03*
X97000Y48800D02*
D03*
X-95800Y175500D02*
D03*
X-50381Y34881D02*
D03*
X-68150Y39226D02*
D03*
Y34874D02*
D03*
X-48100Y38100D02*
D03*
X-64400Y32500D02*
D03*
X37300Y258300D02*
D03*
X127700Y162900D02*
D03*
X96900Y191500D02*
D03*
X87100Y230900D02*
D03*
X88900Y229100D02*
D03*
X90600Y227300D02*
D03*
X92300Y225500D02*
D03*
X94100Y223700D02*
D03*
X85300Y232700D02*
D03*
X103400Y211900D02*
D03*
X101550Y213750D02*
D03*
X99700Y215600D02*
D03*
X97850Y217450D02*
D03*
X97618Y180200D02*
D03*
X100226D02*
D03*
X92400D02*
D03*
X95009D02*
D03*
X101600Y201600D02*
D03*
X103400Y203400D02*
D03*
X105100Y205200D02*
D03*
X103100Y207000D02*
D03*
X26000Y252742D02*
D03*
X23400D02*
D03*
X26000Y250312D02*
D03*
X23400D02*
D03*
X-84200Y224240D02*
D03*
Y226780D02*
D03*
X99680Y219280D02*
D03*
X101530Y217430D02*
D03*
X96900Y194000D02*
D03*
X101400Y205200D02*
D03*
X87400Y204200D02*
D03*
Y206700D02*
D03*
X84700D02*
D03*
Y204200D02*
D03*
X97786Y159400D02*
D03*
X100471D02*
D03*
X103157D02*
D03*
X77600Y96400D02*
D03*
X-42100Y242600D02*
D03*
Y240000D02*
D03*
X-63400Y94800D02*
D03*
X95100Y159400D02*
D03*
X35600Y200D02*
D03*
X2500Y24558D02*
D03*
X9814Y58586D02*
D03*
X41500Y66319D02*
D03*
X58035Y66825D02*
D03*
X54800Y66800D02*
D03*
X91300Y60900D02*
D03*
X49300Y19700D02*
D03*
X48100Y23046D02*
D03*
X60200Y12700D02*
D03*
X32500Y15327D02*
D03*
X32600Y21100D02*
D03*
X17600Y17123D02*
D03*
X36000Y7782D02*
D03*
X29400D02*
D03*
X32700D02*
D03*
X42116Y19700D02*
D03*
X70200Y16500D02*
D03*
X-61700Y103400D02*
D03*
X90000Y89400D02*
D03*
X-22500Y24600D02*
D03*
X-18750D02*
D03*
X29200Y69900D02*
D03*
X5644Y49069D02*
D03*
X10909Y46760D02*
D03*
X19500Y111622D02*
D03*
X47476Y78546D02*
D03*
X59273Y78481D02*
D03*
X91900Y55500D02*
D03*
X-88800Y200500D02*
D03*
X-37300Y73200D02*
D03*
X-39557Y235300D02*
D03*
X-36900D02*
D03*
X-59400Y183700D02*
D03*
X-55900Y179400D02*
D03*
X-83900Y175500D02*
D03*
X34600Y86100D02*
D03*
X27300Y26700D02*
D03*
X131900Y156200D02*
D03*
X128100Y152400D02*
D03*
X135900Y140900D02*
D03*
Y129400D02*
D03*
Y117900D02*
D03*
X109500Y96000D02*
D03*
Y104300D02*
D03*
X81000Y135400D02*
D03*
X78300D02*
D03*
X7500Y24400D02*
D03*
X76300Y159400D02*
D03*
X75666Y131633D02*
D03*
X73000D02*
D03*
X89100Y126800D02*
D03*
X91600D02*
D03*
X103402Y126200D02*
D03*
Y128700D02*
D03*
Y131200D02*
D03*
X50000Y102000D02*
D03*
X55100Y106900D02*
D03*
X103400Y148400D02*
D03*
Y145900D02*
D03*
Y143400D02*
D03*
X80650Y110200D02*
D03*
X16400Y114603D02*
D03*
X-81472Y210737D02*
D03*
X-85900Y192100D02*
D03*
Y194802D02*
D03*
X-52500Y203400D02*
D03*
X-72469Y198781D02*
D03*
X-55800Y169800D02*
D03*
X103380Y215580D02*
D03*
X105230Y213730D02*
D03*
X96900Y196500D02*
D03*
X-69600Y214697D02*
D03*
X-96000Y186800D02*
D03*
Y183850D02*
D03*
X-88500Y194802D02*
D03*
Y192100D02*
D03*
X106200Y89400D02*
D03*
X103400Y109700D02*
D03*
Y107000D02*
D03*
Y104300D02*
D03*
X100700Y109700D02*
D03*
Y107000D02*
D03*
Y104300D02*
D03*
X94600Y73000D02*
D03*
Y75500D02*
D03*
X89700Y76419D02*
D03*
X64800Y110200D02*
D03*
X-48700Y203400D02*
D03*
Y200700D02*
D03*
X-45900D02*
D03*
Y198000D02*
D03*
Y195300D02*
D03*
Y192600D02*
D03*
X-48700D02*
D03*
Y195300D02*
D03*
Y198000D02*
D03*
X45531Y224247D02*
D03*
X120100Y168500D02*
D03*
X127500D02*
D03*
X83300Y231100D02*
D03*
X74200Y221800D02*
D03*
X70100Y159600D02*
D03*
X92414Y159400D02*
D03*
X89728D02*
D03*
X87043D02*
D03*
X84357D02*
D03*
X81671D02*
D03*
X78986D02*
D03*
X80100Y154300D02*
D03*
Y151700D02*
D03*
X75100Y110200D02*
D03*
X62274D02*
D03*
X59773D02*
D03*
X67273D02*
D03*
X69774D02*
D03*
Y112866D02*
D03*
X67273D02*
D03*
X59773D02*
D03*
X62274D02*
D03*
X64773D02*
D03*
X45387Y230800D02*
D03*
Y228300D02*
D03*
X40751Y235730D02*
D03*
X38321D02*
D03*
X35891D02*
D03*
X33461D02*
D03*
X31030D02*
D03*
X23400Y247882D02*
D03*
Y245451D02*
D03*
Y243021D02*
D03*
Y240591D02*
D03*
Y238160D02*
D03*
Y235730D02*
D03*
Y233300D02*
D03*
X-72469Y212040D02*
D03*
Y201413D02*
D03*
Y206727D02*
D03*
Y204070D02*
D03*
Y209384D02*
D03*
X-49000Y230000D02*
D03*
Y227343D02*
D03*
Y224687D02*
D03*
X-51500D02*
D03*
Y227343D02*
D03*
Y230000D02*
D03*
X-65427Y224757D02*
D03*
Y230070D02*
D03*
Y227414D02*
D03*
Y232727D02*
D03*
X-68148Y224757D02*
D03*
Y227414D02*
D03*
Y230070D02*
D03*
Y232727D02*
D03*
X-61600Y208300D02*
D03*
X-69600Y198757D02*
D03*
Y201413D02*
D03*
Y204070D02*
D03*
Y206727D02*
D03*
Y212040D02*
D03*
Y209384D02*
D03*
X-61719Y212760D02*
D03*
X64800Y203300D02*
D03*
Y200750D02*
D03*
Y198200D02*
D03*
X67500D02*
D03*
Y200750D02*
D03*
Y203300D02*
D03*
X70200Y198300D02*
D03*
Y200800D02*
D03*
Y203300D02*
D03*
X72900D02*
D03*
Y200800D02*
D03*
Y198300D02*
D03*
X92100Y222100D02*
D03*
X90300Y223900D02*
D03*
X88600Y225700D02*
D03*
X86900Y227500D02*
D03*
X85100Y229300D02*
D03*
X76000Y220000D02*
D03*
X77800Y218200D02*
D03*
X79600Y216500D02*
D03*
X81400Y214800D02*
D03*
X79600Y216500D02*
D03*
X-32000Y201937D02*
D03*
X80650Y179700D02*
D03*
X75350D02*
D03*
X67400D02*
D03*
X70050D02*
D03*
X72700D02*
D03*
X83300D02*
D03*
Y182200D02*
D03*
X72700D02*
D03*
X70050D02*
D03*
X67400D02*
D03*
X51500Y208100D02*
D03*
X47999Y228300D02*
D03*
Y230800D02*
D03*
X54800Y211900D02*
D03*
Y214400D02*
D03*
X57400Y211900D02*
D03*
Y214400D02*
D03*
X99600Y203400D02*
D03*
X11862Y229900D02*
D03*
X9432D02*
D03*
X7001D02*
D03*
X4571D02*
D03*
X2141D02*
D03*
X26000Y233300D02*
D03*
Y235730D02*
D03*
Y238160D02*
D03*
Y240591D02*
D03*
Y243021D02*
D03*
Y245451D02*
D03*
Y247882D02*
D03*
X28600D02*
D03*
Y245451D02*
D03*
Y243021D02*
D03*
Y240591D02*
D03*
Y238160D02*
D03*
Y235730D02*
D03*
X31030Y233300D02*
D03*
X28600D02*
D03*
X33461D02*
D03*
X35891D02*
D03*
X38321D02*
D03*
X40751D02*
D03*
X26880Y209984D02*
D03*
Y207292D02*
D03*
Y204600D02*
D03*
X20700Y207000D02*
D03*
X14200Y220900D02*
D03*
X20700Y209383D02*
D03*
X3000Y97400D02*
D03*
X18200Y175044D02*
D03*
Y172352D02*
D03*
Y169660D02*
D03*
X15400Y175044D02*
D03*
Y172352D02*
D03*
Y169660D02*
D03*
X12629D02*
D03*
Y172352D02*
D03*
Y175044D02*
D03*
X4116Y200324D02*
D03*
X1624D02*
D03*
X6608D02*
D03*
X4116Y203016D02*
D03*
X1624D02*
D03*
X6608D02*
D03*
Y205708D02*
D03*
X1624D02*
D03*
X4116D02*
D03*
X6608Y208400D02*
D03*
Y214284D02*
D03*
Y211292D02*
D03*
X4116D02*
D03*
Y214284D02*
D03*
X1624Y211292D02*
D03*
Y214284D02*
D03*
X4116Y208400D02*
D03*
X14292Y229900D02*
D03*
X48783Y168600D02*
D03*
X51392D02*
D03*
X54001Y168609D02*
D03*
X56609D02*
D03*
X51392Y175181D02*
D03*
X48783D02*
D03*
X54001D02*
D03*
X51392Y171890D02*
D03*
X48783D02*
D03*
X54001D02*
D03*
X94700Y168609D02*
D03*
X92091D02*
D03*
Y171890D02*
D03*
X94700D02*
D03*
X89482Y168600D02*
D03*
X86874D02*
D03*
X98000Y104300D02*
D03*
X95300D02*
D03*
X92600D02*
D03*
X89900D02*
D03*
X87200D02*
D03*
X84500D02*
D03*
X95300Y109700D02*
D03*
X84500Y107000D02*
D03*
X87200D02*
D03*
X89900D02*
D03*
X92600D02*
D03*
X95300D02*
D03*
X98000D02*
D03*
Y109700D02*
D03*
X75100Y112866D02*
D03*
X-96000Y180900D02*
D03*
X-61719Y215300D02*
D03*
X85600Y145000D02*
D03*
X75350Y182200D02*
D03*
X78000D02*
D03*
X80650D02*
D03*
X123628Y165337D02*
D03*
X-48100Y41900D02*
D03*
X45500Y221600D02*
D03*
X38605Y215094D02*
D03*
Y210094D02*
D03*
X1624Y208400D02*
D03*
X37100Y184500D02*
D03*
X44905Y181200D02*
D03*
X42279D02*
D03*
Y184500D02*
D03*
X39752Y181228D02*
D03*
X37100Y187800D02*
D03*
X39752Y184529D02*
D03*
X44905Y187800D02*
D03*
X37100Y181200D02*
D03*
X39652Y187829D02*
D03*
X42279Y187800D02*
D03*
X44905Y184500D02*
D03*
X56609Y171890D02*
D03*
Y175181D02*
D03*
X24600Y87600D02*
D03*
X89482Y175181D02*
D03*
X86874D02*
D03*
Y171890D02*
D03*
X89482D02*
D03*
X-29272Y201937D02*
D03*
X17328Y87337D02*
D03*
D279*
X23086Y80705D02*
D03*
Y106295D02*
D03*
X7028Y80705D02*
D03*
Y106295D02*
D03*
D280*
X-94600Y136400D02*
D03*
X70060Y186800D02*
D03*
X58060Y244500D02*
D03*
D281*
X-87120Y136400D02*
D03*
X77540Y186800D02*
D03*
X65540Y244500D02*
D03*
D282*
X-91469Y111731D02*
D03*
X-89500D02*
D03*
X-87532D02*
D03*
Y118069D02*
D03*
X-89500D02*
D03*
X-91469D02*
D03*
D283*
X-84531Y86068D02*
D03*
Y84100D02*
D03*
Y82131D02*
D03*
X-90869D02*
D03*
Y84100D02*
D03*
Y86068D02*
D03*
D284*
X-80100Y38140D02*
D03*
X-77600D02*
D03*
X-90100D02*
D03*
X-87600D02*
D03*
X-85100D02*
D03*
X-82600D02*
D03*
X-75100D02*
D03*
X-72600D02*
D03*
Y59400D02*
D03*
X-75100D02*
D03*
X-77600D02*
D03*
X-80100D02*
D03*
X-82600D02*
D03*
X-85100D02*
D03*
X-87600D02*
D03*
X-90100D02*
D03*
D285*
X-75100Y30917D02*
D03*
Y33083D02*
D03*
D286*
X84507Y69600D02*
D03*
Y64600D02*
D03*
Y59600D02*
D03*
Y54600D02*
D03*
Y49600D02*
D03*
Y44600D02*
D03*
Y39600D02*
D03*
Y34600D02*
D03*
X47893D02*
D03*
Y39600D02*
D03*
Y44600D02*
D03*
Y49600D02*
D03*
Y54600D02*
D03*
Y59600D02*
D03*
Y64600D02*
D03*
Y69600D02*
D03*
D287*
X59000Y236800D02*
D03*
Y226800D02*
D03*
D288*
X-89272Y161500D02*
D03*
X-98328D02*
D03*
D289*
X-88150Y169900D02*
D03*
X-84450D02*
D03*
X-96222Y208437D02*
D03*
X-92522D02*
D03*
X-87172Y219837D02*
D03*
X-90872D02*
D03*
D290*
X-83124Y165040D02*
D03*
Y161300D02*
D03*
Y157560D02*
D03*
X-73676D02*
D03*
Y161300D02*
D03*
Y165040D02*
D03*
D291*
X-72693Y90938D02*
D03*
Y93497D02*
D03*
Y96056D02*
D03*
Y98615D02*
D03*
Y101174D02*
D03*
Y103733D02*
D03*
Y106292D02*
D03*
X-94740Y90938D02*
D03*
Y93497D02*
D03*
Y96056D02*
D03*
Y98615D02*
D03*
Y101174D02*
D03*
Y103733D02*
D03*
Y106292D02*
D03*
D292*
X-65240Y149563D02*
D03*
X-57760D02*
D03*
X-61500Y157437D02*
D03*
D293*
X65400Y163609D02*
D03*
Y152586D02*
D03*
X49800Y163612D02*
D03*
Y152588D02*
D03*
X12400Y163013D02*
D03*
Y151989D02*
D03*
X12403Y121688D02*
D03*
Y132712D02*
D03*
X65398Y122788D02*
D03*
Y133812D02*
D03*
X49800Y122900D02*
D03*
Y133924D02*
D03*
D294*
X-42323Y41072D02*
D03*
Y21780D02*
D03*
X37323Y41072D02*
D03*
Y21780D02*
D03*
D295*
X22500Y20599D02*
D03*
X17500D02*
D03*
X7500D02*
D03*
X2500D02*
D03*
X-2500D02*
D03*
X-7500D02*
D03*
X-12500D02*
D03*
X-17500D02*
D03*
X-22500D02*
D03*
X-27500D02*
D03*
X27500D02*
D03*
X12500D02*
D03*
X-32500D02*
D03*
Y42253D02*
D03*
X-27500D02*
D03*
X-22500D02*
D03*
X-17500D02*
D03*
X-12500D02*
D03*
X-7500D02*
D03*
X-2500D02*
D03*
X2500D02*
D03*
X7500D02*
D03*
X12500D02*
D03*
X17500D02*
D03*
X22500D02*
D03*
X27500D02*
D03*
D296*
X32000Y117800D02*
D03*
X74800Y151864D02*
D03*
X84800Y117800D02*
D03*
X22000Y151864D02*
D03*
X37000Y138272D02*
D03*
X32000D02*
D03*
X27000D02*
D03*
X22000D02*
D03*
Y117800D02*
D03*
X27000D02*
D03*
X37000D02*
D03*
Y151864D02*
D03*
X32000D02*
D03*
X27000D02*
D03*
X22000Y172336D02*
D03*
X27000D02*
D03*
X32000D02*
D03*
X37000D02*
D03*
X89800Y117800D02*
D03*
X79800D02*
D03*
X74800D02*
D03*
Y138272D02*
D03*
X79800D02*
D03*
X84800D02*
D03*
X89800D02*
D03*
Y151864D02*
D03*
X84800D02*
D03*
X79800D02*
D03*
X74800Y172336D02*
D03*
X79800D02*
D03*
X84800D02*
D03*
X89800D02*
D03*
D297*
X37200Y227300D02*
D03*
X21452D02*
D03*
X-59548Y226600D02*
D03*
X-43800D02*
D03*
D298*
X96668Y209332D02*
D03*
X85532Y220468D02*
D03*
D299*
X79058Y207737D02*
D03*
Y202737D02*
D03*
Y197737D02*
D03*
Y192737D02*
D03*
X57799D02*
D03*
Y197737D02*
D03*
Y202737D02*
D03*
Y207737D02*
D03*
D300*
X10200Y213450D02*
D03*
Y209750D02*
D03*
X-86900Y205100D02*
D03*
Y208800D02*
D03*
X-58772Y209637D02*
D03*
Y213337D02*
D03*
D301*
X26653Y211000D02*
D03*
D302*
X16200Y218500D02*
D03*
Y213500D02*
D03*
Y208500D02*
D03*
Y203500D02*
D03*
X37106D02*
D03*
Y208500D02*
D03*
Y213500D02*
D03*
Y218500D02*
D03*
D303*
X-66071Y209074D02*
D03*
Y207106D02*
D03*
Y205137D02*
D03*
Y203169D02*
D03*
Y201200D02*
D03*
Y199232D02*
D03*
X-81032D02*
D03*
Y201200D02*
D03*
Y203169D02*
D03*
Y205137D02*
D03*
Y207106D02*
D03*
Y209074D02*
D03*
D304*
X-73552Y204153D02*
D03*
D305*
X49400Y244100D02*
D03*
X34833D02*
D03*
D306*
X-21071Y199855D02*
D03*
Y197296D02*
D03*
Y194737D02*
D03*
X-28749D02*
D03*
Y197296D02*
D03*
Y199855D02*
D03*
D307*
X-24910Y197296D02*
D03*
D308*
X-86546Y64900D02*
X-83600D01*
X-87600Y63846D02*
X-86546Y64900D01*
X-87600Y59400D02*
Y63846D01*
Y55747D02*
Y59400D01*
X-72600D02*
Y64500D01*
X12500Y198300D02*
X28800D01*
X10200Y200600D02*
X12500Y198300D01*
X28800D02*
X32300Y201800D01*
X10200Y200600D02*
Y209750D01*
X-87600Y34200D02*
X-85500Y32100D01*
X-87600Y34200D02*
Y38140D01*
X-42600Y38400D02*
Y42150D01*
X-88747Y54600D02*
X-87600Y55747D01*
X-94500Y54600D02*
X-88747D01*
X-72600Y38140D02*
Y44340D01*
X32300Y201800D02*
Y232242D01*
X83900Y69500D02*
X84000Y69600D01*
D309*
X1700Y160700D02*
X4100Y163100D01*
X84507Y44600D02*
X90219D01*
X46900Y89700D02*
X50600Y86000D01*
X37169Y117369D02*
X37600Y117800D01*
X34600Y86100D02*
X39922D01*
X47476Y78546D01*
X50600Y86000D02*
X96500D01*
X106300Y95800D01*
Y145100D01*
X37169Y112679D02*
Y117369D01*
X36290Y111800D02*
X37169Y112679D01*
X42100Y208400D02*
X44400Y210700D01*
X37106Y203500D02*
X40844D01*
X37106D02*
X37483Y203877D01*
X44447Y207148D02*
X44574Y207200D01*
X44750D02*
X45500Y207950D01*
X44574Y207200D02*
X44750D01*
X45500Y207950D02*
Y208200D01*
X44400Y209300D02*
Y210700D01*
D310*
X6757Y183500D02*
D03*
D311*
X-94125Y43900D02*
D03*
D312*
X-15273Y102550D02*
D03*
D313*
X5431Y152600D02*
D03*
D314*
X4500Y121150D02*
D03*
D315*
X13738Y122300D02*
D03*
D316*
X-8801Y197851D02*
D03*
D317*
X-27750Y220500D02*
D03*
D318*
X-81075Y197150D02*
D03*
D319*
X51564Y208048D02*
D03*
D320*
X-24886Y200096D02*
D03*
D321*
X-21876Y201267D02*
D03*
D322*
X-18161Y203550D02*
D03*
D323*
X-20315Y127250D02*
D03*
D324*
X-15159Y154045D02*
D03*
D325*
X75000Y181017D02*
D03*
D326*
X57500Y186300D02*
D03*
D327*
X17200Y185029D02*
D03*
D328*
X25100Y137100D02*
D03*
D329*
X46400Y116000D02*
D03*
D330*
X1575Y173500D02*
D03*
D331*
X-53800Y214719D02*
D03*
D332*
X-11500Y195769D02*
D03*
D333*
X-17596Y194700D02*
D03*
D334*
X13650Y227450D02*
D03*
D335*
X-54750Y241459D02*
D03*
D336*
X-14400Y80400D02*
D03*
D337*
X82648Y72800D02*
D03*
D338*
X23870Y41355D02*
D03*
D339*
X47893Y54190D02*
D03*
D340*
X25950Y7663D02*
D03*
D341*
X47907Y35509D02*
D03*
D342*
X48135Y39800D02*
D03*
D343*
X-84676Y82061D02*
D03*
D344*
X-94108Y53151D02*
D03*
D345*
X-34763Y21200D02*
D03*
D346*
X-72650Y59400D02*
D03*
D347*
X-93410Y90513D02*
D03*
D348*
X-90860Y88552D02*
D03*
D349*
X-96166Y118850D02*
D03*
D350*
Y109004D02*
D03*
D351*
X-92796Y60645D02*
D03*
D352*
X-74414Y29424D02*
D03*
D353*
X-92772Y36545D02*
D03*
D354*
X9000Y113300D02*
D03*
D355*
X27539Y103323D02*
D03*
D356*
X16200Y119800D02*
D03*
D357*
X30250Y43250D02*
D03*
D358*
X80659Y186520D02*
D03*
D359*
X64113Y189776D02*
D03*
D360*
X67045Y187050D02*
D03*
D361*
X-87100Y142950D02*
D03*
D362*
X57450Y235900D02*
D03*
D363*
X92200Y190400D02*
D03*
D364*
X41350Y186900D02*
D03*
D365*
X-75204Y166630D02*
D03*
D366*
X62800Y226200D02*
D03*
D367*
X26616Y206550D02*
D03*
D368*
X-87825Y181450D02*
D03*
D369*
X-94450Y144450D02*
D03*
D370*
X-47875Y48043D02*
D03*
D371*
X-53950Y46500D02*
D03*
D372*
X-43800Y21700D02*
D03*
D373*
X-83250Y167500D02*
D03*
D374*
X-81650Y154650D02*
D03*
D375*
X-73600Y156350D02*
D03*
D376*
X-97750Y150550D02*
D03*
D377*
X-89400Y163417D02*
D03*
D378*
X86800Y80313D02*
D03*
D379*
X52800Y197636D02*
D03*
D380*
X51800Y243050D02*
D03*
D381*
X-70850Y239300D02*
D03*
D382*
X-92650Y224850D02*
D03*
D383*
X-88200Y225550D02*
D03*
D384*
X-98531Y218058D02*
D03*
D385*
X-92550Y217300D02*
D03*
D386*
X-95625Y224225D02*
D03*
D387*
X-97757Y218308D02*
D03*
D388*
X-91850Y217200D02*
D03*
D389*
X-96364Y209050D02*
D03*
D390*
X-92650Y200250D02*
D03*
D391*
X-91350Y211650D02*
D03*
D392*
X42036Y207518D02*
D03*
D393*
X89155Y203055D02*
D03*
D394*
X-92900Y96050D02*
D03*
D395*
X95996Y127122D02*
D03*
D396*
X109450Y100200D02*
D03*
D397*
X13350Y218500D02*
D03*
D398*
X-65350Y98850D02*
D03*
D399*
X2500Y22179D02*
D03*
D400*
X48350Y64350D02*
D03*
D401*
X76399Y77061D02*
D03*
D402*
X-27600Y39759D02*
D03*
D403*
X31000Y9962D02*
D03*
D404*
X12450Y19199D02*
D03*
X17500D02*
D03*
D405*
X7500Y22050D02*
D03*
X-22400Y22150D02*
D03*
D406*
X-27500Y19299D02*
D03*
D407*
X37609Y8850D02*
D03*
D408*
X23100Y9863D02*
D03*
D409*
X38550Y11450D02*
D03*
D410*
X22250Y14750D02*
D03*
D411*
X30300Y11575D02*
D03*
D412*
X68100Y16300D02*
D03*
D413*
X-57650Y101150D02*
D03*
D414*
X-17900Y22150D02*
D03*
D415*
X35350Y68531D02*
D03*
D416*
X46250Y70000D02*
D03*
D417*
X22500Y102872D02*
D03*
D418*
X126200Y123229D02*
D03*
D419*
Y132850D02*
D03*
D420*
X104400Y160650D02*
D03*
D421*
X7250Y86200D02*
D03*
D422*
X10150Y81250D02*
D03*
D423*
X90900Y152300D02*
D03*
D424*
X75000Y116450D02*
D03*
D425*
X88400Y127200D02*
D03*
D426*
X100450Y127950D02*
D03*
D427*
X86400Y110450D02*
D03*
D428*
X68050Y151550D02*
D03*
D429*
X22600Y152350D02*
D03*
D430*
X85700Y120721D02*
D03*
D431*
X99700Y142200D02*
D03*
D432*
X104250Y164150D02*
D03*
D433*
X-62686Y214019D02*
D03*
D434*
X101711Y215611D02*
D03*
D435*
X7028Y104400D02*
D03*
D436*
X27050Y113100D02*
D03*
D437*
X43750Y106600D02*
D03*
D438*
X32100Y125550D02*
D03*
D439*
X91100Y74550D02*
D03*
D440*
X87682Y68900D02*
D03*
D441*
X99400Y109450D02*
D03*
D442*
X-81521Y211950D02*
D03*
D443*
X60150Y14450D02*
D03*
D444*
X10250Y220150D02*
D03*
D445*
X90400Y204050D02*
D03*
D446*
X123800Y165600D02*
D03*
D447*
X53800Y172250D02*
D03*
D448*
X64650Y119050D02*
D03*
D449*
X90950Y116350D02*
D03*
D450*
X85400Y149950D02*
D03*
D451*
X32400Y150300D02*
D03*
D452*
X20665Y202650D02*
D03*
D453*
X65300Y216250D02*
D03*
D454*
X63350Y119900D02*
D03*
D455*
X22600Y120450D02*
D03*
D456*
X-93800Y183950D02*
D03*
D457*
X80650Y116550D02*
D03*
D458*
X81900Y197550D02*
D03*
D459*
X77950Y202800D02*
D03*
D460*
X-87100Y215982D02*
D03*
D461*
X-45400Y226650D02*
D03*
D462*
X97876Y207876D02*
D03*
D463*
X-31250Y203444D02*
D03*
D464*
X-29236Y202976D02*
D03*
D465*
X55050Y223700D02*
D03*
D466*
X45800Y221150D02*
D03*
D467*
X54300Y213200D02*
D03*
D468*
X52350Y250900D02*
D03*
D469*
X27550Y243200D02*
D03*
D470*
X38400Y202400D02*
D03*
D471*
X21050Y213927D02*
D03*
D472*
X17250Y208200D02*
D03*
D473*
X3200Y209050D02*
D03*
D474*
X59250Y21750D02*
D03*
D475*
X14000Y213450D02*
D03*
D476*
X83150Y162000D02*
D03*
D477*
X-49000Y21989D02*
D03*
D478*
X-57134Y27500D02*
D03*
D479*
X-61300Y32850D02*
D03*
D480*
X-42600Y42150D02*
D03*
D481*
X-64497Y192700D02*
D03*
D482*
X-45650Y234650D02*
D03*
D483*
X25800Y223050D02*
D03*
D484*
X37100Y214400D02*
D03*
Y209400D02*
D03*
D485*
X48900Y229850D02*
D03*
D486*
X61900Y223650D02*
D03*
D487*
X54300Y218400D02*
D03*
D488*
X58250Y206187D02*
D03*
D489*
X55800Y203150D02*
D03*
D490*
X44500Y210750D02*
D03*
D491*
X45900Y198319D02*
D03*
D492*
X36058Y235800D02*
D03*
D493*
X-61463Y229200D02*
D03*
D494*
X31700Y118050D02*
D03*
D495*
X37300Y116350D02*
D03*
D496*
X27350Y149050D02*
D03*
D497*
X35100Y135750D02*
D03*
D498*
X37250Y148150D02*
D03*
D499*
X58050Y150600D02*
D03*
D500*
X63250Y148350D02*
D03*
D501*
X66700Y162198D02*
D03*
D502*
X77150Y139850D02*
D03*
D503*
X79950Y149050D02*
D03*
D504*
X88350Y138250D02*
D03*
D505*
X63450Y135048D02*
D03*
D506*
X46750Y134050D02*
D03*
D507*
X10750Y132998D02*
D03*
D508*
X8850Y163100D02*
D03*
D509*
X47000Y123800D02*
D03*
D510*
X36550Y163296D02*
D03*
D511*
X63300D02*
D03*
D512*
X47400Y150300D02*
D03*
D513*
X10650Y154019D02*
D03*
D514*
X10550Y126800D02*
D03*
D515*
X32950Y18700D02*
D03*
D516*
X-53200Y203600D02*
D03*
D517*
X83900Y223050D02*
D03*
D518*
X-84064Y208250D02*
D03*
D519*
X69000Y200250D02*
D03*
D520*
X37300Y21750D02*
D03*
D521*
X-73522Y194619D02*
D03*
D522*
X-71671Y210750D02*
D03*
D523*
X-73486Y228519D02*
D03*
D524*
X-84561Y193425D02*
D03*
D525*
X-47236Y199019D02*
D03*
D526*
X-50336Y195400D02*
D03*
D527*
X-66071Y195150D02*
D03*
D528*
X-58700Y192950D02*
D03*
D529*
X-58986Y201200D02*
D03*
D530*
X-53736Y208537D02*
D03*
D531*
X77800Y192100D02*
D03*
D532*
X68450Y207919D02*
D03*
D533*
X28514Y194600D02*
D03*
M02*
