G04*
G04 #@! TF.GenerationSoftware,Altium Limited,Altium Designer,22.1.2 (22)*
G04*
G04 Layer_Color=65535*
%FSLAX25Y25*%
%MOIN*%
G70*
G04*
G04 #@! TF.SameCoordinates,718D4045-E2B1-425D-88C3-508A2C93E544*
G04*
G04*
G04 #@! TF.FilePolarity,Positive*
G04*
G01*
G75*
%ADD10C,0.00500*%
%ADD11C,0.01000*%
%ADD12C,0.00492*%
%ADD13C,0.00800*%
%ADD14C,0.00787*%
%ADD15C,0.00472*%
%ADD16C,0.00700*%
%ADD17R,0.07038X0.03700*%
%ADD18R,0.02138X0.03500*%
%ADD19R,0.01960X0.02772*%
%ADD20R,0.11195X0.04595*%
%ADD21R,0.03500X0.07600*%
%ADD22R,0.02761X0.01138*%
%ADD23R,0.01700X0.04000*%
%ADD24R,0.04300X0.01200*%
G36*
X-94126Y96818D02*
Y89600D01*
X-127100D01*
Y96818D01*
X-94126D01*
D02*
G37*
G36*
X119698Y167799D02*
Y162700D01*
X105000D01*
Y167799D01*
X119698D01*
D02*
G37*
G36*
X-13492Y123800D02*
X-18100D01*
Y131400D01*
X-13492D01*
Y123800D01*
D02*
G37*
G36*
X31900Y20900D02*
X30000D01*
Y27323D01*
X31900D01*
Y20900D01*
D02*
G37*
G36*
X-93946Y160357D02*
X-119080D01*
Y167575D01*
X-93946D01*
Y160357D01*
D02*
G37*
G36*
X-30285Y58600D02*
X-42700D01*
Y63911D01*
X-30285D01*
Y58600D01*
D02*
G37*
G36*
X119630Y172200D02*
X109500D01*
Y177063D01*
X119630D01*
Y172200D01*
D02*
G37*
G36*
X-128000Y159100D02*
Y134900D01*
X-133561D01*
Y159100D01*
X-128000D01*
D02*
G37*
G36*
X38115Y251200D02*
X25700D01*
Y256511D01*
X38115D01*
Y251200D01*
D02*
G37*
G36*
X26900Y20900D02*
X25000D01*
Y27323D01*
X26900D01*
Y20900D01*
D02*
G37*
G36*
X36800D02*
X35000D01*
Y27325D01*
X36800D01*
Y20900D01*
D02*
G37*
G36*
X-26428Y243370D02*
X-26347Y243363D01*
X-26259Y243356D01*
X-26164Y243341D01*
X-26062Y243326D01*
X-25842Y243282D01*
X-25615Y243209D01*
X-25505Y243165D01*
X-25403Y243107D01*
X-25300Y243048D01*
X-25212Y242975D01*
X-25205Y242968D01*
X-25190Y242953D01*
X-25168Y242931D01*
X-25139Y242902D01*
X-25103Y242865D01*
X-25066Y242814D01*
X-25022Y242755D01*
X-24978Y242689D01*
X-24934Y242616D01*
X-24898Y242536D01*
X-24817Y242360D01*
X-24788Y242258D01*
X-24759Y242148D01*
X-24737Y242031D01*
X-24729Y241914D01*
X-25703Y241877D01*
Y241884D01*
Y241892D01*
X-25717Y241936D01*
X-25732Y242001D01*
X-25761Y242082D01*
X-25798Y242170D01*
X-25842Y242258D01*
X-25901Y242338D01*
X-25974Y242404D01*
X-25981Y242411D01*
X-26010Y242433D01*
X-26054Y242455D01*
X-26120Y242492D01*
X-26208Y242521D01*
X-26310Y242543D01*
X-26435Y242565D01*
X-26581Y242572D01*
X-26647D01*
X-26728Y242565D01*
X-26823Y242550D01*
X-26925Y242529D01*
X-27035Y242499D01*
X-27145Y242455D01*
X-27240Y242397D01*
X-27247Y242389D01*
X-27262Y242375D01*
X-27284Y242353D01*
X-27313Y242316D01*
X-27343Y242272D01*
X-27365Y242221D01*
X-27379Y242162D01*
X-27387Y242097D01*
Y242089D01*
Y242067D01*
X-27379Y242038D01*
X-27372Y241994D01*
X-27350Y241950D01*
X-27328Y241899D01*
X-27291Y241855D01*
X-27247Y241804D01*
X-27240Y241796D01*
X-27211Y241775D01*
X-27152Y241745D01*
X-27116Y241731D01*
X-27064Y241709D01*
X-27013Y241679D01*
X-26947Y241657D01*
X-26881Y241628D01*
X-26794Y241606D01*
X-26706Y241577D01*
X-26603Y241548D01*
X-26486Y241511D01*
X-26362Y241482D01*
X-26354D01*
X-26332Y241474D01*
X-26296Y241467D01*
X-26245Y241452D01*
X-26186Y241438D01*
X-26120Y241416D01*
X-25966Y241379D01*
X-25791Y241321D01*
X-25622Y241269D01*
X-25454Y241204D01*
X-25381Y241174D01*
X-25315Y241138D01*
X-25308D01*
X-25300Y241130D01*
X-25256Y241108D01*
X-25198Y241065D01*
X-25125Y241013D01*
X-25037Y240940D01*
X-24949Y240860D01*
X-24868Y240757D01*
X-24788Y240647D01*
X-24781Y240633D01*
X-24759Y240596D01*
X-24722Y240523D01*
X-24685Y240435D01*
X-24656Y240325D01*
X-24620Y240193D01*
X-24598Y240047D01*
X-24590Y239886D01*
Y239879D01*
Y239864D01*
Y239842D01*
Y239813D01*
X-24605Y239732D01*
X-24620Y239630D01*
X-24649Y239513D01*
X-24685Y239381D01*
X-24744Y239242D01*
X-24825Y239103D01*
Y239095D01*
X-24832Y239088D01*
X-24868Y239044D01*
X-24920Y238978D01*
X-24993Y238905D01*
X-25081Y238817D01*
X-25198Y238729D01*
X-25322Y238642D01*
X-25476Y238568D01*
X-25483D01*
X-25498Y238561D01*
X-25520Y238554D01*
X-25549Y238539D01*
X-25593Y238532D01*
X-25637Y238517D01*
X-25696Y238503D01*
X-25761Y238488D01*
X-25915Y238451D01*
X-26091Y238429D01*
X-26289Y238407D01*
X-26515Y238400D01*
X-26603D01*
X-26669Y238407D01*
X-26742Y238415D01*
X-26830Y238422D01*
X-26925Y238437D01*
X-27035Y238451D01*
X-27262Y238503D01*
X-27379Y238539D01*
X-27496Y238576D01*
X-27606Y238627D01*
X-27716Y238678D01*
X-27826Y238744D01*
X-27921Y238817D01*
X-27928Y238825D01*
X-27943Y238839D01*
X-27965Y238861D01*
X-28001Y238898D01*
X-28038Y238942D01*
X-28082Y238993D01*
X-28126Y239059D01*
X-28177Y239125D01*
X-28228Y239212D01*
X-28280Y239300D01*
X-28323Y239403D01*
X-28375Y239513D01*
X-28411Y239630D01*
X-28448Y239761D01*
X-28477Y239901D01*
X-28499Y240047D01*
X-27555Y240142D01*
Y240135D01*
X-27547Y240120D01*
Y240098D01*
X-27540Y240062D01*
X-27518Y239981D01*
X-27482Y239871D01*
X-27438Y239761D01*
X-27379Y239644D01*
X-27306Y239535D01*
X-27218Y239439D01*
X-27204Y239432D01*
X-27167Y239403D01*
X-27108Y239374D01*
X-27028Y239330D01*
X-26925Y239293D01*
X-26808Y239256D01*
X-26669Y239227D01*
X-26508Y239220D01*
X-26428D01*
X-26347Y239227D01*
X-26245Y239242D01*
X-26127Y239271D01*
X-26010Y239300D01*
X-25901Y239352D01*
X-25805Y239418D01*
X-25798Y239425D01*
X-25769Y239454D01*
X-25732Y239491D01*
X-25681Y239549D01*
X-25637Y239615D01*
X-25600Y239696D01*
X-25571Y239784D01*
X-25564Y239879D01*
Y239886D01*
Y239908D01*
X-25571Y239937D01*
X-25578Y239981D01*
X-25608Y240069D01*
X-25630Y240120D01*
X-25666Y240164D01*
X-25674Y240171D01*
X-25688Y240186D01*
X-25710Y240208D01*
X-25747Y240237D01*
X-25798Y240274D01*
X-25857Y240303D01*
X-25930Y240340D01*
X-26018Y240376D01*
X-26025D01*
X-26054Y240391D01*
X-26105Y240406D01*
X-26179Y240428D01*
X-26223Y240442D01*
X-26281Y240457D01*
X-26340Y240472D01*
X-26413Y240493D01*
X-26493Y240515D01*
X-26581Y240537D01*
X-26676Y240559D01*
X-26786Y240589D01*
X-26794D01*
X-26823Y240596D01*
X-26859Y240611D01*
X-26911Y240625D01*
X-26977Y240640D01*
X-27050Y240662D01*
X-27211Y240720D01*
X-27394Y240786D01*
X-27577Y240867D01*
X-27738Y240962D01*
X-27811Y241013D01*
X-27877Y241065D01*
X-27884Y241072D01*
X-27899Y241086D01*
X-27921Y241108D01*
X-27943Y241138D01*
X-27979Y241174D01*
X-28016Y241218D01*
X-28053Y241277D01*
X-28097Y241335D01*
X-28177Y241474D01*
X-28250Y241643D01*
X-28272Y241731D01*
X-28294Y241826D01*
X-28309Y241928D01*
X-28316Y242031D01*
Y242038D01*
Y242045D01*
Y242067D01*
Y242097D01*
X-28302Y242162D01*
X-28287Y242258D01*
X-28265Y242360D01*
X-28228Y242477D01*
X-28177Y242594D01*
X-28111Y242719D01*
Y242726D01*
X-28104Y242733D01*
X-28075Y242770D01*
X-28023Y242829D01*
X-27957Y242902D01*
X-27877Y242982D01*
X-27774Y243063D01*
X-27657Y243143D01*
X-27518Y243209D01*
X-27511D01*
X-27504Y243217D01*
X-27474Y243224D01*
X-27445Y243238D01*
X-27408Y243246D01*
X-27365Y243261D01*
X-27255Y243297D01*
X-27116Y243326D01*
X-26955Y243348D01*
X-26772Y243370D01*
X-26574Y243378D01*
X-26486D01*
X-26428Y243370D01*
D02*
G37*
G36*
X-30907D02*
X-30827Y243363D01*
X-30739Y243356D01*
X-30644Y243341D01*
X-30541Y243326D01*
X-30322Y243282D01*
X-30095Y243209D01*
X-29985Y243165D01*
X-29883Y243107D01*
X-29780Y243048D01*
X-29692Y242975D01*
X-29685Y242968D01*
X-29670Y242953D01*
X-29648Y242931D01*
X-29619Y242902D01*
X-29583Y242865D01*
X-29546Y242814D01*
X-29502Y242755D01*
X-29458Y242689D01*
X-29414Y242616D01*
X-29377Y242536D01*
X-29297Y242360D01*
X-29268Y242258D01*
X-29238Y242148D01*
X-29217Y242031D01*
X-29209Y241914D01*
X-30183Y241877D01*
Y241884D01*
Y241892D01*
X-30197Y241936D01*
X-30212Y242001D01*
X-30241Y242082D01*
X-30278Y242170D01*
X-30322Y242258D01*
X-30380Y242338D01*
X-30454Y242404D01*
X-30461Y242411D01*
X-30490Y242433D01*
X-30534Y242455D01*
X-30600Y242492D01*
X-30688Y242521D01*
X-30790Y242543D01*
X-30915Y242565D01*
X-31061Y242572D01*
X-31127D01*
X-31207Y242565D01*
X-31303Y242550D01*
X-31405Y242529D01*
X-31515Y242499D01*
X-31625Y242455D01*
X-31720Y242397D01*
X-31727Y242389D01*
X-31742Y242375D01*
X-31764Y242353D01*
X-31793Y242316D01*
X-31822Y242272D01*
X-31844Y242221D01*
X-31859Y242162D01*
X-31866Y242097D01*
Y242089D01*
Y242067D01*
X-31859Y242038D01*
X-31852Y241994D01*
X-31830Y241950D01*
X-31808Y241899D01*
X-31771Y241855D01*
X-31727Y241804D01*
X-31720Y241796D01*
X-31691Y241775D01*
X-31632Y241745D01*
X-31596Y241731D01*
X-31544Y241709D01*
X-31493Y241679D01*
X-31427Y241657D01*
X-31361Y241628D01*
X-31273Y241606D01*
X-31186Y241577D01*
X-31083Y241548D01*
X-30966Y241511D01*
X-30841Y241482D01*
X-30834D01*
X-30812Y241474D01*
X-30776Y241467D01*
X-30724Y241452D01*
X-30666Y241438D01*
X-30600Y241416D01*
X-30446Y241379D01*
X-30271Y241321D01*
X-30102Y241269D01*
X-29934Y241204D01*
X-29861Y241174D01*
X-29795Y241138D01*
X-29787D01*
X-29780Y241130D01*
X-29736Y241108D01*
X-29678Y241065D01*
X-29604Y241013D01*
X-29517Y240940D01*
X-29429Y240860D01*
X-29348Y240757D01*
X-29268Y240647D01*
X-29260Y240633D01*
X-29238Y240596D01*
X-29202Y240523D01*
X-29165Y240435D01*
X-29136Y240325D01*
X-29099Y240193D01*
X-29077Y240047D01*
X-29070Y239886D01*
Y239879D01*
Y239864D01*
Y239842D01*
Y239813D01*
X-29085Y239732D01*
X-29099Y239630D01*
X-29129Y239513D01*
X-29165Y239381D01*
X-29224Y239242D01*
X-29304Y239103D01*
Y239095D01*
X-29312Y239088D01*
X-29348Y239044D01*
X-29399Y238978D01*
X-29473Y238905D01*
X-29561Y238817D01*
X-29678Y238729D01*
X-29802Y238642D01*
X-29956Y238568D01*
X-29963D01*
X-29978Y238561D01*
X-30000Y238554D01*
X-30029Y238539D01*
X-30073Y238532D01*
X-30117Y238517D01*
X-30175Y238503D01*
X-30241Y238488D01*
X-30395Y238451D01*
X-30571Y238429D01*
X-30768Y238407D01*
X-30995Y238400D01*
X-31083D01*
X-31149Y238407D01*
X-31222Y238415D01*
X-31310Y238422D01*
X-31405Y238437D01*
X-31515Y238451D01*
X-31742Y238503D01*
X-31859Y238539D01*
X-31976Y238576D01*
X-32086Y238627D01*
X-32196Y238678D01*
X-32305Y238744D01*
X-32401Y238817D01*
X-32408Y238825D01*
X-32423Y238839D01*
X-32445Y238861D01*
X-32481Y238898D01*
X-32518Y238942D01*
X-32562Y238993D01*
X-32606Y239059D01*
X-32657Y239125D01*
X-32708Y239212D01*
X-32759Y239300D01*
X-32803Y239403D01*
X-32855Y239513D01*
X-32891Y239630D01*
X-32928Y239761D01*
X-32957Y239901D01*
X-32979Y240047D01*
X-32035Y240142D01*
Y240135D01*
X-32027Y240120D01*
Y240098D01*
X-32020Y240062D01*
X-31998Y239981D01*
X-31962Y239871D01*
X-31918Y239761D01*
X-31859Y239644D01*
X-31786Y239535D01*
X-31698Y239439D01*
X-31683Y239432D01*
X-31647Y239403D01*
X-31588Y239374D01*
X-31508Y239330D01*
X-31405Y239293D01*
X-31288Y239256D01*
X-31149Y239227D01*
X-30988Y239220D01*
X-30907D01*
X-30827Y239227D01*
X-30724Y239242D01*
X-30607Y239271D01*
X-30490Y239300D01*
X-30380Y239352D01*
X-30285Y239418D01*
X-30278Y239425D01*
X-30249Y239454D01*
X-30212Y239491D01*
X-30161Y239549D01*
X-30117Y239615D01*
X-30080Y239696D01*
X-30051Y239784D01*
X-30044Y239879D01*
Y239886D01*
Y239908D01*
X-30051Y239937D01*
X-30058Y239981D01*
X-30088Y240069D01*
X-30110Y240120D01*
X-30146Y240164D01*
X-30153Y240171D01*
X-30168Y240186D01*
X-30190Y240208D01*
X-30227Y240237D01*
X-30278Y240274D01*
X-30336Y240303D01*
X-30410Y240340D01*
X-30498Y240376D01*
X-30505D01*
X-30534Y240391D01*
X-30585Y240406D01*
X-30659Y240428D01*
X-30702Y240442D01*
X-30761Y240457D01*
X-30820Y240472D01*
X-30893Y240493D01*
X-30973Y240515D01*
X-31061Y240537D01*
X-31156Y240559D01*
X-31266Y240589D01*
X-31273D01*
X-31303Y240596D01*
X-31339Y240611D01*
X-31391Y240625D01*
X-31456Y240640D01*
X-31530Y240662D01*
X-31691Y240720D01*
X-31874Y240786D01*
X-32057Y240867D01*
X-32218Y240962D01*
X-32291Y241013D01*
X-32357Y241065D01*
X-32364Y241072D01*
X-32379Y241086D01*
X-32401Y241108D01*
X-32423Y241138D01*
X-32459Y241174D01*
X-32496Y241218D01*
X-32532Y241277D01*
X-32576Y241335D01*
X-32657Y241474D01*
X-32730Y241643D01*
X-32752Y241731D01*
X-32774Y241826D01*
X-32789Y241928D01*
X-32796Y242031D01*
Y242038D01*
Y242045D01*
Y242067D01*
Y242097D01*
X-32781Y242162D01*
X-32767Y242258D01*
X-32745Y242360D01*
X-32708Y242477D01*
X-32657Y242594D01*
X-32591Y242719D01*
Y242726D01*
X-32584Y242733D01*
X-32554Y242770D01*
X-32503Y242829D01*
X-32437Y242902D01*
X-32357Y242982D01*
X-32254Y243063D01*
X-32137Y243143D01*
X-31998Y243209D01*
X-31991D01*
X-31983Y243217D01*
X-31954Y243224D01*
X-31925Y243238D01*
X-31888Y243246D01*
X-31844Y243261D01*
X-31735Y243297D01*
X-31596Y243326D01*
X-31434Y243348D01*
X-31251Y243370D01*
X-31054Y243378D01*
X-30966D01*
X-30907Y243370D01*
D02*
G37*
G36*
X-8120D02*
X-8047Y243363D01*
X-7959Y243348D01*
X-7864Y243334D01*
X-7762Y243312D01*
X-7644Y243282D01*
X-7535Y243246D01*
X-7410Y243209D01*
X-7293Y243158D01*
X-7176Y243092D01*
X-7059Y243026D01*
X-6949Y242946D01*
X-6839Y242851D01*
X-6832D01*
X-6825Y242836D01*
X-6788Y242792D01*
X-6729Y242726D01*
X-6656Y242624D01*
X-6576Y242499D01*
X-6488Y242353D01*
X-6407Y242177D01*
X-6341Y241972D01*
X-7300Y241745D01*
Y241753D01*
X-7308Y241760D01*
X-7315Y241804D01*
X-7344Y241870D01*
X-7381Y241957D01*
X-7425Y242053D01*
X-7491Y242148D01*
X-7564Y242243D01*
X-7659Y242331D01*
X-7674Y242338D01*
X-7710Y242367D01*
X-7762Y242404D01*
X-7842Y242441D01*
X-7937Y242485D01*
X-8054Y242514D01*
X-8179Y242543D01*
X-8318Y242550D01*
X-8369D01*
X-8406Y242543D01*
X-8450Y242536D01*
X-8501Y242529D01*
X-8625Y242499D01*
X-8764Y242455D01*
X-8911Y242389D01*
X-8977Y242345D01*
X-9050Y242294D01*
X-9116Y242228D01*
X-9182Y242162D01*
Y242155D01*
X-9196Y242148D01*
X-9211Y242119D01*
X-9233Y242089D01*
X-9255Y242045D01*
X-9284Y241994D01*
X-9313Y241936D01*
X-9343Y241862D01*
X-9379Y241782D01*
X-9409Y241694D01*
X-9438Y241592D01*
X-9460Y241474D01*
X-9482Y241357D01*
X-9496Y241218D01*
X-9504Y241072D01*
X-9511Y240918D01*
Y240911D01*
Y240881D01*
Y240830D01*
X-9504Y240772D01*
Y240691D01*
X-9496Y240611D01*
X-9482Y240515D01*
X-9467Y240413D01*
X-9431Y240201D01*
X-9372Y239981D01*
X-9335Y239879D01*
X-9291Y239784D01*
X-9247Y239696D01*
X-9189Y239615D01*
X-9182Y239608D01*
X-9174Y239600D01*
X-9130Y239557D01*
X-9057Y239498D01*
X-8962Y239425D01*
X-8838Y239352D01*
X-8691Y239293D01*
X-8523Y239249D01*
X-8435Y239242D01*
X-8340Y239234D01*
X-8303D01*
X-8274Y239242D01*
X-8201Y239249D01*
X-8113Y239264D01*
X-8003Y239293D01*
X-7893Y239337D01*
X-7784Y239395D01*
X-7674Y239476D01*
X-7659Y239491D01*
X-7630Y239520D01*
X-7579Y239586D01*
X-7520Y239666D01*
X-7454Y239776D01*
X-7388Y239915D01*
X-7322Y240069D01*
X-7271Y240259D01*
X-6327Y239967D01*
Y239959D01*
X-6334Y239930D01*
X-6349Y239893D01*
X-6371Y239835D01*
X-6393Y239769D01*
X-6422Y239696D01*
X-6459Y239608D01*
X-6503Y239520D01*
X-6598Y239330D01*
X-6722Y239132D01*
X-6876Y238949D01*
X-6956Y238861D01*
X-7051Y238788D01*
X-7059Y238781D01*
X-7074Y238773D01*
X-7103Y238751D01*
X-7139Y238729D01*
X-7191Y238700D01*
X-7249Y238671D01*
X-7322Y238634D01*
X-7403Y238598D01*
X-7491Y238561D01*
X-7586Y238524D01*
X-7688Y238495D01*
X-7798Y238466D01*
X-7923Y238444D01*
X-8047Y238422D01*
X-8186Y238415D01*
X-8325Y238407D01*
X-8369D01*
X-8420Y238415D01*
X-8486D01*
X-8567Y238429D01*
X-8662Y238444D01*
X-8764Y238459D01*
X-8882Y238488D01*
X-9006Y238524D01*
X-9130Y238568D01*
X-9262Y238620D01*
X-9394Y238685D01*
X-9526Y238759D01*
X-9657Y238846D01*
X-9782Y238942D01*
X-9899Y239059D01*
X-9906Y239066D01*
X-9928Y239088D01*
X-9958Y239125D01*
X-9994Y239176D01*
X-10038Y239242D01*
X-10097Y239322D01*
X-10148Y239418D01*
X-10206Y239527D01*
X-10265Y239644D01*
X-10316Y239784D01*
X-10368Y239930D01*
X-10419Y240091D01*
X-10455Y240259D01*
X-10485Y240442D01*
X-10507Y240640D01*
X-10514Y240845D01*
Y240860D01*
Y240896D01*
X-10507Y240962D01*
Y241042D01*
X-10492Y241145D01*
X-10485Y241262D01*
X-10463Y241387D01*
X-10433Y241526D01*
X-10404Y241679D01*
X-10360Y241826D01*
X-10316Y241987D01*
X-10258Y242141D01*
X-10185Y242294D01*
X-10104Y242441D01*
X-10009Y242580D01*
X-9899Y242711D01*
X-9892Y242719D01*
X-9870Y242741D01*
X-9833Y242770D01*
X-9789Y242814D01*
X-9723Y242865D01*
X-9650Y242924D01*
X-9562Y242982D01*
X-9460Y243048D01*
X-9350Y243107D01*
X-9226Y243165D01*
X-9094Y243224D01*
X-8947Y243275D01*
X-8794Y243319D01*
X-8625Y243348D01*
X-8450Y243370D01*
X-8267Y243378D01*
X-8179D01*
X-8120Y243370D01*
D02*
G37*
G36*
X1044Y239769D02*
X-764D01*
Y240691D01*
X1044D01*
Y239769D01*
D02*
G37*
G36*
X-15360D02*
X-17168D01*
Y240691D01*
X-15360D01*
Y239769D01*
D02*
G37*
G36*
X-22072D02*
X-23880D01*
Y240691D01*
X-22072D01*
Y239769D01*
D02*
G37*
G36*
X9331Y238488D02*
X8504D01*
X7098Y241972D01*
X8064D01*
X8723Y240193D01*
X8913Y239593D01*
Y239600D01*
X8928Y239630D01*
X8935Y239666D01*
X8950Y239718D01*
X8987Y239813D01*
X9001Y239857D01*
X9009Y239893D01*
Y239901D01*
X9016Y239915D01*
X9023Y239945D01*
X9038Y239988D01*
X9067Y240084D01*
X9104Y240193D01*
X9770Y241972D01*
X10714D01*
X9331Y238488D01*
D02*
G37*
G36*
X12705Y243304D02*
X12764Y243297D01*
X12830Y243290D01*
X12910Y243275D01*
X12991Y243261D01*
X13159Y243202D01*
X13254Y243173D01*
X13342Y243129D01*
X13430Y243077D01*
X13525Y243019D01*
X13605Y242953D01*
X13686Y242873D01*
X13693Y242865D01*
X13701Y242858D01*
X13715Y242836D01*
X13737Y242814D01*
X13796Y242741D01*
X13862Y242638D01*
X13920Y242521D01*
X13979Y242389D01*
X14015Y242236D01*
X14030Y242155D01*
Y242075D01*
Y242067D01*
Y242045D01*
X14023Y242016D01*
Y241972D01*
X14008Y241914D01*
X13994Y241855D01*
X13972Y241789D01*
X13942Y241716D01*
X13906Y241635D01*
X13862Y241555D01*
X13803Y241467D01*
X13737Y241387D01*
X13657Y241299D01*
X13562Y241218D01*
X13459Y241138D01*
X13335Y241065D01*
X13342D01*
X13357Y241057D01*
X13371D01*
X13401Y241050D01*
X13481Y241021D01*
X13569Y240984D01*
X13679Y240933D01*
X13789Y240860D01*
X13891Y240772D01*
X13994Y240669D01*
X14001Y240655D01*
X14030Y240618D01*
X14074Y240552D01*
X14118Y240464D01*
X14162Y240354D01*
X14206Y240223D01*
X14235Y240084D01*
X14242Y239923D01*
Y239915D01*
Y239893D01*
Y239864D01*
X14235Y239820D01*
X14228Y239761D01*
X14220Y239703D01*
X14206Y239630D01*
X14184Y239549D01*
X14125Y239381D01*
X14089Y239293D01*
X14045Y239205D01*
X13994Y239110D01*
X13928Y239022D01*
X13854Y238934D01*
X13774Y238846D01*
X13767Y238839D01*
X13752Y238825D01*
X13730Y238803D01*
X13693Y238781D01*
X13649Y238744D01*
X13591Y238707D01*
X13532Y238664D01*
X13459Y238627D01*
X13379Y238583D01*
X13291Y238539D01*
X13196Y238503D01*
X13093Y238473D01*
X12983Y238444D01*
X12874Y238422D01*
X12749Y238407D01*
X12625Y238400D01*
X12559D01*
X12515Y238407D01*
X12456Y238415D01*
X12390Y238422D01*
X12317Y238429D01*
X12244Y238444D01*
X12068Y238488D01*
X11885Y238561D01*
X11797Y238598D01*
X11702Y238649D01*
X11614Y238707D01*
X11534Y238773D01*
X11527Y238781D01*
X11519Y238788D01*
X11497Y238810D01*
X11468Y238839D01*
X11432Y238876D01*
X11395Y238927D01*
X11358Y238978D01*
X11314Y239037D01*
X11226Y239176D01*
X11146Y239344D01*
X11080Y239535D01*
X11058Y239644D01*
X11044Y239754D01*
X11937Y239864D01*
Y239857D01*
Y239849D01*
X11944Y239805D01*
X11958Y239747D01*
X11981Y239666D01*
X12010Y239586D01*
X12046Y239498D01*
X12098Y239410D01*
X12163Y239337D01*
X12171Y239330D01*
X12200Y239308D01*
X12237Y239278D01*
X12295Y239249D01*
X12361Y239220D01*
X12434Y239191D01*
X12522Y239169D01*
X12617Y239161D01*
X12669D01*
X12720Y239176D01*
X12786Y239191D01*
X12859Y239212D01*
X12939Y239249D01*
X13020Y239300D01*
X13100Y239374D01*
X13108Y239381D01*
X13130Y239418D01*
X13166Y239461D01*
X13203Y239527D01*
X13232Y239615D01*
X13269Y239718D01*
X13291Y239835D01*
X13298Y239967D01*
Y239974D01*
Y239981D01*
Y240025D01*
X13291Y240091D01*
X13276Y240171D01*
X13254Y240259D01*
X13218Y240347D01*
X13174Y240442D01*
X13108Y240523D01*
X13100Y240530D01*
X13071Y240552D01*
X13035Y240589D01*
X12976Y240625D01*
X12910Y240662D01*
X12830Y240699D01*
X12742Y240720D01*
X12647Y240728D01*
X12581D01*
X12529Y240720D01*
X12471Y240713D01*
X12398Y240699D01*
X12317Y240676D01*
X12229Y240655D01*
X12332Y241401D01*
X12390D01*
X12464Y241408D01*
X12544Y241416D01*
X12632Y241430D01*
X12727Y241460D01*
X12822Y241504D01*
X12903Y241555D01*
X12910Y241562D01*
X12932Y241584D01*
X12969Y241628D01*
X13005Y241679D01*
X13042Y241745D01*
X13079Y241826D01*
X13100Y241914D01*
X13108Y242016D01*
Y242023D01*
Y242060D01*
X13100Y242104D01*
X13093Y242155D01*
X13071Y242214D01*
X13049Y242280D01*
X13013Y242345D01*
X12961Y242404D01*
X12954Y242411D01*
X12932Y242426D01*
X12903Y242448D01*
X12859Y242477D01*
X12800Y242507D01*
X12734Y242529D01*
X12654Y242543D01*
X12566Y242550D01*
X12529D01*
X12486Y242543D01*
X12427Y242529D01*
X12361Y242507D01*
X12295Y242477D01*
X12222Y242441D01*
X12156Y242382D01*
X12149Y242375D01*
X12127Y242353D01*
X12105Y242316D01*
X12068Y242265D01*
X12032Y242192D01*
X12002Y242111D01*
X11973Y242016D01*
X11958Y241906D01*
X11109Y242045D01*
Y242053D01*
X11117Y242067D01*
Y242089D01*
X11124Y242119D01*
X11146Y242199D01*
X11175Y242302D01*
X11212Y242411D01*
X11256Y242529D01*
X11314Y242646D01*
X11373Y242748D01*
X11380Y242763D01*
X11410Y242792D01*
X11446Y242836D01*
X11505Y242902D01*
X11578Y242968D01*
X11658Y243034D01*
X11761Y243099D01*
X11871Y243158D01*
X11878D01*
X11885Y243165D01*
X11929Y243180D01*
X11995Y243209D01*
X12083Y243238D01*
X12193Y243261D01*
X12310Y243290D01*
X12449Y243304D01*
X12595Y243312D01*
X12661D01*
X12705Y243304D01*
D02*
G37*
G36*
X19381Y240259D02*
X19974D01*
Y239454D01*
X19381D01*
Y238488D01*
X18488D01*
Y239454D01*
X16519D01*
Y240252D01*
X18605Y243312D01*
X19381D01*
Y240259D01*
D02*
G37*
G36*
X15926Y238488D02*
X15004D01*
Y239410D01*
X15926D01*
Y238488D01*
D02*
G37*
G36*
X5048Y242485D02*
X3636D01*
Y238488D01*
X2662D01*
Y242485D01*
X1249D01*
Y243297D01*
X5048D01*
Y242485D01*
D02*
G37*
G36*
X-3252Y243290D02*
X-3113Y243282D01*
X-2974Y243275D01*
X-2843Y243261D01*
X-2725Y243246D01*
X-2711D01*
X-2674Y243238D01*
X-2623Y243224D01*
X-2557Y243202D01*
X-2476Y243180D01*
X-2389Y243143D01*
X-2308Y243099D01*
X-2220Y243048D01*
X-2213Y243041D01*
X-2184Y243019D01*
X-2140Y242990D01*
X-2089Y242938D01*
X-2037Y242880D01*
X-1971Y242814D01*
X-1913Y242733D01*
X-1854Y242646D01*
X-1847Y242631D01*
X-1832Y242602D01*
X-1803Y242550D01*
X-1774Y242485D01*
X-1752Y242397D01*
X-1723Y242302D01*
X-1708Y242199D01*
X-1701Y242082D01*
Y242067D01*
Y242023D01*
X-1708Y241957D01*
X-1723Y241877D01*
X-1744Y241782D01*
X-1781Y241679D01*
X-1825Y241570D01*
X-1884Y241460D01*
X-1891Y241445D01*
X-1920Y241416D01*
X-1957Y241365D01*
X-2015Y241306D01*
X-2089Y241233D01*
X-2169Y241167D01*
X-2272Y241101D01*
X-2381Y241042D01*
X-2374D01*
X-2359Y241035D01*
X-2337Y241028D01*
X-2308Y241021D01*
X-2228Y240984D01*
X-2132Y240940D01*
X-2023Y240881D01*
X-1913Y240808D01*
X-1803Y240713D01*
X-1708Y240603D01*
X-1701Y240589D01*
X-1671Y240552D01*
X-1635Y240486D01*
X-1584Y240398D01*
X-1540Y240289D01*
X-1503Y240171D01*
X-1474Y240032D01*
X-1466Y239879D01*
Y239864D01*
Y239820D01*
X-1474Y239761D01*
X-1488Y239674D01*
X-1503Y239579D01*
X-1532Y239469D01*
X-1569Y239359D01*
X-1620Y239242D01*
X-1627Y239227D01*
X-1649Y239191D01*
X-1686Y239132D01*
X-1730Y239066D01*
X-1788Y238986D01*
X-1862Y238905D01*
X-1942Y238817D01*
X-2037Y238744D01*
X-2052Y238737D01*
X-2081Y238715D01*
X-2140Y238685D01*
X-2220Y238649D01*
X-2316Y238605D01*
X-2425Y238568D01*
X-2550Y238539D01*
X-2689Y238517D01*
X-2718D01*
X-2740Y238510D01*
X-2813D01*
X-2864Y238503D01*
X-2996D01*
X-3084Y238495D01*
X-3282D01*
X-3406Y238488D01*
X-5492D01*
Y243297D01*
X-3377D01*
X-3252Y243290D01*
D02*
G37*
G36*
X-12886D02*
X-12790D01*
X-12593Y243282D01*
X-12402Y243268D01*
X-12315Y243261D01*
X-12234Y243246D01*
X-12168Y243238D01*
X-12110Y243224D01*
X-12102D01*
X-12088Y243217D01*
X-12073Y243209D01*
X-12044Y243202D01*
X-11963Y243173D01*
X-11868Y243121D01*
X-11758Y243063D01*
X-11648Y242975D01*
X-11531Y242873D01*
X-11422Y242748D01*
Y242741D01*
X-11407Y242733D01*
X-11392Y242711D01*
X-11378Y242682D01*
X-11356Y242646D01*
X-11334Y242602D01*
X-11275Y242499D01*
X-11224Y242360D01*
X-11180Y242199D01*
X-11151Y242016D01*
X-11136Y241811D01*
Y241804D01*
Y241789D01*
Y241767D01*
Y241738D01*
X-11143Y241657D01*
X-11158Y241555D01*
X-11173Y241438D01*
X-11202Y241313D01*
X-11246Y241189D01*
X-11297Y241072D01*
X-11304Y241057D01*
X-11326Y241021D01*
X-11363Y240969D01*
X-11407Y240903D01*
X-11466Y240823D01*
X-11539Y240742D01*
X-11619Y240669D01*
X-11707Y240596D01*
X-11714Y240589D01*
X-11751Y240567D01*
X-11802Y240537D01*
X-11861Y240508D01*
X-11941Y240464D01*
X-12022Y240428D01*
X-12117Y240398D01*
X-12212Y240369D01*
X-12227D01*
X-12249Y240362D01*
X-12278D01*
X-12315Y240354D01*
X-12359Y240347D01*
X-12410Y240340D01*
X-12468D01*
X-12534Y240333D01*
X-12607Y240325D01*
X-12688Y240318D01*
X-12783Y240311D01*
X-12878D01*
X-12981Y240303D01*
X-13845D01*
Y238488D01*
X-14818D01*
Y243297D01*
X-12973D01*
X-12886Y243290D01*
D02*
G37*
G36*
X-19598D02*
X-19503D01*
X-19305Y243282D01*
X-19115Y243268D01*
X-19027Y243261D01*
X-18947Y243246D01*
X-18881Y243238D01*
X-18822Y243224D01*
X-18815D01*
X-18800Y243217D01*
X-18786Y243209D01*
X-18756Y243202D01*
X-18676Y243173D01*
X-18580Y243121D01*
X-18471Y243063D01*
X-18361Y242975D01*
X-18244Y242873D01*
X-18134Y242748D01*
Y242741D01*
X-18119Y242733D01*
X-18105Y242711D01*
X-18090Y242682D01*
X-18068Y242646D01*
X-18046Y242602D01*
X-17988Y242499D01*
X-17936Y242360D01*
X-17892Y242199D01*
X-17863Y242016D01*
X-17849Y241811D01*
Y241804D01*
Y241789D01*
Y241767D01*
Y241738D01*
X-17856Y241657D01*
X-17871Y241555D01*
X-17885Y241438D01*
X-17914Y241313D01*
X-17958Y241189D01*
X-18010Y241072D01*
X-18017Y241057D01*
X-18039Y241021D01*
X-18075Y240969D01*
X-18119Y240903D01*
X-18178Y240823D01*
X-18251Y240742D01*
X-18332Y240669D01*
X-18419Y240596D01*
X-18427Y240589D01*
X-18463Y240567D01*
X-18515Y240537D01*
X-18573Y240508D01*
X-18654Y240464D01*
X-18734Y240428D01*
X-18829Y240398D01*
X-18925Y240369D01*
X-18939D01*
X-18961Y240362D01*
X-18990D01*
X-19027Y240354D01*
X-19071Y240347D01*
X-19122Y240340D01*
X-19181D01*
X-19247Y240333D01*
X-19320Y240325D01*
X-19400Y240318D01*
X-19496Y240311D01*
X-19591D01*
X-19693Y240303D01*
X-20557D01*
Y238488D01*
X-21531D01*
Y243297D01*
X-19686D01*
X-19598Y243290D01*
D02*
G37*
G36*
X-35826Y239300D02*
X-33418D01*
Y238488D01*
X-36800D01*
Y243253D01*
X-35826D01*
Y239300D01*
D02*
G37*
G36*
X101502Y198492D02*
X93098D01*
Y202708D01*
X101502D01*
Y198492D01*
D02*
G37*
G36*
X-33092Y191350D02*
X-37308D01*
Y200250D01*
X-33092D01*
Y191350D01*
D02*
G37*
G36*
X93167Y189063D02*
X84233D01*
Y193337D01*
X93167D01*
Y189063D01*
D02*
G37*
G36*
X-57189Y242592D02*
X-66211D01*
Y246808D01*
X-57189D01*
Y242592D01*
D02*
G37*
%LPC*%
G36*
X-124265Y96316D02*
X-124353D01*
X-124536Y96309D01*
X-124711Y96287D01*
X-124880Y96258D01*
X-125033Y96214D01*
X-125180Y96163D01*
X-125312Y96104D01*
X-125436Y96046D01*
X-125546Y95987D01*
X-125648Y95921D01*
X-125736Y95863D01*
X-125809Y95804D01*
X-125875Y95753D01*
X-125919Y95709D01*
X-125956Y95680D01*
X-125978Y95658D01*
X-125985Y95650D01*
X-126095Y95519D01*
X-126190Y95380D01*
X-126271Y95233D01*
X-126344Y95079D01*
X-126402Y94926D01*
X-126446Y94765D01*
X-126490Y94618D01*
X-126520Y94464D01*
X-126549Y94325D01*
X-126571Y94201D01*
X-126578Y94084D01*
X-126593Y93981D01*
Y93901D01*
X-126600Y93835D01*
Y93850D01*
Y93784D01*
X-126593Y93579D01*
X-126571Y93381D01*
X-126541Y93198D01*
X-126505Y93030D01*
X-126454Y92869D01*
X-126402Y92722D01*
X-126351Y92583D01*
X-126293Y92466D01*
X-126234Y92356D01*
X-126183Y92261D01*
X-126124Y92181D01*
X-126080Y92115D01*
X-126044Y92063D01*
X-126014Y92027D01*
X-125992Y92005D01*
X-125985Y91998D01*
X-125868Y91881D01*
X-125744Y91785D01*
X-125612Y91698D01*
X-125480Y91624D01*
X-125348Y91558D01*
X-125216Y91507D01*
X-125092Y91463D01*
X-124968Y91427D01*
X-124850Y91397D01*
X-124748Y91383D01*
X-124653Y91368D01*
X-124572Y91353D01*
X-124506D01*
X-124455Y91346D01*
X-126600D01*
X-124411D01*
X-124272Y91353D01*
X-124133Y91361D01*
X-124009Y91383D01*
X-123884Y91405D01*
X-123775Y91434D01*
X-123672Y91463D01*
X-123577Y91500D01*
X-123489Y91536D01*
X-123408Y91573D01*
X-123335Y91610D01*
X-123277Y91639D01*
X-123225Y91668D01*
X-123189Y91690D01*
X-123160Y91712D01*
X-123145Y91720D01*
X-123138Y91727D01*
X-123043Y91800D01*
X-122962Y91888D01*
X-122808Y92071D01*
X-122684Y92269D01*
X-122589Y92459D01*
X-122545Y92547D01*
X-122508Y92634D01*
X-122479Y92708D01*
X-122457Y92774D01*
X-122435Y92832D01*
X-122420Y92869D01*
X-122413Y92898D01*
Y92188D01*
Y92905D01*
X-123357Y93198D01*
X-123408Y93008D01*
X-123474Y92854D01*
X-123540Y92715D01*
X-123606Y92605D01*
X-123665Y92525D01*
X-123716Y92459D01*
X-123745Y92430D01*
X-123760Y92415D01*
X-123870Y92334D01*
X-123979Y92276D01*
X-124089Y92232D01*
X-124199Y92203D01*
X-124287Y92188D01*
X-124360Y92181D01*
X-124389Y92173D01*
X-124426D01*
X-124521Y92181D01*
X-124609Y92188D01*
X-124777Y92232D01*
X-124924Y92291D01*
X-125048Y92364D01*
X-125143Y92437D01*
X-125216Y92495D01*
X-125260Y92539D01*
X-125268Y92547D01*
X-125275Y92554D01*
X-125334Y92634D01*
X-125378Y92722D01*
X-125422Y92817D01*
X-125458Y92920D01*
X-125517Y93140D01*
X-125553Y93352D01*
X-125568Y93454D01*
X-125583Y93550D01*
X-125590Y93630D01*
Y93711D01*
X-125597Y93769D01*
Y93820D01*
Y93850D01*
Y93857D01*
X-125590Y94011D01*
X-125583Y94157D01*
X-125568Y94296D01*
X-125546Y94413D01*
X-125524Y94530D01*
X-125495Y94633D01*
X-125465Y94721D01*
X-125429Y94801D01*
X-125399Y94874D01*
X-125370Y94933D01*
X-125341Y94984D01*
X-125319Y95028D01*
X-125297Y95057D01*
X-125282Y95087D01*
X-125268Y95094D01*
Y95101D01*
X-125202Y95167D01*
X-125136Y95233D01*
X-125063Y95284D01*
X-124997Y95328D01*
X-124850Y95394D01*
X-124711Y95438D01*
X-124587Y95467D01*
X-124536Y95475D01*
X-124492Y95482D01*
X-124455Y95489D01*
X-124404D01*
X-124265Y95482D01*
X-124141Y95453D01*
X-124023Y95423D01*
X-123928Y95380D01*
X-123848Y95343D01*
X-123796Y95306D01*
X-123760Y95277D01*
X-123745Y95270D01*
X-123650Y95182D01*
X-123577Y95087D01*
X-123511Y94991D01*
X-123467Y94896D01*
X-123430Y94809D01*
X-123401Y94743D01*
X-123394Y94699D01*
X-123387Y94691D01*
Y94684D01*
X-122428Y94911D01*
X-122494Y95116D01*
X-122574Y95292D01*
X-122662Y95438D01*
X-122742Y95562D01*
X-122816Y95665D01*
X-122874Y95731D01*
X-122911Y95775D01*
X-122918Y95789D01*
X-122925D01*
X-123035Y95885D01*
X-123145Y95965D01*
X-123262Y96031D01*
X-123379Y96097D01*
X-123496Y96148D01*
X-123621Y96185D01*
X-123731Y96221D01*
X-123848Y96251D01*
X-123950Y96272D01*
X-124045Y96287D01*
X-124133Y96302D01*
X-124206Y96309D01*
X-124265Y96316D01*
D02*
G37*
G36*
X-112912Y96236D02*
X-115300D01*
X-113812D01*
Y93008D01*
X-115796Y96236D01*
X-116733D01*
Y91427D01*
X-115832D01*
Y94582D01*
X-113885Y91427D01*
X-112912D01*
Y96236D01*
D02*
G37*
G36*
X-99113D02*
X-100087D01*
Y93564D01*
Y93462D01*
Y93366D01*
X-100094Y93279D01*
Y93198D01*
X-100102Y93052D01*
X-100109Y92942D01*
X-100116Y92854D01*
X-100124Y92795D01*
X-100131Y92759D01*
Y92744D01*
X-100153Y92656D01*
X-100189Y92576D01*
X-100233Y92510D01*
X-100277Y92452D01*
X-100314Y92400D01*
X-100350Y92364D01*
X-100380Y92342D01*
X-100387Y92334D01*
X-100475Y92276D01*
X-100570Y92239D01*
X-100673Y92210D01*
X-100768Y92188D01*
X-100863Y92173D01*
X-100936Y92166D01*
X-101002D01*
X-101141Y92173D01*
X-101273Y92195D01*
X-101383Y92225D01*
X-101470Y92254D01*
X-101544Y92283D01*
X-101595Y92312D01*
X-101624Y92334D01*
X-101639Y92342D01*
X-101719Y92415D01*
X-101778Y92488D01*
X-101829Y92569D01*
X-101873Y92649D01*
X-101895Y92715D01*
X-101917Y92766D01*
X-101932Y92803D01*
Y92817D01*
X-101939Y92854D01*
Y92905D01*
X-101946Y93023D01*
X-101954Y93154D01*
Y93286D01*
X-101961Y93418D01*
Y93476D01*
Y93520D01*
Y93564D01*
Y93593D01*
Y93615D01*
Y93623D01*
Y96236D01*
X-101024D01*
X-102934D01*
Y93520D01*
X-102927Y93381D01*
Y93249D01*
X-102920Y93132D01*
X-102912Y93023D01*
X-102905Y92920D01*
X-102898Y92832D01*
X-102891Y92752D01*
X-102883Y92678D01*
X-102876Y92620D01*
X-102869Y92561D01*
X-102861Y92525D01*
X-102854Y92488D01*
X-102847Y92466D01*
Y92452D01*
Y92444D01*
X-102817Y92342D01*
X-102773Y92247D01*
X-102729Y92151D01*
X-102686Y92071D01*
X-102642Y92005D01*
X-102605Y91954D01*
X-102583Y91925D01*
X-102576Y91910D01*
X-102488Y91822D01*
X-102400Y91734D01*
X-102305Y91668D01*
X-102217Y91602D01*
X-102137Y91558D01*
X-102071Y91522D01*
X-102027Y91500D01*
X-102019Y91493D01*
X-102012D01*
X-101939Y91463D01*
X-101866Y91441D01*
X-101697Y91405D01*
X-101529Y91375D01*
X-101361Y91361D01*
X-101207Y91346D01*
X-101141D01*
X-101083Y91339D01*
X-100973D01*
X-100768Y91346D01*
X-100585Y91361D01*
X-100431Y91383D01*
X-100299Y91412D01*
X-100189Y91434D01*
X-100145Y91449D01*
X-100116Y91456D01*
X-100087Y91463D01*
X-100065Y91471D01*
X-100058Y91478D01*
X-100050D01*
X-99926Y91536D01*
X-99816Y91602D01*
X-99721Y91668D01*
X-99633Y91734D01*
X-99575Y91785D01*
X-99523Y91829D01*
X-99494Y91866D01*
X-99487Y91873D01*
X-99414Y91968D01*
X-99348Y92071D01*
X-99304Y92173D01*
X-99260Y92269D01*
X-99230Y92356D01*
X-99209Y92422D01*
X-99194Y92466D01*
Y92474D01*
Y92481D01*
X-99179Y92554D01*
X-99165Y92634D01*
X-99157Y92730D01*
X-99150Y92825D01*
X-99135Y93023D01*
X-99121Y93227D01*
Y93323D01*
Y93410D01*
X-99113Y93491D01*
Y91551D01*
Y96236D01*
D02*
G37*
G36*
X-94626Y96236D02*
X-98425D01*
Y95423D01*
X-97013D01*
Y91427D01*
X-98425D01*
X-96039D01*
Y95423D01*
X-94626D01*
Y91881D01*
Y96236D01*
D02*
G37*
G36*
X-117245Y96236D02*
D01*
Y91427D01*
X-119177Y96236D01*
X-117245D01*
X-120202D01*
X-122069Y91427D01*
X-119813D01*
X-121044D01*
X-120649Y92517D01*
X-118709D01*
X-118299Y91427D01*
X-117245D01*
Y96236D01*
D02*
G37*
G36*
X-105987Y96316D02*
X-106031D01*
X-106243Y96309D01*
X-106441Y96287D01*
X-106616Y96251D01*
X-106770Y96221D01*
X-106836Y96199D01*
X-106895Y96185D01*
X-106946Y96163D01*
X-106990Y96148D01*
X-107026Y96141D01*
X-107048Y96126D01*
X-107063Y96119D01*
X-107070D01*
X-107195Y96060D01*
X-107312Y95994D01*
X-107414Y95921D01*
X-107509Y95848D01*
X-107583Y95789D01*
X-107641Y95738D01*
X-107678Y95702D01*
X-107692Y95687D01*
X-107788Y95577D01*
X-107883Y95460D01*
X-107956Y95350D01*
X-108022Y95248D01*
X-108073Y95160D01*
X-108110Y95087D01*
X-108132Y95043D01*
X-108139Y95035D01*
Y95028D01*
X-108212Y94831D01*
X-108263Y94626D01*
X-108300Y94421D01*
X-108322Y94223D01*
X-108337Y94135D01*
Y94055D01*
X-108344Y93981D01*
X-108351Y93915D01*
Y93791D01*
X-108344Y93579D01*
X-108322Y93381D01*
X-108293Y93198D01*
X-108256Y93023D01*
X-108205Y92861D01*
X-108154Y92715D01*
X-108095Y92583D01*
X-108036Y92459D01*
X-107978Y92349D01*
X-107919Y92254D01*
X-107868Y92173D01*
X-107817Y92107D01*
X-107780Y92056D01*
X-107751Y92020D01*
X-107729Y91998D01*
X-107722Y91990D01*
X-107597Y91873D01*
X-107466Y91778D01*
X-107334Y91690D01*
X-107187Y91617D01*
X-107048Y91551D01*
X-106909Y91500D01*
X-106770Y91456D01*
X-106638Y91419D01*
X-106514Y91390D01*
X-106397Y91375D01*
X-106287Y91361D01*
X-106199Y91346D01*
X-106126D01*
X-106067Y91339D01*
X-103696D01*
Y93820D01*
X-103703Y94033D01*
X-103725Y94238D01*
X-103754Y94428D01*
X-103798Y94604D01*
X-103842Y94765D01*
X-103893Y94911D01*
X-103952Y95050D01*
X-104010Y95174D01*
X-104076Y95284D01*
X-104128Y95380D01*
X-104186Y95460D01*
X-104230Y95526D01*
X-104274Y95584D01*
X-104303Y95621D01*
X-104325Y95643D01*
X-104333Y95650D01*
X-104457Y95767D01*
X-104589Y95870D01*
X-104728Y95958D01*
X-104867Y96038D01*
X-105006Y96097D01*
X-105152Y96155D01*
X-105284Y96199D01*
X-105423Y96236D01*
X-105548Y96258D01*
X-105665Y96280D01*
X-105767Y96294D01*
X-105855Y96309D01*
X-105928D01*
X-105987Y96316D01*
D02*
G37*
G36*
X-108615Y91427D02*
Y90702D01*
X-112443D01*
Y90102D01*
X-108615D01*
Y91427D01*
D02*
G37*
%LPD*%
G36*
X-119024Y93330D02*
X-120349D01*
X-119697Y95116D01*
X-119024Y93330D01*
D02*
G37*
G36*
X-105914Y95482D02*
X-105811Y95475D01*
X-105621Y95423D01*
X-105453Y95358D01*
X-105321Y95284D01*
X-105262Y95248D01*
X-105211Y95211D01*
X-105167Y95174D01*
X-105130Y95145D01*
X-105101Y95116D01*
X-105079Y95094D01*
X-105072Y95087D01*
X-105065Y95079D01*
X-104999Y94999D01*
X-104940Y94911D01*
X-104896Y94816D01*
X-104852Y94713D01*
X-104786Y94508D01*
X-104743Y94311D01*
X-104728Y94216D01*
X-104720Y94128D01*
X-104706Y94047D01*
Y93981D01*
X-104699Y93923D01*
Y93879D01*
Y93850D01*
Y93842D01*
X-104706Y93689D01*
X-104713Y93550D01*
X-104735Y93410D01*
X-104757Y93293D01*
X-104786Y93176D01*
X-104816Y93074D01*
X-104852Y92979D01*
X-104882Y92898D01*
X-104918Y92825D01*
X-104955Y92759D01*
X-104984Y92708D01*
X-105013Y92664D01*
X-105035Y92627D01*
X-105057Y92605D01*
X-105065Y92591D01*
X-105072Y92583D01*
X-105145Y92510D01*
X-105218Y92444D01*
X-105299Y92393D01*
X-105379Y92342D01*
X-105460Y92305D01*
X-105540Y92269D01*
X-105687Y92217D01*
X-105818Y92188D01*
X-105877Y92181D01*
X-105928Y92173D01*
X-105965Y92166D01*
X-106024D01*
X-106126Y92173D01*
X-106228Y92181D01*
X-106324Y92203D01*
X-106419Y92232D01*
X-106580Y92298D01*
X-106719Y92378D01*
X-106829Y92452D01*
X-106873Y92488D01*
X-106909Y92517D01*
X-106939Y92547D01*
X-106960Y92569D01*
X-106968Y92576D01*
X-106975Y92583D01*
X-107041Y92664D01*
X-107099Y92759D01*
X-107151Y92854D01*
X-107187Y92957D01*
X-107261Y93161D01*
X-107305Y93366D01*
X-107319Y93462D01*
X-107326Y93550D01*
X-107334Y93623D01*
X-107341Y93696D01*
X-107348Y93747D01*
Y93791D01*
Y93820D01*
Y93828D01*
X-107341Y93981D01*
X-107334Y94121D01*
X-107312Y94252D01*
X-107290Y94377D01*
X-107268Y94486D01*
X-107231Y94589D01*
X-107202Y94684D01*
X-107165Y94765D01*
X-107136Y94838D01*
X-107099Y94896D01*
X-107070Y94955D01*
X-107048Y94999D01*
X-107019Y95028D01*
X-107004Y95050D01*
X-106997Y95065D01*
X-106990Y95072D01*
X-106916Y95145D01*
X-106843Y95211D01*
X-106763Y95262D01*
X-106682Y95314D01*
X-106602Y95358D01*
X-106521Y95387D01*
X-106368Y95438D01*
X-106236Y95467D01*
X-106177Y95475D01*
X-106126Y95482D01*
X-106082Y95489D01*
X-106024D01*
X-105914Y95482D01*
D02*
G37*
G36*
X-103696Y91339D02*
X-106024D01*
X-105826Y91346D01*
X-105643Y91368D01*
X-105474Y91397D01*
X-105313Y91441D01*
X-105160Y91493D01*
X-105021Y91544D01*
X-104896Y91602D01*
X-104779Y91668D01*
X-104677Y91727D01*
X-104589Y91785D01*
X-104508Y91837D01*
X-104450Y91888D01*
X-104398Y91932D01*
X-104362Y91961D01*
X-104340Y91983D01*
X-104333Y91990D01*
X-104223Y92122D01*
X-104120Y92261D01*
X-104040Y92408D01*
X-103967Y92554D01*
X-103901Y92708D01*
X-103849Y92861D01*
X-103805Y93008D01*
X-103776Y93154D01*
X-103747Y93286D01*
X-103732Y93418D01*
X-103718Y93528D01*
X-103703Y93630D01*
Y93711D01*
X-103696Y93769D01*
Y91339D01*
D02*
G37*
%LPC*%
G36*
X113108Y167299D02*
X112054D01*
D01*
X113108D01*
D02*
G37*
G36*
X119198Y167289D02*
X117795D01*
X118222D01*
X117651Y165098D01*
X117070Y167289D01*
X116104D01*
Y164083D01*
X116704D01*
Y166606D01*
X117339Y164083D01*
X116892D01*
X117959D01*
X118593Y166606D01*
X118598Y164083D01*
X118355D01*
X119198D01*
Y167289D01*
D02*
G37*
G36*
X110809D02*
X108775D01*
X110117D01*
X109336Y164918D01*
X108521Y167289D01*
X107823D01*
X108970Y164083D01*
X109668D01*
X110809Y167289D01*
D02*
G37*
G36*
X112054Y167299D02*
X112010D01*
X111912Y167294D01*
X111820Y167285D01*
X111741Y167265D01*
X111668Y167250D01*
X111610Y167231D01*
X111566Y167211D01*
X111537Y167202D01*
X111532Y167197D01*
X111527D01*
X111454Y167158D01*
X111385Y167114D01*
X111332Y167070D01*
X111283Y167026D01*
X111244Y166982D01*
X111219Y166953D01*
X111200Y166933D01*
X111195Y166923D01*
X111156Y166855D01*
X111117Y166777D01*
X111088Y166699D01*
X111063Y166626D01*
X111044Y166557D01*
X111029Y166504D01*
X111024Y166484D01*
Y166470D01*
X111019Y166460D01*
Y166455D01*
X111585Y166362D01*
X111595Y166435D01*
X111615Y166499D01*
X111634Y166553D01*
X111659Y166601D01*
X111683Y166636D01*
X111698Y166660D01*
X111712Y166675D01*
X111717Y166679D01*
X111761Y166718D01*
X111810Y166743D01*
X111854Y166762D01*
X111898Y166777D01*
X111937Y166787D01*
X111966Y166792D01*
X111990D01*
X112049Y166787D01*
X112103Y166777D01*
X112147Y166762D01*
X112186Y166743D01*
X112215Y166723D01*
X112234Y166709D01*
X112249Y166699D01*
X112254Y166694D01*
X112288Y166655D01*
X112312Y166611D01*
X112327Y166567D01*
X112342Y166528D01*
X112347Y166494D01*
X112352Y166465D01*
Y166440D01*
Y166435D01*
X112347Y166367D01*
X112332Y166309D01*
X112308Y166255D01*
X112283Y166211D01*
X112259Y166177D01*
X112234Y166147D01*
X112220Y166133D01*
X112215Y166128D01*
X112161Y166094D01*
X112098Y166065D01*
X112034Y166045D01*
X111976Y166035D01*
X111922Y166030D01*
X111873Y166025D01*
X111834D01*
X111766Y165528D01*
X111825Y165542D01*
X111878Y165557D01*
X111927Y165567D01*
X111966Y165572D01*
X112000Y165577D01*
X112044D01*
X112108Y165572D01*
X112166Y165557D01*
X112220Y165533D01*
X112264Y165508D01*
X112303Y165484D01*
X112327Y165459D01*
X112347Y165445D01*
X112352Y165440D01*
X112395Y165386D01*
X112425Y165323D01*
X112449Y165264D01*
X112464Y165206D01*
X112473Y165152D01*
X112478Y165108D01*
Y165079D01*
Y165074D01*
Y165069D01*
X112473Y164981D01*
X112459Y164903D01*
X112434Y164835D01*
X112415Y164776D01*
X112391Y164732D01*
X112366Y164703D01*
X112352Y164679D01*
X112347Y164674D01*
X112293Y164625D01*
X112239Y164591D01*
X112186Y164566D01*
X112137Y164552D01*
X112093Y164542D01*
X112059Y164532D01*
X112025D01*
X111961Y164537D01*
X111903Y164552D01*
X111854Y164571D01*
X111810Y164591D01*
X111771Y164610D01*
X111746Y164630D01*
X111727Y164645D01*
X111722Y164649D01*
X111678Y164698D01*
X111644Y164757D01*
X111619Y164815D01*
X111600Y164869D01*
X111585Y164923D01*
X111576Y164962D01*
X111571Y164991D01*
Y164996D01*
Y165001D01*
X110975Y164927D01*
X110985Y164854D01*
X111000Y164781D01*
X111044Y164654D01*
X111097Y164542D01*
X111156Y164449D01*
X111185Y164410D01*
X111210Y164376D01*
X111234Y164342D01*
X111258Y164318D01*
X111278Y164298D01*
X111293Y164283D01*
X111297Y164278D01*
X111302Y164274D01*
X111356Y164230D01*
X111415Y164191D01*
X111478Y164156D01*
X111537Y164132D01*
X111659Y164083D01*
X111776Y164054D01*
X111825Y164044D01*
X111873Y164039D01*
X111917Y164034D01*
X111956Y164030D01*
X111986Y164025D01*
X110975D01*
X113108D01*
Y165079D01*
Y165040D01*
X113103Y165147D01*
X113084Y165240D01*
X113054Y165328D01*
X113025Y165401D01*
X112996Y165459D01*
X112966Y165503D01*
X112947Y165528D01*
X112942Y165538D01*
X112874Y165606D01*
X112805Y165664D01*
X112732Y165713D01*
X112659Y165747D01*
X112600Y165772D01*
X112547Y165791D01*
X112527Y165796D01*
X112517D01*
X112508Y165801D01*
X112503D01*
X112586Y165850D01*
X112654Y165903D01*
X112717Y165957D01*
X112771Y166016D01*
X112815Y166069D01*
X112854Y166128D01*
X112883Y166182D01*
X112908Y166235D01*
X112927Y166284D01*
X112942Y166328D01*
X112952Y166367D01*
X112961Y166406D01*
Y166435D01*
X112966Y166455D01*
Y166470D01*
Y166474D01*
Y166528D01*
X112957Y166582D01*
X112932Y166684D01*
X112893Y166772D01*
X112854Y166850D01*
X112810Y166919D01*
X112771Y166967D01*
X112757Y166982D01*
X112747Y166997D01*
X112742Y167001D01*
X112737Y167006D01*
X112683Y167060D01*
X112630Y167104D01*
X112566Y167143D01*
X112508Y167177D01*
X112449Y167207D01*
X112386Y167226D01*
X112273Y167265D01*
X112220Y167275D01*
X112166Y167285D01*
X112122Y167289D01*
X112083Y167294D01*
X112054Y167299D01*
D02*
G37*
G36*
X107633D02*
X105500D01*
X106535D01*
X106437Y167294D01*
X106344Y167285D01*
X106266Y167265D01*
X106193Y167250D01*
X106134Y167231D01*
X106090Y167211D01*
X106061Y167202D01*
X106056Y167197D01*
X106051D01*
X105978Y167158D01*
X105910Y167114D01*
X105856Y167070D01*
X105807Y167026D01*
X105768Y166982D01*
X105744Y166953D01*
X105725Y166933D01*
X105720Y166923D01*
X105681Y166855D01*
X105641Y166777D01*
X105612Y166699D01*
X105588Y166626D01*
X105568Y166557D01*
X105554Y166504D01*
X105549Y166484D01*
Y166470D01*
X105544Y166460D01*
Y166455D01*
X106110Y166362D01*
X106120Y166435D01*
X106139Y166499D01*
X106159Y166553D01*
X106183Y166601D01*
X106208Y166636D01*
X106222Y166660D01*
X106237Y166675D01*
X106242Y166679D01*
X106286Y166718D01*
X106334Y166743D01*
X106378Y166762D01*
X106422Y166777D01*
X106461Y166787D01*
X106491Y166792D01*
X106515D01*
X106574Y166787D01*
X106627Y166777D01*
X106671Y166762D01*
X106710Y166743D01*
X106739Y166723D01*
X106759Y166709D01*
X106774Y166699D01*
X106779Y166694D01*
X106813Y166655D01*
X106837Y166611D01*
X106852Y166567D01*
X106866Y166528D01*
X106871Y166494D01*
X106876Y166465D01*
Y166440D01*
Y166435D01*
X106871Y166367D01*
X106857Y166309D01*
X106832Y166255D01*
X106808Y166211D01*
X106783Y166177D01*
X106759Y166147D01*
X106744Y166133D01*
X106739Y166128D01*
X106686Y166094D01*
X106622Y166065D01*
X106559Y166045D01*
X106500Y166035D01*
X106447Y166030D01*
X106398Y166025D01*
X106359D01*
X106291Y165528D01*
X106349Y165542D01*
X106403Y165557D01*
X106452Y165567D01*
X106491Y165572D01*
X106525Y165577D01*
X106569D01*
X106632Y165572D01*
X106691Y165557D01*
X106744Y165533D01*
X106788Y165508D01*
X106827Y165484D01*
X106852Y165459D01*
X106871Y165445D01*
X106876Y165440D01*
X106920Y165386D01*
X106949Y165323D01*
X106974Y165264D01*
X106988Y165206D01*
X106998Y165152D01*
X107003Y165108D01*
Y165079D01*
Y165074D01*
Y165069D01*
X106998Y164981D01*
X106983Y164903D01*
X106959Y164835D01*
X106940Y164776D01*
X106915Y164732D01*
X106891Y164703D01*
X106876Y164679D01*
X106871Y164674D01*
X106818Y164625D01*
X106764Y164591D01*
X106710Y164566D01*
X106661Y164552D01*
X106617Y164542D01*
X106583Y164532D01*
X106549D01*
X106486Y164537D01*
X106427Y164552D01*
X106378Y164571D01*
X106334Y164591D01*
X106295Y164610D01*
X106271Y164630D01*
X106252Y164645D01*
X106247Y164649D01*
X106203Y164698D01*
X106169Y164757D01*
X106144Y164815D01*
X106125Y164869D01*
X106110Y164923D01*
X106100Y164962D01*
X106095Y164991D01*
Y164996D01*
Y165001D01*
X105500Y164927D01*
X105510Y164854D01*
X105524Y164781D01*
X105568Y164654D01*
X105622Y164542D01*
X105681Y164449D01*
X105710Y164410D01*
X105734Y164376D01*
X105759Y164342D01*
X105783Y164318D01*
X105803Y164298D01*
X105817Y164283D01*
X105822Y164278D01*
X105827Y164274D01*
X105881Y164230D01*
X105939Y164191D01*
X106003Y164156D01*
X106061Y164132D01*
X106183Y164083D01*
X106300Y164054D01*
X106349Y164044D01*
X106398Y164039D01*
X106442Y164034D01*
X106481Y164030D01*
X106510Y164025D01*
X105500D01*
X107633D01*
Y165040D01*
X107628Y165147D01*
X107608Y165240D01*
X107579Y165328D01*
X107550Y165401D01*
X107520Y165459D01*
X107491Y165503D01*
X107472Y165528D01*
X107467Y165538D01*
X107398Y165606D01*
X107330Y165664D01*
X107257Y165713D01*
X107184Y165747D01*
X107125Y165772D01*
X107071Y165791D01*
X107052Y165796D01*
X107042D01*
X107032Y165801D01*
X107027D01*
X107110Y165850D01*
X107179Y165903D01*
X107242Y165957D01*
X107296Y166016D01*
X107340Y166069D01*
X107379Y166128D01*
X107408Y166182D01*
X107432Y166235D01*
X107452Y166284D01*
X107467Y166328D01*
X107476Y166367D01*
X107486Y166406D01*
Y166435D01*
X107491Y166455D01*
Y166470D01*
Y166474D01*
Y166528D01*
X107481Y166582D01*
X107457Y166684D01*
X107418Y166772D01*
X107379Y166850D01*
X107335Y166919D01*
X107296Y166967D01*
X107281Y166982D01*
X107271Y166997D01*
X107267Y167001D01*
X107262Y167006D01*
X107208Y167060D01*
X107154Y167104D01*
X107091Y167143D01*
X107032Y167177D01*
X106974Y167207D01*
X106910Y167226D01*
X106798Y167265D01*
X106744Y167275D01*
X106691Y167285D01*
X106647Y167289D01*
X106608Y167294D01*
X106579Y167299D01*
X107633D01*
D02*
G37*
G36*
X115807Y164083D02*
X113254D01*
X115807D01*
D01*
D02*
G37*
G36*
Y164025D02*
Y163600D01*
X113254D01*
Y163200D01*
X115807D01*
Y164025D01*
D02*
G37*
%LPD*%
G36*
X113108D02*
X112029D01*
X112112Y164030D01*
X112195Y164039D01*
X112269Y164054D01*
X112342Y164074D01*
X112410Y164093D01*
X112473Y164117D01*
X112532Y164147D01*
X112586Y164176D01*
X112635Y164200D01*
X112674Y164230D01*
X112713Y164254D01*
X112742Y164278D01*
X112766Y164293D01*
X112781Y164308D01*
X112791Y164318D01*
X112796Y164322D01*
X112849Y164381D01*
X112898Y164439D01*
X112942Y164498D01*
X112976Y164561D01*
X113005Y164620D01*
X113030Y164679D01*
X113069Y164791D01*
X113084Y164845D01*
X113093Y164893D01*
X113098Y164932D01*
X113103Y164971D01*
X113108Y165001D01*
Y164025D01*
D02*
G37*
G36*
X107633D02*
X106554D01*
X106637Y164030D01*
X106720Y164039D01*
X106793Y164054D01*
X106866Y164074D01*
X106935Y164093D01*
X106998Y164117D01*
X107057Y164147D01*
X107110Y164176D01*
X107159Y164200D01*
X107198Y164230D01*
X107237Y164254D01*
X107267Y164278D01*
X107291Y164293D01*
X107306Y164308D01*
X107315Y164318D01*
X107320Y164322D01*
X107374Y164381D01*
X107423Y164439D01*
X107467Y164498D01*
X107501Y164561D01*
X107530Y164620D01*
X107554Y164679D01*
X107594Y164791D01*
X107608Y164845D01*
X107618Y164893D01*
X107623Y164932D01*
X107628Y164971D01*
X107633Y165001D01*
Y164025D01*
D02*
G37*
%LPC*%
G36*
X-14188Y129686D02*
X-17404D01*
Y128276D01*
D01*
Y129184D01*
X-17297Y129140D01*
X-17199Y129081D01*
X-17111Y129018D01*
X-17038Y128954D01*
X-16974Y128891D01*
X-16931Y128842D01*
X-16916Y128827D01*
X-16901Y128813D01*
X-16896Y128803D01*
X-16892Y128798D01*
X-16814Y128696D01*
X-16755Y128598D01*
X-16701Y128510D01*
X-16662Y128432D01*
X-16628Y128369D01*
X-16609Y128320D01*
X-16604Y128300D01*
X-16599Y128286D01*
X-16594Y128281D01*
Y128276D01*
X-17404D01*
X-16038D01*
X-16101Y128442D01*
X-16174Y128593D01*
X-16247Y128725D01*
X-16286Y128788D01*
X-16326Y128842D01*
X-16360Y128896D01*
X-16394Y128940D01*
X-16423Y128979D01*
X-16447Y129013D01*
X-16472Y129037D01*
X-16487Y129057D01*
X-16496Y129067D01*
X-16501Y129071D01*
X-14188D01*
Y129686D01*
D02*
G37*
G36*
Y127710D02*
D01*
Y126163D01*
X-15550D01*
Y127500D01*
X-16091D01*
Y126163D01*
X-16852D01*
Y127710D01*
X-17394D01*
Y125514D01*
X-14188D01*
Y127710D01*
D02*
G37*
G36*
X31376Y26468D02*
X30226D01*
D01*
X30813D01*
X30755Y26466D01*
X30702Y26463D01*
X30655Y26456D01*
X30636Y26452D01*
X30617Y26449D01*
X30599Y26445D01*
X30585Y26442D01*
X30571Y26438D01*
X30561Y26435D01*
X30552Y26433D01*
X30547Y26431D01*
X30543Y26429D01*
X30541D01*
X30501Y26414D01*
X30466Y26396D01*
X30435Y26379D01*
X30407Y26361D01*
X30386Y26344D01*
X30370Y26331D01*
X30359Y26323D01*
X30356Y26321D01*
Y26319D01*
X30330Y26291D01*
X30307Y26261D01*
X30288Y26233D01*
X30274Y26207D01*
X30263Y26183D01*
X30254Y26165D01*
X30253Y26158D01*
X30251Y26153D01*
X30249Y26149D01*
Y26148D01*
X30242Y26116D01*
X30235Y26081D01*
X30232Y26046D01*
X30230Y26009D01*
X30228Y25978D01*
X30226Y25964D01*
Y25507D01*
X31376D01*
Y26468D01*
D02*
G37*
G36*
Y25262D02*
X30226D01*
Y25047D01*
X30998D01*
X30226Y24573D01*
Y24349D01*
X31376D01*
Y25262D01*
D02*
G37*
G36*
X31397Y24133D02*
X30207D01*
D01*
X30760D01*
Y23635D01*
X30954D01*
Y23899D01*
X31101D01*
X31117Y23878D01*
X31129Y23857D01*
X31142Y23836D01*
X31152Y23817D01*
X31161Y23799D01*
X31166Y23785D01*
X31170Y23776D01*
X31171Y23773D01*
X31180Y23745D01*
X31187Y23719D01*
X31192Y23694D01*
X31196Y23673D01*
X31198Y23654D01*
X31199Y23640D01*
Y23628D01*
X31198Y23601D01*
X31194Y23575D01*
X31191Y23551D01*
X31184Y23528D01*
X31168Y23488D01*
X31149Y23454D01*
X31140Y23439D01*
X31129Y23426D01*
X31121Y23416D01*
X31114Y23405D01*
X31107Y23398D01*
X31101Y23393D01*
X31100Y23391D01*
X31098Y23390D01*
X31077Y23374D01*
X31054Y23360D01*
X31031Y23348D01*
X31007Y23339D01*
X30954Y23321D01*
X30905Y23311D01*
X30881Y23307D01*
X30860Y23306D01*
X30841Y23304D01*
X30823Y23302D01*
X30809Y23300D01*
X30799D01*
X30792D01*
X30790D01*
X30755Y23302D01*
X30723Y23304D01*
X30692Y23309D01*
X30664Y23314D01*
X30639Y23321D01*
X30615Y23328D01*
X30594Y23335D01*
X30575Y23344D01*
X30557Y23353D01*
X30543Y23360D01*
X30531Y23367D01*
X30520Y23374D01*
X30513Y23379D01*
X30508Y23384D01*
X30505Y23386D01*
X30503Y23388D01*
X30485Y23405D01*
X30470Y23425D01*
X30457Y23444D01*
X30447Y23463D01*
X30429Y23503D01*
X30417Y23542D01*
X30410Y23577D01*
X30408Y23591D01*
X30407Y23605D01*
X30405Y23615D01*
Y23629D01*
X30407Y23664D01*
X30412Y23698D01*
X30421Y23726D01*
X30429Y23750D01*
X30438Y23769D01*
X30447Y23783D01*
X30452Y23792D01*
X30454Y23796D01*
X30473Y23818D01*
X30496Y23838D01*
X30517Y23853D01*
X30538Y23866D01*
X30557Y23876D01*
X30573Y23881D01*
X30583Y23885D01*
X30585Y23887D01*
X30587D01*
X30543Y24118D01*
X30515Y24111D01*
X30487Y24100D01*
X30440Y24079D01*
X30417Y24067D01*
X30398Y24053D01*
X30379Y24041D01*
X30363Y24027D01*
X30347Y24014D01*
X30335Y24002D01*
X30324Y23992D01*
X30314Y23981D01*
X30307Y23974D01*
X30302Y23967D01*
X30300Y23964D01*
X30298Y23962D01*
X30282Y23939D01*
X30268Y23913D01*
X30256Y23887D01*
X30246Y23860D01*
X30230Y23804D01*
X30218Y23752D01*
X30214Y23726D01*
X30212Y23703D01*
X30211Y23682D01*
X30209Y23664D01*
X30207Y23650D01*
Y23654D01*
Y23061D01*
Y23629D01*
X30209Y23570D01*
X30216Y23517D01*
X30221Y23493D01*
X30225Y23470D01*
X30230Y23449D01*
X30235Y23430D01*
X30242Y23414D01*
X30247Y23398D01*
X30251Y23386D01*
X30256Y23374D01*
X30260Y23365D01*
X30263Y23360D01*
X30265Y23356D01*
Y23355D01*
X30296Y23304D01*
X30330Y23258D01*
X30366Y23222D01*
X30401Y23190D01*
X30431Y23166D01*
X30445Y23157D01*
X30457Y23148D01*
X30466Y23143D01*
X30473Y23138D01*
X30478Y23136D01*
X30480Y23134D01*
X30534Y23110D01*
X30589Y23092D01*
X30643Y23078D01*
X30692Y23069D01*
X30715Y23068D01*
X30734Y23064D01*
X30753Y23062D01*
X30769D01*
X30781Y23061D01*
X30799D01*
X30860Y23064D01*
X30918Y23071D01*
X30968Y23082D01*
X30993Y23087D01*
X31016Y23094D01*
X31035Y23101D01*
X31052Y23106D01*
X31068Y23111D01*
X31082Y23117D01*
X31093Y23122D01*
X31100Y23124D01*
X31105Y23127D01*
X31107D01*
X31156Y23155D01*
X31199Y23187D01*
X31236Y23220D01*
X31266Y23251D01*
X31290Y23281D01*
X31301Y23293D01*
X31308Y23306D01*
X31313Y23314D01*
X31318Y23321D01*
X31320Y23325D01*
X31322Y23327D01*
X31336Y23353D01*
X31346Y23379D01*
X31366Y23433D01*
X31378Y23486D01*
X31388Y23535D01*
X31390Y23558D01*
X31394Y23577D01*
X31395Y23596D01*
Y23612D01*
X31397Y23624D01*
Y23642D01*
X31395Y23694D01*
X31388Y23745D01*
X31380Y23792D01*
X31371Y23834D01*
X31366Y23853D01*
X31360Y23871D01*
X31357Y23885D01*
X31353Y23897D01*
X31350Y23908D01*
X31346Y23915D01*
X31345Y23920D01*
Y23922D01*
X31324Y23971D01*
X31303Y24013D01*
X31282Y24049D01*
X31262Y24079D01*
X31245Y24104D01*
X31233Y24119D01*
X31224Y24130D01*
X31220Y24133D01*
X31397D01*
D01*
D02*
G37*
G36*
X31693Y22991D02*
X31376D01*
D01*
X31549D01*
Y22075D01*
X31693D01*
Y22991D01*
D02*
G37*
G36*
X31376Y21988D02*
X30226D01*
Y21755D01*
X31376D01*
Y21988D01*
D02*
G37*
%LPD*%
G36*
Y25941D02*
X31374Y25987D01*
X31373Y26029D01*
X31369Y26064D01*
X31364Y26092D01*
X31360Y26116D01*
X31357Y26132D01*
X31355Y26142D01*
X31353Y26146D01*
X31339Y26183D01*
X31325Y26214D01*
X31310Y26242D01*
X31294Y26267D01*
X31282Y26284D01*
X31271Y26298D01*
X31262Y26305D01*
X31261Y26309D01*
X31229Y26337D01*
X31196Y26361D01*
X31163Y26382D01*
X31129Y26400D01*
X31101Y26414D01*
X31089Y26419D01*
X31079Y26424D01*
X31070Y26428D01*
X31063Y26429D01*
X31059Y26431D01*
X31058D01*
X31017Y26443D01*
X30975Y26452D01*
X30935Y26459D01*
X30897Y26463D01*
X30863Y26466D01*
X30849D01*
X30837Y26468D01*
X31376D01*
Y25941D01*
D02*
G37*
G36*
X30849Y26226D02*
X30891Y26225D01*
X30928Y26221D01*
X30958Y26216D01*
X30982Y26211D01*
X31000Y26207D01*
X31005Y26205D01*
X31010D01*
X31012Y26204D01*
X31014D01*
X31040Y26195D01*
X31063Y26184D01*
X31082Y26176D01*
X31098Y26165D01*
X31110Y26156D01*
X31117Y26151D01*
X31122Y26146D01*
X31124Y26144D01*
X31136Y26130D01*
X31145Y26114D01*
X31161Y26083D01*
X31164Y26071D01*
X31168Y26060D01*
X31171Y26051D01*
Y26050D01*
X31175Y26032D01*
X31177Y26011D01*
X31180Y25987D01*
Y25966D01*
X31182Y25945D01*
Y25740D01*
X30421D01*
Y25892D01*
X30422Y25913D01*
Y25932D01*
X30424Y25950D01*
Y25964D01*
X30426Y25978D01*
Y25990D01*
X30429Y26009D01*
X30431Y26022D01*
X30433Y26030D01*
Y26032D01*
X30440Y26055D01*
X30447Y26076D01*
X30456Y26095D01*
X30464Y26109D01*
X30473Y26121D01*
X30480Y26132D01*
X30485Y26137D01*
X30487Y26139D01*
X30503Y26155D01*
X30522Y26167D01*
X30540Y26177D01*
X30559Y26188D01*
X30575Y26195D01*
X30587Y26200D01*
X30596Y26202D01*
X30599Y26204D01*
X30627Y26212D01*
X30660Y26218D01*
X30694Y26223D01*
X30727Y26225D01*
X30757Y26226D01*
X30769Y26228D01*
X30779D01*
X30790D01*
X30797D01*
X30800D01*
X30802D01*
X30849Y26226D01*
D02*
G37*
G36*
X31376Y24564D02*
X30622D01*
X31376Y25029D01*
Y24564D01*
D02*
G37*
%LPC*%
G36*
X-114393Y167074D02*
X-118580D01*
X-116333D01*
X-116516Y167066D01*
X-116692Y167044D01*
X-116860Y167015D01*
X-117014Y166971D01*
X-117160Y166920D01*
X-117292Y166861D01*
X-117416Y166803D01*
X-117526Y166744D01*
X-117629Y166678D01*
X-117716Y166620D01*
X-117790Y166561D01*
X-117856Y166510D01*
X-117899Y166466D01*
X-117936Y166437D01*
X-117958Y166415D01*
X-117965Y166408D01*
X-118075Y166276D01*
X-118170Y166137D01*
X-118251Y165990D01*
X-118324Y165837D01*
X-118383Y165683D01*
X-118426Y165522D01*
X-118470Y165375D01*
X-118500Y165222D01*
X-118529Y165083D01*
X-118551Y164958D01*
X-118558Y164841D01*
X-118573Y164739D01*
Y164658D01*
X-118580Y164592D01*
Y164607D01*
Y164541D01*
X-118573Y164336D01*
X-118551Y164138D01*
X-118522Y163955D01*
X-118485Y163787D01*
X-118434Y163626D01*
X-118383Y163479D01*
X-118331Y163340D01*
X-118273Y163223D01*
X-118214Y163113D01*
X-118163Y163018D01*
X-118104Y162938D01*
X-118060Y162872D01*
X-118024Y162821D01*
X-117994Y162784D01*
X-117973Y162762D01*
X-117965Y162755D01*
X-117848Y162638D01*
X-117724Y162543D01*
X-117592Y162455D01*
X-117460Y162381D01*
X-117328Y162316D01*
X-117197Y162264D01*
X-117072Y162221D01*
X-116948Y162184D01*
X-116831Y162155D01*
X-116728Y162140D01*
X-116633Y162125D01*
X-116552Y162111D01*
X-116487D01*
X-116435Y162103D01*
X-118580D01*
X-116392D01*
X-116252Y162111D01*
X-116113Y162118D01*
X-115989Y162140D01*
X-115864Y162162D01*
X-115755Y162191D01*
X-115652Y162221D01*
X-115557Y162257D01*
X-115469Y162294D01*
X-115389Y162330D01*
X-115315Y162367D01*
X-115257Y162396D01*
X-115206Y162425D01*
X-115169Y162447D01*
X-115140Y162469D01*
X-115125Y162477D01*
X-115118Y162484D01*
X-115023Y162557D01*
X-114942Y162645D01*
X-114788Y162828D01*
X-114664Y163026D01*
X-114569Y163216D01*
X-114525Y163304D01*
X-114488Y163392D01*
X-114459Y163465D01*
X-114437Y163531D01*
X-114415Y163589D01*
X-114400Y163626D01*
X-114393Y163655D01*
Y162945D01*
Y163663D01*
X-115337Y163955D01*
X-115389Y163765D01*
X-115454Y163611D01*
X-115520Y163472D01*
X-115586Y163362D01*
X-115645Y163282D01*
X-115696Y163216D01*
X-115725Y163187D01*
X-115740Y163172D01*
X-115850Y163092D01*
X-115960Y163033D01*
X-116069Y162989D01*
X-116179Y162960D01*
X-116267Y162945D01*
X-116340Y162938D01*
X-116369Y162931D01*
X-116406D01*
X-116501Y162938D01*
X-116589Y162945D01*
X-116758Y162989D01*
X-116904Y163048D01*
X-117028Y163121D01*
X-117123Y163194D01*
X-117197Y163253D01*
X-117241Y163296D01*
X-117248Y163304D01*
X-117255Y163311D01*
X-117314Y163392D01*
X-117358Y163479D01*
X-117402Y163575D01*
X-117438Y163677D01*
X-117497Y163897D01*
X-117533Y164109D01*
X-117548Y164211D01*
X-117563Y164307D01*
X-117570Y164387D01*
Y164468D01*
X-117577Y164526D01*
Y164577D01*
Y164607D01*
Y164614D01*
X-117570Y164768D01*
X-117563Y164914D01*
X-117548Y165053D01*
X-117526Y165171D01*
X-117504Y165288D01*
X-117475Y165390D01*
X-117446Y165478D01*
X-117409Y165558D01*
X-117380Y165632D01*
X-117350Y165690D01*
X-117321Y165741D01*
X-117299Y165785D01*
X-117277Y165815D01*
X-117262Y165844D01*
X-117248Y165851D01*
Y165858D01*
X-117182Y165924D01*
X-117116Y165990D01*
X-117043Y166042D01*
X-116977Y166086D01*
X-116831Y166151D01*
X-116692Y166195D01*
X-116567Y166225D01*
X-116516Y166232D01*
X-116472Y166239D01*
X-116435Y166246D01*
X-116384D01*
X-116245Y166239D01*
X-116121Y166210D01*
X-116004Y166181D01*
X-115908Y166137D01*
X-115828Y166100D01*
X-115777Y166063D01*
X-115740Y166034D01*
X-115725Y166027D01*
X-115630Y165939D01*
X-115557Y165844D01*
X-115491Y165749D01*
X-115447Y165654D01*
X-115411Y165566D01*
X-115381Y165500D01*
X-115374Y165456D01*
X-115367Y165449D01*
Y165441D01*
X-114408Y165668D01*
X-114474Y165873D01*
X-114554Y166049D01*
X-114642Y166195D01*
X-114723Y166320D01*
X-114796Y166422D01*
X-114854Y166488D01*
X-114891Y166532D01*
X-114898Y166547D01*
X-114906D01*
X-115015Y166642D01*
X-115125Y166722D01*
X-115242Y166788D01*
X-115359Y166854D01*
X-115477Y166905D01*
X-115601Y166942D01*
X-115711Y166979D01*
X-115828Y167008D01*
X-115930Y167030D01*
X-116025Y167044D01*
X-116113Y167059D01*
X-116186Y167066D01*
X-116245Y167074D01*
X-114393D01*
D01*
D02*
G37*
G36*
X-94446Y166993D02*
X-95346D01*
Y163765D01*
X-97330Y166993D01*
X-98267D01*
Y162184D01*
X-94446D01*
Y166993D01*
D02*
G37*
G36*
X-104892D02*
X-105792D01*
Y163765D01*
X-107776Y166993D01*
X-108713D01*
Y162184D01*
X-107812D01*
Y165339D01*
X-105865Y162184D01*
X-104892D01*
Y166993D01*
D02*
G37*
G36*
X-99190D02*
X-100163D01*
Y162184D01*
X-99190D01*
Y166993D01*
D02*
G37*
G36*
X-105865Y162184D02*
X-106063D01*
X-105865D01*
D01*
D02*
G37*
G36*
X-109225Y166993D02*
D01*
Y162184D01*
X-111158Y166993D01*
X-109225D01*
X-112182D01*
X-114049Y162184D01*
X-111793D01*
X-113024D01*
X-112629Y163275D01*
X-110689D01*
X-110279Y162184D01*
X-109225D01*
Y166993D01*
D02*
G37*
G36*
X-100595Y162184D02*
Y161459D01*
X-104423D01*
Y160859D01*
X-100595D01*
Y162184D01*
D02*
G37*
%LPD*%
G36*
X-95420D02*
X-97367D01*
Y165339D01*
X-95420Y162184D01*
D02*
G37*
G36*
X-111004Y164087D02*
X-112329D01*
X-111677Y165873D01*
X-111004Y164087D01*
D02*
G37*
%LPC*%
G36*
X-37075Y63154D02*
X-39654D01*
X-39192D01*
X-39567Y61153D01*
X-38976Y61071D01*
X-38929Y61118D01*
X-38876Y61165D01*
X-38783Y61235D01*
X-38683Y61282D01*
X-38596Y61317D01*
X-38519Y61340D01*
X-38455Y61346D01*
X-38432Y61352D01*
X-38403D01*
X-38315Y61346D01*
X-38233Y61323D01*
X-38163Y61294D01*
X-38104Y61264D01*
X-38057Y61229D01*
X-38022Y61200D01*
X-37999Y61177D01*
X-37993Y61171D01*
X-37940Y61101D01*
X-37899Y61013D01*
X-37870Y60925D01*
X-37847Y60837D01*
X-37835Y60761D01*
X-37829Y60697D01*
Y60673D01*
Y60656D01*
Y60644D01*
Y60638D01*
X-37835Y60510D01*
X-37853Y60393D01*
X-37882Y60299D01*
X-37911Y60217D01*
X-37940Y60159D01*
X-37970Y60112D01*
X-37987Y60088D01*
X-37993Y60077D01*
X-38057Y60013D01*
X-38122Y59971D01*
X-38186Y59936D01*
X-38250Y59913D01*
X-38303Y59901D01*
X-38344Y59895D01*
X-38373Y59890D01*
X-38385D01*
X-38455Y59895D01*
X-38525Y59913D01*
X-38584Y59936D01*
X-38636Y59960D01*
X-38683Y59983D01*
X-38713Y60007D01*
X-38736Y60024D01*
X-38742Y60030D01*
X-38794Y60088D01*
X-38835Y60153D01*
X-38865Y60223D01*
X-38888Y60282D01*
X-38906Y60340D01*
X-38917Y60387D01*
X-38923Y60416D01*
Y60428D01*
X-39654Y60352D01*
X-39637Y60264D01*
X-39619Y60182D01*
X-39567Y60024D01*
X-39502Y59895D01*
X-39432Y59784D01*
X-39397Y59737D01*
X-39368Y59697D01*
X-39338Y59662D01*
X-39309Y59632D01*
X-39286Y59609D01*
X-39268Y59591D01*
X-39263Y59585D01*
X-39257Y59580D01*
X-39192Y59533D01*
X-39122Y59486D01*
X-38982Y59416D01*
X-38835Y59369D01*
X-38701Y59334D01*
X-38636Y59322D01*
X-38578Y59316D01*
X-38525Y59305D01*
X-38479D01*
X-38443Y59299D01*
X-38391D01*
X-38268Y59305D01*
X-38157Y59322D01*
X-38046Y59346D01*
X-37946Y59375D01*
X-37853Y59416D01*
X-37771Y59457D01*
X-37689Y59504D01*
X-37619Y59550D01*
X-37560Y59597D01*
X-37502Y59644D01*
X-37455Y59685D01*
X-37420Y59726D01*
X-37391Y59755D01*
X-37367Y59778D01*
X-37355Y59796D01*
X-37350Y59802D01*
X-37303Y59872D01*
X-37256Y59948D01*
X-37192Y60094D01*
X-37139Y60235D01*
X-37110Y60369D01*
X-37098Y60428D01*
X-37086Y60480D01*
X-37080Y60527D01*
Y60568D01*
X-37075Y60603D01*
Y60650D01*
X-37080Y60755D01*
X-37092Y60855D01*
X-37104Y60948D01*
X-37127Y61036D01*
X-37157Y61118D01*
X-37186Y61194D01*
X-37215Y61264D01*
X-37244Y61329D01*
X-37279Y61387D01*
X-37309Y61440D01*
X-37338Y61481D01*
X-37367Y61516D01*
X-37391Y61545D01*
X-37402Y61563D01*
X-37414Y61574D01*
X-37420Y61580D01*
X-37484Y61645D01*
X-37554Y61697D01*
X-37624Y61744D01*
X-37695Y61785D01*
X-37765Y61820D01*
X-37829Y61849D01*
X-37964Y61890D01*
X-38022Y61908D01*
X-38075Y61920D01*
X-38128Y61925D01*
X-38168Y61931D01*
X-38204Y61937D01*
X-38250D01*
X-38344Y61931D01*
X-38438Y61920D01*
X-38525Y61896D01*
X-38596Y61879D01*
X-38660Y61855D01*
X-38713Y61832D01*
X-38742Y61820D01*
X-38754Y61814D01*
X-38636Y62464D01*
X-37244D01*
Y63154D01*
X-37075D01*
D01*
D02*
G37*
G36*
X-33331Y63212D02*
X-36911D01*
Y59369D01*
Y63212D01*
X-35536Y59369D01*
X-34699D01*
X-33331Y63212D01*
D01*
D02*
G37*
%LPD*%
G36*
X-35097Y60369D02*
X-36074Y63212D01*
X-34161D01*
X-35097Y60369D01*
D02*
G37*
%LPC*%
G36*
X115276Y176559D02*
Y175488D01*
X115270Y175570D01*
X115264Y175652D01*
X115223Y175798D01*
X115170Y175927D01*
X115112Y176038D01*
X115053Y176126D01*
X115024Y176167D01*
X115001Y176196D01*
X114977Y176220D01*
X114960Y176237D01*
X114954Y176243D01*
X114948Y176249D01*
X114884Y176302D01*
X114819Y176354D01*
X114743Y176395D01*
X114673Y176430D01*
X114521Y176483D01*
X114381Y176518D01*
X114310Y176536D01*
X114252Y176541D01*
X114193Y176547D01*
X114147Y176553D01*
X114106Y176559D01*
X113959D01*
X113866Y176547D01*
X113702Y176518D01*
X113556Y176471D01*
X113491Y176448D01*
X113433Y176424D01*
X113374Y176401D01*
X113328Y176378D01*
X113287Y176354D01*
X113257Y176331D01*
X113228Y176313D01*
X113211Y176302D01*
X113199Y176296D01*
X113193Y176290D01*
X113135Y176237D01*
X113076Y176179D01*
X113029Y176114D01*
X112982Y176044D01*
X112912Y175898D01*
X112860Y175758D01*
X112836Y175687D01*
X112824Y175623D01*
X112807Y175570D01*
X112801Y175518D01*
X112789Y175477D01*
Y175447D01*
X112784Y175424D01*
Y175418D01*
X113515Y175348D01*
X113526Y175459D01*
X113544Y175559D01*
X113573Y175635D01*
X113597Y175699D01*
X113626Y175752D01*
X113644Y175781D01*
X113661Y175804D01*
X113667Y175810D01*
X113725Y175857D01*
X113784Y175892D01*
X113848Y175916D01*
X113907Y175933D01*
X113953Y175945D01*
X114000Y175951D01*
X114035D01*
X114117Y175945D01*
X114193Y175927D01*
X114258Y175910D01*
X114310Y175886D01*
X114351Y175857D01*
X114381Y175839D01*
X114398Y175822D01*
X114404Y175816D01*
X114451Y175763D01*
X114480Y175699D01*
X114503Y175635D01*
X114521Y175576D01*
X114533Y175523D01*
X114539Y175477D01*
Y175447D01*
Y175436D01*
X114533Y175354D01*
X114515Y175272D01*
X114492Y175196D01*
X114462Y175126D01*
X114433Y175067D01*
X114410Y175026D01*
X114392Y174997D01*
X114386Y174985D01*
X114363Y174950D01*
X114328Y174909D01*
X114287Y174868D01*
X114240Y174821D01*
X114141Y174716D01*
X114035Y174611D01*
X113936Y174517D01*
X113889Y174470D01*
X113854Y174435D01*
X113819Y174406D01*
X113796Y174377D01*
X113778Y174365D01*
X113772Y174359D01*
X113661Y174254D01*
X113556Y174155D01*
X113468Y174061D01*
X113380Y173973D01*
X113304Y173891D01*
X113240Y173815D01*
X113175Y173745D01*
X113123Y173681D01*
X113082Y173628D01*
X113041Y173575D01*
X113012Y173535D01*
X112982Y173499D01*
X112965Y173470D01*
X112953Y173453D01*
X112942Y173441D01*
Y173435D01*
X112871Y173306D01*
X112819Y173178D01*
X112772Y173055D01*
X112743Y172938D01*
X112719Y172844D01*
X112713Y172803D01*
X112707Y172768D01*
X112702Y172745D01*
X112696Y172721D01*
Y172704D01*
X115276D01*
Y173388D01*
X113807D01*
X113854Y173464D01*
X113907Y173523D01*
X113924Y173552D01*
X113942Y173570D01*
X113953Y173581D01*
X113959Y173587D01*
X113983Y173611D01*
X114006Y173634D01*
X114071Y173698D01*
X114141Y173768D01*
X114217Y173839D01*
X114287Y173909D01*
X114346Y173962D01*
X114363Y173985D01*
X114381Y174003D01*
X114392Y174008D01*
X114398Y174014D01*
X114521Y174125D01*
X114620Y174225D01*
X114708Y174313D01*
X114773Y174383D01*
X114825Y174435D01*
X114860Y174476D01*
X114878Y174500D01*
X114884Y174506D01*
X114954Y174599D01*
X115018Y174687D01*
X115071Y174769D01*
X115112Y174845D01*
X115141Y174903D01*
X115164Y174950D01*
X115176Y174979D01*
X115182Y174991D01*
X115211Y175079D01*
X115235Y175172D01*
X115252Y175254D01*
X115264Y175330D01*
X115270Y175395D01*
X115276Y175447D01*
Y174506D01*
Y176559D01*
D02*
G37*
G36*
X119125Y176547D02*
X118294D01*
X117358Y173704D01*
X116381Y176547D01*
X115545D01*
X116920Y172704D01*
X115545D01*
D01*
X119125D01*
D01*
X117756D01*
X119125Y176547D01*
D02*
G37*
G36*
X111696Y176559D02*
X111093D01*
X111040Y176430D01*
X110970Y176313D01*
X110894Y176208D01*
X110818Y176120D01*
X110742Y176044D01*
X110683Y175991D01*
X110666Y175974D01*
X110648Y175956D01*
X110637Y175951D01*
X110631Y175945D01*
X110508Y175851D01*
X110391Y175781D01*
X110286Y175717D01*
X110192Y175670D01*
X110116Y175629D01*
X110057Y175605D01*
X110034Y175600D01*
X110017Y175594D01*
X110011Y175588D01*
X110005D01*
Y174921D01*
X110204Y174997D01*
X110385Y175085D01*
X110543Y175172D01*
X110619Y175219D01*
X110683Y175266D01*
X110748Y175307D01*
X110800Y175348D01*
X110847Y175383D01*
X110888Y175412D01*
X110917Y175442D01*
X110941Y175459D01*
X110952Y175471D01*
X110958Y175477D01*
Y172704D01*
X110005D01*
X111696D01*
Y176559D01*
D02*
G37*
G36*
X-133001Y158578D02*
Y153960D01*
X-129473Y154781D01*
Y155565D01*
X-132109Y156263D01*
X-129473Y156967D01*
Y157729D01*
X-133001Y158578D01*
D02*
G37*
G36*
X-130445Y153696D02*
X-133060D01*
Y150829D01*
Y152241D01*
X-133054Y152096D01*
X-133038Y151962D01*
X-133022Y151844D01*
X-133001Y151742D01*
X-132974Y151661D01*
X-132963Y151629D01*
X-132958Y151602D01*
X-132947Y151581D01*
X-132942Y151559D01*
X-132936Y151554D01*
Y151548D01*
X-132888Y151446D01*
X-132829Y151360D01*
X-132770Y151285D01*
X-132711Y151226D01*
X-132657Y151178D01*
X-132614Y151140D01*
X-132587Y151119D01*
X-132582Y151113D01*
X-132577D01*
X-132485Y151065D01*
X-132399Y151028D01*
X-132314Y151001D01*
X-132238Y150985D01*
X-132168Y150974D01*
X-132120Y150963D01*
X-132099D01*
X-132082D01*
X-132077D01*
X-132072D01*
X-131997Y150968D01*
X-131922Y150979D01*
X-131852Y150995D01*
X-131787Y151011D01*
X-131664Y151065D01*
X-131562Y151124D01*
X-131519Y151156D01*
X-131476Y151183D01*
X-131444Y151210D01*
X-131417Y151237D01*
X-131395Y151253D01*
X-131379Y151269D01*
X-131368Y151280D01*
X-131363Y151285D01*
X-131325Y151334D01*
X-131288Y151387D01*
X-131218Y151505D01*
X-131159Y151640D01*
X-131111Y151774D01*
X-131068Y151892D01*
X-131052Y151946D01*
X-131041Y151994D01*
X-131030Y152032D01*
X-131019Y152058D01*
X-131014Y152080D01*
Y152085D01*
X-130992Y152166D01*
X-130976Y152236D01*
X-130960Y152300D01*
X-130944Y152359D01*
X-130928Y152413D01*
X-130917Y152456D01*
X-130906Y152499D01*
X-130896Y152531D01*
X-130880Y152585D01*
X-130869Y152622D01*
X-130858Y152644D01*
Y152649D01*
X-130831Y152714D01*
X-130805Y152767D01*
X-130783Y152810D01*
X-130756Y152848D01*
X-130735Y152875D01*
X-130719Y152891D01*
X-130708Y152902D01*
X-130702Y152907D01*
X-130670Y152934D01*
X-130633Y152950D01*
X-130568Y152971D01*
X-130536Y152977D01*
X-130515Y152982D01*
X-130498D01*
X-130493D01*
X-130423Y152977D01*
X-130359Y152955D01*
X-130300Y152928D01*
X-130251Y152896D01*
X-130208Y152859D01*
X-130182Y152832D01*
X-130160Y152810D01*
X-130155Y152805D01*
X-130106Y152735D01*
X-130069Y152655D01*
X-130047Y152569D01*
X-130026Y152483D01*
X-130015Y152408D01*
X-130010Y152348D01*
Y152289D01*
X-130015Y152171D01*
X-130037Y152069D01*
X-130063Y151983D01*
X-130090Y151908D01*
X-130122Y151849D01*
X-130144Y151806D01*
X-130166Y151779D01*
X-130171Y151769D01*
X-130241Y151704D01*
X-130321Y151650D01*
X-130407Y151608D01*
X-130488Y151575D01*
X-130568Y151548D01*
X-130627Y151532D01*
X-130654Y151527D01*
X-130670D01*
X-130681Y151522D01*
X-130686D01*
X-130616Y150829D01*
D01*
X-130509Y150845D01*
X-130407Y150866D01*
X-130310Y150893D01*
X-130225Y150920D01*
X-130144Y150958D01*
X-130069Y150990D01*
X-130004Y151028D01*
X-129940Y151065D01*
X-129892Y151103D01*
X-129843Y151135D01*
X-129806Y151167D01*
X-129773Y151194D01*
X-129747Y151221D01*
X-129730Y151237D01*
X-129720Y151248D01*
X-129714Y151253D01*
X-129661Y151323D01*
X-129612Y151403D01*
X-129575Y151484D01*
X-129537Y151565D01*
X-129510Y151650D01*
X-129483Y151736D01*
X-129446Y151903D01*
X-129435Y151983D01*
X-129424Y152053D01*
X-129419Y152118D01*
X-129414Y152171D01*
X-129408Y152220D01*
Y152284D01*
X-129414Y152451D01*
X-129430Y152595D01*
X-129446Y152724D01*
X-129473Y152837D01*
X-129483Y152885D01*
X-129494Y152928D01*
X-129505Y152961D01*
X-129510Y152993D01*
X-129521Y153014D01*
X-129526Y153031D01*
X-129532Y153041D01*
Y153047D01*
X-129586Y153159D01*
X-129650Y153251D01*
X-129714Y153337D01*
X-129779Y153401D01*
X-129832Y153455D01*
X-129881Y153492D01*
X-129913Y153519D01*
X-129918Y153524D01*
X-129924D01*
X-130026Y153584D01*
X-130128Y153627D01*
X-130225Y153653D01*
X-130310Y153675D01*
X-130386Y153686D01*
X-130445Y153696D01*
D02*
G37*
G36*
X-128501Y150678D02*
X-128941D01*
Y147870D01*
X-129473D01*
Y147881D01*
X-130160Y147451D01*
X-130235Y147403D01*
X-130300Y147360D01*
X-130364Y147322D01*
X-130423Y147279D01*
X-130520Y147215D01*
X-130600Y147156D01*
X-130659Y147107D01*
X-130697Y147075D01*
X-130724Y147054D01*
X-130729Y147048D01*
X-130788Y146989D01*
X-130842Y146925D01*
X-130896Y146860D01*
X-130939Y146801D01*
X-130976Y146748D01*
X-131003Y146705D01*
X-131019Y146678D01*
X-131025Y146672D01*
Y146667D01*
X-131041Y146753D01*
X-131057Y146828D01*
X-131078Y146903D01*
X-131105Y146968D01*
X-131132Y147032D01*
X-131159Y147091D01*
X-131186Y147140D01*
X-131213Y147188D01*
X-131239Y147225D01*
X-131266Y147263D01*
X-131293Y147290D01*
X-131309Y147317D01*
X-131331Y147333D01*
X-131342Y147349D01*
X-131347Y147360D01*
X-131352D01*
X-131401Y147403D01*
X-131454Y147440D01*
X-131562Y147494D01*
X-131674Y147537D01*
X-131776Y147569D01*
X-131868Y147585D01*
X-131905Y147591D01*
X-131943D01*
X-131970Y147596D01*
X-131991D01*
X-132002D01*
X-132007D01*
X-132120Y147591D01*
X-132228Y147575D01*
X-132319Y147548D01*
X-132399Y147521D01*
X-132469Y147489D01*
X-132518Y147467D01*
X-132550Y147446D01*
X-132561Y147440D01*
X-132646Y147376D01*
X-132716Y147311D01*
X-132775Y147242D01*
X-132824Y147177D01*
X-132861Y147118D01*
X-132888Y147070D01*
X-132899Y147038D01*
X-132904Y147032D01*
Y147027D01*
X-132920Y146978D01*
X-132936Y146920D01*
X-132958Y146791D01*
X-132979Y146656D01*
X-132990Y146522D01*
X-132995Y146463D01*
Y146350D01*
X-133001Y146302D01*
Y144723D01*
X-129473D01*
Y147870D01*
X-128501D01*
Y150678D01*
D02*
G37*
G36*
X-129473Y143058D02*
Y142076D01*
X-130257D01*
X-130375D01*
X-130482D01*
X-130579Y142081D01*
X-130665Y142086D01*
X-130745D01*
X-130815Y142092D01*
X-130874Y142097D01*
X-130928Y142103D01*
X-130971Y142108D01*
X-131014Y142113D01*
X-131046Y142119D01*
X-131068D01*
X-131089Y142124D01*
X-131100Y142129D01*
X-131111D01*
X-131180Y142151D01*
X-131239Y142178D01*
X-131293Y142205D01*
X-131331Y142231D01*
X-131358Y142253D01*
X-131379Y142269D01*
X-131390Y142280D01*
X-131395Y142285D01*
X-131422Y142323D01*
X-131444Y142366D01*
X-131454Y142409D01*
X-131465Y142446D01*
X-131470Y142479D01*
X-131476Y142505D01*
Y142527D01*
X-131470Y142586D01*
X-131460Y142640D01*
X-131438Y142693D01*
X-131422Y142747D01*
X-131401Y142785D01*
X-131379Y142822D01*
X-131368Y142844D01*
X-131363Y142849D01*
X-131954Y143058D01*
D01*
X-131997Y142978D01*
X-132029Y142897D01*
X-132050Y142817D01*
X-132066Y142752D01*
X-132077Y142693D01*
X-132082Y142645D01*
Y142785D01*
Y142607D01*
X-132077Y142548D01*
X-132072Y142495D01*
X-132056Y142446D01*
X-132045Y142403D01*
X-132029Y142366D01*
X-132013Y142339D01*
X-132007Y142323D01*
X-132002Y142317D01*
X-131964Y142269D01*
X-131916Y142215D01*
X-131862Y142167D01*
X-131803Y142124D01*
X-131750Y142086D01*
X-131707Y142054D01*
X-131674Y142033D01*
X-131669Y142027D01*
X-132029D01*
Y141399D01*
X-132082D01*
X-129473D01*
Y143058D01*
D02*
G37*
G36*
X-129408Y140894D02*
D01*
Y139579D01*
X-129414Y139681D01*
X-129424Y139783D01*
X-129446Y139879D01*
X-129467Y139965D01*
X-129494Y140051D01*
X-129526Y140126D01*
X-129564Y140196D01*
X-129602Y140261D01*
X-129634Y140320D01*
X-129671Y140373D01*
X-129704Y140416D01*
X-129730Y140454D01*
X-129752Y140481D01*
X-129773Y140502D01*
X-129784Y140513D01*
X-129790Y140518D01*
X-129865Y140583D01*
X-129940Y140642D01*
X-130020Y140690D01*
X-130101Y140739D01*
X-130182Y140771D01*
X-130262Y140803D01*
X-130337Y140830D01*
X-130412Y140846D01*
X-130482Y140862D01*
X-130547Y140873D01*
X-130606Y140884D01*
X-130654Y140889D01*
X-130697Y140894D01*
X-129408D01*
X-132082D01*
X-130751D01*
X-130858Y140889D01*
X-130955Y140878D01*
X-131052Y140862D01*
X-131143Y140835D01*
X-131223Y140808D01*
X-131304Y140776D01*
X-131374Y140744D01*
X-131444Y140712D01*
X-131503Y140674D01*
X-131551Y140642D01*
X-131599Y140610D01*
X-131632Y140583D01*
X-131664Y140556D01*
X-131685Y140540D01*
X-131696Y140529D01*
X-131701Y140524D01*
X-131771Y140454D01*
X-131825Y140379D01*
X-131878Y140298D01*
X-131922Y140218D01*
X-131959Y140143D01*
X-131991Y140062D01*
X-132013Y139987D01*
X-132034Y139912D01*
X-132050Y139842D01*
X-132061Y139783D01*
X-132072Y139724D01*
X-132077Y139675D01*
X-132082Y139632D01*
Y139579D01*
X-132077Y139439D01*
X-132056Y139315D01*
X-132029Y139197D01*
X-132002Y139095D01*
X-131970Y139015D01*
X-131954Y138977D01*
X-131943Y138950D01*
X-131932Y138929D01*
X-131922Y138913D01*
X-131916Y138902D01*
Y138897D01*
X-131846Y138789D01*
X-131771Y138698D01*
X-131691Y138617D01*
X-131610Y138553D01*
X-131540Y138499D01*
X-131486Y138462D01*
X-131465Y138446D01*
X-131449Y138435D01*
X-131438Y138429D01*
X-131433D01*
X-131315Y138376D01*
X-131196Y138338D01*
X-131089Y138306D01*
X-130987Y138290D01*
X-130901Y138279D01*
X-130864Y138274D01*
X-130837D01*
X-130810Y138268D01*
X-132082D01*
X-129408D01*
Y140894D01*
D02*
G37*
G36*
X-129473Y137839D02*
D01*
Y136136D01*
X-130971D01*
Y137608D01*
X-131567D01*
Y136136D01*
X-132405D01*
Y137839D01*
X-133001D01*
Y135422D01*
X-129473D01*
Y137839D01*
D02*
G37*
%LPD*%
G36*
X-130536Y157321D02*
X-133001Y156698D01*
Y157858D01*
X-130536Y157321D01*
D02*
G37*
G36*
X-130574Y155211D02*
X-133001Y154690D01*
Y155855D01*
X-130574Y155211D01*
D02*
G37*
G36*
X-130616Y153691D02*
X-130724Y153675D01*
X-130821Y153648D01*
X-130901Y153627D01*
X-130966Y153600D01*
X-131019Y153573D01*
X-131046Y153557D01*
X-131057Y153551D01*
X-131137Y153492D01*
X-131213Y153433D01*
X-131272Y153369D01*
X-131325Y153304D01*
X-131363Y153251D01*
X-131395Y153208D01*
X-131411Y153175D01*
X-131417Y153170D01*
Y153165D01*
X-131444Y153116D01*
X-131465Y153063D01*
X-131513Y152939D01*
X-131551Y152816D01*
X-131594Y152687D01*
X-131621Y152574D01*
X-131637Y152526D01*
X-131648Y152483D01*
X-131658Y152445D01*
X-131664Y152418D01*
X-131669Y152402D01*
Y152397D01*
X-131691Y152306D01*
X-131717Y152220D01*
X-131739Y152145D01*
X-131760Y152080D01*
X-131776Y152016D01*
X-131798Y151967D01*
X-131814Y151919D01*
X-131835Y151881D01*
X-131852Y151844D01*
X-131862Y151817D01*
X-131884Y151774D01*
X-131900Y151752D01*
X-131905Y151747D01*
X-131943Y151715D01*
X-131975Y151688D01*
X-132013Y151672D01*
X-132045Y151656D01*
X-132077Y151650D01*
X-132099Y151645D01*
X-132115D01*
X-132120D01*
X-132168Y151650D01*
X-132211Y151661D01*
X-132249Y151677D01*
X-132281Y151699D01*
X-132308Y151720D01*
X-132324Y151736D01*
X-132335Y151747D01*
X-132340Y151752D01*
X-132383Y151822D01*
X-132415Y151903D01*
X-132437Y151983D01*
X-132453Y152058D01*
X-132464Y152128D01*
X-132469Y152187D01*
Y152236D01*
X-132464Y152343D01*
X-132448Y152434D01*
X-132432Y152510D01*
X-132410Y152574D01*
X-132383Y152622D01*
X-132367Y152655D01*
X-132351Y152676D01*
X-132346Y152682D01*
X-132297Y152735D01*
X-132238Y152778D01*
X-132174Y152810D01*
X-132109Y152837D01*
X-132050Y152859D01*
X-132002Y152869D01*
X-131970Y152880D01*
X-131964D01*
X-131959D01*
X-131986Y153594D01*
X-132072Y153589D01*
X-132158Y153573D01*
X-132238Y153551D01*
X-132314Y153530D01*
X-132442Y153471D01*
X-132501Y153444D01*
X-132555Y153412D01*
X-132603Y153380D01*
X-132646Y153347D01*
X-132684Y153321D01*
X-132711Y153294D01*
X-132732Y153272D01*
X-132748Y153256D01*
X-132759Y153245D01*
X-132764Y153240D01*
X-132818Y153175D01*
X-132861Y153100D01*
X-132904Y153025D01*
X-132936Y152945D01*
X-132990Y152778D01*
X-133022Y152617D01*
X-133033Y152542D01*
X-133044Y152472D01*
X-133049Y152408D01*
X-133054Y152348D01*
X-133060Y152306D01*
Y153696D01*
X-130498D01*
X-130616Y153691D01*
D02*
G37*
G36*
X-129473Y145437D02*
X-130944D01*
Y145663D01*
X-130939Y145738D01*
X-130933Y145797D01*
X-130923Y145845D01*
X-130917Y145883D01*
X-130906Y145910D01*
X-130901Y145926D01*
Y145931D01*
X-130885Y145974D01*
X-130864Y146012D01*
X-130815Y146082D01*
X-130794Y146109D01*
X-130772Y146130D01*
X-130762Y146141D01*
X-130756Y146146D01*
X-130735Y146168D01*
X-130702Y146189D01*
X-130627Y146248D01*
X-130547Y146313D01*
X-130455Y146372D01*
X-130369Y146431D01*
X-130337Y146458D01*
X-130300Y146479D01*
X-130273Y146495D01*
X-130251Y146511D01*
X-130241Y146517D01*
X-130235Y146522D01*
X-129473Y147027D01*
Y145437D01*
D02*
G37*
G36*
X-131905Y146855D02*
X-131857Y146850D01*
X-131809Y146839D01*
X-131771Y146823D01*
X-131739Y146807D01*
X-131717Y146796D01*
X-131701Y146791D01*
X-131696Y146785D01*
X-131658Y146758D01*
X-131632Y146726D01*
X-131583Y146662D01*
X-131572Y146630D01*
X-131562Y146608D01*
X-131551Y146592D01*
Y146587D01*
X-131546Y146560D01*
X-131535Y146522D01*
X-131529Y146484D01*
X-131524Y146436D01*
X-131519Y146334D01*
X-131513Y146227D01*
X-131508Y146125D01*
Y145437D01*
X-132405D01*
Y146248D01*
X-132399Y146297D01*
Y146404D01*
X-132394Y146452D01*
Y146479D01*
X-132389Y146495D01*
Y146501D01*
X-132372Y146560D01*
X-132356Y146613D01*
X-132335Y146656D01*
X-132308Y146694D01*
X-132287Y146726D01*
X-132265Y146748D01*
X-132254Y146758D01*
X-132249Y146764D01*
X-132206Y146796D01*
X-132158Y146817D01*
X-132109Y146839D01*
X-132066Y146850D01*
X-132029Y146855D01*
X-131997Y146860D01*
X-131970D01*
X-131964D01*
X-131905Y146855D01*
D02*
G37*
G36*
X-130611Y140196D02*
X-130493Y140175D01*
X-130391Y140143D01*
X-130310Y140110D01*
X-130246Y140078D01*
X-130198Y140046D01*
X-130171Y140024D01*
X-130160Y140019D01*
X-130096Y139949D01*
X-130047Y139874D01*
X-130010Y139804D01*
X-129988Y139734D01*
X-129972Y139670D01*
X-129967Y139622D01*
X-129961Y139589D01*
Y139579D01*
X-129972Y139482D01*
X-129994Y139401D01*
X-130026Y139326D01*
X-130063Y139262D01*
X-130096Y139208D01*
X-130128Y139171D01*
X-130149Y139149D01*
X-130160Y139138D01*
X-130246Y139079D01*
X-130337Y139036D01*
X-130434Y139004D01*
X-130531Y138983D01*
X-130616Y138972D01*
X-130649Y138967D01*
X-130681D01*
X-130708Y138961D01*
X-130729D01*
X-130740D01*
X-130745D01*
X-130880Y138967D01*
X-130992Y138988D01*
X-131095Y139015D01*
X-131175Y139052D01*
X-131239Y139085D01*
X-131288Y139111D01*
X-131315Y139133D01*
X-131325Y139138D01*
X-131395Y139208D01*
X-131444Y139283D01*
X-131481Y139353D01*
X-131503Y139423D01*
X-131519Y139487D01*
X-131524Y139536D01*
X-131529Y139568D01*
Y139579D01*
X-131519Y139675D01*
X-131497Y139761D01*
X-131465Y139836D01*
X-131427Y139895D01*
X-131390Y139949D01*
X-131358Y139987D01*
X-131336Y140014D01*
X-131325Y140019D01*
X-131239Y140078D01*
X-131148Y140126D01*
X-131052Y140159D01*
X-130960Y140180D01*
X-130874Y140191D01*
X-130837Y140196D01*
X-130810Y140202D01*
X-130783D01*
X-130762D01*
X-130751D01*
X-130745D01*
X-130611Y140196D01*
D02*
G37*
G36*
X-129408Y138268D02*
X-130778D01*
X-130622Y138274D01*
X-130477Y138295D01*
X-130348Y138322D01*
X-130241Y138349D01*
X-130192Y138365D01*
X-130149Y138381D01*
X-130117Y138392D01*
X-130085Y138403D01*
X-130063Y138413D01*
X-130047Y138424D01*
X-130037Y138429D01*
X-130031D01*
X-129924Y138499D01*
X-129827Y138575D01*
X-129747Y138655D01*
X-129682Y138736D01*
X-129634Y138805D01*
X-129596Y138859D01*
X-129580Y138881D01*
X-129569Y138897D01*
X-129564Y138907D01*
Y138913D01*
X-129510Y139031D01*
X-129473Y139149D01*
X-129446Y139262D01*
X-129430Y139364D01*
X-129419Y139450D01*
X-129414Y139487D01*
X-129408Y139520D01*
Y138268D01*
D02*
G37*
%LPC*%
G36*
X28184Y255845D02*
X28114D01*
X27915Y255839D01*
X27739Y255815D01*
X27657Y255798D01*
X27581Y255786D01*
X27511Y255769D01*
X27447Y255751D01*
X27394Y255728D01*
X27342Y255710D01*
X27301Y255698D01*
X27260Y255681D01*
X27230Y255669D01*
X27213Y255657D01*
X27201Y255651D01*
X27195D01*
X27026Y255546D01*
X26874Y255435D01*
X26751Y255312D01*
X26645Y255195D01*
X26564Y255096D01*
X26534Y255049D01*
X26505Y255008D01*
X26487Y254979D01*
X26470Y254955D01*
X26464Y254938D01*
X26458Y254932D01*
X26376Y254751D01*
X26318Y254569D01*
X26271Y254388D01*
X26242Y254224D01*
X26236Y254148D01*
X26224Y254084D01*
X26218Y254019D01*
Y253967D01*
X26212Y253926D01*
Y253867D01*
X26224Y253663D01*
X26248Y253469D01*
X26283Y253300D01*
X26300Y253218D01*
X26324Y253142D01*
X26347Y253078D01*
X26365Y253019D01*
X26382Y252966D01*
X26400Y252920D01*
X26417Y252885D01*
X26423Y252861D01*
X26435Y252844D01*
Y252838D01*
X26528Y252674D01*
X26634Y252528D01*
X26745Y252405D01*
X26850Y252305D01*
X26950Y252223D01*
X26991Y252188D01*
X27031Y252165D01*
X27061Y252147D01*
X27084Y252130D01*
X27096Y252124D01*
X27102Y252118D01*
X27189Y252071D01*
X27277Y252036D01*
X27459Y251972D01*
X27634Y251931D01*
X27798Y251896D01*
X27874Y251890D01*
X27938Y251878D01*
X28003Y251872D01*
X28055D01*
X28096Y251867D01*
X26212D01*
D01*
X29799D01*
Y253996D01*
X28131D01*
Y253347D01*
X29015D01*
Y252855D01*
X28945Y252803D01*
X28874Y252762D01*
X28804Y252721D01*
X28740Y252686D01*
X28681Y252656D01*
X28634Y252639D01*
X28605Y252627D01*
X28594Y252621D01*
X28500Y252592D01*
X28412Y252569D01*
X28330Y252551D01*
X28260Y252539D01*
X28196Y252534D01*
X28149Y252528D01*
X28108D01*
X28020Y252534D01*
X27932Y252545D01*
X27850Y252557D01*
X27775Y252580D01*
X27640Y252633D01*
X27529Y252697D01*
X27476Y252727D01*
X27435Y252762D01*
X27400Y252791D01*
X27365Y252814D01*
X27342Y252838D01*
X27324Y252855D01*
X27318Y252861D01*
X27312Y252867D01*
X27260Y252937D01*
X27213Y253013D01*
X27172Y253089D01*
X27143Y253171D01*
X27084Y253347D01*
X27049Y253510D01*
X27037Y253592D01*
X27031Y253663D01*
X27026Y253727D01*
X27020Y253785D01*
X27014Y253832D01*
Y253867D01*
Y253891D01*
Y253896D01*
X27020Y254013D01*
X27026Y254119D01*
X27043Y254224D01*
X27061Y254318D01*
X27084Y254400D01*
X27108Y254482D01*
X27131Y254552D01*
X27160Y254616D01*
X27189Y254675D01*
X27213Y254721D01*
X27236Y254762D01*
X27260Y254797D01*
X27277Y254821D01*
X27295Y254838D01*
X27301Y254850D01*
X27307Y254856D01*
X27365Y254914D01*
X27429Y254967D01*
X27494Y255008D01*
X27558Y255043D01*
X27693Y255102D01*
X27821Y255143D01*
X27938Y255166D01*
X27985Y255172D01*
X28032Y255178D01*
X28067Y255184D01*
X28114D01*
X28231Y255178D01*
X28342Y255160D01*
X28436Y255131D01*
X28517Y255102D01*
X28582Y255072D01*
X28629Y255043D01*
X28658Y255026D01*
X28670Y255020D01*
X28746Y254955D01*
X28810Y254879D01*
X28863Y254809D01*
X28903Y254739D01*
X28939Y254675D01*
X28956Y254622D01*
X28968Y254587D01*
X28974Y254581D01*
Y254575D01*
X29746Y254721D01*
X29722Y254815D01*
X29687Y254909D01*
X29617Y255067D01*
X29576Y255143D01*
X29530Y255207D01*
X29489Y255271D01*
X29442Y255324D01*
X29401Y255377D01*
X29360Y255417D01*
X29325Y255453D01*
X29290Y255488D01*
X29266Y255511D01*
X29243Y255529D01*
X29231Y255535D01*
X29225Y255540D01*
X29149Y255593D01*
X29061Y255640D01*
X28974Y255681D01*
X28886Y255716D01*
X28699Y255769D01*
X28523Y255809D01*
X28436Y255821D01*
X28359Y255827D01*
X28289Y255833D01*
X28231Y255839D01*
X28184Y255845D01*
D02*
G37*
G36*
X33572Y255780D02*
X32852D01*
Y253200D01*
X31267Y255780D01*
X30518D01*
Y251937D01*
X33572D01*
Y255780D01*
D02*
G37*
G36*
X35918D02*
X34391D01*
Y251937D01*
X37602D01*
X35842D01*
X35994Y251943D01*
X36134Y251948D01*
X36251Y251960D01*
X36345Y251978D01*
X36427Y251989D01*
X36479Y252001D01*
X36514Y252007D01*
X36526Y252013D01*
X36649Y252060D01*
X36754Y252106D01*
X36848Y252159D01*
X36930Y252212D01*
X36988Y252253D01*
X37035Y252288D01*
X37058Y252317D01*
X37070Y252323D01*
X37164Y252428D01*
X37246Y252539D01*
X37316Y252650D01*
X37374Y252762D01*
X37421Y252855D01*
X37439Y252896D01*
X37456Y252931D01*
X37468Y252961D01*
X37474Y252984D01*
X37480Y252996D01*
Y253001D01*
X37521Y253136D01*
X37550Y253276D01*
X37573Y253411D01*
X37585Y253540D01*
X37597Y253651D01*
Y253698D01*
X37602Y253739D01*
Y253820D01*
X37597Y254013D01*
X37585Y254189D01*
X37562Y254347D01*
X37550Y254411D01*
X37538Y254476D01*
X37526Y254534D01*
X37515Y254581D01*
X37503Y254628D01*
X37491Y254663D01*
X37486Y254692D01*
X37480Y254710D01*
X37474Y254721D01*
Y254727D01*
X37421Y254862D01*
X37363Y254979D01*
X37304Y255084D01*
X37246Y255178D01*
X37187Y255248D01*
X37146Y255301D01*
X37117Y255336D01*
X37111Y255347D01*
X37105D01*
X37012Y255435D01*
X36912Y255511D01*
X36819Y255575D01*
X36731Y255622D01*
X36649Y255657D01*
X36590Y255687D01*
X36567Y255693D01*
X36549Y255698D01*
X36538Y255704D01*
X36532D01*
X36427Y255728D01*
X36310Y255751D01*
X36193Y255763D01*
X36070Y255769D01*
X35965Y255774D01*
X35918Y255780D01*
D02*
G37*
%LPD*%
G36*
X29799Y251867D02*
X28155D01*
X28330Y251872D01*
X28500Y251896D01*
X28658Y251925D01*
X28798Y251954D01*
X28863Y251972D01*
X28921Y251989D01*
X28968Y252001D01*
X29009Y252013D01*
X29044Y252025D01*
X29067Y252036D01*
X29085Y252042D01*
X29091D01*
X29254Y252112D01*
X29395Y252183D01*
X29518Y252253D01*
X29617Y252317D01*
X29699Y252376D01*
X29752Y252416D01*
X29787Y252446D01*
X29799Y252457D01*
Y251867D01*
D02*
G37*
G36*
X32794Y251937D02*
X31238D01*
Y254458D01*
X32794Y251937D01*
D02*
G37*
G36*
X35748Y255125D02*
X35812D01*
X35871Y255119D01*
X35918D01*
X35965Y255113D01*
X36005D01*
X36070Y255102D01*
X36111Y255096D01*
X36140Y255090D01*
X36146D01*
X36222Y255067D01*
X36292Y255043D01*
X36356Y255014D01*
X36403Y254985D01*
X36444Y254955D01*
X36479Y254932D01*
X36497Y254914D01*
X36503Y254909D01*
X36555Y254856D01*
X36596Y254792D01*
X36631Y254733D01*
X36667Y254669D01*
X36690Y254616D01*
X36707Y254575D01*
X36713Y254546D01*
X36719Y254534D01*
X36748Y254441D01*
X36766Y254329D01*
X36783Y254218D01*
X36789Y254107D01*
X36795Y254008D01*
X36801Y253967D01*
Y253932D01*
Y253896D01*
Y253873D01*
Y253861D01*
Y253856D01*
X36795Y253698D01*
X36789Y253557D01*
X36778Y253434D01*
X36760Y253335D01*
X36742Y253253D01*
X36731Y253194D01*
X36725Y253177D01*
Y253159D01*
X36719Y253154D01*
Y253148D01*
X36690Y253060D01*
X36655Y252984D01*
X36625Y252920D01*
X36590Y252867D01*
X36561Y252826D01*
X36544Y252803D01*
X36526Y252785D01*
X36520Y252779D01*
X36473Y252738D01*
X36421Y252709D01*
X36316Y252656D01*
X36274Y252645D01*
X36239Y252633D01*
X36210Y252621D01*
X36204D01*
X36146Y252609D01*
X36076Y252604D01*
X35994Y252592D01*
X35923D01*
X35853Y252586D01*
X35169D01*
Y255131D01*
X35678D01*
X35748Y255125D01*
D02*
G37*
%LPC*%
G36*
X26376Y27133D02*
X25223D01*
Y26627D01*
X26376D01*
Y27133D01*
D02*
G37*
G36*
X26693Y26506D02*
X26549D01*
Y25591D01*
X26376D01*
X26693D01*
Y26506D01*
D02*
G37*
G36*
X26376Y25572D02*
Y25234D01*
D01*
Y25572D01*
D02*
G37*
G36*
X25421D02*
X25226D01*
Y24664D01*
X26376D01*
X25421D01*
Y25001D01*
X26376D01*
Y25234D01*
X25421D01*
Y25572D01*
D02*
G37*
G36*
X25816Y24562D02*
X25804D01*
X25753Y24560D01*
X25704Y24555D01*
X25659Y24548D01*
X25617Y24538D01*
X25578Y24527D01*
X25543Y24515D01*
X25510Y24501D01*
X25480Y24487D01*
X25454Y24471D01*
X25431Y24459D01*
X25412Y24445D01*
X25396Y24434D01*
X25382Y24424D01*
X25373Y24417D01*
X25368Y24412D01*
X25366Y24410D01*
X25338Y24380D01*
X25314Y24349D01*
X25293Y24315D01*
X25274Y24282D01*
X25260Y24249D01*
X25246Y24214D01*
X25235Y24182D01*
X25226Y24149D01*
X25221Y24119D01*
X25216Y24091D01*
X25212Y24067D01*
X25209Y24046D01*
Y24028D01*
X25207Y24014D01*
Y24562D01*
Y23449D01*
D01*
Y24004D01*
X25209Y23953D01*
X25214Y23906D01*
X25223Y23864D01*
X25230Y23827D01*
X25235Y23811D01*
X25239Y23797D01*
X25244Y23785D01*
X25247Y23775D01*
X25249Y23766D01*
X25253Y23761D01*
X25254Y23757D01*
Y23755D01*
X25268Y23726D01*
X25284Y23698D01*
X25302Y23673D01*
X25319Y23650D01*
X25333Y23633D01*
X25345Y23619D01*
X25354Y23610D01*
X25358Y23607D01*
X25384Y23584D01*
X25412Y23561D01*
X25438Y23544D01*
X25463Y23528D01*
X25484Y23516D01*
X25501Y23507D01*
X25512Y23502D01*
X25513Y23500D01*
X25515D01*
X25562Y23482D01*
X25611Y23470D01*
X25660Y23461D01*
X25708Y23456D01*
X25729Y23453D01*
X25748D01*
X25765Y23451D01*
X25781Y23449D01*
X25207D01*
X25811D01*
X25862Y23451D01*
X25909Y23456D01*
X25953Y23463D01*
X25995Y23472D01*
X26033Y23484D01*
X26068Y23496D01*
X26100Y23510D01*
X26129Y23524D01*
X26156Y23538D01*
X26178Y23552D01*
X26198Y23565D01*
X26213Y23577D01*
X26226Y23586D01*
X26234Y23593D01*
X26240Y23598D01*
X26241Y23600D01*
X26269Y23629D01*
X26292Y23661D01*
X26313Y23692D01*
X26331Y23727D01*
X26346Y23761D01*
X26359Y23794D01*
X26369Y23827D01*
X26378Y23859D01*
X26385Y23888D01*
X26388Y23916D01*
X26392Y23943D01*
X26395Y23964D01*
Y23981D01*
X26397Y23995D01*
Y24006D01*
X26395Y24053D01*
X26390Y24097D01*
X26383Y24137D01*
X26373Y24175D01*
X26360Y24212D01*
X26348Y24245D01*
X26334Y24275D01*
X26318Y24303D01*
X26304Y24328D01*
X26290Y24349D01*
X26278Y24368D01*
X26266Y24382D01*
X26255Y24394D01*
X26248Y24403D01*
X26243Y24408D01*
X26241Y24410D01*
X26210Y24436D01*
X26177Y24461D01*
X26142Y24480D01*
X26107Y24497D01*
X26070Y24513D01*
X26033Y24525D01*
X25998Y24536D01*
X25963Y24543D01*
X25932Y24550D01*
X25900Y24553D01*
X25874Y24557D01*
X25849Y24560D01*
X25830D01*
X25816Y24562D01*
D02*
G37*
G36*
Y23314D02*
X25804D01*
X25753Y23313D01*
X25704Y23307D01*
X25659Y23300D01*
X25617Y23290D01*
X25578Y23279D01*
X25543Y23267D01*
X25510Y23253D01*
X25480Y23239D01*
X25454Y23223D01*
X25431Y23211D01*
X25412Y23197D01*
X25396Y23187D01*
X25382Y23176D01*
X25373Y23169D01*
X25368Y23164D01*
X25366Y23162D01*
X25338Y23132D01*
X25314Y23101D01*
X25293Y23068D01*
X25274Y23034D01*
X25260Y23001D01*
X25246Y22966D01*
X25235Y22935D01*
X25226Y22901D01*
X25221Y22872D01*
X25216Y22844D01*
X25212Y22819D01*
X25209Y22798D01*
Y22781D01*
X25207Y22767D01*
Y23314D01*
D01*
D01*
Y22201D01*
D01*
Y22756D01*
X25209Y22705D01*
X25214Y22658D01*
X25223Y22616D01*
X25230Y22579D01*
X25235Y22564D01*
X25239Y22550D01*
X25244Y22537D01*
X25247Y22527D01*
X25249Y22518D01*
X25253Y22513D01*
X25254Y22509D01*
Y22508D01*
X25268Y22478D01*
X25284Y22450D01*
X25302Y22425D01*
X25319Y22403D01*
X25333Y22385D01*
X25345Y22371D01*
X25354Y22362D01*
X25358Y22359D01*
X25384Y22336D01*
X25412Y22313D01*
X25438Y22296D01*
X25463Y22280D01*
X25484Y22268D01*
X25501Y22259D01*
X25512Y22254D01*
X25513Y22252D01*
X25515D01*
X25562Y22235D01*
X25611Y22222D01*
X25660Y22214D01*
X25708Y22208D01*
X25729Y22205D01*
X25748D01*
X25765Y22203D01*
X25781Y22201D01*
X25207D01*
X25811D01*
X25862Y22203D01*
X25909Y22208D01*
X25953Y22215D01*
X25995Y22224D01*
X26033Y22236D01*
X26068Y22249D01*
X26100Y22263D01*
X26129Y22277D01*
X26156Y22291D01*
X26178Y22305D01*
X26198Y22317D01*
X26213Y22329D01*
X26226Y22338D01*
X26234Y22345D01*
X26240Y22350D01*
X26241Y22352D01*
X26269Y22382D01*
X26292Y22413D01*
X26313Y22445D01*
X26331Y22480D01*
X26346Y22513D01*
X26359Y22546D01*
X26369Y22579D01*
X26378Y22611D01*
X26385Y22641D01*
X26388Y22669D01*
X26392Y22695D01*
X26395Y22716D01*
Y22733D01*
X26397Y22747D01*
Y22758D01*
X26395Y22805D01*
X26390Y22849D01*
X26383Y22889D01*
X26373Y22928D01*
X26360Y22964D01*
X26348Y22998D01*
X26334Y23027D01*
X26318Y23055D01*
X26304Y23080D01*
X26290Y23101D01*
X26278Y23120D01*
X26266Y23134D01*
X26255Y23146D01*
X26248Y23155D01*
X26243Y23160D01*
X26241Y23162D01*
X26210Y23188D01*
X26177Y23213D01*
X26142Y23232D01*
X26107Y23250D01*
X26070Y23265D01*
X26033Y23278D01*
X25998Y23288D01*
X25963Y23295D01*
X25932Y23302D01*
X25900Y23306D01*
X25874Y23309D01*
X25849Y23313D01*
X25830D01*
X25816Y23314D01*
D02*
G37*
G36*
X26058Y22053D02*
X26044D01*
X26007Y22051D01*
X25974Y22044D01*
X25946Y22035D01*
X25919Y22025D01*
X25898Y22012D01*
X25883Y22004D01*
X25874Y21997D01*
X25870Y21995D01*
X25844Y21972D01*
X25821Y21946D01*
X25804Y21920D01*
X25790Y21893D01*
X25779Y21871D01*
X25771Y21851D01*
X25769Y21844D01*
X25767Y21839D01*
X25765Y21836D01*
Y21834D01*
X25751Y21860D01*
X25736Y21885D01*
X25720Y21904D01*
X25702Y21921D01*
X25688Y21935D01*
X25676Y21944D01*
X25669Y21951D01*
X25666Y21953D01*
X25639Y21967D01*
X25613Y21977D01*
X25589Y21986D01*
X25566Y21991D01*
X25547Y21995D01*
X25531Y21997D01*
X25520D01*
X25517D01*
X25489Y21995D01*
X25464Y21991D01*
X25442Y21984D01*
X25421Y21979D01*
X25405Y21972D01*
X25393Y21965D01*
X25386Y21962D01*
X25382Y21960D01*
X25361Y21946D01*
X25342Y21932D01*
X25326Y21916D01*
X25312Y21904D01*
X25300Y21892D01*
X25293Y21881D01*
X25288Y21874D01*
X25286Y21872D01*
X25274Y21851D01*
X25263Y21832D01*
X25254Y21811D01*
X25249Y21792D01*
X25244Y21776D01*
X25240Y21764D01*
X25239Y21755D01*
Y21752D01*
X25235Y21724D01*
X25232Y21692D01*
X25230Y21659D01*
X25228Y21626D01*
X25226Y21596D01*
Y22053D01*
D01*
Y21090D01*
X26376D01*
Y21589D01*
X26374Y21619D01*
Y21666D01*
X26373Y21687D01*
Y21718D01*
X26371Y21731D01*
Y21748D01*
X26369Y21753D01*
Y21760D01*
X26364Y21794D01*
X26357Y21823D01*
X26348Y21850D01*
X26338Y21872D01*
X26329Y21892D01*
X26322Y21906D01*
X26317Y21913D01*
X26315Y21916D01*
X26297Y21939D01*
X26276Y21958D01*
X26257Y21976D01*
X26238Y21990D01*
X26222Y22000D01*
X26208Y22009D01*
X26199Y22014D01*
X26196Y22016D01*
X26168Y22028D01*
X26142Y22037D01*
X26115Y22044D01*
X26093Y22047D01*
X26072Y22051D01*
X26058Y22053D01*
D02*
G37*
%LPD*%
G36*
X26376Y26627D02*
X25713D01*
X25690Y26687D01*
X25664Y26741D01*
X25638Y26788D01*
X25624Y26811D01*
X25610Y26830D01*
X25597Y26849D01*
X25585Y26865D01*
X25575Y26879D01*
X25566Y26891D01*
X25557Y26900D01*
X25552Y26907D01*
X25548Y26911D01*
X25547Y26912D01*
X26376D01*
Y26627D01*
D02*
G37*
G36*
X25261Y26937D02*
X25296Y26916D01*
X25328Y26893D01*
X25354Y26870D01*
X25377Y26848D01*
X25393Y26830D01*
X25398Y26825D01*
X25403Y26820D01*
X25405Y26816D01*
X25407Y26814D01*
X25435Y26778D01*
X25456Y26743D01*
X25475Y26711D01*
X25489Y26683D01*
X25501Y26660D01*
X25508Y26643D01*
X25510Y26636D01*
X25512Y26631D01*
X25513Y26629D01*
Y26627D01*
X25223D01*
Y26953D01*
X25261Y26937D01*
D02*
G37*
G36*
X25835Y24321D02*
X25869Y24319D01*
X25902Y24314D01*
X25930Y24308D01*
X25958Y24301D01*
X25982Y24294D01*
X26005Y24286D01*
X26024Y24279D01*
X26042Y24270D01*
X26058Y24261D01*
X26070Y24254D01*
X26080Y24247D01*
X26089Y24242D01*
X26094Y24237D01*
X26098Y24235D01*
X26100Y24233D01*
X26117Y24216D01*
X26133Y24198D01*
X26145Y24179D01*
X26157Y24160D01*
X26166Y24140D01*
X26175Y24121D01*
X26187Y24086D01*
X26194Y24055D01*
X26196Y24041D01*
X26198Y24028D01*
X26199Y24020D01*
Y24006D01*
X26198Y23981D01*
X26196Y23957D01*
X26191Y23934D01*
X26184Y23911D01*
X26168Y23873D01*
X26149Y23839D01*
X26131Y23813D01*
X26122Y23803D01*
X26115Y23794D01*
X26108Y23787D01*
X26103Y23782D01*
X26101Y23780D01*
X26100Y23778D01*
X26080Y23762D01*
X26058Y23748D01*
X26035Y23736D01*
X26010Y23727D01*
X25961Y23710D01*
X25912Y23699D01*
X25890Y23696D01*
X25869Y23694D01*
X25851Y23692D01*
X25834Y23691D01*
X25821Y23689D01*
X25811D01*
X25804D01*
X25802D01*
X25765Y23691D01*
X25732Y23692D01*
X25701Y23698D01*
X25671Y23703D01*
X25645Y23708D01*
X25620Y23717D01*
X25597Y23724D01*
X25578Y23733D01*
X25561Y23740D01*
X25547Y23748D01*
X25533Y23755D01*
X25522Y23761D01*
X25515Y23768D01*
X25510Y23771D01*
X25506Y23773D01*
X25505Y23775D01*
X25487Y23792D01*
X25471Y23810D01*
X25459Y23829D01*
X25447Y23848D01*
X25436Y23867D01*
X25429Y23887D01*
X25417Y23923D01*
X25410Y23955D01*
X25408Y23969D01*
X25407Y23981D01*
X25405Y23992D01*
Y24006D01*
X25407Y24032D01*
X25408Y24056D01*
X25421Y24102D01*
X25436Y24142D01*
X25454Y24174D01*
X25463Y24188D01*
X25471Y24200D01*
X25480Y24210D01*
X25487Y24219D01*
X25494Y24226D01*
X25499Y24231D01*
X25501Y24233D01*
X25503Y24235D01*
X25522Y24251D01*
X25543Y24265D01*
X25566Y24275D01*
X25590Y24286D01*
X25639Y24301D01*
X25687Y24312D01*
X25709Y24315D01*
X25730Y24317D01*
X25750Y24321D01*
X25765D01*
X25779Y24322D01*
X25790D01*
X25797D01*
X25799D01*
X25835Y24321D01*
D02*
G37*
G36*
Y23073D02*
X25869Y23071D01*
X25902Y23066D01*
X25930Y23061D01*
X25958Y23054D01*
X25982Y23047D01*
X26005Y23038D01*
X26024Y23031D01*
X26042Y23022D01*
X26058Y23013D01*
X26070Y23006D01*
X26080Y22999D01*
X26089Y22994D01*
X26094Y22989D01*
X26098Y22987D01*
X26100Y22985D01*
X26117Y22968D01*
X26133Y22950D01*
X26145Y22931D01*
X26157Y22912D01*
X26166Y22893D01*
X26175Y22873D01*
X26187Y22838D01*
X26194Y22807D01*
X26196Y22793D01*
X26198Y22781D01*
X26199Y22772D01*
Y22758D01*
X26198Y22733D01*
X26196Y22709D01*
X26191Y22686D01*
X26184Y22663D01*
X26168Y22625D01*
X26149Y22592D01*
X26131Y22565D01*
X26122Y22555D01*
X26115Y22546D01*
X26108Y22539D01*
X26103Y22534D01*
X26101Y22532D01*
X26100Y22530D01*
X26080Y22515D01*
X26058Y22501D01*
X26035Y22488D01*
X26010Y22480D01*
X25961Y22462D01*
X25912Y22452D01*
X25890Y22448D01*
X25869Y22446D01*
X25851Y22445D01*
X25834Y22443D01*
X25821Y22441D01*
X25811D01*
X25804D01*
X25802D01*
X25765Y22443D01*
X25732Y22445D01*
X25701Y22450D01*
X25671Y22455D01*
X25645Y22460D01*
X25620Y22469D01*
X25597Y22476D01*
X25578Y22485D01*
X25561Y22492D01*
X25547Y22501D01*
X25533Y22508D01*
X25522Y22513D01*
X25515Y22520D01*
X25510Y22523D01*
X25506Y22525D01*
X25505Y22527D01*
X25487Y22544D01*
X25471Y22562D01*
X25459Y22581D01*
X25447Y22600D01*
X25436Y22620D01*
X25429Y22639D01*
X25417Y22676D01*
X25410Y22707D01*
X25408Y22721D01*
X25407Y22733D01*
X25405Y22744D01*
Y22758D01*
X25407Y22784D01*
X25408Y22809D01*
X25421Y22854D01*
X25436Y22894D01*
X25454Y22926D01*
X25463Y22940D01*
X25471Y22952D01*
X25480Y22963D01*
X25487Y22971D01*
X25494Y22978D01*
X25499Y22984D01*
X25501Y22985D01*
X25503Y22987D01*
X25522Y23003D01*
X25543Y23017D01*
X25566Y23027D01*
X25590Y23038D01*
X25639Y23054D01*
X25687Y23064D01*
X25709Y23068D01*
X25730Y23069D01*
X25750Y23073D01*
X25765D01*
X25779Y23075D01*
X25790D01*
X25797D01*
X25799D01*
X25835Y23073D01*
D02*
G37*
G36*
X26052Y21811D02*
X26072Y21808D01*
X26089Y21802D01*
X26103Y21797D01*
X26114Y21790D01*
X26122Y21785D01*
X26128Y21781D01*
X26129Y21780D01*
X26142Y21767D01*
X26152Y21753D01*
X26159Y21738D01*
X26166Y21725D01*
X26170Y21713D01*
X26173Y21704D01*
X26175Y21697D01*
Y21696D01*
X26177Y21689D01*
Y21680D01*
X26178Y21657D01*
X26180Y21631D01*
Y21603D01*
X26182Y21578D01*
Y21323D01*
X25874D01*
Y21563D01*
X25876Y21587D01*
X25877Y21608D01*
Y21627D01*
X25879Y21643D01*
X25881Y21659D01*
X25883Y21671D01*
X25884Y21682D01*
X25886Y21692D01*
X25888Y21704D01*
X25891Y21713D01*
Y21715D01*
X25898Y21732D01*
X25905Y21746D01*
X25914Y21759D01*
X25923Y21769D01*
X25932Y21776D01*
X25939Y21781D01*
X25942Y21785D01*
X25944Y21787D01*
X25958Y21795D01*
X25974Y21802D01*
X25988Y21806D01*
X26002Y21809D01*
X26014Y21811D01*
X26023Y21813D01*
X26030D01*
X26031D01*
X26052Y21811D01*
D02*
G37*
G36*
X25568Y21769D02*
X25587Y21766D01*
X25601Y21760D01*
X25615Y21753D01*
X25625Y21746D01*
X25632Y21741D01*
X25638Y21738D01*
X25639Y21736D01*
X25650Y21722D01*
X25660Y21708D01*
X25667Y21692D01*
X25673Y21676D01*
X25676Y21664D01*
X25678Y21654D01*
X25680Y21647D01*
Y21636D01*
X25681Y21626D01*
Y21575D01*
X25683Y21545D01*
Y21323D01*
X25417D01*
Y21556D01*
X25419Y21573D01*
Y21615D01*
X25421Y21626D01*
Y21645D01*
X25422Y21652D01*
Y21654D01*
X25426Y21675D01*
X25431Y21692D01*
X25438Y21706D01*
X25445Y21718D01*
X25452Y21729D01*
X25457Y21736D01*
X25461Y21739D01*
X25463Y21741D01*
X25477Y21752D01*
X25491Y21759D01*
X25505Y21764D01*
X25519Y21767D01*
X25529Y21769D01*
X25540Y21771D01*
X25547D01*
X25548D01*
X25568Y21769D01*
D02*
G37*
%LPC*%
G36*
X36347Y27224D02*
Y26851D01*
X36345Y26881D01*
X36342Y26911D01*
X36337Y26937D01*
X36328Y26961D01*
X36319Y26984D01*
X36310Y27007D01*
X36300Y27026D01*
X36288Y27044D01*
X36277Y27060D01*
X36267Y27072D01*
X36258Y27084D01*
X36247Y27093D01*
X36240Y27101D01*
X36235Y27107D01*
X36232Y27108D01*
X36230Y27110D01*
X36202Y27130D01*
X36169Y27147D01*
X36134Y27163D01*
X36097Y27177D01*
X36058Y27187D01*
X36020Y27196D01*
X35943Y27210D01*
X35906Y27215D01*
X35871Y27219D01*
X35841Y27220D01*
X35813Y27222D01*
X35792Y27224D01*
X35761D01*
X35701Y27222D01*
X35647Y27219D01*
X35596Y27213D01*
X35549Y27207D01*
X35507Y27198D01*
X35469Y27189D01*
X35435Y27178D01*
X35404Y27168D01*
X35378Y27158D01*
X35355Y27147D01*
X35336Y27138D01*
X35320Y27130D01*
X35309Y27123D01*
X35301Y27117D01*
X35295Y27114D01*
X35294Y27112D01*
X35273Y27093D01*
X35253Y27073D01*
X35238Y27053D01*
X35224Y27031D01*
X35211Y27011D01*
X35203Y26988D01*
X35194Y26967D01*
X35189Y26946D01*
X35183Y26926D01*
X35180Y26909D01*
X35176Y26893D01*
X35175Y26879D01*
X35173Y26867D01*
Y26851D01*
X35175Y26822D01*
X35178Y26792D01*
X35183Y26765D01*
X35192Y26739D01*
X35201Y26717D01*
X35210Y26695D01*
X35222Y26676D01*
X35232Y26659D01*
X35243Y26643D01*
X35253Y26629D01*
X35264Y26617D01*
X35273Y26608D01*
X35281Y26601D01*
X35287Y26594D01*
X35290Y26592D01*
X35292Y26590D01*
X35320Y26571D01*
X35353Y26554D01*
X35388Y26538D01*
X35425Y26526D01*
X35463Y26515D01*
X35502Y26507D01*
X35579Y26493D01*
X35616Y26487D01*
X35649Y26484D01*
X35679Y26482D01*
X35707Y26480D01*
X35728Y26478D01*
X35173D01*
D01*
X36347D01*
Y27224D01*
D02*
G37*
G36*
X36643Y26417D02*
X36499D01*
Y25502D01*
X36326D01*
D01*
X36643D01*
Y26417D01*
D02*
G37*
G36*
X36326Y25483D02*
Y25145D01*
D01*
Y25483D01*
D02*
G37*
G36*
X35371D02*
X35176D01*
Y24575D01*
X36326D01*
D01*
X35371D01*
Y24912D01*
X36326D01*
Y25145D01*
X35371D01*
Y25483D01*
D02*
G37*
G36*
X36347Y24473D02*
D01*
Y23916D01*
X36345Y23964D01*
X36340Y24008D01*
X36333Y24048D01*
X36323Y24086D01*
X36310Y24123D01*
X36298Y24156D01*
X36284Y24186D01*
X36268Y24214D01*
X36254Y24238D01*
X36240Y24260D01*
X36228Y24279D01*
X36216Y24293D01*
X36205Y24305D01*
X36198Y24314D01*
X36193Y24319D01*
X36191Y24321D01*
X36160Y24347D01*
X36127Y24372D01*
X36092Y24391D01*
X36057Y24408D01*
X36020Y24424D01*
X35983Y24436D01*
X35948Y24447D01*
X35913Y24454D01*
X35882Y24461D01*
X35850Y24464D01*
X35824Y24468D01*
X35799Y24471D01*
X35780D01*
X35766Y24473D01*
X35754D01*
X35703Y24471D01*
X35654Y24466D01*
X35609Y24459D01*
X35567Y24449D01*
X35528Y24438D01*
X35493Y24426D01*
X35460Y24412D01*
X35430Y24398D01*
X35404Y24382D01*
X35381Y24370D01*
X35362Y24356D01*
X35346Y24345D01*
X35332Y24335D01*
X35323Y24328D01*
X35318Y24322D01*
X35316Y24321D01*
X35288Y24291D01*
X35264Y24260D01*
X35243Y24226D01*
X35224Y24193D01*
X35210Y24160D01*
X35196Y24125D01*
X35185Y24093D01*
X35176Y24060D01*
X35171Y24030D01*
X35166Y24002D01*
X35162Y23978D01*
X35159Y23957D01*
Y23939D01*
X35157Y23925D01*
Y23915D01*
X35159Y23864D01*
X35164Y23817D01*
X35173Y23775D01*
X35180Y23738D01*
X35185Y23722D01*
X35189Y23708D01*
X35194Y23696D01*
X35197Y23686D01*
X35199Y23677D01*
X35203Y23672D01*
X35204Y23668D01*
Y23666D01*
X35218Y23637D01*
X35234Y23608D01*
X35252Y23584D01*
X35269Y23561D01*
X35283Y23544D01*
X35295Y23530D01*
X35304Y23521D01*
X35308Y23517D01*
X35334Y23495D01*
X35362Y23472D01*
X35388Y23455D01*
X35413Y23439D01*
X35434Y23426D01*
X35451Y23418D01*
X35462Y23413D01*
X35463Y23411D01*
X35465D01*
X35512Y23393D01*
X35561Y23381D01*
X35610Y23372D01*
X35658Y23367D01*
X35679Y23363D01*
X35698D01*
X35715Y23362D01*
X35731Y23360D01*
X35157D01*
D01*
X36347D01*
Y24473D01*
D02*
G37*
G36*
X35766Y23225D02*
X35754D01*
X35703Y23223D01*
X35654Y23218D01*
X35609Y23211D01*
X35567Y23201D01*
X35528Y23190D01*
X35493Y23178D01*
X35460Y23164D01*
X35430Y23150D01*
X35404Y23134D01*
X35381Y23122D01*
X35362Y23108D01*
X35346Y23098D01*
X35332Y23087D01*
X35323Y23080D01*
X35318Y23075D01*
X35316Y23073D01*
X35288Y23043D01*
X35264Y23012D01*
X35243Y22978D01*
X35224Y22945D01*
X35210Y22912D01*
X35196Y22877D01*
X35185Y22846D01*
X35176Y22812D01*
X35171Y22783D01*
X35166Y22754D01*
X35162Y22730D01*
X35159Y22709D01*
Y22692D01*
X35157Y22678D01*
Y22667D01*
X35159Y22616D01*
X35164Y22569D01*
X35173Y22527D01*
X35180Y22490D01*
X35185Y22475D01*
X35189Y22460D01*
X35194Y22448D01*
X35197Y22438D01*
X35199Y22429D01*
X35203Y22424D01*
X35204Y22420D01*
Y22419D01*
X35218Y22389D01*
X35234Y22361D01*
X35252Y22336D01*
X35269Y22313D01*
X35283Y22296D01*
X35295Y22282D01*
X35304Y22273D01*
X35308Y22270D01*
X35334Y22247D01*
X35362Y22224D01*
X35388Y22207D01*
X35413Y22191D01*
X35434Y22179D01*
X35451Y22170D01*
X35462Y22165D01*
X35463Y22163D01*
X35465D01*
X35512Y22145D01*
X35561Y22133D01*
X35610Y22125D01*
X35658Y22119D01*
X35679Y22116D01*
X35698D01*
X35715Y22114D01*
X35731Y22112D01*
X35157D01*
D01*
X36347D01*
Y22669D01*
X36345Y22716D01*
X36340Y22760D01*
X36333Y22800D01*
X36323Y22839D01*
X36310Y22875D01*
X36298Y22908D01*
X36284Y22938D01*
X36268Y22966D01*
X36254Y22991D01*
X36240Y23012D01*
X36228Y23031D01*
X36216Y23045D01*
X36205Y23057D01*
X36198Y23066D01*
X36193Y23071D01*
X36191Y23073D01*
X36160Y23099D01*
X36127Y23124D01*
X36092Y23143D01*
X36057Y23160D01*
X36020Y23176D01*
X35983Y23189D01*
X35948Y23199D01*
X35913Y23206D01*
X35882Y23213D01*
X35850Y23216D01*
X35824Y23220D01*
X35799Y23223D01*
X35780D01*
X35766Y23225D01*
D02*
G37*
G36*
X36008Y21963D02*
X35994D01*
X35957Y21962D01*
X35924Y21955D01*
X35896Y21946D01*
X35869Y21936D01*
X35848Y21923D01*
X35833Y21914D01*
X35824Y21907D01*
X35820Y21906D01*
X35794Y21883D01*
X35771Y21857D01*
X35754Y21831D01*
X35740Y21804D01*
X35729Y21781D01*
X35721Y21762D01*
X35719Y21755D01*
X35717Y21750D01*
X35715Y21746D01*
Y21745D01*
X35701Y21771D01*
X35686Y21795D01*
X35670Y21815D01*
X35652Y21832D01*
X35638Y21846D01*
X35626Y21855D01*
X35619Y21862D01*
X35616Y21864D01*
X35589Y21878D01*
X35563Y21888D01*
X35539Y21897D01*
X35516Y21902D01*
X35497Y21906D01*
X35481Y21907D01*
X35470D01*
X35467D01*
X35439Y21906D01*
X35414Y21902D01*
X35392Y21895D01*
X35371Y21890D01*
X35355Y21883D01*
X35343Y21876D01*
X35336Y21872D01*
X35332Y21871D01*
X35311Y21857D01*
X35292Y21843D01*
X35276Y21827D01*
X35262Y21815D01*
X35250Y21802D01*
X35243Y21792D01*
X35238Y21785D01*
X35236Y21783D01*
X35224Y21762D01*
X35213Y21743D01*
X35204Y21722D01*
X35199Y21703D01*
X35194Y21687D01*
X35190Y21675D01*
X35189Y21666D01*
Y21663D01*
X35185Y21634D01*
X35182Y21603D01*
X35180Y21570D01*
X35178Y21536D01*
X35176Y21507D01*
Y21963D01*
D01*
Y21001D01*
X36326D01*
Y21500D01*
X36324Y21530D01*
Y21577D01*
X36323Y21598D01*
Y21629D01*
X36321Y21642D01*
Y21659D01*
X36319Y21664D01*
Y21671D01*
X36314Y21704D01*
X36307Y21734D01*
X36298Y21760D01*
X36288Y21783D01*
X36279Y21802D01*
X36272Y21816D01*
X36267Y21824D01*
X36265Y21827D01*
X36247Y21850D01*
X36226Y21869D01*
X36207Y21887D01*
X36188Y21901D01*
X36172Y21911D01*
X36158Y21920D01*
X36149Y21925D01*
X36146Y21927D01*
X36118Y21939D01*
X36092Y21948D01*
X36065Y21955D01*
X36043Y21958D01*
X36022Y21962D01*
X36008Y21963D01*
D02*
G37*
%LPD*%
G36*
X35831Y26989D02*
X35862D01*
X35892Y26988D01*
X35918Y26986D01*
X35941Y26984D01*
X35962Y26983D01*
X35981Y26981D01*
X35997Y26977D01*
X36011Y26976D01*
X36023Y26974D01*
X36032Y26972D01*
X36041Y26970D01*
X36046D01*
X36048Y26969D01*
X36050D01*
X36072Y26961D01*
X36092Y26953D01*
X36107Y26946D01*
X36120Y26937D01*
X36128Y26930D01*
X36135Y26925D01*
X36139Y26921D01*
X36141Y26919D01*
X36149Y26907D01*
X36155Y26897D01*
X36162Y26874D01*
X36163Y26865D01*
X36165Y26858D01*
Y26851D01*
X36163Y26837D01*
X36162Y26823D01*
X36158Y26811D01*
X36153Y26801D01*
X36148Y26792D01*
X36144Y26785D01*
X36142Y26781D01*
X36141Y26779D01*
X36128Y26769D01*
X36114Y26759D01*
X36099Y26752D01*
X36081Y26744D01*
X36065Y26737D01*
X36053Y26734D01*
X36044Y26732D01*
X36041Y26730D01*
X36025Y26727D01*
X36006Y26724D01*
X35987Y26722D01*
X35964Y26720D01*
X35918Y26717D01*
X35871Y26713D01*
X35850D01*
X35829D01*
X35810Y26711D01*
X35794D01*
X35780D01*
X35770D01*
X35763D01*
X35761D01*
X35724D01*
X35691Y26713D01*
X35659D01*
X35630Y26715D01*
X35603Y26717D01*
X35581Y26718D01*
X35560Y26720D01*
X35540Y26722D01*
X35525Y26724D01*
X35511Y26725D01*
X35498Y26727D01*
X35488Y26729D01*
X35481Y26730D01*
X35476Y26732D01*
X35474D01*
X35472D01*
X35449Y26739D01*
X35430Y26746D01*
X35414Y26755D01*
X35402Y26762D01*
X35393Y26769D01*
X35386Y26774D01*
X35383Y26778D01*
X35381Y26779D01*
X35372Y26792D01*
X35365Y26804D01*
X35362Y26816D01*
X35358Y26827D01*
X35357Y26837D01*
X35355Y26844D01*
Y26851D01*
X35357Y26865D01*
X35358Y26877D01*
X35364Y26890D01*
X35367Y26900D01*
X35372Y26907D01*
X35378Y26914D01*
X35379Y26918D01*
X35381Y26919D01*
X35393Y26930D01*
X35407Y26941D01*
X35442Y26956D01*
X35458Y26963D01*
X35470Y26967D01*
X35479Y26970D01*
X35481D01*
X35483D01*
X35498Y26974D01*
X35516Y26977D01*
X35537Y26981D01*
X35558Y26983D01*
X35603Y26986D01*
X35651Y26989D01*
X35672D01*
X35693D01*
X35712Y26991D01*
X35728D01*
X35742D01*
X35752D01*
X35759D01*
X35761D01*
X35798D01*
X35831Y26989D01*
D02*
G37*
G36*
X36347Y26478D02*
X35759D01*
X35819Y26480D01*
X35875Y26484D01*
X35924Y26487D01*
X35971Y26494D01*
X36013Y26501D01*
X36050Y26510D01*
X36083Y26520D01*
X36113Y26529D01*
X36139Y26538D01*
X36162Y26548D01*
X36179Y26557D01*
X36193Y26564D01*
X36205Y26571D01*
X36212Y26577D01*
X36218Y26578D01*
X36219Y26580D01*
X36242Y26599D01*
X36261Y26622D01*
X36279Y26643D01*
X36293Y26666D01*
X36305Y26689D01*
X36316Y26711D01*
X36324Y26734D01*
X36331Y26755D01*
X36337Y26774D01*
X36340Y26794D01*
X36344Y26809D01*
X36345Y26823D01*
Y26836D01*
X36347Y26844D01*
Y26478D01*
D02*
G37*
G36*
X35785Y24231D02*
X35819Y24230D01*
X35852Y24225D01*
X35880Y24219D01*
X35908Y24212D01*
X35932Y24205D01*
X35955Y24196D01*
X35974Y24190D01*
X35992Y24181D01*
X36008Y24172D01*
X36020Y24165D01*
X36030Y24158D01*
X36039Y24153D01*
X36044Y24148D01*
X36048Y24146D01*
X36050Y24144D01*
X36067Y24126D01*
X36083Y24109D01*
X36095Y24090D01*
X36107Y24070D01*
X36116Y24051D01*
X36125Y24032D01*
X36137Y23997D01*
X36144Y23966D01*
X36146Y23952D01*
X36148Y23939D01*
X36149Y23931D01*
Y23916D01*
X36148Y23892D01*
X36146Y23867D01*
X36141Y23845D01*
X36134Y23822D01*
X36118Y23784D01*
X36099Y23750D01*
X36081Y23724D01*
X36072Y23713D01*
X36065Y23705D01*
X36058Y23698D01*
X36053Y23693D01*
X36051Y23691D01*
X36050Y23689D01*
X36030Y23673D01*
X36008Y23659D01*
X35985Y23647D01*
X35960Y23638D01*
X35911Y23621D01*
X35862Y23610D01*
X35840Y23607D01*
X35819Y23605D01*
X35801Y23603D01*
X35784Y23602D01*
X35771Y23600D01*
X35761D01*
X35754D01*
X35752D01*
X35715Y23602D01*
X35682Y23603D01*
X35651Y23608D01*
X35621Y23614D01*
X35595Y23619D01*
X35570Y23628D01*
X35547Y23635D01*
X35528Y23643D01*
X35511Y23651D01*
X35497Y23659D01*
X35483Y23666D01*
X35472Y23672D01*
X35465Y23678D01*
X35460Y23682D01*
X35456Y23684D01*
X35455Y23686D01*
X35437Y23703D01*
X35421Y23720D01*
X35409Y23740D01*
X35397Y23759D01*
X35386Y23778D01*
X35379Y23798D01*
X35367Y23834D01*
X35360Y23866D01*
X35358Y23880D01*
X35357Y23892D01*
X35355Y23902D01*
Y23916D01*
X35357Y23943D01*
X35358Y23967D01*
X35371Y24013D01*
X35386Y24053D01*
X35404Y24084D01*
X35413Y24099D01*
X35421Y24111D01*
X35430Y24121D01*
X35437Y24130D01*
X35444Y24137D01*
X35449Y24142D01*
X35451Y24144D01*
X35453Y24146D01*
X35472Y24161D01*
X35493Y24175D01*
X35516Y24186D01*
X35540Y24196D01*
X35589Y24212D01*
X35637Y24223D01*
X35659Y24226D01*
X35680Y24228D01*
X35700Y24231D01*
X35715D01*
X35729Y24233D01*
X35740D01*
X35747D01*
X35749D01*
X35785Y24231D01*
D02*
G37*
G36*
X36347Y23360D02*
X35761D01*
X35812Y23362D01*
X35859Y23367D01*
X35903Y23374D01*
X35945Y23383D01*
X35983Y23395D01*
X36018Y23407D01*
X36050Y23421D01*
X36079Y23435D01*
X36106Y23449D01*
X36128Y23463D01*
X36148Y23475D01*
X36163Y23488D01*
X36176Y23496D01*
X36184Y23504D01*
X36190Y23509D01*
X36191Y23510D01*
X36219Y23540D01*
X36242Y23572D01*
X36263Y23603D01*
X36281Y23638D01*
X36296Y23672D01*
X36309Y23705D01*
X36319Y23738D01*
X36328Y23769D01*
X36335Y23799D01*
X36338Y23827D01*
X36342Y23854D01*
X36345Y23875D01*
Y23892D01*
X36347Y23906D01*
Y23360D01*
D02*
G37*
G36*
X35785Y22984D02*
X35819Y22982D01*
X35852Y22977D01*
X35880Y22972D01*
X35908Y22964D01*
X35932Y22957D01*
X35955Y22949D01*
X35974Y22942D01*
X35992Y22933D01*
X36008Y22924D01*
X36020Y22917D01*
X36030Y22910D01*
X36039Y22905D01*
X36044Y22900D01*
X36048Y22898D01*
X36050Y22896D01*
X36067Y22879D01*
X36083Y22861D01*
X36095Y22842D01*
X36107Y22823D01*
X36116Y22804D01*
X36125Y22784D01*
X36137Y22749D01*
X36144Y22718D01*
X36146Y22704D01*
X36148Y22692D01*
X36149Y22683D01*
Y22669D01*
X36148Y22644D01*
X36146Y22620D01*
X36141Y22597D01*
X36134Y22574D01*
X36118Y22536D01*
X36099Y22502D01*
X36081Y22476D01*
X36072Y22466D01*
X36065Y22457D01*
X36058Y22450D01*
X36053Y22445D01*
X36051Y22443D01*
X36050Y22441D01*
X36030Y22425D01*
X36008Y22411D01*
X35985Y22399D01*
X35960Y22390D01*
X35911Y22373D01*
X35862Y22363D01*
X35840Y22359D01*
X35819Y22357D01*
X35801Y22355D01*
X35784Y22354D01*
X35771Y22352D01*
X35761D01*
X35754D01*
X35752D01*
X35715Y22354D01*
X35682Y22355D01*
X35651Y22361D01*
X35621Y22366D01*
X35595Y22371D01*
X35570Y22380D01*
X35547Y22387D01*
X35528Y22396D01*
X35511Y22403D01*
X35497Y22411D01*
X35483Y22419D01*
X35472Y22424D01*
X35465Y22431D01*
X35460Y22434D01*
X35456Y22436D01*
X35455Y22438D01*
X35437Y22455D01*
X35421Y22473D01*
X35409Y22492D01*
X35397Y22511D01*
X35386Y22531D01*
X35379Y22550D01*
X35367Y22587D01*
X35360Y22618D01*
X35358Y22632D01*
X35357Y22644D01*
X35355Y22655D01*
Y22669D01*
X35357Y22695D01*
X35358Y22719D01*
X35371Y22765D01*
X35386Y22805D01*
X35404Y22837D01*
X35413Y22851D01*
X35421Y22863D01*
X35430Y22873D01*
X35437Y22882D01*
X35444Y22889D01*
X35449Y22895D01*
X35451Y22896D01*
X35453Y22898D01*
X35472Y22914D01*
X35493Y22928D01*
X35516Y22938D01*
X35540Y22949D01*
X35589Y22964D01*
X35637Y22975D01*
X35659Y22978D01*
X35680Y22980D01*
X35700Y22984D01*
X35715D01*
X35729Y22986D01*
X35740D01*
X35747D01*
X35749D01*
X35785Y22984D01*
D02*
G37*
G36*
X36347Y22112D02*
X35761D01*
X35812Y22114D01*
X35859Y22119D01*
X35903Y22126D01*
X35945Y22135D01*
X35983Y22147D01*
X36018Y22160D01*
X36050Y22174D01*
X36079Y22187D01*
X36106Y22201D01*
X36128Y22216D01*
X36148Y22228D01*
X36163Y22240D01*
X36176Y22249D01*
X36184Y22256D01*
X36190Y22261D01*
X36191Y22263D01*
X36219Y22293D01*
X36242Y22324D01*
X36263Y22355D01*
X36281Y22390D01*
X36296Y22424D01*
X36309Y22457D01*
X36319Y22490D01*
X36328Y22522D01*
X36335Y22551D01*
X36338Y22580D01*
X36342Y22606D01*
X36345Y22627D01*
Y22644D01*
X36347Y22658D01*
Y22112D01*
D02*
G37*
G36*
X36002Y21722D02*
X36022Y21719D01*
X36039Y21713D01*
X36053Y21708D01*
X36064Y21701D01*
X36072Y21696D01*
X36078Y21692D01*
X36079Y21690D01*
X36092Y21678D01*
X36102Y21664D01*
X36109Y21648D01*
X36116Y21636D01*
X36120Y21624D01*
X36123Y21615D01*
X36125Y21608D01*
Y21607D01*
X36127Y21599D01*
Y21591D01*
X36128Y21568D01*
X36130Y21542D01*
Y21514D01*
X36132Y21489D01*
Y21234D01*
X35824D01*
Y21474D01*
X35826Y21498D01*
X35827Y21519D01*
Y21538D01*
X35829Y21554D01*
X35831Y21570D01*
X35833Y21582D01*
X35834Y21592D01*
X35836Y21603D01*
X35838Y21615D01*
X35841Y21624D01*
Y21626D01*
X35848Y21643D01*
X35855Y21657D01*
X35864Y21669D01*
X35873Y21680D01*
X35882Y21687D01*
X35889Y21692D01*
X35892Y21696D01*
X35894Y21698D01*
X35908Y21706D01*
X35924Y21713D01*
X35938Y21717D01*
X35952Y21720D01*
X35964Y21722D01*
X35973Y21724D01*
X35980D01*
X35981D01*
X36002Y21722D01*
D02*
G37*
G36*
X35518Y21680D02*
X35537Y21677D01*
X35551Y21671D01*
X35565Y21664D01*
X35575Y21657D01*
X35582Y21652D01*
X35588Y21648D01*
X35589Y21647D01*
X35600Y21633D01*
X35610Y21619D01*
X35617Y21603D01*
X35623Y21587D01*
X35626Y21575D01*
X35628Y21565D01*
X35630Y21557D01*
Y21547D01*
X35631Y21536D01*
Y21486D01*
X35633Y21456D01*
Y21234D01*
X35367D01*
Y21466D01*
X35369Y21484D01*
Y21526D01*
X35371Y21536D01*
Y21556D01*
X35372Y21563D01*
Y21565D01*
X35376Y21586D01*
X35381Y21603D01*
X35388Y21617D01*
X35395Y21629D01*
X35402Y21640D01*
X35407Y21647D01*
X35411Y21650D01*
X35413Y21652D01*
X35427Y21663D01*
X35441Y21669D01*
X35455Y21675D01*
X35469Y21678D01*
X35479Y21680D01*
X35490Y21682D01*
X35497D01*
X35498D01*
X35518Y21680D01*
D02*
G37*
%LPC*%
G36*
X18488Y241906D02*
X17375Y240259D01*
X18488D01*
Y241906D01*
D02*
G37*
G36*
X-3545Y242499D02*
X-4519D01*
Y241387D01*
X-3589D01*
X-3465Y241394D01*
X-3252D01*
X-3209Y241401D01*
X-3165D01*
X-3135Y241408D01*
X-3091Y241416D01*
X-3040Y241430D01*
X-2974Y241452D01*
X-2908Y241482D01*
X-2850Y241526D01*
X-2791Y241570D01*
X-2784Y241577D01*
X-2769Y241599D01*
X-2747Y241628D01*
X-2718Y241672D01*
X-2689Y241731D01*
X-2667Y241789D01*
X-2652Y241870D01*
X-2645Y241950D01*
Y241957D01*
Y241987D01*
X-2652Y242031D01*
X-2660Y242075D01*
X-2674Y242133D01*
X-2696Y242192D01*
X-2725Y242250D01*
X-2769Y242309D01*
X-2777Y242316D01*
X-2791Y242331D01*
X-2821Y242353D01*
X-2864Y242382D01*
X-2916Y242411D01*
X-2974Y242441D01*
X-3047Y242463D01*
X-3135Y242477D01*
X-3143D01*
X-3172Y242485D01*
X-3252D01*
X-3296Y242492D01*
X-3472D01*
X-3545Y242499D01*
D02*
G37*
G36*
X-3516Y240589D02*
X-4519D01*
Y239300D01*
X-3450D01*
X-3348Y239308D01*
X-3230D01*
X-3121Y239315D01*
X-3025Y239322D01*
X-2989D01*
X-2960Y239330D01*
X-2952D01*
X-2923Y239337D01*
X-2886Y239352D01*
X-2835Y239366D01*
X-2784Y239395D01*
X-2718Y239425D01*
X-2660Y239469D01*
X-2608Y239520D01*
X-2601Y239527D01*
X-2586Y239549D01*
X-2564Y239586D01*
X-2535Y239630D01*
X-2513Y239688D01*
X-2491Y239761D01*
X-2476Y239842D01*
X-2469Y239930D01*
Y239937D01*
Y239967D01*
X-2476Y240003D01*
X-2484Y240054D01*
X-2499Y240113D01*
X-2513Y240171D01*
X-2542Y240237D01*
X-2579Y240296D01*
X-2586Y240303D01*
X-2601Y240318D01*
X-2623Y240347D01*
X-2652Y240384D01*
X-2696Y240420D01*
X-2747Y240457D01*
X-2806Y240486D01*
X-2879Y240515D01*
X-2886D01*
X-2923Y240530D01*
X-2974Y240537D01*
X-3018Y240545D01*
X-3062Y240552D01*
X-3113Y240559D01*
X-3179Y240567D01*
X-3245Y240574D01*
X-3326D01*
X-3413Y240581D01*
X-3516Y240589D01*
D02*
G37*
G36*
X-13120Y242485D02*
X-13845D01*
Y241116D01*
X-13178D01*
X-13127Y241123D01*
X-13010D01*
X-12878Y241130D01*
X-12754Y241145D01*
X-12644Y241167D01*
X-12593Y241174D01*
X-12556Y241189D01*
X-12549Y241196D01*
X-12527Y241204D01*
X-12490Y241218D01*
X-12446Y241248D01*
X-12395Y241277D01*
X-12344Y241321D01*
X-12293Y241365D01*
X-12249Y241423D01*
X-12241Y241430D01*
X-12234Y241452D01*
X-12212Y241489D01*
X-12190Y241533D01*
X-12175Y241584D01*
X-12154Y241650D01*
X-12146Y241723D01*
X-12139Y241796D01*
Y241811D01*
Y241840D01*
X-12146Y241892D01*
X-12161Y241950D01*
X-12175Y242016D01*
X-12205Y242089D01*
X-12241Y242162D01*
X-12293Y242228D01*
X-12300Y242236D01*
X-12322Y242258D01*
X-12351Y242287D01*
X-12402Y242323D01*
X-12454Y242360D01*
X-12527Y242397D01*
X-12600Y242426D01*
X-12688Y242448D01*
X-12695D01*
X-12724Y242455D01*
X-12768Y242463D01*
X-12834Y242470D01*
X-12930D01*
X-13054Y242477D01*
X-13120Y242485D01*
D02*
G37*
G36*
X-19832D02*
X-20557D01*
Y241116D01*
X-19891D01*
X-19840Y241123D01*
X-19722D01*
X-19591Y241130D01*
X-19466Y241145D01*
X-19356Y241167D01*
X-19305Y241174D01*
X-19269Y241189D01*
X-19261Y241196D01*
X-19239Y241204D01*
X-19203Y241218D01*
X-19159Y241248D01*
X-19108Y241277D01*
X-19056Y241321D01*
X-19005Y241365D01*
X-18961Y241423D01*
X-18954Y241430D01*
X-18947Y241452D01*
X-18925Y241489D01*
X-18903Y241533D01*
X-18888Y241584D01*
X-18866Y241650D01*
X-18859Y241723D01*
X-18851Y241796D01*
Y241811D01*
Y241840D01*
X-18859Y241892D01*
X-18873Y241950D01*
X-18888Y242016D01*
X-18917Y242089D01*
X-18954Y242162D01*
X-19005Y242228D01*
X-19012Y242236D01*
X-19034Y242258D01*
X-19064Y242287D01*
X-19115Y242323D01*
X-19166Y242360D01*
X-19239Y242397D01*
X-19312Y242426D01*
X-19400Y242448D01*
X-19408D01*
X-19437Y242455D01*
X-19481Y242463D01*
X-19547Y242470D01*
X-19642D01*
X-19766Y242477D01*
X-19832Y242485D01*
D02*
G37*
G36*
X101002Y202208D02*
X100499D01*
X100455Y202101D01*
X100396Y202003D01*
X100333Y201915D01*
X100269Y201842D01*
X100206Y201779D01*
X100157Y201735D01*
X100143Y201720D01*
X100128Y201705D01*
X100118Y201700D01*
X100113Y201696D01*
X100011Y201618D01*
X99913Y201559D01*
X99825Y201505D01*
X99747Y201466D01*
X99684Y201432D01*
X99635Y201413D01*
X99616Y201408D01*
X99601Y201403D01*
X99596Y201398D01*
X99591D01*
Y200842D01*
X99757Y200905D01*
X99908Y200978D01*
X100040Y201051D01*
X100104Y201090D01*
X100157Y201130D01*
X100211Y201164D01*
X100255Y201198D01*
X100294Y201227D01*
X100328Y201252D01*
X100352Y201276D01*
X100372Y201290D01*
X100382Y201300D01*
X100387Y201305D01*
Y198992D01*
X101002D01*
Y202208D01*
D02*
G37*
G36*
X97742Y202198D02*
X96331D01*
Y198992D01*
X97722D01*
X97805Y198997D01*
X97937D01*
X97995Y199002D01*
X98083D01*
X98117Y199007D01*
X98166D01*
X98181Y199012D01*
X98200D01*
X98293Y199026D01*
X98376Y199046D01*
X98449Y199070D01*
X98513Y199099D01*
X98566Y199124D01*
X98605Y199143D01*
X98625Y199158D01*
X98635Y199163D01*
X98698Y199212D01*
X98752Y199270D01*
X98801Y199324D01*
X98840Y199378D01*
X98869Y199422D01*
X98893Y199460D01*
X98908Y199485D01*
X98913Y199495D01*
X98947Y199573D01*
X98971Y199646D01*
X98991Y199719D01*
X99001Y199783D01*
X99010Y199841D01*
X99015Y199880D01*
Y199919D01*
X99010Y200022D01*
X98991Y200114D01*
X98966Y200192D01*
X98937Y200266D01*
X98903Y200324D01*
X98879Y200368D01*
X98859Y200393D01*
X98854Y200402D01*
X98791Y200476D01*
X98718Y200539D01*
X98644Y200588D01*
X98571Y200627D01*
X98508Y200656D01*
X98454Y200680D01*
X98435Y200685D01*
X98420Y200690D01*
X98410Y200695D01*
X98405D01*
X98479Y200734D01*
X98547Y200778D01*
X98601Y200822D01*
X98649Y200871D01*
X98688Y200910D01*
X98713Y200944D01*
X98732Y200964D01*
X98737Y200973D01*
X98776Y201046D01*
X98805Y201120D01*
X98830Y201188D01*
X98844Y201252D01*
X98854Y201305D01*
X98859Y201349D01*
Y201378D01*
Y201388D01*
X98854Y201466D01*
X98844Y201535D01*
X98825Y201598D01*
X98810Y201657D01*
X98791Y201700D01*
X98771Y201735D01*
X98762Y201754D01*
X98757Y201764D01*
X98718Y201822D01*
X98679Y201876D01*
X98635Y201920D01*
X98601Y201959D01*
X98566Y201993D01*
X98537Y202013D01*
X98518Y202027D01*
X98513Y202032D01*
X98454Y202066D01*
X98400Y202096D01*
X98342Y202120D01*
X98288Y202135D01*
X98244Y202149D01*
X98210Y202159D01*
X98186Y202164D01*
X98176D01*
X98098Y202174D01*
X98010Y202184D01*
X97917Y202188D01*
X97825Y202193D01*
X97742Y202198D01*
D02*
G37*
G36*
X95794D02*
X93599D01*
Y198992D01*
X94248D01*
Y200354D01*
X95585D01*
Y200895D01*
X94248D01*
Y201657D01*
X95794D01*
Y202198D01*
D02*
G37*
%LPD*%
G36*
X97678Y201661D02*
X97795D01*
X97825Y201657D01*
X97878D01*
X97898Y201652D01*
X97903D01*
X97961Y201642D01*
X98010Y201627D01*
X98049Y201608D01*
X98083Y201588D01*
X98112Y201569D01*
X98132Y201554D01*
X98142Y201544D01*
X98147Y201539D01*
X98176Y201500D01*
X98195Y201461D01*
X98210Y201422D01*
X98220Y201383D01*
X98225Y201354D01*
X98230Y201325D01*
Y201305D01*
Y201300D01*
X98225Y201247D01*
X98215Y201193D01*
X98200Y201154D01*
X98181Y201115D01*
X98161Y201086D01*
X98147Y201066D01*
X98137Y201051D01*
X98132Y201046D01*
X98093Y201017D01*
X98054Y200988D01*
X98010Y200968D01*
X97966Y200954D01*
X97932Y200944D01*
X97903Y200939D01*
X97883Y200934D01*
X97854D01*
X97825Y200929D01*
X97683D01*
X97600Y200924D01*
X96980D01*
Y201666D01*
X97629D01*
X97678Y201661D01*
D02*
G37*
G36*
X97717Y200388D02*
X97776Y200383D01*
X97830D01*
X97873Y200378D01*
X97917Y200373D01*
X97952Y200368D01*
X97981Y200363D01*
X98010Y200358D01*
X98044Y200354D01*
X98069Y200344D01*
X98074D01*
X98122Y200324D01*
X98161Y200305D01*
X98195Y200280D01*
X98225Y200256D01*
X98244Y200232D01*
X98259Y200212D01*
X98269Y200202D01*
X98274Y200197D01*
X98298Y200158D01*
X98317Y200114D01*
X98327Y200075D01*
X98337Y200036D01*
X98342Y200002D01*
X98347Y199978D01*
Y199958D01*
Y199953D01*
X98342Y199895D01*
X98332Y199841D01*
X98317Y199792D01*
X98303Y199753D01*
X98283Y199724D01*
X98269Y199700D01*
X98259Y199685D01*
X98254Y199680D01*
X98220Y199646D01*
X98181Y199617D01*
X98137Y199597D01*
X98103Y199578D01*
X98069Y199568D01*
X98044Y199558D01*
X98025Y199553D01*
X98020D01*
X98000Y199548D01*
X97976D01*
X97912Y199543D01*
X97839Y199539D01*
X97761D01*
X97693Y199534D01*
X96980D01*
Y200393D01*
X97649D01*
X97717Y200388D01*
D02*
G37*
%LPC*%
G36*
X-33592Y199750D02*
X-34163D01*
Y198526D01*
X-34226Y198565D01*
X-34275Y198608D01*
X-34300Y198623D01*
X-34314Y198638D01*
X-34324Y198647D01*
X-34329Y198652D01*
X-34348Y198672D01*
X-34368Y198691D01*
X-34422Y198745D01*
X-34480Y198804D01*
X-34539Y198867D01*
X-34597Y198926D01*
X-34641Y198975D01*
X-34661Y198989D01*
X-34675Y199004D01*
X-34680Y199013D01*
X-34685Y199018D01*
X-34778Y199121D01*
X-34861Y199204D01*
X-34934Y199277D01*
X-34993Y199331D01*
X-35037Y199375D01*
X-35071Y199404D01*
X-35090Y199418D01*
X-35095Y199423D01*
X-35173Y199482D01*
X-35246Y199536D01*
X-35315Y199580D01*
X-35378Y199614D01*
X-35427Y199638D01*
X-35466Y199658D01*
X-35490Y199667D01*
X-35500Y199672D01*
X-35573Y199697D01*
X-35651Y199716D01*
X-35720Y199731D01*
X-35783Y199741D01*
X-35837Y199746D01*
X-35881Y199750D01*
X-35915D01*
X-35983Y199746D01*
X-36052Y199741D01*
X-36174Y199706D01*
X-36281Y199662D01*
X-36374Y199614D01*
X-36447Y199565D01*
X-36481Y199540D01*
X-36505Y199521D01*
X-36525Y199502D01*
X-36540Y199487D01*
X-36544Y199482D01*
X-36549Y199477D01*
X-36593Y199423D01*
X-36637Y199370D01*
X-36671Y199306D01*
X-36701Y199248D01*
X-36744Y199121D01*
X-36774Y199004D01*
X-36788Y198945D01*
X-36793Y198896D01*
X-36798Y198848D01*
X-36803Y198809D01*
X-36808Y198774D01*
Y198887D01*
Y198652D01*
X-36798Y198574D01*
X-36774Y198438D01*
X-36735Y198316D01*
X-36715Y198262D01*
X-36696Y198213D01*
X-36676Y198164D01*
X-36657Y198125D01*
X-36637Y198091D01*
X-36618Y198067D01*
X-36603Y198042D01*
X-36593Y198028D01*
X-36588Y198018D01*
X-36584Y198013D01*
X-36540Y197964D01*
X-36491Y197915D01*
X-36437Y197876D01*
X-36378Y197837D01*
X-36257Y197779D01*
X-36139Y197735D01*
X-36081Y197715D01*
X-36027Y197706D01*
X-35983Y197691D01*
X-35939Y197686D01*
X-35905Y197676D01*
X-35881D01*
X-35861Y197671D01*
X-35856D01*
X-35798Y198282D01*
X-35890Y198291D01*
X-35974Y198306D01*
X-36037Y198330D01*
X-36091Y198350D01*
X-36134Y198374D01*
X-36159Y198389D01*
X-36178Y198404D01*
X-36183Y198408D01*
X-36222Y198457D01*
X-36252Y198506D01*
X-36271Y198560D01*
X-36286Y198608D01*
X-36296Y198647D01*
X-36301Y198687D01*
Y198716D01*
X-36296Y198784D01*
X-36281Y198848D01*
X-36266Y198901D01*
X-36247Y198945D01*
X-36222Y198979D01*
X-36208Y199004D01*
X-36193Y199018D01*
X-36188Y199023D01*
X-36144Y199062D01*
X-36091Y199087D01*
X-36037Y199106D01*
X-35988Y199121D01*
X-35944Y199131D01*
X-35905Y199135D01*
X-35881D01*
X-35871D01*
X-35803Y199131D01*
X-35734Y199116D01*
X-35671Y199097D01*
X-35612Y199072D01*
X-35564Y199048D01*
X-35529Y199028D01*
X-35505Y199013D01*
X-35495Y199009D01*
X-35466Y198989D01*
X-35432Y198960D01*
X-35398Y198926D01*
X-35359Y198887D01*
X-35271Y198804D01*
X-35183Y198716D01*
X-35105Y198633D01*
X-35066Y198594D01*
X-35037Y198565D01*
X-35012Y198535D01*
X-34988Y198516D01*
X-34978Y198501D01*
X-34973Y198496D01*
X-34885Y198404D01*
X-34802Y198316D01*
X-34724Y198242D01*
X-34651Y198169D01*
X-34583Y198106D01*
X-34519Y198052D01*
X-34461Y197998D01*
X-34407Y197954D01*
X-34363Y197920D01*
X-34319Y197886D01*
X-34285Y197862D01*
X-34256Y197837D01*
X-34231Y197823D01*
X-34217Y197813D01*
X-34207Y197803D01*
X-34202D01*
X-34095Y197745D01*
X-33987Y197701D01*
X-33885Y197662D01*
X-33787Y197637D01*
X-33709Y197618D01*
X-33675Y197613D01*
X-33646Y197608D01*
X-33626Y197603D01*
X-33607Y197598D01*
X-36808D01*
X-33592D01*
Y199750D01*
D02*
G37*
G36*
Y197266D02*
X-36798D01*
X-34519D01*
X-34622Y197262D01*
X-34714Y197242D01*
X-34793Y197218D01*
X-34866Y197188D01*
X-34924Y197154D01*
X-34968Y197130D01*
X-34993Y197110D01*
X-35002Y197105D01*
X-35076Y197042D01*
X-35139Y196969D01*
X-35188Y196896D01*
X-35227Y196822D01*
X-35256Y196759D01*
X-35280Y196705D01*
X-35285Y196686D01*
X-35290Y196671D01*
X-35295Y196661D01*
Y196656D01*
X-35334Y196730D01*
X-35378Y196798D01*
X-35422Y196852D01*
X-35471Y196900D01*
X-35510Y196940D01*
X-35544Y196964D01*
X-35564Y196983D01*
X-35573Y196988D01*
X-35647Y197027D01*
X-35720Y197057D01*
X-35788Y197081D01*
X-35851Y197096D01*
X-35905Y197105D01*
X-35949Y197110D01*
X-35978D01*
X-35988D01*
X-36066Y197105D01*
X-36134Y197096D01*
X-36198Y197076D01*
X-36257Y197062D01*
X-36301Y197042D01*
X-36335Y197022D01*
X-36354Y197013D01*
X-36364Y197008D01*
X-36422Y196969D01*
X-36476Y196930D01*
X-36520Y196886D01*
X-36559Y196852D01*
X-36593Y196818D01*
X-36613Y196788D01*
X-36627Y196769D01*
X-36632Y196764D01*
X-36666Y196705D01*
X-36696Y196652D01*
X-36720Y196593D01*
X-36735Y196539D01*
X-36749Y196495D01*
X-36759Y196461D01*
X-36764Y196437D01*
Y196427D01*
X-36774Y196349D01*
X-36784Y196261D01*
X-36788Y196168D01*
X-36793Y196076D01*
X-36798Y195993D01*
Y196105D01*
Y194582D01*
X-33592D01*
Y195973D01*
X-33597Y196056D01*
Y196188D01*
X-33602Y196247D01*
Y196334D01*
X-33607Y196369D01*
Y196417D01*
X-33612Y196432D01*
Y196451D01*
X-33626Y196544D01*
X-33646Y196627D01*
X-33670Y196700D01*
X-33699Y196764D01*
X-33724Y196818D01*
X-33743Y196856D01*
X-33758Y196876D01*
X-33763Y196886D01*
X-33812Y196949D01*
X-33870Y197003D01*
X-33924Y197052D01*
X-33978Y197091D01*
X-34021Y197120D01*
X-34060Y197144D01*
X-34085Y197159D01*
X-34095Y197164D01*
X-34173Y197198D01*
X-34246Y197222D01*
X-34319Y197242D01*
X-34383Y197252D01*
X-34441Y197262D01*
X-34480Y197266D01*
X-33592D01*
D02*
G37*
G36*
Y194046D02*
Y192499D01*
X-34954D01*
Y193836D01*
X-35495D01*
Y192499D01*
X-36257D01*
Y194046D01*
X-33592D01*
X-36798D01*
Y191850D01*
X-33592D01*
Y194046D01*
D02*
G37*
%LPD*%
G36*
X-34495Y196593D02*
X-34441Y196583D01*
X-34392Y196569D01*
X-34353Y196554D01*
X-34324Y196534D01*
X-34300Y196520D01*
X-34285Y196510D01*
X-34280Y196505D01*
X-34246Y196471D01*
X-34217Y196432D01*
X-34197Y196388D01*
X-34178Y196354D01*
X-34168Y196320D01*
X-34158Y196295D01*
X-34153Y196276D01*
Y196271D01*
X-34148Y196251D01*
Y196227D01*
X-34143Y196164D01*
X-34139Y196090D01*
Y196012D01*
X-34134Y195944D01*
Y195231D01*
X-34993D01*
Y195900D01*
X-34988Y195968D01*
X-34983Y196027D01*
Y196081D01*
X-34978Y196124D01*
X-34973Y196168D01*
X-34968Y196203D01*
X-34963Y196232D01*
X-34958Y196261D01*
X-34954Y196295D01*
X-34944Y196320D01*
Y196325D01*
X-34924Y196373D01*
X-34905Y196412D01*
X-34880Y196447D01*
X-34856Y196476D01*
X-34832Y196495D01*
X-34812Y196510D01*
X-34802Y196520D01*
X-34797Y196525D01*
X-34758Y196549D01*
X-34714Y196569D01*
X-34675Y196578D01*
X-34636Y196588D01*
X-34602Y196593D01*
X-34578Y196598D01*
X-34558D01*
X-34553D01*
X-34495Y196593D01*
D02*
G37*
G36*
X-35847Y196476D02*
X-35793Y196466D01*
X-35754Y196451D01*
X-35715Y196432D01*
X-35686Y196412D01*
X-35666Y196398D01*
X-35651Y196388D01*
X-35647Y196383D01*
X-35617Y196344D01*
X-35588Y196305D01*
X-35568Y196261D01*
X-35554Y196217D01*
X-35544Y196183D01*
X-35539Y196154D01*
X-35534Y196134D01*
Y196105D01*
X-35529Y196076D01*
Y195934D01*
X-35524Y195851D01*
Y195231D01*
X-36266D01*
Y195880D01*
X-36261Y195929D01*
Y196046D01*
X-36257Y196076D01*
Y196129D01*
X-36252Y196149D01*
Y196154D01*
X-36242Y196212D01*
X-36227Y196261D01*
X-36208Y196300D01*
X-36188Y196334D01*
X-36169Y196364D01*
X-36154Y196383D01*
X-36144Y196393D01*
X-36139Y196398D01*
X-36100Y196427D01*
X-36061Y196447D01*
X-36022Y196461D01*
X-35983Y196471D01*
X-35954Y196476D01*
X-35925Y196481D01*
X-35905D01*
X-35900D01*
X-35847Y196476D01*
D02*
G37*
%LPC*%
G36*
X91613Y192837D02*
X91569D01*
X91472Y192832D01*
X91379Y192823D01*
X91301Y192803D01*
X91228Y192788D01*
X91169Y192769D01*
X91125Y192749D01*
X91096Y192740D01*
X91091Y192735D01*
X91086D01*
X91013Y192696D01*
X90945Y192652D01*
X90891Y192608D01*
X90842Y192564D01*
X90803Y192520D01*
X90779Y192491D01*
X90759Y192471D01*
X90754Y192462D01*
X90715Y192393D01*
X90676Y192315D01*
X90647Y192237D01*
X90623Y192164D01*
X90603Y192095D01*
X90589Y192042D01*
X90584Y192022D01*
Y192008D01*
X90579Y191998D01*
Y191993D01*
X91145Y191900D01*
X91155Y191973D01*
X91174Y192037D01*
X91194Y192091D01*
X91218Y192139D01*
X91242Y192174D01*
X91257Y192198D01*
X91272Y192213D01*
X91277Y192218D01*
X91321Y192256D01*
X91369Y192281D01*
X91413Y192300D01*
X91457Y192315D01*
X91496Y192325D01*
X91526Y192330D01*
X91550D01*
X91609Y192325D01*
X91662Y192315D01*
X91706Y192300D01*
X91745Y192281D01*
X91774Y192261D01*
X91794Y192247D01*
X91809Y192237D01*
X91813Y192232D01*
X91848Y192193D01*
X91872Y192149D01*
X91887Y192105D01*
X91901Y192066D01*
X91906Y192032D01*
X91911Y192003D01*
Y191978D01*
Y191973D01*
X91906Y191905D01*
X91891Y191847D01*
X91867Y191793D01*
X91843Y191749D01*
X91818Y191715D01*
X91794Y191686D01*
X91779Y191671D01*
X91774Y191666D01*
X91721Y191632D01*
X91657Y191603D01*
X91594Y191583D01*
X91535Y191573D01*
X91482Y191568D01*
X91433Y191564D01*
X91394D01*
X91325Y191066D01*
X91384Y191080D01*
X91438Y191095D01*
X91487Y191105D01*
X91526Y191110D01*
X91560Y191115D01*
X91604D01*
X91667Y191110D01*
X91726Y191095D01*
X91779Y191071D01*
X91823Y191046D01*
X91862Y191022D01*
X91887Y190998D01*
X91906Y190983D01*
X91911Y190978D01*
X91955Y190924D01*
X91984Y190861D01*
X92009Y190802D01*
X92023Y190744D01*
X92033Y190690D01*
X92038Y190646D01*
Y190617D01*
Y190612D01*
Y190607D01*
X92033Y190519D01*
X92018Y190441D01*
X91994Y190373D01*
X91975Y190314D01*
X91950Y190270D01*
X91926Y190241D01*
X91911Y190217D01*
X91906Y190212D01*
X91852Y190163D01*
X91799Y190129D01*
X91745Y190104D01*
X91696Y190090D01*
X91652Y190080D01*
X91618Y190070D01*
X91584D01*
X91521Y190075D01*
X91462Y190090D01*
X91413Y190109D01*
X91369Y190129D01*
X91330Y190148D01*
X91306Y190168D01*
X91286Y190182D01*
X91281Y190187D01*
X91238Y190236D01*
X91203Y190295D01*
X91179Y190353D01*
X91159Y190407D01*
X91145Y190461D01*
X91135Y190500D01*
X91130Y190529D01*
Y190534D01*
Y190539D01*
X90535Y190466D01*
X90545Y190392D01*
X90559Y190319D01*
X90603Y190192D01*
X90657Y190080D01*
X90715Y189987D01*
X90745Y189948D01*
X90769Y189914D01*
X90794Y189880D01*
X90818Y189856D01*
X90837Y189836D01*
X90852Y189821D01*
X90857Y189816D01*
X90862Y189812D01*
X90916Y189768D01*
X90974Y189729D01*
X91037Y189694D01*
X91096Y189670D01*
X91218Y189621D01*
X91335Y189592D01*
X91384Y189582D01*
X91433Y189577D01*
X91477Y189573D01*
X91516Y189568D01*
X91545Y189563D01*
X91589D01*
X91672Y189568D01*
X91755Y189577D01*
X91828Y189592D01*
X91901Y189612D01*
X91970Y189631D01*
X92033Y189655D01*
X92092Y189685D01*
X92145Y189714D01*
X92194Y189738D01*
X92233Y189768D01*
X92272Y189792D01*
X92301Y189816D01*
X92326Y189831D01*
X92340Y189846D01*
X92350Y189856D01*
X92355Y189860D01*
X92409Y189919D01*
X92458Y189978D01*
X92501Y190036D01*
X92536Y190100D01*
X92565Y190158D01*
X92589Y190217D01*
X92628Y190329D01*
X92643Y190383D01*
X92653Y190431D01*
X92658Y190470D01*
X92663Y190509D01*
X92667Y190539D01*
Y190578D01*
X92663Y190685D01*
X92643Y190778D01*
X92614Y190866D01*
X92585Y190939D01*
X92555Y190998D01*
X92526Y191041D01*
X92506Y191066D01*
X92501Y191076D01*
X92433Y191144D01*
X92365Y191202D01*
X92292Y191251D01*
X92219Y191285D01*
X92160Y191310D01*
X92106Y191329D01*
X92087Y191334D01*
X92077D01*
X92067Y191339D01*
X92062D01*
X92145Y191388D01*
X92214Y191442D01*
X92277Y191495D01*
X92331Y191554D01*
X92375Y191607D01*
X92414Y191666D01*
X92443Y191720D01*
X92467Y191773D01*
X92487Y191822D01*
X92501Y191866D01*
X92511Y191905D01*
X92521Y191944D01*
Y191973D01*
X92526Y191993D01*
Y192008D01*
Y192013D01*
Y192066D01*
X92516Y192120D01*
X92492Y192222D01*
X92453Y192310D01*
X92414Y192388D01*
X92370Y192457D01*
X92331Y192505D01*
X92316Y192520D01*
X92306Y192535D01*
X92301Y192540D01*
X92297Y192544D01*
X92243Y192598D01*
X92189Y192642D01*
X92126Y192681D01*
X92067Y192715D01*
X92009Y192745D01*
X91945Y192764D01*
X91833Y192803D01*
X91779Y192813D01*
X91726Y192823D01*
X91682Y192827D01*
X91643Y192832D01*
X91613Y192837D01*
D02*
G37*
G36*
X88876Y192827D02*
X87465D01*
Y189621D01*
X88856D01*
X88939Y189626D01*
X89071D01*
X89129Y189631D01*
X89217D01*
X89251Y189636D01*
X89300D01*
X89315Y189641D01*
X89334D01*
X89427Y189655D01*
X89510Y189675D01*
X89583Y189699D01*
X89647Y189729D01*
X89700Y189753D01*
X89739Y189773D01*
X89759Y189787D01*
X89769Y189792D01*
X89832Y189841D01*
X89886Y189900D01*
X89935Y189953D01*
X89974Y190007D01*
X90003Y190051D01*
X90027Y190090D01*
X90042Y190114D01*
X90047Y190124D01*
X90081Y190202D01*
X90105Y190275D01*
X90125Y190348D01*
X90135Y190412D01*
X90144Y190470D01*
X90149Y190509D01*
Y190549D01*
X90144Y190651D01*
X90125Y190744D01*
X90101Y190822D01*
X90071Y190895D01*
X90037Y190954D01*
X90013Y190998D01*
X89993Y191022D01*
X89988Y191032D01*
X89925Y191105D01*
X89852Y191168D01*
X89779Y191217D01*
X89705Y191256D01*
X89642Y191285D01*
X89588Y191310D01*
X89569Y191315D01*
X89554Y191320D01*
X89544Y191324D01*
X89539D01*
X89613Y191364D01*
X89681Y191407D01*
X89735Y191451D01*
X89783Y191500D01*
X89822Y191539D01*
X89847Y191573D01*
X89866Y191593D01*
X89871Y191603D01*
X89910Y191676D01*
X89939Y191749D01*
X89964Y191817D01*
X89979Y191881D01*
X89988Y191934D01*
X89993Y191978D01*
Y192008D01*
Y192017D01*
X89988Y192095D01*
X89979Y192164D01*
X89959Y192227D01*
X89944Y192286D01*
X89925Y192330D01*
X89905Y192364D01*
X89896Y192383D01*
X89891Y192393D01*
X89852Y192452D01*
X89813Y192505D01*
X89769Y192549D01*
X89735Y192588D01*
X89700Y192622D01*
X89671Y192642D01*
X89652Y192657D01*
X89647Y192662D01*
X89588Y192696D01*
X89534Y192725D01*
X89476Y192749D01*
X89422Y192764D01*
X89378Y192779D01*
X89344Y192788D01*
X89320Y192793D01*
X89310D01*
X89232Y192803D01*
X89144Y192813D01*
X89051Y192818D01*
X88959Y192823D01*
X88876Y192827D01*
D02*
G37*
G36*
X86929D02*
X84733D01*
Y189621D01*
X85382D01*
Y190983D01*
X86719D01*
Y191525D01*
X85382D01*
Y192286D01*
X86929D01*
Y192827D01*
D02*
G37*
%LPD*%
G36*
X88812Y192291D02*
X88929D01*
X88959Y192286D01*
X89012D01*
X89032Y192281D01*
X89037D01*
X89095Y192271D01*
X89144Y192256D01*
X89183Y192237D01*
X89217Y192218D01*
X89247Y192198D01*
X89266Y192183D01*
X89276Y192174D01*
X89281Y192169D01*
X89310Y192130D01*
X89329Y192091D01*
X89344Y192052D01*
X89354Y192013D01*
X89359Y191983D01*
X89364Y191954D01*
Y191934D01*
Y191930D01*
X89359Y191876D01*
X89349Y191822D01*
X89334Y191783D01*
X89315Y191744D01*
X89295Y191715D01*
X89281Y191695D01*
X89271Y191681D01*
X89266Y191676D01*
X89227Y191647D01*
X89188Y191617D01*
X89144Y191598D01*
X89100Y191583D01*
X89066Y191573D01*
X89037Y191568D01*
X89017Y191564D01*
X88988D01*
X88959Y191559D01*
X88817D01*
X88734Y191554D01*
X88114D01*
Y192296D01*
X88763D01*
X88812Y192291D01*
D02*
G37*
G36*
X88851Y191017D02*
X88910Y191012D01*
X88964D01*
X89007Y191007D01*
X89051Y191002D01*
X89086Y190998D01*
X89115Y190993D01*
X89144Y190988D01*
X89178Y190983D01*
X89203Y190973D01*
X89208D01*
X89256Y190954D01*
X89295Y190934D01*
X89329Y190910D01*
X89359Y190885D01*
X89378Y190861D01*
X89393Y190841D01*
X89403Y190832D01*
X89408Y190827D01*
X89432Y190788D01*
X89451Y190744D01*
X89461Y190705D01*
X89471Y190666D01*
X89476Y190631D01*
X89481Y190607D01*
Y190588D01*
Y190583D01*
X89476Y190524D01*
X89466Y190470D01*
X89451Y190422D01*
X89437Y190383D01*
X89417Y190353D01*
X89403Y190329D01*
X89393Y190314D01*
X89388Y190309D01*
X89354Y190275D01*
X89315Y190246D01*
X89271Y190226D01*
X89237Y190207D01*
X89203Y190197D01*
X89178Y190187D01*
X89159Y190182D01*
X89154D01*
X89134Y190178D01*
X89110D01*
X89047Y190173D01*
X88973Y190168D01*
X88895D01*
X88827Y190163D01*
X88114D01*
Y191022D01*
X88783D01*
X88851Y191017D01*
D02*
G37*
%LPC*%
G36*
X-58084Y246308D02*
X-58601D01*
X-59992Y244268D01*
Y243736D01*
X-58679D01*
Y243092D01*
X-58084D01*
Y243736D01*
X-57689D01*
Y244273D01*
X-58084D01*
Y246308D01*
D02*
G37*
G36*
X-61568Y246298D02*
X-62979D01*
Y243092D01*
X-61588D01*
X-61505Y243097D01*
X-61373D01*
X-61314Y243102D01*
X-61227D01*
X-61193Y243107D01*
X-61144D01*
X-61129Y243112D01*
X-61110D01*
X-61017Y243126D01*
X-60934Y243146D01*
X-60861Y243170D01*
X-60797Y243199D01*
X-60743Y243224D01*
X-60704Y243243D01*
X-60685Y243258D01*
X-60675Y243263D01*
X-60612Y243312D01*
X-60558Y243370D01*
X-60509Y243424D01*
X-60470Y243478D01*
X-60441Y243521D01*
X-60417Y243561D01*
X-60402Y243585D01*
X-60397Y243595D01*
X-60363Y243673D01*
X-60338Y243746D01*
X-60319Y243819D01*
X-60309Y243883D01*
X-60299Y243941D01*
X-60295Y243980D01*
Y244019D01*
X-60299Y244122D01*
X-60319Y244214D01*
X-60343Y244292D01*
X-60373Y244366D01*
X-60407Y244424D01*
X-60431Y244468D01*
X-60451Y244493D01*
X-60456Y244502D01*
X-60519Y244576D01*
X-60592Y244639D01*
X-60665Y244688D01*
X-60739Y244727D01*
X-60802Y244756D01*
X-60856Y244780D01*
X-60875Y244785D01*
X-60890Y244790D01*
X-60900Y244795D01*
X-60905D01*
X-60831Y244834D01*
X-60763Y244878D01*
X-60709Y244922D01*
X-60661Y244971D01*
X-60622Y245010D01*
X-60597Y245044D01*
X-60578Y245064D01*
X-60573Y245073D01*
X-60534Y245146D01*
X-60504Y245220D01*
X-60480Y245288D01*
X-60465Y245352D01*
X-60456Y245405D01*
X-60451Y245449D01*
Y245478D01*
Y245488D01*
X-60456Y245566D01*
X-60465Y245635D01*
X-60485Y245698D01*
X-60500Y245757D01*
X-60519Y245800D01*
X-60539Y245835D01*
X-60548Y245854D01*
X-60553Y245864D01*
X-60592Y245922D01*
X-60631Y245976D01*
X-60675Y246020D01*
X-60709Y246059D01*
X-60743Y246093D01*
X-60773Y246113D01*
X-60792Y246127D01*
X-60797Y246132D01*
X-60856Y246166D01*
X-60909Y246196D01*
X-60968Y246220D01*
X-61022Y246235D01*
X-61066Y246249D01*
X-61100Y246259D01*
X-61124Y246264D01*
X-61134D01*
X-61212Y246274D01*
X-61300Y246284D01*
X-61393Y246288D01*
X-61485Y246293D01*
X-61568Y246298D01*
D02*
G37*
G36*
X-63515D02*
X-65711D01*
Y243092D01*
X-65062D01*
Y244454D01*
X-63725D01*
Y244995D01*
X-65062D01*
Y245757D01*
X-63515D01*
Y246298D01*
D02*
G37*
%LPD*%
G36*
X-58679Y244273D02*
X-59421D01*
X-58679Y245371D01*
Y244273D01*
D02*
G37*
G36*
X-61632Y245761D02*
X-61515D01*
X-61485Y245757D01*
X-61432D01*
X-61412Y245752D01*
X-61407D01*
X-61349Y245742D01*
X-61300Y245727D01*
X-61261Y245708D01*
X-61227Y245688D01*
X-61197Y245669D01*
X-61178Y245654D01*
X-61168Y245644D01*
X-61163Y245639D01*
X-61134Y245600D01*
X-61114Y245561D01*
X-61100Y245522D01*
X-61090Y245483D01*
X-61085Y245454D01*
X-61080Y245425D01*
Y245405D01*
Y245400D01*
X-61085Y245347D01*
X-61095Y245293D01*
X-61110Y245254D01*
X-61129Y245215D01*
X-61149Y245186D01*
X-61163Y245166D01*
X-61173Y245151D01*
X-61178Y245146D01*
X-61217Y245117D01*
X-61256Y245088D01*
X-61300Y245068D01*
X-61344Y245054D01*
X-61378Y245044D01*
X-61407Y245039D01*
X-61427Y245034D01*
X-61456D01*
X-61485Y245029D01*
X-61627D01*
X-61710Y245024D01*
X-62330D01*
Y245766D01*
X-61681D01*
X-61632Y245761D01*
D02*
G37*
G36*
X-61593Y244488D02*
X-61534Y244483D01*
X-61480D01*
X-61436Y244478D01*
X-61393Y244473D01*
X-61358Y244468D01*
X-61329Y244463D01*
X-61300Y244458D01*
X-61266Y244454D01*
X-61241Y244444D01*
X-61236D01*
X-61188Y244424D01*
X-61149Y244405D01*
X-61114Y244380D01*
X-61085Y244356D01*
X-61066Y244332D01*
X-61051Y244312D01*
X-61041Y244302D01*
X-61036Y244297D01*
X-61012Y244258D01*
X-60992Y244214D01*
X-60983Y244175D01*
X-60973Y244136D01*
X-60968Y244102D01*
X-60963Y244078D01*
Y244058D01*
Y244053D01*
X-60968Y243995D01*
X-60978Y243941D01*
X-60992Y243892D01*
X-61007Y243853D01*
X-61027Y243824D01*
X-61041Y243800D01*
X-61051Y243785D01*
X-61056Y243780D01*
X-61090Y243746D01*
X-61129Y243717D01*
X-61173Y243697D01*
X-61207Y243678D01*
X-61241Y243668D01*
X-61266Y243658D01*
X-61285Y243653D01*
X-61290D01*
X-61310Y243648D01*
X-61334D01*
X-61397Y243643D01*
X-61471Y243639D01*
X-61549D01*
X-61617Y243634D01*
X-62330D01*
Y244493D01*
X-61661D01*
X-61593Y244488D01*
D02*
G37*
D10*
X3800Y135800D02*
G03*
X3800Y135800I-600J0D01*
G01*
X-20676Y230400D02*
G03*
X-23476Y227300I775J-3514D01*
G01*
Y200300D02*
G03*
X-20676Y197200I3574J414D01*
G01*
X22750Y197100D02*
G03*
X26050Y193700I3350J-50D01*
G01*
Y243500D02*
G03*
X22750Y240100I50J-3350D01*
G01*
X72750D02*
G03*
X69450Y243500I-3350J50D01*
G01*
X-14500Y60654D02*
Y64754D01*
X-25100Y64362D02*
X-19900Y59162D01*
X-30700Y69962D02*
X-25100Y64362D01*
X-30700Y69962D02*
Y122062D01*
X-3800Y64362D02*
X1800Y69962D01*
X-30700Y122062D02*
X1800D01*
Y69962D02*
Y122062D01*
X-19900Y59162D02*
X-9000D01*
X-3800Y64362D01*
X-16545Y119262D02*
X-12445D01*
X-14500Y117170D02*
Y121270D01*
X-14400Y190728D02*
Y194828D01*
X-9000Y196320D02*
X-3800Y191121D01*
X1800Y185521D01*
Y133421D02*
Y185521D01*
X-30700D02*
X-25100Y191121D01*
X-30700Y133421D02*
X1800D01*
X-30700D02*
Y185521D01*
X-19900Y196320D02*
X-9000D01*
X-25100Y191121D02*
X-19900Y196320D01*
X-16455Y136221D02*
X-12355D01*
X-14400Y134213D02*
Y138313D01*
X28700Y173200D02*
X29700D01*
X3900D02*
X4900D01*
X29700Y149300D02*
Y173200D01*
X3900Y149300D02*
Y173200D01*
Y149300D02*
X29700D01*
X16700Y132400D02*
X26300D01*
Y128200D02*
Y132400D01*
X16700Y128200D02*
Y132400D01*
Y128200D02*
X26300D01*
X26400Y123200D02*
Y127400D01*
X23300D02*
X26400D01*
X23300Y123200D02*
X26400D01*
X16600D02*
Y127400D01*
X19700D01*
X16600Y123200D02*
X19700D01*
X16700Y121000D02*
X26300D01*
Y116800D02*
Y121000D01*
X16700Y116800D02*
Y121000D01*
Y116800D02*
X26300D01*
X72821Y100637D02*
X82269Y110085D01*
X42086Y100637D02*
X72821D01*
X42086D02*
Y116637D01*
X85321Y112437D02*
Y116137D01*
X83414Y114337D02*
X87114D01*
X82269Y110085D02*
Y116337D01*
X72821Y140437D02*
X82269Y130990D01*
X42086Y140437D02*
X72821D01*
X42086Y124437D02*
Y140437D01*
X82269Y124737D02*
Y130990D01*
X28900Y118200D02*
Y127800D01*
X33100D01*
X28900Y118200D02*
X33100D01*
Y127800D01*
X33262Y128500D02*
X34500D01*
X33262D02*
Y146600D01*
X39100Y128500D02*
X40338D01*
Y146600D01*
X15645Y107285D02*
Y125865D01*
X14285Y107285D02*
X15645D01*
X4955D02*
X6315D01*
X4955D02*
Y125865D01*
X30700Y149700D02*
Y153900D01*
Y149700D02*
X33800D01*
X30700Y153900D02*
X33800D01*
X40500Y149700D02*
Y153900D01*
X37400Y149700D02*
X40500D01*
X37400Y153900D02*
X40500D01*
X10424Y208000D02*
X12224D01*
X11324Y207100D02*
Y208900D01*
X9424Y218800D02*
Y223400D01*
X2424Y230400D02*
X9424Y223400D01*
X-23476Y219100D02*
Y227300D01*
X-20676Y230400D02*
X2424D01*
X9424Y204200D02*
Y208800D01*
X2424Y197200D02*
X9424Y204200D01*
X-23476Y200300D02*
Y208500D01*
X-20676Y197200D02*
X2424D01*
X46453Y42500D02*
X53353D01*
X46453Y42106D02*
Y42500D01*
X53353Y42106D02*
Y42500D01*
X46453Y30500D02*
X53353D01*
X46453D02*
Y30894D01*
X53353Y30500D02*
Y30894D01*
X41353Y39800D02*
X41853Y40300D01*
X41353Y40800D02*
X41853Y40300D01*
X41353Y39800D02*
Y40800D01*
X-77000Y43200D02*
X-71500D01*
X-77000Y39300D02*
Y43200D01*
X-69200Y31000D02*
X-68700Y30500D01*
X-69700D02*
X-69200Y31000D01*
X-69700Y30500D02*
X-68700D01*
X-70700Y35800D02*
Y38400D01*
X-77000Y31000D02*
X-71500D01*
X-77000D02*
Y34900D01*
X86100Y153300D02*
X95700D01*
Y149100D02*
Y153300D01*
X86100Y149100D02*
Y153300D01*
Y149100D02*
X95700D01*
X72400Y17900D02*
Y27500D01*
X76600D01*
X72400Y17900D02*
X76600D01*
Y27500D01*
X20000Y14500D02*
X20000Y17700D01*
X23200D01*
X42200Y17700D02*
X42200Y14500D01*
X39000Y17700D02*
X42200Y17700D01*
X21600Y1700D02*
X40700Y1700D01*
X134100Y121500D02*
Y124600D01*
X129900Y121500D02*
Y124600D01*
Y121500D02*
X134100D01*
Y128200D02*
Y131300D01*
X129900Y128200D02*
Y131300D01*
X134100D01*
X-7577Y124257D02*
X-2223D01*
X-7577Y130943D02*
X-2223D01*
X55688Y25312D02*
X61000D01*
X66312D01*
X55688Y14288D02*
X61000D01*
X66312D01*
X51500Y29300D02*
X67600D01*
X51500Y13200D02*
Y29300D01*
X54400Y10300D02*
X70500D01*
Y26400D01*
X-8600Y29200D02*
Y38600D01*
X-5600Y46000D02*
X12800D01*
X-5600Y21800D02*
X12800D01*
X16200Y29200D02*
Y38600D01*
X85963Y132700D02*
Y133400D01*
X102963Y133338D01*
X85963Y126200D02*
Y126900D01*
Y126200D02*
X102963Y126262D01*
X85963Y147600D02*
Y148300D01*
X102963Y148238D01*
X85963Y141100D02*
Y141800D01*
Y141100D02*
X102963Y141162D01*
X90000Y125400D02*
X99600D01*
Y121200D02*
Y125400D01*
X90000Y121200D02*
Y125400D01*
Y121200D02*
X99600D01*
X58400Y92800D02*
Y99600D01*
X54400D02*
X58400D01*
X54400Y92800D02*
X58400D01*
X45600D02*
Y99600D01*
X49600D01*
X45600Y92800D02*
X49600D01*
X36500Y94303D02*
X40500D01*
X36500Y87503D02*
X40500D01*
Y94303D01*
X27700D02*
X31700D01*
X27700Y87503D02*
X31700D01*
X27700D02*
Y94303D01*
X75500Y77300D02*
X82300D01*
Y81300D01*
X75500Y77300D02*
Y81300D01*
Y90100D02*
X82300D01*
Y86100D02*
Y90100D01*
X75500Y86100D02*
Y90100D01*
X59200Y92800D02*
Y99600D01*
Y92800D02*
X63200D01*
X59200Y99600D02*
X63200D01*
X72000Y92800D02*
Y99600D01*
X68000Y92800D02*
X72000D01*
X68000Y99600D02*
X72000D01*
X104629Y77300D02*
Y81300D01*
X97829Y77300D02*
Y81300D01*
Y77300D02*
X104629D01*
Y86100D02*
Y90100D01*
X97829Y86100D02*
Y90100D01*
X104629D01*
X86128Y72137D02*
Y76137D01*
X92928Y72137D02*
Y76137D01*
X86128D02*
X92928D01*
X86128Y63337D02*
Y67337D01*
X92928Y63337D02*
Y67337D01*
X86128Y63337D02*
X92928D01*
X89743Y77300D02*
Y81300D01*
X82943Y77300D02*
Y81300D01*
Y77300D02*
X89743D01*
Y86100D02*
Y90100D01*
X82943Y86100D02*
Y90100D01*
X89743D01*
X97186Y77300D02*
Y81300D01*
X90386Y77300D02*
Y81300D01*
Y77300D02*
X97186D01*
Y86100D02*
Y90100D01*
X90386Y86100D02*
Y90100D01*
X97186D01*
X19600Y50563D02*
X29200D01*
X19600D02*
Y54763D01*
X29200Y50563D02*
Y54763D01*
X19600D02*
X29200D01*
X70328Y34637D02*
Y44237D01*
X66128Y34637D02*
X70328D01*
X66128Y44237D02*
X70328D01*
X66128Y34637D02*
Y44237D01*
X17196Y72327D02*
Y81927D01*
X12996Y72327D02*
X17196D01*
X12996Y81927D02*
X17196D01*
X12996Y72327D02*
Y81927D01*
X11696Y72327D02*
Y81927D01*
X7496Y72327D02*
X11696D01*
X7496Y81927D02*
X11696D01*
X7496Y72327D02*
Y81927D01*
X-97500Y204600D02*
Y214200D01*
X-101700Y204600D02*
X-97500D01*
X-101700Y214200D02*
X-97500D01*
X-101700Y204600D02*
Y214200D01*
X-35900Y223500D02*
Y233100D01*
X-40100Y223500D02*
X-35900D01*
X-40100Y233100D02*
X-35900D01*
X-40100Y223500D02*
Y233100D01*
X3700Y54700D02*
Y64300D01*
X7900D01*
X3700Y54700D02*
X7900D01*
Y64300D01*
X81100Y53500D02*
X90700D01*
X81100D02*
Y57700D01*
X90700Y53500D02*
Y57700D01*
X81100D02*
X90700D01*
X75728Y37537D02*
Y47137D01*
X71529Y37537D02*
X75728D01*
X71529Y47137D02*
X75728D01*
X71529Y37537D02*
Y47137D01*
X70996Y71527D02*
X74096D01*
X70996Y75727D02*
X74096D01*
X70996Y71527D02*
Y75727D01*
X77696Y71527D02*
X80796D01*
X77696Y75727D02*
X80796D01*
Y71527D02*
Y75727D01*
X109500Y78500D02*
Y81600D01*
X105300Y78500D02*
Y81600D01*
Y78500D02*
X109500D01*
Y85200D02*
Y88300D01*
X105300Y85200D02*
Y88300D01*
X109500D01*
X25800Y35700D02*
Y38800D01*
X30000Y35700D02*
Y38800D01*
X25800D02*
X30000D01*
X25800Y29000D02*
Y32100D01*
X30000Y29000D02*
Y32100D01*
X25800Y29000D02*
X30000D01*
X60729Y38237D02*
Y41337D01*
X64929Y38237D02*
Y41337D01*
X60729D02*
X64929D01*
X60729Y31537D02*
Y34637D01*
X64929Y31537D02*
Y34637D01*
X60729Y31537D02*
X64929D01*
X25300Y77800D02*
X28400D01*
X25300Y73600D02*
X28400D01*
Y77800D01*
X18600D02*
X21700D01*
X18600Y73600D02*
X21700D01*
X18600D02*
Y77800D01*
X81328Y73637D02*
X85528D01*
X81328Y70537D02*
Y73637D01*
X85528Y70537D02*
Y73637D01*
X81328Y63837D02*
X85528D01*
X81328D02*
Y66937D01*
X85528Y63837D02*
Y66937D01*
X25300Y71730D02*
X28400D01*
X25300Y67530D02*
X28400D01*
Y71730D01*
X18600D02*
X21700D01*
X18600Y67530D02*
X21700D01*
X18600D02*
Y71730D01*
X76629Y58437D02*
X79729D01*
X76629Y62637D02*
X79729D01*
X76629Y58437D02*
Y62637D01*
X83328Y58437D02*
X86428D01*
X83328Y62637D02*
X86428D01*
Y58437D02*
Y62637D01*
X129900Y119800D02*
X134100D01*
X129900Y116700D02*
Y119800D01*
X134100Y116700D02*
Y119800D01*
X129900Y110000D02*
X134100D01*
X129900D02*
Y113100D01*
X134100Y110000D02*
Y113100D01*
X129900Y142800D02*
X134100D01*
X129900Y139700D02*
Y142800D01*
X134100Y139700D02*
Y142800D01*
X129900Y133000D02*
X134100D01*
X129900D02*
Y136100D01*
X134100Y133000D02*
Y136100D01*
X129900Y154300D02*
X134100D01*
X129900Y151200D02*
Y154300D01*
X134100Y151200D02*
Y154300D01*
X129900Y144500D02*
X134100D01*
X129900D02*
Y147600D01*
X134100Y144500D02*
Y147600D01*
X-82919Y234980D02*
X-51119D01*
X-82919Y196180D02*
X-51119D01*
X-95500Y195900D02*
Y196600D01*
X-88200D01*
X-95500Y190800D02*
Y191500D01*
Y190800D02*
X-88200D01*
X62828Y81437D02*
X66128Y78137D01*
X62828Y50037D02*
X66128Y53337D01*
X34729D02*
X38028Y50037D01*
X34729Y78137D02*
X38028Y81437D01*
X72550Y199600D02*
Y210500D01*
X66550Y199600D02*
X72550D01*
X66550Y193700D02*
Y199600D01*
X26050Y193700D02*
X66550D01*
X22750Y197100D02*
Y210500D01*
X26050Y243500D02*
X69450D01*
X22750Y226700D02*
Y240100D01*
X72750Y226700D02*
Y240100D01*
X-34000Y66319D02*
Y126619D01*
X-93700D02*
X-34000D01*
X-93700Y66319D02*
Y126619D01*
Y66319D02*
X-34000D01*
Y129080D02*
Y189380D01*
X-93700D02*
X-34000D01*
X-93700Y129080D02*
Y189380D01*
Y129080D02*
X-34000D01*
X19600Y55500D02*
X22700D01*
X19600Y59700D02*
X22700D01*
X19600Y55500D02*
Y59700D01*
X26300Y55500D02*
X29400D01*
X26300Y59700D02*
X29400D01*
Y55500D02*
Y59700D01*
X7529Y67037D02*
X10628D01*
X7529Y71237D02*
X10628D01*
X7529Y67037D02*
Y71237D01*
X14229Y67037D02*
X17328D01*
X14229Y71237D02*
X17328D01*
Y67037D02*
Y71237D01*
X23400Y11456D02*
Y13424D01*
X24384D01*
X24712Y13096D01*
Y12440D01*
X24384Y12112D01*
X23400D01*
X26680Y13096D02*
X26352Y13424D01*
X25696D01*
X25368Y13096D01*
Y11784D01*
X25696Y11456D01*
X26352D01*
X26680Y11784D01*
X27336Y13424D02*
Y11456D01*
X28320D01*
X28648Y11784D01*
Y12112D01*
X28320Y12440D01*
X27336D01*
X28320D01*
X28648Y12768D01*
Y13096D01*
X28320Y13424D01*
X27336D01*
X32583D02*
X31271D01*
Y11456D01*
X32583D01*
X31271Y12440D02*
X31927D01*
X34551Y13424D02*
Y11456D01*
X33567D01*
X33239Y11784D01*
Y12440D01*
X33567Y12768D01*
X34551D01*
X35863Y10800D02*
X36191D01*
X36519Y11128D01*
Y12768D01*
X35535D01*
X35207Y12440D01*
Y11784D01*
X35535Y11456D01*
X36519D01*
X38159D02*
X37503D01*
X37175Y11784D01*
Y12440D01*
X37503Y12768D01*
X38159D01*
X38487Y12440D01*
Y12112D01*
X37175D01*
X-60035Y22027D02*
X-61346D01*
X-62002Y22683D01*
X-61346Y23339D01*
X-60035D01*
X-61018D01*
Y22027D01*
X-60035Y23995D02*
Y24651D01*
Y24323D01*
X-62002D01*
X-61674Y23995D01*
X-55302Y49727D02*
X-53334D01*
Y50711D01*
X-53663Y51039D01*
X-53990D01*
X-54318Y50711D01*
Y49727D01*
Y50711D01*
X-54646Y51039D01*
X-54974D01*
X-55302Y50711D01*
Y49727D01*
X-53334Y51695D02*
Y52351D01*
Y52023D01*
X-55302D01*
X-54974Y51695D01*
D11*
X39800Y19200D02*
G03*
X39800Y19200I-500J0D01*
G01*
X53000Y23500D02*
G03*
X53000Y23500I-200J0D01*
G01*
X-88419Y201780D02*
G03*
X-88419Y201780I-500J0D01*
G01*
X32728Y78537D02*
G03*
X32728Y78537I-400J0D01*
G01*
X77180Y212500D02*
G03*
X77180Y212500I-825J0D01*
G01*
X38422Y162401D02*
X67622D01*
Y165301D01*
X38422Y162401D02*
Y165301D01*
Y177701D02*
Y180601D01*
X67622Y177701D02*
Y180601D01*
X38422D02*
X67622D01*
X33522Y179201D02*
X36822D01*
X35122Y177801D02*
Y180701D01*
X40800Y12600D02*
Y16400D01*
X40100Y11900D02*
X40800Y12600D01*
X39400Y11900D02*
X40100D01*
X-50000Y119619D02*
X-48800Y118419D01*
X-47600Y119619D01*
X-50000D02*
X-47600D01*
X-50000Y182380D02*
X-48800Y181180D01*
X-47600Y182380D01*
X-50000D02*
X-47600D01*
D12*
X-50835Y51627D02*
G03*
X-63835Y51627I-6500J-4500D01*
G01*
Y23127D02*
G03*
X-50835Y23127I6500J4000D01*
G01*
X-63835Y23127D02*
Y51627D01*
X-50835Y23127D02*
Y51627D01*
D13*
X27400Y132900D02*
X29300D01*
X30908Y134508D01*
Y147918D01*
X40900D01*
X33524Y117813D02*
X34779Y116576D01*
X27716Y117767D02*
X28598Y116898D01*
X27683Y122221D02*
X27716Y117767D01*
X26959Y122934D02*
X27683Y122221D01*
X37400Y157549D02*
X40399Y154550D01*
X37400D02*
X40399Y157549D01*
X37400Y156049D02*
X40399D01*
X38899Y154550D02*
Y157549D01*
X94650Y63700D02*
Y68199D01*
X96149D02*
Y63700D01*
X93900Y66699D02*
X96149D01*
X96899D01*
X93900Y65200D02*
X96899D01*
X26500Y42649D02*
X29499Y39650D01*
X26500D02*
X29499Y42649D01*
X26500Y41149D02*
X29499D01*
X27999Y39650D02*
Y42649D01*
X105900Y92049D02*
X108899Y89050D01*
X105900D02*
X108899Y92049D01*
X105900Y90549D02*
X108899D01*
X107399Y89050D02*
Y92049D01*
X69750Y87400D02*
Y91899D01*
X71249D02*
Y87400D01*
X69000Y90399D02*
X71249D01*
X71999D01*
X69000Y88899D02*
X71999D01*
X61579Y45086D02*
X64578Y42087D01*
X61579D02*
X64578Y45086D01*
X61579Y43586D02*
X64578D01*
X63078Y42087D02*
Y45086D01*
X71000Y79449D02*
X73999Y76450D01*
X71000D02*
X73999Y79449D01*
X71000Y77949D02*
X73999D01*
X72500Y76450D02*
Y79449D01*
X28950Y95400D02*
Y99899D01*
X30449D02*
Y95400D01*
X28200Y98399D02*
X30449D01*
X31199D01*
X28200Y96899D02*
X31199D01*
X101350Y90800D02*
Y95299D01*
X102849D02*
Y90800D01*
X100600Y93799D02*
X102849D01*
X103599D01*
X100600Y92299D02*
X103599D01*
X93650Y90800D02*
Y95299D01*
X95149D02*
Y90800D01*
X92900Y93799D02*
X95149D01*
X95899D01*
X92900Y92299D02*
X95899D01*
X86250Y90800D02*
Y95299D01*
X87749D02*
Y90800D01*
X85500Y93799D02*
X87749D01*
X88499D01*
X85500Y92299D02*
X88499D01*
X78250Y90900D02*
Y95399D01*
X79749D02*
Y90900D01*
X77500Y93899D02*
X79749D01*
X80499D01*
X77500Y92400D02*
X80499D01*
X55650Y87300D02*
Y91799D01*
X57149D02*
Y87300D01*
X54900Y90299D02*
X57149D01*
X57899D01*
X54900Y88800D02*
X57899D01*
X8317Y181634D02*
Y183966D01*
X7734Y184549D01*
X6567D01*
X5984Y183966D01*
Y181634D01*
X6567Y181051D01*
X7734D01*
X7151Y182217D02*
X8317Y181051D01*
X7734D02*
X8317Y181634D01*
X11816Y184549D02*
X9483D01*
Y182800D01*
X10649Y183383D01*
X11233D01*
X11816Y182800D01*
Y181634D01*
X11233Y181051D01*
X10066D01*
X9483Y181634D01*
X41818Y147651D02*
Y151149D01*
X43567D01*
X44151Y150566D01*
Y149400D01*
X43567Y148817D01*
X41818D01*
X42984D02*
X44151Y147651D01*
X47649D02*
X45317D01*
X47649Y149983D01*
Y150566D01*
X47066Y151149D01*
X45900D01*
X45317Y150566D01*
X48816Y147651D02*
X49982D01*
X49399D01*
Y151149D01*
X48816Y150566D01*
X17335Y112551D02*
Y116049D01*
X19084D01*
X19667Y115466D01*
Y114300D01*
X19084Y113717D01*
X17335D01*
X18501D02*
X19667Y112551D01*
X23166D02*
X20834D01*
X23166Y114883D01*
Y115466D01*
X22583Y116049D01*
X21417D01*
X20834Y115466D01*
X26665Y112551D02*
X24333D01*
X26665Y114883D01*
Y115466D01*
X26082Y116049D01*
X24916D01*
X24333Y115466D01*
X29034Y109167D02*
X28451Y108584D01*
Y107418D01*
X29034Y106835D01*
X31366D01*
X31949Y107418D01*
Y108584D01*
X31366Y109167D01*
X28451Y112666D02*
X29034Y111500D01*
X30200Y110334D01*
X31366D01*
X31949Y110917D01*
Y112083D01*
X31366Y112666D01*
X30783D01*
X30200Y112083D01*
Y110334D01*
X31949Y116165D02*
Y113833D01*
X29617Y116165D01*
X29034D01*
X28451Y115582D01*
Y114416D01*
X29034Y113833D01*
X41635Y146049D02*
Y142551D01*
X43384D01*
X43967Y143134D01*
Y145466D01*
X43384Y146049D01*
X41635D01*
X47466Y142551D02*
X45134D01*
X47466Y144883D01*
Y145466D01*
X46883Y146049D01*
X45717D01*
X45134Y145466D01*
X50965Y142551D02*
X48633D01*
X50965Y144883D01*
Y145466D01*
X50382Y146049D01*
X49216D01*
X48633Y145466D01*
X37349Y106735D02*
X33850D01*
Y108484D01*
X34434Y109067D01*
X35600D01*
X36183Y108484D01*
Y106735D01*
Y107901D02*
X37349Y109067D01*
Y112566D02*
Y110234D01*
X35017Y112566D01*
X34434D01*
X33850Y111983D01*
Y110817D01*
X34434Y110234D01*
X37349Y115482D02*
X33850D01*
X35600Y113733D01*
Y116065D01*
X34726Y45649D02*
Y42151D01*
X36476D01*
X37059Y42734D01*
Y45066D01*
X36476Y45649D01*
X34726D01*
X38225Y42151D02*
X39392D01*
X38808D01*
Y45649D01*
X38225Y45066D01*
X41141Y42734D02*
X41724Y42151D01*
X42890D01*
X43474Y42734D01*
Y45066D01*
X42890Y45649D01*
X41724D01*
X41141Y45066D01*
Y44483D01*
X41724Y43900D01*
X43474D01*
X6326Y101649D02*
Y98151D01*
X8076D01*
X8659Y98734D01*
Y101066D01*
X8076Y101649D01*
X6326D01*
X9825Y98151D02*
X10992D01*
X10408D01*
Y101649D01*
X9825Y101066D01*
X15074Y101649D02*
X12741D01*
Y99900D01*
X13907Y100483D01*
X14490D01*
X15074Y99900D01*
Y98734D01*
X14490Y98151D01*
X13324D01*
X12741Y98734D01*
X-89274Y38549D02*
Y35051D01*
X-87524D01*
X-86941Y35634D01*
Y37966D01*
X-87524Y38549D01*
X-89274D01*
X-85775Y35051D02*
X-84608D01*
X-85192D01*
Y38549D01*
X-85775Y37966D01*
X-81110Y35051D02*
Y38549D01*
X-82859Y36800D01*
X-80526D01*
X49567Y184966D02*
X48984Y185549D01*
X47818D01*
X47235Y184966D01*
Y182634D01*
X47818Y182051D01*
X48984D01*
X49567Y182634D01*
X52483Y182051D02*
Y185549D01*
X50734Y183800D01*
X53066D01*
X54233Y182634D02*
X54816Y182051D01*
X55982D01*
X56565Y182634D01*
Y184966D01*
X55982Y185549D01*
X54816D01*
X54233Y184966D01*
Y184383D01*
X54816Y183800D01*
X56565D01*
X45717Y17949D02*
X44551D01*
X45134D01*
Y15034D01*
X44551Y14451D01*
X43967D01*
X43384Y15034D01*
X49216Y17949D02*
X48049Y17366D01*
X46883Y16200D01*
Y15034D01*
X47466Y14451D01*
X48633D01*
X49216Y15034D01*
Y15617D01*
X48633Y16200D01*
X46883D01*
X98086Y152849D02*
Y149351D01*
X99836D01*
X100419Y149934D01*
Y152266D01*
X99836Y152849D01*
X98086D01*
X103334Y149351D02*
Y152849D01*
X101585Y151100D01*
X103918D01*
X11024Y200466D02*
X10441Y201049D01*
X9274D01*
X8691Y200466D01*
Y198134D01*
X9274Y197551D01*
X10441D01*
X11024Y198134D01*
X12190Y197551D02*
X13356D01*
X12773D01*
Y201049D01*
X12190Y200466D01*
X38969Y26849D02*
Y23351D01*
X41301D01*
X44800Y26849D02*
X42467D01*
Y23351D01*
X44800D01*
X42467Y25100D02*
X43634D01*
X45966Y26849D02*
Y23351D01*
X47716D01*
X48299Y23934D01*
Y26266D01*
X47716Y26849D01*
X45966D01*
X49465Y23351D02*
X50631D01*
X50048D01*
Y26849D01*
X49465Y26266D01*
X-5149Y49766D02*
X-5733Y50349D01*
X-6899D01*
X-7482Y49766D01*
Y49183D01*
X-6899Y48600D01*
X-5733D01*
X-5149Y48017D01*
Y47434D01*
X-5733Y46851D01*
X-6899D01*
X-7482Y47434D01*
X-3983Y50349D02*
Y46851D01*
X-2817Y48017D01*
X-1651Y46851D01*
Y50349D01*
X-484Y46851D02*
X682D01*
X99D01*
Y50349D01*
X-484Y49766D01*
X10884Y50951D02*
Y54449D01*
X12634D01*
X13217Y53866D01*
Y52700D01*
X12634Y52117D01*
X10884D01*
X12051D02*
X13217Y50951D01*
X14383Y51534D02*
X14966Y50951D01*
X16133D01*
X16716Y51534D01*
Y53866D01*
X16133Y54449D01*
X14966D01*
X14383Y53866D01*
Y53283D01*
X14966Y52700D01*
X16716D01*
X80949Y18235D02*
X77451D01*
Y19984D01*
X78034Y20567D01*
X79200D01*
X79783Y19984D01*
Y18235D01*
Y19401D02*
X80949Y20567D01*
X78034Y21734D02*
X77451Y22317D01*
Y23483D01*
X78034Y24066D01*
X78617D01*
X79200Y23483D01*
Y22900D01*
Y23483D01*
X79783Y24066D01*
X80366D01*
X80949Y23483D01*
Y22317D01*
X80366Y21734D01*
X80949Y26982D02*
X77451D01*
X79200Y25233D01*
Y27565D01*
X90226Y116851D02*
Y120349D01*
X91976D01*
X92559Y119766D01*
Y118600D01*
X91976Y118017D01*
X90226D01*
X91393D02*
X92559Y116851D01*
X93725D02*
X94892D01*
X94308D01*
Y120349D01*
X93725Y119766D01*
X98974Y120349D02*
X97807Y119766D01*
X96641Y118600D01*
Y117434D01*
X97224Y116851D01*
X98390D01*
X98974Y117434D01*
Y118017D01*
X98390Y118600D01*
X96641D01*
X86226Y154151D02*
Y157649D01*
X87976D01*
X88559Y157066D01*
Y155900D01*
X87976Y155317D01*
X86226D01*
X87393D02*
X88559Y154151D01*
X89725D02*
X90892D01*
X90308D01*
Y157649D01*
X89725Y157066D01*
X94390Y154151D02*
Y157649D01*
X92641Y155900D01*
X94974D01*
X-98583Y126149D02*
X-99749D01*
X-99166D01*
Y123234D01*
X-99749Y122651D01*
X-100333D01*
X-100916Y123234D01*
X-95084Y126149D02*
X-97417D01*
Y124400D01*
X-96251Y124983D01*
X-95667D01*
X-95084Y124400D01*
Y123234D01*
X-95667Y122651D01*
X-96834D01*
X-97417Y123234D01*
X-98383Y132849D02*
X-99549D01*
X-98966D01*
Y129934D01*
X-99549Y129351D01*
X-100133D01*
X-100716Y129934D01*
X-94884Y129351D02*
X-97217D01*
X-94884Y131683D01*
Y132266D01*
X-95467Y132849D01*
X-96634D01*
X-97217Y132266D01*
X-67200Y54049D02*
X-68366D01*
X-67783D01*
Y51134D01*
X-68366Y50551D01*
X-68949D01*
X-69533Y51134D01*
X-66034Y50551D02*
X-64867D01*
X-65451D01*
Y54049D01*
X-66034Y53466D01*
X100584Y125249D02*
Y121751D01*
X102334D01*
X102917Y122334D01*
Y124666D01*
X102334Y125249D01*
X100584D01*
X104083Y124666D02*
X104666Y125249D01*
X105833D01*
X106416Y124666D01*
Y124083D01*
X105833Y123500D01*
X106416Y122917D01*
Y122334D01*
X105833Y121751D01*
X104666D01*
X104083Y122334D01*
Y122917D01*
X104666Y123500D01*
X104083Y124083D01*
Y124666D01*
X104666Y123500D02*
X105833D01*
X66418Y30251D02*
Y33749D01*
X68167D01*
X68751Y33166D01*
Y32000D01*
X68167Y31417D01*
X66418D01*
X67584D02*
X68751Y30251D01*
X72249Y33749D02*
X69917D01*
Y32000D01*
X71083D01*
X69917D01*
Y30251D01*
X73416D02*
X74582D01*
X73999D01*
Y33749D01*
X73416Y33166D01*
X16449Y82884D02*
X12951D01*
Y84634D01*
X13534Y85217D01*
X14700D01*
X15283Y84634D01*
Y82884D01*
Y84051D02*
X16449Y85217D01*
X12951Y88716D02*
X13534Y87549D01*
X14700Y86383D01*
X15866D01*
X16449Y86966D01*
Y88133D01*
X15866Y88716D01*
X15283D01*
X14700Y88133D01*
Y86383D01*
X11249Y82984D02*
X7751D01*
Y84734D01*
X8334Y85317D01*
X9500D01*
X10083Y84734D01*
Y82984D01*
Y84151D02*
X11249Y85317D01*
X7751Y86483D02*
Y88816D01*
X8334D01*
X10666Y86483D01*
X11249D01*
X21559Y81966D02*
X20976Y82549D01*
X19810D01*
X19226Y81966D01*
Y79634D01*
X19810Y79051D01*
X20976D01*
X21559Y79634D01*
X22725Y79051D02*
X23892D01*
X23308D01*
Y82549D01*
X22725Y81966D01*
X27390Y79051D02*
Y82549D01*
X25641Y80800D01*
X27974D01*
X74259Y66766D02*
X73676Y67349D01*
X72510D01*
X71926Y66766D01*
Y64434D01*
X72510Y63851D01*
X73676D01*
X74259Y64434D01*
X75425Y63851D02*
X76592D01*
X76008D01*
Y67349D01*
X75425Y66766D01*
X78341Y67349D02*
X80674D01*
Y66766D01*
X78341Y64434D01*
Y63851D01*
X65367Y144666D02*
X64784Y145249D01*
X63618D01*
X63035Y144666D01*
Y142334D01*
X63618Y141751D01*
X64784D01*
X65367Y142334D01*
X68866Y141751D02*
X66534D01*
X68866Y144083D01*
Y144666D01*
X68283Y145249D01*
X67117D01*
X66534Y144666D01*
X72365Y141751D02*
X70033D01*
X72365Y144083D01*
Y144666D01*
X71782Y145249D01*
X70616D01*
X70033Y144666D01*
X11567Y65566D02*
X10984Y66149D01*
X9818D01*
X9235Y65566D01*
Y63234D01*
X9818Y62651D01*
X10984D01*
X11567Y63234D01*
X15066Y62651D02*
X12734D01*
X15066Y64983D01*
Y65566D01*
X14483Y66149D01*
X13317D01*
X12734Y65566D01*
X16233D02*
X16816Y66149D01*
X17982D01*
X18565Y65566D01*
Y64983D01*
X17982Y64400D01*
X17399D01*
X17982D01*
X18565Y63817D01*
Y63234D01*
X17982Y62651D01*
X16816D01*
X16233Y63234D01*
X11567Y59166D02*
X10984Y59749D01*
X9818D01*
X9235Y59166D01*
Y56834D01*
X9818Y56251D01*
X10984D01*
X11567Y56834D01*
X15066Y56251D02*
X12734D01*
X15066Y58583D01*
Y59166D01*
X14483Y59749D01*
X13317D01*
X12734Y59166D01*
X17982Y56251D02*
Y59749D01*
X16233Y58000D01*
X18565D01*
X23167Y65966D02*
X22584Y66549D01*
X21418D01*
X20835Y65966D01*
Y63634D01*
X21418Y63051D01*
X22584D01*
X23167Y63634D01*
X26666Y63051D02*
X24334D01*
X26666Y65383D01*
Y65966D01*
X26083Y66549D01*
X24917D01*
X24334Y65966D01*
X27833Y63634D02*
X28416Y63051D01*
X29582D01*
X30165Y63634D01*
Y65966D01*
X29582Y66549D01*
X28416D01*
X27833Y65966D01*
Y65383D01*
X28416Y64800D01*
X30165D01*
X72834Y55567D02*
X72250Y54984D01*
Y53818D01*
X72834Y53235D01*
X75166D01*
X75749Y53818D01*
Y54984D01*
X75166Y55567D01*
X72834Y56734D02*
X72250Y57317D01*
Y58483D01*
X72834Y59066D01*
X73417D01*
X74000Y58483D01*
Y57900D01*
Y58483D01*
X74583Y59066D01*
X75166D01*
X75749Y58483D01*
Y57317D01*
X75166Y56734D01*
X72834Y60233D02*
X72250Y60816D01*
Y61982D01*
X72834Y62565D01*
X75166D01*
X75749Y61982D01*
Y60816D01*
X75166Y60233D01*
X72834D01*
X135534Y124067D02*
X134951Y123484D01*
Y122318D01*
X135534Y121735D01*
X137866D01*
X138449Y122318D01*
Y123484D01*
X137866Y124067D01*
X134951Y127566D02*
Y125234D01*
X136700D01*
X136117Y126400D01*
Y126983D01*
X136700Y127566D01*
X137866D01*
X138449Y126983D01*
Y125817D01*
X137866Y125234D01*
X135534Y128733D02*
X134951Y129316D01*
Y130482D01*
X135534Y131065D01*
X136117D01*
X136700Y130482D01*
X137283Y131065D01*
X137866D01*
X138449Y130482D01*
Y129316D01*
X137866Y128733D01*
X137283D01*
X136700Y129316D01*
X136117Y128733D01*
X135534D01*
X136700Y129316D02*
Y130482D01*
X135434Y135567D02*
X134851Y134984D01*
Y133818D01*
X135434Y133235D01*
X137766D01*
X138349Y133818D01*
Y134984D01*
X137766Y135567D01*
X134851Y139066D02*
Y136734D01*
X136600D01*
X136017Y137900D01*
Y138483D01*
X136600Y139066D01*
X137766D01*
X138349Y138483D01*
Y137317D01*
X137766Y136734D01*
Y140233D02*
X138349Y140816D01*
Y141982D01*
X137766Y142565D01*
X135434D01*
X134851Y141982D01*
Y140816D01*
X135434Y140233D01*
X136017D01*
X136600Y140816D01*
Y142565D01*
X126867Y157966D02*
X126284Y158549D01*
X125118D01*
X124535Y157966D01*
Y155634D01*
X125118Y155051D01*
X126284D01*
X126867Y155634D01*
X130366Y158549D02*
X129200Y157966D01*
X128034Y156800D01*
Y155634D01*
X128617Y155051D01*
X129783D01*
X130366Y155634D01*
Y156217D01*
X129783Y156800D01*
X128034D01*
X131533Y157966D02*
X132116Y158549D01*
X133282D01*
X133865Y157966D01*
Y155634D01*
X133282Y155051D01*
X132116D01*
X131533Y155634D01*
Y157966D01*
X-95233Y200949D02*
Y197451D01*
X-93483D01*
X-92900Y198034D01*
Y200366D01*
X-93483Y200949D01*
X-95233D01*
X-91734Y197451D02*
X-90567D01*
X-91151D01*
Y200949D01*
X-91734Y200366D01*
X49167Y248049D02*
Y244551D01*
X51500D01*
X52666D02*
X53833D01*
X53249D01*
Y248049D01*
X52666Y247466D01*
X-3886Y192812D02*
X-1412Y195286D01*
X-175Y194049D01*
Y193225D01*
X-1000Y192400D01*
X-1825Y192400D01*
X-3062Y193637D01*
X-1412Y190338D02*
X-588Y189514D01*
X-1000Y189926D01*
X1474Y192400D01*
X649Y192400D01*
X-1925Y60201D02*
X-4399Y62675D01*
X-3162Y63912D01*
X-2337D01*
X-1512Y63088D01*
X-1512Y62263D01*
X-2749Y61026D01*
X2199Y64325D02*
X549Y62675D01*
Y65974D01*
X137Y66386D01*
X-688D01*
X-1512Y65562D01*
X-1512Y64737D01*
X-97651Y215384D02*
X-101149D01*
Y217134D01*
X-100566Y217717D01*
X-99400D01*
X-98817Y217134D01*
Y215384D01*
Y216551D02*
X-97651Y217717D01*
Y220633D02*
X-101149D01*
X-99400Y218883D01*
Y221216D01*
X-39616Y218951D02*
Y222449D01*
X-37866D01*
X-37283Y221866D01*
Y220700D01*
X-37866Y220117D01*
X-39616D01*
X-38449D02*
X-37283Y218951D01*
X-33784Y222449D02*
X-36117D01*
Y220700D01*
X-34951Y221283D01*
X-34367D01*
X-33784Y220700D01*
Y219534D01*
X-34367Y218951D01*
X-35534D01*
X-36117Y219534D01*
X2684Y50251D02*
Y53749D01*
X4434D01*
X5017Y53166D01*
Y52000D01*
X4434Y51417D01*
X2684D01*
X3851D02*
X5017Y50251D01*
X6183Y53166D02*
X6766Y53749D01*
X7933D01*
X8516Y53166D01*
Y52583D01*
X7933Y52000D01*
X8516Y51417D01*
Y50834D01*
X7933Y50251D01*
X6766D01*
X6183Y50834D01*
Y51417D01*
X6766Y52000D01*
X6183Y52583D01*
Y53166D01*
X6766Y52000D02*
X7933D01*
X81835Y48951D02*
Y52449D01*
X83584D01*
X84167Y51866D01*
Y50700D01*
X83584Y50117D01*
X81835D01*
X83001D02*
X84167Y48951D01*
X87666D02*
X85334D01*
X87666Y51283D01*
Y51866D01*
X87083Y52449D01*
X85917D01*
X85334Y51866D01*
X88833D02*
X89416Y52449D01*
X90582D01*
X91165Y51866D01*
Y51283D01*
X90582Y50700D01*
X89999D01*
X90582D01*
X91165Y50117D01*
Y49534D01*
X90582Y48951D01*
X89416D01*
X88833Y49534D01*
X71635Y47951D02*
Y51449D01*
X73384D01*
X73967Y50866D01*
Y49700D01*
X73384Y49117D01*
X71635D01*
X72801D02*
X73967Y47951D01*
X77466Y51449D02*
X75134D01*
Y49700D01*
X76300D01*
X75134D01*
Y47951D01*
X80965D02*
X78633D01*
X80965Y50283D01*
Y50866D01*
X80382Y51449D01*
X79216D01*
X78633Y50866D01*
X-77833Y239449D02*
X-75500D01*
X-76666D01*
Y235951D01*
X-74334D02*
X-73167D01*
X-73751D01*
Y239449D01*
X-74334Y238866D01*
X30384Y50849D02*
Y47934D01*
X30967Y47351D01*
X32134D01*
X32717Y47934D01*
Y50849D01*
X36216D02*
X35049Y50266D01*
X33883Y49100D01*
Y47934D01*
X34466Y47351D01*
X35633D01*
X36216Y47934D01*
Y48517D01*
X35633Y49100D01*
X33883D01*
D14*
X121929Y170937D02*
X125329D01*
X119929Y172937D02*
X121929Y170937D01*
X119929Y172937D02*
Y176337D01*
X127329Y172937D02*
Y176337D01*
X125329Y170937D02*
X127329Y172937D01*
X121929Y170937D02*
X125329D01*
X121929Y178337D02*
X125329D01*
X127329Y176337D01*
X119929D02*
X121929Y178337D01*
X125329D01*
X-42800Y59500D02*
Y62900D01*
X-44800Y57500D02*
X-42800Y59500D01*
X-48200Y57500D02*
X-44800D01*
X-48200Y64900D02*
X-44800D01*
X-42800Y62900D01*
Y59500D02*
Y62900D01*
X-50200Y59500D02*
Y62900D01*
X-48200Y64900D01*
X-50200Y59500D02*
X-48200Y57500D01*
X-50200Y59500D02*
Y62900D01*
X121929Y169037D02*
X125329D01*
X127329Y167037D01*
Y163637D02*
Y167037D01*
X119929Y163637D02*
Y167037D01*
X121929Y169037D01*
X125329D01*
X121929Y161637D02*
X125329D01*
X119929Y163637D02*
X121929Y161637D01*
X125329D02*
X127329Y163637D01*
X121929Y161637D02*
X125329D01*
X38300Y252100D02*
Y255500D01*
X40300Y257500D01*
X43700D01*
X40300Y250100D02*
X43700D01*
X38300Y252100D02*
X40300Y250100D01*
X38300Y252100D02*
Y255500D01*
X45700Y252100D02*
Y255500D01*
X43700Y250100D02*
X45700Y252100D01*
X43700Y257500D02*
X45700Y255500D01*
Y252100D02*
Y255500D01*
D15*
X84500Y198731D02*
X92926D01*
X84500D02*
Y202444D01*
X92926D01*
Y198731D02*
Y202444D01*
X-37043Y208500D02*
X-33331D01*
X-37043Y200074D02*
Y208500D01*
Y200074D02*
X-33331D01*
Y208500D01*
X84500Y197269D02*
X92926D01*
Y193556D02*
Y197269D01*
X84500Y193556D02*
X92926D01*
X84500D02*
Y197269D01*
X-57500Y238731D02*
Y242443D01*
X-65926D02*
X-57500D01*
X-65926Y238731D02*
Y242443D01*
Y238731D02*
X-57500D01*
D16*
X135434Y112567D02*
X134851Y111984D01*
Y110818D01*
X135434Y110235D01*
X137766D01*
X138349Y110818D01*
Y111984D01*
X137766Y112567D01*
X134851Y116066D02*
Y113734D01*
X136600D01*
X136017Y114900D01*
Y115483D01*
X136600Y116066D01*
X137766D01*
X138349Y115483D01*
Y114317D01*
X137766Y113734D01*
X134851Y117233D02*
Y119565D01*
X135434D01*
X137766Y117233D01*
X138349D01*
D17*
X36923Y144955D02*
D03*
D18*
X39373Y141555D02*
D03*
X34235D02*
D03*
D19*
X14918Y127006D02*
D03*
X5682D02*
D03*
D20*
X10301Y130603D02*
D03*
D21*
X101513Y129800D02*
D03*
Y144700D02*
D03*
D22*
X98883Y132869D02*
D03*
Y126731D02*
D03*
Y147769D02*
D03*
Y141631D02*
D03*
D23*
X-84754Y193701D02*
D03*
D24*
X-86054Y196201D02*
D03*
Y191201D02*
D03*
M02*
