G04*
G04 #@! TF.GenerationSoftware,Altium Limited,Altium Designer,22.1.2 (22)*
G04*
G04 Layer_Physical_Order=2*
G04 Layer_Color=32768*
%FSLAX25Y25*%
%MOIN*%
G70*
G04*
G04 #@! TF.SameCoordinates,718D4045-E2B1-425D-88C3-508A2C93E544*
G04*
G04*
G04 #@! TF.FilePolarity,Negative*
G04*
G01*
G75*
%ADD10C,0.00500*%
%ADD11C,0.01000*%
%ADD98C,0.03000*%
%ADD102C,0.04000*%
%ADD266C,0.21710*%
%ADD267C,0.07773*%
%ADD268C,0.09100*%
%ADD269C,0.10529*%
%ADD270C,0.06120*%
%ADD271C,0.10096*%
%ADD272C,0.06356*%
%ADD273O,0.05884X0.07537*%
%ADD274C,0.06198*%
%ADD275C,0.07537*%
%ADD276C,0.16395*%
%ADD277C,0.16986*%
%ADD278C,0.04781*%
G36*
X-129365Y132485D02*
X-128469Y132114D01*
X-127663Y131575D01*
X-126977Y130890D01*
X-126439Y130084D01*
X-126068Y129188D01*
X-125879Y128237D01*
Y127753D01*
Y127268D01*
X-126068Y126317D01*
X-126439Y125422D01*
X-126977Y124616D01*
X-127663Y123930D01*
X-128469Y123392D01*
X-129365Y123021D01*
X-130315Y122831D01*
X-131285D01*
X-132236Y123021D01*
X-133131Y123392D01*
X-133937Y123930D01*
X-134623Y124616D01*
X-135161Y125422D01*
X-135532Y126317D01*
X-135721Y127268D01*
Y127753D01*
Y128237D01*
X-135532Y129188D01*
X-135161Y130084D01*
X-134623Y130890D01*
X-133937Y131575D01*
X-133131Y132114D01*
X-132236Y132485D01*
X-131285Y132674D01*
X-130315D01*
X-129365Y132485D01*
D02*
G37*
G36*
X-108449Y154850D02*
X-107257Y154357D01*
X-106184Y153640D01*
X-105272Y152728D01*
X-104555Y151655D01*
X-104061Y150463D01*
X-103809Y149198D01*
X-103809Y148553D01*
X-103809Y148553D01*
X-103800D01*
Y107452D01*
X-103793D01*
Y106807D01*
X-104044Y105541D01*
X-104538Y104349D01*
X-105255Y103276D01*
X-106167Y102364D01*
X-107240Y101647D01*
X-108432Y101154D01*
X-109698Y100902D01*
X-110988D01*
X-112253Y101154D01*
X-113445Y101647D01*
X-114518Y102364D01*
X-115430Y103276D01*
X-116147Y104349D01*
X-116641Y105541D01*
X-116893Y106807D01*
Y107452D01*
X-116900D01*
Y148552D01*
X-116909D01*
Y149197D01*
X-116657Y150462D01*
X-116164Y151654D01*
X-115447Y152727D01*
X-114534Y153639D01*
X-113462Y154356D01*
X-112270Y154850D01*
X-111004Y155102D01*
X-109714Y155102D01*
X-108449Y154850D01*
D02*
G37*
D10*
X-93700Y43400D02*
X-87755Y37455D01*
D11*
X-101700Y127600D02*
X-101600Y127700D01*
X-14800Y267200D02*
X-14000Y266400D01*
D98*
X36810Y44700D02*
X53200D01*
X-3956Y56500D02*
X1144Y61600D01*
X-44991Y56500D02*
X-3956D01*
X-10392Y188400D02*
X-1900Y179908D01*
X-35800Y81700D02*
X-33500D01*
X-8700Y114060D02*
X-1900Y107260D01*
Y81800D02*
Y107260D01*
Y135014D02*
Y179908D01*
X-8700Y114060D02*
Y128214D01*
X-1900Y135014D01*
X25300Y143200D02*
X93000D01*
X25300Y143200D02*
X25300Y143200D01*
X-69800Y188400D02*
Y233800D01*
X-64500Y239100D01*
X-14100D01*
X-101400Y126253D02*
Y170453D01*
Y97570D02*
Y127700D01*
Y170453D02*
X-83453Y188400D01*
X-101400Y97570D02*
X-93700D01*
Y43400D02*
Y97570D01*
Y43400D02*
X-76300Y26000D01*
X1144Y61600D02*
X30900D01*
X-52200Y56500D02*
X-40700D01*
X-78112Y12600D02*
X-32276D01*
X-35800Y81700D02*
Y188400D01*
X-25900Y44700D02*
X37689D01*
X-52200D02*
Y56500D01*
Y44700D02*
X-25900D01*
X53200Y34300D02*
Y44700D01*
X-17200Y11900D02*
X9300D01*
X-17200Y6000D02*
Y11900D01*
X9300D02*
X17300Y3900D01*
X93000Y143200D02*
X106300Y129900D01*
X32700Y115400D02*
X106300D01*
X25000Y123100D02*
X32700Y115400D01*
X106300D02*
Y129900D01*
X-53517Y181483D02*
Y188400D01*
X-61100Y173900D02*
X-53517Y181483D01*
X84128Y68600D02*
X98031D01*
X97930Y51800D02*
X98031Y68600D01*
X98900Y165836D02*
X99700Y165036D01*
X70408Y29993D02*
X100398Y30099D01*
X57482Y30018D02*
X77467D01*
X53200Y34300D02*
X57482Y30018D01*
X-76300Y26000D02*
X-32276D01*
X25000Y123100D02*
Y156200D01*
X33836Y165036D01*
X98900Y165836D02*
Y173800D01*
X89500Y183200D02*
X98900Y173800D01*
X76859Y195841D02*
X89500Y183200D01*
X112050Y164850D02*
X122032Y154868D01*
X76859Y195841D02*
Y207400D01*
X106300Y112200D02*
Y117855D01*
Y112200D02*
X122032D01*
X106300Y98900D02*
Y111300D01*
X98000Y98900D02*
X106300D01*
X122032Y112200D02*
Y154868D01*
X97942Y68514D02*
X98000Y68573D01*
X83200Y51800D02*
X97930D01*
X98000Y68543D02*
Y98900D01*
X-101800Y127700D02*
X-61100D01*
Y173900D01*
X-83453Y188400D02*
X-10392Y188400D01*
X71029Y81700D02*
X84128Y68600D01*
X73400Y61600D02*
X83200Y51800D01*
X30900Y61600D02*
X73400D01*
X-13500Y225100D02*
X44100D01*
X27600Y82800D02*
Y98540D01*
X12100Y114040D02*
X27600Y98540D01*
X-52200Y81700D02*
X36200D01*
X-17200Y-3391D02*
X41100D01*
X-17200D02*
Y6000D01*
X41100Y-3391D02*
Y3900D01*
X17300D02*
X41100D01*
X31500Y26100D02*
X51500D01*
Y19100D02*
Y26100D01*
X26200Y19100D02*
X51500D01*
X-1999D02*
X26200D01*
X-2300Y19401D02*
Y31200D01*
Y19401D02*
X-1999Y19100D01*
X26400Y31200D02*
X31500Y26100D01*
X-2300Y31200D02*
X26400D01*
X33836Y165036D02*
X111864D01*
X-52200Y56500D02*
Y81700D01*
X-69500Y205200D02*
X12100D01*
X44300Y207400D02*
X114756D01*
X44300D02*
Y260200D01*
X12100Y114040D02*
Y205200D01*
X-32276Y12600D02*
Y26000D01*
X36200Y81700D02*
X71029D01*
X-14000Y205200D02*
Y266400D01*
X14600Y267300D02*
X15600D01*
D102*
X3431Y267717D02*
X10285Y267380D01*
X-3431Y267717D02*
X3431D01*
X-10285Y267380D02*
X-3431Y267717D01*
X-17114Y266707D02*
X-10285Y267380D01*
X-23901Y265700D02*
X-17114Y266707D01*
X-30632Y264362D02*
X-23901Y265700D01*
X-37288Y262694D02*
X-30632Y264362D01*
X-43855Y260702D02*
X-37288Y262694D01*
X-50315Y258391D02*
X-43855Y260702D01*
X-56655Y255765D02*
X-50315Y258391D01*
X-62858Y252831D02*
X-56655Y255765D01*
X-68910Y249596D02*
X-62858Y252831D01*
X-74796Y246068D02*
X-68910Y249596D01*
X-80501Y242256D02*
X-74796Y246068D01*
X-86013Y238168D02*
X-80501Y242256D01*
X-91317Y233815D02*
X-86013Y238168D01*
X-96402Y229207D02*
X-91317Y233815D01*
X-101254Y224355D02*
X-96402Y229207D01*
X-105862Y219270D02*
X-101254Y224355D01*
X-110215Y213966D02*
X-105862Y219270D01*
X-114303Y208454D02*
X-110215Y213966D01*
X-118115Y202749D02*
X-114303Y208454D01*
X-121643Y196863D02*
X-118115Y202749D01*
X-124878Y190811D02*
X-121643Y196863D01*
X-127812Y184608D02*
X-124878Y190811D01*
X-130438Y178268D02*
X-127812Y184608D01*
X-132750Y171807D02*
X-130438Y178268D01*
X-134742Y165241D02*
X-132750Y171807D01*
X-136409Y158584D02*
X-134742Y165241D01*
X-137748Y151854D02*
X-136409Y158584D01*
X-138754Y145066D02*
X-137748Y151854D01*
X-139427Y138238D02*
X-138754Y145066D01*
X-139764Y131384D02*
X-139427Y138238D01*
X-139764Y127953D02*
Y131384D01*
Y124522D02*
Y127953D01*
Y124522D02*
X-139427Y117668D01*
X-138754Y110839D01*
X-137748Y104051D01*
X-136409Y97321D01*
X-134742Y90665D01*
X-132750Y84098D01*
X-130438Y77637D01*
X-127812Y71298D01*
X-124878Y65095D01*
X-121643Y59043D01*
X-118115Y53157D01*
X-114303Y47451D01*
X-110215Y41940D01*
X-105862Y36635D01*
X-101254Y31551D01*
X-96402Y26699D01*
X-91317Y22091D01*
X-86013Y17737D01*
X-80501Y13650D01*
X-74796Y9837D01*
X-68910Y6310D01*
X-62858Y3075D01*
X-56655Y141D01*
X-50315Y-2485D01*
X-43855Y-4797D01*
X-37288Y-6789D01*
X-30632Y-8456D01*
X-23901Y-9795D01*
X-17114Y-10802D01*
X-10285Y-11474D01*
X-3431Y-11811D01*
X3431D01*
X10285Y-11474D01*
X17114Y-10802D01*
X23901Y-9795D01*
X30632Y-8456D01*
X37288Y-6789D01*
X43855Y-4797D01*
X50315Y-2485D01*
X56655Y141D01*
X62858Y3075D01*
X68910Y6310D01*
X74796Y9837D01*
X80501Y13650D01*
X86013Y17737D01*
X91317Y22091D01*
X96402Y26699D01*
X101254Y31551D01*
X105862Y36635D01*
X110215Y41940D01*
X114303Y47451D01*
X118115Y53157D01*
X121643Y59043D01*
X124878Y65095D01*
X127812Y71298D01*
X130438Y77637D01*
X132750Y84098D01*
X134742Y90665D01*
X136409Y97321D01*
X137748Y104051D01*
X138754Y110839D01*
X139427Y117668D01*
X139764Y124522D01*
Y127953D01*
Y131384D01*
X139427Y138238D02*
X139764Y131384D01*
X138754Y145066D02*
X139427Y138238D01*
X137748Y151854D02*
X138754Y145066D01*
X136409Y158584D02*
X137748Y151854D01*
X134742Y165241D02*
X136409Y158584D01*
X132750Y171807D02*
X134742Y165241D01*
X130438Y178268D02*
X132750Y171807D01*
X127812Y184608D02*
X130438Y178268D01*
X124878Y190811D02*
X127812Y184608D01*
X121643Y196863D02*
X124878Y190811D01*
X118115Y202749D02*
X121643Y196863D01*
X114303Y208454D02*
X118115Y202749D01*
X110215Y213966D02*
X114303Y208454D01*
X105862Y219270D02*
X110215Y213966D01*
X101254Y224355D02*
X105862Y219270D01*
X96402Y229207D02*
X101254Y224355D01*
X91317Y233815D02*
X96402Y229207D01*
X86013Y238168D02*
X91317Y233815D01*
X80501Y242256D02*
X86013Y238168D01*
X74796Y246068D02*
X80501Y242256D01*
X68910Y249596D02*
X74796Y246068D01*
X62858Y252831D02*
X68910Y249596D01*
X56655Y255765D02*
X62858Y252831D01*
X50315Y258391D02*
X56655Y255765D01*
X43855Y260702D02*
X50315Y258391D01*
X37288Y262694D02*
X43855Y260702D01*
X30632Y264362D02*
X37288Y262694D01*
X23901Y265700D02*
X30632Y264362D01*
X17114Y266707D02*
X23901Y265700D01*
X10285Y267380D02*
X17114Y266707D01*
X-109714Y155102D02*
X-108449Y154850D01*
X-107257Y154357D01*
X-106184Y153640D01*
X-105272Y152728D01*
X-104555Y151655D01*
X-104061Y150463D01*
X-103809Y149198D01*
X-103809Y148553D01*
X-103809Y148553D01*
X-103800D01*
Y107452D02*
Y148553D01*
Y107452D02*
X-103793D01*
Y106807D02*
Y107452D01*
X-104044Y105541D02*
X-103793Y106807D01*
X-104538Y104349D02*
X-104044Y105541D01*
X-105255Y103276D02*
X-104538Y104349D01*
X-106167Y102364D02*
X-105255Y103276D01*
X-107240Y101647D02*
X-106167Y102364D01*
X-108432Y101154D02*
X-107240Y101647D01*
X-109698Y100902D02*
X-108432Y101154D01*
X-110988Y100902D02*
X-109698D01*
X-112253Y101154D02*
X-110988Y100902D01*
X-113445Y101647D02*
X-112253Y101154D01*
X-114518Y102364D02*
X-113445Y101647D01*
X-115430Y103276D02*
X-114518Y102364D01*
X-116147Y104349D02*
X-115430Y103276D01*
X-116641Y105541D02*
X-116147Y104349D01*
X-116893Y106807D02*
X-116641Y105541D01*
X-116893Y106807D02*
Y107452D01*
X-116900D02*
X-116893D01*
X-116900D02*
Y148552D01*
X-116909D02*
X-116900D01*
X-116909D02*
Y149197D01*
X-116657Y150462D01*
X-116164Y151654D01*
X-115447Y152727D01*
X-114534Y153639D01*
X-113462Y154356D01*
X-112270Y154850D01*
X-111004Y155102D01*
X-109714Y155102D01*
X-130315Y132674D02*
X-129365Y132485D01*
X-128469Y132114D01*
X-127663Y131575D01*
X-126977Y130890D01*
X-126439Y130084D01*
X-126068Y129188D01*
X-125879Y128237D01*
Y127753D02*
Y128237D01*
Y127268D02*
Y127753D01*
X-126068Y126317D02*
X-125879Y127268D01*
X-126439Y125422D02*
X-126068Y126317D01*
X-126977Y124616D02*
X-126439Y125422D01*
X-127663Y123930D02*
X-126977Y124616D01*
X-128469Y123392D02*
X-127663Y123930D01*
X-129365Y123021D02*
X-128469Y123392D01*
X-130315Y122831D02*
X-129365Y123021D01*
X-131285Y122831D02*
X-130315D01*
X-132236Y123021D02*
X-131285Y122831D01*
X-133131Y123392D02*
X-132236Y123021D01*
X-133937Y123930D02*
X-133131Y123392D01*
X-134623Y124616D02*
X-133937Y123930D01*
X-135161Y125422D02*
X-134623Y124616D01*
X-135532Y126317D02*
X-135161Y125422D01*
X-135721Y127268D02*
X-135532Y126317D01*
X-135721Y127268D02*
Y127753D01*
Y128237D01*
X-135532Y129188D01*
X-135161Y130084D01*
X-134623Y130890D01*
X-133937Y131575D01*
X-133131Y132114D01*
X-132236Y132485D01*
X-131285Y132674D01*
X-130315D01*
D266*
X-14200Y76789D02*
D03*
X-14700Y178694D02*
D03*
D267*
X125700Y112272D02*
D03*
Y122114D02*
D03*
Y131957D02*
D03*
Y141799D02*
D03*
D268*
X130386Y97827D02*
D03*
D269*
X117000Y103732D02*
D03*
Y119323D02*
D03*
Y150504D02*
D03*
D270*
X69071Y27871D02*
D03*
X52929Y11729D02*
D03*
D271*
X-41201Y31426D02*
D03*
X36201D02*
D03*
D272*
X-65799Y27678D02*
D03*
Y46576D02*
D03*
X-48870Y27678D02*
D03*
Y46576D02*
D03*
D273*
X-57335Y51890D02*
D03*
D274*
Y22363D02*
D03*
D275*
X-39000Y108919D02*
D03*
Y98919D02*
D03*
Y88919D02*
D03*
Y78919D02*
D03*
X-49000Y113919D02*
D03*
Y103919D02*
D03*
Y93919D02*
D03*
Y83919D02*
D03*
X-39000Y171680D02*
D03*
Y161680D02*
D03*
Y151680D02*
D03*
Y141680D02*
D03*
X-49000Y176680D02*
D03*
Y166680D02*
D03*
Y156680D02*
D03*
Y146680D02*
D03*
D276*
X-74000Y73919D02*
D03*
Y118919D02*
D03*
Y136680D02*
D03*
Y181680D02*
D03*
D277*
X0Y255906D02*
D03*
X110810Y191929D02*
D03*
X-110810D02*
D03*
Y63976D02*
D03*
X110810D02*
D03*
X0Y0D02*
D03*
D278*
X92400Y182700D02*
D03*
X95009D02*
D03*
X97618D02*
D03*
X32000Y105900D02*
D03*
X16600Y144900D02*
D03*
X14127D02*
D03*
X5500Y147700D02*
D03*
X7723Y122709D02*
D03*
Y120109D02*
D03*
X5161D02*
D03*
X14127Y139484D02*
D03*
Y142150D02*
D03*
X16600D02*
D03*
X-27808Y213695D02*
D03*
X-25316D02*
D03*
X-27808Y216387D02*
D03*
X-25316D02*
D03*
X-27808Y227171D02*
D03*
X-25316D02*
D03*
X-27808Y224479D02*
D03*
X-25316D02*
D03*
Y221787D02*
D03*
X-27808D02*
D03*
X-25316Y219095D02*
D03*
X-27808D02*
D03*
X-30300Y227171D02*
D03*
Y219072D02*
D03*
Y221772D02*
D03*
Y224471D02*
D03*
X58200Y132900D02*
D03*
X-84100Y181600D02*
D03*
X-83600Y64900D02*
D03*
X-72600Y64500D02*
D03*
X41500Y59400D02*
D03*
X37000Y38000D02*
D03*
X-37300Y57800D02*
D03*
X-7076Y46398D02*
D03*
X-94231Y218269D02*
D03*
X-65600Y104487D02*
D03*
X-40678Y55381D02*
D03*
X23700Y190489D02*
D03*
X26528D02*
D03*
Y182413D02*
D03*
Y185105D02*
D03*
Y187797D02*
D03*
X23700D02*
D03*
Y185105D02*
D03*
Y182413D02*
D03*
X-30300Y216400D02*
D03*
Y213671D02*
D03*
X50550Y116700D02*
D03*
X47800D02*
D03*
X45050D02*
D03*
X42300D02*
D03*
X30681Y114603D02*
D03*
X46100Y133800D02*
D03*
X46600Y111300D02*
D03*
X16600Y139400D02*
D03*
X5600Y131480D02*
D03*
X32281Y147700D02*
D03*
X-18501Y198428D02*
D03*
X-8600Y200200D02*
D03*
X-25400Y205500D02*
D03*
X90219Y44600D02*
D03*
X53758Y4400D02*
D03*
X22600Y-2100D02*
D03*
X-289Y229900D02*
D03*
X30800Y45000D02*
D03*
X-18880Y36820D02*
D03*
X-13200Y34365D02*
D03*
X64900Y91100D02*
D03*
X-27500Y16781D02*
D03*
X46900Y89700D02*
D03*
X-6152Y15474D02*
D03*
X78000Y179700D02*
D03*
X-99500Y203200D02*
D03*
X61271Y64174D02*
D03*
X61200Y57100D02*
D03*
X58035D02*
D03*
X21600Y37700D02*
D03*
X24300D02*
D03*
X33500Y45000D02*
D03*
X-85474Y32100D02*
D03*
X-87755Y48935D02*
D03*
X-93169Y45460D02*
D03*
X-90136Y45881D02*
D03*
X-93169Y51500D02*
D03*
X62828Y33437D02*
D03*
X57500Y32760D02*
D03*
X77500Y33900D02*
D03*
X18231Y52631D02*
D03*
X47352Y44700D02*
D03*
X59338Y20138D02*
D03*
X88444Y34600D02*
D03*
X53400Y29300D02*
D03*
X71860Y43441D02*
D03*
X45095Y36500D02*
D03*
X39671Y54091D02*
D03*
X26019Y7782D02*
D03*
X12450Y16419D02*
D03*
X54800Y64219D02*
D03*
X58035D02*
D03*
X61200Y54100D02*
D03*
X-88800Y103700D02*
D03*
X-86534Y123362D02*
D03*
X-89500Y122600D02*
D03*
X-89300Y96100D02*
D03*
X-90500Y107100D02*
D03*
X-27734Y36366D02*
D03*
X-33900Y30100D02*
D03*
X-21132Y27869D02*
D03*
X-53900Y18100D02*
D03*
X-73137Y23863D02*
D03*
X-77137Y23363D02*
D03*
X-81300Y24300D02*
D03*
X-87039Y90800D02*
D03*
X-73500Y84500D02*
D03*
X-43100Y53100D02*
D03*
X-65100Y62200D02*
D03*
X-60700Y62569D02*
D03*
X-77811Y103722D02*
D03*
X-73800Y48400D02*
D03*
X-77710Y32947D02*
D03*
X-96300Y86300D02*
D03*
X-69481Y62181D02*
D03*
X-67136Y90938D02*
D03*
X-62700Y51700D02*
D03*
X-78000Y48800D02*
D03*
X-96200Y120600D02*
D03*
X-92460Y126619D02*
D03*
X-58600Y99500D02*
D03*
X-46700Y52600D02*
D03*
X-40678Y70441D02*
D03*
X31800Y37900D02*
D03*
X30977Y27494D02*
D03*
X-85200Y46100D02*
D03*
X-72600Y44340D02*
D03*
X-93700Y33100D02*
D03*
X-87200Y132500D02*
D03*
X12623Y111800D02*
D03*
X7500D02*
D03*
X10061D02*
D03*
X7500Y114400D02*
D03*
X10061D02*
D03*
X12623D02*
D03*
X6300Y94319D02*
D03*
X9600Y100500D02*
D03*
X41081Y96500D02*
D03*
X5161Y122709D02*
D03*
X32300Y53259D02*
D03*
X57400Y54014D02*
D03*
X65319Y192100D02*
D03*
X62900D02*
D03*
X-84500Y132500D02*
D03*
X-79400Y145750D02*
D03*
X67900Y248200D02*
D03*
X62900D02*
D03*
X65400D02*
D03*
X72800Y245500D02*
D03*
Y243000D02*
D03*
X70500Y243300D02*
D03*
Y245800D02*
D03*
X69500Y227200D02*
D03*
Y229626D02*
D03*
X67000D02*
D03*
Y227200D02*
D03*
X64500Y229626D02*
D03*
Y227200D02*
D03*
X24280Y204600D02*
D03*
Y207292D02*
D03*
Y209984D02*
D03*
X-103000Y212400D02*
D03*
X-61500Y160800D02*
D03*
X67161Y79500D02*
D03*
X-42100Y48100D02*
D03*
X-46600Y22400D02*
D03*
X-49600D02*
D03*
X-82100Y148400D02*
D03*
Y143000D02*
D03*
Y145750D02*
D03*
X-79400Y148400D02*
D03*
Y157481D02*
D03*
X100300Y44800D02*
D03*
X97000Y48800D02*
D03*
X-95800Y175500D02*
D03*
X-50381Y34881D02*
D03*
X-68150Y39226D02*
D03*
Y34874D02*
D03*
X-48100Y38100D02*
D03*
X-64400Y32500D02*
D03*
X37300Y258300D02*
D03*
X87100Y230900D02*
D03*
X88900Y229100D02*
D03*
X90600Y227300D02*
D03*
X92300Y225500D02*
D03*
X94100Y223700D02*
D03*
X85300Y232700D02*
D03*
X97618Y180200D02*
D03*
X100226D02*
D03*
X92400D02*
D03*
X95009D02*
D03*
X101600Y201600D02*
D03*
X103400Y203400D02*
D03*
X105100Y205200D02*
D03*
X103100Y207000D02*
D03*
X-84200Y224240D02*
D03*
Y226780D02*
D03*
X101400Y205200D02*
D03*
X87400Y204200D02*
D03*
Y206700D02*
D03*
X84700D02*
D03*
Y204200D02*
D03*
X97786Y159400D02*
D03*
X100471D02*
D03*
X103157D02*
D03*
X77600Y96400D02*
D03*
X-42100Y242600D02*
D03*
Y240000D02*
D03*
X-63400Y94800D02*
D03*
X95100Y159400D02*
D03*
X9814Y58586D02*
D03*
X41500Y66319D02*
D03*
X58035Y66825D02*
D03*
X54800Y66800D02*
D03*
X91300Y60900D02*
D03*
X49300Y19700D02*
D03*
X32500Y15327D02*
D03*
X32600Y21100D02*
D03*
X17600Y17123D02*
D03*
X36000Y7782D02*
D03*
X42116Y19700D02*
D03*
X70200Y16500D02*
D03*
X-61700Y103400D02*
D03*
X90000Y89400D02*
D03*
X-22500Y24600D02*
D03*
X-18750D02*
D03*
X5644Y49069D02*
D03*
X10909Y46760D02*
D03*
X19500Y111622D02*
D03*
X47476Y78546D02*
D03*
X59273Y78481D02*
D03*
X-88800Y200500D02*
D03*
X-37300Y73200D02*
D03*
X-55900Y179400D02*
D03*
X-83900Y175500D02*
D03*
X34600Y86100D02*
D03*
X27300Y26700D02*
D03*
X131900Y156200D02*
D03*
X128100Y152400D02*
D03*
X135900Y140900D02*
D03*
Y129400D02*
D03*
Y117900D02*
D03*
X109500Y96000D02*
D03*
Y104300D02*
D03*
X81000Y135400D02*
D03*
X78300D02*
D03*
X7500Y24400D02*
D03*
X76300Y159400D02*
D03*
X89100Y126800D02*
D03*
X91600D02*
D03*
X103402Y126200D02*
D03*
Y128700D02*
D03*
Y131200D02*
D03*
X50000Y102000D02*
D03*
X55100Y106900D02*
D03*
X103400Y148400D02*
D03*
Y145900D02*
D03*
Y143400D02*
D03*
X80650Y110200D02*
D03*
X16400Y114603D02*
D03*
X-81472Y210737D02*
D03*
X-85900Y192100D02*
D03*
Y194802D02*
D03*
X-52500Y203400D02*
D03*
X-72469Y198781D02*
D03*
X-69600Y214697D02*
D03*
X-96000Y186800D02*
D03*
Y183850D02*
D03*
X-88500Y194802D02*
D03*
Y192100D02*
D03*
X106200Y89400D02*
D03*
X64800Y110200D02*
D03*
X45531Y224247D02*
D03*
X83300Y231100D02*
D03*
X74200Y221800D02*
D03*
X70100Y159600D02*
D03*
X92414Y159400D02*
D03*
X89728D02*
D03*
X87043D02*
D03*
X84357D02*
D03*
X81671D02*
D03*
X78986D02*
D03*
X80100Y154300D02*
D03*
Y151700D02*
D03*
X75100Y110200D02*
D03*
X62274D02*
D03*
X59773D02*
D03*
X67273D02*
D03*
X69774D02*
D03*
Y112866D02*
D03*
X67273D02*
D03*
X59773D02*
D03*
X62274D02*
D03*
X64773D02*
D03*
X-72469Y212040D02*
D03*
Y201413D02*
D03*
Y206727D02*
D03*
Y204070D02*
D03*
Y209384D02*
D03*
X-49000Y230000D02*
D03*
Y227343D02*
D03*
Y224687D02*
D03*
X-51500D02*
D03*
Y227343D02*
D03*
Y230000D02*
D03*
X-61600Y208300D02*
D03*
X-69600Y198757D02*
D03*
Y201413D02*
D03*
Y204070D02*
D03*
Y206727D02*
D03*
Y212040D02*
D03*
Y209384D02*
D03*
X-61719Y212760D02*
D03*
X64800Y203300D02*
D03*
Y200750D02*
D03*
Y198200D02*
D03*
X67500D02*
D03*
Y200750D02*
D03*
Y203300D02*
D03*
X70200Y198300D02*
D03*
Y200800D02*
D03*
Y203300D02*
D03*
X72900D02*
D03*
Y200800D02*
D03*
Y198300D02*
D03*
X92100Y222100D02*
D03*
X90300Y223900D02*
D03*
X88600Y225700D02*
D03*
X86900Y227500D02*
D03*
X85100Y229300D02*
D03*
X76000Y220000D02*
D03*
X77800Y218200D02*
D03*
X79600Y216500D02*
D03*
X81400Y214800D02*
D03*
X79600Y216500D02*
D03*
X-32000Y201937D02*
D03*
X80650Y179700D02*
D03*
X75350D02*
D03*
X67400D02*
D03*
X70050D02*
D03*
X72700D02*
D03*
X83300D02*
D03*
Y182200D02*
D03*
X72700D02*
D03*
X70050D02*
D03*
X67400D02*
D03*
X51500Y208100D02*
D03*
X99600Y203400D02*
D03*
X11862Y229900D02*
D03*
X9432D02*
D03*
X7001D02*
D03*
X4571D02*
D03*
X2141D02*
D03*
X26880Y209984D02*
D03*
Y207292D02*
D03*
Y204600D02*
D03*
X3000Y97400D02*
D03*
X12629Y169660D02*
D03*
Y172352D02*
D03*
Y175044D02*
D03*
X4116Y200324D02*
D03*
X1624D02*
D03*
X6608D02*
D03*
X4116Y203016D02*
D03*
X1624D02*
D03*
X6608D02*
D03*
Y205708D02*
D03*
X1624D02*
D03*
X4116D02*
D03*
X14292Y229900D02*
D03*
X75100Y112866D02*
D03*
X-96000Y180900D02*
D03*
X-61719Y215300D02*
D03*
X85600Y145000D02*
D03*
X75350Y182200D02*
D03*
X78000D02*
D03*
X80650D02*
D03*
X-48100Y41900D02*
D03*
X45500Y221600D02*
D03*
X38605Y215094D02*
D03*
Y210094D02*
D03*
X37100Y184500D02*
D03*
X44905Y181200D02*
D03*
X42279D02*
D03*
Y184500D02*
D03*
X39752Y181228D02*
D03*
X37100Y187800D02*
D03*
X39752Y184529D02*
D03*
X44905Y187800D02*
D03*
X37100Y181200D02*
D03*
X39652Y187829D02*
D03*
X42279Y187800D02*
D03*
X44905Y184500D02*
D03*
X24600Y87600D02*
D03*
X-29272Y201937D02*
D03*
M02*
