G04*
G04 #@! TF.GenerationSoftware,Altium Limited,Altium Designer,22.1.2 (22)*
G04*
G04 Layer_Physical_Order=3*
G04 Layer_Color=128*
%FSLAX25Y25*%
%MOIN*%
G70*
G04*
G04 #@! TF.SameCoordinates,718D4045-E2B1-425D-88C3-508A2C93E544*
G04*
G04*
G04 #@! TF.FilePolarity,Negative*
G04*
G01*
G75*
%ADD98C,0.03000*%
%ADD102C,0.04000*%
%ADD266C,0.21710*%
%ADD267C,0.07773*%
%ADD268C,0.09100*%
%ADD269C,0.10529*%
%ADD270C,0.06120*%
%ADD271C,0.10096*%
%ADD273O,0.05884X0.07537*%
%ADD274C,0.06198*%
%ADD275C,0.07537*%
%ADD276C,0.16395*%
%ADD277C,0.16986*%
%ADD278C,0.04781*%
G36*
X-129365Y132485D02*
X-128469Y132114D01*
X-127663Y131575D01*
X-126977Y130890D01*
X-126439Y130084D01*
X-126068Y129188D01*
X-125879Y128237D01*
Y127753D01*
Y127268D01*
X-126068Y126317D01*
X-126439Y125422D01*
X-126977Y124616D01*
X-127663Y123930D01*
X-128469Y123392D01*
X-129365Y123021D01*
X-130315Y122831D01*
X-131285D01*
X-132236Y123021D01*
X-133131Y123392D01*
X-133937Y123930D01*
X-134623Y124616D01*
X-135161Y125422D01*
X-135532Y126317D01*
X-135721Y127268D01*
Y127753D01*
Y128237D01*
X-135532Y129188D01*
X-135161Y130084D01*
X-134623Y130890D01*
X-133937Y131575D01*
X-133131Y132114D01*
X-132236Y132485D01*
X-131285Y132674D01*
X-130315D01*
X-129365Y132485D01*
D02*
G37*
G36*
X-108449Y154850D02*
X-107257Y154357D01*
X-106184Y153640D01*
X-105272Y152728D01*
X-104555Y151655D01*
X-104061Y150463D01*
X-103809Y149198D01*
X-103809Y148553D01*
X-103809Y148553D01*
X-103800D01*
Y107452D01*
X-103793D01*
Y106807D01*
X-104044Y105541D01*
X-104538Y104349D01*
X-105255Y103276D01*
X-106167Y102364D01*
X-107240Y101647D01*
X-108432Y101154D01*
X-109698Y100902D01*
X-110988D01*
X-112253Y101154D01*
X-113445Y101647D01*
X-114518Y102364D01*
X-115430Y103276D01*
X-116147Y104349D01*
X-116641Y105541D01*
X-116893Y106807D01*
Y107452D01*
X-116900D01*
Y148552D01*
X-116909D01*
Y149197D01*
X-116657Y150462D01*
X-116164Y151654D01*
X-115447Y152727D01*
X-114534Y153639D01*
X-113462Y154356D01*
X-112270Y154850D01*
X-111004Y155102D01*
X-109714Y155102D01*
X-108449Y154850D01*
D02*
G37*
D98*
X-96500Y47700D02*
Y84705D01*
X49100Y16600D02*
X77001D01*
X78200D01*
X96800Y35200D01*
X-43300Y208900D02*
X-23300D01*
X-12337Y198763D02*
Y208900D01*
Y230600D02*
Y245600D01*
X-55200D02*
X-12337D01*
X-55200Y230600D02*
Y245600D01*
Y230600D02*
X-23300D01*
Y208900D02*
Y230600D01*
X-12337Y208900D02*
Y230600D01*
X-43300Y198800D02*
Y208900D01*
X-29100Y191400D02*
X-12337D01*
Y198837D01*
X63900Y27900D02*
X87700Y51700D01*
X42400Y27900D02*
X63900D01*
X87700Y51700D02*
X104400D01*
X42400Y27900D02*
Y48800D01*
X-28800D02*
X42400D01*
X49100Y9400D02*
Y16600D01*
X-72900Y25300D02*
X-61800Y14200D01*
X-72900Y25300D02*
Y47700D01*
X-96500D02*
X-72900D01*
X-96500Y84705D02*
X-59800D01*
Y127400D01*
X-56200Y198800D02*
X-43300D01*
X-89500Y127400D02*
Y161000D01*
Y127400D02*
X-59800D01*
X-89500Y161000D02*
X-73800D01*
X96800Y35200D02*
X104400Y42800D01*
Y51700D01*
X-73800Y152200D02*
Y161000D01*
Y152200D02*
X-56200D01*
Y198800D01*
X-29100Y86400D02*
X-28800Y48800D01*
X-29100Y118100D02*
Y191400D01*
Y86400D02*
Y118200D01*
X11522Y9400D02*
X49100D01*
X6522Y14400D02*
X11522Y9400D01*
X-61600Y14400D02*
X6522D01*
D102*
X3431Y267717D02*
X10285Y267380D01*
X-3431Y267717D02*
X3431D01*
X-10285Y267380D02*
X-3431Y267717D01*
X-17114Y266707D02*
X-10285Y267380D01*
X-23901Y265700D02*
X-17114Y266707D01*
X-30632Y264362D02*
X-23901Y265700D01*
X-37288Y262694D02*
X-30632Y264362D01*
X-43855Y260702D02*
X-37288Y262694D01*
X-50315Y258391D02*
X-43855Y260702D01*
X-56655Y255765D02*
X-50315Y258391D01*
X-62858Y252831D02*
X-56655Y255765D01*
X-68910Y249596D02*
X-62858Y252831D01*
X-74796Y246068D02*
X-68910Y249596D01*
X-80501Y242256D02*
X-74796Y246068D01*
X-86013Y238168D02*
X-80501Y242256D01*
X-91317Y233815D02*
X-86013Y238168D01*
X-96402Y229207D02*
X-91317Y233815D01*
X-101254Y224355D02*
X-96402Y229207D01*
X-105862Y219270D02*
X-101254Y224355D01*
X-110215Y213966D02*
X-105862Y219270D01*
X-114303Y208454D02*
X-110215Y213966D01*
X-118115Y202749D02*
X-114303Y208454D01*
X-121643Y196863D02*
X-118115Y202749D01*
X-124878Y190811D02*
X-121643Y196863D01*
X-127812Y184608D02*
X-124878Y190811D01*
X-130438Y178268D02*
X-127812Y184608D01*
X-132750Y171807D02*
X-130438Y178268D01*
X-134742Y165241D02*
X-132750Y171807D01*
X-136409Y158584D02*
X-134742Y165241D01*
X-137748Y151854D02*
X-136409Y158584D01*
X-138754Y145066D02*
X-137748Y151854D01*
X-139427Y138238D02*
X-138754Y145066D01*
X-139764Y131384D02*
X-139427Y138238D01*
X-139764Y127953D02*
Y131384D01*
Y124522D02*
Y127953D01*
Y124522D02*
X-139427Y117668D01*
X-138754Y110839D01*
X-137748Y104051D01*
X-136409Y97321D01*
X-134742Y90665D01*
X-132750Y84098D01*
X-130438Y77637D01*
X-127812Y71298D01*
X-124878Y65095D01*
X-121643Y59043D01*
X-118115Y53157D01*
X-114303Y47451D01*
X-110215Y41940D01*
X-105862Y36635D01*
X-101254Y31551D01*
X-96402Y26699D01*
X-91317Y22091D01*
X-86013Y17737D01*
X-80501Y13650D01*
X-74796Y9837D01*
X-68910Y6310D01*
X-62858Y3075D01*
X-56655Y141D01*
X-50315Y-2485D01*
X-43855Y-4797D01*
X-37288Y-6789D01*
X-30632Y-8456D01*
X-23901Y-9795D01*
X-17114Y-10802D01*
X-10285Y-11474D01*
X-3431Y-11811D01*
X3431D01*
X10285Y-11474D01*
X17114Y-10802D01*
X23901Y-9795D01*
X30632Y-8456D01*
X37288Y-6789D01*
X43855Y-4797D01*
X50315Y-2485D01*
X56655Y141D01*
X62858Y3075D01*
X68910Y6310D01*
X74796Y9837D01*
X80501Y13650D01*
X86013Y17737D01*
X91317Y22091D01*
X96402Y26699D01*
X101254Y31551D01*
X105862Y36635D01*
X110215Y41940D01*
X114303Y47451D01*
X118115Y53157D01*
X121643Y59043D01*
X124878Y65095D01*
X127812Y71298D01*
X130438Y77637D01*
X132750Y84098D01*
X134742Y90665D01*
X136409Y97321D01*
X137748Y104051D01*
X138754Y110839D01*
X139427Y117668D01*
X139764Y124522D01*
Y127953D01*
Y131384D01*
X139427Y138238D02*
X139764Y131384D01*
X138754Y145066D02*
X139427Y138238D01*
X137748Y151854D02*
X138754Y145066D01*
X136409Y158584D02*
X137748Y151854D01*
X134742Y165241D02*
X136409Y158584D01*
X132750Y171807D02*
X134742Y165241D01*
X130438Y178268D02*
X132750Y171807D01*
X127812Y184608D02*
X130438Y178268D01*
X124878Y190811D02*
X127812Y184608D01*
X121643Y196863D02*
X124878Y190811D01*
X118115Y202749D02*
X121643Y196863D01*
X114303Y208454D02*
X118115Y202749D01*
X110215Y213966D02*
X114303Y208454D01*
X105862Y219270D02*
X110215Y213966D01*
X101254Y224355D02*
X105862Y219270D01*
X96402Y229207D02*
X101254Y224355D01*
X91317Y233815D02*
X96402Y229207D01*
X86013Y238168D02*
X91317Y233815D01*
X80501Y242256D02*
X86013Y238168D01*
X74796Y246068D02*
X80501Y242256D01*
X68910Y249596D02*
X74796Y246068D01*
X62858Y252831D02*
X68910Y249596D01*
X56655Y255765D02*
X62858Y252831D01*
X50315Y258391D02*
X56655Y255765D01*
X43855Y260702D02*
X50315Y258391D01*
X37288Y262694D02*
X43855Y260702D01*
X30632Y264362D02*
X37288Y262694D01*
X23901Y265700D02*
X30632Y264362D01*
X17114Y266707D02*
X23901Y265700D01*
X10285Y267380D02*
X17114Y266707D01*
X-109714Y155102D02*
X-108449Y154850D01*
X-107257Y154357D01*
X-106184Y153640D01*
X-105272Y152728D01*
X-104555Y151655D01*
X-104061Y150463D01*
X-103809Y149198D01*
X-103809Y148553D01*
X-103809Y148553D01*
X-103800D01*
Y107452D02*
Y148553D01*
Y107452D02*
X-103793D01*
Y106807D02*
Y107452D01*
X-104044Y105541D02*
X-103793Y106807D01*
X-104538Y104349D02*
X-104044Y105541D01*
X-105255Y103276D02*
X-104538Y104349D01*
X-106167Y102364D02*
X-105255Y103276D01*
X-107240Y101647D02*
X-106167Y102364D01*
X-108432Y101154D02*
X-107240Y101647D01*
X-109698Y100902D02*
X-108432Y101154D01*
X-110988Y100902D02*
X-109698D01*
X-112253Y101154D02*
X-110988Y100902D01*
X-113445Y101647D02*
X-112253Y101154D01*
X-114518Y102364D02*
X-113445Y101647D01*
X-115430Y103276D02*
X-114518Y102364D01*
X-116147Y104349D02*
X-115430Y103276D01*
X-116641Y105541D02*
X-116147Y104349D01*
X-116893Y106807D02*
X-116641Y105541D01*
X-116893Y106807D02*
Y107452D01*
X-116900D02*
X-116893D01*
X-116900D02*
Y148552D01*
X-116909D02*
X-116900D01*
X-116909D02*
Y149197D01*
X-116657Y150462D01*
X-116164Y151654D01*
X-115447Y152727D01*
X-114534Y153639D01*
X-113462Y154356D01*
X-112270Y154850D01*
X-111004Y155102D01*
X-109714Y155102D01*
X-130315Y132674D02*
X-129365Y132485D01*
X-128469Y132114D01*
X-127663Y131575D01*
X-126977Y130890D01*
X-126439Y130084D01*
X-126068Y129188D01*
X-125879Y128237D01*
Y127753D02*
Y128237D01*
Y127268D02*
Y127753D01*
X-126068Y126317D02*
X-125879Y127268D01*
X-126439Y125422D02*
X-126068Y126317D01*
X-126977Y124616D02*
X-126439Y125422D01*
X-127663Y123930D02*
X-126977Y124616D01*
X-128469Y123392D02*
X-127663Y123930D01*
X-129365Y123021D02*
X-128469Y123392D01*
X-130315Y122831D02*
X-129365Y123021D01*
X-131285Y122831D02*
X-130315D01*
X-132236Y123021D02*
X-131285Y122831D01*
X-133131Y123392D02*
X-132236Y123021D01*
X-133937Y123930D02*
X-133131Y123392D01*
X-134623Y124616D02*
X-133937Y123930D01*
X-135161Y125422D02*
X-134623Y124616D01*
X-135532Y126317D02*
X-135161Y125422D01*
X-135721Y127268D02*
X-135532Y126317D01*
X-135721Y127268D02*
Y127753D01*
Y128237D01*
X-135532Y129188D01*
X-135161Y130084D01*
X-134623Y130890D01*
X-133937Y131575D01*
X-133131Y132114D01*
X-132236Y132485D01*
X-131285Y132674D01*
X-130315D01*
D266*
X-14200Y105135D02*
D03*
X-14700Y150347D02*
D03*
D267*
X125700Y112272D02*
D03*
Y122114D02*
D03*
Y131957D02*
D03*
Y141799D02*
D03*
D268*
X130386Y97827D02*
D03*
D269*
X117000Y103732D02*
D03*
Y119323D02*
D03*
Y134913D02*
D03*
Y150504D02*
D03*
D270*
X69071Y27871D02*
D03*
X52929Y11729D02*
D03*
D271*
X-41201Y31426D02*
D03*
X36201D02*
D03*
D273*
X-57335Y51890D02*
D03*
D274*
Y22363D02*
D03*
D275*
X-39000Y108919D02*
D03*
Y98919D02*
D03*
Y88919D02*
D03*
X-49000Y113919D02*
D03*
Y103919D02*
D03*
Y93919D02*
D03*
X-39000Y171680D02*
D03*
Y161680D02*
D03*
Y151680D02*
D03*
X-49000Y176680D02*
D03*
Y166680D02*
D03*
Y156680D02*
D03*
D276*
X-74000Y73919D02*
D03*
Y118919D02*
D03*
Y136680D02*
D03*
Y181680D02*
D03*
D277*
X0Y255906D02*
D03*
X110810Y191929D02*
D03*
X-110810D02*
D03*
Y63976D02*
D03*
X110810D02*
D03*
X0Y0D02*
D03*
D278*
X92400Y182700D02*
D03*
X95009D02*
D03*
X97618D02*
D03*
X-13900Y5200D02*
D03*
X32000Y105900D02*
D03*
X16600Y144900D02*
D03*
X14127D02*
D03*
X5500Y147700D02*
D03*
X-83900Y69600D02*
D03*
X7723Y122709D02*
D03*
Y120109D02*
D03*
X5161D02*
D03*
X14127Y139484D02*
D03*
Y142150D02*
D03*
X16600D02*
D03*
X-20900Y242900D02*
D03*
X58200Y132900D02*
D03*
X-84100Y181600D02*
D03*
X75084Y55184D02*
D03*
X-37300Y57800D02*
D03*
X-7076Y46398D02*
D03*
X1400Y192300D02*
D03*
X-94231Y218269D02*
D03*
X-37175Y48100D02*
D03*
X-32400Y42500D02*
D03*
X-40678Y55381D02*
D03*
X36900Y146200D02*
D03*
X26543Y169660D02*
D03*
Y172352D02*
D03*
Y175044D02*
D03*
X20971Y169660D02*
D03*
Y172352D02*
D03*
Y175044D02*
D03*
X23772Y169660D02*
D03*
Y172352D02*
D03*
Y175044D02*
D03*
X28100Y131000D02*
D03*
X30681Y114603D02*
D03*
X46100Y133800D02*
D03*
X46600Y111300D02*
D03*
X16600Y139400D02*
D03*
X5600Y131480D02*
D03*
X32281Y147700D02*
D03*
X-18501Y198428D02*
D03*
X-8600Y200200D02*
D03*
X90219Y44600D02*
D03*
X53758Y4400D02*
D03*
X22600Y-2100D02*
D03*
X-18880Y36820D02*
D03*
X-13200Y34365D02*
D03*
X64900Y91100D02*
D03*
X53900Y54000D02*
D03*
X-27500Y16781D02*
D03*
X46900Y89700D02*
D03*
X-6152Y15474D02*
D03*
X-99500Y203200D02*
D03*
X-87755Y48935D02*
D03*
X-90136Y45881D02*
D03*
X57500Y32760D02*
D03*
X71700Y33700D02*
D03*
X77500Y33900D02*
D03*
X47352Y44700D02*
D03*
X78000Y25700D02*
D03*
X59338Y20138D02*
D03*
X71700Y36154D02*
D03*
X53400Y29300D02*
D03*
X71860Y43441D02*
D03*
X56300Y36500D02*
D03*
X39671Y54091D02*
D03*
X65600Y37319D02*
D03*
X26019Y7782D02*
D03*
X12450Y16419D02*
D03*
X87200Y76419D02*
D03*
X92200D02*
D03*
X-86534Y123362D02*
D03*
X-90500Y107100D02*
D03*
X-46700Y61200D02*
D03*
X-27734Y36366D02*
D03*
X-33900Y30100D02*
D03*
X-37000Y22626D02*
D03*
X-21132Y27869D02*
D03*
X-53900Y18100D02*
D03*
X-73137Y23863D02*
D03*
X-77137Y23363D02*
D03*
X-81300Y24300D02*
D03*
X-73500Y84500D02*
D03*
X-43100Y53100D02*
D03*
X-65100Y62200D02*
D03*
X-60700Y62569D02*
D03*
X-77811Y103722D02*
D03*
X-73800Y48400D02*
D03*
X-96300Y86300D02*
D03*
X-69481Y62181D02*
D03*
X-62700Y51700D02*
D03*
X-78000Y48800D02*
D03*
X-92460Y126619D02*
D03*
X-58600Y99500D02*
D03*
X-46700Y52600D02*
D03*
X-40678Y70441D02*
D03*
X31800Y37900D02*
D03*
X30977Y27494D02*
D03*
X-85200Y46100D02*
D03*
X-72600Y44340D02*
D03*
X-93700Y33100D02*
D03*
X6300Y94319D02*
D03*
X9600Y100500D02*
D03*
X41081Y96500D02*
D03*
X5161Y122709D02*
D03*
X57400Y54014D02*
D03*
X65319Y192100D02*
D03*
X62900D02*
D03*
X-98200Y135700D02*
D03*
Y138650D02*
D03*
X58200Y250285D02*
D03*
X55700Y240900D02*
D03*
X58200D02*
D03*
X69500Y233300D02*
D03*
Y238160D02*
D03*
Y235730D02*
D03*
X47400Y255700D02*
D03*
X52400D02*
D03*
X49900D02*
D03*
X64500Y233300D02*
D03*
X53222D02*
D03*
X67000Y235730D02*
D03*
X64500Y238160D02*
D03*
X50610Y233300D02*
D03*
X55700Y252712D02*
D03*
X67000Y238160D02*
D03*
X53222Y235726D02*
D03*
X58200Y247859D02*
D03*
X45387Y233300D02*
D03*
X55700Y250285D02*
D03*
X64500Y235730D02*
D03*
X47999Y235726D02*
D03*
X67000Y233300D02*
D03*
X45387Y235726D02*
D03*
X47999Y233300D02*
D03*
X50610Y235726D02*
D03*
X58200Y252712D02*
D03*
X55700Y247859D02*
D03*
X-73500Y167900D02*
D03*
X67161Y79500D02*
D03*
X-77303Y165240D02*
D03*
X-98200Y144550D02*
D03*
Y141600D02*
D03*
Y147500D02*
D03*
Y150450D02*
D03*
Y153400D02*
D03*
X97000Y48800D02*
D03*
X-50381Y34881D02*
D03*
X-68150Y39226D02*
D03*
Y34874D02*
D03*
X-48100Y38100D02*
D03*
X-64400Y32500D02*
D03*
X127700Y162900D02*
D03*
X96900Y191500D02*
D03*
X87100Y230900D02*
D03*
X88900Y229100D02*
D03*
X90600Y227300D02*
D03*
X92300Y225500D02*
D03*
X94100Y223700D02*
D03*
X85300Y232700D02*
D03*
X103400Y211900D02*
D03*
X101550Y213750D02*
D03*
X99700Y215600D02*
D03*
X97850Y217450D02*
D03*
X97618Y180200D02*
D03*
X100226D02*
D03*
X92400D02*
D03*
X95009D02*
D03*
X26000Y252742D02*
D03*
X23400D02*
D03*
X26000Y250312D02*
D03*
X23400D02*
D03*
X-84200Y224240D02*
D03*
Y226780D02*
D03*
X99680Y219280D02*
D03*
X101530Y217430D02*
D03*
X96900Y194000D02*
D03*
X87400Y204200D02*
D03*
Y206700D02*
D03*
X84700D02*
D03*
Y204200D02*
D03*
X97786Y159400D02*
D03*
X100471D02*
D03*
X103157D02*
D03*
X77600Y96400D02*
D03*
X95100Y159400D02*
D03*
X35600Y200D02*
D03*
X2500Y24558D02*
D03*
X9814Y58586D02*
D03*
X49300Y19700D02*
D03*
X48100Y23046D02*
D03*
X60200Y12700D02*
D03*
X17600Y17123D02*
D03*
X36000Y7782D02*
D03*
X29400D02*
D03*
X32700D02*
D03*
X42116Y19700D02*
D03*
X70200Y16500D02*
D03*
X-61700Y103400D02*
D03*
X-22500Y24600D02*
D03*
X-18750D02*
D03*
X29200Y69900D02*
D03*
X5644Y49069D02*
D03*
X10909Y46760D02*
D03*
X19500Y111622D02*
D03*
X47476Y78546D02*
D03*
X59273Y78481D02*
D03*
X91900Y55500D02*
D03*
X-88800Y200500D02*
D03*
X-37300Y73200D02*
D03*
X-39557Y235300D02*
D03*
X-36900D02*
D03*
X-59400Y183700D02*
D03*
X-55900Y179400D02*
D03*
X34600Y86100D02*
D03*
X27300Y26700D02*
D03*
X131900Y156200D02*
D03*
X109500Y96000D02*
D03*
Y104300D02*
D03*
X81000Y135400D02*
D03*
X78300D02*
D03*
X7500Y24400D02*
D03*
X76300Y159400D02*
D03*
X75666Y131633D02*
D03*
X73000D02*
D03*
X89100Y126800D02*
D03*
X91600D02*
D03*
X103402Y126200D02*
D03*
Y128700D02*
D03*
Y131200D02*
D03*
X50000Y102000D02*
D03*
X55100Y106900D02*
D03*
X103400Y148400D02*
D03*
Y145900D02*
D03*
Y143400D02*
D03*
X80650Y110200D02*
D03*
X16400Y114603D02*
D03*
X-81472Y210737D02*
D03*
X-85900Y192100D02*
D03*
Y194802D02*
D03*
X-55800Y169800D02*
D03*
X103380Y215580D02*
D03*
X105230Y213730D02*
D03*
X96900Y196500D02*
D03*
X-96000Y186800D02*
D03*
Y183850D02*
D03*
X-88500Y194802D02*
D03*
Y192100D02*
D03*
X103400Y109700D02*
D03*
Y107000D02*
D03*
Y104300D02*
D03*
X100700Y109700D02*
D03*
Y107000D02*
D03*
Y104300D02*
D03*
X94600Y73000D02*
D03*
Y75500D02*
D03*
X89700Y76419D02*
D03*
X64800Y110200D02*
D03*
X-48700Y203400D02*
D03*
Y200700D02*
D03*
X-45900D02*
D03*
Y198000D02*
D03*
Y195300D02*
D03*
Y192600D02*
D03*
X-48700D02*
D03*
Y195300D02*
D03*
Y198000D02*
D03*
X45531Y224247D02*
D03*
X120100Y168500D02*
D03*
X127500D02*
D03*
X83300Y231100D02*
D03*
X74200Y221800D02*
D03*
X70100Y159600D02*
D03*
X92414Y159400D02*
D03*
X89728D02*
D03*
X87043D02*
D03*
X84357D02*
D03*
X81671D02*
D03*
X78986D02*
D03*
X80100Y154300D02*
D03*
Y151700D02*
D03*
X75100Y110200D02*
D03*
X62274D02*
D03*
X59773D02*
D03*
X67273D02*
D03*
X69774D02*
D03*
Y112866D02*
D03*
X67273D02*
D03*
X59773D02*
D03*
X62274D02*
D03*
X64773D02*
D03*
X45387Y230800D02*
D03*
Y228300D02*
D03*
X40751Y235730D02*
D03*
X38321D02*
D03*
X35891D02*
D03*
X33461D02*
D03*
X31030D02*
D03*
X23400Y247882D02*
D03*
Y245451D02*
D03*
Y243021D02*
D03*
Y240591D02*
D03*
Y238160D02*
D03*
Y235730D02*
D03*
Y233300D02*
D03*
X-49000Y230000D02*
D03*
Y227343D02*
D03*
Y224687D02*
D03*
X-51500D02*
D03*
Y227343D02*
D03*
Y230000D02*
D03*
X-65427Y224757D02*
D03*
Y230070D02*
D03*
Y227414D02*
D03*
Y232727D02*
D03*
X-68148Y224757D02*
D03*
Y227414D02*
D03*
Y230070D02*
D03*
Y232727D02*
D03*
X-61600Y208300D02*
D03*
X64800Y203300D02*
D03*
Y200750D02*
D03*
Y198200D02*
D03*
X67500D02*
D03*
Y200750D02*
D03*
Y203300D02*
D03*
X70200Y198300D02*
D03*
Y200800D02*
D03*
Y203300D02*
D03*
X72900D02*
D03*
Y200800D02*
D03*
Y198300D02*
D03*
X92100Y222100D02*
D03*
X90300Y223900D02*
D03*
X88600Y225700D02*
D03*
X86900Y227500D02*
D03*
X85100Y229300D02*
D03*
X76000Y220000D02*
D03*
X77800Y218200D02*
D03*
X79600Y216500D02*
D03*
X81400Y214800D02*
D03*
X79600Y216500D02*
D03*
X-32000Y201937D02*
D03*
X47999Y228300D02*
D03*
Y230800D02*
D03*
X54800Y211900D02*
D03*
Y214400D02*
D03*
X57400Y211900D02*
D03*
Y214400D02*
D03*
X26000Y233300D02*
D03*
Y235730D02*
D03*
Y238160D02*
D03*
Y240591D02*
D03*
Y243021D02*
D03*
Y245451D02*
D03*
Y247882D02*
D03*
X28600D02*
D03*
Y245451D02*
D03*
Y243021D02*
D03*
Y240591D02*
D03*
Y238160D02*
D03*
Y235730D02*
D03*
X31030Y233300D02*
D03*
X28600D02*
D03*
X33461D02*
D03*
X35891D02*
D03*
X38321D02*
D03*
X40751D02*
D03*
X20700Y207000D02*
D03*
X14200Y220900D02*
D03*
X20700Y209383D02*
D03*
X3000Y97400D02*
D03*
X18200Y175044D02*
D03*
Y172352D02*
D03*
Y169660D02*
D03*
X15400Y175044D02*
D03*
Y172352D02*
D03*
Y169660D02*
D03*
X12629D02*
D03*
Y172352D02*
D03*
Y175044D02*
D03*
X4116Y200324D02*
D03*
X1624D02*
D03*
X6608D02*
D03*
X4116Y203016D02*
D03*
X1624D02*
D03*
X6608D02*
D03*
Y205708D02*
D03*
X1624D02*
D03*
X4116D02*
D03*
X6608Y208400D02*
D03*
Y214284D02*
D03*
Y211292D02*
D03*
X4116D02*
D03*
Y214284D02*
D03*
X1624Y211292D02*
D03*
Y214284D02*
D03*
X4116Y208400D02*
D03*
X48783Y168600D02*
D03*
X51392D02*
D03*
X54001Y168609D02*
D03*
X56609D02*
D03*
X51392Y175181D02*
D03*
X48783D02*
D03*
X54001D02*
D03*
X51392Y171890D02*
D03*
X48783D02*
D03*
X54001D02*
D03*
X94700Y168609D02*
D03*
X92091D02*
D03*
Y171890D02*
D03*
X94700D02*
D03*
X89482Y168600D02*
D03*
X86874D02*
D03*
X98000Y104300D02*
D03*
X95300D02*
D03*
X92600D02*
D03*
X89900D02*
D03*
X87200D02*
D03*
X84500D02*
D03*
X95300Y109700D02*
D03*
X84500Y107000D02*
D03*
X87200D02*
D03*
X89900D02*
D03*
X92600D02*
D03*
X95300D02*
D03*
X98000D02*
D03*
Y109700D02*
D03*
X75100Y112866D02*
D03*
X-96000Y180900D02*
D03*
X85600Y145000D02*
D03*
X123628Y165337D02*
D03*
X-48100Y41900D02*
D03*
X45500Y221600D02*
D03*
X38605Y210094D02*
D03*
X1624Y208400D02*
D03*
X37100Y184500D02*
D03*
X44905Y181200D02*
D03*
X42279D02*
D03*
Y184500D02*
D03*
X39752Y181228D02*
D03*
X37100Y187800D02*
D03*
X39752Y184529D02*
D03*
X44905Y187800D02*
D03*
X37100Y181200D02*
D03*
X39652Y187829D02*
D03*
X42279Y187800D02*
D03*
X44905Y184500D02*
D03*
X56609Y171890D02*
D03*
Y175181D02*
D03*
X24600Y87600D02*
D03*
X89482Y175181D02*
D03*
X86874D02*
D03*
Y171890D02*
D03*
X89482D02*
D03*
X-29272Y201937D02*
D03*
X17328Y87337D02*
D03*
M02*
