M48
;Layer_Color=9474304
;FILE_FORMAT=2:5
INCH,LZ
;TYPE=PLATED
T1F00S00C0.01181
T2F00S00C0.02756
T3F00S00C0.03937
T4F00S00C0.04173
T5F00S00C0.06929
T6F00S00C0.18110
;TYPE=NON_PLATED
T8F00S00C0.02520
T9F00S00C0.02598
T10F00S00C0.05500
T11F00S00C0.06496
T12F00S00C0.12795
T13F00S00C0.13386
%
T01
X0088444Y00346
X0090219Y00446
X01003Y00448
X0097Y00488
X00919Y00555
X00913Y00609
X00946Y0073
Y00755
X00922Y0076419
X00897
X00872
X009Y00894
X00899Y01043
X00926
X00953
X0098
X01007
X01034
Y0107
Y01097
X01007
Y0107
X0098
X00953
Y01097
X0098
X00926Y0107
X00899
X00872
Y01043
X00845
Y0107
X00891Y01268
X00916
X0103402Y01262
Y01287
Y01312
X01034Y01434
X0081Y01354
X01095Y01043
Y0096
X01062Y00894
X01359Y01179
Y01294
Y01409
X00783Y01354
X0075666Y0131633
X0073
X00582Y01329
X00461Y01338
X004505Y01167
X00478
X005055
X00423
X00466Y01113
X005Y0102
X00551Y01069
X0059773Y01102
X0062274
X00648
X0067273
X0069774
Y0112866
X0067273
X0064773
X0062274
X0059773
X00751
Y01102
X008065
X00776Y00964
X00649Y00911
X0067161Y00795
X0059273Y0078481
X0047476Y0078546
X00469Y00897
X0041081Y00965
X00346Y00861
X00246Y00876
X0017328Y0087337
X00063Y0094319
X0003Y00974
X00096Y01005
X0010061Y01118
X0012623
Y01144
X0010061
X00075
Y01118
X0007723Y0120109
X0005161
Y0122709
X0007723
X00056Y013148
X0014127Y0139484
X00166Y01394
Y014215
X0014127
X00281Y0131
X0030681Y0114603
X0032Y01059
X00195Y0111622
X00164Y0114603
X00292Y00699
X00415Y0066319
Y00594
X0039671Y0054091
X00323Y0053259
X00335Y0045
X00308
X00318Y00379
X0037Y0038
X0045095Y00365
X0047352Y00447
X00539Y0054
X00574Y0054014
X0058035Y00571
X00612
Y00541
X0061271Y0064174
X0058035Y0064219
Y0066825
X00548Y00668
Y0064219
X00563Y00365
X00575Y003276
X0062828Y0033437
X00656Y0037319
X00717Y0036154
Y00337
X00775Y00339
X0078Y00257
X00702Y00165
X00602Y00127
X0059338Y0020138
X00493Y00197
X00481Y0023046
X0042116Y00197
X00326Y00211
X00325Y0015327
X00327Y0007782
X0036
X00294
X0026019
X00226Y-00021
X00356Y00002
X0053758Y00044
X00534Y00293
X0030977Y0027494
X00273Y00267
X00243Y00377
X00216
X0018231Y0052631
X0010909Y004676
X0005644Y0049069
X0009814Y0058586
X-0007076Y0046398
X-00132Y0034365
X-001888Y003682
X-0027734Y0036366
X-00324Y00425
X-0037175Y00481
X-00421
X-00431Y00531
X-00467Y00526
Y00612
X-0040678Y0055381
X-00373Y00578
Y00732
X-0040678Y0070441
X-00607Y0062569
X-00651Y00622
X-0069481Y0062181
X-00726Y00645
X-00738Y00484
X-00726Y004434
X-006815Y0039226
Y0034874
X-00644Y00325
X-0050381Y0034881
X-00481Y00381
Y00419
X-00466Y00224
X-00496
X-00539Y00181
X-0037Y0022626
X-00339Y00301
X-0021132Y0027869
X-00225Y00246
X-001875
X-00275Y0016781
X-0006152Y0015474
X00025Y0024558
X00075Y00244
X001245Y0016419
X00176Y0017123
X-00139Y00052
X-0073137Y0023863
X-00627Y00517
X-00735Y00845
X-0067136Y0090938
X-00634Y00948
X-00586Y00995
X-00617Y01034
X-00656Y0104487
X0075084Y0055184
X007186Y0043441
X-0078Y00488
X-0087755Y0048935
X-00852Y00461
X-0090136Y0045881
X-0093169Y004546
Y00515
X-00937Y00331
X-0085474Y00321
X-007771Y0032947
X-0077137Y0023363
X-00813Y00243
X-00836Y00649
X-00839Y00696
X-0087039Y00908
X-00893Y00961
X-00888Y01037
X-00905Y01071
X-0077811Y0103722
X-0086534Y0123362
X-00895Y01226
X-009246Y0126619
X-00962Y01206
X-00982Y01357
Y013865
Y01416
X-00821Y0143
X-00845Y01325
X-00872
X-00963Y00863
X-00982Y014455
Y01475
Y015045
Y01534
X-00821Y01484
Y014575
X-00794
Y01484
Y0157481
X-0077303Y016524
X-00839Y01755
X-00841Y01816
X-00859Y01921
X-00885
Y0194802
X-00859
X-00888Y02005
X-00995Y02032
X-0103Y02124
X-0094231Y0218269
X-00842Y022424
Y022678
X-0081472Y0210737
X-0096Y01868
Y018385
Y01809
X-00958Y01755
X-00735Y01679
X-00615Y01608
X-00558Y01698
X-00559Y01794
X-00594Y01837
X-00487Y01926
Y01953
Y0198
Y02007
Y02034
X-00525
X-00459Y02007
Y0198
Y01953
Y01926
X-0032Y0201937
X-0029272
X-00254Y02055
X-0025316Y0213695
X-0027808
X-00303Y0213671
Y02164
X-0027808Y0216387
X-0025316
Y0219095
X-0027808
X-00303Y0219072
Y0221772
X-0027808Y0221787
X-0025316
Y0224479
X-0027808
X-00303Y0224471
Y0227171
X-0027808
X-0025316
X-00369Y02353
X-0039557
X-00421Y024
Y02426
X-0049Y023
X-00515
Y0227343
X-0049
Y0224687
X-00515
X-0065427Y0224757
Y0227414
Y023007
Y0232727
X-0068148
Y023007
Y0227414
Y0224757
X-00696Y0214697
Y021204
Y0209384
Y0206727
Y020407
Y0201413
Y0198757
X-0072469Y0198781
Y0201413
Y020407
Y0206727
Y0209384
Y021204
X-0061719Y021276
Y02153
X-00616Y02083
X-0018501Y0198428
X-00086Y02002
X0001624Y0200324
X0004116
X0006608
Y0203016
X0004116
X0001624
Y0205708
X0004116
X0006608
Y02084
X0004116
X0001624
Y0211292
X0004116
X0006608
Y0214284
X0004116
X0001624
X0002141Y02299
X-0000289
X0004571
X0007001
X0009432
X0011862
X0014292
X00142Y02209
X00207Y0209383
Y0207
X002428Y0207292
X002688
Y0209984
X002428
Y02046
X002688
X0026528Y0190489
Y0187797
Y0185105
Y0182413
X00237
Y0185105
Y0187797
Y0190489
X0023772Y0175044
Y0172352
Y016966
X0026543
Y0172352
Y0175044
X0020971
Y0172352
Y016966
X00182
Y0172352
Y0175044
X00154
Y0172352
Y016966
X0012629
Y0172352
Y0175044
X00014Y01923
X00371Y01878
X0039652Y0187829
X0042279Y01878
X0044905
Y01845
X0042279
X0039752Y0184529
X00371Y01845
Y01812
X0039752Y0181228
X0042279Y01812
X0044905
X0048783Y0175181
X0051392
X0054001
X0056609
Y017189
X0054001
X0051392
X0048783
Y01686
X0051392
X0054001Y0168609
X0056609
X00674Y01797
Y01822
X007005
Y01797
X00727
Y01822
X007535
Y01797
X0078
Y01822
X008065
Y01797
X0078986Y01594
X00763
X00701Y01596
X00801Y01543
Y01517
X00369Y01462
X0032281Y01477
X00166Y01449
X0014127
X00055Y01477
X0038605Y0210094
Y0215094
X00455Y02216
X0045531Y0224247
X0045387Y02283
Y02308
Y02333
Y0235726
X0047999
Y02333
Y02308
Y02283
X005061Y02333
Y0235726
X0053222
Y02333
X00557Y02409
X00582
Y0247859
Y0250285
Y0252712
X00557
Y0250285
Y0247859
X00629Y02482
X00654
X00679
X00705Y02458
Y02433
X00728Y0243
Y02455
X00695Y023816
Y023573
Y02333
X0067
Y023573
Y023816
X00645
Y023573
Y02333
Y0229626
Y02272
X0067
Y0229626
X00695
Y02272
X00742Y02218
X0076Y022
X00778Y02182
X00796Y02165
X00729Y02033
Y02008
Y01983
X00702
Y02008
Y02033
X00675
Y020075
Y01982
X00648
Y020075
Y02033
X0065319Y01921
X00629
X00574Y02119
Y02144
X00548
Y02119
X00515Y02081
X0040751Y02333
Y023573
X0038321
X0035891
X0033461
X003103
X00286
Y023816
Y0240591
Y0243021
Y0245451
Y0247882
X0026
Y0250312
Y0252742
X00234
Y0250312
Y0247882
Y0245451
Y0243021
Y0240591
Y023816
Y023573
Y02333
X0026
Y023573
Y023816
Y0240591
Y0243021
Y0245451
X00286Y02333
X003103
X0033461
X0035891
X0038321
X00373Y02583
X00474Y02557
X00499
X00524
X-00209Y02429
X00833Y02311
X00853Y02327
X00871Y02309
X00889Y02291
X00906Y02273
X00923Y02255
X00941Y02237
X00921Y02221
X00903Y02239
X00886Y02257
X00869Y02275
X00851Y02293
X00814Y02148
X00847Y02067
Y02042
X00874
Y02067
X01014Y02052
X01031Y0207
X01051Y02052
X01034Y02034
X01016Y02016
X00996Y02034
X00969Y01965
Y0194
Y01915
X0097618Y01827
Y01802
X0100226
X0095009
Y01827
X00924
Y01802
X0089482Y0175181
X0086874
Y017189
X0089482
X0092091
X00947
Y0168609
X0092091
X0089482Y01686
X0086874
X0087043Y01594
X0089728
X0092414
X00951
X0097786
X0100471
X0103157
X01034Y01484
Y01459
X00856Y0145
X0084357Y01594
X0081671
X00833Y01797
Y01822
X01034Y02119
X010523Y021373
X010155Y021375
X010338Y021558
X00997Y02156
X010153Y021743
X009785Y021745
X009968Y021928
X01201Y01685
X0123628Y0165337
X01277Y01629
X01275Y01685
X01319Y01562
X01281Y01524
T02
X-0065799Y0027678
X-004887
Y0046576
X-0065799
T03
X-0049Y0083919
Y0093919
Y0103919
Y0113919
X-0039Y0108919
Y0098919
Y0088919
Y0078919
Y014168
Y015168
Y016168
Y017168
X-0049Y017668
Y016668
Y015668
Y014668
T04
X01257Y0112272
Y0122114
Y0131957
Y0141799
T05
X0117Y0103732
Y0119323
Y0134913
Y0150504
T06
X-00142Y0076789
Y0105135
X-00147Y0150347
Y0178694
T08
X0052929Y0011729
X0069071Y0027871
T09
X-0057335Y0022363
T10
X0130386Y0097827
T11
X-0041201Y0031426
X0036201
T12
X-0074Y0073919
Y0118919
Y013668
Y018168
T13
X011081Y0063976
X0Y0
X-011081Y0063976
Y0191929
X0Y0255906
X011081Y0191929
M30
