G04*
G04 #@! TF.GenerationSoftware,Altium Limited,Altium Designer,22.1.2 (22)*
G04*
G04 Layer_Color=128*
%FSLAX25Y25*%
%MOIN*%
G70*
G04*
G04 #@! TF.SameCoordinates,718D4045-E2B1-425D-88C3-508A2C93E544*
G04*
G04*
G04 #@! TF.FilePolarity,Positive*
G04*
G01*
G75*
%ADD572C,0.00200*%
D572*
X-23255Y76789D02*
X-5145D01*
X-14200Y67734D02*
Y85844D01*
X-23255Y105135D02*
X-5145D01*
X-14200Y96080D02*
Y114191D01*
X-23755Y178694D02*
X-5645D01*
X-14700Y169639D02*
Y187749D01*
X-23755Y150347D02*
X-5645D01*
X-14700Y141292D02*
Y159402D01*
X123613Y112272D02*
X127787D01*
X125700Y110185D02*
Y114358D01*
X123613Y122114D02*
X127787D01*
X125700Y120028D02*
Y124201D01*
X123613Y131957D02*
X127787D01*
X125700Y129870D02*
Y134043D01*
X123613Y141799D02*
X127787D01*
X125700Y139713D02*
Y143886D01*
X127636Y97827D02*
X133136D01*
X130386Y95077D02*
Y100577D01*
X113535Y103732D02*
X120465D01*
X117000Y100268D02*
Y107197D01*
X113535Y119323D02*
X120465D01*
X117000Y115858D02*
Y122787D01*
X113535Y134913D02*
X120465D01*
X117000Y131449D02*
Y138378D01*
X113535Y150504D02*
X120465D01*
X117000Y147039D02*
Y153969D01*
X67811Y27871D02*
X70331D01*
X69071Y26611D02*
Y29131D01*
X51669Y11729D02*
X54189D01*
X52929Y10469D02*
Y12989D01*
X-44449Y31426D02*
X-37953D01*
X-41201Y28178D02*
Y34674D01*
X32953Y31426D02*
X39449D01*
X36201Y28178D02*
Y34674D01*
X-67177Y27678D02*
X-64421D01*
X-65799Y26300D02*
Y29056D01*
X-58476Y51890D02*
X-56193D01*
X-57335Y50749D02*
Y53032D01*
X-58634Y22363D02*
X-56035D01*
X-57335Y21064D02*
Y23662D01*
X-67177Y46576D02*
X-64421D01*
X-65799Y45198D02*
Y47954D01*
X-50248Y27678D02*
X-47492D01*
X-48870Y26300D02*
Y29056D01*
X-50248Y46576D02*
X-47492D01*
X-48870Y45198D02*
Y47954D01*
X-40968Y108919D02*
X-37031D01*
X-39000Y106950D02*
Y110887D01*
X-40968Y98919D02*
X-37031D01*
X-39000Y96950D02*
Y100887D01*
X-40968Y88919D02*
X-37031D01*
X-39000Y86950D02*
Y90887D01*
X-40968Y78919D02*
X-37031D01*
X-39000Y76950D02*
Y80887D01*
X-50968Y113919D02*
X-47032D01*
X-49000Y111950D02*
Y115887D01*
X-50968Y103919D02*
X-47032D01*
X-49000Y101950D02*
Y105887D01*
X-50968Y93919D02*
X-47032D01*
X-49000Y91950D02*
Y95887D01*
X-50968Y83919D02*
X-47032D01*
X-49000Y81950D02*
Y85887D01*
X-80398Y73919D02*
X-67602D01*
X-74000Y67521D02*
Y80317D01*
X-80398Y118919D02*
X-67602D01*
X-74000Y112521D02*
Y125317D01*
X-40968Y171680D02*
X-37031D01*
X-39000Y169712D02*
Y173649D01*
X-40968Y161680D02*
X-37031D01*
X-39000Y159712D02*
Y163649D01*
X-40968Y151680D02*
X-37031D01*
X-39000Y149712D02*
Y153649D01*
X-40968Y141680D02*
X-37031D01*
X-39000Y139712D02*
Y143649D01*
X-50968Y176680D02*
X-47032D01*
X-49000Y174712D02*
Y178649D01*
X-50968Y166680D02*
X-47032D01*
X-49000Y164712D02*
Y168649D01*
X-50968Y156680D02*
X-47032D01*
X-49000Y154712D02*
Y158649D01*
X-50968Y146680D02*
X-47032D01*
X-49000Y144712D02*
Y148649D01*
X-80398Y136680D02*
X-67602D01*
X-74000Y130283D02*
Y143078D01*
X-80398Y181680D02*
X-67602D01*
X-74000Y175283D02*
Y188078D01*
X-6693Y255906D02*
X6693D01*
X0Y249213D02*
Y262598D01*
X104117Y191929D02*
X117503D01*
X110810Y185236D02*
Y198622D01*
X-117503Y191929D02*
X-104117D01*
X-110810Y185236D02*
Y198622D01*
X-117503Y63976D02*
X-104117D01*
X-110810Y57284D02*
Y70669D01*
X104117Y63976D02*
X117503D01*
X110810Y57284D02*
Y70669D01*
X-6693Y0D02*
X6693D01*
X0Y-6693D02*
Y6693D01*
X91809Y182700D02*
X92990D01*
X92400Y182109D02*
Y183291D01*
X94418Y182700D02*
X95599D01*
X95009Y182109D02*
Y183291D01*
X97027Y182700D02*
X98208D01*
X97618Y182109D02*
Y183291D01*
X-14491Y5200D02*
X-13309D01*
X-13900Y4609D02*
Y5791D01*
X31409Y105900D02*
X32591D01*
X32000Y105309D02*
Y106491D01*
X16010Y144900D02*
X17190D01*
X16600Y144309D02*
Y145491D01*
X13536Y144900D02*
X14717D01*
X14127Y144309D02*
Y145491D01*
X4909Y147700D02*
X6091D01*
X5500Y147109D02*
Y148291D01*
X-84491Y69600D02*
X-83310D01*
X-83900Y69010D02*
Y70191D01*
X7132Y122709D02*
X8313D01*
X7723Y122118D02*
Y123299D01*
X7132Y120109D02*
X8313D01*
X7723Y119518D02*
Y120699D01*
X4571Y120109D02*
X5752D01*
X5161Y119518D02*
Y120699D01*
X13536Y139484D02*
X14717D01*
X14127Y138894D02*
Y140075D01*
X13536Y142150D02*
X14717D01*
X14127Y141559D02*
Y142741D01*
X16010Y142150D02*
X17190D01*
X16600Y141559D02*
Y142741D01*
X-21490Y242900D02*
X-20310D01*
X-20900Y242309D02*
Y243491D01*
X-28398Y213695D02*
X-27217D01*
X-27808Y213105D02*
Y214286D01*
X-25906Y213695D02*
X-24725D01*
X-25316Y213105D02*
Y214286D01*
X-28398Y216387D02*
X-27217D01*
X-27808Y215797D02*
Y216978D01*
X-25906Y216387D02*
X-24725D01*
X-25316Y215797D02*
Y216978D01*
X-28398Y227171D02*
X-27217D01*
X-27808Y226581D02*
Y227762D01*
X-25906Y227171D02*
X-24725D01*
X-25316Y226581D02*
Y227762D01*
X-28398Y224479D02*
X-27217D01*
X-27808Y223889D02*
Y225070D01*
X-25906Y224479D02*
X-24725D01*
X-25316Y223889D02*
Y225070D01*
X-25906Y221787D02*
X-24725D01*
X-25316Y221197D02*
Y222378D01*
X-28398Y221787D02*
X-27217D01*
X-27808Y221197D02*
Y222378D01*
X-25906Y219095D02*
X-24725D01*
X-25316Y218505D02*
Y219686D01*
X-28398Y219095D02*
X-27217D01*
X-27808Y218505D02*
Y219686D01*
X-30891Y227171D02*
X-29709D01*
X-30300Y226581D02*
Y227762D01*
X-30891Y219072D02*
X-29709D01*
X-30300Y218481D02*
Y219662D01*
X-30891Y221772D02*
X-29709D01*
X-30300Y221181D02*
Y222362D01*
X-30891Y224471D02*
X-29709D01*
X-30300Y223881D02*
Y225062D01*
X57609Y132900D02*
X58790D01*
X58200Y132309D02*
Y133491D01*
X-84690Y181600D02*
X-83509D01*
X-84100Y181009D02*
Y182191D01*
X-84190Y64900D02*
X-83009D01*
X-83600Y64310D02*
Y65491D01*
X-73190Y64500D02*
X-72009D01*
X-72600Y63910D02*
Y65091D01*
X40909Y59400D02*
X42091D01*
X41500Y58810D02*
Y59991D01*
X74493Y55184D02*
X75674D01*
X75084Y54593D02*
Y55774D01*
X36409Y38000D02*
X37591D01*
X37000Y37409D02*
Y38591D01*
X-37891Y57800D02*
X-36709D01*
X-37300Y57209D02*
Y58390D01*
X-7666Y46398D02*
X-6485D01*
X-7076Y45808D02*
Y46989D01*
X809Y192300D02*
X1991D01*
X1400Y191709D02*
Y192891D01*
X-94821Y218269D02*
X-93640D01*
X-94231Y217679D02*
Y218860D01*
X-66190Y104487D02*
X-65009D01*
X-65600Y103897D02*
Y105078D01*
X-37765Y48100D02*
X-36584D01*
X-37175Y47509D02*
Y48691D01*
X-32991Y42500D02*
X-31809D01*
X-32400Y41909D02*
Y43091D01*
X-41269Y55381D02*
X-40088D01*
X-40678Y54791D02*
Y55972D01*
X23110Y190489D02*
X24291D01*
X23700Y189899D02*
Y191080D01*
X25938Y190489D02*
X27119D01*
X26528Y189899D02*
Y191080D01*
X36309Y146200D02*
X37491D01*
X36900Y145609D02*
Y146791D01*
X25952Y169660D02*
X27134D01*
X26543Y169070D02*
Y170251D01*
X25952Y172352D02*
X27134D01*
X26543Y171762D02*
Y172943D01*
X25952Y175044D02*
X27134D01*
X26543Y174454D02*
Y175635D01*
X20381Y169660D02*
X21562D01*
X20971Y169070D02*
Y170251D01*
X20381Y172352D02*
X21562D01*
X20971Y171762D02*
Y172943D01*
X20381Y175044D02*
X21562D01*
X20971Y174454D02*
Y175635D01*
X23181Y169660D02*
X24362D01*
X23772Y169070D02*
Y170251D01*
X23181Y172352D02*
X24362D01*
X23772Y171762D02*
Y172943D01*
X23181Y175044D02*
X24362D01*
X23772Y174454D02*
Y175635D01*
X25938Y182413D02*
X27119D01*
X26528Y181822D02*
Y183003D01*
X25938Y185105D02*
X27119D01*
X26528Y184514D02*
Y185695D01*
X25938Y187797D02*
X27119D01*
X26528Y187206D02*
Y188388D01*
X23110Y187797D02*
X24291D01*
X23700Y187206D02*
Y188388D01*
X23110Y185105D02*
X24291D01*
X23700Y184514D02*
Y185695D01*
X23110Y182413D02*
X24291D01*
X23700Y181822D02*
Y183003D01*
X-30891Y216400D02*
X-29709D01*
X-30300Y215809D02*
Y216990D01*
X-30891Y213671D02*
X-29709D01*
X-30300Y213081D02*
Y214262D01*
X49959Y116700D02*
X51141D01*
X50550Y116109D02*
Y117291D01*
X47209Y116700D02*
X48391D01*
X47800Y116109D02*
Y117291D01*
X44459Y116700D02*
X45641D01*
X45050Y116109D02*
Y117291D01*
X41709Y116700D02*
X42891D01*
X42300Y116109D02*
Y117291D01*
X27509Y131000D02*
X28691D01*
X28100Y130409D02*
Y131591D01*
X30091Y114603D02*
X31272D01*
X30681Y114012D02*
Y115194D01*
X45509Y133800D02*
X46691D01*
X46100Y133209D02*
Y134391D01*
X46009Y111300D02*
X47191D01*
X46600Y110709D02*
Y111891D01*
X16010Y139400D02*
X17190D01*
X16600Y138809D02*
Y139991D01*
X5009Y131480D02*
X6191D01*
X5600Y130889D02*
Y132070D01*
X31691Y147700D02*
X32872D01*
X32281Y147109D02*
Y148291D01*
X-19092Y198428D02*
X-17910D01*
X-18501Y197837D02*
Y199018D01*
X-9191Y200200D02*
X-8009D01*
X-8600Y199609D02*
Y200791D01*
X-25991Y205500D02*
X-24810D01*
X-25400Y204909D02*
Y206090D01*
X89628Y44600D02*
X90810D01*
X90219Y44009D02*
Y45191D01*
X53167Y4400D02*
X54349D01*
X53758Y3809D02*
Y4991D01*
X22009Y-2100D02*
X23190D01*
X22600Y-2691D02*
Y-1510D01*
X-880Y229900D02*
X301D01*
X-289Y229310D02*
Y230490D01*
X30209Y45000D02*
X31391D01*
X30800Y44409D02*
Y45591D01*
X-19471Y36820D02*
X-18290D01*
X-18880Y36229D02*
Y37410D01*
X-13791Y34365D02*
X-12609D01*
X-13200Y33775D02*
Y34956D01*
X64310Y91100D02*
X65491D01*
X64900Y90509D02*
Y91690D01*
X53310Y54000D02*
X54491D01*
X53900Y53409D02*
Y54590D01*
X-28091Y16781D02*
X-26909D01*
X-27500Y16191D02*
Y17372D01*
X46309Y89700D02*
X47491D01*
X46900Y89109D02*
Y90290D01*
X-6743Y15474D02*
X-5562D01*
X-6152Y14883D02*
Y16064D01*
X77409Y179700D02*
X78591D01*
X78000Y179109D02*
Y180291D01*
X-100091Y203200D02*
X-98909D01*
X-99500Y202609D02*
Y203791D01*
X60681Y64174D02*
X61862D01*
X61271Y63583D02*
Y64764D01*
X60610Y57100D02*
X61791D01*
X61200Y56510D02*
Y57691D01*
X57445Y57100D02*
X58626D01*
X58035Y56510D02*
Y57691D01*
X21010Y37700D02*
X22190D01*
X21600Y37109D02*
Y38291D01*
X23709Y37700D02*
X24891D01*
X24300Y37109D02*
Y38291D01*
X32909Y45000D02*
X34091D01*
X33500Y44409D02*
Y45591D01*
X-86064Y32100D02*
X-84883D01*
X-85474Y31509D02*
Y32691D01*
X-88345Y48935D02*
X-87164D01*
X-87755Y48344D02*
Y49525D01*
X-93760Y45460D02*
X-92578D01*
X-93169Y44870D02*
Y46051D01*
X-90726Y45881D02*
X-89545D01*
X-90136Y45291D02*
Y46472D01*
X-93760Y51500D02*
X-92578D01*
X-93169Y50909D02*
Y52091D01*
X62238Y33437D02*
X63419D01*
X62828Y32847D02*
Y34028D01*
X56910Y32760D02*
X58091D01*
X57500Y32169D02*
Y33350D01*
X71109Y33700D02*
X72290D01*
X71700Y33109D02*
Y34291D01*
X76910Y33900D02*
X78091D01*
X77500Y33309D02*
Y34491D01*
X17640Y52631D02*
X18822D01*
X18231Y52040D02*
Y53222D01*
X46761Y44700D02*
X47942D01*
X47352Y44109D02*
Y45291D01*
X77409Y25700D02*
X78591D01*
X78000Y25109D02*
Y26291D01*
X58747Y20138D02*
X59928D01*
X59338Y19547D02*
Y20728D01*
X71109Y36154D02*
X72290D01*
X71700Y35564D02*
Y36745D01*
X87853Y34600D02*
X89035D01*
X88444Y34009D02*
Y35191D01*
X52810Y29300D02*
X53991D01*
X53400Y28709D02*
Y29891D01*
X71269Y43441D02*
X72450D01*
X71860Y42850D02*
Y44032D01*
X55709Y36500D02*
X56890D01*
X56300Y35909D02*
Y37091D01*
X44505Y36500D02*
X45686D01*
X45095Y35909D02*
Y37091D01*
X39081Y54091D02*
X40262D01*
X39671Y53501D02*
Y54682D01*
X65009Y37319D02*
X66190D01*
X65600Y36728D02*
Y37909D01*
X25428Y7782D02*
X26609D01*
X26019Y7191D02*
Y8372D01*
X11859Y16419D02*
X13040D01*
X12450Y15828D02*
Y17009D01*
X86610Y76419D02*
X87791D01*
X87200Y75828D02*
Y77009D01*
X91610Y76419D02*
X92791D01*
X92200Y75828D02*
Y77009D01*
X54210Y64219D02*
X55391D01*
X54800Y63629D02*
Y64810D01*
X57445Y64219D02*
X58626D01*
X58035Y63629D02*
Y64810D01*
X60610Y54100D02*
X61791D01*
X61200Y53509D02*
Y54690D01*
X-89390Y103700D02*
X-88209D01*
X-88800Y103109D02*
Y104291D01*
X-87125Y123362D02*
X-85944D01*
X-86534Y122771D02*
Y123952D01*
X-90091Y122600D02*
X-88910D01*
X-89500Y122009D02*
Y123190D01*
X-89890Y96100D02*
X-88709D01*
X-89300Y95509D02*
Y96690D01*
X-91091Y107100D02*
X-89909D01*
X-90500Y106509D02*
Y107691D01*
X-47291Y61200D02*
X-46109D01*
X-46700Y60610D02*
Y61791D01*
X-28324Y36366D02*
X-27143D01*
X-27734Y35776D02*
Y36957D01*
X-34491Y30100D02*
X-33309D01*
X-33900Y29509D02*
Y30691D01*
X-37591Y22626D02*
X-36409D01*
X-37000Y22035D02*
Y23216D01*
X-21722Y27869D02*
X-20541D01*
X-21132Y27278D02*
Y28459D01*
X-54491Y18100D02*
X-53310D01*
X-53900Y17510D02*
Y18690D01*
X-73728Y23863D02*
X-72547D01*
X-73137Y23272D02*
Y24453D01*
X-77728Y23363D02*
X-76547D01*
X-77137Y22772D02*
Y23954D01*
X-81890Y24300D02*
X-80709D01*
X-81300Y23709D02*
Y24891D01*
X-87630Y90800D02*
X-86449D01*
X-87039Y90210D02*
Y91391D01*
X-74090Y84500D02*
X-72909D01*
X-73500Y83909D02*
Y85091D01*
X-43691Y53100D02*
X-42509D01*
X-43100Y52509D02*
Y53690D01*
X-65690Y62200D02*
X-64509D01*
X-65100Y61610D02*
Y62791D01*
X-61291Y62569D02*
X-60110D01*
X-60700Y61978D02*
Y63160D01*
X-78402Y103722D02*
X-77221D01*
X-77811Y103131D02*
Y104312D01*
X-74391Y48400D02*
X-73210D01*
X-73800Y47809D02*
Y48991D01*
X-78300Y32947D02*
X-77119D01*
X-77710Y32356D02*
Y33537D01*
X-96890Y86300D02*
X-95710D01*
X-96300Y85710D02*
Y86891D01*
X-70072Y62181D02*
X-68891D01*
X-69481Y61590D02*
Y62772D01*
X-67726Y90938D02*
X-66545D01*
X-67136Y90347D02*
Y91528D01*
X-63291Y51700D02*
X-62110D01*
X-62700Y51109D02*
Y52290D01*
X-78591Y48800D02*
X-77409D01*
X-78000Y48209D02*
Y49391D01*
X-96790Y120600D02*
X-95609D01*
X-96200Y120009D02*
Y121191D01*
X-93050Y126619D02*
X-91869D01*
X-92460Y126028D02*
Y127209D01*
X-59190Y99500D02*
X-58009D01*
X-58600Y98909D02*
Y100091D01*
X-47291Y52600D02*
X-46109D01*
X-46700Y52009D02*
Y53190D01*
X-41269Y70441D02*
X-40088D01*
X-40678Y69850D02*
Y71031D01*
X31209Y37900D02*
X32391D01*
X31800Y37309D02*
Y38491D01*
X30386Y27494D02*
X31567D01*
X30977Y26903D02*
Y28084D01*
X-85790Y46100D02*
X-84610D01*
X-85200Y45509D02*
Y46691D01*
X-73190Y44340D02*
X-72009D01*
X-72600Y43750D02*
Y44931D01*
X-94291Y33100D02*
X-93110D01*
X-93700Y32509D02*
Y33691D01*
X-87791Y132500D02*
X-86610D01*
X-87200Y131909D02*
Y133091D01*
X12032Y111800D02*
X13213D01*
X12623Y111209D02*
Y112391D01*
X6909Y111800D02*
X8091D01*
X7500Y111209D02*
Y112391D01*
X9471Y111800D02*
X10652D01*
X10061Y111209D02*
Y112391D01*
X6909Y114400D02*
X8091D01*
X7500Y113809D02*
Y114991D01*
X9471Y114400D02*
X10652D01*
X10061Y113809D02*
Y114991D01*
X12032Y114400D02*
X13213D01*
X12623Y113809D02*
Y114991D01*
X5709Y94319D02*
X6891D01*
X6300Y93728D02*
Y94909D01*
X9009Y100500D02*
X10191D01*
X9600Y99910D02*
Y101091D01*
X40491Y96500D02*
X41672D01*
X41081Y95910D02*
Y97091D01*
X4571Y122709D02*
X5752D01*
X5161Y122118D02*
Y123299D01*
X31709Y53259D02*
X32891D01*
X32300Y52669D02*
Y53850D01*
X56810Y54014D02*
X57990D01*
X57400Y53423D02*
Y54604D01*
X64728Y192100D02*
X65909D01*
X65319Y191509D02*
Y192691D01*
X62309Y192100D02*
X63490D01*
X62900Y191509D02*
Y192691D01*
X-85091Y132500D02*
X-83909D01*
X-84500Y131909D02*
Y133091D01*
X-79991Y145750D02*
X-78809D01*
X-79400Y145159D02*
Y146341D01*
X-98791Y135700D02*
X-97610D01*
X-98200Y135109D02*
Y136291D01*
X-98791Y138650D02*
X-97610D01*
X-98200Y138059D02*
Y139241D01*
X57609Y250285D02*
X58790D01*
X58200Y249695D02*
Y250876D01*
X67309Y248200D02*
X68490D01*
X67900Y247609D02*
Y248791D01*
X62309Y248200D02*
X63490D01*
X62900Y247609D02*
Y248791D01*
X64810Y248200D02*
X65991D01*
X65400Y247609D02*
Y248791D01*
X72210Y245500D02*
X73391D01*
X72800Y244910D02*
Y246091D01*
X72210Y243000D02*
X73391D01*
X72800Y242409D02*
Y243590D01*
X69910Y243300D02*
X71091D01*
X70500Y242709D02*
Y243891D01*
X69910Y245800D02*
X71091D01*
X70500Y245210D02*
Y246391D01*
X55110Y240900D02*
X56291D01*
X55700Y240310D02*
Y241491D01*
X57609Y240900D02*
X58790D01*
X58200Y240310D02*
Y241491D01*
X68910Y227200D02*
X70091D01*
X69500Y226609D02*
Y227790D01*
X68910Y229626D02*
X70091D01*
X69500Y229036D02*
Y230217D01*
X68910Y233300D02*
X70091D01*
X69500Y232710D02*
Y233891D01*
X68910Y238160D02*
X70091D01*
X69500Y237570D02*
Y238751D01*
X68910Y235730D02*
X70091D01*
X69500Y235140D02*
Y236321D01*
X46809Y255700D02*
X47991D01*
X47400Y255110D02*
Y256291D01*
X51810Y255700D02*
X52991D01*
X52400Y255110D02*
Y256291D01*
X49309Y255700D02*
X50491D01*
X49900Y255110D02*
Y256291D01*
X63910Y233300D02*
X65091D01*
X64500Y232710D02*
Y233891D01*
X52631Y233300D02*
X53812D01*
X53222Y232710D02*
Y233891D01*
X66409Y235730D02*
X67590D01*
X67000Y235140D02*
Y236321D01*
X63910Y238160D02*
X65091D01*
X64500Y237570D02*
Y238751D01*
X50020Y233300D02*
X51201D01*
X50610Y232710D02*
Y233891D01*
X55110Y252712D02*
X56291D01*
X55700Y252121D02*
Y253302D01*
X66409Y238160D02*
X67590D01*
X67000Y237570D02*
Y238751D01*
X52631Y235726D02*
X53812D01*
X53222Y235136D02*
Y236317D01*
X57609Y247859D02*
X58790D01*
X58200Y247268D02*
Y248449D01*
X44797Y233300D02*
X45978D01*
X45387Y232710D02*
Y233891D01*
X55110Y250285D02*
X56291D01*
X55700Y249695D02*
Y250876D01*
X63910Y235730D02*
X65091D01*
X64500Y235140D02*
Y236321D01*
X47408Y235726D02*
X48589D01*
X47999Y235136D02*
Y236317D01*
X66409Y233300D02*
X67590D01*
X67000Y232710D02*
Y233891D01*
X44797Y235726D02*
X45978D01*
X45387Y235136D02*
Y236317D01*
X47408Y233300D02*
X48589D01*
X47999Y232710D02*
Y233891D01*
X50020Y235726D02*
X51201D01*
X50610Y235136D02*
Y236317D01*
X57609Y252712D02*
X58790D01*
X58200Y252121D02*
Y253302D01*
X55110Y247859D02*
X56291D01*
X55700Y247268D02*
Y248449D01*
X-74090Y167900D02*
X-72909D01*
X-73500Y167309D02*
Y168491D01*
X66409Y229626D02*
X67590D01*
X67000Y229036D02*
Y230217D01*
X66409Y227200D02*
X67590D01*
X67000Y226609D02*
Y227790D01*
X63910Y229626D02*
X65091D01*
X64500Y229036D02*
Y230217D01*
X63910Y227200D02*
X65091D01*
X64500Y226609D02*
Y227790D01*
X23690Y204600D02*
X24871D01*
X24280Y204009D02*
Y205190D01*
X23690Y207292D02*
X24871D01*
X24280Y206702D02*
Y207883D01*
X23690Y209984D02*
X24871D01*
X24280Y209394D02*
Y210575D01*
X-103591Y212400D02*
X-102409D01*
X-103000Y211809D02*
Y212990D01*
X-62090Y160800D02*
X-60909D01*
X-61500Y160209D02*
Y161391D01*
X66570Y79500D02*
X67751D01*
X67161Y78909D02*
Y80090D01*
X-42691Y48100D02*
X-41509D01*
X-42100Y47509D02*
Y48691D01*
X-47191Y22400D02*
X-46009D01*
X-46600Y21810D02*
Y22990D01*
X-50191Y22400D02*
X-49009D01*
X-49600Y21810D02*
Y22990D01*
X-82691Y148400D02*
X-81510D01*
X-82100Y147809D02*
Y148991D01*
X-82691Y143000D02*
X-81510D01*
X-82100Y142409D02*
Y143591D01*
X-82691Y145750D02*
X-81510D01*
X-82100Y145159D02*
Y146341D01*
X-79991Y148400D02*
X-78809D01*
X-79400Y147809D02*
Y148991D01*
X-79991Y157481D02*
X-78809D01*
X-79400Y156891D02*
Y158072D01*
X-77894Y165240D02*
X-76713D01*
X-77303Y164650D02*
Y165831D01*
X-98791Y144550D02*
X-97610D01*
X-98200Y143959D02*
Y145141D01*
X-98791Y141600D02*
X-97610D01*
X-98200Y141009D02*
Y142191D01*
X-98791Y147500D02*
X-97610D01*
X-98200Y146909D02*
Y148091D01*
X-98791Y150450D02*
X-97610D01*
X-98200Y149859D02*
Y151041D01*
X-98791Y153400D02*
X-97610D01*
X-98200Y152809D02*
Y153991D01*
X99709Y44800D02*
X100891D01*
X100300Y44209D02*
Y45391D01*
X96409Y48800D02*
X97591D01*
X97000Y48209D02*
Y49391D01*
X-96390Y175500D02*
X-95209D01*
X-95800Y174909D02*
Y176091D01*
X-50972Y34881D02*
X-49791D01*
X-50381Y34291D02*
Y35472D01*
X-68741Y39226D02*
X-67560D01*
X-68150Y38635D02*
Y39816D01*
X-68741Y34874D02*
X-67560D01*
X-68150Y34284D02*
Y35465D01*
X-48691Y38100D02*
X-47509D01*
X-48100Y37509D02*
Y38691D01*
X-64991Y32500D02*
X-63810D01*
X-64400Y31909D02*
Y33091D01*
X36709Y258300D02*
X37891D01*
X37300Y257710D02*
Y258891D01*
X127109Y162900D02*
X128291D01*
X127700Y162309D02*
Y163491D01*
X96310Y191500D02*
X97491D01*
X96900Y190909D02*
Y192091D01*
X86510Y230900D02*
X87691D01*
X87100Y230310D02*
Y231490D01*
X88310Y229100D02*
X89490D01*
X88900Y228509D02*
Y229691D01*
X90009Y227300D02*
X91190D01*
X90600Y226710D02*
Y227890D01*
X91710Y225500D02*
X92891D01*
X92300Y224909D02*
Y226091D01*
X93510Y223700D02*
X94691D01*
X94100Y223110D02*
Y224290D01*
X84710Y232700D02*
X85891D01*
X85300Y232109D02*
Y233291D01*
X102809Y211900D02*
X103991D01*
X103400Y211310D02*
Y212491D01*
X100960Y213750D02*
X102140D01*
X101550Y213159D02*
Y214340D01*
X99110Y215600D02*
X100291D01*
X99700Y215009D02*
Y216191D01*
X97259Y217450D02*
X98440D01*
X97850Y216860D02*
Y218040D01*
X97027Y180200D02*
X98208D01*
X97618Y179609D02*
Y180791D01*
X99636Y180200D02*
X100817D01*
X100226Y179609D02*
Y180791D01*
X91809Y180200D02*
X92990D01*
X92400Y179609D02*
Y180791D01*
X94418Y180200D02*
X95599D01*
X95009Y179609D02*
Y180791D01*
X101010Y201600D02*
X102190D01*
X101600Y201009D02*
Y202191D01*
X102809Y203400D02*
X103991D01*
X103400Y202809D02*
Y203991D01*
X104509Y205200D02*
X105691D01*
X105100Y204609D02*
Y205790D01*
X102509Y207000D02*
X103691D01*
X103100Y206410D02*
Y207591D01*
X25409Y252742D02*
X26591D01*
X26000Y252152D02*
Y253333D01*
X22809Y252742D02*
X23990D01*
X23400Y252152D02*
Y253333D01*
X25409Y250312D02*
X26591D01*
X26000Y249721D02*
Y250902D01*
X22809Y250312D02*
X23990D01*
X23400Y249721D02*
Y250902D01*
X-84790Y224240D02*
X-83609D01*
X-84200Y223649D02*
Y224831D01*
X-84790Y226780D02*
X-83609D01*
X-84200Y226189D02*
Y227371D01*
X99089Y219280D02*
X100271D01*
X99680Y218689D02*
Y219871D01*
X100940Y217430D02*
X102121D01*
X101530Y216840D02*
Y218021D01*
X96310Y194000D02*
X97491D01*
X96900Y193409D02*
Y194591D01*
X100810Y205200D02*
X101990D01*
X101400Y204609D02*
Y205790D01*
X86809Y204200D02*
X87990D01*
X87400Y203609D02*
Y204791D01*
X86809Y206700D02*
X87990D01*
X87400Y206109D02*
Y207291D01*
X84109Y206700D02*
X85290D01*
X84700Y206109D02*
Y207291D01*
X84109Y204200D02*
X85290D01*
X84700Y203609D02*
Y204791D01*
X97195Y159400D02*
X98376D01*
X97786Y158809D02*
Y159991D01*
X99881Y159400D02*
X101062D01*
X100471Y158809D02*
Y159991D01*
X102567Y159400D02*
X103748D01*
X103157Y158809D02*
Y159991D01*
X77009Y96400D02*
X78190D01*
X77600Y95810D02*
Y96991D01*
X-42691Y242600D02*
X-41509D01*
X-42100Y242009D02*
Y243191D01*
X-42691Y240000D02*
X-41509D01*
X-42100Y239409D02*
Y240591D01*
X-63990Y94800D02*
X-62809D01*
X-63400Y94209D02*
Y95390D01*
X94509Y159400D02*
X95691D01*
X95100Y158809D02*
Y159991D01*
X35009Y200D02*
X36191D01*
X35600Y-391D02*
Y791D01*
X1909Y24558D02*
X3091D01*
X2500Y23967D02*
Y25148D01*
X9223Y58586D02*
X10404D01*
X9814Y57996D02*
Y59177D01*
X40909Y66319D02*
X42091D01*
X41500Y65728D02*
Y66909D01*
X57445Y66825D02*
X58626D01*
X58035Y66235D02*
Y67416D01*
X54210Y66800D02*
X55391D01*
X54800Y66210D02*
Y67391D01*
X90710Y60900D02*
X91891D01*
X91300Y60309D02*
Y61490D01*
X48709Y19700D02*
X49891D01*
X49300Y19109D02*
Y20290D01*
X47509Y23046D02*
X48691D01*
X48100Y22456D02*
Y23637D01*
X59610Y12700D02*
X60790D01*
X60200Y12109D02*
Y13291D01*
X31909Y15327D02*
X33091D01*
X32500Y14736D02*
Y15917D01*
X32009Y21100D02*
X33191D01*
X32600Y20509D02*
Y21690D01*
X17009Y17123D02*
X18191D01*
X17600Y16533D02*
Y17714D01*
X35409Y7782D02*
X36591D01*
X36000Y7191D02*
Y8372D01*
X28809Y7782D02*
X29991D01*
X29400Y7191D02*
Y8372D01*
X32109Y7782D02*
X33291D01*
X32700Y7191D02*
Y8372D01*
X41526Y19700D02*
X42707D01*
X42116Y19109D02*
Y20290D01*
X69609Y16500D02*
X70790D01*
X70200Y15910D02*
Y17090D01*
X-62291Y103400D02*
X-61110D01*
X-61700Y102809D02*
Y103991D01*
X89410Y89400D02*
X90591D01*
X90000Y88810D02*
Y89991D01*
X-23090Y24600D02*
X-21910D01*
X-22500Y24010D02*
Y25190D01*
X-19341Y24600D02*
X-18160D01*
X-18750Y24010D02*
Y25190D01*
X28609Y69900D02*
X29791D01*
X29200Y69310D02*
Y70490D01*
X5053Y49069D02*
X6234D01*
X5644Y48478D02*
Y49659D01*
X10318Y46760D02*
X11499D01*
X10909Y46170D02*
Y47351D01*
X18910Y111622D02*
X20090D01*
X19500Y111031D02*
Y112212D01*
X46885Y78546D02*
X48066D01*
X47476Y77956D02*
Y79137D01*
X58682Y78481D02*
X59863D01*
X59273Y77890D02*
Y79072D01*
X91309Y55500D02*
X92491D01*
X91900Y54909D02*
Y56090D01*
X-89390Y200500D02*
X-88209D01*
X-88800Y199909D02*
Y201091D01*
X-37891Y73200D02*
X-36709D01*
X-37300Y72610D02*
Y73791D01*
X-40147Y235300D02*
X-38966D01*
X-39557Y234710D02*
Y235891D01*
X-37491Y235300D02*
X-36309D01*
X-36900Y234710D02*
Y235891D01*
X-59991Y183700D02*
X-58810D01*
X-59400Y183109D02*
Y184291D01*
X-56490Y179400D02*
X-55309D01*
X-55900Y178809D02*
Y179991D01*
X-84491Y175500D02*
X-83310D01*
X-83900Y174909D02*
Y176091D01*
X34009Y86100D02*
X35191D01*
X34600Y85510D02*
Y86690D01*
X26709Y26700D02*
X27891D01*
X27300Y26109D02*
Y27291D01*
X131309Y156200D02*
X132491D01*
X131900Y155609D02*
Y156791D01*
X127509Y152400D02*
X128691D01*
X128100Y151809D02*
Y152991D01*
X135309Y140900D02*
X136491D01*
X135900Y140309D02*
Y141491D01*
X135309Y129400D02*
X136491D01*
X135900Y128809D02*
Y129991D01*
X135309Y117900D02*
X136491D01*
X135900Y117309D02*
Y118491D01*
X108909Y96000D02*
X110091D01*
X109500Y95410D02*
Y96591D01*
X108909Y104300D02*
X110091D01*
X109500Y103709D02*
Y104891D01*
X80409Y135400D02*
X81590D01*
X81000Y134809D02*
Y135991D01*
X77710Y135400D02*
X78891D01*
X78300Y134809D02*
Y135991D01*
X6909Y24400D02*
X8091D01*
X7500Y23810D02*
Y24991D01*
X75709Y159400D02*
X76890D01*
X76300Y158809D02*
Y159991D01*
X75076Y131633D02*
X76257D01*
X75666Y131043D02*
Y132224D01*
X72409Y131633D02*
X73590D01*
X73000Y131043D02*
Y132224D01*
X88510Y126800D02*
X89691D01*
X89100Y126209D02*
Y127391D01*
X91009Y126800D02*
X92190D01*
X91600Y126209D02*
Y127391D01*
X102811Y126200D02*
X103992D01*
X103402Y125609D02*
Y126791D01*
X102811Y128700D02*
X103992D01*
X103402Y128109D02*
Y129291D01*
X102811Y131200D02*
X103992D01*
X103402Y130609D02*
Y131791D01*
X49409Y102000D02*
X50591D01*
X50000Y101409D02*
Y102591D01*
X54510Y106900D02*
X55690D01*
X55100Y106309D02*
Y107491D01*
X102809Y148400D02*
X103991D01*
X103400Y147809D02*
Y148991D01*
X102809Y145900D02*
X103991D01*
X103400Y145309D02*
Y146491D01*
X102809Y143400D02*
X103991D01*
X103400Y142809D02*
Y143991D01*
X80059Y110200D02*
X81240D01*
X80650Y109609D02*
Y110791D01*
X15810Y114603D02*
X16991D01*
X16400Y114012D02*
Y115194D01*
X-82062Y210737D02*
X-80881D01*
X-81472Y210147D02*
Y211328D01*
X-86490Y192100D02*
X-85309D01*
X-85900Y191509D02*
Y192691D01*
X-86490Y194802D02*
X-85309D01*
X-85900Y194211D02*
Y195392D01*
X-53091Y203400D02*
X-51910D01*
X-52500Y202809D02*
Y203991D01*
X-73059Y198781D02*
X-71878D01*
X-72469Y198191D02*
Y199372D01*
X-56391Y169800D02*
X-55209D01*
X-55800Y169209D02*
Y170391D01*
X102789Y215580D02*
X103971D01*
X103380Y214989D02*
Y216171D01*
X104639Y213730D02*
X105821D01*
X105230Y213140D02*
Y214321D01*
X96310Y196500D02*
X97491D01*
X96900Y195909D02*
Y197091D01*
X-70191Y214697D02*
X-69010D01*
X-69600Y214107D02*
Y215288D01*
X-96591Y186800D02*
X-95410D01*
X-96000Y186209D02*
Y187391D01*
X-96591Y183850D02*
X-95410D01*
X-96000Y183259D02*
Y184441D01*
X-89091Y194802D02*
X-87909D01*
X-88500Y194211D02*
Y195392D01*
X-89091Y192100D02*
X-87909D01*
X-88500Y191509D02*
Y192691D01*
X105609Y89400D02*
X106791D01*
X106200Y88810D02*
Y89991D01*
X102809Y109700D02*
X103991D01*
X103400Y109109D02*
Y110291D01*
X102809Y107000D02*
X103991D01*
X103400Y106409D02*
Y107591D01*
X102809Y104300D02*
X103991D01*
X103400Y103709D02*
Y104891D01*
X100110Y109700D02*
X101291D01*
X100700Y109109D02*
Y110291D01*
X100110Y107000D02*
X101291D01*
X100700Y106409D02*
Y107591D01*
X100110Y104300D02*
X101291D01*
X100700Y103709D02*
Y104891D01*
X94010Y73000D02*
X95191D01*
X94600Y72409D02*
Y73590D01*
X94010Y75500D02*
X95191D01*
X94600Y74910D02*
Y76091D01*
X89109Y76419D02*
X90290D01*
X89700Y75828D02*
Y77009D01*
X64210Y110200D02*
X65390D01*
X64800Y109609D02*
Y110791D01*
X-49291Y203400D02*
X-48109D01*
X-48700Y202809D02*
Y203991D01*
X-49291Y200700D02*
X-48109D01*
X-48700Y200109D02*
Y201291D01*
X-46491Y200700D02*
X-45309D01*
X-45900Y200109D02*
Y201291D01*
X-46491Y198000D02*
X-45309D01*
X-45900Y197409D02*
Y198591D01*
X-46491Y195300D02*
X-45309D01*
X-45900Y194709D02*
Y195891D01*
X-46491Y192600D02*
X-45309D01*
X-45900Y192009D02*
Y193191D01*
X-49291Y192600D02*
X-48109D01*
X-48700Y192009D02*
Y193191D01*
X-49291Y195300D02*
X-48109D01*
X-48700Y194709D02*
Y195891D01*
X-49291Y198000D02*
X-48109D01*
X-48700Y197409D02*
Y198591D01*
X44941Y224247D02*
X46122D01*
X45531Y223657D02*
Y224838D01*
X119509Y168500D02*
X120691D01*
X120100Y167909D02*
Y169091D01*
X126909Y168500D02*
X128091D01*
X127500Y167909D02*
Y169091D01*
X82709Y231100D02*
X83890D01*
X83300Y230509D02*
Y231691D01*
X73610Y221800D02*
X74791D01*
X74200Y221210D02*
Y222391D01*
X69510Y159600D02*
X70691D01*
X70100Y159009D02*
Y160191D01*
X91824Y159400D02*
X93005D01*
X92414Y158809D02*
Y159991D01*
X89138Y159400D02*
X90319D01*
X89728Y158809D02*
Y159991D01*
X86452Y159400D02*
X87633D01*
X87043Y158809D02*
Y159991D01*
X83767Y159400D02*
X84948D01*
X84357Y158809D02*
Y159991D01*
X81081Y159400D02*
X82262D01*
X81671Y158809D02*
Y159991D01*
X78395Y159400D02*
X79576D01*
X78986Y158809D02*
Y159991D01*
X79510Y154300D02*
X80690D01*
X80100Y153709D02*
Y154891D01*
X79510Y151700D02*
X80690D01*
X80100Y151109D02*
Y152291D01*
X74510Y110200D02*
X75691D01*
X75100Y109609D02*
Y110791D01*
X61683Y110200D02*
X62864D01*
X62274Y109609D02*
Y110791D01*
X59183Y110200D02*
X60364D01*
X59773Y109609D02*
Y110791D01*
X66683Y110200D02*
X67864D01*
X67273Y109609D02*
Y110791D01*
X69183Y110200D02*
X70364D01*
X69774Y109609D02*
Y110791D01*
X69183Y112866D02*
X70364D01*
X69774Y112275D02*
Y113456D01*
X66683Y112866D02*
X67864D01*
X67273Y112275D02*
Y113456D01*
X59183Y112866D02*
X60364D01*
X59773Y112275D02*
Y113456D01*
X61683Y112866D02*
X62864D01*
X62274Y112275D02*
Y113456D01*
X64183Y112866D02*
X65364D01*
X64773Y112275D02*
Y113456D01*
X44797Y230800D02*
X45978D01*
X45387Y230209D02*
Y231391D01*
X44797Y228300D02*
X45978D01*
X45387Y227710D02*
Y228890D01*
X40161Y235730D02*
X41342D01*
X40751Y235140D02*
Y236321D01*
X37731Y235730D02*
X38912D01*
X38321Y235140D02*
Y236321D01*
X35300Y235730D02*
X36481D01*
X35891Y235140D02*
Y236321D01*
X32870Y235730D02*
X34051D01*
X33461Y235140D02*
Y236321D01*
X30440Y235730D02*
X31621D01*
X31030Y235140D02*
Y236321D01*
X22809Y247882D02*
X23990D01*
X23400Y247291D02*
Y248472D01*
X22809Y245451D02*
X23990D01*
X23400Y244861D02*
Y246042D01*
X22809Y243021D02*
X23990D01*
X23400Y242430D02*
Y243612D01*
X22809Y240591D02*
X23990D01*
X23400Y240000D02*
Y241181D01*
X22809Y238160D02*
X23990D01*
X23400Y237570D02*
Y238751D01*
X22809Y235730D02*
X23990D01*
X23400Y235140D02*
Y236321D01*
X22809Y233300D02*
X23990D01*
X23400Y232710D02*
Y233891D01*
X-73059Y212040D02*
X-71878D01*
X-72469Y211450D02*
Y212631D01*
X-73059Y201413D02*
X-71878D01*
X-72469Y200823D02*
Y202004D01*
X-73059Y206727D02*
X-71878D01*
X-72469Y206136D02*
Y207317D01*
X-73059Y204070D02*
X-71878D01*
X-72469Y203480D02*
Y204661D01*
X-73059Y209384D02*
X-71878D01*
X-72469Y208793D02*
Y209974D01*
X-49591Y230000D02*
X-48409D01*
X-49000Y229410D02*
Y230591D01*
X-49591Y227343D02*
X-48409D01*
X-49000Y226753D02*
Y227934D01*
X-49591Y224687D02*
X-48409D01*
X-49000Y224096D02*
Y225277D01*
X-52091Y224687D02*
X-50909D01*
X-51500Y224096D02*
Y225277D01*
X-52091Y227343D02*
X-50909D01*
X-51500Y226753D02*
Y227934D01*
X-52091Y230000D02*
X-50909D01*
X-51500Y229410D02*
Y230591D01*
X-66018Y224757D02*
X-64837D01*
X-65427Y224166D02*
Y225347D01*
X-66018Y230070D02*
X-64837D01*
X-65427Y229480D02*
Y230661D01*
X-66018Y227414D02*
X-64837D01*
X-65427Y226823D02*
Y228004D01*
X-66018Y232727D02*
X-64837D01*
X-65427Y232137D02*
Y233318D01*
X-68739Y224757D02*
X-67558D01*
X-68148Y224166D02*
Y225347D01*
X-68739Y227414D02*
X-67558D01*
X-68148Y226823D02*
Y228004D01*
X-68739Y230070D02*
X-67558D01*
X-68148Y229480D02*
Y230661D01*
X-68739Y232727D02*
X-67558D01*
X-68148Y232137D02*
Y233318D01*
X-62191Y208300D02*
X-61010D01*
X-61600Y207710D02*
Y208891D01*
X-70191Y198757D02*
X-69010D01*
X-69600Y198166D02*
Y199347D01*
X-70191Y201413D02*
X-69010D01*
X-69600Y200823D02*
Y202004D01*
X-70191Y204070D02*
X-69010D01*
X-69600Y203480D02*
Y204661D01*
X-70191Y206727D02*
X-69010D01*
X-69600Y206136D02*
Y207317D01*
X-70191Y212040D02*
X-69010D01*
X-69600Y211450D02*
Y212631D01*
X-70191Y209384D02*
X-69010D01*
X-69600Y208793D02*
Y209974D01*
X-62309Y212760D02*
X-61128D01*
X-61719Y212169D02*
Y213350D01*
X64210Y203300D02*
X65390D01*
X64800Y202709D02*
Y203891D01*
X64210Y200750D02*
X65390D01*
X64800Y200159D02*
Y201341D01*
X64210Y198200D02*
X65390D01*
X64800Y197609D02*
Y198791D01*
X66909Y198200D02*
X68090D01*
X67500Y197609D02*
Y198791D01*
X66909Y200750D02*
X68090D01*
X67500Y200159D02*
Y201341D01*
X66909Y203300D02*
X68090D01*
X67500Y202709D02*
Y203891D01*
X69609Y198300D02*
X70790D01*
X70200Y197709D02*
Y198891D01*
X69609Y200800D02*
X70790D01*
X70200Y200209D02*
Y201391D01*
X69609Y203300D02*
X70790D01*
X70200Y202709D02*
Y203891D01*
X72309Y203300D02*
X73491D01*
X72900Y202709D02*
Y203891D01*
X72309Y200800D02*
X73491D01*
X72900Y200209D02*
Y201391D01*
X72309Y198300D02*
X73491D01*
X72900Y197709D02*
Y198891D01*
X91509Y222100D02*
X92690D01*
X92100Y221510D02*
Y222691D01*
X89710Y223900D02*
X90891D01*
X90300Y223309D02*
Y224490D01*
X88010Y225700D02*
X89191D01*
X88600Y225110D02*
Y226290D01*
X86309Y227500D02*
X87490D01*
X86900Y226909D02*
Y228091D01*
X84509Y229300D02*
X85690D01*
X85100Y228710D02*
Y229890D01*
X75410Y220000D02*
X76591D01*
X76000Y219409D02*
Y220590D01*
X77210Y218200D02*
X78391D01*
X77800Y217610D02*
Y218791D01*
X79009Y216500D02*
X80190D01*
X79600Y215910D02*
Y217091D01*
X80809Y214800D02*
X81990D01*
X81400Y214210D02*
Y215390D01*
X79009Y216500D02*
X80190D01*
X79600Y215910D02*
Y217091D01*
X-32591Y201937D02*
X-31409D01*
X-32000Y201347D02*
Y202528D01*
X80059Y179700D02*
X81240D01*
X80650Y179109D02*
Y180291D01*
X74760Y179700D02*
X75941D01*
X75350Y179109D02*
Y180291D01*
X66809Y179700D02*
X67990D01*
X67400Y179109D02*
Y180291D01*
X69459Y179700D02*
X70640D01*
X70050Y179109D02*
Y180291D01*
X72110Y179700D02*
X73290D01*
X72700Y179109D02*
Y180291D01*
X82709Y179700D02*
X83890D01*
X83300Y179109D02*
Y180291D01*
X82709Y182200D02*
X83890D01*
X83300Y181609D02*
Y182791D01*
X72110Y182200D02*
X73290D01*
X72700Y181609D02*
Y182791D01*
X69459Y182200D02*
X70640D01*
X70050Y181609D02*
Y182791D01*
X66809Y182200D02*
X67990D01*
X67400Y181609D02*
Y182791D01*
X50909Y208100D02*
X52091D01*
X51500Y207509D02*
Y208691D01*
X47408Y228300D02*
X48589D01*
X47999Y227710D02*
Y228890D01*
X47408Y230800D02*
X48589D01*
X47999Y230209D02*
Y231391D01*
X54210Y211900D02*
X55391D01*
X54800Y211310D02*
Y212491D01*
X54210Y214400D02*
X55391D01*
X54800Y213809D02*
Y214990D01*
X56810Y211900D02*
X57990D01*
X57400Y211310D02*
Y212491D01*
X56810Y214400D02*
X57990D01*
X57400Y213809D02*
Y214990D01*
X99010Y203400D02*
X100190D01*
X99600Y202809D02*
Y203991D01*
X11271Y229900D02*
X12452D01*
X11862Y229310D02*
Y230490D01*
X8841Y229900D02*
X10022D01*
X9432Y229310D02*
Y230490D01*
X6411Y229900D02*
X7592D01*
X7001Y229310D02*
Y230490D01*
X3980Y229900D02*
X5162D01*
X4571Y229310D02*
Y230490D01*
X1550Y229900D02*
X2731D01*
X2141Y229310D02*
Y230490D01*
X25409Y233300D02*
X26591D01*
X26000Y232710D02*
Y233891D01*
X25409Y235730D02*
X26591D01*
X26000Y235140D02*
Y236321D01*
X25409Y238160D02*
X26591D01*
X26000Y237570D02*
Y238751D01*
X25409Y240591D02*
X26591D01*
X26000Y240000D02*
Y241181D01*
X25409Y243021D02*
X26591D01*
X26000Y242430D02*
Y243612D01*
X25409Y245451D02*
X26591D01*
X26000Y244861D02*
Y246042D01*
X25409Y247882D02*
X26591D01*
X26000Y247291D02*
Y248472D01*
X28009Y247882D02*
X29191D01*
X28600Y247291D02*
Y248472D01*
X28009Y245451D02*
X29191D01*
X28600Y244861D02*
Y246042D01*
X28009Y243021D02*
X29191D01*
X28600Y242430D02*
Y243612D01*
X28009Y240591D02*
X29191D01*
X28600Y240000D02*
Y241181D01*
X28009Y238160D02*
X29191D01*
X28600Y237570D02*
Y238751D01*
X28009Y235730D02*
X29191D01*
X28600Y235140D02*
Y236321D01*
X30440Y233300D02*
X31621D01*
X31030Y232710D02*
Y233891D01*
X28009Y233300D02*
X29191D01*
X28600Y232710D02*
Y233891D01*
X32870Y233300D02*
X34051D01*
X33461Y232710D02*
Y233891D01*
X35300Y233300D02*
X36481D01*
X35891Y232710D02*
Y233891D01*
X37731Y233300D02*
X38912D01*
X38321Y232710D02*
Y233891D01*
X40161Y233300D02*
X41342D01*
X40751Y232710D02*
Y233891D01*
X26290Y209984D02*
X27471D01*
X26880Y209394D02*
Y210575D01*
X26290Y207292D02*
X27471D01*
X26880Y206702D02*
Y207883D01*
X26290Y204600D02*
X27471D01*
X26880Y204009D02*
Y205190D01*
X20109Y207000D02*
X21291D01*
X20700Y206410D02*
Y207591D01*
X13610Y220900D02*
X14791D01*
X14200Y220309D02*
Y221491D01*
X20109Y209383D02*
X21291D01*
X20700Y208793D02*
Y209974D01*
X2410Y97400D02*
X3591D01*
X3000Y96810D02*
Y97991D01*
X17609Y175044D02*
X18790D01*
X18200Y174454D02*
Y175635D01*
X17609Y172352D02*
X18790D01*
X18200Y171762D02*
Y172943D01*
X17609Y169660D02*
X18790D01*
X18200Y169070D02*
Y170251D01*
X14809Y175044D02*
X15991D01*
X15400Y174454D02*
Y175635D01*
X14809Y172352D02*
X15991D01*
X15400Y171762D02*
Y172943D01*
X14809Y169660D02*
X15991D01*
X15400Y169070D02*
Y170251D01*
X12038Y169660D02*
X13219D01*
X12629Y169070D02*
Y170251D01*
X12038Y172352D02*
X13219D01*
X12629Y171762D02*
Y172943D01*
X12038Y175044D02*
X13219D01*
X12629Y174454D02*
Y175635D01*
X3525Y200324D02*
X4706D01*
X4116Y199733D02*
Y200914D01*
X1033Y200324D02*
X2214D01*
X1624Y199733D02*
Y200914D01*
X6017Y200324D02*
X7198D01*
X6608Y199733D02*
Y200914D01*
X3525Y203016D02*
X4706D01*
X4116Y202425D02*
Y203606D01*
X1033Y203016D02*
X2214D01*
X1624Y202425D02*
Y203606D01*
X6017Y203016D02*
X7198D01*
X6608Y202425D02*
Y203606D01*
X6017Y205708D02*
X7198D01*
X6608Y205117D02*
Y206298D01*
X1033Y205708D02*
X2214D01*
X1624Y205117D02*
Y206298D01*
X3525Y205708D02*
X4706D01*
X4116Y205117D02*
Y206298D01*
X6017Y208400D02*
X7198D01*
X6608Y207809D02*
Y208991D01*
X6017Y214284D02*
X7198D01*
X6608Y213694D02*
Y214875D01*
X6017Y211292D02*
X7198D01*
X6608Y210702D02*
Y211883D01*
X3525Y211292D02*
X4706D01*
X4116Y210702D02*
Y211883D01*
X3525Y214284D02*
X4706D01*
X4116Y213694D02*
Y214875D01*
X1033Y211292D02*
X2214D01*
X1624Y210702D02*
Y211883D01*
X1033Y214284D02*
X2214D01*
X1624Y213694D02*
Y214875D01*
X3525Y208400D02*
X4706D01*
X4116Y207809D02*
Y208991D01*
X13702Y229900D02*
X14883D01*
X14292Y229310D02*
Y230490D01*
X48193Y168600D02*
X49374D01*
X48783Y168009D02*
Y169191D01*
X50801Y168600D02*
X51982D01*
X51392Y168009D02*
Y169191D01*
X53410Y168609D02*
X54591D01*
X54001Y168019D02*
Y169200D01*
X56019Y168609D02*
X57200D01*
X56609Y168019D02*
Y169200D01*
X50801Y175181D02*
X51982D01*
X51392Y174590D02*
Y175771D01*
X48193Y175181D02*
X49374D01*
X48783Y174590D02*
Y175771D01*
X53410Y175181D02*
X54591D01*
X54001Y174590D02*
Y175771D01*
X50801Y171890D02*
X51982D01*
X51392Y171300D02*
Y172481D01*
X48193Y171890D02*
X49374D01*
X48783Y171300D02*
Y172481D01*
X53410Y171890D02*
X54591D01*
X54001Y171300D02*
Y172481D01*
X94109Y168609D02*
X95290D01*
X94700Y168019D02*
Y169200D01*
X91501Y168609D02*
X92682D01*
X92091Y168019D02*
Y169200D01*
X91501Y171890D02*
X92682D01*
X92091Y171300D02*
Y172481D01*
X94109Y171890D02*
X95290D01*
X94700Y171300D02*
Y172481D01*
X88892Y168600D02*
X90073D01*
X89482Y168009D02*
Y169191D01*
X86283Y168600D02*
X87464D01*
X86874Y168009D02*
Y169191D01*
X97409Y104300D02*
X98590D01*
X98000Y103709D02*
Y104891D01*
X94709Y104300D02*
X95890D01*
X95300Y103709D02*
Y104891D01*
X92010Y104300D02*
X93190D01*
X92600Y103709D02*
Y104891D01*
X89310Y104300D02*
X90491D01*
X89900Y103709D02*
Y104891D01*
X86610Y104300D02*
X87791D01*
X87200Y103709D02*
Y104891D01*
X83909Y104300D02*
X85091D01*
X84500Y103709D02*
Y104891D01*
X94709Y109700D02*
X95890D01*
X95300Y109109D02*
Y110291D01*
X83909Y107000D02*
X85091D01*
X84500Y106409D02*
Y107591D01*
X86610Y107000D02*
X87791D01*
X87200Y106409D02*
Y107591D01*
X89310Y107000D02*
X90491D01*
X89900Y106409D02*
Y107591D01*
X92010Y107000D02*
X93190D01*
X92600Y106409D02*
Y107591D01*
X94709Y107000D02*
X95890D01*
X95300Y106409D02*
Y107591D01*
X97409Y107000D02*
X98590D01*
X98000Y106409D02*
Y107591D01*
X97409Y109700D02*
X98590D01*
X98000Y109109D02*
Y110291D01*
X74510Y112866D02*
X75691D01*
X75100Y112275D02*
Y113456D01*
X-96591Y180900D02*
X-95410D01*
X-96000Y180309D02*
Y181491D01*
X-62309Y215300D02*
X-61128D01*
X-61719Y214709D02*
Y215891D01*
X85009Y145000D02*
X86190D01*
X85600Y144409D02*
Y145591D01*
X74760Y182200D02*
X75941D01*
X75350Y181609D02*
Y182791D01*
X77409Y182200D02*
X78591D01*
X78000Y181609D02*
Y182791D01*
X80059Y182200D02*
X81240D01*
X80650Y181609D02*
Y182791D01*
X123038Y165337D02*
X124219D01*
X123628Y164747D02*
Y165928D01*
X-48691Y41900D02*
X-47509D01*
X-48100Y41309D02*
Y42491D01*
X44909Y221600D02*
X46091D01*
X45500Y221009D02*
Y222190D01*
X38015Y215094D02*
X39196D01*
X38605Y214504D02*
Y215685D01*
X38015Y210094D02*
X39196D01*
X38605Y209504D02*
Y210685D01*
X1033Y208400D02*
X2214D01*
X1624Y207809D02*
Y208991D01*
X36509Y184500D02*
X37691D01*
X37100Y183909D02*
Y185090D01*
X44314Y181200D02*
X45496D01*
X44905Y180609D02*
Y181791D01*
X41688Y181200D02*
X42869D01*
X42279Y180609D02*
Y181791D01*
X41688Y184500D02*
X42869D01*
X42279Y183909D02*
Y185090D01*
X39162Y181228D02*
X40343D01*
X39752Y180638D02*
Y181819D01*
X36509Y187800D02*
X37691D01*
X37100Y187209D02*
Y188391D01*
X39162Y184529D02*
X40343D01*
X39752Y183938D02*
Y185119D01*
X44314Y187800D02*
X45496D01*
X44905Y187209D02*
Y188391D01*
X36509Y181200D02*
X37691D01*
X37100Y180609D02*
Y181791D01*
X39062Y187829D02*
X40243D01*
X39652Y187238D02*
Y188419D01*
X41688Y187800D02*
X42869D01*
X42279Y187209D02*
Y188391D01*
X44314Y184500D02*
X45496D01*
X44905Y183909D02*
Y185090D01*
X56019Y171890D02*
X57200D01*
X56609Y171300D02*
Y172481D01*
X56019Y175181D02*
X57200D01*
X56609Y174590D02*
Y175771D01*
X24010Y87600D02*
X25190D01*
X24600Y87010D02*
Y88191D01*
X88892Y175181D02*
X90073D01*
X89482Y174590D02*
Y175771D01*
X86283Y175181D02*
X87464D01*
X86874Y174590D02*
Y175771D01*
X86283Y171890D02*
X87464D01*
X86874Y171300D02*
Y172481D01*
X88892Y171890D02*
X90073D01*
X89482Y171300D02*
Y172481D01*
X-29862Y201937D02*
X-28681D01*
X-29272Y201347D02*
Y202528D01*
X16738Y87337D02*
X17919D01*
X17328Y86747D02*
Y87928D01*
M02*
