G04*
G04 #@! TF.GenerationSoftware,Altium Limited,Altium Designer,22.1.2 (22)*
G04*
G04 Layer_Physical_Order=1*
G04 Layer_Color=255*
%FSLAX25Y25*%
%MOIN*%
G70*
G04*
G04 #@! TF.SameCoordinates,718D4045-E2B1-425D-88C3-508A2C93E544*
G04*
G04*
G04 #@! TF.FilePolarity,Positive*
G04*
G01*
G75*
%ADD11C,0.01000*%
%ADD13C,0.00800*%
%ADD25R,0.22835X0.24410*%
%ADD26R,0.06299X0.11811*%
%ADD27R,0.03000X0.03500*%
%ADD28R,0.17717X0.06496*%
%ADD29R,0.03500X0.03000*%
%ADD30R,0.02559X0.03819*%
%ADD31R,0.06693X0.09843*%
%ADD32R,0.10984X0.10118*%
%ADD33R,0.15748X0.07874*%
%ADD34R,0.04803X0.02441*%
%ADD35R,0.03622X0.03228*%
%ADD36R,0.08268X0.11811*%
%ADD37R,0.03150X0.05118*%
%ADD38R,0.04173X0.07165*%
%ADD39R,0.03740X0.02362*%
%ADD40R,0.07874X0.05906*%
%ADD41R,0.04724X0.04724*%
%ADD42R,0.04000X0.06000*%
%ADD43R,0.06000X0.04000*%
%ADD44R,0.03937X0.01181*%
%ADD45R,0.05118X0.04606*%
%ADD46P,0.06494X8X202.5*%
%ADD47P,0.06494X8X292.5*%
%ADD48R,0.03150X0.03543*%
%ADD49R,0.19685X0.19685*%
%ADD50R,0.01260X0.04803*%
%ADD51R,0.04803X0.01260*%
%ADD52R,0.02362X0.03150*%
%ADD53R,0.03150X0.02362*%
%ADD54R,0.10236X0.12598*%
%ADD98C,0.03000*%
%ADD99C,0.05000*%
%ADD100C,0.01200*%
%ADD101C,0.02500*%
%ADD102C,0.04000*%
%ADD103C,0.02200*%
%ADD104C,0.03500*%
%ADD105C,0.02000*%
%ADD106R,0.33000X0.14300*%
%ADD107R,0.19400X0.04800*%
%ADD108R,0.26100X0.08785*%
%ADD109R,0.03800X0.26000*%
%ADD110R,0.12600X0.19200*%
%ADD111R,0.31700X0.18406*%
%ADD112R,0.29600X0.22500*%
%ADD113R,0.31000X0.08800*%
%ADD114R,0.06300X0.22000*%
%ADD115R,0.05726X0.31600*%
%ADD116R,0.12200X0.05300*%
%ADD117R,0.03726X0.19585*%
G04:AMPARAMS|DCode=118|XSize=155.54mil|YSize=69.2mil|CornerRadius=0mil|HoleSize=0mil|Usage=FLASHONLY|Rotation=45.000|XOffset=0mil|YOffset=0mil|HoleType=Round|Shape=Rectangle|*
%AMROTATEDRECTD118*
4,1,4,-0.03053,-0.07946,-0.07946,-0.03053,0.03053,0.07946,0.07946,0.03053,-0.03053,-0.07946,0.0*
%
%ADD118ROTATEDRECTD118*%

G04:AMPARAMS|DCode=119|XSize=62.04mil|YSize=111.79mil|CornerRadius=0mil|HoleSize=0mil|Usage=FLASHONLY|Rotation=42.000|XOffset=0mil|YOffset=0mil|HoleType=Round|Shape=Rectangle|*
%AMROTATEDRECTD119*
4,1,4,0.01435,-0.06229,-0.06045,0.02078,-0.01435,0.06229,0.06045,-0.02078,0.01435,-0.06229,0.0*
%
%ADD119ROTATEDRECTD119*%

%ADD120R,0.16437X0.25000*%
%ADD121R,0.16237X0.12100*%
%ADD122R,0.05498X0.55954*%
%ADD123R,0.13000X0.60600*%
%ADD124R,0.05000X0.04450*%
%ADD125R,0.04200X0.06000*%
%ADD126R,0.05600X0.05800*%
%ADD127R,0.13800X0.18000*%
%ADD128R,0.07500X0.01100*%
%ADD129R,0.04600X0.04736*%
%ADD130R,0.06150X0.05100*%
%ADD131R,0.13800X0.23300*%
%ADD132R,0.05891X0.02561*%
%ADD133R,0.04379X0.03324*%
%ADD134R,0.03726X0.29097*%
%ADD135R,0.04678X0.04937*%
%ADD136R,0.07079X0.02200*%
%ADD137R,0.21429X0.01846*%
%ADD138R,0.10800X0.13495*%
%ADD139R,0.09378X0.07700*%
%ADD140R,0.14300X0.04337*%
%ADD141R,0.53000X0.05200*%
%ADD142R,0.07200X0.19100*%
%ADD143R,0.12372X0.09500*%
%ADD144R,0.25900X0.52000*%
%ADD145R,0.08400X0.07500*%
G04:AMPARAMS|DCode=146|XSize=88.39mil|YSize=172.54mil|CornerRadius=0mil|HoleSize=0mil|Usage=FLASHONLY|Rotation=45.000|XOffset=0mil|YOffset=0mil|HoleType=Round|Shape=Rectangle|*
%AMROTATEDRECTD146*
4,1,4,0.02975,-0.09225,-0.09225,0.02975,-0.02975,0.09225,0.09225,-0.02975,0.02975,-0.09225,0.0*
%
%ADD146ROTATEDRECTD146*%

%ADD147R,0.10122X0.05522*%
%ADD148R,0.06200X0.23500*%
%ADD149R,0.04031X0.03870*%
%ADD150R,0.04700X0.34300*%
%ADD151R,0.04700X0.19700*%
%ADD152R,0.03600X0.06900*%
%ADD153R,0.18700X0.19337*%
%ADD154R,0.04500X0.07177*%
%ADD155R,0.07235X0.08200*%
%ADD156R,0.22300X0.03500*%
%ADD157R,0.25900X0.05900*%
%ADD158R,0.03850X0.03537*%
%ADD159R,0.20713X0.05800*%
G04:AMPARAMS|DCode=160|XSize=157.93mil|YSize=61.55mil|CornerRadius=0mil|HoleSize=0mil|Usage=FLASHONLY|Rotation=43.000|XOffset=0mil|YOffset=0mil|HoleType=Round|Shape=Rectangle|*
%AMROTATEDRECTD160*
4,1,4,-0.03676,-0.07636,-0.07874,-0.03135,0.03676,0.07636,0.07874,0.03135,-0.03676,-0.07636,0.0*
%
%ADD160ROTATEDRECTD160*%

G04:AMPARAMS|DCode=161|XSize=128.03mil|YSize=66.49mil|CornerRadius=0mil|HoleSize=0mil|Usage=FLASHONLY|Rotation=42.000|XOffset=0mil|YOffset=0mil|HoleType=Round|Shape=Rectangle|*
%AMROTATEDRECTD161*
4,1,4,-0.02533,-0.06754,-0.06982,-0.01813,0.02533,0.06754,0.06982,0.01813,-0.02533,-0.06754,0.0*
%
%ADD161ROTATEDRECTD161*%

%ADD162R,0.07156X0.14150*%
%ADD163R,0.09774X0.10100*%
G04:AMPARAMS|DCode=164|XSize=56.56mil|YSize=100.41mil|CornerRadius=0mil|HoleSize=0mil|Usage=FLASHONLY|Rotation=315.000|XOffset=0mil|YOffset=0mil|HoleType=Round|Shape=Rectangle|*
%AMROTATEDRECTD164*
4,1,4,-0.05550,-0.01550,0.01550,0.05550,0.05550,0.01550,-0.01550,-0.05550,-0.05550,-0.01550,0.0*
%
%ADD164ROTATEDRECTD164*%

%ADD165R,0.07000X0.16426*%
%ADD166R,0.56000X0.03300*%
%ADD167R,0.10100X0.03700*%
%ADD168R,0.04500X0.12300*%
%ADD169R,0.48100X0.02300*%
%ADD170R,0.04600X0.05500*%
%ADD171R,0.04600X0.04444*%
%ADD172R,0.04600X0.04898*%
%ADD173R,0.04200X0.08826*%
%ADD174R,0.21700X0.02200*%
%ADD175R,0.05400X0.06000*%
%ADD176R,0.31050X0.03300*%
%ADD177R,0.29400X0.05200*%
%ADD178R,0.08421X0.06200*%
%ADD179R,0.22100X0.05000*%
%ADD180R,0.18600X0.05000*%
%ADD181R,0.11500X0.12100*%
%ADD182R,0.23900X0.06100*%
%ADD183R,0.39619X0.03900*%
%ADD184R,0.08100X0.12300*%
%ADD185R,0.13700X0.07000*%
%ADD186R,0.18700X0.04400*%
%ADD187R,0.07974X0.04700*%
%ADD188R,0.04600X0.05200*%
%ADD189R,0.10300X0.03000*%
%ADD190R,0.20200X0.08463*%
%ADD191R,0.05100X0.21385*%
%ADD192R,0.10400X0.11600*%
%ADD193R,0.10600X0.07900*%
%ADD194R,0.13200X0.05700*%
%ADD195R,0.13500X0.11800*%
%ADD196R,0.07400X0.11800*%
%ADD197R,0.13979X0.07600*%
%ADD198R,0.03400X0.03500*%
%ADD199R,0.04100X0.24100*%
%ADD200R,0.09700X0.05500*%
%ADD201R,0.10600X0.11617*%
%ADD202R,0.07000X0.02500*%
%ADD203R,0.07100X0.06500*%
G04:AMPARAMS|DCode=204|XSize=53.74mil|YSize=199.4mil|CornerRadius=0mil|HoleSize=0mil|Usage=FLASHONLY|Rotation=45.000|XOffset=0mil|YOffset=0mil|HoleType=Round|Shape=Rectangle|*
%AMROTATEDRECTD204*
4,1,4,0.05150,-0.08950,-0.08950,0.05150,-0.05150,0.08950,0.08950,-0.05150,0.05150,-0.08950,0.0*
%
%ADD204ROTATEDRECTD204*%

%ADD205R,0.27650X0.07700*%
%ADD206R,0.21600X0.17800*%
%ADD207R,0.11055X0.05100*%
%ADD208R,0.07500X0.09600*%
%ADD209R,0.30000X0.04000*%
%ADD210R,0.06400X0.18100*%
%ADD211R,0.02300X0.22800*%
%ADD212R,0.05700X0.13600*%
%ADD213R,0.05900X0.25000*%
%ADD214R,0.27900X0.20200*%
%ADD215R,0.08000X0.05900*%
%ADD216R,0.15900X0.10500*%
G04:AMPARAMS|DCode=217|XSize=208.66mil|YSize=128.77mil|CornerRadius=0mil|HoleSize=0mil|Usage=FLASHONLY|Rotation=45.000|XOffset=0mil|YOffset=0mil|HoleType=Round|Shape=Rectangle|*
%AMROTATEDRECTD217*
4,1,4,-0.02825,-0.11930,-0.11930,-0.02825,0.02825,0.11930,0.11930,0.02825,-0.02825,-0.11930,0.0*
%
%ADD217ROTATEDRECTD217*%

G04:AMPARAMS|DCode=218|XSize=66.31mil|YSize=169.71mil|CornerRadius=0mil|HoleSize=0mil|Usage=FLASHONLY|Rotation=225.000|XOffset=0mil|YOffset=0mil|HoleType=Round|Shape=Rectangle|*
%AMROTATEDRECTD218*
4,1,4,-0.03655,0.08345,0.08345,-0.03655,0.03655,-0.08345,-0.08345,0.03655,-0.03655,0.08345,0.0*
%
%ADD218ROTATEDRECTD218*%

%ADD219R,0.13100X0.27999*%
%ADD220R,0.12000X0.08500*%
%ADD221R,0.15900X0.16400*%
%ADD222R,0.18100X0.17400*%
%ADD223R,0.14019X0.16999*%
%ADD224R,0.21100X0.22200*%
%ADD225R,0.08300X0.10900*%
%ADD226R,0.09800X0.13000*%
%ADD227R,0.18600X0.09800*%
%ADD228R,0.06800X0.14684*%
%ADD229R,0.04800X0.05784*%
%ADD230R,0.03500X0.11600*%
%ADD231R,0.09900X0.10163*%
%ADD232R,0.09841X0.02700*%
%ADD233R,0.03383X0.06000*%
%ADD234R,0.03500X0.08500*%
%ADD235R,0.05500X0.03300*%
%ADD236R,0.02600X0.04803*%
%ADD237R,0.09813X0.07500*%
%ADD238R,0.12000X0.02500*%
%ADD239R,0.03771X0.05100*%
%ADD240R,0.13150X0.03600*%
%ADD241R,0.04800X0.04500*%
%ADD242R,0.07700X0.03200*%
%ADD243R,0.10100X0.06718*%
%ADD244R,0.22400X0.08400*%
%ADD245R,0.24700X0.18463*%
%ADD246R,0.25850X0.05800*%
%ADD247R,0.10400X0.09800*%
%ADD248R,0.10800X0.27600*%
%ADD249R,0.06100X0.11500*%
%ADD250R,0.06199X0.06463*%
%ADD251R,0.05000X0.03200*%
%ADD252R,0.06800X0.08300*%
%ADD253R,0.06572X0.06800*%
%ADD254R,0.01972X0.05000*%
%ADD255R,0.04600X0.08700*%
%ADD256R,0.03700X0.08700*%
%ADD257C,0.22835*%
%ADD258R,0.06260X0.06260*%
%ADD259C,0.06260*%
%ADD260R,0.10394X0.10394*%
%ADD261C,0.10394*%
%ADD262C,0.03937*%
%ADD263C,0.07087*%
%ADD264C,0.11811*%
%ADD265C,0.02362*%
G36*
X59900Y254010D02*
Y248100D01*
X46122D01*
Y257078D01*
X53085D01*
X59900Y254010D01*
D02*
G37*
G36*
X74300Y245931D02*
Y241545D01*
X61400D01*
Y249600D01*
X68523D01*
X74300Y245931D01*
D02*
G37*
G36*
X16800Y228400D02*
X-4200D01*
Y231900D01*
X16800D01*
Y228400D01*
D02*
G37*
G36*
X70800Y226000D02*
X63200D01*
Y230800D01*
X70800D01*
Y226000D01*
D02*
G37*
G36*
X84100Y232016D02*
X72750Y221382D01*
Y235700D01*
X84100D01*
Y232016D01*
D02*
G37*
G36*
X49400Y207200D02*
Y206300D01*
X37400D01*
Y212800D01*
X43900Y212800D01*
Y225600D01*
X49400D01*
Y207200D01*
D02*
G37*
G36*
X-63800Y197100D02*
X-74000D01*
Y216600D01*
X-63800D01*
Y197100D01*
D02*
G37*
G36*
X1100Y165800D02*
X-31800D01*
Y188800D01*
X1100D01*
Y165800D01*
D02*
G37*
G36*
X97000Y171200D02*
Y165000D01*
X89885D01*
X91400Y175400D01*
X91750Y176450D01*
X97000Y171200D01*
D02*
G37*
G36*
X12844Y163400D02*
X34100D01*
Y150000D01*
X5100D01*
Y150200D01*
X5044D01*
Y180239D01*
X12844D01*
Y163400D01*
D02*
G37*
G36*
X81500Y142400D02*
X60000D01*
Y156100D01*
X81500D01*
Y142400D01*
D02*
G37*
G36*
X134000Y143400D02*
X129400D01*
Y138500D01*
Y138300D01*
X124603D01*
X119503Y143400D01*
X110100D01*
Y157291D01*
X119600D01*
X134000Y143400D01*
D02*
G37*
G36*
X1000Y138364D02*
X-6440Y131600D01*
X-20600D01*
X1000Y149698D01*
Y138364D01*
D02*
G37*
G36*
X75500Y135800D02*
Y130200D01*
X67000D01*
Y141500D01*
X75500D01*
Y135800D01*
D02*
G37*
G36*
X129200Y132100D02*
Y127953D01*
X111800D01*
Y141700D01*
X119600D01*
X129200Y132100D01*
D02*
G37*
G36*
X38100Y124500D02*
X28800D01*
Y129100D01*
X38100D01*
Y124500D01*
D02*
G37*
G36*
X28602Y137976D02*
X26300D01*
Y131570D01*
X26219Y131374D01*
Y130626D01*
X26300Y130430D01*
Y123526D01*
X22341D01*
Y137976D01*
X12800D01*
Y145800D01*
X28602D01*
Y137976D01*
D02*
G37*
G36*
X13800Y128200D02*
Y117900D01*
X1600D01*
X-1000Y120500D01*
Y128300D01*
X13700D01*
X13800Y128200D01*
D02*
G37*
G36*
X11800Y136900D02*
X21000D01*
Y131000D01*
X20984D01*
Y117150D01*
X16400D01*
Y131000D01*
X7900D01*
Y133950D01*
X4743D01*
X4697Y133981D01*
X4229Y134074D01*
X3800D01*
Y145772D01*
X11800D01*
Y136900D01*
D02*
G37*
G36*
X40600Y133300D02*
X45947Y127953D01*
X51379D01*
X53355Y125977D01*
Y117585D01*
X51170Y115400D01*
X37527D01*
X34200Y118727D01*
Y123786D01*
X38100D01*
X38169Y123800D01*
X39071D01*
Y129429D01*
X38780Y129720D01*
Y129759D01*
X38741D01*
X37700Y130800D01*
X33100D01*
Y143200D01*
X40600D01*
Y133300D01*
D02*
G37*
G36*
X128300Y121700D02*
X119200Y114110D01*
X109400D01*
Y126010D01*
X127955D01*
X128300Y121700D01*
D02*
G37*
G36*
X77600Y108700D02*
X58500D01*
Y114100D01*
X77600D01*
Y108700D01*
D02*
G37*
G36*
X-7682Y119482D02*
X-2300Y114100D01*
Y107482D01*
X-15200Y119482D01*
X-7682Y119482D01*
D02*
G37*
G36*
X57400Y106759D02*
X52500Y107800D01*
X54200Y109500D01*
X57400D01*
Y106759D01*
D02*
G37*
G36*
X134700Y109200D02*
X122100Y98400D01*
X111800D01*
Y112500D01*
X134700D01*
Y109200D01*
D02*
G37*
G36*
X-6395Y63000D02*
X-24800D01*
X-31724Y69924D01*
X0D01*
X-6395Y63000D01*
D02*
G37*
G36*
X29800Y40643D02*
X29800Y35400D01*
X16395Y35400D01*
Y45718D01*
X24725D01*
X29800Y40643D01*
D02*
G37*
G36*
X-71300Y43200D02*
X-75000D01*
X-75926Y42274D01*
Y32374D01*
X-76800Y31500D01*
X-78600D01*
X-79548Y32448D01*
Y43452D01*
X-77300Y45700D01*
X-71300D01*
Y43200D01*
D02*
G37*
D11*
X27300Y26700D02*
G03*
X31646Y24900I4346J4346D01*
G01*
X53900Y54000D02*
G03*
X53381Y52748I1252J-1252D01*
G01*
X61140Y89543D02*
G03*
X64900Y91100I0J5317D01*
G01*
X62828Y36437D02*
G03*
X62677Y36500I-152J-152D01*
G01*
X41570Y95319D02*
G03*
X41081Y96500I-1670J0D01*
G01*
X900Y103100D02*
Y114402D01*
X6300Y94319D02*
Y97700D01*
X900Y103100D02*
X6300Y97700D01*
X-3300Y118602D02*
X900Y114402D01*
X34600Y86100D02*
Y109200D01*
X32178Y111622D02*
X34600Y109200D01*
X5500Y147700D02*
X32281D01*
X31646Y24900D02*
X40500D01*
X-1703Y132850D02*
X4229D01*
X-3300Y118602D02*
Y131254D01*
X-1703Y132850D01*
X51800Y133800D02*
X57600Y128000D01*
X46100Y133800D02*
X51800D01*
X59900Y117354D02*
Y131200D01*
X50000Y107454D02*
X59900Y117354D01*
X58200Y132900D02*
X59900Y131200D01*
X43539Y103539D02*
X57600Y117600D01*
Y128000D01*
X51200Y113700D02*
X55200Y117700D01*
Y120900D01*
X67291Y56749D02*
X70051D01*
X77500Y33900D02*
Y49300D01*
X70051Y56749D02*
X77500Y49300D01*
X72819Y60816D02*
X84835Y48800D01*
X67161Y60816D02*
X72819D01*
X84835Y48800D02*
X97000D01*
X67161Y56879D02*
X67291Y56749D01*
X67161Y62784D02*
X73416D01*
X78329Y60337D02*
X78528Y60537D01*
X73416Y62784D02*
X75863Y60337D01*
X78329D01*
X-27300Y39900D02*
X-18750Y31350D01*
X-46300Y39900D02*
X-27300D01*
X-18750Y24600D02*
Y31350D01*
X53381Y49005D02*
Y52748D01*
X55010Y36500D02*
X55100Y36410D01*
X32500Y117200D02*
X36000Y113700D01*
X51200D01*
X26400Y117200D02*
X32500D01*
X16400Y114603D02*
X30681D01*
X50000Y102000D02*
Y107454D01*
X43539Y82469D02*
Y103539D01*
X4229Y132850D02*
X5600Y131480D01*
X-54500Y81204D02*
Y104700D01*
X-58503Y108703D02*
X-54500Y104700D01*
X-79903Y108703D02*
X-58503D01*
X14800Y66200D02*
Y68509D01*
Y66200D02*
X16247Y64753D01*
X14800Y68509D02*
X15428Y69137D01*
X16247Y64753D02*
X33696D01*
Y74595D02*
X33723Y74622D01*
X36822D02*
X37900Y75700D01*
Y82714D01*
X33723Y74622D02*
X36822D01*
X62347Y23146D02*
X66413D01*
X59338Y20138D02*
X62347Y23146D01*
X-27734Y32534D02*
Y36366D01*
Y32534D02*
X-23069Y27869D01*
X55350Y49005D02*
Y51963D01*
X87200Y76419D02*
X87459Y76160D01*
X86783Y75483D02*
X87459Y76160D01*
X87700Y76400D01*
X55100Y35861D02*
Y36410D01*
X39602Y49005D02*
X39681Y48926D01*
X54500Y57900D02*
Y60066D01*
X55300Y60866D01*
X55350Y51963D02*
X57400Y54014D01*
X40500Y24900D02*
X48946Y16454D01*
X55587D01*
X44706Y66721D02*
X48059Y63368D01*
X-85819Y126619D02*
X-84100Y124900D01*
X-92460Y126619D02*
X-85819D01*
X-84100Y112900D02*
Y124900D01*
X-86534Y112923D02*
Y123362D01*
X-48100Y38100D02*
X-46300Y39900D01*
X-35700Y37800D02*
X-22500Y24600D01*
X-43900Y37800D02*
X-35700D01*
X-46819Y34881D02*
X-43900Y37800D01*
X-23069Y27869D02*
X-21132D01*
X-46141Y70441D02*
X-40678D01*
X-56219Y80519D02*
X-46141Y70441D01*
X-56219Y80519D02*
Y103919D01*
X-46496Y73200D02*
X-37300D01*
X-54500Y81204D02*
X-46496Y73200D01*
X-62700Y51700D02*
Y60569D01*
X-60700Y62569D01*
X-84100Y112900D02*
X-79903Y108703D01*
X-80614Y107003D02*
X-59303D01*
X-56219Y103919D01*
X-86534Y112923D02*
X-80614Y107003D01*
X48100Y23046D02*
X55587D01*
X41570Y82469D02*
Y95319D01*
X38211Y86989D02*
Y90592D01*
X39590Y84371D02*
Y85610D01*
X38211Y86989D02*
X39590Y85610D01*
X39602Y82469D02*
Y84359D01*
X39590Y84371D02*
X39602Y84359D01*
X37014Y83600D02*
X37900Y82714D01*
X29900Y85900D02*
X32200Y83600D01*
X37014D01*
X29900Y85900D02*
Y92303D01*
X59287Y78481D02*
Y82469D01*
X55080Y89543D02*
X61140D01*
X53381Y87843D02*
X55080Y89543D01*
X61683Y92286D02*
Y96117D01*
X60834Y91437D02*
X61683Y92286D01*
X53608Y91437D02*
X60834D01*
X47476Y78546D02*
Y82469D01*
X45500Y88300D02*
X46900Y89700D01*
X45500Y82477D02*
Y88300D01*
X46900Y89700D02*
Y95100D01*
X48000Y96200D01*
X49444Y82469D02*
Y90344D01*
X53004Y93904D01*
X61600Y96200D02*
X61683Y96117D01*
X19522Y111622D02*
X32178D01*
X53004Y93904D02*
X55149D01*
X80131Y68690D02*
X83179Y71737D01*
X67161Y68690D02*
X80131D01*
X-50387Y34881D02*
X-46819D01*
X-51648Y36143D02*
X-50387Y34881D01*
X-54500Y36143D02*
X-51648D01*
X-54495Y38105D02*
X-48100D01*
X-49900Y41900D02*
X-48100D01*
X-51720Y40080D02*
X-49900Y41900D01*
X-62788Y34112D02*
X-60231D01*
X-60169Y34174D01*
X-64400Y32500D02*
X-62788Y34112D01*
X48062Y63365D02*
X48064Y63364D01*
X48059Y63368D02*
X48062Y63365D01*
X27537Y73258D02*
X28031Y72764D01*
X27537Y73258D02*
Y74487D01*
X78900Y91900D02*
X83000Y96000D01*
X78900Y87700D02*
Y91900D01*
X83000Y96000D02*
X109500D01*
X35600Y200D02*
X39600Y4200D01*
Y17184D01*
X42116Y19700D01*
X49300D02*
X55387D01*
X22218Y66721D02*
X33696D01*
X4578Y60944D02*
X4601Y60967D01*
X21300Y60816D02*
X33696D01*
X4601Y60967D02*
X21149D01*
X21300Y60816D01*
X15384Y62784D02*
X33696D01*
X10429Y67740D02*
X15384Y62784D01*
X10429Y67740D02*
Y68137D01*
X9428Y69137D02*
X10429Y68137D01*
X53381Y82469D02*
Y87843D01*
X51413Y89242D02*
X53608Y91437D01*
X-88930Y199510D02*
X-88919Y197519D01*
X67308Y76694D02*
X68194D01*
X70100Y159600D02*
Y162400D01*
X70850Y163150D01*
X45500Y82477D02*
X45507Y82469D01*
X78061Y72631D02*
X79200D01*
X77808Y72377D02*
X78061Y72631D01*
X86783Y74520D02*
Y75483D01*
X87700Y76400D02*
X89100D01*
X78796Y73877D02*
X79439Y74520D01*
X48064Y63364D02*
X53527Y57900D01*
X21500Y67286D02*
Y68630D01*
X20500Y69630D02*
X21500Y68630D01*
X53527Y57900D02*
X54500D01*
X51413Y82469D02*
Y89242D01*
X51413Y49005D02*
Y57200D01*
X33696Y66721D02*
X35598Y66742D01*
X35605D01*
X42589Y66815D02*
X44706Y66721D01*
X67178Y76564D02*
X67308Y76694D01*
X67161Y76564D02*
X67178D01*
X79583Y66721D02*
X80567Y65737D01*
X83529Y61640D02*
X84528Y60640D01*
Y60537D02*
Y60640D01*
X67161Y64753D02*
X79147D01*
X82260Y61640D01*
X80567Y65737D02*
X83929D01*
X67161Y66721D02*
X79583D01*
X82260Y61640D02*
X83529D01*
X83179Y71737D02*
X83429D01*
X78119Y72700D02*
X78900D01*
X76078Y70658D02*
X78119Y72700D01*
X67161Y70658D02*
X76078D01*
X-54500Y40080D02*
X-51720D01*
X27000Y58847D02*
X33696D01*
X26500Y75524D02*
X27537Y74487D01*
X26500Y75524D02*
Y75700D01*
X31729Y72715D02*
X32255Y72189D01*
Y72100D02*
Y72189D01*
X32282Y76564D02*
X33696D01*
X32152Y76694D02*
X32282Y76564D01*
X32152Y76694D02*
Y78108D01*
X51413Y82469D02*
X51413Y82469D01*
X67161Y72627D02*
X73196D01*
D13*
X80892Y18145D02*
G03*
X81087Y18284I-362J714D01*
G01*
X30977Y27494D02*
G03*
X32893Y26700I1917J1917D01*
G01*
X45507Y46545D02*
G03*
X47352Y44700I1845J0D01*
G01*
X93079Y29952D02*
Y41740D01*
X81087Y18284D02*
X91874Y28748D01*
X93079Y29952D01*
X-86500Y59700D02*
Y75757D01*
X-88200Y58300D02*
Y76900D01*
X-61700Y103400D01*
X-89900Y78100D02*
X-77811Y90188D01*
X-89900Y57300D02*
Y78100D01*
X-86500Y75757D02*
X-62757Y99500D01*
X-86500Y59700D02*
X-81300Y54500D01*
X-88200Y58300D02*
X-82800Y52900D01*
X-89900Y57300D02*
X-85200Y52600D01*
X-81300Y24300D02*
X-81300D01*
X-87755Y30755D02*
Y48935D01*
Y30755D02*
X-81300Y24300D01*
X-81300Y32026D02*
X-73137Y23863D01*
X-81300Y32026D02*
Y54500D01*
X39600Y36774D02*
Y48305D01*
Y36774D02*
X43400Y32974D01*
X38800Y48203D02*
X39251Y48654D01*
X39330Y48575D02*
X39600Y48305D01*
X39251Y48654D02*
X39602Y49005D01*
X38900D02*
X39251Y48654D01*
X39330Y48575D01*
X-63000Y84500D02*
X-39000Y60500D01*
X-10626D02*
X-2526Y52400D01*
X-39000Y60500D02*
X-10626D01*
X-11300Y57800D02*
X-2569Y49069D01*
X-37300Y57800D02*
X-11300D01*
X-40678Y55381D02*
X-12181D01*
X-3560Y46760D01*
X-7076Y25942D02*
Y46398D01*
Y25942D02*
X-1834Y20700D01*
X-2526Y52400D02*
X9349D01*
X-3560Y46760D02*
X10909D01*
X9349Y52400D02*
X14549Y47200D01*
X-85200Y46100D02*
Y52600D01*
X-2569Y49069D02*
X5644D01*
X53758Y4400D02*
X80892Y18145D01*
X72876Y45045D02*
X73016Y44864D01*
X72278Y44237D02*
X73700D01*
X73073Y44864D02*
X73700Y44237D01*
X-43100Y53100D02*
X-31935D01*
X-13200Y34365D01*
Y34365D02*
Y34365D01*
X-6152Y15474D02*
X2274D01*
X3219Y16419D02*
X12450D01*
X2274Y15474D02*
X3219Y16419D01*
X25400Y119050D02*
X25962Y118488D01*
X25400Y119050D02*
Y119300D01*
X19400Y122800D02*
Y124800D01*
Y122800D02*
X20000Y122200D01*
X19400Y124800D02*
Y125300D01*
X19300Y124800D02*
Y130200D01*
X19400Y130300D01*
X-35025Y14500D02*
X-30463Y19062D01*
X15661D01*
X17600Y17123D01*
X90219Y44600D02*
X93079Y41740D01*
X18900Y20700D02*
X22600Y17000D01*
Y-2100D02*
Y17000D01*
X-1834Y20700D02*
X18900D01*
X14549Y47200D02*
X25300D01*
X31800Y40700D01*
Y37900D02*
Y40700D01*
X-44900Y50800D02*
X-32861D01*
X-18880Y36820D01*
X16519Y49000D02*
X38800D01*
X13684Y51835D02*
Y54716D01*
Y51835D02*
X16519Y49000D01*
X43539Y44274D02*
X45452Y42361D01*
X47570D01*
X48097Y41833D01*
X43539Y44274D02*
Y47103D01*
X56923Y87700D02*
X67000D01*
X69200Y89900D02*
Y95966D01*
X67000Y87700D02*
X69200Y89900D01*
X88876Y159900D02*
X90000D01*
X69129Y96037D02*
X69200Y95966D01*
X70462Y75062D02*
Y78862D01*
X71500Y79900D01*
X69995Y74595D02*
X70462Y75062D01*
X71500Y79900D02*
X78900D01*
X67161Y74595D02*
X69995D01*
X78900Y79900D02*
X79200D01*
X67161Y74595D02*
X67391Y74825D01*
X47476Y49005D02*
Y52816D01*
X39671Y54091D02*
X46200D01*
X47476Y52816D01*
X-90136Y28936D02*
X-75700Y14500D01*
X-90136Y28936D02*
Y45881D01*
X58608Y42361D02*
X59781Y41187D01*
X56700Y26700D02*
X59781Y29781D01*
Y41187D01*
X41570Y42284D02*
X43614Y40240D01*
X41570Y42284D02*
Y49005D01*
X43614Y40240D02*
X44795D01*
X49100Y33500D02*
Y37117D01*
X44795Y40240D02*
X45616Y39420D01*
X46797D01*
X49100Y37117D01*
X56439Y43861D02*
X66555D01*
X55350Y44950D02*
Y49005D01*
Y44950D02*
X56439Y43861D01*
X67428Y42987D02*
X67678D01*
X66555Y43861D02*
X67428Y42987D01*
X9814Y58586D02*
X13684Y54716D01*
X45507Y46545D02*
Y49005D01*
X47352Y44700D02*
X51812Y40240D01*
X55110Y32760D02*
X55410D01*
X45507Y49005D02*
X45737Y48775D01*
X32893Y26700D02*
X56700D01*
X51961Y32760D02*
X55110D01*
X53300Y29300D02*
X53400D01*
X49100Y33500D02*
X53300Y29300D01*
X71860Y43818D02*
X72278Y44237D01*
X71860Y43441D02*
Y43818D01*
X70900Y45400D02*
X71650Y46150D01*
X57816Y45400D02*
X70900D01*
X51812Y40240D02*
X55110D01*
X48097Y41833D02*
X50600Y39330D01*
Y34121D02*
Y39330D01*
X48097Y41833D02*
Y41833D01*
X49493Y45925D02*
X53057Y42361D01*
X49493Y45925D02*
Y48956D01*
X53057Y42361D02*
X58608D01*
X49444Y49005D02*
X49493Y48956D01*
X57348Y45869D02*
Y48975D01*
Y45869D02*
X57816Y45400D01*
X57318Y49005D02*
X57348Y48975D01*
X50600Y34121D02*
X51961Y32760D01*
X73016Y44864D02*
X73073D01*
X72278Y45818D02*
X72876Y45045D01*
X-73500Y84500D02*
X-63000D01*
X-62757Y99500D02*
X-58600D01*
X-77811Y90188D02*
Y103700D01*
X-82800Y29026D02*
Y52900D01*
X-75700Y14500D02*
X-35025D01*
X-82800Y29026D02*
X-77137Y23363D01*
X-73800Y48400D02*
X-65100Y57100D01*
Y62200D01*
X-69481Y57319D02*
Y62181D01*
X-78000Y48800D02*
X-69481Y57319D01*
X-46700Y52600D02*
X-44900Y50800D01*
X69828Y94237D02*
Y95137D01*
X-66783Y36143D02*
X-60169D01*
X-69765Y33161D02*
X-66783Y36143D01*
X-69863Y40840D02*
X-67134Y38111D01*
X-60169D01*
X69800Y86200D02*
X77600Y94000D01*
Y96400D01*
X57787Y86200D02*
X69800D01*
X73837Y87600D02*
X79100D01*
X-49000Y93919D02*
Y95100D01*
X55350Y86127D02*
X56923Y87700D01*
X57318Y82469D02*
Y85731D01*
X57787Y86200D01*
X61255Y82469D02*
X68707D01*
X73837Y87600D01*
X61485Y83837D02*
Y84471D01*
X55350Y82469D02*
Y86127D01*
X26900Y29900D02*
Y31500D01*
X-54500Y38111D02*
X-54495Y38105D01*
X-55131Y36131D02*
X-55100Y36100D01*
X27775Y30475D02*
X28300Y31000D01*
X27650Y30600D02*
X28050Y31000D01*
X28300D01*
X28550D01*
X61255Y83607D02*
X61485Y83837D01*
D25*
X16800Y168134D02*
D03*
D26*
X25796Y139866D02*
D03*
X7804D02*
D03*
D27*
X18500Y130300D02*
D03*
X24500D02*
D03*
Y125300D02*
D03*
X18500D02*
D03*
Y118900D02*
D03*
X24500D02*
D03*
X32600Y151800D02*
D03*
X38600D02*
D03*
X87900Y151200D02*
D03*
X93900D02*
D03*
X97800Y123300D02*
D03*
X91800D02*
D03*
X27400Y52663D02*
D03*
X21400D02*
D03*
X88900Y55600D02*
D03*
X82900D02*
D03*
X72896Y73627D02*
D03*
X78896D02*
D03*
X26500Y75700D02*
D03*
X20500D02*
D03*
X26500Y69630D02*
D03*
X20500D02*
D03*
X78528Y60537D02*
D03*
X84528D02*
D03*
X21500Y57600D02*
D03*
X27500D02*
D03*
X9428Y69137D02*
D03*
X15428D02*
D03*
D28*
X79928Y120537D02*
D03*
X44497D02*
D03*
D29*
X31000Y120000D02*
D03*
Y126000D02*
D03*
X74500Y19700D02*
D03*
Y25700D02*
D03*
X132000Y129400D02*
D03*
Y123400D02*
D03*
X68229Y42437D02*
D03*
Y36437D02*
D03*
X15096Y80127D02*
D03*
Y74127D02*
D03*
X9596Y80127D02*
D03*
Y74127D02*
D03*
X-99600Y212400D02*
D03*
Y206400D02*
D03*
X-38000Y231300D02*
D03*
Y225300D02*
D03*
X5800Y56500D02*
D03*
Y62500D02*
D03*
X73628Y45337D02*
D03*
Y39337D02*
D03*
X107400Y80400D02*
D03*
Y86400D02*
D03*
X27900Y30900D02*
D03*
Y36900D02*
D03*
X62828Y39437D02*
D03*
Y33437D02*
D03*
X83429Y71737D02*
D03*
Y65737D02*
D03*
X132000Y111900D02*
D03*
Y117900D02*
D03*
Y134900D02*
D03*
Y140900D02*
D03*
Y146400D02*
D03*
Y152400D02*
D03*
D30*
X36800Y140850D02*
D03*
Y127150D02*
D03*
D31*
X10300Y107526D02*
D03*
Y123274D02*
D03*
D32*
X65299Y171501D02*
D03*
X39945D02*
D03*
D33*
X6900Y213800D02*
D03*
X-21053D02*
D03*
D34*
X55110Y32760D02*
D03*
Y40240D02*
D03*
X44795D02*
D03*
Y36500D02*
D03*
Y32760D02*
D03*
X55110Y36500D02*
D03*
D35*
X-77737Y37100D02*
D03*
X-69863Y33360D02*
D03*
Y40840D02*
D03*
D36*
X16139Y7187D02*
D03*
X46061Y7187D02*
D03*
D37*
X26179Y18013D02*
D03*
X31100D02*
D03*
X36021Y18013D02*
D03*
D38*
X-10916Y127600D02*
D03*
X1116D02*
D03*
D39*
X55587Y16454D02*
D03*
Y19800D02*
D03*
Y23146D02*
D03*
X66413Y16454D02*
D03*
Y19800D02*
D03*
Y23146D02*
D03*
D40*
X-12932Y42758D02*
D03*
Y25042D02*
D03*
X20532D02*
D03*
Y42758D02*
D03*
D41*
X97214Y129800D02*
D03*
X86190D02*
D03*
X97214Y144700D02*
D03*
X86190D02*
D03*
D42*
X56000Y96200D02*
D03*
X48000D02*
D03*
X38100Y90903D02*
D03*
X30100D02*
D03*
X61600Y96200D02*
D03*
X69600D02*
D03*
D43*
X78900Y79700D02*
D03*
Y87700D02*
D03*
X101228D02*
D03*
Y79700D02*
D03*
X89529Y65737D02*
D03*
Y73737D02*
D03*
X86343Y87700D02*
D03*
Y79700D02*
D03*
X93786Y87700D02*
D03*
Y79700D02*
D03*
D44*
X-60169Y26300D02*
D03*
Y28269D02*
D03*
Y30237D02*
D03*
Y32206D02*
D03*
Y34174D02*
D03*
Y36143D02*
D03*
Y38111D02*
D03*
Y40080D02*
D03*
Y42048D02*
D03*
Y44017D02*
D03*
Y45985D02*
D03*
Y47954D02*
D03*
X-54500D02*
D03*
Y45985D02*
D03*
Y44017D02*
D03*
Y42048D02*
D03*
Y40080D02*
D03*
Y38111D02*
D03*
Y36143D02*
D03*
Y34174D02*
D03*
Y32206D02*
D03*
Y30237D02*
D03*
Y28269D02*
D03*
Y26300D02*
D03*
D45*
X-43666Y215580D02*
D03*
X-89571D02*
D03*
X-43666Y205737D02*
D03*
Y225422D02*
D03*
X-89571D02*
D03*
Y205737D02*
D03*
D46*
X123628Y174637D02*
D03*
Y165337D02*
D03*
D47*
X-46500Y61200D02*
D03*
X42000Y253800D02*
D03*
D48*
X-87272Y193700D02*
D03*
X-96328D02*
D03*
D49*
X50428Y65737D02*
D03*
D50*
X61255Y49005D02*
D03*
X59287D02*
D03*
X51413D02*
D03*
X39602Y82469D02*
D03*
X41570D02*
D03*
X43539D02*
D03*
X45507D02*
D03*
X47476D02*
D03*
X49444D02*
D03*
X51413D02*
D03*
X53381D02*
D03*
X55350D02*
D03*
X57318D02*
D03*
X59287D02*
D03*
X61255D02*
D03*
X57318Y49005D02*
D03*
X55350D02*
D03*
X53381D02*
D03*
X49444D02*
D03*
X47476D02*
D03*
X45507D02*
D03*
X43539D02*
D03*
X41570D02*
D03*
X39602D02*
D03*
D51*
X67161Y64753D02*
D03*
Y58847D02*
D03*
Y54910D02*
D03*
X33696D02*
D03*
Y56879D02*
D03*
Y66721D02*
D03*
X67161Y76564D02*
D03*
Y74595D02*
D03*
Y72627D02*
D03*
Y70658D02*
D03*
Y68690D02*
D03*
Y66721D02*
D03*
Y62784D02*
D03*
Y60816D02*
D03*
Y56879D02*
D03*
X33696Y58847D02*
D03*
Y60816D02*
D03*
Y62784D02*
D03*
Y64753D02*
D03*
Y68690D02*
D03*
Y70658D02*
D03*
Y72627D02*
D03*
Y74595D02*
D03*
Y76564D02*
D03*
D52*
X85970Y200600D02*
D03*
X91482D02*
D03*
X91456Y195400D02*
D03*
X85944D02*
D03*
X-58944Y240600D02*
D03*
X-64456D02*
D03*
D53*
X-35200Y207056D02*
D03*
Y201544D02*
D03*
D54*
X69600Y218600D02*
D03*
X25899D02*
D03*
D98*
X-63700Y181700D02*
G03*
X-61911Y176101I9657J0D01*
G01*
X-66350Y191750D02*
G03*
X-69126Y192900I-2776J-2776D01*
G01*
X-63700Y185352D02*
G03*
X-66350Y191750I-9048J0D01*
G01*
X-77000Y197217D02*
G03*
X-75966Y194729I3512J-0D01*
G01*
D02*
G03*
X-71564Y192900I4422J4432D01*
G01*
D02*
G03*
X-71537Y192900I19J6261D01*
G01*
X-61911Y176101D02*
G03*
X-60872Y174872I7868J5599D01*
G01*
X-71564Y192900D02*
X-69126D01*
X-63700Y181700D02*
Y185352D01*
X-77000Y197217D02*
X-77000Y224400D01*
X-71930Y192900D02*
X-71564D01*
X-60872Y174872D02*
X-55800Y169800D01*
X43959Y120000D02*
X44497Y120537D01*
X31000Y120000D02*
X43959D01*
X125700Y113057D02*
X126857Y111900D01*
X69129Y96037D02*
Y96237D01*
X-99500Y203200D02*
Y206400D01*
X126857Y111900D02*
X132000D01*
D99*
X-38629Y189146D02*
G03*
X-35700Y196217I-7071J7071D01*
G01*
X-44572Y186586D02*
G03*
X-38800Y188975I0J8168D01*
G01*
D02*
G03*
X-38796Y188978I-5772J5779D01*
G01*
X-44572Y186586D02*
G03*
X-51531Y183767I0J-10000D01*
G01*
D02*
G03*
X-51643Y183657I6959J-7181D01*
G01*
X-38796Y188978D02*
X-38629Y189146D01*
X125700Y132743D02*
X126041D01*
X117000Y135700D02*
X118032Y134668D01*
X-55900Y179400D02*
X-51643Y183657D01*
X-35700Y196217D02*
Y197300D01*
Y199600D01*
X117000Y120109D02*
X118459D01*
X117000Y104519D02*
X119697Y107216D01*
X119858D01*
X121009Y122659D02*
X125459D01*
X125700Y122900D01*
X118459Y120109D02*
X121009Y122659D01*
X125700Y142585D02*
Y142588D01*
X-16500Y147837D02*
X-16439Y147776D01*
D100*
X-20300Y5200D02*
X-13900D01*
X-27500Y12400D02*
X-20300Y5200D01*
X55200Y120900D02*
Y126006D01*
X51306Y129900D02*
X55200Y126006D01*
X38100Y90903D02*
Y102800D01*
X46600Y111300D01*
X38800Y151100D02*
X42600Y147300D01*
Y133200D02*
Y147300D01*
X38600Y151050D02*
Y151300D01*
X20000Y122200D02*
X26900D01*
X30700Y125950D02*
Y126000D01*
X29800Y125100D02*
X29850D01*
X30700Y125950D01*
X26900Y122200D02*
X29800Y125100D01*
X42600Y133200D02*
X45900Y129900D01*
X51306D01*
X26019Y7782D02*
X26099Y7861D01*
Y17933D01*
X36000Y7782D02*
X36021Y17513D01*
X36000Y7500D02*
Y7782D01*
X-27500Y16662D02*
Y16781D01*
Y16419D02*
Y16662D01*
X26099Y17933D02*
X26179Y18013D01*
X-27500Y12400D02*
Y16419D01*
X24669Y87531D02*
X31600Y80600D01*
X29030Y69800D02*
X30140Y68690D01*
X35605Y66742D02*
X42094Y66811D01*
X30800Y17413D02*
Y17800D01*
X30900Y17900D01*
X28900Y69800D02*
X29030D01*
X30140Y68690D02*
X33696D01*
X117000Y150100D02*
Y151291D01*
X19891Y24400D02*
X20532Y25042D01*
X7500Y24400D02*
X19891D01*
D101*
X-96300Y86300D02*
Y101300D01*
Y35700D02*
Y86300D01*
Y101300D02*
X-90500Y107100D01*
X26600Y100500D02*
X32000Y105900D01*
X9600Y100500D02*
X26600D01*
X9600Y80127D02*
Y100500D01*
X-35700Y197300D02*
X-35200Y197800D01*
X-71937Y192900D02*
X-71930Y192900D01*
X82800Y55592D02*
Y55700D01*
X78778Y59614D02*
X82800Y55592D01*
X27650Y36900D02*
X27900D01*
X23800Y37600D02*
X26950D01*
X27650Y36900D01*
X-96300Y35700D02*
X-93700Y33100D01*
X74500Y25700D02*
X78000D01*
X78600Y60466D02*
X78778Y60287D01*
Y59614D02*
Y60287D01*
X50428Y65737D02*
X55144Y61021D01*
X55500Y59800D02*
Y61066D01*
X55000Y59300D02*
X55500Y59800D01*
X55144Y61021D02*
X60579D01*
X50428Y65737D02*
X55300Y60866D01*
X-99600Y212150D02*
X-99100Y212650D01*
X-99900Y212150D02*
X-99600D01*
X-46905Y62500D02*
X-46700Y62295D01*
Y61200D02*
Y62295D01*
X-39978Y141800D02*
X-38800D01*
X21632Y42758D02*
X22974Y44100D01*
X-103000Y212400D02*
X-99700D01*
X115910Y120109D02*
X117000D01*
X-66074Y46850D02*
X-65799Y46576D01*
X80650Y106550D02*
Y110200D01*
X79300Y105200D02*
X80650Y106550D01*
X107750Y135250D02*
X109000Y134000D01*
X111925Y121525D02*
Y124975D01*
X129265Y146150D02*
X131750D01*
X132000Y146400D01*
X128100Y152400D02*
X132000D01*
X125700Y122900D02*
X125994Y123194D01*
X132000Y140900D02*
X135900D01*
X132000Y129400D02*
X135900D01*
X132000Y117900D02*
X135900D01*
X131794Y123194D02*
X132000Y123400D01*
X125994Y123194D02*
X131794D01*
X19042Y80114D02*
X20519Y78637D01*
X19042Y80114D02*
Y80127D01*
X20519Y76200D02*
Y78637D01*
X15096Y80127D02*
X19042D01*
D102*
X-8600Y200200D02*
Y237300D01*
X-20900Y242900D02*
X-14200D01*
X-8600Y237300D01*
X-56381Y186719D02*
Y238037D01*
X-59400Y183700D02*
X-56381Y186719D01*
X90000Y87700D02*
X93786D01*
X-94630Y182000D02*
Y186800D01*
X101900Y87637D02*
X105137D01*
X55100Y192800D02*
X55600Y192300D01*
X44105Y184500D02*
Y187205D01*
X26500Y75700D02*
Y78266D01*
X17428Y87337D02*
X26500Y78266D01*
D103*
X600Y58400D02*
Y65500D01*
X3000Y67900D02*
Y97400D01*
X600Y65500D02*
X3000Y67900D01*
X-75328Y44340D02*
X-72644D01*
X600Y58400D02*
X2500Y56500D01*
X-35200Y201544D02*
X-28800D01*
X18231Y52631D02*
X21368D01*
X21400Y52663D01*
X33600Y54910D02*
Y55750D01*
X33531Y52631D02*
Y54841D01*
X-63431Y94725D02*
X-63400D01*
X-63431Y94643D02*
Y94725D01*
X-67136Y90938D02*
X-63431Y94643D01*
X-36121Y18100D02*
X-33900Y20321D01*
Y30100D01*
X-53900Y18100D02*
X-36121D01*
X-66095Y27490D02*
X-65600Y26995D01*
X2500Y56500D02*
X5800D01*
X88969Y55531D02*
X91900D01*
X88713Y60900D02*
X91300D01*
X88418D02*
X88713D01*
X116500Y163000D02*
X118300D01*
X92888Y163025D02*
X92937Y162975D01*
X118300Y163000D02*
X125100Y156200D01*
X131900D01*
X88373Y60855D02*
X88418Y60900D01*
X66060Y16500D02*
X70200D01*
X28869Y69769D02*
X28900Y69800D01*
X26639Y69769D02*
X28869D01*
X26500Y69630D02*
X26639Y69769D01*
X33500Y52600D02*
X33531Y52631D01*
Y54841D02*
X33600Y54910D01*
X69014Y37969D02*
X69201D01*
X33500Y55850D02*
X33600Y55750D01*
X88900Y55600D02*
X88969Y55531D01*
X18885Y80284D02*
X18900Y80269D01*
X-35281Y201463D02*
X-35200Y201544D01*
X78528Y60537D02*
X78600Y60466D01*
X82800Y55700D02*
X82900Y55600D01*
X-65600Y26200D02*
Y26995D01*
X20450Y70497D02*
X20493Y74939D01*
Y75050D02*
X20500Y75700D01*
X20493Y74939D02*
Y75050D01*
X89529Y63072D02*
Y65737D01*
X69600Y96200D02*
X70000Y96600D01*
X-28800Y201544D02*
X-28471Y201873D01*
Y202337D01*
X9502Y215250D02*
X13174D01*
X45500Y221500D02*
X45531Y221469D01*
X-50148Y209737D02*
X-48248Y207837D01*
X-50148Y207637D02*
Y225800D01*
X-84303Y225368D02*
X-84272Y225337D01*
X-18071Y147138D02*
X-17887Y146953D01*
D104*
X88713Y60900D02*
X90250Y62437D01*
X88350Y60537D02*
X88713Y60900D01*
X37300Y258300D02*
X41500Y254100D01*
D105*
X31929Y81400D02*
X33628Y79700D01*
Y79337D02*
Y79700D01*
X111900Y144400D02*
X112900D01*
X113500Y145000D01*
Y145900D01*
X113600Y146700D02*
X117000Y150100D01*
D106*
X45500Y197350D02*
D03*
D107*
X55300Y138600D02*
D03*
D108*
X74250Y119393D02*
D03*
D109*
X63100Y128000D02*
D03*
D110*
X51900Y146900D02*
D03*
D111*
X-15950Y79003D02*
D03*
D112*
X-17000Y102750D02*
D03*
D113*
X42700Y159100D02*
D03*
D114*
X57850Y221000D02*
D03*
D115*
X56937Y225800D02*
D03*
D116*
X-46900Y208950D02*
D03*
D117*
X41237Y65787D02*
D03*
D118*
X86353Y218846D02*
D03*
D119*
X101303Y215493D02*
D03*
D120*
X13139Y191200D02*
D03*
D121*
X37418Y172450D02*
D03*
D122*
X32049Y194377D02*
D03*
D123*
X10300Y180300D02*
D03*
D124*
X24700Y118425D02*
D03*
D125*
X91600Y124000D02*
D03*
D126*
X-43500Y241200D02*
D03*
D127*
X53000Y244900D02*
D03*
D128*
X28250Y72680D02*
D03*
D129*
X66900Y78332D02*
D03*
D130*
X106075Y79750D02*
D03*
D131*
X27700Y242450D02*
D03*
D132*
X55654Y32820D02*
D03*
D133*
X67789Y42599D02*
D03*
D134*
X61237Y61152D02*
D03*
D135*
X73039Y44369D02*
D03*
D136*
X71839Y46100D02*
D03*
D137*
X-57385Y48277D02*
D03*
D138*
X9000Y109352D02*
D03*
D139*
X70689Y36350D02*
D03*
D140*
X68229Y38069D02*
D03*
D141*
X69800Y186800D02*
D03*
D142*
X32600Y207950D02*
D03*
D143*
X-85986Y207750D02*
D03*
D144*
X-18850Y136600D02*
D03*
D145*
X94400Y193950D02*
D03*
D146*
X99225Y180125D02*
D03*
D147*
X-67561Y240861D02*
D03*
D148*
X-57500Y231950D02*
D03*
D149*
X26516Y74165D02*
D03*
D150*
X108550Y119750D02*
D03*
D151*
Y147450D02*
D03*
D152*
X-81600Y209050D02*
D03*
D153*
X-22450Y219531D02*
D03*
D154*
X-43056Y207012D02*
D03*
D155*
X48917Y221500D02*
D03*
D156*
X93750Y156750D02*
D03*
D157*
X96150Y87950D02*
D03*
D158*
X73453Y39069D02*
D03*
D159*
X71744Y193100D02*
D03*
D160*
X99285Y210229D02*
D03*
D161*
X97229Y214814D02*
D03*
D162*
X93822Y205925D02*
D03*
D163*
X83813Y203850D02*
D03*
D164*
X-74172Y238072D02*
D03*
D165*
X-76200Y228387D02*
D03*
D166*
X94100Y100050D02*
D03*
D167*
X-41250Y231050D02*
D03*
D168*
X-44050Y236150D02*
D03*
D169*
X92550Y163025D02*
D03*
D170*
X-48769Y27450D02*
D03*
D171*
X-48971Y46322D02*
D03*
D172*
X-65800Y46649D02*
D03*
D173*
X31600Y18013D02*
D03*
D174*
X-57350Y25800D02*
D03*
D175*
X33500Y54500D02*
D03*
D176*
X92225Y135250D02*
D03*
D177*
X67200Y105200D02*
D03*
D178*
X130489Y112300D02*
D03*
D179*
X122950Y145900D02*
D03*
D180*
X124700Y134400D02*
D03*
D181*
X113450Y120250D02*
D03*
D182*
X122550Y123250D02*
D03*
D183*
X90890Y139550D02*
D03*
D184*
X38050Y223150D02*
D03*
D185*
X66650Y160700D02*
D03*
D186*
X15050Y24300D02*
D03*
D187*
X20482Y27428D02*
D03*
D188*
X-65900Y27300D02*
D03*
D189*
X72050Y131400D02*
D03*
D190*
X71300Y124769D02*
D03*
D191*
X85350Y113093D02*
D03*
D192*
X99800Y126800D02*
D03*
D193*
X88400Y128650D02*
D03*
D194*
X98200Y145150D02*
D03*
D195*
X98050Y148100D02*
D03*
D196*
X86300Y148100D02*
D03*
D197*
X-67011Y214300D02*
D03*
D198*
X-48900Y202950D02*
D03*
D199*
X-95050Y207450D02*
D03*
D200*
X-87350Y225550D02*
D03*
D201*
X-85600Y196210D02*
D03*
D202*
X90300Y187450D02*
D03*
D203*
X-87350Y193650D02*
D03*
D204*
X94150Y179850D02*
D03*
D205*
X113075Y174750D02*
D03*
D206*
X94200Y111300D02*
D03*
D207*
X88373Y60855D02*
D03*
D208*
X90150Y63200D02*
D03*
D209*
X89900Y159100D02*
D03*
D210*
X-94900Y187750D02*
D03*
D211*
X-34350Y223900D02*
D03*
D212*
X-36050Y212300D02*
D03*
D213*
X-50050Y219000D02*
D03*
D214*
X-12850Y152500D02*
D03*
D215*
X55500Y212950D02*
D03*
D216*
X51850Y231950D02*
D03*
D217*
X78964Y219252D02*
D03*
D218*
X87805Y227406D02*
D03*
D219*
X70250Y210900D02*
D03*
D220*
X64900Y236050D02*
D03*
D221*
X51850Y240000D02*
D03*
D222*
X33250Y239500D02*
D03*
D223*
X27791Y220800D02*
D03*
D224*
X6250Y215600D02*
D03*
D225*
X-46450Y196650D02*
D03*
D226*
X13200Y170200D02*
D03*
D227*
X5000Y203300D02*
D03*
D228*
X-66300Y227542D02*
D03*
D229*
X21300Y58575D02*
D03*
D230*
X20350Y72000D02*
D03*
D231*
X90950Y76419D02*
D03*
D232*
X82321Y75450D02*
D03*
D233*
X84991Y77200D02*
D03*
D234*
X27450Y55150D02*
D03*
D235*
X27750Y69650D02*
D03*
D236*
X38900Y49005D02*
D03*
D237*
X83807Y193950D02*
D03*
D238*
X70300Y19750D02*
D03*
D239*
X-65715Y27250D02*
D03*
D240*
X23075Y30800D02*
D03*
D241*
X5829Y62450D02*
D03*
D242*
X-37050Y235300D02*
D03*
D243*
X-41250Y224841D02*
D03*
D244*
X-27100Y199400D02*
D03*
D245*
X72150Y174169D02*
D03*
D246*
X96225Y79400D02*
D03*
D247*
X41000Y184500D02*
D03*
D248*
X52800Y169600D02*
D03*
D249*
X88750Y170750D02*
D03*
D250*
X33229Y79169D02*
D03*
D251*
X33729Y71637D02*
D03*
D252*
X69500Y97350D02*
D03*
D253*
X54814Y96037D02*
D03*
D254*
X61614Y82437D02*
D03*
D255*
X15029Y71487D02*
D03*
D256*
X9478D02*
D03*
D257*
X-14200Y76789D02*
D03*
Y105135D02*
D03*
X-14700Y178694D02*
D03*
Y150347D02*
D03*
D258*
X125700Y112272D02*
D03*
D259*
Y122114D02*
D03*
Y131957D02*
D03*
Y141799D02*
D03*
D260*
X117000Y103732D02*
D03*
D261*
Y119323D02*
D03*
Y134913D02*
D03*
Y150504D02*
D03*
D262*
X-65799Y27678D02*
D03*
Y46576D02*
D03*
X-48870Y27678D02*
D03*
Y46576D02*
D03*
D263*
X-39000Y108919D02*
D03*
Y98919D02*
D03*
Y88919D02*
D03*
Y78919D02*
D03*
X-49000Y113919D02*
D03*
Y103919D02*
D03*
Y93919D02*
D03*
Y83919D02*
D03*
X-39000Y171680D02*
D03*
Y161680D02*
D03*
Y151680D02*
D03*
Y141680D02*
D03*
X-49000Y176680D02*
D03*
Y166680D02*
D03*
Y156680D02*
D03*
Y146680D02*
D03*
D264*
X0Y255906D02*
D03*
X110810Y191929D02*
D03*
X-110810D02*
D03*
Y63976D02*
D03*
X110810D02*
D03*
X0Y0D02*
D03*
D265*
X92400Y182700D02*
D03*
X95009D02*
D03*
X97618D02*
D03*
X-13900Y5200D02*
D03*
X32000Y105900D02*
D03*
X16600Y144900D02*
D03*
X14127D02*
D03*
X5500Y147700D02*
D03*
X-83900Y69600D02*
D03*
X7723Y122709D02*
D03*
Y120109D02*
D03*
X5161D02*
D03*
X14127Y139484D02*
D03*
Y142150D02*
D03*
X16600D02*
D03*
X-20900Y242900D02*
D03*
X-27808Y213695D02*
D03*
X-25316D02*
D03*
X-27808Y216387D02*
D03*
X-25316D02*
D03*
X-27808Y227171D02*
D03*
X-25316D02*
D03*
X-27808Y224479D02*
D03*
X-25316D02*
D03*
Y221787D02*
D03*
X-27808D02*
D03*
X-25316Y219095D02*
D03*
X-27808D02*
D03*
X-30300Y227171D02*
D03*
Y219072D02*
D03*
Y221772D02*
D03*
Y224471D02*
D03*
X58200Y132900D02*
D03*
X-84100Y181600D02*
D03*
X-83600Y64900D02*
D03*
X-72600Y64500D02*
D03*
X41500Y59400D02*
D03*
X75084Y55184D02*
D03*
X37000Y38000D02*
D03*
X-37300Y57800D02*
D03*
X-7076Y46398D02*
D03*
X1400Y192300D02*
D03*
X-94231Y218269D02*
D03*
X-65600Y104487D02*
D03*
X-37175Y48100D02*
D03*
X-32400Y42500D02*
D03*
X-40678Y55381D02*
D03*
X23700Y190489D02*
D03*
X26528D02*
D03*
X36900Y146200D02*
D03*
X26543Y169660D02*
D03*
Y172352D02*
D03*
Y175044D02*
D03*
X20971Y169660D02*
D03*
Y172352D02*
D03*
Y175044D02*
D03*
X23772Y169660D02*
D03*
Y172352D02*
D03*
Y175044D02*
D03*
X26528Y182413D02*
D03*
Y185105D02*
D03*
Y187797D02*
D03*
X23700D02*
D03*
Y185105D02*
D03*
Y182413D02*
D03*
X-30300Y216400D02*
D03*
Y213671D02*
D03*
X50550Y116700D02*
D03*
X47800D02*
D03*
X45050D02*
D03*
X42300D02*
D03*
X28100Y131000D02*
D03*
X30681Y114603D02*
D03*
X46100Y133800D02*
D03*
X46600Y111300D02*
D03*
X16600Y139400D02*
D03*
X5600Y131480D02*
D03*
X32281Y147700D02*
D03*
X-18501Y198428D02*
D03*
X-8600Y200200D02*
D03*
X-25400Y205500D02*
D03*
X90219Y44600D02*
D03*
X53758Y4400D02*
D03*
X22600Y-2100D02*
D03*
X-289Y229900D02*
D03*
X30800Y45000D02*
D03*
X-18880Y36820D02*
D03*
X-13200Y34365D02*
D03*
X64900Y91100D02*
D03*
X53900Y54000D02*
D03*
X-27500Y16781D02*
D03*
X46900Y89700D02*
D03*
X-6152Y15474D02*
D03*
X78000Y179700D02*
D03*
X-99500Y203200D02*
D03*
X61271Y64174D02*
D03*
X61200Y57100D02*
D03*
X58035D02*
D03*
X21600Y37700D02*
D03*
X24300D02*
D03*
X33500Y45000D02*
D03*
X-85474Y32100D02*
D03*
X-87755Y48935D02*
D03*
X-93169Y45460D02*
D03*
X-90136Y45881D02*
D03*
X-93169Y51500D02*
D03*
X62828Y33437D02*
D03*
X57500Y32760D02*
D03*
X71700Y33700D02*
D03*
X77500Y33900D02*
D03*
X18231Y52631D02*
D03*
X47352Y44700D02*
D03*
X78000Y25700D02*
D03*
X59338Y20138D02*
D03*
X71700Y36154D02*
D03*
X88444Y34600D02*
D03*
X53400Y29300D02*
D03*
X71860Y43441D02*
D03*
X56300Y36500D02*
D03*
X45095D02*
D03*
X39671Y54091D02*
D03*
X65600Y37319D02*
D03*
X26019Y7782D02*
D03*
X12450Y16419D02*
D03*
X87200Y76419D02*
D03*
X92200D02*
D03*
X54800Y64219D02*
D03*
X58035D02*
D03*
X61200Y54100D02*
D03*
X-88800Y103700D02*
D03*
X-86534Y123362D02*
D03*
X-89500Y122600D02*
D03*
X-89300Y96100D02*
D03*
X-90500Y107100D02*
D03*
X-46700Y61200D02*
D03*
X-27734Y36366D02*
D03*
X-33900Y30100D02*
D03*
X-37000Y22626D02*
D03*
X-21132Y27869D02*
D03*
X-53900Y18100D02*
D03*
X-73137Y23863D02*
D03*
X-77137Y23363D02*
D03*
X-81300Y24300D02*
D03*
X-87039Y90800D02*
D03*
X-73500Y84500D02*
D03*
X-43100Y53100D02*
D03*
X-65100Y62200D02*
D03*
X-60700Y62569D02*
D03*
X-77811Y103722D02*
D03*
X-73800Y48400D02*
D03*
X-77710Y32947D02*
D03*
X-96300Y86300D02*
D03*
X-69481Y62181D02*
D03*
X-67136Y90938D02*
D03*
X-62700Y51700D02*
D03*
X-78000Y48800D02*
D03*
X-96200Y120600D02*
D03*
X-92460Y126619D02*
D03*
X-58600Y99500D02*
D03*
X-46700Y52600D02*
D03*
X-40678Y70441D02*
D03*
X31800Y37900D02*
D03*
X30977Y27494D02*
D03*
X-85200Y46100D02*
D03*
X-72600Y44340D02*
D03*
X-93700Y33100D02*
D03*
X-87200Y132500D02*
D03*
X12623Y111800D02*
D03*
X7500D02*
D03*
X10061D02*
D03*
X7500Y114400D02*
D03*
X10061D02*
D03*
X12623D02*
D03*
X6300Y94319D02*
D03*
X9600Y100500D02*
D03*
X41081Y96500D02*
D03*
X5161Y122709D02*
D03*
X32300Y53259D02*
D03*
X57400Y54014D02*
D03*
X65319Y192100D02*
D03*
X62900D02*
D03*
X-84500Y132500D02*
D03*
X-79400Y145750D02*
D03*
X-98200Y135700D02*
D03*
Y138650D02*
D03*
X58200Y250285D02*
D03*
X67900Y248200D02*
D03*
X62900D02*
D03*
X65400D02*
D03*
X72800Y245500D02*
D03*
Y243000D02*
D03*
X70500Y243300D02*
D03*
Y245800D02*
D03*
X55700Y240900D02*
D03*
X58200D02*
D03*
X69500Y227200D02*
D03*
Y229626D02*
D03*
Y233300D02*
D03*
Y238160D02*
D03*
Y235730D02*
D03*
X47400Y255700D02*
D03*
X52400D02*
D03*
X49900D02*
D03*
X64500Y233300D02*
D03*
X53222D02*
D03*
X67000Y235730D02*
D03*
X64500Y238160D02*
D03*
X50610Y233300D02*
D03*
X55700Y252712D02*
D03*
X67000Y238160D02*
D03*
X53222Y235726D02*
D03*
X58200Y247859D02*
D03*
X45387Y233300D02*
D03*
X55700Y250285D02*
D03*
X64500Y235730D02*
D03*
X47999Y235726D02*
D03*
X67000Y233300D02*
D03*
X45387Y235726D02*
D03*
X47999Y233300D02*
D03*
X50610Y235726D02*
D03*
X58200Y252712D02*
D03*
X55700Y247859D02*
D03*
X-73500Y167900D02*
D03*
X67000Y229626D02*
D03*
Y227200D02*
D03*
X64500Y229626D02*
D03*
Y227200D02*
D03*
X24280Y204600D02*
D03*
Y207292D02*
D03*
Y209984D02*
D03*
X-103000Y212400D02*
D03*
X-61500Y160800D02*
D03*
X67161Y79500D02*
D03*
X-42100Y48100D02*
D03*
X-46600Y22400D02*
D03*
X-49600D02*
D03*
X-82100Y148400D02*
D03*
Y143000D02*
D03*
Y145750D02*
D03*
X-79400Y148400D02*
D03*
Y157481D02*
D03*
X-77303Y165240D02*
D03*
X-98200Y144550D02*
D03*
Y141600D02*
D03*
Y147500D02*
D03*
Y150450D02*
D03*
Y153400D02*
D03*
X100300Y44800D02*
D03*
X97000Y48800D02*
D03*
X-95800Y175500D02*
D03*
X-50381Y34881D02*
D03*
X-68150Y39226D02*
D03*
Y34874D02*
D03*
X-48100Y38100D02*
D03*
X-64400Y32500D02*
D03*
X37300Y258300D02*
D03*
X127700Y162900D02*
D03*
X96900Y191500D02*
D03*
X87100Y230900D02*
D03*
X88900Y229100D02*
D03*
X90600Y227300D02*
D03*
X92300Y225500D02*
D03*
X94100Y223700D02*
D03*
X85300Y232700D02*
D03*
X103400Y211900D02*
D03*
X101550Y213750D02*
D03*
X99700Y215600D02*
D03*
X97850Y217450D02*
D03*
X97618Y180200D02*
D03*
X100226D02*
D03*
X92400D02*
D03*
X95009D02*
D03*
X101600Y201600D02*
D03*
X103400Y203400D02*
D03*
X105100Y205200D02*
D03*
X103100Y207000D02*
D03*
X26000Y252742D02*
D03*
X23400D02*
D03*
X26000Y250312D02*
D03*
X23400D02*
D03*
X-84200Y224240D02*
D03*
Y226780D02*
D03*
X99680Y219280D02*
D03*
X101530Y217430D02*
D03*
X96900Y194000D02*
D03*
X101400Y205200D02*
D03*
X87400Y204200D02*
D03*
Y206700D02*
D03*
X84700D02*
D03*
Y204200D02*
D03*
X97786Y159400D02*
D03*
X100471D02*
D03*
X103157D02*
D03*
X77600Y96400D02*
D03*
X-42100Y242600D02*
D03*
Y240000D02*
D03*
X-63400Y94800D02*
D03*
X95100Y159400D02*
D03*
X35600Y200D02*
D03*
X2500Y24558D02*
D03*
X9814Y58586D02*
D03*
X41500Y66319D02*
D03*
X58035Y66825D02*
D03*
X54800Y66800D02*
D03*
X91300Y60900D02*
D03*
X49300Y19700D02*
D03*
X48100Y23046D02*
D03*
X60200Y12700D02*
D03*
X32500Y15327D02*
D03*
X32600Y21100D02*
D03*
X17600Y17123D02*
D03*
X36000Y7782D02*
D03*
X29400D02*
D03*
X32700D02*
D03*
X42116Y19700D02*
D03*
X70200Y16500D02*
D03*
X-61700Y103400D02*
D03*
X90000Y89400D02*
D03*
X-22500Y24600D02*
D03*
X-18750D02*
D03*
X29200Y69900D02*
D03*
X5644Y49069D02*
D03*
X10909Y46760D02*
D03*
X19500Y111622D02*
D03*
X47476Y78546D02*
D03*
X59273Y78481D02*
D03*
X91900Y55500D02*
D03*
X-88800Y200500D02*
D03*
X-37300Y73200D02*
D03*
X-39557Y235300D02*
D03*
X-36900D02*
D03*
X-59400Y183700D02*
D03*
X-55900Y179400D02*
D03*
X-83900Y175500D02*
D03*
X34600Y86100D02*
D03*
X27300Y26700D02*
D03*
X131900Y156200D02*
D03*
X128100Y152400D02*
D03*
X135900Y140900D02*
D03*
Y129400D02*
D03*
Y117900D02*
D03*
X109500Y96000D02*
D03*
Y104300D02*
D03*
X81000Y135400D02*
D03*
X78300D02*
D03*
X7500Y24400D02*
D03*
X76300Y159400D02*
D03*
X75666Y131633D02*
D03*
X73000D02*
D03*
X89100Y126800D02*
D03*
X91600D02*
D03*
X103402Y126200D02*
D03*
Y128700D02*
D03*
Y131200D02*
D03*
X50000Y102000D02*
D03*
X55100Y106900D02*
D03*
X103400Y148400D02*
D03*
Y145900D02*
D03*
Y143400D02*
D03*
X80650Y110200D02*
D03*
X16400Y114603D02*
D03*
X-81472Y210737D02*
D03*
X-85900Y192100D02*
D03*
Y194802D02*
D03*
X-52500Y203400D02*
D03*
X-72469Y198781D02*
D03*
X-55800Y169800D02*
D03*
X103380Y215580D02*
D03*
X105230Y213730D02*
D03*
X96900Y196500D02*
D03*
X-69600Y214697D02*
D03*
X-96000Y186800D02*
D03*
Y183850D02*
D03*
X-88500Y194802D02*
D03*
Y192100D02*
D03*
X106200Y89400D02*
D03*
X103400Y109700D02*
D03*
Y107000D02*
D03*
Y104300D02*
D03*
X100700Y109700D02*
D03*
Y107000D02*
D03*
Y104300D02*
D03*
X94600Y73000D02*
D03*
Y75500D02*
D03*
X89700Y76419D02*
D03*
X64800Y110200D02*
D03*
X-48700Y203400D02*
D03*
Y200700D02*
D03*
X-45900D02*
D03*
Y198000D02*
D03*
Y195300D02*
D03*
Y192600D02*
D03*
X-48700D02*
D03*
Y195300D02*
D03*
Y198000D02*
D03*
X45531Y224247D02*
D03*
X120100Y168500D02*
D03*
X127500D02*
D03*
X83300Y231100D02*
D03*
X74200Y221800D02*
D03*
X70100Y159600D02*
D03*
X92414Y159400D02*
D03*
X89728D02*
D03*
X87043D02*
D03*
X84357D02*
D03*
X81671D02*
D03*
X78986D02*
D03*
X80100Y154300D02*
D03*
Y151700D02*
D03*
X75100Y110200D02*
D03*
X62274D02*
D03*
X59773D02*
D03*
X67273D02*
D03*
X69774D02*
D03*
Y112866D02*
D03*
X67273D02*
D03*
X59773D02*
D03*
X62274D02*
D03*
X64773D02*
D03*
X45387Y230800D02*
D03*
Y228300D02*
D03*
X40751Y235730D02*
D03*
X38321D02*
D03*
X35891D02*
D03*
X33461D02*
D03*
X31030D02*
D03*
X23400Y247882D02*
D03*
Y245451D02*
D03*
Y243021D02*
D03*
Y240591D02*
D03*
Y238160D02*
D03*
Y235730D02*
D03*
Y233300D02*
D03*
X-72469Y212040D02*
D03*
Y201413D02*
D03*
Y206727D02*
D03*
Y204070D02*
D03*
Y209384D02*
D03*
X-49000Y230000D02*
D03*
Y227343D02*
D03*
Y224687D02*
D03*
X-51500D02*
D03*
Y227343D02*
D03*
Y230000D02*
D03*
X-65427Y224757D02*
D03*
Y230070D02*
D03*
Y227414D02*
D03*
Y232727D02*
D03*
X-68148Y224757D02*
D03*
Y227414D02*
D03*
Y230070D02*
D03*
Y232727D02*
D03*
X-61600Y208300D02*
D03*
X-69600Y198757D02*
D03*
Y201413D02*
D03*
Y204070D02*
D03*
Y206727D02*
D03*
Y212040D02*
D03*
Y209384D02*
D03*
X-61719Y212760D02*
D03*
X64800Y203300D02*
D03*
Y200750D02*
D03*
Y198200D02*
D03*
X67500D02*
D03*
Y200750D02*
D03*
Y203300D02*
D03*
X70200Y198300D02*
D03*
Y200800D02*
D03*
Y203300D02*
D03*
X72900D02*
D03*
Y200800D02*
D03*
Y198300D02*
D03*
X92100Y222100D02*
D03*
X90300Y223900D02*
D03*
X88600Y225700D02*
D03*
X86900Y227500D02*
D03*
X85100Y229300D02*
D03*
X76000Y220000D02*
D03*
X77800Y218200D02*
D03*
X79600Y216500D02*
D03*
X81400Y214800D02*
D03*
X79600Y216500D02*
D03*
X-32000Y201937D02*
D03*
X80650Y179700D02*
D03*
X75350D02*
D03*
X67400D02*
D03*
X70050D02*
D03*
X72700D02*
D03*
X83300D02*
D03*
Y182200D02*
D03*
X72700D02*
D03*
X70050D02*
D03*
X67400D02*
D03*
X51500Y208100D02*
D03*
X47999Y228300D02*
D03*
Y230800D02*
D03*
X54800Y211900D02*
D03*
Y214400D02*
D03*
X57400Y211900D02*
D03*
Y214400D02*
D03*
X99600Y203400D02*
D03*
X11862Y229900D02*
D03*
X9432D02*
D03*
X7001D02*
D03*
X4571D02*
D03*
X2141D02*
D03*
X26000Y233300D02*
D03*
Y235730D02*
D03*
Y238160D02*
D03*
Y240591D02*
D03*
Y243021D02*
D03*
Y245451D02*
D03*
Y247882D02*
D03*
X28600D02*
D03*
Y245451D02*
D03*
Y243021D02*
D03*
Y240591D02*
D03*
Y238160D02*
D03*
Y235730D02*
D03*
X31030Y233300D02*
D03*
X28600D02*
D03*
X33461D02*
D03*
X35891D02*
D03*
X38321D02*
D03*
X40751D02*
D03*
X26880Y209984D02*
D03*
Y207292D02*
D03*
Y204600D02*
D03*
X20700Y207000D02*
D03*
X14200Y220900D02*
D03*
X20700Y209383D02*
D03*
X3000Y97400D02*
D03*
X18200Y175044D02*
D03*
Y172352D02*
D03*
Y169660D02*
D03*
X15400Y175044D02*
D03*
Y172352D02*
D03*
Y169660D02*
D03*
X12629D02*
D03*
Y172352D02*
D03*
Y175044D02*
D03*
X4116Y200324D02*
D03*
X1624D02*
D03*
X6608D02*
D03*
X4116Y203016D02*
D03*
X1624D02*
D03*
X6608D02*
D03*
Y205708D02*
D03*
X1624D02*
D03*
X4116D02*
D03*
X6608Y208400D02*
D03*
Y214284D02*
D03*
Y211292D02*
D03*
X4116D02*
D03*
Y214284D02*
D03*
X1624Y211292D02*
D03*
Y214284D02*
D03*
X4116Y208400D02*
D03*
X14292Y229900D02*
D03*
X48783Y168600D02*
D03*
X51392D02*
D03*
X54001Y168609D02*
D03*
X56609D02*
D03*
X51392Y175181D02*
D03*
X48783D02*
D03*
X54001D02*
D03*
X51392Y171890D02*
D03*
X48783D02*
D03*
X54001D02*
D03*
X94700Y168609D02*
D03*
X92091D02*
D03*
Y171890D02*
D03*
X94700D02*
D03*
X89482Y168600D02*
D03*
X86874D02*
D03*
X98000Y104300D02*
D03*
X95300D02*
D03*
X92600D02*
D03*
X89900D02*
D03*
X87200D02*
D03*
X84500D02*
D03*
X95300Y109700D02*
D03*
X84500Y107000D02*
D03*
X87200D02*
D03*
X89900D02*
D03*
X92600D02*
D03*
X95300D02*
D03*
X98000D02*
D03*
Y109700D02*
D03*
X75100Y112866D02*
D03*
X-96000Y180900D02*
D03*
X-61719Y215300D02*
D03*
X85600Y145000D02*
D03*
X75350Y182200D02*
D03*
X78000D02*
D03*
X80650D02*
D03*
X123628Y165337D02*
D03*
X-48100Y41900D02*
D03*
X45500Y221600D02*
D03*
X38605Y215094D02*
D03*
Y210094D02*
D03*
X1624Y208400D02*
D03*
X37100Y184500D02*
D03*
X44905Y181200D02*
D03*
X42279D02*
D03*
Y184500D02*
D03*
X39752Y181228D02*
D03*
X37100Y187800D02*
D03*
X39752Y184529D02*
D03*
X44905Y187800D02*
D03*
X37100Y181200D02*
D03*
X39652Y187829D02*
D03*
X42279Y187800D02*
D03*
X44905Y184500D02*
D03*
X56609Y171890D02*
D03*
Y175181D02*
D03*
X24600Y87600D02*
D03*
X89482Y175181D02*
D03*
X86874D02*
D03*
Y171890D02*
D03*
X89482D02*
D03*
X-29272Y201937D02*
D03*
X17328Y87337D02*
D03*
M02*
