G04*
G04 #@! TF.GenerationSoftware,Altium Limited,Altium Designer,22.0.2 (36)*
G04*
G04 Layer_Color=255*
%FSLAX25Y25*%
%MOIN*%
G70*
G04*
G04 #@! TF.SameCoordinates,03AFB46A-AB1F-498B-8AA6-452B2CF56A70*
G04*
G04*
G04 #@! TF.FilePolarity,Positive*
G04*
G01*
G75*
%ADD26R,0.03500X0.03000*%
%ADD27R,0.22835X0.24410*%
%ADD28R,0.06299X0.11811*%
%ADD29R,0.09843X0.06693*%
%ADD30R,0.17717X0.06496*%
%ADD31R,0.00787X0.00787*%
%ADD32R,0.02559X0.03819*%
%ADD33R,0.04000X0.06000*%
%ADD34R,0.04173X0.07165*%
%ADD35R,0.03000X0.03500*%
%ADD36R,0.10984X0.10118*%
%ADD37R,0.15748X0.07874*%
%ADD38R,0.04803X0.02441*%
%ADD39R,0.08268X0.11811*%
%ADD40R,0.03150X0.05118*%
%ADD41R,0.03740X0.02362*%
%ADD42R,0.07874X0.05906*%
%ADD43R,0.04724X0.04724*%
%ADD44R,0.06000X0.04000*%
%ADD45R,0.03937X0.01181*%
%ADD46R,0.05118X0.04606*%
%ADD47P,0.06494X8X202.5*%
%ADD48P,0.06494X8X292.5*%
%ADD49R,0.03150X0.03543*%
%ADD50R,0.19685X0.19685*%
%ADD51R,0.01260X0.04803*%
%ADD52R,0.04803X0.01260*%
%ADD53R,0.02362X0.03150*%
%ADD54R,0.03150X0.02362*%
%ADD55R,0.10236X0.12598*%
%ADD262C,0.22835*%
%ADD263R,0.06260X0.06260*%
%ADD264C,0.06260*%
%ADD265R,0.10394X0.10394*%
%ADD266C,0.10394*%
%ADD267C,0.03937*%
%ADD268C,0.07087*%
%ADD269C,0.11811*%
D26*
X30900Y124900D02*
D03*
Y118900D02*
D03*
X74500Y19700D02*
D03*
Y25700D02*
D03*
X132000Y129400D02*
D03*
Y123400D02*
D03*
X68229Y42437D02*
D03*
Y36437D02*
D03*
X15096Y80127D02*
D03*
Y74127D02*
D03*
X9596Y80127D02*
D03*
Y74127D02*
D03*
X-99600Y212400D02*
D03*
Y206400D02*
D03*
X-38000Y231300D02*
D03*
Y225300D02*
D03*
X5800Y56500D02*
D03*
Y62500D02*
D03*
X73628Y45337D02*
D03*
Y39337D02*
D03*
X107400Y80400D02*
D03*
Y86400D02*
D03*
X27900Y30900D02*
D03*
Y36900D02*
D03*
X62828Y39437D02*
D03*
Y33437D02*
D03*
X83429Y71737D02*
D03*
Y65737D02*
D03*
X132000Y111900D02*
D03*
Y117900D02*
D03*
Y134900D02*
D03*
Y140900D02*
D03*
Y146400D02*
D03*
Y152400D02*
D03*
D27*
X16800Y170534D02*
D03*
D28*
X25796Y142266D02*
D03*
X7804D02*
D03*
D29*
X-53974Y246300D02*
D03*
X-38226D02*
D03*
D30*
X79929Y120537D02*
D03*
X44496D02*
D03*
D31*
X-69808Y39068D02*
D03*
Y35131D02*
D03*
X-70792Y37100D02*
D03*
D32*
X10300Y108550D02*
D03*
Y122250D02*
D03*
X36800Y140850D02*
D03*
Y127150D02*
D03*
D33*
X25200Y126500D02*
D03*
X17200D02*
D03*
X56000Y96200D02*
D03*
X48000D02*
D03*
X38100Y90903D02*
D03*
X30100D02*
D03*
X61600Y96200D02*
D03*
X69600D02*
D03*
D34*
X1116Y127600D02*
D03*
X-10916D02*
D03*
D35*
X24500Y132900D02*
D03*
X18500D02*
D03*
X87900Y151200D02*
D03*
X93900D02*
D03*
X97800Y123300D02*
D03*
X91800D02*
D03*
X27400Y52663D02*
D03*
X21400D02*
D03*
X88900Y55600D02*
D03*
X82900D02*
D03*
X72896Y73627D02*
D03*
X78896D02*
D03*
X26500Y75700D02*
D03*
X20500D02*
D03*
X26500Y69630D02*
D03*
X20500D02*
D03*
X78528Y60537D02*
D03*
X84528D02*
D03*
X21500Y57600D02*
D03*
X27500D02*
D03*
X9428Y69137D02*
D03*
X15428D02*
D03*
D36*
X65299Y171501D02*
D03*
X39945D02*
D03*
D37*
X6900Y213800D02*
D03*
X-21053D02*
D03*
D38*
X55110Y32760D02*
D03*
Y40240D02*
D03*
X44795D02*
D03*
Y36500D02*
D03*
Y32760D02*
D03*
X55110Y36500D02*
D03*
D39*
X16139Y7187D02*
D03*
X46061Y7187D02*
D03*
D40*
X26179Y18013D02*
D03*
X31100D02*
D03*
X36021Y18013D02*
D03*
D41*
X55587Y16454D02*
D03*
Y19800D02*
D03*
Y23146D02*
D03*
X66413Y16454D02*
D03*
Y19800D02*
D03*
Y23146D02*
D03*
D42*
X-12932Y42758D02*
D03*
Y25042D02*
D03*
X20532D02*
D03*
Y42758D02*
D03*
D43*
X97214Y129800D02*
D03*
X86190D02*
D03*
X97214Y144700D02*
D03*
X86190D02*
D03*
D44*
X78900Y79700D02*
D03*
Y87700D02*
D03*
X101228D02*
D03*
Y79700D02*
D03*
X89529Y65737D02*
D03*
Y73737D02*
D03*
X86343Y87700D02*
D03*
Y79700D02*
D03*
X93786Y87700D02*
D03*
Y79700D02*
D03*
D45*
X-60169Y26300D02*
D03*
Y28269D02*
D03*
Y30237D02*
D03*
Y32206D02*
D03*
Y34174D02*
D03*
Y36143D02*
D03*
Y38111D02*
D03*
Y40080D02*
D03*
Y42048D02*
D03*
Y44017D02*
D03*
Y45985D02*
D03*
Y47954D02*
D03*
X-54500D02*
D03*
Y45985D02*
D03*
Y44017D02*
D03*
Y42048D02*
D03*
Y40080D02*
D03*
Y38111D02*
D03*
Y36143D02*
D03*
Y34174D02*
D03*
Y32206D02*
D03*
Y30237D02*
D03*
Y28269D02*
D03*
Y26300D02*
D03*
D46*
X-43666Y215580D02*
D03*
X-89571D02*
D03*
X-43666Y205737D02*
D03*
Y225422D02*
D03*
X-89571D02*
D03*
Y205737D02*
D03*
D47*
X123628Y174637D02*
D03*
Y165337D02*
D03*
D48*
X-46500Y61200D02*
D03*
X42000Y253800D02*
D03*
D49*
X-87272Y193700D02*
D03*
X-96328D02*
D03*
D50*
X50428Y65737D02*
D03*
D51*
X61255Y49005D02*
D03*
X59287D02*
D03*
X51413D02*
D03*
X39602Y82469D02*
D03*
X41570D02*
D03*
X43539D02*
D03*
X45507D02*
D03*
X47476D02*
D03*
X49444D02*
D03*
X51413D02*
D03*
X53381D02*
D03*
X55350D02*
D03*
X57318D02*
D03*
X59287D02*
D03*
X61255D02*
D03*
X57318Y49005D02*
D03*
X55350D02*
D03*
X53381D02*
D03*
X49444D02*
D03*
X47476D02*
D03*
X45507D02*
D03*
X43539D02*
D03*
X41570D02*
D03*
X39602D02*
D03*
D52*
X67161Y64753D02*
D03*
Y58847D02*
D03*
Y54910D02*
D03*
X33696D02*
D03*
Y56879D02*
D03*
Y66721D02*
D03*
X67161Y76564D02*
D03*
Y74595D02*
D03*
Y72627D02*
D03*
Y70658D02*
D03*
Y68690D02*
D03*
Y66721D02*
D03*
Y62784D02*
D03*
Y60816D02*
D03*
Y56879D02*
D03*
X33696Y58847D02*
D03*
Y60816D02*
D03*
Y62784D02*
D03*
Y64753D02*
D03*
Y68690D02*
D03*
Y70658D02*
D03*
Y72627D02*
D03*
Y74595D02*
D03*
Y76564D02*
D03*
D53*
X85970Y200600D02*
D03*
X91482D02*
D03*
X91456Y195400D02*
D03*
X85944D02*
D03*
X-58944Y238300D02*
D03*
X-64456D02*
D03*
D54*
X-35200Y207056D02*
D03*
Y201544D02*
D03*
D55*
X69600Y218600D02*
D03*
X25899D02*
D03*
D262*
X-14200Y76789D02*
D03*
Y105135D02*
D03*
X-14700Y178694D02*
D03*
Y150347D02*
D03*
D263*
X125700Y112272D02*
D03*
D264*
Y122114D02*
D03*
Y131957D02*
D03*
Y141799D02*
D03*
D265*
X117000Y103732D02*
D03*
D266*
Y119323D02*
D03*
Y134913D02*
D03*
Y150504D02*
D03*
D267*
X-65799Y27678D02*
D03*
Y46576D02*
D03*
X-48870Y27678D02*
D03*
Y46576D02*
D03*
D268*
X-39000Y108919D02*
D03*
Y98919D02*
D03*
Y88919D02*
D03*
Y78919D02*
D03*
X-49000Y113919D02*
D03*
Y103919D02*
D03*
Y93919D02*
D03*
Y83919D02*
D03*
X-39000Y171680D02*
D03*
Y161680D02*
D03*
Y151680D02*
D03*
Y141680D02*
D03*
X-49000Y176680D02*
D03*
Y166680D02*
D03*
Y156680D02*
D03*
Y146680D02*
D03*
D269*
X0Y255906D02*
D03*
X110810Y191929D02*
D03*
X-110810D02*
D03*
Y63976D02*
D03*
X110810D02*
D03*
X0Y0D02*
D03*
M02*
