M48
;Layer_Color=9474304
;FILE_FORMAT=2:5
INCH,LZ
;TYPE=PLATED
T1F00S00C0.01181
T2F00S00C0.03543
;TYPE=NON_PLATED
T3F00S00C0.06496
T4F00S00C0.13386
%
T01
X-00446Y00171
X-00417
X-00388
X-00325Y00128
X-00225Y0017
X-00175
X-00125Y0024698
X-00075
X00025
X00006Y00359
X-00125Y00359
X-0007425Y0050125
X-000753Y005353
X-00149Y00573
X-00274Y00535
X-00325
X-00455Y00448
X-00456Y00774
X-0045548Y0091753
X-00393
X-0032019Y00857
X-00334Y00835
X-00305
X-0026259Y0079393
X-00259Y00756
Y007265
Y00697
X-00231Y0076953
X-0025558Y0088053
X-0023277Y0090503
X-00207Y0096553
X-0024518Y0099153
X-00345Y0101149
X-00449Y0103253
X-00392Y0118253
X-00397Y0128095
X-0039296Y0134791
X-00386Y01379
X-0036078Y0139637
X-003104Y0139847
X-00237Y013855
X-0019545Y013675
X-0016412Y0136693
X-00132Y01407
X-0005853Y0130453
Y0125153
X-0022282Y0125049
X-0025381Y0121972
X-0022227Y0116962
X-00191Y01098
X-00125Y0104
X-0009243Y0090153
X-0005368Y0089934
X-0002109Y0088685
Y0094
X000605
X0008775Y0090934
X00115Y00881
X00153
X0025Y00896
X0034Y00874
X0038664
X0040333Y009054
X0042364Y0093721
X0042471Y0096841
X0045485Y00976
X00436Y01019
X0042033Y01105
X0039527Y0107999
X00268Y01079
Y01048
Y0111
Y0116
Y01191
X0017174Y0115126
X00052Y01193
X00012Y01082
X001171Y010039
X0013056Y0097588
X0005169Y0079561
X00014
X0001Y00752
X00074Y00749
Y0071002
X-00055Y00716
X002106Y0071002
Y0075236
X00212Y0078321
X00281Y00796
X00341
X00411Y0075
X0043961Y0082604
X0049694
X0053056
X0047113Y0088287
X00638Y00771
X00678
X0065851Y00722
X0071851
X00674Y0062853
Y0060053
X0064581
Y0062853
X00562Y0055
X0053019Y00579
X0049713Y00606
X004398Y0063231
X0053Y0051
X00475Y00388
Y00359
Y0033
Y00301
Y0027264
X0033546Y0024263
X0030646
X0027746
X00175Y0024698
X00225Y00444
X00254
X00282
X00309
X00336
X00195Y00517
X00148Y00501
X00787Y00529
X00848
X00847Y00652
X0061181Y01054
X00606Y01156
X0056279Y0116388
X00452Y01216
X0042889Y0123619
X0040004Y0124643
X0036802Y0124951
X00394Y0138653
X0043219Y0136953
X00524Y0132032
X0073658Y01255
X0026725Y0134483
Y0137147
X00206Y01371
X00183Y01403
X00143
X00075
X0017Y01341
X00302Y01471
X00358
X-00246Y0130595
X-00425Y0132524
X-00438Y0143947
Y0148097
X-00156Y0089253
X-00275Y0024698
X-00529Y00242
Y00271
Y003
Y00329
Y00358
X-0051Y00448
X-00482
X-00475Y00171
X-00504
X-00894Y0050353
X-00934Y0053853
X-0085962Y0099234
X-00973Y0103253
X-0123451Y0118053
Y0121751
X-0127Y01308
Y0136811
X-00755Y0138947
X-0070726Y01389
X-0065953Y0138947
X-0067847Y014376
X-00756
X-0052999Y014326
X-00528Y01389
X-00502Y01455
X-00556Y01277
X-00529Y0122166
X-00556Y01193
X-00574Y0093227
X-0052999Y0151823
X-005405Y01579
Y01614
X-00568Y01615
X-0062406Y0161553
X-00653Y01732
X-00688Y01763
X-006104Y0188613
X-00517Y01886
X-00568Y0217353
X-0077Y02176
X-00737Y02136
Y0211
X-0085668
Y02137
X-00753Y0226253
X-00755Y0157135
X-00894Y01621
X-00934
X-00973
X-00447Y0162
X-00438Y0152047
X-00326Y01532
X-00266
Y01566
X-0015Y01578
X-0015069Y0165693
X-00029Y01693
X0000743Y01657
X00009Y01561
X0004508Y0155859
X0007488Y0157265
X00114Y0157053
X0014167Y0154953
X0017461Y0156772
X0020762
X0026
X0022254Y01504
X0026Y01732
X00348Y01764
X0045488Y0172727
X0043824Y016955
X0044023Y01583
X0053Y01619
X0059709Y0162115
X00623
X00665Y0169617
X00673Y01756
Y0181353
X0065213Y020095
X006031
X0043233Y01992
X004744Y0217352
X00565Y0218944
Y02268
X00691Y02115
X00723Y0154204
X0063Y01503
X00586Y0150301
X005245Y01503
X-0002752Y0155352
X-000444Y0203913
Y0218413
Y0225893
X00029Y0215647
X-001246Y0211407
X-00363Y0212353
Y0217353
Y0222353
X-0027Y02266
X-00363Y0207353
X-00315Y0196093
X-0046482Y0199153
X-00422Y01886
T02
X-01104Y0108053
Y0118053
Y0128053
Y0138053
Y0148053
T03
X-0041201Y0031426
X0036201
T04
X011081Y0063976
X0Y0
X-011081Y0063976
Y0191929
X0Y0255906
X011081Y0191929
M30
