G04*
G04 #@! TF.GenerationSoftware,Altium Limited,Altium Designer,22.1.2 (22)*
G04*
G04 Layer_Physical_Order=3*
G04 Layer_Color=128*
%FSLAX25Y25*%
%MOIN*%
G70*
G04*
G04 #@! TF.SameCoordinates,4AADA1E1-E747-4A0A-B92B-AFF9719D9D6B*
G04*
G04*
G04 #@! TF.FilePolarity,Negative*
G04*
G01*
G75*
%ADD142C,0.04000*%
%ADD143C,0.10496*%
%ADD144C,0.17386*%
%ADD145C,0.07543*%
%ADD146C,0.05181*%
D142*
X88944Y172522D02*
G03*
X83540Y167054I-544J-4867D01*
G01*
X125751Y172512D02*
G03*
X130274Y177749I-361J4884D01*
G01*
X130384Y178291D02*
G03*
X130453Y77794I-130384J-50339D01*
G01*
X130374Y77824D02*
G03*
X125851Y83061I-4884J353D01*
G01*
X83540Y88552D02*
G03*
X88601Y83057I4860J-602D01*
G01*
X83540Y88552D02*
Y167054D01*
X88944Y172512D02*
Y172522D01*
Y172512D02*
X125751D01*
X130274Y177749D02*
X130384Y178291D01*
X130374Y77824D02*
X130453Y77794D01*
X125551Y83094D02*
X125851Y83061D01*
X88601Y83067D02*
X88601Y83057D01*
X88601Y83067D02*
X125551Y83094D01*
D143*
X36201Y31426D02*
D03*
X-41201D02*
D03*
D144*
X-110810Y63976D02*
D03*
X110810Y191929D02*
D03*
X-110810D02*
D03*
X110810Y63976D02*
D03*
X0Y0D02*
D03*
Y255906D02*
D03*
D145*
X-110400Y148053D02*
D03*
Y138053D02*
D03*
Y128053D02*
D03*
Y118053D02*
D03*
D146*
X38664Y87400D02*
D03*
X40333Y90540D02*
D03*
X19500Y51700D02*
D03*
X14800Y50100D02*
D03*
X28100Y79600D02*
D03*
X25000Y89600D02*
D03*
X1200Y108200D02*
D03*
X11710Y100390D02*
D03*
X17174Y115126D02*
D03*
X5200Y119300D02*
D03*
X-42500Y132524D02*
D03*
X-39296Y134791D02*
D03*
X21060Y71002D02*
D03*
X7400D02*
D03*
Y74900D02*
D03*
X43980Y63231D02*
D03*
X53019Y57900D02*
D03*
X56200Y55000D02*
D03*
X49713Y60600D02*
D03*
X53000Y51000D02*
D03*
X53056Y82604D02*
D03*
X6050Y94000D02*
D03*
X-2109D02*
D03*
X13056Y97588D02*
D03*
X-17500Y17000D02*
D03*
X-22500D02*
D03*
X2500Y24698D02*
D03*
X-70726Y138900D02*
D03*
X-65953Y138947D02*
D03*
X-67847Y143760D02*
D03*
X-75500Y138947D02*
D03*
X58600Y150301D02*
D03*
X72300Y154204D02*
D03*
X52400Y132032D02*
D03*
X66500Y169617D02*
D03*
X42471Y96841D02*
D03*
X-12460Y211407D02*
D03*
X-23277Y90503D02*
D03*
X-34500Y101149D02*
D03*
X-25558Y88053D02*
D03*
X-20700Y96553D02*
D03*
X-12500Y104000D02*
D03*
Y35900D02*
D03*
Y24698D02*
D03*
X-7500D02*
D03*
X600Y35900D02*
D03*
X-32500Y53500D02*
D03*
X17500Y24698D02*
D03*
X-89400Y162100D02*
D03*
X-68800Y176300D02*
D03*
X56500Y226800D02*
D03*
X65213Y200950D02*
D03*
X60310D02*
D03*
X47440Y217352D02*
D03*
X-85962Y99234D02*
D03*
X-22282Y125049D02*
D03*
X20762Y156772D02*
D03*
X22254Y150400D02*
D03*
X26000Y156772D02*
D03*
X34800Y176400D02*
D03*
X-97300Y162100D02*
D03*
X-36300Y222353D02*
D03*
X-93400Y162100D02*
D03*
X-36300Y212353D02*
D03*
X17461Y156772D02*
D03*
X-51700Y188600D02*
D03*
X-42200D02*
D03*
X-65300Y173200D02*
D03*
X-13200Y140700D02*
D03*
X14300Y140300D02*
D03*
X18300D02*
D03*
X20600Y137100D02*
D03*
X17000Y134100D02*
D03*
X-5853Y125153D02*
D03*
X-62406Y161553D02*
D03*
X-52999Y143260D02*
D03*
X-50200Y145500D02*
D03*
X-54050Y157900D02*
D03*
X-44700Y162000D02*
D03*
X-54050Y161400D02*
D03*
X-56800Y161500D02*
D03*
X-75600Y143760D02*
D03*
X-75500Y157135D02*
D03*
X-52999Y151823D02*
D03*
X-16412Y136693D02*
D03*
X71851Y72200D02*
D03*
X-46482Y199153D02*
D03*
X45488Y172727D02*
D03*
X41100Y75000D02*
D03*
X73658Y125500D02*
D03*
X49694Y82604D02*
D03*
X43961D02*
D03*
X43600Y101900D02*
D03*
X45485Y97600D02*
D03*
X47113Y88287D02*
D03*
X-27500Y24698D02*
D03*
X-7530Y53530D02*
D03*
X-123451Y118053D02*
D03*
X-2752Y155352D02*
D03*
X-19545Y136750D02*
D03*
X14167Y154953D02*
D03*
X11400Y157053D02*
D03*
X4508Y155859D02*
D03*
X7488Y157265D02*
D03*
X67300Y181353D02*
D03*
X-75300Y226253D02*
D03*
X-44900Y103253D02*
D03*
X-97300D02*
D03*
X-45548Y91753D02*
D03*
X39400Y138653D02*
D03*
X-36300Y217353D02*
D03*
X-39700Y128095D02*
D03*
X-26259Y79393D02*
D03*
X-5368Y89934D02*
D03*
X-2109Y88685D02*
D03*
X8775Y90934D02*
D03*
X21200Y78321D02*
D03*
X21060Y75236D02*
D03*
X39527Y107999D02*
D03*
X42033Y110500D02*
D03*
X67800Y77100D02*
D03*
X60600Y115600D02*
D03*
X63800Y77100D02*
D03*
X61181Y105400D02*
D03*
X45200Y121600D02*
D03*
X36802Y124951D02*
D03*
X84700Y65200D02*
D03*
X44023Y158300D02*
D03*
X-14900Y57300D02*
D03*
X-27400Y53500D02*
D03*
X-7425Y50125D02*
D03*
X-19100Y109800D02*
D03*
X-38600Y137900D02*
D03*
X-36078Y139637D02*
D03*
X26800Y119100D02*
D03*
Y116000D02*
D03*
X-25381Y121972D02*
D03*
X-23100Y76953D02*
D03*
X42889Y123619D02*
D03*
X-36300Y207353D02*
D03*
X743Y165700D02*
D03*
X-2900Y169300D02*
D03*
X43219Y136953D02*
D03*
X-9243Y90153D02*
D03*
X-15069Y165693D02*
D03*
X84800Y52900D02*
D03*
X78700D02*
D03*
X26000Y173200D02*
D03*
X-31040Y139847D02*
D03*
X11500Y88100D02*
D03*
X-85668Y213700D02*
D03*
X-32500Y12800D02*
D03*
X-39200Y118253D02*
D03*
X53000Y161900D02*
D03*
X1000Y75200D02*
D03*
X-73700Y211000D02*
D03*
Y213600D02*
D03*
X-4440Y203913D02*
D03*
Y225893D02*
D03*
Y218413D02*
D03*
X-85668Y211000D02*
D03*
X67300Y175600D02*
D03*
X-26600Y153200D02*
D03*
X42364Y93721D02*
D03*
X900Y156100D02*
D03*
X35800Y147100D02*
D03*
X-25900Y75600D02*
D03*
Y72650D02*
D03*
Y69700D02*
D03*
X-39300Y91753D02*
D03*
X56279Y116388D02*
D03*
X-93400Y53853D02*
D03*
X-89400Y50353D02*
D03*
M02*
