G04*
G04 #@! TF.GenerationSoftware,Altium Limited,Altium Designer,22.1.2 (22)*
G04*
G04 Layer_Color=255*
%FSLAX25Y25*%
%MOIN*%
G70*
G04*
G04 #@! TF.SameCoordinates,4AADA1E1-E747-4A0A-B92B-AFF9719D9D6B*
G04*
G04*
G04 #@! TF.FilePolarity,Positive*
G04*
G01*
G75*
%ADD16R,0.03000X0.03500*%
%ADD19R,0.03500X0.03000*%
%ADD21R,0.01457X0.01063*%
%ADD33R,0.01063X0.01457*%
%ADD138C,0.11811*%
%ADD139R,0.07087X0.07087*%
%ADD140C,0.07087*%
%ADD147R,0.11811X0.08268*%
%ADD148R,0.06299X0.03150*%
%ADD149R,0.05158X0.02559*%
%ADD150R,0.04173X0.04685*%
%ADD151R,0.03347X0.02756*%
%ADD152R,0.01417X0.01063*%
D16*
X-44400Y117653D02*
D03*
X-50400D02*
D03*
X-44400Y127653D02*
D03*
X-50400D02*
D03*
X-44400Y122653D02*
D03*
X-50400D02*
D03*
X-30600Y102253D02*
D03*
X-24600D02*
D03*
X5200Y114800D02*
D03*
X11200D02*
D03*
X22900Y130400D02*
D03*
X16900D02*
D03*
X-26300Y149553D02*
D03*
X-32300D02*
D03*
X-26300Y144653D02*
D03*
X-32300D02*
D03*
X15200Y83153D02*
D03*
X21200D02*
D03*
X33800Y133453D02*
D03*
X39800D02*
D03*
X-13200Y78253D02*
D03*
X-19200D02*
D03*
X29800Y138416D02*
D03*
X35800D02*
D03*
X34100Y83700D02*
D03*
X28100D02*
D03*
X29800Y143353D02*
D03*
X35800D02*
D03*
D19*
X-17000Y124800D02*
D03*
Y130800D02*
D03*
X17200Y125400D02*
D03*
Y119400D02*
D03*
X-130750Y130753D02*
D03*
Y124753D02*
D03*
X-19200Y89116D02*
D03*
Y83116D02*
D03*
D21*
X-13200Y146483D02*
D03*
Y144317D02*
D03*
X16800Y146945D02*
D03*
Y149110D02*
D03*
X14167Y149110D02*
D03*
Y146945D02*
D03*
X600Y82788D02*
D03*
Y84953D02*
D03*
X1000Y149110D02*
D03*
Y146945D02*
D03*
X3325Y82788D02*
D03*
Y84953D02*
D03*
X11533Y149110D02*
D03*
Y146945D02*
D03*
X8900Y149110D02*
D03*
Y146945D02*
D03*
X3633Y149110D02*
D03*
Y146945D02*
D03*
X6267Y149110D02*
D03*
Y146945D02*
D03*
X6050Y82788D02*
D03*
Y84953D02*
D03*
X8775Y82788D02*
D03*
Y84953D02*
D03*
X11500Y82788D02*
D03*
Y84953D02*
D03*
X9700Y79335D02*
D03*
Y77170D02*
D03*
X12300Y79335D02*
D03*
Y77170D02*
D03*
X14900Y79335D02*
D03*
Y77170D02*
D03*
X17500Y79335D02*
D03*
Y77170D02*
D03*
X-7200Y82788D02*
D03*
Y84953D02*
D03*
D33*
X35400Y98419D02*
D03*
X37565D02*
D03*
X35400Y95793D02*
D03*
X37565D02*
D03*
Y93166D02*
D03*
X35400D02*
D03*
X37565Y90540D02*
D03*
X35400D02*
D03*
X-30665Y90503D02*
D03*
X-28500D02*
D03*
X-28318Y123953D02*
D03*
X-30483D02*
D03*
X-28318Y137204D02*
D03*
X-30483D02*
D03*
Y134581D02*
D03*
X-28318D02*
D03*
X-30483Y126610D02*
D03*
X-28318D02*
D03*
X-30483Y129267D02*
D03*
X-28318D02*
D03*
X-30483Y131924D02*
D03*
X-28318D02*
D03*
X29935Y123253D02*
D03*
X32100D02*
D03*
X-30665Y87853D02*
D03*
X-28500D02*
D03*
X-25187Y83104D02*
D03*
X-23022D02*
D03*
X37565Y103753D02*
D03*
X35400D02*
D03*
X32100Y108853D02*
D03*
X29935D02*
D03*
X32100Y111653D02*
D03*
X29935D02*
D03*
D138*
X-110810Y63976D02*
D03*
X110810Y191929D02*
D03*
X-110810D02*
D03*
X110810Y63976D02*
D03*
X0Y0D02*
D03*
Y255906D02*
D03*
D139*
X-110400Y148053D02*
D03*
D140*
Y138053D02*
D03*
Y128053D02*
D03*
Y118053D02*
D03*
Y108053D02*
D03*
D147*
X72999Y226500D02*
D03*
Y201500D02*
D03*
D148*
X61901Y216461D02*
D03*
Y211539D02*
D03*
D149*
X11201Y135453D02*
D03*
Y130453D02*
D03*
Y125453D02*
D03*
Y120453D02*
D03*
X-11201D02*
D03*
Y125453D02*
D03*
Y130453D02*
D03*
Y135453D02*
D03*
D150*
X-19235Y71900D02*
D03*
D03*
X-8565D02*
D03*
D151*
X-39052Y95052D02*
D03*
X-45548D02*
D03*
D152*
X-58300Y217253D02*
D03*
X-61607D02*
D03*
M02*
