G04*
G04 #@! TF.GenerationSoftware,Altium Limited,Altium Designer,22.1.2 (22)*
G04*
G04 Layer_Color=128*
%FSLAX25Y25*%
%MOIN*%
G70*
G04*
G04 #@! TF.SameCoordinates,4AADA1E1-E747-4A0A-B92B-AFF9719D9D6B*
G04*
G04*
G04 #@! TF.FilePolarity,Positive*
G04*
G01*
G75*
%ADD210C,0.00200*%
D210*
X32953Y31426D02*
X39449D01*
X36201Y28178D02*
Y34674D01*
X-44449Y31426D02*
X-37953D01*
X-41201Y28178D02*
Y34674D01*
X-117503Y63976D02*
X-104117D01*
X-110810Y57284D02*
Y70669D01*
X-112172Y148053D02*
X-108628D01*
X-110400Y146281D02*
Y149825D01*
X-112172Y138053D02*
X-108628D01*
X-110400Y136281D02*
Y139824D01*
X-112172Y128053D02*
X-108628D01*
X-110400Y126281D02*
Y129824D01*
X-112172Y118053D02*
X-108628D01*
X-110400Y116281D02*
Y119825D01*
X-112172Y108053D02*
X-108628D01*
X-110400Y106281D02*
Y109825D01*
X104117Y191929D02*
X117503D01*
X110810Y185236D02*
Y198622D01*
X-117503Y191929D02*
X-104117D01*
X-110810Y185236D02*
Y198622D01*
X104117Y63976D02*
X117503D01*
X110810Y57284D02*
Y70669D01*
X-6693Y0D02*
X6693D01*
X0Y-6693D02*
Y6693D01*
X-6693Y255906D02*
X6693D01*
X0Y249213D02*
Y262598D01*
X-46191Y77400D02*
X-45009D01*
X-45600Y76810D02*
Y77991D01*
X38073Y87400D02*
X39254D01*
X38664Y86809D02*
Y87990D01*
X39742Y90540D02*
X40923D01*
X40333Y89949D02*
Y91130D01*
X33509Y79600D02*
X34691D01*
X34100Y79009D02*
Y80190D01*
X26209Y104800D02*
X27391D01*
X26800Y104209D02*
Y105391D01*
X33409Y87400D02*
X34591D01*
X34000Y86809D02*
Y87990D01*
X18910Y51700D02*
X20090D01*
X19500Y51109D02*
Y52290D01*
X14209Y50100D02*
X15391D01*
X14800Y49509D02*
Y50691D01*
X27509Y79600D02*
X28691D01*
X28100Y79009D02*
Y80190D01*
X24409Y89600D02*
X25591D01*
X25000Y89009D02*
Y90191D01*
X610Y108200D02*
X1791D01*
X1200Y107609D02*
Y108791D01*
X33009Y44400D02*
X34191D01*
X33600Y43809D02*
Y44991D01*
X30310Y44400D02*
X31491D01*
X30900Y43809D02*
Y44991D01*
X27610Y44400D02*
X28791D01*
X28200Y43809D02*
Y44991D01*
X24810Y44400D02*
X25991D01*
X25400Y43809D02*
Y44991D01*
X21910Y44400D02*
X23091D01*
X22500Y43809D02*
Y44991D01*
X11119Y100390D02*
X12301D01*
X11710Y99799D02*
Y100980D01*
X16583Y115126D02*
X17764D01*
X17174Y114536D02*
Y115717D01*
X4609Y119300D02*
X5791D01*
X5200Y118709D02*
Y119891D01*
X-22817Y116962D02*
X-21636D01*
X-22227Y116372D02*
Y117553D01*
X-56191Y119300D02*
X-55010D01*
X-55600Y118709D02*
Y119891D01*
X-53491Y122166D02*
X-52310D01*
X-52900Y121575D02*
Y122756D01*
X-56191Y127700D02*
X-55010D01*
X-55600Y127109D02*
Y128291D01*
X-43091Y132524D02*
X-41909D01*
X-42500Y131933D02*
Y133115D01*
X-39887Y134791D02*
X-38706D01*
X-39296Y134201D02*
Y135382D01*
X-57990Y93227D02*
X-56810D01*
X-57400Y92636D02*
Y93817D01*
X20469Y71002D02*
X21650D01*
X21060Y70411D02*
Y71592D01*
X6809Y71002D02*
X7991D01*
X7400Y70411D02*
Y71592D01*
X6809Y74900D02*
X7991D01*
X7400Y74309D02*
Y75490D01*
X43390Y63231D02*
X44571D01*
X43980Y62641D02*
Y63822D01*
X52428Y57900D02*
X53610D01*
X53019Y57310D02*
Y58491D01*
X55610Y55000D02*
X56791D01*
X56200Y54409D02*
Y55590D01*
X49122Y60600D02*
X50304D01*
X49713Y60009D02*
Y61190D01*
X52409Y51000D02*
X53591D01*
X53000Y50409D02*
Y51591D01*
X52465Y82604D02*
X53646D01*
X53056Y82014D02*
Y83195D01*
X5459Y94000D02*
X6641D01*
X6050Y93410D02*
Y94591D01*
X-2700Y94000D02*
X-1519D01*
X-2109Y93410D02*
Y94591D01*
X12465Y97588D02*
X13646D01*
X13056Y96997D02*
Y98178D01*
X-18091Y17000D02*
X-16909D01*
X-17500Y16409D02*
Y17591D01*
X-23090Y17000D02*
X-21909D01*
X-22500Y16409D02*
Y17591D01*
X1909Y24698D02*
X3091D01*
X2500Y24107D02*
Y25289D01*
X-71317Y138900D02*
X-70136D01*
X-70726Y138309D02*
Y139491D01*
X-66543Y138947D02*
X-65362D01*
X-65953Y138356D02*
Y139537D01*
X-68438Y143760D02*
X-67257D01*
X-67847Y143169D02*
Y144350D01*
X-76091Y138947D02*
X-74910D01*
X-75500Y138356D02*
Y139537D01*
X58009Y150301D02*
X59190D01*
X58600Y149710D02*
Y150891D01*
X51859Y150300D02*
X53040D01*
X52450Y149709D02*
Y150891D01*
X71710Y154204D02*
X72891D01*
X72300Y153614D02*
Y154795D01*
X51810Y132032D02*
X52991D01*
X52400Y131442D02*
Y132623D01*
X65909Y169617D02*
X67090D01*
X66500Y169027D02*
Y170208D01*
X61709Y162115D02*
X62890D01*
X62300Y161524D02*
Y162706D01*
X59118Y162115D02*
X60299D01*
X59709Y161524D02*
Y162706D01*
X41880Y96841D02*
X43061D01*
X42471Y96250D02*
Y97431D01*
X2310Y215647D02*
X3491D01*
X2900Y215057D02*
Y216238D01*
X-13050Y211407D02*
X-11869D01*
X-12460Y210817D02*
Y211998D01*
X-25109Y99153D02*
X-23927D01*
X-24518Y98562D02*
Y99743D01*
X-23868Y90503D02*
X-22686D01*
X-23277Y89912D02*
Y91093D01*
X-35091Y101149D02*
X-33909D01*
X-34500Y100558D02*
Y101739D01*
X-26149Y88053D02*
X-24968D01*
X-25558Y87462D02*
Y88643D01*
X-21291Y96553D02*
X-20109D01*
X-20700Y95962D02*
Y97143D01*
X46909Y30100D02*
X48091D01*
X47500Y29509D02*
Y30691D01*
X46909Y27264D02*
X48091D01*
X47500Y26673D02*
Y27854D01*
X46909Y33000D02*
X48091D01*
X47500Y32409D02*
Y33591D01*
X46909Y35900D02*
X48091D01*
X47500Y35309D02*
Y36491D01*
X46909Y38800D02*
X48091D01*
X47500Y38209D02*
Y39391D01*
X-13091Y104000D02*
X-11909D01*
X-12500Y103409D02*
Y104591D01*
X-13091Y35900D02*
X-11909D01*
X-12500Y35309D02*
Y36490D01*
X-13091Y24698D02*
X-11909D01*
X-12500Y24107D02*
Y25289D01*
X-8090Y24698D02*
X-6909D01*
X-7500Y24107D02*
Y25289D01*
X27155Y24263D02*
X28336D01*
X27746Y23673D02*
Y24854D01*
X30055Y24263D02*
X31236D01*
X30646Y23673D02*
Y24854D01*
X32955Y24263D02*
X34136D01*
X33546Y23673D02*
Y24854D01*
X9Y35900D02*
X1191D01*
X600Y35309D02*
Y36491D01*
X-33090Y53500D02*
X-31909D01*
X-32500Y52909D02*
Y54090D01*
X16909Y24698D02*
X18091D01*
X17500Y24107D02*
Y25289D01*
X-89991Y162100D02*
X-88810D01*
X-89400Y161509D02*
Y162691D01*
X-69390Y176300D02*
X-68209D01*
X-68800Y175709D02*
Y176891D01*
X42643Y199200D02*
X43824D01*
X43233Y198609D02*
Y199791D01*
X55910Y226800D02*
X57091D01*
X56500Y226209D02*
Y227391D01*
X64622Y200950D02*
X65803D01*
X65213Y200359D02*
Y201541D01*
X68510Y211500D02*
X69691D01*
X69100Y210910D02*
Y212090D01*
X59719Y200950D02*
X60900D01*
X60310Y200359D02*
Y201541D01*
X55910Y218944D02*
X57091D01*
X56500Y218354D02*
Y219535D01*
X46850Y217352D02*
X48031D01*
X47440Y216762D02*
Y217943D01*
X-86553Y99234D02*
X-85372D01*
X-85962Y98643D02*
Y99825D01*
X-15590Y157800D02*
X-14410D01*
X-15000Y157209D02*
Y158391D01*
X-22872Y125049D02*
X-21691D01*
X-22282Y124458D02*
Y125639D01*
X20172Y156772D02*
X21353D01*
X20762Y156181D02*
Y157362D01*
X21663Y150400D02*
X22844D01*
X22254Y149809D02*
Y150991D01*
X25409Y156772D02*
X26591D01*
X26000Y156181D02*
Y157362D01*
X34209Y176400D02*
X35391D01*
X34800Y175809D02*
Y176991D01*
X-97891Y162100D02*
X-96710D01*
X-97300Y161509D02*
Y162691D01*
X-36891Y222353D02*
X-35709D01*
X-36300Y221762D02*
Y222943D01*
X-93990Y162100D02*
X-92809D01*
X-93400Y161509D02*
Y162691D01*
X-36891Y212353D02*
X-35709D01*
X-36300Y211762D02*
Y212943D01*
X16871Y156772D02*
X18052D01*
X17461Y156181D02*
Y157362D01*
X-52290Y188600D02*
X-51109D01*
X-51700Y188009D02*
Y189191D01*
X-42791Y188600D02*
X-41609D01*
X-42200Y188009D02*
Y189191D01*
X-65891Y173200D02*
X-64710D01*
X-65300Y172609D02*
Y173791D01*
X6909Y140300D02*
X8091D01*
X7500Y139709D02*
Y140891D01*
X-27191Y156600D02*
X-26009D01*
X-26600Y156009D02*
Y157191D01*
X-13791Y140700D02*
X-12609D01*
X-13200Y140109D02*
Y141291D01*
X13710Y140300D02*
X14890D01*
X14300Y139709D02*
Y140891D01*
X17709Y140300D02*
X18891D01*
X18300Y139709D02*
Y140891D01*
X20009Y137100D02*
X21191D01*
X20600Y136509D02*
Y137691D01*
X16409Y134100D02*
X17591D01*
X17000Y133509D02*
Y134691D01*
X-25190Y130595D02*
X-24010D01*
X-24600Y130005D02*
Y131186D01*
X-6443Y125153D02*
X-5262D01*
X-5853Y124562D02*
Y125743D01*
X-6443Y130453D02*
X-5262D01*
X-5853Y129862D02*
Y131043D01*
X-62997Y161553D02*
X-61815D01*
X-62406Y160962D02*
Y162143D01*
X-53391Y138900D02*
X-52210D01*
X-52800Y138309D02*
Y139491D01*
X-53590Y143260D02*
X-52409D01*
X-52999Y142669D02*
Y143850D01*
X-50791Y145500D02*
X-49609D01*
X-50200Y144909D02*
Y146091D01*
X-54641Y157900D02*
X-53460D01*
X-54050Y157309D02*
Y158491D01*
X-45291Y162000D02*
X-44109D01*
X-44700Y161409D02*
Y162591D01*
X-54641Y161400D02*
X-53460D01*
X-54050Y160809D02*
Y161991D01*
X-57390Y161500D02*
X-56209D01*
X-56800Y160909D02*
Y162091D01*
X-76191Y143760D02*
X-75010D01*
X-75600Y143169D02*
Y144350D01*
X-76091Y157135D02*
X-74910D01*
X-75500Y156544D02*
Y157725D01*
X-53590Y151823D02*
X-52409D01*
X-52999Y151232D02*
Y152413D01*
X-17002Y136693D02*
X-15821D01*
X-16412Y136102D02*
Y137284D01*
X71260Y72200D02*
X72441D01*
X71851Y71609D02*
Y72790D01*
X65260Y72200D02*
X66441D01*
X65851Y71609D02*
Y72790D01*
X-32091Y196093D02*
X-30909D01*
X-31500Y195502D02*
Y196684D01*
X-47072Y199153D02*
X-45891D01*
X-46482Y198562D02*
Y199743D01*
X62410Y150300D02*
X63591D01*
X63000Y149709D02*
Y150891D01*
X44898Y172727D02*
X46079D01*
X45488Y172136D02*
Y173317D01*
X43233Y169550D02*
X44414D01*
X43824Y168959D02*
Y170141D01*
X40509Y75000D02*
X41691D01*
X41100Y74410D02*
Y75590D01*
X73067Y125500D02*
X74248D01*
X73658Y124909D02*
Y126091D01*
X49104Y82604D02*
X50285D01*
X49694Y82014D02*
Y83195D01*
X43371Y82604D02*
X44552D01*
X43961Y82014D02*
Y83195D01*
X43010Y101900D02*
X44191D01*
X43600Y101310D02*
Y102491D01*
X44894Y97600D02*
X46075D01*
X45485Y97009D02*
Y98190D01*
X46522Y88287D02*
X47703D01*
X47113Y87696D02*
Y88878D01*
X-28091Y24698D02*
X-26909D01*
X-27500Y24107D02*
Y25289D01*
X-8120Y53530D02*
X-6939D01*
X-7530Y52939D02*
Y54120D01*
X-124042Y118053D02*
X-122861D01*
X-123451Y117462D02*
Y118643D01*
X-3343Y155352D02*
X-2162D01*
X-2752Y154762D02*
Y155943D01*
X-20136Y136750D02*
X-18955D01*
X-19545Y136159D02*
Y137341D01*
X13576Y154953D02*
X14757D01*
X14167Y154362D02*
Y155543D01*
X10809Y157053D02*
X11991D01*
X11400Y156462D02*
Y157643D01*
X3918Y155859D02*
X5099D01*
X4508Y155268D02*
Y156449D01*
X6897Y157265D02*
X8078D01*
X7488Y156674D02*
Y157855D01*
X66710Y181353D02*
X67891D01*
X67300Y180762D02*
Y181943D01*
X-57390Y217353D02*
X-56209D01*
X-56800Y216762D02*
Y217943D01*
X-75890Y226253D02*
X-74709D01*
X-75300Y225662D02*
Y226843D01*
X-61631Y188613D02*
X-60450D01*
X-61040Y188022D02*
Y189203D01*
X-45491Y103253D02*
X-44309D01*
X-44900Y102662D02*
Y103843D01*
X-44391Y148097D02*
X-43209D01*
X-43800Y147507D02*
Y148688D01*
X-97891Y103253D02*
X-96710D01*
X-97300Y102662D02*
Y103843D01*
X-46139Y91753D02*
X-44958D01*
X-45548Y91162D02*
Y92343D01*
X38809Y138653D02*
X39991D01*
X39400Y138062D02*
Y139243D01*
X-36891Y217353D02*
X-35709D01*
X-36300Y216762D02*
Y217943D01*
X14709Y88100D02*
X15890D01*
X15300Y87510D02*
Y88691D01*
X-44391Y152047D02*
X-43209D01*
X-43800Y151457D02*
Y152638D01*
X-44391Y143947D02*
X-43209D01*
X-43800Y143357D02*
Y144538D01*
X-40291Y128095D02*
X-39109D01*
X-39700Y127505D02*
Y128686D01*
X-26850Y79393D02*
X-25669D01*
X-26259Y78803D02*
Y79984D01*
X-5958Y89934D02*
X-4777D01*
X-5368Y89344D02*
Y90525D01*
X-2700Y88685D02*
X-1519D01*
X-2109Y88094D02*
Y89275D01*
X8184Y90934D02*
X9366D01*
X8775Y90344D02*
Y91525D01*
X20609Y78321D02*
X21791D01*
X21200Y77731D02*
Y78912D01*
X20469Y75236D02*
X21650D01*
X21060Y74645D02*
Y75826D01*
X38936Y107999D02*
X40118D01*
X39527Y107408D02*
Y108589D01*
X41442Y110500D02*
X42623D01*
X42033Y109909D02*
Y111091D01*
X67210Y77100D02*
X68391D01*
X67800Y76509D02*
Y77691D01*
X60009Y115600D02*
X61190D01*
X60600Y115009D02*
Y116191D01*
X63209Y77100D02*
X64390D01*
X63800Y76509D02*
Y77691D01*
X60590Y105400D02*
X61772D01*
X61181Y104809D02*
Y105991D01*
X44609Y121600D02*
X45791D01*
X45200Y121009D02*
Y122191D01*
X36212Y124951D02*
X37393D01*
X36802Y124360D02*
Y125541D01*
X84109Y65200D02*
X85290D01*
X84700Y64609D02*
Y65790D01*
X-33991Y83500D02*
X-32809D01*
X-33400Y82910D02*
Y84091D01*
X43433Y158300D02*
X44614D01*
X44023Y157709D02*
Y158891D01*
X-77591Y217600D02*
X-76410D01*
X-77000Y217009D02*
Y218191D01*
X-15491Y57300D02*
X-14310D01*
X-14900Y56709D02*
Y57890D01*
X-27991Y53500D02*
X-26809D01*
X-27400Y52909D02*
Y54090D01*
X-8016Y50125D02*
X-6835D01*
X-7425Y49535D02*
Y50716D01*
X-127591Y130800D02*
X-126409D01*
X-127000Y130209D02*
Y131391D01*
X-127591Y136811D02*
X-126409D01*
X-127000Y136221D02*
Y137402D01*
X-124042Y121751D02*
X-122861D01*
X-123451Y121161D02*
Y122342D01*
X-19691Y109800D02*
X-18509D01*
X-19100Y109209D02*
Y110391D01*
X-39191Y137900D02*
X-38009D01*
X-38600Y137309D02*
Y138491D01*
X-36669Y139637D02*
X-35487D01*
X-36078Y139046D02*
Y140227D01*
X26209Y119100D02*
X27391D01*
X26800Y118509D02*
Y119691D01*
X26209Y116000D02*
X27391D01*
X26800Y115409D02*
Y116591D01*
X-24291Y138550D02*
X-23110D01*
X-23700Y137959D02*
Y139141D01*
X-25972Y121972D02*
X-24791D01*
X-25381Y121381D02*
Y122562D01*
X-23690Y76953D02*
X-22510D01*
X-23100Y76362D02*
Y77543D01*
X809Y79561D02*
X1991D01*
X1400Y78971D02*
Y80152D01*
X4579Y79561D02*
X5760D01*
X5169Y78971D02*
Y80152D01*
X39413Y124643D02*
X40594D01*
X40004Y124053D02*
Y125234D01*
X42299Y123619D02*
X43480D01*
X42889Y123028D02*
Y124209D01*
X26135Y137147D02*
X27316D01*
X26725Y136556D02*
Y137737D01*
X26135Y134483D02*
X27316D01*
X26725Y133893D02*
Y135074D01*
X-39391Y17100D02*
X-38209D01*
X-38800Y16510D02*
Y17691D01*
X-42291Y17100D02*
X-41109D01*
X-41700Y16510D02*
Y17691D01*
X-53491Y35800D02*
X-52310D01*
X-52900Y35209D02*
Y36391D01*
X-53491Y32900D02*
X-52310D01*
X-52900Y32309D02*
Y33491D01*
X-53491Y30000D02*
X-52310D01*
X-52900Y29409D02*
Y30591D01*
X-53491Y24200D02*
X-52310D01*
X-52900Y23609D02*
Y24791D01*
X-53491Y27100D02*
X-52310D01*
X-52900Y26509D02*
Y27691D01*
X-31091Y83500D02*
X-29909D01*
X-30500Y82910D02*
Y84091D01*
X26209Y107900D02*
X27391D01*
X26800Y107309D02*
Y108491D01*
X-36891Y207353D02*
X-35709D01*
X-36300Y206762D02*
Y207943D01*
X152Y165700D02*
X1333D01*
X743Y165109D02*
Y166291D01*
X-3491Y169300D02*
X-2310D01*
X-2900Y168709D02*
Y169891D01*
X42628Y136953D02*
X43809D01*
X43219Y136362D02*
Y137543D01*
X-9833Y90153D02*
X-8652D01*
X-9243Y89562D02*
Y90743D01*
X-15659Y165693D02*
X-14478D01*
X-15069Y165102D02*
Y166284D01*
X63990Y60053D02*
X65172D01*
X64581Y59462D02*
Y60643D01*
X63990Y62853D02*
X65172D01*
X64581Y62262D02*
Y63443D01*
X66809Y62853D02*
X67990D01*
X67400Y62262D02*
Y63443D01*
X66809Y60053D02*
X67990D01*
X67400Y59462D02*
Y60643D01*
X84210Y52900D02*
X85391D01*
X84800Y52310D02*
Y53491D01*
X78110Y52900D02*
X79290D01*
X78700Y52310D02*
Y53491D01*
X25409Y173200D02*
X26591D01*
X26000Y172609D02*
Y173791D01*
X29609Y147100D02*
X30791D01*
X30200Y146509D02*
Y147691D01*
X-32609Y85700D02*
X-31428D01*
X-32019Y85110D02*
Y86291D01*
X-6091Y71600D02*
X-4909D01*
X-5500Y71009D02*
Y72190D01*
X-51591Y44800D02*
X-50409D01*
X-51000Y44209D02*
Y45391D01*
X-48791Y44800D02*
X-47609D01*
X-48200Y44209D02*
Y45391D01*
X-46091Y44800D02*
X-44909D01*
X-45500Y44209D02*
Y45391D01*
X-31631Y139847D02*
X-30450D01*
X-31040Y139256D02*
Y140437D01*
X-16191Y89253D02*
X-15010D01*
X-15600Y88662D02*
Y89843D01*
X-33191Y153200D02*
X-32009D01*
X-32600Y152609D02*
Y153791D01*
X10909Y88100D02*
X12091D01*
X11500Y87510D02*
Y88691D01*
X-86259Y213700D02*
X-85078D01*
X-85668Y213109D02*
Y214290D01*
X-33090Y12800D02*
X-31909D01*
X-32500Y12209D02*
Y13390D01*
X-39791Y118253D02*
X-38609D01*
X-39200Y117662D02*
Y118843D01*
X52409Y161900D02*
X53591D01*
X53000Y161309D02*
Y162491D01*
X410Y75200D02*
X1591D01*
X1000Y74610D02*
Y75791D01*
X26209Y111000D02*
X27391D01*
X26800Y110409D02*
Y111591D01*
X-74291Y211000D02*
X-73110D01*
X-73700Y210409D02*
Y211591D01*
X-74291Y213600D02*
X-73110D01*
X-73700Y213010D02*
Y214191D01*
X-27591Y226600D02*
X-26409D01*
X-27000Y226009D02*
Y227190D01*
X-5031Y203913D02*
X-3850D01*
X-4440Y203322D02*
Y204503D01*
X-5031Y225893D02*
X-3850D01*
X-4440Y225302D02*
Y226483D01*
X-5031Y218413D02*
X-3850D01*
X-4440Y217822D02*
Y219003D01*
X-86259Y211000D02*
X-85078D01*
X-85668Y210409D02*
Y211591D01*
X66710Y175600D02*
X67891D01*
X67300Y175009D02*
Y176191D01*
X-27191Y153200D02*
X-26009D01*
X-26600Y152609D02*
Y153791D01*
X41774Y93721D02*
X42955D01*
X42364Y93131D02*
Y94312D01*
X310Y156100D02*
X1491D01*
X900Y155509D02*
Y156691D01*
X35209Y147100D02*
X36391D01*
X35800Y146509D02*
Y147691D01*
X-26491Y75600D02*
X-25310D01*
X-25900Y75010D02*
Y76191D01*
X-26491Y72650D02*
X-25310D01*
X-25900Y72060D02*
Y73241D01*
X-26491Y69700D02*
X-25310D01*
X-25900Y69109D02*
Y70290D01*
X-39891Y91753D02*
X-38709D01*
X-39300Y91162D02*
Y92343D01*
X-48091Y17100D02*
X-46909D01*
X-47500Y16510D02*
Y17691D01*
X-50991Y17100D02*
X-49809D01*
X-50400Y16510D02*
Y17691D01*
X-45191Y17100D02*
X-44009D01*
X-44600Y16510D02*
Y17691D01*
X55689Y116388D02*
X56870D01*
X56279Y115798D02*
Y116979D01*
X-93990Y53853D02*
X-92809D01*
X-93400Y53262D02*
Y54443D01*
X-89991Y50353D02*
X-88810D01*
X-89400Y49762D02*
Y50943D01*
M02*
