G04*
G04 #@! TF.GenerationSoftware,Altium Limited,Altium Designer,22.1.2 (22)*
G04*
G04 Layer_Color=8421504*
%FSLAX25Y25*%
%MOIN*%
G70*
G04*
G04 #@! TF.SameCoordinates,4AADA1E1-E747-4A0A-B92B-AFF9719D9D6B*
G04*
G04*
G04 #@! TF.FilePolarity,Positive*
G04*
G01*
G75*
%ADD16R,0.03000X0.03500*%
%ADD17R,0.05906X0.21654*%
%ADD18R,0.01181X0.01181*%
%ADD19R,0.03500X0.03000*%
%ADD20R,0.02441X0.04803*%
%ADD21R,0.01457X0.01063*%
%ADD22R,0.02402X0.01378*%
%ADD23R,0.01378X0.02402*%
%ADD24R,0.01181X0.04724*%
%ADD25R,0.04724X0.10630*%
%ADD26R,0.03150X0.04331*%
%ADD27R,0.05709X0.06142*%
%ADD28R,0.02677X0.01181*%
%ADD29R,0.02362X0.03150*%
%ADD30R,0.06102X0.02362*%
%ADD31R,0.04724X0.01181*%
%ADD32R,0.03150X0.02362*%
%ADD33R,0.01063X0.01457*%
%ADD34R,0.07480X0.04331*%
%ADD35R,0.03622X0.03228*%
%ADD36R,0.04331X0.02362*%
%ADD37R,0.05709X0.01772*%
D16*
X-45600Y81400D02*
D03*
X-39600D02*
D03*
X-45619Y86500D02*
D03*
X-39619D02*
D03*
X-3100Y211400D02*
D03*
X2900D02*
D03*
X52800Y199200D02*
D03*
X46800D02*
D03*
X-62400Y138947D02*
D03*
X-56400D02*
D03*
X-75600Y152647D02*
D03*
X-69600D02*
D03*
X66000Y68600D02*
D03*
X72000D02*
D03*
X-41219Y196093D02*
D03*
X-35219D02*
D03*
X58450Y154034D02*
D03*
X52450D02*
D03*
X69000D02*
D03*
X63000D02*
D03*
X43869Y166300D02*
D03*
X49869D02*
D03*
X78700Y56600D02*
D03*
X84700D02*
D03*
Y61600D02*
D03*
X78700D02*
D03*
X-27000Y212353D02*
D03*
X-33000D02*
D03*
Y217353D02*
D03*
X-27000D02*
D03*
X-69600Y147747D02*
D03*
X-75600D02*
D03*
X-33000Y222353D02*
D03*
X-27000D02*
D03*
X-69300D02*
D03*
X-75300D02*
D03*
D17*
X-70000Y122953D02*
D03*
Y89488D02*
D03*
D18*
X-52900Y125335D02*
D03*
Y127697D02*
D03*
Y118597D02*
D03*
Y116235D02*
D03*
D19*
X-57400Y115453D02*
D03*
Y109453D02*
D03*
X60340Y226844D02*
D03*
Y220844D02*
D03*
X52740D02*
D03*
Y226844D02*
D03*
X47440Y220844D02*
D03*
Y226844D02*
D03*
X65600Y210800D02*
D03*
Y204800D02*
D03*
X47440Y205000D02*
D03*
Y211000D02*
D03*
X-69900Y211600D02*
D03*
Y217600D02*
D03*
X-57400Y103253D02*
D03*
Y97253D02*
D03*
X58800Y175353D02*
D03*
Y181353D02*
D03*
X63700Y175353D02*
D03*
Y181353D02*
D03*
D20*
X60280Y204987D02*
D03*
X56540D02*
D03*
X52800D02*
D03*
Y215302D02*
D03*
X56540D02*
D03*
X60280D02*
D03*
D21*
X-15000Y155483D02*
D03*
Y153317D02*
D03*
D22*
X56450Y165068D02*
D03*
Y163099D02*
D03*
Y161131D02*
D03*
Y159162D02*
D03*
X65584D02*
D03*
Y161131D02*
D03*
Y163099D02*
D03*
Y165068D02*
D03*
D23*
X59049Y158532D02*
D03*
X61017D02*
D03*
X62986D02*
D03*
Y165698D02*
D03*
X61017D02*
D03*
X59049D02*
D03*
D24*
X-1369Y144828D02*
D03*
X-3337D02*
D03*
X-5305D02*
D03*
X-13180D02*
D03*
X-15148D02*
D03*
X24222Y83804D02*
D03*
X22253D02*
D03*
X20285D02*
D03*
X18316D02*
D03*
X16348D02*
D03*
X14379D02*
D03*
X12411D02*
D03*
X10442D02*
D03*
X8474D02*
D03*
X6505D02*
D03*
X4537D02*
D03*
X2568D02*
D03*
X600D02*
D03*
X-1369D02*
D03*
X-3337D02*
D03*
X-5305D02*
D03*
X-7274D02*
D03*
X-9243D02*
D03*
X-11211D02*
D03*
X-13180D02*
D03*
X-15148D02*
D03*
X-17117D02*
D03*
X-19085D02*
D03*
X-21054D02*
D03*
X-23022D02*
D03*
Y144828D02*
D03*
X-21054D02*
D03*
X-19085D02*
D03*
X-17117D02*
D03*
X-11211D02*
D03*
X-9243D02*
D03*
X-7274D02*
D03*
X600D02*
D03*
X2568D02*
D03*
X4537D02*
D03*
X6505D02*
D03*
X8474D02*
D03*
X10442D02*
D03*
X12411D02*
D03*
X14379D02*
D03*
X16348D02*
D03*
X18316D02*
D03*
X20285D02*
D03*
X22254D02*
D03*
X24222D02*
D03*
D25*
X37323Y41072D02*
D03*
Y21780D02*
D03*
X-42323Y41072D02*
D03*
Y21780D02*
D03*
D26*
X-32500Y20599D02*
D03*
Y42253D02*
D03*
X-27500Y20599D02*
D03*
X-22500D02*
D03*
X-17500D02*
D03*
X-12500D02*
D03*
X-7500D02*
D03*
X-2500D02*
D03*
X2500D02*
D03*
X7500D02*
D03*
X12500D02*
D03*
X17500D02*
D03*
X22500D02*
D03*
X27500D02*
D03*
X-27500Y42253D02*
D03*
X-22500D02*
D03*
X-17500D02*
D03*
X-12500D02*
D03*
X-7500D02*
D03*
X-2500D02*
D03*
X2500D02*
D03*
X7500D02*
D03*
X12500D02*
D03*
X17500D02*
D03*
X22500D02*
D03*
X27500D02*
D03*
D27*
X66400Y61353D02*
D03*
D28*
X61046Y64306D02*
D03*
Y62337D02*
D03*
Y60369D02*
D03*
Y58400D02*
D03*
X71754D02*
D03*
Y60369D02*
D03*
Y62337D02*
D03*
Y64306D02*
D03*
D29*
X-62406Y158000D02*
D03*
X-56894D02*
D03*
X-8869Y165700D02*
D03*
X-3357D02*
D03*
X49612Y161600D02*
D03*
X44100D02*
D03*
X-82368Y212400D02*
D03*
X-76856D02*
D03*
D30*
X-62230Y217353D02*
D03*
Y212353D02*
D03*
Y207353D02*
D03*
Y222353D02*
D03*
X-40970D02*
D03*
Y217353D02*
D03*
Y212353D02*
D03*
Y207353D02*
D03*
D31*
X31112Y137938D02*
D03*
Y135969D02*
D03*
Y134001D02*
D03*
Y132032D02*
D03*
Y130064D02*
D03*
Y128095D02*
D03*
Y126127D02*
D03*
Y124158D02*
D03*
Y122190D02*
D03*
Y120221D02*
D03*
Y118253D02*
D03*
Y116284D02*
D03*
Y114316D02*
D03*
Y112347D02*
D03*
Y110379D02*
D03*
Y108410D02*
D03*
Y106442D02*
D03*
Y104473D02*
D03*
Y102505D02*
D03*
Y100536D02*
D03*
Y98568D02*
D03*
Y96599D02*
D03*
Y94631D02*
D03*
Y92662D02*
D03*
Y90694D02*
D03*
X-29912D02*
D03*
Y92662D02*
D03*
Y94631D02*
D03*
Y96599D02*
D03*
Y98568D02*
D03*
Y100536D02*
D03*
Y102505D02*
D03*
Y104473D02*
D03*
Y106442D02*
D03*
Y108410D02*
D03*
Y110379D02*
D03*
Y112347D02*
D03*
Y114316D02*
D03*
Y116284D02*
D03*
Y118253D02*
D03*
Y120221D02*
D03*
Y122190D02*
D03*
Y124158D02*
D03*
Y126127D02*
D03*
Y128095D02*
D03*
Y130064D02*
D03*
Y132032D02*
D03*
Y134001D02*
D03*
Y135969D02*
D03*
Y137938D02*
D03*
D32*
X-133943Y133806D02*
D03*
Y121994D02*
D03*
X-126857Y133806D02*
D03*
Y121994D02*
D03*
D33*
X-22283Y155900D02*
D03*
X-20117D02*
D03*
X-22283Y153100D02*
D03*
X-20117D02*
D03*
X-41417Y96353D02*
D03*
X-43583D02*
D03*
X-46785Y106734D02*
D03*
X-44619D02*
D03*
D34*
X-45800Y127037D02*
D03*
Y117194D02*
D03*
D35*
X-16337Y207653D02*
D03*
X-8463Y203913D02*
D03*
Y211393D02*
D03*
X-16337Y222153D02*
D03*
X-8463Y218413D02*
D03*
Y225893D02*
D03*
D36*
X-56718Y196093D02*
D03*
Y192353D02*
D03*
Y188613D02*
D03*
X-46482D02*
D03*
Y196093D02*
D03*
D37*
X-39286Y144146D02*
D03*
Y146705D02*
D03*
Y149264D02*
D03*
Y151823D02*
D03*
X-62514D02*
D03*
Y149264D02*
D03*
Y146705D02*
D03*
Y144146D02*
D03*
M02*
