G04*
G04 #@! TF.GenerationSoftware,Altium Limited,Altium Designer,22.1.2 (22)*
G04*
G04 Layer_Physical_Order=1*
G04 Layer_Color=255*
%FSLAX25Y25*%
%MOIN*%
G70*
G04*
G04 #@! TF.SameCoordinates,4AADA1E1-E747-4A0A-B92B-AFF9719D9D6B*
G04*
G04*
G04 #@! TF.FilePolarity,Positive*
G04*
G01*
G75*
%ADD10C,0.01000*%
%ADD13C,0.00800*%
%ADD16R,0.03000X0.03500*%
%ADD17R,0.05906X0.21654*%
%ADD18R,0.01181X0.01181*%
%ADD19R,0.03500X0.03000*%
%ADD20R,0.02441X0.04803*%
%ADD21R,0.01457X0.01063*%
%ADD22R,0.02402X0.01378*%
%ADD23R,0.01378X0.02402*%
%ADD24R,0.01181X0.04724*%
%ADD25R,0.04724X0.10630*%
%ADD26R,0.03150X0.04331*%
%ADD27R,0.05709X0.06142*%
%ADD28R,0.02677X0.01181*%
%ADD29R,0.02362X0.03150*%
%ADD30R,0.06102X0.02362*%
%ADD31R,0.04724X0.01181*%
%ADD32R,0.03150X0.02362*%
%ADD33R,0.01063X0.01457*%
%ADD34R,0.07480X0.04331*%
%ADD35R,0.03622X0.03228*%
%ADD36R,0.04331X0.02362*%
%ADD37R,0.05709X0.01772*%
%ADD66C,0.01200*%
%ADD67C,0.02500*%
%ADD68C,0.03000*%
%ADD69C,0.02200*%
%ADD70C,0.02000*%
%ADD71C,0.01500*%
%ADD72C,0.01800*%
%ADD73R,0.03547X0.05400*%
%ADD74R,0.03000X0.04800*%
%ADD75R,0.03550X0.04900*%
%ADD76R,0.07800X0.08225*%
%ADD77R,0.11500X0.02100*%
%ADD78R,0.04900X0.02100*%
%ADD79R,0.03200X0.07564*%
%ADD80R,0.03200X0.07664*%
%ADD81R,0.03200X0.07699*%
%ADD82R,0.06802X0.03631*%
%ADD83R,0.06123X0.01979*%
%ADD84R,0.02833X0.05700*%
%ADD85R,0.03500X0.04000*%
%ADD86R,0.06802X0.01979*%
%ADD87R,0.05200X0.03200*%
%ADD88R,0.01700X0.02400*%
%ADD89R,0.04800X0.01500*%
%ADD90R,0.12000X0.10100*%
%ADD91R,0.03200X0.07801*%
%ADD92R,0.03400X0.15013*%
%ADD93R,0.06980X0.03972*%
%ADD94R,0.16400X0.03000*%
%ADD95R,0.12030X0.05260*%
%ADD96R,0.03800X0.17625*%
%ADD97R,0.15195X0.03800*%
%ADD98R,0.17740X0.07884*%
%ADD99R,0.05675X0.07200*%
%ADD100R,0.17740X0.03166*%
%ADD101R,0.03800X0.18091*%
%ADD102R,0.04400X0.09476*%
%ADD103R,0.13200X0.04100*%
%ADD104R,0.04100X0.07380*%
%ADD105R,0.02832X0.03475*%
G04:AMPARAMS|DCode=106|XSize=85.56mil|YSize=45.96mil|CornerRadius=0mil|HoleSize=0mil|Usage=FLASHONLY|Rotation=135.000|XOffset=0mil|YOffset=0mil|HoleType=Round|Shape=Rectangle|*
%AMROTATEDRECTD106*
4,1,4,0.04650,-0.01400,0.01400,-0.04650,-0.04650,0.01400,-0.01400,0.04650,0.04650,-0.01400,0.0*
%
%ADD106ROTATEDRECTD106*%

%ADD107R,0.03600X0.15200*%
%ADD108R,0.03667X0.18147*%
%ADD109R,0.14700X0.12253*%
%ADD110R,0.03800X0.04397*%
%ADD111R,0.23225X0.08950*%
%ADD112R,0.06800X0.04000*%
%ADD113R,0.03400X0.15000*%
%ADD114R,0.03400X0.11500*%
%ADD115R,0.09000X0.02600*%
%ADD116R,0.16400X0.03394*%
%ADD117R,0.01400X0.08200*%
%ADD118R,0.03300X0.10147*%
%ADD119R,0.09700X0.08400*%
%ADD120R,0.16500X0.07125*%
%ADD121R,0.20910X0.11060*%
%ADD122R,0.16300X0.11152*%
%ADD123R,0.10500X0.22300*%
%ADD124R,0.15992X0.06497*%
%ADD125R,0.01900X0.04800*%
%ADD126R,0.08928X0.07157*%
%ADD127R,0.04100X0.03000*%
%ADD128R,0.03700X0.03544*%
%ADD129R,0.03500X0.03600*%
%ADD130R,0.12150X0.03100*%
%ADD131R,0.03800X0.18400*%
%ADD132R,0.07300X0.06200*%
%ADD133R,0.09800X0.20200*%
%ADD134R,0.18900X0.11800*%
%ADD135R,0.01800X0.02400*%
%ADD136R,0.06225X0.05039*%
%ADD137R,0.19700X0.05747*%
%ADD138C,0.11811*%
%ADD139R,0.07087X0.07087*%
%ADD140C,0.07087*%
%ADD141C,0.02362*%
D10*
X-25900Y90100D02*
G03*
X-27107Y90600I-1207J-1207D01*
G01*
X-25558Y89275D02*
G03*
X-25900Y90100I-1167J0D01*
G01*
X-23300Y90500D02*
G03*
X-28520Y92662I-5220J-5220D01*
G01*
X-25496Y99954D02*
G03*
X-27726Y100536I-2230J-3980D01*
G01*
X-24500Y99200D02*
G03*
X-25496Y99954I-3226J-3226D01*
G01*
X39440Y122190D02*
G03*
X42887Y123616I0J4878D01*
G01*
X41872Y120221D02*
G03*
X45200Y121600I0J4707D01*
G01*
X600Y85956D02*
G03*
X-2109Y88685I-2709J19D01*
G01*
X42887Y123616D02*
G03*
X42889Y123619I-3447J3452D01*
G01*
X21200Y78321D02*
G03*
X22253Y80865I-2543J2543D01*
G01*
X31112Y92662D02*
X35913D01*
X38035Y90540D02*
X40333D01*
X35913Y92662D02*
X38035Y90540D01*
X35370Y90694D02*
X38664Y87400D01*
X31112Y90694D02*
X35370D01*
X25000Y92700D02*
X26931Y94631D01*
X25000Y89600D02*
Y92700D01*
X26931Y94631D02*
X31112D01*
X1200Y108200D02*
X14900D01*
X26501Y96599D01*
X31112D01*
X-3600Y138500D02*
X5200Y129700D01*
Y119300D02*
Y129700D01*
X-3600Y138500D02*
Y143122D01*
X-5305Y144828D02*
X-3600Y143122D01*
X-1369Y139469D02*
Y144269D01*
X-1400Y144300D02*
X-1369Y144269D01*
X4000Y134100D02*
X17000D01*
X-1369Y139469D02*
X4000Y134100D01*
X-13225Y100390D02*
X11710D01*
X-30200Y108410D02*
X-29912D01*
X-19545Y117335D02*
X-5877Y103666D01*
X14529D01*
X-5172Y105366D02*
X15234D01*
X-21246Y108410D02*
X-13225Y100390D01*
X-16412Y116606D02*
X-5172Y105366D01*
X-22266Y117002D02*
X-22227Y116962D01*
X-23979Y117002D02*
X-22266D01*
X-54312Y103253D02*
X-50831Y106734D01*
X-46785D01*
X-57400Y103253D02*
X-54312D01*
X-39328Y134694D02*
X-36666Y132032D01*
X-39328Y134760D02*
X-39296Y134791D01*
X-39328Y134694D02*
Y134760D01*
X-36666Y132032D02*
X-29263D01*
X-39819Y132319D02*
X-37564Y130064D01*
X-42500Y132524D02*
X-42295Y132319D01*
X-39819D01*
X14379Y77682D02*
Y83804D01*
Y77682D02*
X21060Y71002D01*
X12405Y76007D02*
Y83099D01*
X7400Y71002D02*
X12405Y76007D01*
X7400Y74900D02*
X10442Y77943D01*
Y83053D01*
X54266Y87110D02*
Y106634D01*
X53056Y85900D02*
X54266Y87110D01*
X53056Y82604D02*
Y85900D01*
X49694Y82604D02*
Y86994D01*
X52566Y89866D02*
Y105738D01*
X49694Y86994D02*
X52566Y89866D01*
X4546Y83113D02*
Y92497D01*
X6050Y94000D01*
X-2109D02*
X2568Y89322D01*
Y83804D02*
Y89322D01*
X-21682Y106442D02*
X-12828Y97588D01*
X13056D01*
X20285Y83804D02*
Y100315D01*
X15234Y105366D02*
X20285Y100315D01*
X18316Y83804D02*
Y99879D01*
X14529Y103666D02*
X18316Y99879D01*
X31112Y132032D02*
X52400D01*
X64817Y169617D02*
X66500D01*
X-15148Y144828D02*
Y153317D01*
X-13180Y140879D02*
Y144828D01*
X-28500Y90600D02*
X-27107D01*
X-25558Y88053D02*
Y89275D01*
X-23377Y91057D02*
X-23377Y91057D01*
X-23384Y91065D02*
X-23377Y91057D01*
X-29912Y92662D02*
X-28520D01*
X-29912Y100536D02*
X-27726D01*
X60182Y215086D02*
X60340Y215244D01*
X-20700Y96353D02*
Y101653D01*
X-23520Y104473D02*
X-20700Y101653D01*
X-16412Y116606D02*
Y136693D01*
X-19545Y117335D02*
Y136750D01*
X-30045Y106442D02*
X-29912D01*
X20762Y154915D02*
Y156772D01*
X14379Y148532D02*
X20762Y154915D01*
X24222Y148322D02*
X26000Y150100D01*
Y156772D01*
X24222Y144828D02*
Y148322D01*
X-29912Y106442D02*
X-21682D01*
X17461Y154414D02*
Y156772D01*
X12411Y149364D02*
X17461Y154414D01*
X12411Y145164D02*
Y149364D01*
X14379Y144828D02*
Y148532D01*
X-22355Y155900D02*
X-22283D01*
X-22900Y156445D02*
X-22355Y155900D01*
X-26600Y156600D02*
X-22500D01*
X-22300Y156400D01*
X-15000Y155483D02*
Y157800D01*
X26700Y116000D02*
X26800D01*
X31112Y130064D02*
X42604D01*
X42105Y128095D02*
X52400Y117800D01*
X42604Y130064D02*
X56279Y116388D01*
X31112Y128095D02*
X42105D01*
X67800Y77100D02*
X73700D01*
X76400Y64456D02*
Y74400D01*
X73700Y77100D02*
X76400Y74400D01*
X68002Y154204D02*
X68150Y154056D01*
X50866Y92040D02*
Y105034D01*
X47113Y88287D02*
X50866Y92040D01*
X31112Y122190D02*
X39440D01*
X52200Y106104D02*
Y106153D01*
X41584Y114316D02*
X50866Y105034D01*
X52200Y106104D02*
X52566Y105738D01*
X42647Y118253D02*
X54266Y106634D01*
X42068Y116284D02*
X52200Y106153D01*
X52400Y114181D02*
Y117800D01*
X31112Y120221D02*
X41872D01*
X-2109Y88685D02*
X-2109Y88685D01*
X600Y83804D02*
Y85949D01*
X-2109Y88685D02*
X-2109Y88685D01*
X600Y85956D02*
X600Y85949D01*
X21200Y78321D02*
Y78535D01*
X22253Y80865D02*
Y83804D01*
X31112Y114316D02*
X41584D01*
X-27108Y120131D02*
X-23979Y117002D01*
X-29912Y108410D02*
X-21246D01*
X4537Y144828D02*
Y155830D01*
X6505Y145358D02*
Y154562D01*
X7452Y155509D02*
Y157229D01*
X6505Y154562D02*
X7452Y155509D01*
Y157229D02*
X7488Y157265D01*
X10442Y151229D02*
X14167Y154953D01*
X10442Y145010D02*
Y151229D01*
X8474Y154127D02*
X11400Y157053D01*
X8474Y145127D02*
Y154127D01*
X900Y156100D02*
X2600Y154400D01*
Y145253D02*
Y154400D01*
X6400Y145253D02*
X6505Y145358D01*
X600Y145253D02*
Y152000D01*
X500Y145153D02*
X600Y145253D01*
X-2752Y155352D02*
X600Y152000D01*
X26637Y134483D02*
X28080Y135926D01*
X31069D01*
X31112Y135969D01*
X31106Y110353D02*
X37173D01*
X26800Y124953D02*
X27974Y126127D01*
X31112D01*
X26800Y119100D02*
Y124953D01*
X31112Y112347D02*
X40185D01*
X42033Y110500D01*
X31112Y116284D02*
X42068D01*
X31112Y118253D02*
X42647D01*
X37173Y110353D02*
X39527Y107999D01*
X8474Y85566D02*
Y87237D01*
X9337Y88100D02*
X11500D01*
X8474Y87237D02*
X9337Y88100D01*
X6505Y88665D02*
X8775Y90934D01*
X6505Y83104D02*
Y88665D01*
X-23000Y80134D02*
Y83082D01*
X-23741Y79393D02*
X-23000Y80134D01*
X-21054Y85566D02*
Y87512D01*
X-19313Y89253D02*
X-15500D01*
X-21054Y87512D02*
X-19313Y89253D01*
X-29821Y120131D02*
X-27108D01*
X-29912Y120221D02*
X-29821Y120131D01*
X-29912Y104473D02*
X-23520D01*
X-37564Y130064D02*
X-30957D01*
X-38600Y137900D02*
X-34701Y134001D01*
X-29241D01*
X52400Y114181D02*
X61181Y105400D01*
X74281Y62337D02*
X76400Y64456D01*
X71754Y62337D02*
X74281D01*
X74717Y60369D02*
X75948Y61600D01*
X75900Y57186D02*
Y57200D01*
X71754Y60369D02*
X74717D01*
X71754Y58400D02*
X74700D01*
X76486Y56600D02*
X78700D01*
X75900Y57186D02*
X76486Y56600D01*
X75948Y61600D02*
X78700D01*
X74700Y58400D02*
X75900Y57200D01*
X-9243Y83804D02*
Y90153D01*
X-26259Y79393D02*
X-23741D01*
X62986Y165698D02*
Y167786D01*
X64817Y169617D01*
X61017D02*
X63700Y172300D01*
Y175353D01*
X61017Y165698D02*
Y169617D01*
X56434Y165084D02*
X56450Y165068D01*
X59049Y165698D02*
Y175104D01*
X58800Y175353D02*
X59049Y175104D01*
X-7274Y83804D02*
Y88028D01*
X-5368Y89934D01*
D13*
X34232Y98568D02*
X39079Y93721D01*
X42364D01*
X41100Y88081D02*
X47766Y94747D01*
X41100Y75000D02*
Y88081D01*
X47766Y94747D02*
Y101260D01*
X17174Y115126D02*
X20600Y118553D01*
Y137100D01*
X2500Y20599D02*
X2500Y20599D01*
X48000Y157597D02*
X48703Y158300D01*
X48000Y155631D02*
Y157597D01*
X48703Y158300D02*
X53177D01*
X54039Y159162D01*
X42449Y96819D02*
X42471Y96841D01*
X42471D01*
X-13180Y140879D02*
X-13100Y140800D01*
X14300Y140300D02*
X16158Y142157D01*
Y144233D01*
X16400Y144476D01*
X-18700Y155900D02*
X-17083Y154283D01*
Y144861D02*
Y154283D01*
X-13200Y140700D02*
X-13100Y140800D01*
X-20000Y155900D02*
X-18700D01*
X18300Y140233D02*
X18316Y140217D01*
Y144828D01*
X18300Y140233D02*
Y140300D01*
X20285Y141715D02*
Y144828D01*
Y141715D02*
X23000Y139000D01*
X22254Y144828D02*
Y150400D01*
X23000Y118000D02*
Y139000D01*
X25000Y116000D02*
X26700D01*
X23000Y118000D02*
X25000Y116000D01*
X-19100Y144800D02*
Y150554D01*
X44000Y82604D02*
Y88800D01*
X31112Y108410D02*
X35890D01*
X30716D02*
X31112D01*
X34995Y102505D02*
X37881Y99619D01*
X43466D01*
X45485Y97600D01*
X44000Y88800D02*
X49266Y94066D01*
X48800Y102347D02*
Y102385D01*
X44826Y104200D02*
X47766Y101260D01*
X48800Y102347D02*
X49266Y101882D01*
Y94066D02*
Y101882D01*
X45485Y105700D02*
X48800Y102385D01*
X38600Y105700D02*
X45485D01*
X35890Y108410D02*
X38600Y105700D01*
X37979Y104200D02*
X44826D01*
X38157Y101900D02*
X43600D01*
X-34701Y137154D02*
X-33547Y136000D01*
X-36078Y139637D02*
X-34701Y138260D01*
Y137154D02*
Y138260D01*
X-33547Y136000D02*
X-30003D01*
X31112Y104473D02*
X35584D01*
X38157Y101900D01*
X38260Y96819D02*
X42449D01*
X31208Y100553D02*
X34527D01*
X38260Y96819D01*
X31112Y102505D02*
X34995D01*
X16348Y79947D02*
Y83804D01*
Y79947D02*
X21060Y75236D01*
X-20117Y151572D02*
X-19100Y150554D01*
X-20117Y151572D02*
Y153100D01*
X31112Y98568D02*
X34232D01*
X35737Y106442D02*
X37979Y104200D01*
X31112Y106442D02*
X35737D01*
X54039Y159162D02*
X56450D01*
X39527Y107999D02*
X39527D01*
X-23022Y83104D02*
X-23000Y83082D01*
D16*
X-45600Y81400D02*
D03*
X-39600D02*
D03*
X-45619Y86500D02*
D03*
X-39619D02*
D03*
X-3100Y211400D02*
D03*
X2900D02*
D03*
X52800Y199200D02*
D03*
X46800D02*
D03*
X-62400Y138947D02*
D03*
X-56400D02*
D03*
X-75600Y152647D02*
D03*
X-69600D02*
D03*
X66000Y68600D02*
D03*
X72000D02*
D03*
X-41219Y196093D02*
D03*
X-35219D02*
D03*
X58450Y154034D02*
D03*
X52450D02*
D03*
X69000D02*
D03*
X63000D02*
D03*
X43869Y166300D02*
D03*
X49869D02*
D03*
X78700Y56600D02*
D03*
X84700D02*
D03*
Y61600D02*
D03*
X78700D02*
D03*
X-27000Y212353D02*
D03*
X-33000D02*
D03*
Y217353D02*
D03*
X-27000D02*
D03*
X-69600Y147747D02*
D03*
X-75600D02*
D03*
X-33000Y222353D02*
D03*
X-27000D02*
D03*
X-69300D02*
D03*
X-75300D02*
D03*
D17*
X-70000Y122953D02*
D03*
Y89488D02*
D03*
D18*
X-52900Y125335D02*
D03*
Y127697D02*
D03*
Y118597D02*
D03*
Y116235D02*
D03*
D19*
X-57400Y115453D02*
D03*
Y109453D02*
D03*
X60340Y226844D02*
D03*
Y220844D02*
D03*
X52740D02*
D03*
Y226844D02*
D03*
X47440Y220844D02*
D03*
Y226844D02*
D03*
X65600Y210800D02*
D03*
Y204800D02*
D03*
X47440Y205000D02*
D03*
Y211000D02*
D03*
X-69900Y211600D02*
D03*
Y217600D02*
D03*
X-57400Y103253D02*
D03*
Y97253D02*
D03*
X58800Y175353D02*
D03*
Y181353D02*
D03*
X63700Y175353D02*
D03*
Y181353D02*
D03*
D20*
X60280Y204987D02*
D03*
X56540D02*
D03*
X52800D02*
D03*
Y215302D02*
D03*
X56540D02*
D03*
X60280D02*
D03*
D21*
X-15000Y155483D02*
D03*
Y153317D02*
D03*
D22*
X56450Y165068D02*
D03*
Y163099D02*
D03*
Y161131D02*
D03*
Y159162D02*
D03*
X65584D02*
D03*
Y161131D02*
D03*
Y163099D02*
D03*
Y165068D02*
D03*
D23*
X59049Y158532D02*
D03*
X61017D02*
D03*
X62986D02*
D03*
Y165698D02*
D03*
X61017D02*
D03*
X59049D02*
D03*
D24*
X-1369Y144828D02*
D03*
X-3337D02*
D03*
X-5305D02*
D03*
X-13180D02*
D03*
X-15148D02*
D03*
X24222Y83804D02*
D03*
X22253D02*
D03*
X20285D02*
D03*
X18316D02*
D03*
X16348D02*
D03*
X14379D02*
D03*
X12411D02*
D03*
X10442D02*
D03*
X8474D02*
D03*
X6505D02*
D03*
X4537D02*
D03*
X2568D02*
D03*
X600D02*
D03*
X-1369D02*
D03*
X-3337D02*
D03*
X-5305D02*
D03*
X-7274D02*
D03*
X-9243D02*
D03*
X-11211D02*
D03*
X-13180D02*
D03*
X-15148D02*
D03*
X-17117D02*
D03*
X-19085D02*
D03*
X-21054D02*
D03*
X-23022D02*
D03*
Y144828D02*
D03*
X-21054D02*
D03*
X-19085D02*
D03*
X-17117D02*
D03*
X-11211D02*
D03*
X-9243D02*
D03*
X-7274D02*
D03*
X600D02*
D03*
X2568D02*
D03*
X4537D02*
D03*
X6505D02*
D03*
X8474D02*
D03*
X10442D02*
D03*
X12411D02*
D03*
X14379D02*
D03*
X16348D02*
D03*
X18316D02*
D03*
X20285D02*
D03*
X22254D02*
D03*
X24222D02*
D03*
D25*
X37323Y41072D02*
D03*
Y21780D02*
D03*
X-42323Y41072D02*
D03*
Y21780D02*
D03*
D26*
X-32500Y20599D02*
D03*
Y42253D02*
D03*
X-27500Y20599D02*
D03*
X-22500D02*
D03*
X-17500D02*
D03*
X-12500D02*
D03*
X-7500D02*
D03*
X-2500D02*
D03*
X2500D02*
D03*
X7500D02*
D03*
X12500D02*
D03*
X17500D02*
D03*
X22500D02*
D03*
X27500D02*
D03*
X-27500Y42253D02*
D03*
X-22500D02*
D03*
X-17500D02*
D03*
X-12500D02*
D03*
X-7500D02*
D03*
X-2500D02*
D03*
X2500D02*
D03*
X7500D02*
D03*
X12500D02*
D03*
X17500D02*
D03*
X22500D02*
D03*
X27500D02*
D03*
D27*
X66400Y61353D02*
D03*
D28*
X61046Y64306D02*
D03*
Y62337D02*
D03*
Y60369D02*
D03*
Y58400D02*
D03*
X71754D02*
D03*
Y60369D02*
D03*
Y62337D02*
D03*
Y64306D02*
D03*
D29*
X-62406Y158000D02*
D03*
X-56894D02*
D03*
X-8869Y165700D02*
D03*
X-3357D02*
D03*
X49612Y161600D02*
D03*
X44100D02*
D03*
X-82368Y212400D02*
D03*
X-76856D02*
D03*
D30*
X-62230Y217353D02*
D03*
Y212353D02*
D03*
Y207353D02*
D03*
Y222353D02*
D03*
X-40970D02*
D03*
Y217353D02*
D03*
Y212353D02*
D03*
Y207353D02*
D03*
D31*
X31112Y137938D02*
D03*
Y135969D02*
D03*
Y134001D02*
D03*
Y132032D02*
D03*
Y130064D02*
D03*
Y128095D02*
D03*
Y126127D02*
D03*
Y124158D02*
D03*
Y122190D02*
D03*
Y120221D02*
D03*
Y118253D02*
D03*
Y116284D02*
D03*
Y114316D02*
D03*
Y112347D02*
D03*
Y110379D02*
D03*
Y108410D02*
D03*
Y106442D02*
D03*
Y104473D02*
D03*
Y102505D02*
D03*
Y100536D02*
D03*
Y98568D02*
D03*
Y96599D02*
D03*
Y94631D02*
D03*
Y92662D02*
D03*
Y90694D02*
D03*
X-29912D02*
D03*
Y92662D02*
D03*
Y94631D02*
D03*
Y96599D02*
D03*
Y98568D02*
D03*
Y100536D02*
D03*
Y102505D02*
D03*
Y104473D02*
D03*
Y106442D02*
D03*
Y108410D02*
D03*
Y110379D02*
D03*
Y112347D02*
D03*
Y114316D02*
D03*
Y116284D02*
D03*
Y118253D02*
D03*
Y120221D02*
D03*
Y122190D02*
D03*
Y124158D02*
D03*
Y126127D02*
D03*
Y128095D02*
D03*
Y130064D02*
D03*
Y132032D02*
D03*
Y134001D02*
D03*
Y135969D02*
D03*
Y137938D02*
D03*
D32*
X-133943Y133806D02*
D03*
Y121994D02*
D03*
X-126857Y133806D02*
D03*
Y121994D02*
D03*
D33*
X-22283Y155900D02*
D03*
X-20117D02*
D03*
X-22283Y153100D02*
D03*
X-20117D02*
D03*
X-41417Y96353D02*
D03*
X-43583D02*
D03*
X-46785Y106734D02*
D03*
X-44619D02*
D03*
D34*
X-45800Y127037D02*
D03*
Y117194D02*
D03*
D35*
X-16337Y207653D02*
D03*
X-8463Y203913D02*
D03*
Y211393D02*
D03*
X-16337Y222153D02*
D03*
X-8463Y218413D02*
D03*
Y225893D02*
D03*
D36*
X-56718Y196093D02*
D03*
Y192353D02*
D03*
Y188613D02*
D03*
X-46482D02*
D03*
Y196093D02*
D03*
D37*
X-39286Y144146D02*
D03*
Y146705D02*
D03*
Y149264D02*
D03*
Y151823D02*
D03*
X-62514D02*
D03*
Y149264D02*
D03*
Y146705D02*
D03*
Y144146D02*
D03*
D66*
X34889Y124158D02*
G03*
X36802Y124951I0J2705D01*
G01*
X-43583Y99217D02*
X-42447Y100353D01*
X-43583Y96353D02*
Y99217D01*
X-41200Y93653D02*
X-39300Y91753D01*
X-41200Y93653D02*
Y96353D01*
X19500Y51700D02*
X44600D01*
X53300Y43000D01*
X-36800Y86500D02*
X-35800Y87500D01*
Y93262D01*
X-39619Y86500D02*
X-36800D01*
X-35800Y93262D02*
X-34431Y94631D01*
X-29912D01*
X-41863Y109453D02*
X-35032Y116284D01*
X-57400Y109453D02*
X-41863D01*
X-47160Y116235D02*
X-46200Y117194D01*
X-46860Y127697D02*
X-46200Y127037D01*
X-44625D02*
X-43060Y125472D01*
Y125260D02*
Y125472D01*
Y125260D02*
X-41958Y124158D01*
X3184Y66621D02*
X53321D01*
X63800Y77100D01*
X-3337Y75828D02*
X3971Y68521D01*
X-5305Y75110D02*
X3184Y66621D01*
X49521Y68521D02*
X66877Y85877D01*
X3971Y68521D02*
X49521D01*
X-300Y53500D02*
X9431Y63231D01*
X43980D01*
X55800Y19100D02*
Y48200D01*
X53000Y51000D02*
X55800Y48200D01*
X7563Y16479D02*
Y21048D01*
X12642Y11400D02*
X48100D01*
X7563Y16479D02*
X12642Y11400D01*
X7500Y21112D02*
X7563Y21048D01*
X66877Y85877D02*
Y137777D01*
X75400Y146300D02*
Y158900D01*
X66877Y137777D02*
X75400Y146300D01*
X48000Y150577D02*
X60600Y137977D01*
Y115600D02*
Y137977D01*
X48000Y150577D02*
Y155631D01*
X-42447Y100353D02*
X-38409D01*
X-85962Y99234D02*
Y164338D01*
Y99078D02*
Y99234D01*
X-34500Y101149D02*
X-33144Y102505D01*
X-31674D01*
X48100Y11400D02*
X55800Y19100D01*
X47013Y14000D02*
X53300Y20287D01*
Y43000D01*
X-68300Y182000D02*
X9400D01*
X-85962Y164338D02*
X-68300Y182000D01*
X-68750Y176350D02*
X34750D01*
X-68800Y176300D02*
X-68750Y176350D01*
X34750D02*
X34800Y176400D01*
X-9243Y144828D02*
Y156945D01*
X-7274Y144828D02*
Y156226D01*
Y144128D02*
Y144828D01*
X-11211Y144128D02*
Y144828D01*
X-13900Y162000D02*
X-11211Y159311D01*
Y144828D02*
Y159311D01*
X38513Y211000D02*
X47440D01*
X9400Y182000D02*
X38248Y210848D01*
X47496Y210944D02*
X59140D01*
X60182Y211986D01*
Y215086D01*
X-3447Y160053D02*
X28253D01*
X40927Y172727D02*
X45488D01*
X28253Y160053D02*
X40927Y172727D01*
X-4234Y161953D02*
X27203D01*
X40603Y175353D01*
X58800D01*
X-9243Y156945D02*
X-4234Y161953D01*
X-27000Y212353D02*
X-24353D01*
X-19653Y207653D02*
X-16337D01*
X-24353Y212353D02*
X-19653Y207653D01*
X-19774Y222153D02*
X-16534D01*
X-24574Y217353D02*
X-19774Y222153D01*
X-27000Y217353D02*
X-24574D01*
X67300Y175600D02*
X67700D01*
X64197D02*
X67300D01*
X-65300Y173200D02*
X26000Y173200D01*
X-26600Y151300D02*
Y153200D01*
Y151300D02*
X-23022Y147722D01*
Y144828D02*
Y147722D01*
X-44700Y162000D02*
X-13900D01*
X-56444Y146705D02*
X-52999Y143260D01*
X-53964Y149264D02*
X-50200Y145500D01*
X-65983Y149264D02*
X-53964D01*
X-62514Y146705D02*
X-56444D01*
X-62514Y151823D02*
X-52999D01*
X-66076D02*
X-62514D01*
X-22351Y153228D02*
Y153601D01*
X-22300Y150628D02*
Y152972D01*
Y150628D02*
X-21054Y149381D01*
X65584Y161131D02*
X73169D01*
X75400Y158900D01*
X52478Y166300D02*
X53695Y165084D01*
X49869Y166300D02*
X52478D01*
X53695Y165084D02*
X56434D01*
X-35032Y116284D02*
X-31674D01*
X25000Y14000D02*
X47013D01*
X73679Y125521D02*
X78700Y120500D01*
Y61800D02*
Y120500D01*
X59049Y154483D02*
Y158532D01*
X-7530Y53530D02*
X-7500Y53500D01*
X-26274Y126127D02*
X-25381Y125234D01*
X-28150Y126127D02*
X-26274D01*
X-25381Y121972D02*
Y125234D01*
X36488Y124951D02*
X36802D01*
X31112Y124158D02*
X34889D01*
X2568Y83104D02*
Y83804D01*
X-21647Y112347D02*
X-19100Y109800D01*
X-7274Y156226D02*
X-3447Y160053D01*
X-21054Y144128D02*
Y149381D01*
X31112Y134001D02*
X40267D01*
X43219Y136953D01*
X-17117Y76536D02*
Y83804D01*
X-22500Y42253D02*
Y71153D01*
Y40790D02*
Y42253D01*
X-19094Y83095D02*
X-19085Y83104D01*
X-19094Y79106D02*
Y83095D01*
X-23100Y76953D02*
X-21247D01*
X-41340Y96590D02*
X-29921D01*
X-29912Y96599D01*
X-38409Y100353D02*
X-36624Y98568D01*
X-29912D01*
X-44900Y103253D02*
X-36983D01*
X-34500Y105736D01*
Y108893D01*
X-23700Y138550D02*
X-21037Y141213D01*
X-28150Y112347D02*
X-21647D01*
X-33024Y110369D02*
X-29921D01*
X-34500Y108893D02*
X-33024Y110369D01*
X-29921D02*
X-29912Y110379D01*
X-36400Y110368D02*
X-32452Y114316D01*
X-36400Y107437D02*
Y110368D01*
X-32452Y114316D02*
X-31674D01*
X-39200Y118253D02*
X-31674D01*
X-44625Y117194D02*
X-39630Y122190D01*
X-31674D01*
X-41958Y124158D02*
X-31674D01*
X-39700Y128095D02*
X-31674D01*
X-21037Y141213D02*
Y144128D01*
X-7500Y53500D02*
X-300D01*
X-14900Y57300D02*
X-13180Y59021D01*
Y83804D01*
X-17500Y42253D02*
Y73466D01*
X-15148Y75818D01*
X-11211Y49599D02*
Y83804D01*
X-12500Y48310D02*
X-11211Y49599D01*
X78700Y52900D02*
Y56600D01*
X-69600Y152647D02*
X-66900D01*
X-66076Y151823D01*
X-67500Y147747D02*
X-65983Y149264D01*
X-69600Y147747D02*
X-67500D01*
X63871Y175273D02*
X64197Y175600D01*
X-21247Y76953D02*
X-19094Y79106D01*
X-15148Y75818D02*
Y83804D01*
X-1369Y77569D02*
Y83804D01*
Y77569D02*
X1000Y75200D01*
X-5305Y75110D02*
Y83804D01*
X-3337Y75828D02*
Y83804D01*
X22500Y16500D02*
Y20599D01*
Y16500D02*
X25000Y14000D01*
X-12500Y42253D02*
Y48310D01*
X-22500Y71153D02*
X-17117Y76536D01*
X18316Y146128D02*
X18317Y146128D01*
X4537Y83104D02*
X4546Y83113D01*
X-5368Y89934D02*
Y89934D01*
X-44551Y106734D02*
X-37103D01*
X-36400Y107437D01*
D67*
X-45600Y77400D02*
Y81400D01*
X-39610Y81410D02*
Y86490D01*
X60280Y200979D02*
Y204923D01*
X44023Y158300D02*
Y161615D01*
X-57400Y93227D02*
Y97253D01*
X58600Y150301D02*
Y154181D01*
X52450Y150300D02*
Y154181D01*
X2900Y211500D02*
Y215647D01*
X43233Y199200D02*
X46800D01*
X65850Y211050D02*
X68650D01*
X69100Y211500D01*
X60280Y204923D02*
Y204987D01*
Y204923D02*
X60310Y204893D01*
X60312Y204955D02*
X65445D01*
X65213Y200950D02*
Y204550D01*
X65463Y204800D01*
X65600D01*
Y210800D02*
X65850Y211050D01*
X47440Y217352D02*
Y220744D01*
X-65953Y138947D02*
X-62400D01*
X-56353Y138900D02*
X-52800D01*
X66000Y68700D02*
X66250Y68450D01*
X-35219Y196093D02*
X-31500D01*
X63000Y150300D02*
Y154181D01*
X43824Y166000D02*
Y169550D01*
X-62230Y217353D02*
X-56800D01*
X-69900D02*
X-62230D01*
X-77000Y217600D02*
X-69900D01*
X84700Y56600D02*
Y61600D01*
Y65200D01*
X84800Y52900D02*
Y56500D01*
X84700Y56600D02*
X84800Y56500D01*
X-2500Y20599D02*
X-2500Y20599D01*
X-2900Y166450D02*
Y169300D01*
X-2607Y165700D02*
X743D01*
X-27000Y222453D02*
Y226600D01*
X-17500Y20599D02*
X-17500Y20599D01*
X-75500Y152647D02*
Y152997D01*
X-75350Y153147D01*
X-75600Y147747D02*
Y152647D01*
X-75300Y222353D02*
Y226253D01*
X63700Y181353D02*
X67300D01*
X58800D02*
X63700D01*
D68*
X12500Y47800D02*
X14800Y50100D01*
X12500Y42253D02*
Y47800D01*
X-15069Y165693D02*
X-9450D01*
X36461Y42400D02*
X37323Y41538D01*
Y41072D02*
Y41538D01*
X27600Y42400D02*
X36461D01*
X27500Y42253D02*
Y42300D01*
X27600Y42400D01*
X22500Y41662D02*
Y45800D01*
X-32500Y20599D02*
Y21264D01*
Y12800D02*
Y20599D01*
D69*
X-45548Y86571D02*
Y91753D01*
X-46476Y188606D02*
X-42200D01*
X-61040Y188613D02*
X-56718D01*
D70*
X-39619Y86500D02*
X-39610Y86490D01*
Y81410D02*
X-39600Y81400D01*
X-64109Y103253D02*
X-57400D01*
X-70000Y97362D02*
X-64109Y103253D01*
X-70000Y89488D02*
Y97362D01*
X-67555Y113126D02*
X-63882Y109453D01*
X-70500Y115579D02*
X-68047Y113126D01*
X-70500Y115579D02*
Y124553D01*
X-68047Y113126D02*
X-67555D01*
X-63882Y109453D02*
X-57400D01*
X-12397Y211397D02*
X-3104D01*
X-12400Y211400D02*
X-12397Y211397D01*
X-3104D02*
X-3100Y211400D01*
X-2500Y20599D02*
Y30100D01*
X-12500Y35900D02*
X-8300D01*
X-2500Y30100D01*
X6700Y35900D02*
X12500Y30100D01*
X600Y35900D02*
X6700D01*
X12500Y20599D02*
Y30100D01*
X-89400Y50353D02*
Y162100D01*
X-93400Y53853D02*
Y162100D01*
X47440Y226744D02*
X52840D01*
X60340D01*
X52750Y204937D02*
X52800Y204987D01*
X52793Y204993D02*
X52800Y204987D01*
X47300Y205000D02*
X47440D01*
X47447Y204993D02*
X52793D01*
X47440Y205000D02*
X47447Y204993D01*
X60280Y215302D02*
X60310Y215332D01*
Y220714D02*
X60340Y220744D01*
X60310Y215332D02*
Y220714D01*
X56500Y215342D02*
X56540Y215302D01*
X56500Y215342D02*
Y218944D01*
X52820Y220724D02*
X52840Y220744D01*
X52820Y215322D02*
Y220724D01*
X52800Y215302D02*
X52820Y215322D01*
X52700Y199200D02*
X52750Y199250D01*
Y204937D01*
X-97300Y103253D02*
Y162100D01*
X-36300Y222353D02*
X-33000D01*
X-40970D02*
X-36300D01*
Y212353D02*
X-33000D01*
X-40970D02*
X-36300D01*
X-62230Y222353D02*
X-54853D01*
X-69300D02*
X-62230D01*
X-54853D02*
X-51700Y219200D01*
Y188600D02*
Y219200D01*
X-46482Y188613D02*
X-46476Y188606D01*
X-123451Y118053D02*
X-110400D01*
X-133369D02*
X-123451D01*
X-133550Y121994D02*
X-133369Y121813D01*
X-36300Y217353D02*
X-33000D01*
X-40970D02*
X-36300D01*
X-40970Y207353D02*
X-36300D01*
X-66753Y192353D02*
X-56718D01*
X-68600Y194200D02*
Y205500D01*
Y194200D02*
X-66753Y192353D01*
X-68600Y205500D02*
X-66747Y207353D01*
X-62230D01*
X-8463Y218413D02*
X-4440D01*
X-8463Y225893D02*
X-4440D01*
D71*
X-2500Y48100D02*
X10000Y60600D01*
X49713D01*
X2500Y49757D02*
X10644Y57900D01*
X53019D01*
X-12460Y211407D02*
X-12400D01*
X2500Y42253D02*
Y49757D01*
X-2500Y42253D02*
Y48100D01*
X-8463Y203913D02*
X-4440D01*
D72*
X7500Y51000D02*
X11500Y55000D01*
X56200D01*
X7500Y42253D02*
Y51000D01*
D73*
X28074Y80800D02*
D03*
D74*
X-4300Y144800D02*
D03*
D75*
X-57425Y116850D02*
D03*
D76*
X-55300Y121813D02*
D03*
D77*
X-47850Y115782D02*
D03*
D78*
X-51150Y128150D02*
D03*
D79*
X-22500Y18917D02*
D03*
D80*
X-17500Y18867D02*
D03*
D81*
X2500Y22350D02*
D03*
X17500Y22350D02*
D03*
D82*
X70276Y154099D02*
D03*
D83*
X67439Y158741D02*
D03*
D84*
X62184Y160200D02*
D03*
D85*
X49750Y161600D02*
D03*
D86*
X54194Y162610D02*
D03*
D87*
X61000Y162100D02*
D03*
D88*
X-43715Y96353D02*
D03*
D89*
X-29900Y90550D02*
D03*
D90*
X40900Y40650D02*
D03*
D91*
X-7500Y22400D02*
D03*
X-12500D02*
D03*
X-27500D02*
D03*
D92*
X-32575Y47594D02*
D03*
D93*
X67110Y210914D02*
D03*
D94*
X53890Y226844D02*
D03*
D95*
X61335Y204758D02*
D03*
D96*
X-44305Y145987D02*
D03*
D97*
X-50302Y139033D02*
D03*
D98*
X-68530Y141089D02*
D03*
D99*
X-55238Y159500D02*
D03*
D100*
X-68530Y143464D02*
D03*
D101*
X-75500Y150929D02*
D03*
D102*
X65300Y69162D02*
D03*
D103*
X63400Y181250D02*
D03*
D104*
X68850Y156020D02*
D03*
D105*
X44072Y161437D02*
D03*
D106*
X45550Y44300D02*
D03*
D107*
X84700Y59153D02*
D03*
D108*
X-133685Y126026D02*
D03*
D109*
X-38050Y148674D02*
D03*
D110*
X-30700Y139502D02*
D03*
D111*
X32538Y44475D02*
D03*
D112*
X-125200Y122000D02*
D03*
D113*
X-27475Y47600D02*
D03*
D114*
X-7500Y45850D02*
D03*
D115*
X53100Y161900D02*
D03*
D116*
X-63600Y217503D02*
D03*
D117*
X73200Y69700D02*
D03*
D118*
X71750Y68726D02*
D03*
D119*
X64450Y61353D02*
D03*
D120*
X-69150Y159537D02*
D03*
D121*
X36445Y21930D02*
D03*
D122*
X-47650Y41176D02*
D03*
D123*
X-50550Y35350D02*
D03*
D124*
X33896Y19648D02*
D03*
D125*
X-22450Y154700D02*
D03*
D126*
X-44183Y197922D02*
D03*
D127*
X-69650Y217600D02*
D03*
D128*
X-8850Y165628D02*
D03*
D129*
X-2850Y165900D02*
D03*
D130*
X34825Y138850D02*
D03*
D131*
X-127000Y129200D02*
D03*
D132*
X-84418Y212400D02*
D03*
D133*
X45300Y32800D02*
D03*
D134*
X-46350Y21200D02*
D03*
D135*
X-41200Y96353D02*
D03*
D136*
X26735Y83672D02*
D03*
D137*
X-68950Y212226D02*
D03*
D138*
X-110810Y63976D02*
D03*
X110810Y191929D02*
D03*
X-110810D02*
D03*
X110810Y63976D02*
D03*
X0Y0D02*
D03*
Y255906D02*
D03*
D139*
X-110400Y148053D02*
D03*
D140*
Y138053D02*
D03*
Y128053D02*
D03*
Y118053D02*
D03*
Y108053D02*
D03*
D141*
X-45600Y77400D02*
D03*
X38664Y87400D02*
D03*
X40333Y90540D02*
D03*
X34100Y79600D02*
D03*
X26800Y104800D02*
D03*
X34000Y87400D02*
D03*
X19500Y51700D02*
D03*
X14800Y50100D02*
D03*
X28100Y79600D02*
D03*
X25000Y89600D02*
D03*
X1200Y108200D02*
D03*
X33600Y44400D02*
D03*
X30900D02*
D03*
X28200D02*
D03*
X25400D02*
D03*
X22500D02*
D03*
X11710Y100390D02*
D03*
X17174Y115126D02*
D03*
X5200Y119300D02*
D03*
X-22227Y116962D02*
D03*
X-55600Y119300D02*
D03*
X-52900Y122166D02*
D03*
X-55600Y127700D02*
D03*
X-42500Y132524D02*
D03*
X-39296Y134791D02*
D03*
X-57400Y93227D02*
D03*
X21060Y71002D02*
D03*
X7400D02*
D03*
Y74900D02*
D03*
X43980Y63231D02*
D03*
X53019Y57900D02*
D03*
X56200Y55000D02*
D03*
X49713Y60600D02*
D03*
X53000Y51000D02*
D03*
X53056Y82604D02*
D03*
X6050Y94000D02*
D03*
X-2109D02*
D03*
X13056Y97588D02*
D03*
X-17500Y17000D02*
D03*
X-22500D02*
D03*
X2500Y24698D02*
D03*
X-70726Y138900D02*
D03*
X-65953Y138947D02*
D03*
X-67847Y143760D02*
D03*
X-75500Y138947D02*
D03*
X58600Y150301D02*
D03*
X52450Y150300D02*
D03*
X72300Y154204D02*
D03*
X52400Y132032D02*
D03*
X66500Y169617D02*
D03*
X62300Y162115D02*
D03*
X59709D02*
D03*
X42471Y96841D02*
D03*
X2900Y215647D02*
D03*
X-12460Y211407D02*
D03*
X-24518Y99153D02*
D03*
X-23277Y90503D02*
D03*
X-34500Y101149D02*
D03*
X-25558Y88053D02*
D03*
X-20700Y96553D02*
D03*
X47500Y30100D02*
D03*
Y27264D02*
D03*
Y33000D02*
D03*
Y35900D02*
D03*
Y38800D02*
D03*
X-12500Y104000D02*
D03*
Y35900D02*
D03*
Y24698D02*
D03*
X-7500D02*
D03*
X27746Y24263D02*
D03*
X30646D02*
D03*
X33546D02*
D03*
X600Y35900D02*
D03*
X-32500Y53500D02*
D03*
X17500Y24698D02*
D03*
X-89400Y162100D02*
D03*
X-68800Y176300D02*
D03*
X43233Y199200D02*
D03*
X56500Y226800D02*
D03*
X65213Y200950D02*
D03*
X69100Y211500D02*
D03*
X60310Y200950D02*
D03*
X56500Y218944D02*
D03*
X47440Y217352D02*
D03*
X-85962Y99234D02*
D03*
X-15000Y157800D02*
D03*
X-22282Y125049D02*
D03*
X20762Y156772D02*
D03*
X22254Y150400D02*
D03*
X26000Y156772D02*
D03*
X34800Y176400D02*
D03*
X-97300Y162100D02*
D03*
X-36300Y222353D02*
D03*
X-93400Y162100D02*
D03*
X-36300Y212353D02*
D03*
X17461Y156772D02*
D03*
X-51700Y188600D02*
D03*
X-42200D02*
D03*
X-65300Y173200D02*
D03*
X7500Y140300D02*
D03*
X-26600Y156600D02*
D03*
X-13200Y140700D02*
D03*
X14300Y140300D02*
D03*
X18300D02*
D03*
X20600Y137100D02*
D03*
X17000Y134100D02*
D03*
X-24600Y130595D02*
D03*
X-5853Y125153D02*
D03*
Y130453D02*
D03*
X-62406Y161553D02*
D03*
X-52800Y138900D02*
D03*
X-52999Y143260D02*
D03*
X-50200Y145500D02*
D03*
X-54050Y157900D02*
D03*
X-44700Y162000D02*
D03*
X-54050Y161400D02*
D03*
X-56800Y161500D02*
D03*
X-75600Y143760D02*
D03*
X-75500Y157135D02*
D03*
X-52999Y151823D02*
D03*
X-16412Y136693D02*
D03*
X71851Y72200D02*
D03*
X65851D02*
D03*
X-31500Y196093D02*
D03*
X-46482Y199153D02*
D03*
X63000Y150300D02*
D03*
X45488Y172727D02*
D03*
X43824Y169550D02*
D03*
X41100Y75000D02*
D03*
X73658Y125500D02*
D03*
X49694Y82604D02*
D03*
X43961D02*
D03*
X43600Y101900D02*
D03*
X45485Y97600D02*
D03*
X47113Y88287D02*
D03*
X-27500Y24698D02*
D03*
X-7530Y53530D02*
D03*
X-123451Y118053D02*
D03*
X-2752Y155352D02*
D03*
X-19545Y136750D02*
D03*
X14167Y154953D02*
D03*
X11400Y157053D02*
D03*
X4508Y155859D02*
D03*
X7488Y157265D02*
D03*
X67300Y181353D02*
D03*
X-56800Y217353D02*
D03*
X-75300Y226253D02*
D03*
X-61040Y188613D02*
D03*
X-44900Y103253D02*
D03*
X-43800Y148097D02*
D03*
X-97300Y103253D02*
D03*
X-45548Y91753D02*
D03*
X39400Y138653D02*
D03*
X-36300Y217353D02*
D03*
X15300Y88100D02*
D03*
X-43800Y152047D02*
D03*
Y143947D02*
D03*
X-39700Y128095D02*
D03*
X-26259Y79393D02*
D03*
X-5368Y89934D02*
D03*
X-2109Y88685D02*
D03*
X8775Y90934D02*
D03*
X21200Y78321D02*
D03*
X21060Y75236D02*
D03*
X39527Y107999D02*
D03*
X42033Y110500D02*
D03*
X67800Y77100D02*
D03*
X60600Y115600D02*
D03*
X63800Y77100D02*
D03*
X61181Y105400D02*
D03*
X45200Y121600D02*
D03*
X36802Y124951D02*
D03*
X84700Y65200D02*
D03*
X-33400Y83500D02*
D03*
X44023Y158300D02*
D03*
X-77000Y217600D02*
D03*
X-14900Y57300D02*
D03*
X-27400Y53500D02*
D03*
X-7425Y50125D02*
D03*
X-127000Y130800D02*
D03*
Y136811D02*
D03*
X-123451Y121751D02*
D03*
X-19100Y109800D02*
D03*
X-38600Y137900D02*
D03*
X-36078Y139637D02*
D03*
X26800Y119100D02*
D03*
Y116000D02*
D03*
X-23700Y138550D02*
D03*
X-25381Y121972D02*
D03*
X-23100Y76953D02*
D03*
X1400Y79561D02*
D03*
X5169D02*
D03*
X40004Y124643D02*
D03*
X42889Y123619D02*
D03*
X26725Y137147D02*
D03*
Y134483D02*
D03*
X-38800Y17100D02*
D03*
X-41700D02*
D03*
X-52900Y35800D02*
D03*
Y32900D02*
D03*
Y30000D02*
D03*
Y24200D02*
D03*
Y27100D02*
D03*
X-30500Y83500D02*
D03*
X26800Y107900D02*
D03*
X-36300Y207353D02*
D03*
X743Y165700D02*
D03*
X-2900Y169300D02*
D03*
X43219Y136953D02*
D03*
X-9243Y90153D02*
D03*
X-15069Y165693D02*
D03*
X64581Y60053D02*
D03*
Y62853D02*
D03*
X67400D02*
D03*
Y60053D02*
D03*
X84800Y52900D02*
D03*
X78700D02*
D03*
X26000Y173200D02*
D03*
X30200Y147100D02*
D03*
X-32019Y85700D02*
D03*
X-5500Y71600D02*
D03*
X-51000Y44800D02*
D03*
X-48200D02*
D03*
X-45500D02*
D03*
X-31040Y139847D02*
D03*
X-15600Y89253D02*
D03*
X-32600Y153200D02*
D03*
X11500Y88100D02*
D03*
X-85668Y213700D02*
D03*
X-32500Y12800D02*
D03*
X-39200Y118253D02*
D03*
X53000Y161900D02*
D03*
X1000Y75200D02*
D03*
X26800Y111000D02*
D03*
X-73700Y211000D02*
D03*
Y213600D02*
D03*
X-27000Y226600D02*
D03*
X-4440Y203913D02*
D03*
Y225893D02*
D03*
Y218413D02*
D03*
X-85668Y211000D02*
D03*
X67300Y175600D02*
D03*
X-26600Y153200D02*
D03*
X42364Y93721D02*
D03*
X900Y156100D02*
D03*
X35800Y147100D02*
D03*
X-25900Y75600D02*
D03*
Y72650D02*
D03*
Y69700D02*
D03*
X-39300Y91753D02*
D03*
X-47500Y17100D02*
D03*
X-50400D02*
D03*
X-44600D02*
D03*
X56279Y116388D02*
D03*
X-93400Y53853D02*
D03*
X-89400Y50353D02*
D03*
M02*
