G04*
G04 #@! TF.GenerationSoftware,Altium Limited,Altium Designer,22.1.2 (22)*
G04*
G04 Layer_Physical_Order=4*
G04 Layer_Color=16711680*
%FSLAX25Y25*%
%MOIN*%
G70*
G04*
G04 #@! TF.SameCoordinates,4AADA1E1-E747-4A0A-B92B-AFF9719D9D6B*
G04*
G04*
G04 #@! TF.FilePolarity,Positive*
G04*
G01*
G75*
%ADD10C,0.01000*%
%ADD13C,0.00800*%
%ADD16R,0.03000X0.03500*%
%ADD19R,0.03500X0.03000*%
%ADD21R,0.01457X0.01063*%
%ADD33R,0.01063X0.01457*%
%ADD66C,0.01200*%
%ADD67C,0.02500*%
%ADD70C,0.02000*%
%ADD138C,0.11811*%
%ADD139R,0.07087X0.07087*%
%ADD140C,0.07087*%
%ADD141C,0.02362*%
%ADD147R,0.11811X0.08268*%
%ADD148R,0.06299X0.03150*%
%ADD149R,0.05158X0.02559*%
%ADD150R,0.04173X0.04685*%
%ADD151R,0.03347X0.02756*%
%ADD152R,0.01417X0.01063*%
G04:AMPARAMS|DCode=153|XSize=103.69mil|YSize=43.93mil|CornerRadius=0mil|HoleSize=0mil|Usage=FLASHONLY|Rotation=135.000|XOffset=0mil|YOffset=0mil|HoleType=Round|Shape=Rectangle|*
%AMROTATEDRECTD153*
4,1,4,0.05219,-0.02113,0.02113,-0.05219,-0.05219,0.02113,-0.02113,0.05219,0.05219,-0.02113,0.0*
%
%ADD153ROTATEDRECTD153*%

G04:AMPARAMS|DCode=154|XSize=76.37mil|YSize=36.06mil|CornerRadius=0mil|HoleSize=0mil|Usage=FLASHONLY|Rotation=135.000|XOffset=0mil|YOffset=0mil|HoleType=Round|Shape=Rectangle|*
%AMROTATEDRECTD154*
4,1,4,0.03975,-0.01425,0.01425,-0.03975,-0.03975,0.01425,-0.01425,0.03975,0.03975,-0.01425,0.0*
%
%ADD154ROTATEDRECTD154*%

%ADD155R,0.09200X0.19900*%
%ADD156R,0.23050X0.07600*%
%ADD157R,0.11300X0.09500*%
%ADD158R,0.08200X0.14000*%
%ADD159R,0.08800X0.09196*%
%ADD160R,0.11501X0.06846*%
G04:AMPARAMS|DCode=161|XSize=72.56mil|YSize=45.88mil|CornerRadius=0mil|HoleSize=0mil|Usage=FLASHONLY|Rotation=45.000|XOffset=0mil|YOffset=0mil|HoleType=Round|Shape=Rectangle|*
%AMROTATEDRECTD161*
4,1,4,-0.00943,-0.04188,-0.04188,-0.00943,0.00943,0.04188,0.04188,0.00943,-0.00943,-0.04188,0.0*
%
%ADD161ROTATEDRECTD161*%

%ADD162R,0.07500X0.04434*%
%ADD163R,0.07100X0.03300*%
%ADD164R,0.11829X0.03150*%
%ADD165R,0.03874X0.13505*%
%ADD166R,0.04383X0.23053*%
%ADD167R,0.19632X0.03528*%
%ADD168R,0.24868X0.04264*%
%ADD169R,0.11604X0.06575*%
%ADD170R,0.16676X0.15653*%
G04:AMPARAMS|DCode=171|XSize=71.17mil|YSize=43.93mil|CornerRadius=0mil|HoleSize=0mil|Usage=FLASHONLY|Rotation=45.000|XOffset=0mil|YOffset=0mil|HoleType=Round|Shape=Rectangle|*
%AMROTATEDRECTD171*
4,1,4,-0.00963,-0.04069,-0.04069,-0.00963,0.00963,0.04069,0.04069,0.00963,-0.00963,-0.04069,0.0*
%
%ADD171ROTATEDRECTD171*%

%ADD172R,0.22794X0.04400*%
%ADD173R,0.05700X0.15618*%
%ADD174R,0.03600X0.12000*%
%ADD175R,0.03600X0.06300*%
%ADD176R,0.10653X0.08984*%
%ADD177R,0.20300X0.01953*%
%ADD178R,0.07300X0.02600*%
%ADD179R,0.18200X0.04600*%
%ADD180R,0.24400X0.01770*%
%ADD181R,0.02100X0.01800*%
%ADD182R,0.10500X0.32300*%
%ADD183R,0.12303X0.11152*%
%ADD184R,0.05200X0.10994*%
%ADD185R,0.04400X0.03553*%
%ADD186R,0.14102X0.10053*%
%ADD187R,0.04300X0.10700*%
%ADD188R,0.10600X0.04100*%
%ADD189R,0.04100X0.10653*%
%ADD190R,0.07100X0.16947*%
%ADD191R,0.01500X0.01700*%
%ADD192R,0.03900X0.11953*%
%ADD193R,0.15900X0.03547*%
%ADD194R,0.14600X0.12400*%
%ADD195R,0.05517X0.10000*%
%ADD196R,0.07200X0.03000*%
%ADD197R,0.05017X0.09400*%
%ADD198R,0.05100X0.13900*%
%ADD199R,0.05200X0.11000*%
%ADD200R,0.07000X0.04800*%
G36*
X1800Y77569D02*
X-4169D01*
X-8200Y81600D01*
Y82800D01*
X1800D01*
Y77569D01*
D02*
G37*
G36*
X-4247Y73600D02*
X-4200D01*
Y72700D01*
Y70900D01*
X-11100D01*
Y79500D01*
X-10800Y80153D01*
X-4247Y73600D01*
D02*
G37*
G36*
X-22268Y137531D02*
X-22725Y137075D01*
X-26800D01*
Y123416D01*
Y123224D01*
X-29009D01*
Y123904D01*
Y123946D01*
Y124002D01*
Y136285D01*
X-28986Y136400D01*
Y140053D01*
X-22268D01*
Y137531D01*
D02*
G37*
G36*
X-32400Y141213D02*
X-29700D01*
Y136400D01*
X-31050D01*
X-32400Y137750D01*
Y141213D01*
D02*
G37*
D10*
X62498Y117803D02*
G03*
X59361Y119100I-3136J-3141D01*
G01*
X62500Y117800D02*
G03*
X62498Y117803I-3138J-3138D01*
G01*
X38097Y58163D02*
Y82655D01*
X45485Y90043D02*
Y97600D01*
X38097Y82655D02*
X45485Y90043D01*
X17500Y46038D02*
X25000Y53539D01*
Y89600D01*
X17500Y24698D02*
Y46038D01*
X6297Y20900D02*
X50764D01*
X5200Y114800D02*
Y119300D01*
X17200Y115153D02*
Y119400D01*
X21685Y110365D02*
Y120789D01*
X11710Y100390D02*
X21685Y110365D01*
Y120789D02*
X30960Y130064D01*
X-33900Y129267D02*
X-30515D01*
X-39328Y134694D02*
X-33900Y129267D01*
X-39328Y134760D02*
X-39296Y134791D01*
X-39328Y134694D02*
Y134760D01*
X-39819Y132319D02*
X-34110Y126610D01*
X-42295Y132319D02*
X-39819D01*
X-42500Y132524D02*
X-42295Y132319D01*
X-85962Y99234D02*
X-38234D01*
X16404Y71002D02*
X21060D01*
X14900Y72506D02*
Y77170D01*
Y72506D02*
X16404Y71002D01*
X10902D02*
X12300Y72400D01*
Y77170D01*
X7400Y71002D02*
X10902D01*
X47113Y56887D02*
X53000Y51000D01*
X47113Y56887D02*
Y88287D01*
X6050Y84953D02*
Y94000D01*
X3300Y84984D02*
Y88591D01*
X-2109Y94000D02*
X3300Y88591D01*
X23385Y107917D02*
Y120085D01*
X13056Y97588D02*
X23385Y107917D01*
X-14991Y19100D02*
X51700D01*
X-27500Y24698D02*
X-20589D01*
X-14991Y19100D01*
X51700D02*
X55800Y23200D01*
Y43200D01*
X38097Y58163D02*
X53400Y42860D01*
X50764Y20900D02*
X53400Y23537D01*
Y42860D01*
X41100Y57900D02*
X55800Y43200D01*
X41100Y57900D02*
Y75000D01*
X2500Y24698D02*
X6297Y20900D01*
X-4440Y208341D02*
X-2218Y206119D01*
X7853D01*
X-4440Y208341D02*
Y218413D01*
X7853Y206119D02*
X20673Y193300D01*
X31500Y160182D02*
X49400Y142282D01*
X31500Y160182D02*
Y182500D01*
X49400Y134300D02*
Y142282D01*
X47700Y135100D02*
Y141500D01*
X29800Y159400D02*
X47700Y141500D01*
X-13200Y140700D02*
Y144317D01*
X-35553Y96553D02*
X-20700D01*
X-38234Y99234D02*
X-35553Y96553D01*
X-28500Y90503D02*
X-23303D01*
X-28500Y87853D02*
Y88021D01*
X-28468Y88053D02*
X-25558D01*
X-28500Y88021D02*
X-28468Y88053D01*
X29800Y159400D02*
Y181600D01*
X20700Y193300D02*
X31500Y182500D01*
X7487Y203913D02*
X29800Y181600D01*
X-4440Y203913D02*
X7487D01*
X20673Y193300D02*
X20700D01*
X6267Y146945D02*
X8900D01*
X14300Y140300D02*
X19081Y145081D01*
Y148346D01*
X-13200Y146483D02*
Y156000D01*
X-15000Y157800D02*
X-13200Y156000D01*
X22836Y130464D02*
X22900Y130400D01*
X22836Y130464D02*
Y133064D01*
X17000Y134100D02*
X21800D01*
X22836Y133064D01*
X23385Y120085D02*
X31395Y128095D01*
X26800Y119100D02*
X59361D01*
X43549Y101952D02*
X43600Y101900D01*
X43499Y102002D02*
X43549Y101952D01*
X41748Y103753D02*
X43499Y102002D01*
X32300Y108853D02*
X35947D01*
X36801Y107999D02*
X39527D01*
X35947Y108853D02*
X36801Y107999D01*
X39100Y110500D02*
X42033D01*
X37900Y111700D02*
X39100Y110500D01*
X32232Y111700D02*
X37900D01*
X11500Y85070D02*
Y88100D01*
X-2109Y86017D02*
X-1045Y84953D01*
X-2109Y86017D02*
Y88685D01*
X900Y156100D02*
X3633Y153367D01*
Y149110D02*
Y153367D01*
X6267Y149110D02*
Y154101D01*
X4508Y155859D02*
X6267Y154101D01*
X-31541Y135100D02*
X-31400D01*
X-36078Y139637D02*
X-31541Y135100D01*
X21200Y83553D02*
X21600Y83153D01*
X42664Y130064D02*
X47700Y135100D01*
X8900Y146945D02*
X11533D01*
X14167D02*
X16800D01*
X11533D02*
X14167D01*
X3633D02*
X6267D01*
X1000D02*
X3633D01*
X16800D02*
X16800Y146945D01*
Y149110D02*
X18316D01*
X11400Y149142D02*
X11432Y149110D01*
X11533D01*
X11400Y149142D02*
Y157053D01*
X7488Y157265D02*
X8900Y155852D01*
Y149110D02*
Y155852D01*
X-2752Y155352D02*
X1000Y151600D01*
Y149227D02*
Y151600D01*
X18316Y149110D02*
X19081Y148346D01*
X31395Y128095D02*
X43195D01*
X49400Y134300D01*
X30960Y130064D02*
X42664D01*
X-31400Y135100D02*
X-31273Y134973D01*
Y134773D02*
Y134973D01*
X-34110Y126610D02*
X-30483D01*
X-30515Y129267D02*
X-30500Y129281D01*
X-32624Y131924D02*
X-30601D01*
X-38600Y137900D02*
X-32624Y131924D01*
X37565Y103753D02*
X41748D01*
X-7200Y84953D02*
X-5985D01*
X-5368Y85570D01*
Y89934D01*
X-7200Y84953D02*
X-7169Y84984D01*
X21200Y83153D02*
X21200Y83153D01*
X8775Y84953D02*
Y90934D01*
X-1045Y84953D02*
X600D01*
D13*
X37565Y88498D02*
X38664Y87400D01*
X37565Y88498D02*
Y90540D01*
X40333D02*
Y92438D01*
X39604Y93166D02*
X40333Y92438D01*
X37565Y93166D02*
X39604D01*
X37565Y95753D02*
X40333D01*
X37565Y98419D02*
X40892D01*
X42471Y96841D01*
X40333Y95753D02*
X42364Y93721D01*
X9231Y74900D02*
X9700Y75369D01*
X7400Y74900D02*
X9231D01*
X9700Y75369D02*
Y77170D01*
X17500Y75704D02*
Y77170D01*
X17969Y75236D02*
X21060D01*
X17500Y75704D02*
X17969Y75236D01*
X22254Y138753D02*
Y150354D01*
X20600Y137100D02*
X22254Y138753D01*
X14167Y149153D02*
Y154953D01*
X-30483Y122536D02*
Y123953D01*
Y122536D02*
X-29919Y121972D01*
X-25381D01*
X-30940Y139490D02*
Y139847D01*
X26800Y110200D02*
X27000D01*
X-23907Y79393D02*
X-23031Y80269D01*
X-26259Y79393D02*
X-23907D01*
X-23031Y82776D02*
X-23022Y82784D01*
Y83104D01*
X-23031Y80269D02*
Y82776D01*
X3325Y84953D02*
Y85059D01*
X3300Y85084D02*
X3325Y85059D01*
X-33600Y88500D02*
X-32919Y87819D01*
Y86500D02*
Y87819D01*
X32100Y111653D02*
X32184D01*
X32232Y111700D01*
D16*
X-44400Y117653D02*
D03*
X-50400D02*
D03*
X-44400Y127653D02*
D03*
X-50400D02*
D03*
X-44400Y122653D02*
D03*
X-50400D02*
D03*
X-30600Y102253D02*
D03*
X-24600D02*
D03*
X5200Y114800D02*
D03*
X11200D02*
D03*
X22900Y130400D02*
D03*
X16900D02*
D03*
X-26300Y149553D02*
D03*
X-32300D02*
D03*
X-26300Y144653D02*
D03*
X-32300D02*
D03*
X15200Y83153D02*
D03*
X21200D02*
D03*
X33800Y133453D02*
D03*
X39800D02*
D03*
X-13200Y78253D02*
D03*
X-19200D02*
D03*
X29800Y138416D02*
D03*
X35800D02*
D03*
X34100Y83700D02*
D03*
X28100D02*
D03*
X29800Y143353D02*
D03*
X35800D02*
D03*
D19*
X-17000Y124800D02*
D03*
Y130800D02*
D03*
X17200Y125400D02*
D03*
Y119400D02*
D03*
X-130750Y130753D02*
D03*
Y124753D02*
D03*
X-19200Y89116D02*
D03*
Y83116D02*
D03*
D21*
X-13200Y146483D02*
D03*
Y144317D02*
D03*
X16800Y146945D02*
D03*
Y149110D02*
D03*
X14167Y149110D02*
D03*
Y146945D02*
D03*
X600Y82788D02*
D03*
Y84953D02*
D03*
X1000Y149110D02*
D03*
Y146945D02*
D03*
X3325Y82788D02*
D03*
Y84953D02*
D03*
X11533Y149110D02*
D03*
Y146945D02*
D03*
X8900Y149110D02*
D03*
Y146945D02*
D03*
X3633Y149110D02*
D03*
Y146945D02*
D03*
X6267Y149110D02*
D03*
Y146945D02*
D03*
X6050Y82788D02*
D03*
Y84953D02*
D03*
X8775Y82788D02*
D03*
Y84953D02*
D03*
X11500Y82788D02*
D03*
Y84953D02*
D03*
X9700Y79335D02*
D03*
Y77170D02*
D03*
X12300Y79335D02*
D03*
Y77170D02*
D03*
X14900Y79335D02*
D03*
Y77170D02*
D03*
X17500Y79335D02*
D03*
Y77170D02*
D03*
X-7200Y82788D02*
D03*
Y84953D02*
D03*
D33*
X35400Y98419D02*
D03*
X37565D02*
D03*
X35400Y95793D02*
D03*
X37565D02*
D03*
Y93166D02*
D03*
X35400D02*
D03*
X37565Y90540D02*
D03*
X35400D02*
D03*
X-30665Y90503D02*
D03*
X-28500D02*
D03*
X-28318Y123953D02*
D03*
X-30483D02*
D03*
X-28318Y137204D02*
D03*
X-30483D02*
D03*
Y134581D02*
D03*
X-28318D02*
D03*
X-30483Y126610D02*
D03*
X-28318D02*
D03*
X-30483Y129267D02*
D03*
X-28318D02*
D03*
X-30483Y131924D02*
D03*
X-28318D02*
D03*
X29935Y123253D02*
D03*
X32100D02*
D03*
X-30665Y87853D02*
D03*
X-28500D02*
D03*
X-25187Y83104D02*
D03*
X-23022D02*
D03*
X37565Y103753D02*
D03*
X35400D02*
D03*
X32100Y108853D02*
D03*
X29935D02*
D03*
X32100Y111653D02*
D03*
X29935D02*
D03*
D66*
X47431Y125500D02*
G03*
X42889Y123619I0J-6424D01*
G01*
X1000Y70200D02*
Y75200D01*
Y70200D02*
X19500Y51700D01*
X-16847Y114200D02*
X-9243Y106595D01*
X-63475Y118228D02*
X-59447Y114200D01*
X-16847D01*
X-60700Y112300D02*
X-17647D01*
X-12500Y107153D01*
X-65600Y117200D02*
X-60700Y112300D01*
X-44179Y127874D02*
X-39921D01*
X-44400Y127653D02*
X-44179Y127874D01*
X-39921D02*
X-39700Y128095D01*
X43971Y82595D02*
X43980Y82604D01*
X43971Y63240D02*
Y82595D01*
Y63240D02*
X43980Y63231D01*
X53019Y57900D02*
X53037Y57918D01*
Y82512D01*
X49703Y60610D02*
Y82595D01*
Y60610D02*
X49713Y60600D01*
X53019Y82531D02*
X53037Y82512D01*
X49694Y82604D02*
X49703Y82595D01*
X-17379Y17000D02*
X52745D01*
X61219Y22274D02*
Y105362D01*
X-19368Y13869D02*
X52813D01*
X61219Y22274D01*
X52745Y17000D02*
X58700Y22955D01*
Y113967D01*
X-22500Y17000D02*
X-19368Y13869D01*
X52400Y132032D02*
Y142984D01*
X34800Y160584D02*
Y176400D01*
Y160584D02*
X52400Y142984D01*
X-12500Y104000D02*
Y107153D01*
X-9243Y90153D02*
Y106595D01*
X-110400Y138053D02*
X-103796D01*
X-68800Y173049D01*
Y176300D01*
X-110400Y128053D02*
X-65300Y173153D01*
X-27100Y165200D02*
X-16406Y154506D01*
X-46300Y165200D02*
X-27100D01*
X-16406Y136699D02*
Y154506D01*
X-19545Y136753D02*
Y154146D01*
X-24974Y159574D02*
X-19545Y154146D01*
X26000Y156772D02*
Y173200D01*
X67300Y175600D02*
X67700D01*
X48361D02*
X67300D01*
X-43026Y159574D02*
X-24974D01*
X-63475Y132784D02*
X-52999Y143260D01*
X-49300Y151265D02*
Y157400D01*
X-65600Y134965D02*
X-49300Y151265D01*
X-65600Y117200D02*
Y134965D01*
X-63475Y118228D02*
Y132784D01*
X-50200Y145500D02*
X-47200Y148500D01*
Y155400D01*
X-51400Y153422D02*
Y160100D01*
X-52999Y151823D02*
X-51400Y153422D01*
Y160100D02*
X-46300Y165200D01*
X-49300Y157400D02*
X-44900Y161800D01*
X-47200Y155400D02*
X-43026Y159574D01*
X-44900Y161800D02*
X-44800D01*
X63800Y77100D02*
Y112400D01*
X45488Y172727D02*
X48361Y175600D01*
X-27400Y53500D02*
X-7530D01*
X73658Y125500D02*
X73679D01*
X47431D02*
X73658D01*
X-7530Y53500D02*
Y53530D01*
X-7425Y50125D02*
X-5019Y52531D01*
Y55319D01*
X62500Y117800D02*
X67800Y112500D01*
X30638Y120900D02*
X36260D01*
X40004Y124643D01*
X29935Y121603D02*
X30638Y120900D01*
X29935Y121603D02*
Y123253D01*
X56279Y116388D02*
X58700Y113967D01*
X60600Y115600D02*
X63800Y112400D01*
X43219Y134440D02*
Y136953D01*
X39800Y133453D02*
X39965Y133618D01*
X42397D01*
X43219Y134440D01*
X67800Y77100D02*
Y112500D01*
X-14900Y57300D02*
X-7000D01*
X-5019Y55319D01*
X66000Y121600D02*
X78700Y108900D01*
X45200Y121600D02*
X66000D01*
X78700Y52900D02*
Y108900D01*
X35104Y123253D02*
X36802Y124951D01*
X32100Y123253D02*
X35104D01*
X61181Y105400D02*
X61219Y105362D01*
X28961Y142514D02*
X29800Y143353D01*
X30217Y107083D02*
Y108062D01*
X30003Y108276D02*
X30217Y108062D01*
X29935Y108853D02*
X30003Y108784D01*
Y108276D02*
Y108784D01*
X21200Y78321D02*
Y83153D01*
X-19719Y77084D02*
X-19200Y77603D01*
D67*
Y71500D02*
Y77603D01*
X-24518Y99200D02*
Y102171D01*
X-24600Y102253D02*
X-24518Y102171D01*
X69061Y211539D02*
X69100Y211500D01*
X61901Y211539D02*
X69061D01*
X7500Y140300D02*
Y146345D01*
X-11201Y125153D02*
X-5853D01*
X-11201Y130453D02*
X-5853D01*
X35800Y138416D02*
X36037Y138653D01*
X39400D01*
X-23100Y76953D02*
X-19850D01*
X-19719Y77084D01*
X35800Y143453D02*
Y147100D01*
Y143353D02*
X35900Y143453D01*
X-130703Y130800D02*
X-127000D01*
X-130750Y130753D02*
X-130703Y130800D01*
X53000Y156400D02*
X54500Y154900D01*
X53000Y156400D02*
Y161900D01*
X54200Y154600D02*
X54500Y154900D01*
X30200Y142953D02*
Y147100D01*
X29800Y142553D02*
X30200Y142953D01*
X29417Y106283D02*
Y108191D01*
X28059Y109550D02*
X29417Y108191D01*
X29800Y138416D02*
Y142553D01*
Y138116D02*
Y138416D01*
X35800D02*
Y143353D01*
X-33900Y144153D02*
Y153100D01*
X-8603Y72703D02*
X-7500Y71600D01*
X-13200Y72953D02*
Y77853D01*
X-19200Y77603D02*
Y77853D01*
X-19237Y89153D02*
X-19200Y89116D01*
D70*
X34100Y79600D02*
Y83700D01*
X28100Y79600D02*
Y83700D01*
X42100Y116000D02*
X56200Y101900D01*
Y55000D02*
Y101900D01*
X-12460Y211407D02*
Y222940D01*
X-9507Y225893D02*
X-4440D01*
X-12460Y222940D02*
X-9507Y225893D01*
X-16514Y207353D02*
X-12460Y211407D01*
X-36300Y207353D02*
X-16514D01*
X-22566Y106334D02*
X-19169Y109731D01*
X-89381Y106334D02*
X-22566D01*
X-101100Y118053D02*
X-89381Y106334D01*
X-24926Y31426D02*
X-19228D01*
X-12500Y24698D01*
X-93400Y53853D02*
X-42928D01*
X-23980Y34905D02*
X-17707D01*
X-42928Y53853D02*
X-23980Y34905D01*
X-89400Y50353D02*
X-43853D01*
X-24926Y31426D01*
X-89400Y162100D02*
Y164700D01*
X61761Y216600D02*
X61901Y216461D01*
X20762Y156772D02*
Y167791D01*
X-97300Y162100D02*
Y167800D01*
X-42747Y222353D02*
X-36300D01*
X-97300Y167800D02*
X-42747Y222353D01*
X-93400Y162100D02*
Y167200D01*
X-43247Y217353D02*
X-36300D01*
X-93400Y167200D02*
X-43247Y217353D01*
X-89400Y164700D02*
X-89394Y164707D01*
Y166606D01*
X-43647Y212353D02*
X-36300D01*
X-89394Y166606D02*
X-43647Y212353D01*
X-36253Y178553D02*
X10000D01*
X-42131Y184431D02*
X-36253Y178553D01*
X-42131Y184431D02*
Y188531D01*
X-42200Y188600D02*
X-42131Y188531D01*
X17461Y156772D02*
Y166938D01*
X8600Y175800D02*
X17461Y166938D01*
X-42666Y175800D02*
X8600D01*
X10000Y178553D02*
X20762Y167791D01*
X-51700Y184834D02*
Y188600D01*
Y184834D02*
X-42666Y175800D01*
X11200Y114800D02*
Y120452D01*
X11201Y120453D01*
X11200Y114800D02*
X11200Y114800D01*
X11227Y125426D02*
X17174D01*
X11201Y125453D02*
X11227Y125426D01*
X17174D02*
X17200Y125400D01*
X11227Y130426D02*
X16874D01*
X11201Y130453D02*
X11227Y130426D01*
X16874D02*
X16900Y130400D01*
X26800Y116000D02*
X42100D01*
X-17707Y34905D02*
X-7500Y24698D01*
X-129000Y118053D02*
X-123451D01*
X-130750Y119803D02*
Y124753D01*
Y119803D02*
X-129000Y118053D01*
X-110400D02*
X-101100D01*
X-97300Y103253D02*
X-44900D01*
D138*
X-110810Y63976D02*
D03*
X110810Y191929D02*
D03*
X-110810D02*
D03*
X110810Y63976D02*
D03*
X0Y0D02*
D03*
Y255906D02*
D03*
D139*
X-110400Y148053D02*
D03*
D140*
Y138053D02*
D03*
Y128053D02*
D03*
Y118053D02*
D03*
Y108053D02*
D03*
D141*
X-45600Y77400D02*
D03*
X38664Y87400D02*
D03*
X40333Y90540D02*
D03*
X34100Y79600D02*
D03*
X26800Y104800D02*
D03*
X34000Y87400D02*
D03*
X19500Y51700D02*
D03*
X14800Y50100D02*
D03*
X28100Y79600D02*
D03*
X25000Y89600D02*
D03*
X1200Y108200D02*
D03*
X33600Y44400D02*
D03*
X30900D02*
D03*
X28200D02*
D03*
X25400D02*
D03*
X22500D02*
D03*
X11710Y100390D02*
D03*
X17174Y115126D02*
D03*
X5200Y119300D02*
D03*
X-22227Y116962D02*
D03*
X-55600Y119300D02*
D03*
X-52900Y122166D02*
D03*
X-55600Y127700D02*
D03*
X-42500Y132524D02*
D03*
X-39296Y134791D02*
D03*
X-57400Y93227D02*
D03*
X21060Y71002D02*
D03*
X7400D02*
D03*
Y74900D02*
D03*
X43980Y63231D02*
D03*
X53019Y57900D02*
D03*
X56200Y55000D02*
D03*
X49713Y60600D02*
D03*
X53000Y51000D02*
D03*
X53056Y82604D02*
D03*
X6050Y94000D02*
D03*
X-2109D02*
D03*
X13056Y97588D02*
D03*
X-17500Y17000D02*
D03*
X-22500D02*
D03*
X2500Y24698D02*
D03*
X-70726Y138900D02*
D03*
X-65953Y138947D02*
D03*
X-67847Y143760D02*
D03*
X-75500Y138947D02*
D03*
X58600Y150301D02*
D03*
X52450Y150300D02*
D03*
X72300Y154204D02*
D03*
X52400Y132032D02*
D03*
X66500Y169617D02*
D03*
X62300Y162115D02*
D03*
X59709D02*
D03*
X42471Y96841D02*
D03*
X2900Y215647D02*
D03*
X-12460Y211407D02*
D03*
X-24518Y99153D02*
D03*
X-23277Y90503D02*
D03*
X-34500Y101149D02*
D03*
X-25558Y88053D02*
D03*
X-20700Y96553D02*
D03*
X47500Y30100D02*
D03*
Y27264D02*
D03*
Y33000D02*
D03*
Y35900D02*
D03*
Y38800D02*
D03*
X-12500Y104000D02*
D03*
Y35900D02*
D03*
Y24698D02*
D03*
X-7500D02*
D03*
X27746Y24263D02*
D03*
X30646D02*
D03*
X33546D02*
D03*
X600Y35900D02*
D03*
X-32500Y53500D02*
D03*
X17500Y24698D02*
D03*
X-89400Y162100D02*
D03*
X-68800Y176300D02*
D03*
X43233Y199200D02*
D03*
X56500Y226800D02*
D03*
X65213Y200950D02*
D03*
X69100Y211500D02*
D03*
X60310Y200950D02*
D03*
X56500Y218944D02*
D03*
X47440Y217352D02*
D03*
X-85962Y99234D02*
D03*
X-15000Y157800D02*
D03*
X-22282Y125049D02*
D03*
X20762Y156772D02*
D03*
X22254Y150400D02*
D03*
X26000Y156772D02*
D03*
X34800Y176400D02*
D03*
X-97300Y162100D02*
D03*
X-36300Y222353D02*
D03*
X-93400Y162100D02*
D03*
X-36300Y212353D02*
D03*
X17461Y156772D02*
D03*
X-51700Y188600D02*
D03*
X-42200D02*
D03*
X-65300Y173200D02*
D03*
X7500Y140300D02*
D03*
X-26600Y156600D02*
D03*
X-13200Y140700D02*
D03*
X14300Y140300D02*
D03*
X18300D02*
D03*
X20600Y137100D02*
D03*
X17000Y134100D02*
D03*
X-24600Y130595D02*
D03*
X-5853Y125153D02*
D03*
Y130453D02*
D03*
X-62406Y161553D02*
D03*
X-52800Y138900D02*
D03*
X-52999Y143260D02*
D03*
X-50200Y145500D02*
D03*
X-54050Y157900D02*
D03*
X-44700Y162000D02*
D03*
X-54050Y161400D02*
D03*
X-56800Y161500D02*
D03*
X-75600Y143760D02*
D03*
X-75500Y157135D02*
D03*
X-52999Y151823D02*
D03*
X-16412Y136693D02*
D03*
X71851Y72200D02*
D03*
X65851D02*
D03*
X-31500Y196093D02*
D03*
X-46482Y199153D02*
D03*
X63000Y150300D02*
D03*
X45488Y172727D02*
D03*
X43824Y169550D02*
D03*
X41100Y75000D02*
D03*
X73658Y125500D02*
D03*
X49694Y82604D02*
D03*
X43961D02*
D03*
X43600Y101900D02*
D03*
X45485Y97600D02*
D03*
X47113Y88287D02*
D03*
X-27500Y24698D02*
D03*
X-7530Y53530D02*
D03*
X-123451Y118053D02*
D03*
X-2752Y155352D02*
D03*
X-19545Y136750D02*
D03*
X14167Y154953D02*
D03*
X11400Y157053D02*
D03*
X4508Y155859D02*
D03*
X7488Y157265D02*
D03*
X67300Y181353D02*
D03*
X-56800Y217353D02*
D03*
X-75300Y226253D02*
D03*
X-61040Y188613D02*
D03*
X-44900Y103253D02*
D03*
X-43800Y148097D02*
D03*
X-97300Y103253D02*
D03*
X-45548Y91753D02*
D03*
X39400Y138653D02*
D03*
X-36300Y217353D02*
D03*
X15300Y88100D02*
D03*
X-43800Y152047D02*
D03*
Y143947D02*
D03*
X-39700Y128095D02*
D03*
X-26259Y79393D02*
D03*
X-5368Y89934D02*
D03*
X-2109Y88685D02*
D03*
X8775Y90934D02*
D03*
X21200Y78321D02*
D03*
X21060Y75236D02*
D03*
X39527Y107999D02*
D03*
X42033Y110500D02*
D03*
X67800Y77100D02*
D03*
X60600Y115600D02*
D03*
X63800Y77100D02*
D03*
X61181Y105400D02*
D03*
X45200Y121600D02*
D03*
X36802Y124951D02*
D03*
X84700Y65200D02*
D03*
X-33400Y83500D02*
D03*
X44023Y158300D02*
D03*
X-77000Y217600D02*
D03*
X-14900Y57300D02*
D03*
X-27400Y53500D02*
D03*
X-7425Y50125D02*
D03*
X-127000Y130800D02*
D03*
Y136811D02*
D03*
X-123451Y121751D02*
D03*
X-19100Y109800D02*
D03*
X-38600Y137900D02*
D03*
X-36078Y139637D02*
D03*
X26800Y119100D02*
D03*
Y116000D02*
D03*
X-23700Y138550D02*
D03*
X-25381Y121972D02*
D03*
X-23100Y76953D02*
D03*
X1400Y79561D02*
D03*
X5169D02*
D03*
X40004Y124643D02*
D03*
X42889Y123619D02*
D03*
X26725Y137147D02*
D03*
Y134483D02*
D03*
X-38800Y17100D02*
D03*
X-41700D02*
D03*
X-52900Y35800D02*
D03*
Y32900D02*
D03*
Y30000D02*
D03*
Y24200D02*
D03*
Y27100D02*
D03*
X-30500Y83500D02*
D03*
X26800Y107900D02*
D03*
X-36300Y207353D02*
D03*
X743Y165700D02*
D03*
X-2900Y169300D02*
D03*
X43219Y136953D02*
D03*
X-9243Y90153D02*
D03*
X-15069Y165693D02*
D03*
X64581Y60053D02*
D03*
Y62853D02*
D03*
X67400D02*
D03*
Y60053D02*
D03*
X84800Y52900D02*
D03*
X78700D02*
D03*
X26000Y173200D02*
D03*
X30200Y147100D02*
D03*
X-32019Y85700D02*
D03*
X-5500Y71600D02*
D03*
X-51000Y44800D02*
D03*
X-48200D02*
D03*
X-45500D02*
D03*
X-31040Y139847D02*
D03*
X-15600Y89253D02*
D03*
X-32600Y153200D02*
D03*
X11500Y88100D02*
D03*
X-85668Y213700D02*
D03*
X-32500Y12800D02*
D03*
X-39200Y118253D02*
D03*
X53000Y161900D02*
D03*
X1000Y75200D02*
D03*
X26800Y111000D02*
D03*
X-73700Y211000D02*
D03*
Y213600D02*
D03*
X-27000Y226600D02*
D03*
X-4440Y203913D02*
D03*
Y225893D02*
D03*
Y218413D02*
D03*
X-85668Y211000D02*
D03*
X67300Y175600D02*
D03*
X-26600Y153200D02*
D03*
X42364Y93721D02*
D03*
X900Y156100D02*
D03*
X35800Y147100D02*
D03*
X-25900Y75600D02*
D03*
Y72650D02*
D03*
Y69700D02*
D03*
X-39300Y91753D02*
D03*
X-47500Y17100D02*
D03*
X-50400D02*
D03*
X-44600D02*
D03*
X56279Y116388D02*
D03*
X-93400Y53853D02*
D03*
X-89400Y50353D02*
D03*
D147*
X72999Y226500D02*
D03*
Y201500D02*
D03*
D148*
X61901Y216461D02*
D03*
Y211539D02*
D03*
D149*
X11201Y135453D02*
D03*
Y130453D02*
D03*
Y125453D02*
D03*
Y120453D02*
D03*
X-11201D02*
D03*
Y125453D02*
D03*
Y130453D02*
D03*
Y135453D02*
D03*
D150*
X-19235Y71900D02*
D03*
D03*
X-8565D02*
D03*
D151*
X-39052Y95052D02*
D03*
X-45548D02*
D03*
D152*
X-58300Y217253D02*
D03*
X-61607D02*
D03*
D153*
X30519Y104587D02*
D03*
D154*
X45525Y43625D02*
D03*
D155*
X44900Y32250D02*
D03*
D156*
X32625Y43800D02*
D03*
D157*
X40550Y40350D02*
D03*
D158*
X-52800Y122653D02*
D03*
D159*
X-41800Y120451D02*
D03*
D160*
X-71888Y140613D02*
D03*
D161*
X-65194Y141378D02*
D03*
D162*
X-32852Y101917D02*
D03*
D163*
X58350Y226750D02*
D03*
D164*
X64666Y211539D02*
D03*
D165*
X60663Y221648D02*
D03*
D166*
X34091Y93226D02*
D03*
D167*
X-13797Y124989D02*
D03*
D168*
X-16415Y130671D02*
D03*
D169*
X-66802Y159713D02*
D03*
D170*
X-69345Y150148D02*
D03*
D171*
X-73569Y158937D02*
D03*
D172*
X62297Y154500D02*
D03*
D173*
X65950Y66091D02*
D03*
D174*
X35800Y142553D02*
D03*
D175*
X-45448Y93303D02*
D03*
X-39200D02*
D03*
D176*
X-22474Y72892D02*
D03*
D177*
X7550Y146676D02*
D03*
D178*
X3050Y78800D02*
D03*
D179*
X-46500Y16500D02*
D03*
D180*
X4000Y82485D02*
D03*
D181*
X-30850Y134700D02*
D03*
D182*
X-50550Y30350D02*
D03*
D183*
X-49649Y41176D02*
D03*
D184*
X53500Y158003D02*
D03*
D185*
X-57000Y217176D02*
D03*
D186*
X-67949Y213926D02*
D03*
D187*
X-19250Y79350D02*
D03*
D188*
X-9500Y71550D02*
D03*
D189*
X-12850Y74826D02*
D03*
D190*
X28950Y140126D02*
D03*
D191*
X32150Y123250D02*
D03*
D192*
X-26550Y148624D02*
D03*
D193*
X7350Y80426D02*
D03*
D194*
X-38100Y148500D02*
D03*
D195*
X28059Y107800D02*
D03*
D196*
X-28000Y83500D02*
D03*
D197*
X-32391Y86700D02*
D03*
D198*
X29950Y138603D02*
D03*
D199*
X16300Y84153D02*
D03*
D200*
X-17800Y89253D02*
D03*
M02*
