G04*
G04 #@! TF.GenerationSoftware,Altium Limited,Altium Designer,22.1.2 (22)*
G04*
G04 Layer_Color=2752767*
%FSLAX25Y25*%
%MOIN*%
G70*
G04*
G04 #@! TF.SameCoordinates,4AADA1E1-E747-4A0A-B92B-AFF9719D9D6B*
G04*
G04*
G04 #@! TF.FilePolarity,Positive*
G04*
G01*
G75*
%ADD10C,0.01000*%
%ADD71C,0.01500*%
%ADD210C,0.00200*%
%ADD211C,0.01600*%
D10*
X170007Y265799D02*
X173340Y272466D01*
X166673D02*
X173340D01*
X166673D02*
X170007Y265799D01*
X168340Y252466D02*
X170007Y250799D01*
X166673Y252466D02*
X168340D01*
X166673D02*
X168340Y254133D01*
X166673Y255799D02*
X168340Y254133D01*
X166673Y255799D02*
X168340D01*
X170007Y257466D01*
X171673Y255799D01*
X173340D01*
X171673Y254133D02*
X173340Y255799D01*
X171673Y254133D02*
X173340Y252466D01*
X171673D02*
X173340D01*
X170007Y250799D02*
X171673Y252466D01*
X166673Y235799D02*
X173340D01*
Y242466D01*
X166673D02*
X173340D01*
X166673Y235799D02*
Y242466D01*
Y220799D02*
X170007Y222466D01*
X173340Y220799D01*
X171673Y224133D02*
X173340Y220799D01*
X171673Y224133D02*
X173340Y227466D01*
X170007Y225799D02*
X173340Y227466D01*
X166673D02*
X170007Y225799D01*
X166673Y227466D02*
X168340Y224133D01*
X166673Y220799D02*
X168340Y224133D01*
X802720Y269798D02*
X804719Y265799D01*
X806718Y269798D01*
X812716Y271797D02*
X810717Y270798D01*
X808718Y268798D01*
Y266799D01*
X809717Y265799D01*
X811717D01*
X812716Y266799D01*
Y267799D01*
X811717Y268798D01*
X808718D01*
X814716Y270798D02*
X815716Y271797D01*
X817715D01*
X818715Y270798D01*
Y266799D01*
X817715Y265799D01*
X815716D01*
X814716Y266799D01*
Y270798D01*
X820714Y271797D02*
Y265799D01*
Y268798D01*
X821714Y269798D01*
X823713D01*
X824713Y268798D01*
Y265799D01*
X826712Y270798D02*
X827712Y271797D01*
X829711D01*
X830711Y270798D01*
Y269798D01*
X829711Y268798D01*
X828711D01*
X829711D01*
X830711Y267799D01*
Y266799D01*
X829711Y265799D01*
X827712D01*
X826712Y266799D01*
X832710Y270798D02*
X833710Y271797D01*
X835709D01*
X836709Y270798D01*
Y266799D01*
X835709Y265799D01*
X833710D01*
X832710Y266799D01*
Y270798D01*
X838708Y265799D02*
Y269798D01*
X839708D01*
X840707Y268798D01*
Y265799D01*
Y268798D01*
X841707Y269798D01*
X842707Y268798D01*
Y265799D01*
X844706Y270798D02*
X845706Y271797D01*
X847705D01*
X848705Y270798D01*
Y266799D01*
X847705Y265799D01*
X845706D01*
X844706Y266799D01*
Y270798D01*
X850704Y265799D02*
Y269798D01*
X851704D01*
X852703Y268798D01*
Y265799D01*
Y268798D01*
X853703Y269798D01*
X854703Y268798D01*
Y265799D01*
X856702Y269798D02*
X860701Y265799D01*
X858702Y267799D01*
X860701Y269798D01*
X856702Y265799D01*
X862700Y270798D02*
X863700Y271797D01*
X865699D01*
X866699Y270798D01*
Y266799D01*
X865699Y265799D01*
X863700D01*
X862700Y266799D01*
Y270798D01*
X804719Y250799D02*
X802720Y252799D01*
Y254798D01*
X804719Y256797D01*
X807718Y250799D02*
Y256797D01*
X809717Y254798D01*
X811717Y256797D01*
Y250799D01*
X813716D02*
X815716D01*
X814716D01*
Y254798D01*
X813716D01*
X818715D02*
X822713Y250799D01*
X820714Y252799D01*
X822713Y254798D01*
X818715Y250799D01*
X827712D02*
X825712D01*
X824713Y251799D01*
Y253798D01*
X825712Y254798D01*
X827712D01*
X828711Y253798D01*
Y252799D01*
X824713D01*
X834709Y256797D02*
Y250799D01*
X831710D01*
X830711Y251799D01*
Y253798D01*
X831710Y254798D01*
X834709D01*
X836709Y250799D02*
X838708Y252799D01*
Y254798D01*
X836709Y256797D01*
X806718Y239798D02*
X803719D01*
X802720Y238798D01*
Y236799D01*
X803719Y235799D01*
X806718D01*
X808718Y240798D02*
X809717Y241797D01*
X811717D01*
X812716Y240798D01*
Y236799D01*
X811717Y235799D01*
X809717D01*
X808718Y236799D01*
Y240798D01*
X814716Y241797D02*
Y235799D01*
Y238798D01*
X815716Y239798D01*
X817715D01*
X818715Y238798D01*
Y235799D01*
X820714D02*
Y239798D01*
X823713D01*
X824713Y238798D01*
Y235799D01*
X826712D02*
X828711D01*
X827712D01*
Y241797D01*
X826712Y240798D01*
X835709Y241797D02*
X833710Y240798D01*
X831710Y238798D01*
Y236799D01*
X832710Y235799D01*
X834709D01*
X835709Y236799D01*
Y237799D01*
X834709Y238798D01*
X831710D01*
X841707Y241797D02*
X837708D01*
Y238798D01*
X839708Y239798D01*
X840707D01*
X841707Y238798D01*
Y236799D01*
X840707Y235799D01*
X838708D01*
X837708Y236799D01*
X843707Y235799D02*
Y239798D01*
X844706D01*
X845706Y238798D01*
Y235799D01*
Y238798D01*
X846706Y239798D01*
X847705Y238798D01*
Y235799D01*
X849704Y240798D02*
X850704Y241797D01*
X852703D01*
X853703Y240798D01*
Y236799D01*
X852703Y235799D01*
X850704D01*
X849704Y236799D01*
Y240798D01*
X855703Y235799D02*
Y239798D01*
X856702D01*
X857702Y238798D01*
Y235799D01*
Y238798D01*
X858702Y239798D01*
X859701Y238798D01*
Y235799D01*
X861701Y239798D02*
X865699Y235799D01*
X863700Y237799D01*
X865699Y239798D01*
X861701Y235799D01*
X867699Y240798D02*
X868698Y241797D01*
X870698D01*
X871697Y240798D01*
Y236799D01*
X870698Y235799D01*
X868698D01*
X867699Y236799D01*
Y240798D01*
X806718Y224798D02*
X803719D01*
X802720Y223798D01*
Y221799D01*
X803719Y220799D01*
X806718D01*
X808718Y225798D02*
X809717Y226797D01*
X811717D01*
X812716Y225798D01*
Y224798D01*
X811717Y223798D01*
X810717D01*
X811717D01*
X812716Y222799D01*
Y221799D01*
X811717Y220799D01*
X809717D01*
X808718Y221799D01*
X814716Y225798D02*
X815716Y226797D01*
X817715D01*
X818715Y225798D01*
Y221799D01*
X817715Y220799D01*
X815716D01*
X814716Y221799D01*
Y225798D01*
X820714D02*
X821714Y226797D01*
X823713D01*
X824713Y225798D01*
Y221799D01*
X823713Y220799D01*
X821714D01*
X820714Y221799D01*
Y225798D01*
X826712Y226797D02*
Y220799D01*
Y223798D01*
X827712Y224798D01*
X829711D01*
X830711Y223798D01*
Y220799D01*
X832710D02*
Y224798D01*
X835709D01*
X836709Y223798D01*
Y220799D01*
X838708Y225798D02*
X839708Y226797D01*
X841707D01*
X842707Y225798D01*
Y224798D01*
X841707Y223798D01*
X840707D01*
X841707D01*
X842707Y222799D01*
Y221799D01*
X841707Y220799D01*
X839708D01*
X838708Y221799D01*
X847705Y220799D02*
Y226797D01*
X844706Y223798D01*
X848705D01*
X850704Y225798D02*
X851704Y226797D01*
X853703D01*
X854703Y225798D01*
Y221799D01*
X853703Y220799D01*
X851704D01*
X850704Y221799D01*
Y225798D01*
X856702Y220799D02*
Y224798D01*
X857702D01*
X858702Y223798D01*
Y220799D01*
Y223798D01*
X859701Y224798D01*
X860701Y223798D01*
Y220799D01*
X862700Y225798D02*
X863700Y226797D01*
X865699D01*
X866699Y225798D01*
Y221799D01*
X865699Y220799D01*
X863700D01*
X862700Y221799D01*
Y225798D01*
X868698Y220799D02*
Y224798D01*
X869698D01*
X870698Y223798D01*
Y220799D01*
Y223798D01*
X871697Y224798D01*
X872697Y223798D01*
Y220799D01*
X874696Y224798D02*
X878695Y220799D01*
X876696Y222799D01*
X878695Y224798D01*
X874696Y220799D01*
X880694Y225798D02*
X881694Y226797D01*
X883694D01*
X884693Y225798D01*
Y221799D01*
X883694Y220799D01*
X881694D01*
X880694Y221799D01*
Y225798D01*
X728140Y265799D02*
Y271797D01*
X731139D01*
X732139Y270798D01*
Y268798D01*
X731139Y267799D01*
X728140D01*
X730139D02*
X732139Y265799D01*
X735138D02*
X737137D01*
X738137Y266799D01*
Y268798D01*
X737137Y269798D01*
X735138D01*
X734138Y268798D01*
Y266799D01*
X735138Y265799D01*
X740136Y269798D02*
Y266799D01*
X741136Y265799D01*
X744135D01*
Y269798D01*
X746134Y265799D02*
Y269798D01*
X749133D01*
X750133Y268798D01*
Y265799D01*
X756131Y271797D02*
Y265799D01*
X753132D01*
X752132Y266799D01*
Y268798D01*
X753132Y269798D01*
X756131D01*
X761129Y265799D02*
X759130D01*
X758130Y266799D01*
Y268798D01*
X759130Y269798D01*
X761129D01*
X762129Y268798D01*
Y267799D01*
X758130D01*
X768127Y271797D02*
Y265799D01*
X765128D01*
X764128Y266799D01*
Y268798D01*
X765128Y269798D01*
X768127D01*
X730139Y250799D02*
X728140Y252799D01*
Y254798D01*
X730139Y256797D01*
X733138Y250799D02*
Y256797D01*
X735138Y254798D01*
X737137Y256797D01*
Y250799D01*
X739136D02*
X741136D01*
X740136D01*
Y254798D01*
X739136D01*
X744135D02*
X748133Y250799D01*
X746134Y252799D01*
X748133Y254798D01*
X744135Y250799D01*
X753132D02*
X751132D01*
X750133Y251799D01*
Y253798D01*
X751132Y254798D01*
X753132D01*
X754132Y253798D01*
Y252799D01*
X750133D01*
X760130Y256797D02*
Y250799D01*
X757130D01*
X756131Y251799D01*
Y253798D01*
X757130Y254798D01*
X760130D01*
X762129Y250799D02*
X764128Y252799D01*
Y254798D01*
X762129Y256797D01*
X728140Y235799D02*
Y241797D01*
X731139D01*
X732139Y240798D01*
Y238798D01*
X731139Y237799D01*
X728140D01*
X730139D02*
X732139Y235799D01*
X735138D02*
X737137D01*
X738137Y236799D01*
Y238798D01*
X737137Y239798D01*
X735138D01*
X734138Y238798D01*
Y236799D01*
X735138Y235799D01*
X740136Y239798D02*
Y236799D01*
X741136Y235799D01*
X744135D01*
Y239798D01*
X746134Y235799D02*
Y239798D01*
X749133D01*
X750133Y238798D01*
Y235799D01*
X756131Y241797D02*
Y235799D01*
X753132D01*
X752132Y236799D01*
Y238798D01*
X753132Y239798D01*
X756131D01*
X761129Y235799D02*
X759130D01*
X758130Y236799D01*
Y238798D01*
X759130Y239798D01*
X761129D01*
X762129Y238798D01*
Y237799D01*
X758130D01*
X768127Y241797D02*
Y235799D01*
X765128D01*
X764128Y236799D01*
Y238798D01*
X765128Y239798D01*
X768127D01*
X728140Y220799D02*
Y226797D01*
X731139D01*
X732139Y225798D01*
Y223798D01*
X731139Y222799D01*
X728140D01*
X730139D02*
X732139Y220799D01*
X735138D02*
X737137D01*
X738137Y221799D01*
Y223798D01*
X737137Y224798D01*
X735138D01*
X734138Y223798D01*
Y221799D01*
X735138Y220799D01*
X740136Y224798D02*
Y221799D01*
X741136Y220799D01*
X744135D01*
Y224798D01*
X746134Y220799D02*
Y224798D01*
X749133D01*
X750133Y223798D01*
Y220799D01*
X756131Y226797D02*
Y220799D01*
X753132D01*
X752132Y221799D01*
Y223798D01*
X753132Y224798D01*
X756131D01*
X761129Y220799D02*
X759130D01*
X758130Y221799D01*
Y223798D01*
X759130Y224798D01*
X761129D01*
X762129Y223798D01*
Y222799D01*
X758130D01*
X768127Y226797D02*
Y220799D01*
X765128D01*
X764128Y221799D01*
Y223798D01*
X765128Y224798D01*
X768127D01*
X669155Y271797D02*
Y267799D01*
X671154Y265799D01*
X673154Y267799D01*
Y271797D01*
X675153Y265799D02*
X677152D01*
X676153D01*
Y269798D01*
X675153D01*
X681151D02*
X683150D01*
X684150Y268798D01*
Y265799D01*
X681151D01*
X680152Y266799D01*
X681151Y267799D01*
X684150D01*
X669155Y250799D02*
Y256797D01*
X672154D01*
X673154Y255798D01*
Y253798D01*
X672154Y252799D01*
X669155D01*
X676153Y254798D02*
X678152D01*
X679152Y253798D01*
Y250799D01*
X676153D01*
X675153Y251799D01*
X676153Y252799D01*
X679152D01*
X685150Y256797D02*
Y250799D01*
X682151D01*
X681151Y251799D01*
Y253798D01*
X682151Y254798D01*
X685150D01*
X669155Y235799D02*
Y241797D01*
X672154D01*
X673154Y240798D01*
Y238798D01*
X672154Y237799D01*
X669155D01*
X676153Y239798D02*
X678152D01*
X679152Y238798D01*
Y235799D01*
X676153D01*
X675153Y236799D01*
X676153Y237799D01*
X679152D01*
X685150Y241797D02*
Y235799D01*
X682151D01*
X681151Y236799D01*
Y238798D01*
X682151Y239798D01*
X685150D01*
X669155Y220799D02*
Y226797D01*
X672154D01*
X673154Y225798D01*
Y223798D01*
X672154Y222799D01*
X669155D01*
X676153Y224798D02*
X678152D01*
X679152Y223798D01*
Y220799D01*
X676153D01*
X675153Y221799D01*
X676153Y222799D01*
X679152D01*
X685150Y226797D02*
Y220799D01*
X682151D01*
X681151Y221799D01*
Y223798D01*
X682151Y224798D01*
X685150D01*
X519200Y271797D02*
X523199D01*
X521199D01*
Y265799D01*
X526198D02*
X528197D01*
X529197Y266799D01*
Y268798D01*
X528197Y269798D01*
X526198D01*
X525198Y268798D01*
Y266799D01*
X526198Y265799D01*
X531196Y263800D02*
Y269798D01*
X534195D01*
X535195Y268798D01*
Y266799D01*
X534195Y265799D01*
X531196D01*
X543192Y271797D02*
Y265799D01*
X547191D01*
X550190Y269798D02*
X552189D01*
X553189Y268798D01*
Y265799D01*
X550190D01*
X549190Y266799D01*
X550190Y267799D01*
X553189D01*
X555188Y269798D02*
Y266799D01*
X556188Y265799D01*
X559187D01*
Y264800D01*
X558187Y263800D01*
X557188D01*
X559187Y265799D02*
Y269798D01*
X564185Y265799D02*
X562186D01*
X561186Y266799D01*
Y268798D01*
X562186Y269798D01*
X564185D01*
X565185Y268798D01*
Y267799D01*
X561186D01*
X567184Y269798D02*
Y265799D01*
Y267799D01*
X568184Y268798D01*
X569184Y269798D01*
X570184D01*
X579181Y268798D02*
X583179D01*
X591177Y271797D02*
Y265799D01*
X594176D01*
X595175Y266799D01*
Y267799D01*
X594176Y268798D01*
X591177D01*
X594176D01*
X595175Y269798D01*
Y270798D01*
X594176Y271797D01*
X591177D01*
X598174Y265799D02*
X600174D01*
X601173Y266799D01*
Y268798D01*
X600174Y269798D01*
X598174D01*
X597175Y268798D01*
Y266799D01*
X598174Y265799D01*
X604173Y270798D02*
Y269798D01*
X603173D01*
X605172D01*
X604173D01*
Y266799D01*
X605172Y265799D01*
X609171Y270798D02*
Y269798D01*
X608171D01*
X610171D01*
X609171D01*
Y266799D01*
X610171Y265799D01*
X614169D02*
X616169D01*
X617168Y266799D01*
Y268798D01*
X616169Y269798D01*
X614169D01*
X613170Y268798D01*
Y266799D01*
X614169Y265799D01*
X619168D02*
Y269798D01*
X620167D01*
X621167Y268798D01*
Y265799D01*
Y268798D01*
X622167Y269798D01*
X623166Y268798D01*
Y265799D01*
X631164Y271797D02*
Y265799D01*
X635162D01*
X638162Y269798D02*
X640161D01*
X641160Y268798D01*
Y265799D01*
X638162D01*
X637162Y266799D01*
X638162Y267799D01*
X641160D01*
X643160Y269798D02*
Y266799D01*
X644160Y265799D01*
X647159D01*
Y264800D01*
X646159Y263800D01*
X645159D01*
X647159Y265799D02*
Y269798D01*
X652157Y265799D02*
X650158D01*
X649158Y266799D01*
Y268798D01*
X650158Y269798D01*
X652157D01*
X653157Y268798D01*
Y267799D01*
X649158D01*
X655156Y269798D02*
Y265799D01*
Y267799D01*
X656156Y268798D01*
X657155Y269798D01*
X658155D01*
X519200Y256797D02*
X523199D01*
X521199D01*
Y250799D01*
X526198D02*
X528197D01*
X529197Y251799D01*
Y253798D01*
X528197Y254798D01*
X526198D01*
X525198Y253798D01*
Y251799D01*
X526198Y250799D01*
X531196Y248800D02*
Y254798D01*
X534195D01*
X535195Y253798D01*
Y251799D01*
X534195Y250799D01*
X531196D01*
X543192Y256797D02*
Y250799D01*
X547191D01*
X550190Y254798D02*
X552189D01*
X553189Y253798D01*
Y250799D01*
X550190D01*
X549190Y251799D01*
X550190Y252799D01*
X553189D01*
X555188Y254798D02*
Y251799D01*
X556188Y250799D01*
X559187D01*
Y249800D01*
X558187Y248800D01*
X557188D01*
X559187Y250799D02*
Y254798D01*
X564185Y250799D02*
X562186D01*
X561186Y251799D01*
Y253798D01*
X562186Y254798D01*
X564185D01*
X565185Y253798D01*
Y252799D01*
X561186D01*
X567184Y254798D02*
Y250799D01*
Y252799D01*
X568184Y253798D01*
X569184Y254798D01*
X570184D01*
X579181Y253798D02*
X583179D01*
X591177Y256797D02*
Y250799D01*
X594176D01*
X595175Y251799D01*
Y252799D01*
X594176Y253798D01*
X591177D01*
X594176D01*
X595175Y254798D01*
Y255798D01*
X594176Y256797D01*
X591177D01*
X598174Y250799D02*
X600174D01*
X601173Y251799D01*
Y253798D01*
X600174Y254798D01*
X598174D01*
X597175Y253798D01*
Y251799D01*
X598174Y250799D01*
X604173Y255798D02*
Y254798D01*
X603173D01*
X605172D01*
X604173D01*
Y251799D01*
X605172Y250799D01*
X609171Y255798D02*
Y254798D01*
X608171D01*
X610171D01*
X609171D01*
Y251799D01*
X610171Y250799D01*
X614169D02*
X616169D01*
X617168Y251799D01*
Y253798D01*
X616169Y254798D01*
X614169D01*
X613170Y253798D01*
Y251799D01*
X614169Y250799D01*
X619168D02*
Y254798D01*
X620167D01*
X621167Y253798D01*
Y250799D01*
Y253798D01*
X622167Y254798D01*
X623166Y253798D01*
Y250799D01*
X631164Y256797D02*
Y250799D01*
X635162D01*
X638162Y254798D02*
X640161D01*
X641160Y253798D01*
Y250799D01*
X638162D01*
X637162Y251799D01*
X638162Y252799D01*
X641160D01*
X643160Y254798D02*
Y251799D01*
X644160Y250799D01*
X647159D01*
Y249800D01*
X646159Y248800D01*
X645159D01*
X647159Y250799D02*
Y254798D01*
X652157Y250799D02*
X650158D01*
X649158Y251799D01*
Y253798D01*
X650158Y254798D01*
X652157D01*
X653157Y253798D01*
Y252799D01*
X649158D01*
X655156Y254798D02*
Y250799D01*
Y252799D01*
X656156Y253798D01*
X657155Y254798D01*
X658155D01*
X519200Y241797D02*
X523199D01*
X521199D01*
Y235799D01*
X526198D02*
X528197D01*
X529197Y236799D01*
Y238798D01*
X528197Y239798D01*
X526198D01*
X525198Y238798D01*
Y236799D01*
X526198Y235799D01*
X531196Y233800D02*
Y239798D01*
X534195D01*
X535195Y238798D01*
Y236799D01*
X534195Y235799D01*
X531196D01*
X543192Y241797D02*
Y235799D01*
X547191D01*
X550190Y239798D02*
X552189D01*
X553189Y238798D01*
Y235799D01*
X550190D01*
X549190Y236799D01*
X550190Y237799D01*
X553189D01*
X555188Y239798D02*
Y236799D01*
X556188Y235799D01*
X559187D01*
Y234800D01*
X558187Y233800D01*
X557188D01*
X559187Y235799D02*
Y239798D01*
X564185Y235799D02*
X562186D01*
X561186Y236799D01*
Y238798D01*
X562186Y239798D01*
X564185D01*
X565185Y238798D01*
Y237799D01*
X561186D01*
X567184Y239798D02*
Y235799D01*
Y237799D01*
X568184Y238798D01*
X569184Y239798D01*
X570184D01*
X579181Y238798D02*
X583179D01*
X591177Y241797D02*
Y235799D01*
X594176D01*
X595175Y236799D01*
Y237799D01*
X594176Y238798D01*
X591177D01*
X594176D01*
X595175Y239798D01*
Y240798D01*
X594176Y241797D01*
X591177D01*
X598174Y235799D02*
X600174D01*
X601173Y236799D01*
Y238798D01*
X600174Y239798D01*
X598174D01*
X597175Y238798D01*
Y236799D01*
X598174Y235799D01*
X604173Y240798D02*
Y239798D01*
X603173D01*
X605172D01*
X604173D01*
Y236799D01*
X605172Y235799D01*
X609171Y240798D02*
Y239798D01*
X608171D01*
X610171D01*
X609171D01*
Y236799D01*
X610171Y235799D01*
X614169D02*
X616169D01*
X617168Y236799D01*
Y238798D01*
X616169Y239798D01*
X614169D01*
X613170Y238798D01*
Y236799D01*
X614169Y235799D01*
X619168D02*
Y239798D01*
X620167D01*
X621167Y238798D01*
Y235799D01*
Y238798D01*
X622167Y239798D01*
X623166Y238798D01*
Y235799D01*
X631164Y241797D02*
Y235799D01*
X635162D01*
X638162Y239798D02*
X640161D01*
X641160Y238798D01*
Y235799D01*
X638162D01*
X637162Y236799D01*
X638162Y237799D01*
X641160D01*
X643160Y239798D02*
Y236799D01*
X644160Y235799D01*
X647159D01*
Y234800D01*
X646159Y233800D01*
X645159D01*
X647159Y235799D02*
Y239798D01*
X652157Y235799D02*
X650158D01*
X649158Y236799D01*
Y238798D01*
X650158Y239798D01*
X652157D01*
X653157Y238798D01*
Y237799D01*
X649158D01*
X655156Y239798D02*
Y235799D01*
Y237799D01*
X656156Y238798D01*
X657155Y239798D01*
X658155D01*
X519200Y226797D02*
X523199D01*
X521199D01*
Y220799D01*
X526198D02*
X528197D01*
X529197Y221799D01*
Y223798D01*
X528197Y224798D01*
X526198D01*
X525198Y223798D01*
Y221799D01*
X526198Y220799D01*
X531196Y218800D02*
Y224798D01*
X534195D01*
X535195Y223798D01*
Y221799D01*
X534195Y220799D01*
X531196D01*
X543192Y226797D02*
Y220799D01*
X547191D01*
X550190Y224798D02*
X552189D01*
X553189Y223798D01*
Y220799D01*
X550190D01*
X549190Y221799D01*
X550190Y222799D01*
X553189D01*
X555188Y224798D02*
Y221799D01*
X556188Y220799D01*
X559187D01*
Y219800D01*
X558187Y218800D01*
X557188D01*
X559187Y220799D02*
Y224798D01*
X564185Y220799D02*
X562186D01*
X561186Y221799D01*
Y223798D01*
X562186Y224798D01*
X564185D01*
X565185Y223798D01*
Y222799D01*
X561186D01*
X567184Y224798D02*
Y220799D01*
Y222799D01*
X568184Y223798D01*
X569184Y224798D01*
X570184D01*
X579181Y223798D02*
X583179D01*
X591177Y226797D02*
Y220799D01*
X594176D01*
X595175Y221799D01*
Y222799D01*
X594176Y223798D01*
X591177D01*
X594176D01*
X595175Y224798D01*
Y225798D01*
X594176Y226797D01*
X591177D01*
X598174Y220799D02*
X600174D01*
X601173Y221799D01*
Y223798D01*
X600174Y224798D01*
X598174D01*
X597175Y223798D01*
Y221799D01*
X598174Y220799D01*
X604173Y225798D02*
Y224798D01*
X603173D01*
X605172D01*
X604173D01*
Y221799D01*
X605172Y220799D01*
X609171Y225798D02*
Y224798D01*
X608171D01*
X610171D01*
X609171D01*
Y221799D01*
X610171Y220799D01*
X614169D02*
X616169D01*
X617168Y221799D01*
Y223798D01*
X616169Y224798D01*
X614169D01*
X613170Y223798D01*
Y221799D01*
X614169Y220799D01*
X619168D02*
Y224798D01*
X620167D01*
X621167Y223798D01*
Y220799D01*
Y223798D01*
X622167Y224798D01*
X623166Y223798D01*
Y220799D01*
X631164Y226797D02*
Y220799D01*
X635162D01*
X638162Y224798D02*
X640161D01*
X641160Y223798D01*
Y220799D01*
X638162D01*
X637162Y221799D01*
X638162Y222799D01*
X641160D01*
X643160Y224798D02*
Y221799D01*
X644160Y220799D01*
X647159D01*
Y219800D01*
X646159Y218800D01*
X645159D01*
X647159Y220799D02*
Y224798D01*
X652157Y220799D02*
X650158D01*
X649158Y221799D01*
Y223798D01*
X650158Y224798D01*
X652157D01*
X653157Y223798D01*
Y222799D01*
X649158D01*
X655156Y224798D02*
Y220799D01*
Y222799D01*
X656156Y223798D01*
X657155Y224798D01*
X658155D01*
X445820Y265799D02*
Y271797D01*
X448819D01*
X449819Y270798D01*
Y268798D01*
X448819Y267799D01*
X445820D01*
X447819D02*
X449819Y265799D01*
X452817D02*
X454817D01*
X455817Y266799D01*
Y268798D01*
X454817Y269798D01*
X452817D01*
X451818Y268798D01*
Y266799D01*
X452817Y265799D01*
X457816Y269798D02*
Y266799D01*
X458816Y265799D01*
X461815D01*
Y269798D01*
X463814Y265799D02*
Y269798D01*
X466813D01*
X467813Y268798D01*
Y265799D01*
X473811Y271797D02*
Y265799D01*
X470812D01*
X469812Y266799D01*
Y268798D01*
X470812Y269798D01*
X473811D01*
X445820Y250799D02*
Y256797D01*
X448819D01*
X449819Y255798D01*
Y253798D01*
X448819Y252799D01*
X445820D01*
X447819D02*
X449819Y250799D01*
X452817D02*
X454817D01*
X455817Y251799D01*
Y253798D01*
X454817Y254798D01*
X452817D01*
X451818Y253798D01*
Y251799D01*
X452817Y250799D01*
X457816Y254798D02*
Y251799D01*
X458816Y250799D01*
X461815D01*
Y254798D01*
X463814Y250799D02*
Y254798D01*
X466813D01*
X467813Y253798D01*
Y250799D01*
X473811Y256797D02*
Y250799D01*
X470812D01*
X469812Y251799D01*
Y253798D01*
X470812Y254798D01*
X473811D01*
X445820Y235799D02*
Y241797D01*
X448819D01*
X449819Y240798D01*
Y238798D01*
X448819Y237799D01*
X445820D01*
X447819D02*
X449819Y235799D01*
X452817D02*
X454817D01*
X455817Y236799D01*
Y238798D01*
X454817Y239798D01*
X452817D01*
X451818Y238798D01*
Y236799D01*
X452817Y235799D01*
X457816Y239798D02*
Y236799D01*
X458816Y235799D01*
X461815D01*
Y239798D01*
X463814Y235799D02*
Y239798D01*
X466813D01*
X467813Y238798D01*
Y235799D01*
X473811Y241797D02*
Y235799D01*
X470812D01*
X469812Y236799D01*
Y238798D01*
X470812Y239798D01*
X473811D01*
X445820Y220799D02*
Y226797D01*
X448819D01*
X449819Y225798D01*
Y223798D01*
X448819Y222799D01*
X445820D01*
X447819D02*
X449819Y220799D01*
X452817D02*
X454817D01*
X455817Y221799D01*
Y223798D01*
X454817Y224798D01*
X452817D01*
X451818Y223798D01*
Y221799D01*
X452817Y220799D01*
X457816Y224798D02*
Y221799D01*
X458816Y220799D01*
X461815D01*
Y224798D01*
X463814Y220799D02*
Y224798D01*
X466813D01*
X467813Y223798D01*
Y220799D01*
X473811Y226797D02*
Y220799D01*
X470812D01*
X469812Y221799D01*
Y223798D01*
X470812Y224798D01*
X473811D01*
X395232Y265799D02*
Y271797D01*
X398231D01*
X399231Y270798D01*
Y268798D01*
X398231Y267799D01*
X395232D01*
X401230Y271797D02*
X405229D01*
X403230D01*
Y265799D01*
X407228Y271797D02*
Y265799D01*
Y268798D01*
X411227D01*
Y271797D01*
Y265799D01*
X395232Y250799D02*
Y256797D01*
X398231D01*
X399231Y255798D01*
Y253798D01*
X398231Y252799D01*
X395232D01*
X401230Y256797D02*
X405229D01*
X403230D01*
Y250799D01*
X407228Y256797D02*
Y250799D01*
Y253798D01*
X411227D01*
Y256797D01*
Y250799D01*
X395232Y235799D02*
Y241797D01*
X399231Y235799D01*
Y241797D01*
X401230Y235799D02*
Y241797D01*
X404229D01*
X405229Y240798D01*
Y238798D01*
X404229Y237799D01*
X401230D01*
X407228Y241797D02*
X411227D01*
X409228D01*
Y235799D01*
X413226Y241797D02*
Y235799D01*
Y238798D01*
X417225D01*
Y241797D01*
Y235799D01*
X395232Y220799D02*
Y226797D01*
X399231Y220799D01*
Y226797D01*
X401230Y220799D02*
Y226797D01*
X404229D01*
X405229Y225798D01*
Y223798D01*
X404229Y222799D01*
X401230D01*
X407228Y226797D02*
X411227D01*
X409228D01*
Y220799D01*
X413226Y226797D02*
Y220799D01*
Y223798D01*
X417225D01*
Y226797D01*
Y220799D01*
X280266Y265799D02*
X282265D01*
X281265D01*
Y271797D01*
X280266Y270798D01*
X285264Y265799D02*
X287264D01*
X286264D01*
Y271797D01*
X285264Y270798D01*
X290263Y265799D02*
Y266799D01*
X291262D01*
Y265799D01*
X290263D01*
X295261Y270798D02*
X296261Y271797D01*
X298260D01*
X299260Y270798D01*
Y269798D01*
X298260Y268798D01*
X299260Y267799D01*
Y266799D01*
X298260Y265799D01*
X296261D01*
X295261Y266799D01*
Y267799D01*
X296261Y268798D01*
X295261Y269798D01*
Y270798D01*
X296261Y268798D02*
X298260D01*
X301259Y265799D02*
X303258D01*
X302259D01*
Y271797D01*
X301259Y270798D01*
X306258Y265799D02*
Y269798D01*
X307257D01*
X308257Y268798D01*
Y265799D01*
Y268798D01*
X309257Y269798D01*
X310256Y268798D01*
Y265799D01*
X312256D02*
X314255D01*
X313255D01*
Y269798D01*
X312256D01*
X317254Y265799D02*
X319253D01*
X318254D01*
Y271797D01*
X317254D01*
X330250Y265799D02*
X328250Y267799D01*
Y269798D01*
X330250Y271797D01*
X333249Y270798D02*
X334248Y271797D01*
X336248D01*
X337247Y270798D01*
Y266799D01*
X336248Y265799D01*
X334248D01*
X333249Y266799D01*
Y270798D01*
X339247Y265799D02*
Y266799D01*
X340247D01*
Y265799D01*
X339247D01*
X344245Y270798D02*
X345245Y271797D01*
X347244D01*
X348244Y270798D01*
Y269798D01*
X347244Y268798D01*
X346245D01*
X347244D01*
X348244Y267799D01*
Y266799D01*
X347244Y265799D01*
X345245D01*
X344245Y266799D01*
X350243Y270798D02*
X351243Y271797D01*
X353242D01*
X354242Y270798D01*
Y266799D01*
X353242Y265799D01*
X351243D01*
X350243Y266799D01*
Y270798D01*
X356241D02*
X357241Y271797D01*
X359240D01*
X360240Y270798D01*
Y266799D01*
X359240Y265799D01*
X357241D01*
X356241Y266799D01*
Y270798D01*
X362239Y265799D02*
Y269798D01*
X363239D01*
X364239Y268798D01*
Y265799D01*
Y268798D01*
X365238Y269798D01*
X366238Y268798D01*
Y265799D01*
X368237D02*
Y269798D01*
X369237D01*
X370237Y268798D01*
Y265799D01*
Y268798D01*
X371236Y269798D01*
X372236Y268798D01*
Y265799D01*
X374235D02*
X376235Y267799D01*
Y269798D01*
X374235Y271797D01*
X280266Y255798D02*
X281265Y256797D01*
X283265D01*
X284265Y255798D01*
Y254798D01*
X283265Y253798D01*
X282265D01*
X283265D01*
X284265Y252799D01*
Y251799D01*
X283265Y250799D01*
X281265D01*
X280266Y251799D01*
X290263Y256797D02*
X286264D01*
Y253798D01*
X288263Y254798D01*
X289263D01*
X290263Y253798D01*
Y251799D01*
X289263Y250799D01*
X287264D01*
X286264Y251799D01*
X292262Y250799D02*
Y251799D01*
X293262D01*
Y250799D01*
X292262D01*
X300259D02*
Y256797D01*
X297260Y253798D01*
X301259D01*
X303258Y255798D02*
X304258Y256797D01*
X306258D01*
X307257Y255798D01*
Y254798D01*
X306258Y253798D01*
X305258D01*
X306258D01*
X307257Y252799D01*
Y251799D01*
X306258Y250799D01*
X304258D01*
X303258Y251799D01*
X309257Y250799D02*
Y254798D01*
X310256D01*
X311256Y253798D01*
Y250799D01*
Y253798D01*
X312256Y254798D01*
X313255Y253798D01*
Y250799D01*
X315255D02*
X317254D01*
X316254D01*
Y254798D01*
X315255D01*
X320253Y250799D02*
X322252D01*
X321253D01*
Y256797D01*
X320253D01*
X333249Y250799D02*
X331249Y252799D01*
Y254798D01*
X333249Y256797D01*
X336248Y255798D02*
X337247Y256797D01*
X339247D01*
X340247Y255798D01*
Y251799D01*
X339247Y250799D01*
X337247D01*
X336248Y251799D01*
Y255798D01*
X342246Y250799D02*
Y251799D01*
X343246D01*
Y250799D01*
X342246D01*
X347244Y251799D02*
X348244Y250799D01*
X350243D01*
X351243Y251799D01*
Y255798D01*
X350243Y256797D01*
X348244D01*
X347244Y255798D01*
Y254798D01*
X348244Y253798D01*
X351243D01*
X353242Y255798D02*
X354242Y256797D01*
X356241D01*
X357241Y255798D01*
Y251799D01*
X356241Y250799D01*
X354242D01*
X353242Y251799D01*
Y255798D01*
X359240D02*
X360240Y256797D01*
X362239D01*
X363239Y255798D01*
Y251799D01*
X362239Y250799D01*
X360240D01*
X359240Y251799D01*
Y255798D01*
X365238Y250799D02*
Y254798D01*
X366238D01*
X367238Y253798D01*
Y250799D01*
Y253798D01*
X368237Y254798D01*
X369237Y253798D01*
Y250799D01*
X371236D02*
Y254798D01*
X372236D01*
X373236Y253798D01*
Y250799D01*
Y253798D01*
X374236Y254798D01*
X375235Y253798D01*
Y250799D01*
X377235D02*
X379234Y252799D01*
Y254798D01*
X377235Y256797D01*
X284265Y241797D02*
X282265Y240798D01*
X280266Y238798D01*
Y236799D01*
X281265Y235799D01*
X283265D01*
X284265Y236799D01*
Y237799D01*
X283265Y238798D01*
X280266D01*
X289263Y235799D02*
Y241797D01*
X286264Y238798D01*
X290263D01*
X292262Y235799D02*
Y236799D01*
X293262D01*
Y235799D01*
X292262D01*
X297260Y236799D02*
X298260Y235799D01*
X300259D01*
X301259Y236799D01*
Y240798D01*
X300259Y241797D01*
X298260D01*
X297260Y240798D01*
Y239798D01*
X298260Y238798D01*
X301259D01*
X307257Y241797D02*
X305258Y240798D01*
X303258Y238798D01*
Y236799D01*
X304258Y235799D01*
X306258D01*
X307257Y236799D01*
Y237799D01*
X306258Y238798D01*
X303258D01*
X309257Y235799D02*
Y239798D01*
X310256D01*
X311256Y238798D01*
Y235799D01*
Y238798D01*
X312256Y239798D01*
X313255Y238798D01*
Y235799D01*
X315255D02*
X317254D01*
X316254D01*
Y239798D01*
X315255D01*
X320253Y235799D02*
X322252D01*
X321253D01*
Y241797D01*
X320253D01*
X333249Y235799D02*
X331249Y237799D01*
Y239798D01*
X333249Y241797D01*
X336248Y235799D02*
X338247D01*
X337247D01*
Y241797D01*
X336248Y240798D01*
X341246Y235799D02*
Y236799D01*
X342246D01*
Y235799D01*
X341246D01*
X350243Y241797D02*
X348244Y240798D01*
X346245Y238798D01*
Y236799D01*
X347244Y235799D01*
X349243D01*
X350243Y236799D01*
Y237799D01*
X349243Y238798D01*
X346245D01*
X356241Y241797D02*
X352243D01*
Y238798D01*
X354242Y239798D01*
X355242D01*
X356241Y238798D01*
Y236799D01*
X355242Y235799D01*
X353242D01*
X352243Y236799D01*
X358241Y240798D02*
X359240Y241797D01*
X361240D01*
X362239Y240798D01*
Y236799D01*
X361240Y235799D01*
X359240D01*
X358241Y236799D01*
Y240798D01*
X364239Y235799D02*
Y239798D01*
X365238D01*
X366238Y238798D01*
Y235799D01*
Y238798D01*
X367238Y239798D01*
X368237Y238798D01*
Y235799D01*
X370237D02*
Y239798D01*
X371236D01*
X372236Y238798D01*
Y235799D01*
Y238798D01*
X373236Y239798D01*
X374236Y238798D01*
Y235799D01*
X376235D02*
X378234Y237799D01*
Y239798D01*
X376235Y241797D01*
X280266Y220799D02*
X282265D01*
X281265D01*
Y226797D01*
X280266Y225798D01*
X285264D02*
X286264Y226797D01*
X288263D01*
X289263Y225798D01*
Y224798D01*
X288263Y223798D01*
X287264D01*
X288263D01*
X289263Y222799D01*
Y221799D01*
X288263Y220799D01*
X286264D01*
X285264Y221799D01*
X291262Y225798D02*
X292262Y226797D01*
X294261D01*
X295261Y225798D01*
Y224798D01*
X294261Y223798D01*
X293262D01*
X294261D01*
X295261Y222799D01*
Y221799D01*
X294261Y220799D01*
X292262D01*
X291262Y221799D01*
X297260Y220799D02*
Y221799D01*
X298260D01*
Y220799D01*
X297260D01*
X302259Y225798D02*
X303258Y226797D01*
X305258D01*
X306258Y225798D01*
Y224798D01*
X305258Y223798D01*
X306258Y222799D01*
Y221799D01*
X305258Y220799D01*
X303258D01*
X302259Y221799D01*
Y222799D01*
X303258Y223798D01*
X302259Y224798D01*
Y225798D01*
X303258Y223798D02*
X305258D01*
X312256Y226797D02*
X310256Y225798D01*
X308257Y223798D01*
Y221799D01*
X309257Y220799D01*
X311256D01*
X312256Y221799D01*
Y222799D01*
X311256Y223798D01*
X308257D01*
X314255Y220799D02*
Y224798D01*
X315255D01*
X316254Y223798D01*
Y220799D01*
Y223798D01*
X317254Y224798D01*
X318254Y223798D01*
Y220799D01*
X320253D02*
X322252D01*
X321253D01*
Y224798D01*
X320253D01*
X325251Y220799D02*
X327251D01*
X326251D01*
Y226797D01*
X325251D01*
X338247Y220799D02*
X336248Y222799D01*
Y224798D01*
X338247Y226797D01*
X341246Y225798D02*
X342246Y226797D01*
X344245D01*
X345245Y225798D01*
Y224798D01*
X344245Y223798D01*
X343246D01*
X344245D01*
X345245Y222799D01*
Y221799D01*
X344245Y220799D01*
X342246D01*
X341246Y221799D01*
X347244Y220799D02*
Y221799D01*
X348244D01*
Y220799D01*
X347244D01*
X355242D02*
Y226797D01*
X352243Y223798D01*
X356241D01*
X358241Y225798D02*
X359240Y226797D01*
X361240D01*
X362239Y225798D01*
Y221799D01*
X361240Y220799D01*
X359240D01*
X358241Y221799D01*
Y225798D01*
X364239D02*
X365238Y226797D01*
X367238D01*
X368237Y225798D01*
Y221799D01*
X367238Y220799D01*
X365238D01*
X364239Y221799D01*
Y225798D01*
X370237Y220799D02*
Y224798D01*
X371236D01*
X372236Y223798D01*
Y220799D01*
Y223798D01*
X373236Y224798D01*
X374236Y223798D01*
Y220799D01*
X376235D02*
Y224798D01*
X377235D01*
X378234Y223798D01*
Y220799D01*
Y223798D01*
X379234Y224798D01*
X380234Y223798D01*
Y220799D01*
X382233D02*
X384232Y222799D01*
Y224798D01*
X382233Y226797D01*
X224280Y205799D02*
X220282D01*
X224280Y209798D01*
Y210798D01*
X223281Y211797D01*
X221281D01*
X220282Y210798D01*
X230278Y211797D02*
X228279Y210798D01*
X226280Y208798D01*
Y206799D01*
X227279Y205799D01*
X229279D01*
X230278Y206799D01*
Y207799D01*
X229279Y208798D01*
X226280D01*
X232278Y206799D02*
X233278Y205799D01*
X235277D01*
X236277Y206799D01*
Y210798D01*
X235277Y211797D01*
X233278D01*
X232278Y210798D01*
Y209798D01*
X233278Y208798D01*
X236277D01*
X244274Y211797D02*
X248273D01*
X246273D01*
Y205799D01*
X251272D02*
X253271D01*
X254271Y206799D01*
Y208798D01*
X253271Y209798D01*
X251272D01*
X250272Y208798D01*
Y206799D01*
X251272Y205799D01*
X257270Y210798D02*
Y209798D01*
X256270D01*
X258269D01*
X257270D01*
Y206799D01*
X258269Y205799D01*
X262268Y209798D02*
X264267D01*
X265267Y208798D01*
Y205799D01*
X262268D01*
X261268Y206799D01*
X262268Y207799D01*
X265267D01*
X267267Y205799D02*
X269266D01*
X268266D01*
Y211797D01*
X267267D01*
X224280Y265799D02*
X220282D01*
X224280Y269798D01*
Y270798D01*
X223281Y271797D01*
X221281D01*
X220282Y270798D01*
X230278Y271797D02*
X226280D01*
Y268798D01*
X228279Y269798D01*
X229279D01*
X230278Y268798D01*
Y266799D01*
X229279Y265799D01*
X227279D01*
X226280Y266799D01*
X236277Y271797D02*
X234277Y270798D01*
X232278Y268798D01*
Y266799D01*
X233278Y265799D01*
X235277D01*
X236277Y266799D01*
Y267799D01*
X235277Y268798D01*
X232278D01*
X224280Y256797D02*
X220282D01*
Y253798D01*
X222281Y254798D01*
X223281D01*
X224280Y253798D01*
Y251799D01*
X223281Y250799D01*
X221281D01*
X220282Y251799D01*
X224280Y235799D02*
X220282D01*
X224280Y239798D01*
Y240798D01*
X223281Y241797D01*
X221281D01*
X220282Y240798D01*
X224280Y226797D02*
X222281Y225798D01*
X220282Y223798D01*
Y221799D01*
X221281Y220799D01*
X223281D01*
X224280Y221799D01*
Y222799D01*
X223281Y223798D01*
X220282D01*
D71*
X160694Y276299D02*
X895693D01*
X160694Y216299D02*
X895693D01*
X160694Y201299D02*
X895693D01*
Y291299D01*
X160694D02*
X895693D01*
X160694Y201299D02*
Y291299D01*
X798220Y201299D02*
Y291299D01*
X723640Y201299D02*
Y291299D01*
X664655Y201299D02*
Y291299D01*
X514700Y201299D02*
Y291299D01*
X441320Y201299D02*
Y291299D01*
X390732Y201299D02*
Y291299D01*
X275766Y201299D02*
Y291299D01*
X215782Y201299D02*
Y291299D01*
D210*
X-89400Y49353D02*
X-88400Y51353D01*
X-90400D02*
X-88400D01*
X-90400D02*
X-89400Y49353D01*
X-93400Y52853D02*
X-92400Y54853D01*
X-94400D02*
X-92400D01*
X-94400D02*
X-93400Y52853D01*
X56279Y115388D02*
X57279Y117388D01*
X55279D02*
X57279D01*
X55279D02*
X56279Y115388D01*
X-44600Y16100D02*
X-43600Y18100D01*
X-45600D02*
X-43600D01*
X-45600D02*
X-44600Y16100D01*
X-50400D02*
X-49400Y18100D01*
X-51400D02*
X-49400D01*
X-51400D02*
X-50400Y16100D01*
X-47500D02*
X-46500Y18100D01*
X-48500D02*
X-46500D01*
X-48500D02*
X-47500Y16100D01*
X-39300Y90753D02*
X-38300Y92753D01*
X-40300D02*
X-38300D01*
X-40300D02*
X-39300Y90753D01*
X-25900Y68700D02*
X-24900Y70700D01*
X-26900D02*
X-24900D01*
X-26900D02*
X-25900Y68700D01*
Y71650D02*
X-24900Y73650D01*
X-26900D02*
X-24900D01*
X-26900D02*
X-25900Y71650D01*
Y74600D02*
X-24900Y76600D01*
X-26900D02*
X-24900D01*
X-26900D02*
X-25900Y74600D01*
X35800Y146100D02*
X36800Y148100D01*
X34800D02*
X36800D01*
X34800D02*
X35800Y146100D01*
X900Y155100D02*
X1900Y157100D01*
X-100D02*
X1900D01*
X-100D02*
X900Y155100D01*
X42364Y92721D02*
X43364Y94721D01*
X41364D02*
X43364D01*
X41364D02*
X42364Y92721D01*
X-26600Y152200D02*
X-25600Y154200D01*
X-27600D02*
X-25600D01*
X-27600D02*
X-26600Y152200D01*
X67300Y174600D02*
X68300Y176600D01*
X66300D02*
X68300D01*
X66300D02*
X67300Y174600D01*
X-85668Y210000D02*
X-84668Y212000D01*
X-86668D02*
X-84668D01*
X-86668D02*
X-85668Y210000D01*
X-4440Y217413D02*
X-3440Y219413D01*
X-5440D02*
X-3440D01*
X-5440D02*
X-4440Y217413D01*
Y224893D02*
X-3440Y226893D01*
X-5440D02*
X-3440D01*
X-5440D02*
X-4440Y224893D01*
Y202913D02*
X-3440Y204913D01*
X-5440D02*
X-3440D01*
X-5440D02*
X-4440Y202913D01*
X-27000Y225600D02*
X-26000Y227600D01*
X-28000D02*
X-26000D01*
X-28000D02*
X-27000Y225600D01*
X-73700Y212600D02*
X-72700Y214600D01*
X-74700D02*
X-72700D01*
X-74700D02*
X-73700Y212600D01*
Y210000D02*
X-72700Y212000D01*
X-74700D02*
X-72700D01*
X-74700D02*
X-73700Y210000D01*
X26800Y110000D02*
X27800Y112000D01*
X25800D02*
X27800D01*
X25800D02*
X26800Y110000D01*
X1000Y74200D02*
X2000Y76200D01*
X0D02*
X2000D01*
X0D02*
X1000Y74200D01*
X53000Y160900D02*
X54000Y162900D01*
X52000D02*
X54000D01*
X52000D02*
X53000Y160900D01*
X-39200Y117253D02*
X-38200Y119253D01*
X-40200D02*
X-38200D01*
X-40200D02*
X-39200Y117253D01*
X-32500Y11800D02*
X-31500Y13800D01*
X-33500D02*
X-31500D01*
X-33500D02*
X-32500Y11800D01*
X-85668Y212700D02*
X-84668Y214700D01*
X-86668D02*
X-84668D01*
X-86668D02*
X-85668Y212700D01*
X11500Y87100D02*
X12500Y89100D01*
X10500D02*
X12500D01*
X10500D02*
X11500Y87100D01*
X-32600Y152200D02*
X-31600Y154200D01*
X-33600D02*
X-31600D01*
X-33600D02*
X-32600Y152200D01*
X-15600Y88253D02*
X-14600Y90253D01*
X-16600D02*
X-14600D01*
X-16600D02*
X-15600Y88253D01*
X-31040Y138847D02*
X-30040Y140847D01*
X-32040D02*
X-30040D01*
X-32040D02*
X-31040Y138847D01*
X-45500Y43800D02*
X-44500Y45800D01*
X-46500D02*
X-44500D01*
X-46500D02*
X-45500Y43800D01*
X-48200D02*
X-47200Y45800D01*
X-49200D02*
X-47200D01*
X-49200D02*
X-48200Y43800D01*
X-51000D02*
X-50000Y45800D01*
X-52000D02*
X-50000D01*
X-52000D02*
X-51000Y43800D01*
X-5500Y70600D02*
X-4500Y72600D01*
X-6500D02*
X-4500D01*
X-6500D02*
X-5500Y70600D01*
X-32019Y84700D02*
X-31019Y86700D01*
X-33019D02*
X-31019D01*
X-33019D02*
X-32019Y84700D01*
X30200Y146100D02*
X31200Y148100D01*
X29200D02*
X31200D01*
X29200D02*
X30200Y146100D01*
X26000Y172200D02*
X27000Y174200D01*
X25000D02*
X27000D01*
X25000D02*
X26000Y172200D01*
X78700Y51900D02*
X79700Y53900D01*
X77700D02*
X79700D01*
X77700D02*
X78700Y51900D01*
X84800D02*
X85800Y53900D01*
X83800D02*
X85800D01*
X83800D02*
X84800Y51900D01*
X67400Y59053D02*
X68400Y61053D01*
X66400D02*
X68400D01*
X66400D02*
X67400Y59053D01*
Y61853D02*
X68400Y63853D01*
X66400D02*
X68400D01*
X66400D02*
X67400Y61853D01*
X64581D02*
X65581Y63853D01*
X63581D02*
X65581D01*
X63581D02*
X64581Y61853D01*
Y59053D02*
X65581Y61053D01*
X63581D02*
X65581D01*
X63581D02*
X64581Y59053D01*
X-15069Y164693D02*
X-14069Y166693D01*
X-16069D02*
X-14069D01*
X-16069D02*
X-15069Y164693D01*
X-9243Y89153D02*
X-8242Y91153D01*
X-10243D02*
X-8242D01*
X-10243D02*
X-9243Y89153D01*
X43219Y135953D02*
X44219Y137953D01*
X42219D02*
X44219D01*
X42219D02*
X43219Y135953D01*
X-2900Y168300D02*
X-1900Y170300D01*
X-3900D02*
X-1900D01*
X-3900D02*
X-2900Y168300D01*
X743Y164700D02*
X1743Y166700D01*
X-257D02*
X1743D01*
X-257D02*
X743Y164700D01*
X-36300Y206353D02*
X-35300Y208353D01*
X-37300D02*
X-35300D01*
X-37300D02*
X-36300Y206353D01*
X26800Y106900D02*
X27800Y108900D01*
X25800D02*
X27800D01*
X25800D02*
X26800Y106900D01*
X-30500Y82500D02*
X-29500Y84500D01*
X-31500D02*
X-29500D01*
X-31500D02*
X-30500Y82500D01*
X-52900Y26100D02*
X-51900Y28100D01*
X-53900D02*
X-51900D01*
X-53900D02*
X-52900Y26100D01*
Y23200D02*
X-51900Y25200D01*
X-53900D02*
X-51900D01*
X-53900D02*
X-52900Y23200D01*
Y29000D02*
X-51900Y31000D01*
X-53900D02*
X-51900D01*
X-53900D02*
X-52900Y29000D01*
Y31900D02*
X-51900Y33900D01*
X-53900D02*
X-51900D01*
X-53900D02*
X-52900Y31900D01*
Y34800D02*
X-51900Y36800D01*
X-53900D02*
X-51900D01*
X-53900D02*
X-52900Y34800D01*
X-41700Y16100D02*
X-40700Y18100D01*
X-42700D02*
X-40700D01*
X-42700D02*
X-41700Y16100D01*
X-38800D02*
X-37800Y18100D01*
X-39800D02*
X-37800D01*
X-39800D02*
X-38800Y16100D01*
X26725Y133483D02*
X27725Y135483D01*
X25725D02*
X27725D01*
X25725D02*
X26725Y133483D01*
Y136147D02*
X27725Y138147D01*
X25725D02*
X27725D01*
X25725D02*
X26725Y136147D01*
X42889Y122619D02*
X43889Y124619D01*
X41889D02*
X43889D01*
X41889D02*
X42889Y122619D01*
X40004Y123643D02*
X41004Y125643D01*
X39004D02*
X41004D01*
X39004D02*
X40004Y123643D01*
X5169Y78561D02*
X6169Y80561D01*
X4169D02*
X6169D01*
X4169D02*
X5169Y78561D01*
X1400D02*
X2400Y80561D01*
X400D02*
X2400D01*
X400D02*
X1400Y78561D01*
X-23100Y75953D02*
X-22100Y77953D01*
X-24100D02*
X-22100D01*
X-24100D02*
X-23100Y75953D01*
X-25381Y120972D02*
X-24381Y122972D01*
X-26381D02*
X-24381D01*
X-26381D02*
X-25381Y120972D01*
X-23700Y137550D02*
X-22700Y139550D01*
X-24700D02*
X-22700D01*
X-24700D02*
X-23700Y137550D01*
X26800Y115000D02*
X27800Y117000D01*
X25800D02*
X27800D01*
X25800D02*
X26800Y115000D01*
Y118100D02*
X27800Y120100D01*
X25800D02*
X27800D01*
X25800D02*
X26800Y118100D01*
X-36078Y138637D02*
X-35078Y140637D01*
X-37078D02*
X-35078D01*
X-37078D02*
X-36078Y138637D01*
X-38600Y136900D02*
X-37600Y138900D01*
X-39600D02*
X-37600D01*
X-39600D02*
X-38600Y136900D01*
X-19100Y108800D02*
X-18100Y110800D01*
X-20100D02*
X-18100D01*
X-20100D02*
X-19100Y108800D01*
X-123451Y120751D02*
X-122451Y122751D01*
X-124451D02*
X-122451D01*
X-124451D02*
X-123451Y120751D01*
X-127000Y135811D02*
X-126000Y137811D01*
X-128000D02*
X-126000D01*
X-128000D02*
X-127000Y135811D01*
Y129800D02*
X-126000Y131800D01*
X-128000D02*
X-126000D01*
X-128000D02*
X-127000Y129800D01*
X-7425Y49125D02*
X-6425Y51125D01*
X-8425D02*
X-6425D01*
X-8425D02*
X-7425Y49125D01*
X-27400Y52500D02*
X-26400Y54500D01*
X-28400D02*
X-26400D01*
X-28400D02*
X-27400Y52500D01*
X-14900Y56300D02*
X-13900Y58300D01*
X-15900D02*
X-13900D01*
X-15900D02*
X-14900Y56300D01*
X-77000Y216600D02*
X-76000Y218600D01*
X-78000D02*
X-76000D01*
X-78000D02*
X-77000Y216600D01*
X44023Y157300D02*
X45024Y159300D01*
X43023D02*
X45024D01*
X43023D02*
X44023Y157300D01*
X-33400Y82500D02*
X-32400Y84500D01*
X-34400D02*
X-32400D01*
X-34400D02*
X-33400Y82500D01*
X84700Y64200D02*
X85700Y66200D01*
X83700D02*
X85700D01*
X83700D02*
X84700Y64200D01*
X36802Y123951D02*
X37802Y125951D01*
X35802D02*
X37802D01*
X35802D02*
X36802Y123951D01*
X45200Y120600D02*
X46200Y122600D01*
X44200D02*
X46200D01*
X44200D02*
X45200Y120600D01*
X61181Y104400D02*
X62181Y106400D01*
X60181D02*
X62181D01*
X60181D02*
X61181Y104400D01*
X63800Y76100D02*
X64800Y78100D01*
X62800D02*
X64800D01*
X62800D02*
X63800Y76100D01*
X60600Y114600D02*
X61600Y116600D01*
X59600D02*
X61600D01*
X59600D02*
X60600Y114600D01*
X67800Y76100D02*
X68800Y78100D01*
X66800D02*
X68800D01*
X66800D02*
X67800Y76100D01*
X42033Y109500D02*
X43033Y111500D01*
X41033D02*
X43033D01*
X41033D02*
X42033Y109500D01*
X39527Y106999D02*
X40527Y108999D01*
X38527D02*
X40527D01*
X38527D02*
X39527Y106999D01*
X21060Y74236D02*
X22060Y76236D01*
X20060D02*
X22060D01*
X20060D02*
X21060Y74236D01*
X21200Y77321D02*
X22200Y79321D01*
X20200D02*
X22200D01*
X20200D02*
X21200Y77321D01*
X8775Y89934D02*
X9775Y91935D01*
X7775D02*
X9775D01*
X7775D02*
X8775Y89934D01*
X-2109Y87685D02*
X-1109Y89685D01*
X-3109D02*
X-1109D01*
X-3109D02*
X-2109Y87685D01*
X-5368Y88934D02*
X-4368Y90934D01*
X-6368D02*
X-4368D01*
X-6368D02*
X-5368Y88934D01*
X-26259Y78393D02*
X-25260Y80393D01*
X-27259D02*
X-25260D01*
X-27259D02*
X-26259Y78393D01*
X-39700Y127095D02*
X-38700Y129095D01*
X-40700D02*
X-38700D01*
X-40700D02*
X-39700Y127095D01*
X-43800Y142947D02*
X-42800Y144947D01*
X-44800D02*
X-42800D01*
X-44800D02*
X-43800Y142947D01*
Y151047D02*
X-42800Y153047D01*
X-44800D02*
X-42800D01*
X-44800D02*
X-43800Y151047D01*
X15300Y87100D02*
X16300Y89100D01*
X14300D02*
X16300D01*
X14300D02*
X15300Y87100D01*
X-36300Y216353D02*
X-35300Y218353D01*
X-37300D02*
X-35300D01*
X-37300D02*
X-36300Y216353D01*
X39400Y137653D02*
X40400Y139653D01*
X38400D02*
X40400D01*
X38400D02*
X39400Y137653D01*
X-45548Y90753D02*
X-44548Y92753D01*
X-46548D02*
X-44548D01*
X-46548D02*
X-45548Y90753D01*
X-97300Y102253D02*
X-96300Y104253D01*
X-98300D02*
X-96300D01*
X-98300D02*
X-97300Y102253D01*
X-43800Y147097D02*
X-42800Y149097D01*
X-44800D02*
X-42800D01*
X-44800D02*
X-43800Y147097D01*
X-44900Y102253D02*
X-43900Y104253D01*
X-45900D02*
X-43900D01*
X-45900D02*
X-44900Y102253D01*
X-61040Y187613D02*
X-60040Y189613D01*
X-62040D02*
X-60040D01*
X-62040D02*
X-61040Y187613D01*
X-75300Y225253D02*
X-74300Y227253D01*
X-76300D02*
X-74300D01*
X-76300D02*
X-75300Y225253D01*
X-56800Y216353D02*
X-55800Y218353D01*
X-57800D02*
X-55800D01*
X-57800D02*
X-56800Y216353D01*
X67300Y180353D02*
X68300Y182353D01*
X66300D02*
X68300D01*
X66300D02*
X67300Y180353D01*
X7488Y156265D02*
X8488Y158265D01*
X6488D02*
X8488D01*
X6488D02*
X7488Y156265D01*
X4508Y154859D02*
X5508Y156859D01*
X3508D02*
X5508D01*
X3508D02*
X4508Y154859D01*
X11400Y156053D02*
X12400Y158053D01*
X10400D02*
X12400D01*
X10400D02*
X11400Y156053D01*
X14167Y153953D02*
X15167Y155953D01*
X13167D02*
X15167D01*
X13167D02*
X14167Y153953D01*
X-19545Y135750D02*
X-18545Y137750D01*
X-20546D02*
X-18545D01*
X-20546D02*
X-19545Y135750D01*
X-2752Y154352D02*
X-1752Y156352D01*
X-3752D02*
X-1752D01*
X-3752D02*
X-2752Y154352D01*
X-123451Y117053D02*
X-122451Y119053D01*
X-124451D02*
X-122451D01*
X-124451D02*
X-123451Y117053D01*
X-7530Y52530D02*
X-6530Y54530D01*
X-8530D02*
X-6530D01*
X-8530D02*
X-7530Y52530D01*
X-27500Y23698D02*
X-26500Y25698D01*
X-28500D02*
X-26500D01*
X-28500D02*
X-27500Y23698D01*
X47113Y87287D02*
X48113Y89287D01*
X46113D02*
X48113D01*
X46113D02*
X47113Y87287D01*
X45485Y96600D02*
X46485Y98600D01*
X44485D02*
X46485D01*
X44485D02*
X45485Y96600D01*
X43600Y100900D02*
X44600Y102900D01*
X42601D02*
X44600D01*
X42601D02*
X43600Y100900D01*
X43961Y81604D02*
X44961Y83605D01*
X42961D02*
X44961D01*
X42961D02*
X43961Y81604D01*
X49694D02*
X50694Y83605D01*
X48694D02*
X50694D01*
X48694D02*
X49694Y81604D01*
X73658Y124500D02*
X74658Y126500D01*
X72658D02*
X74658D01*
X72658D02*
X73658Y124500D01*
X41100Y74000D02*
X42100Y76000D01*
X40100D02*
X42100D01*
X40100D02*
X41100Y74000D01*
X43824Y168550D02*
X44824Y170550D01*
X42823D02*
X44824D01*
X42823D02*
X43824Y168550D01*
X45488Y171727D02*
X46488Y173727D01*
X44488D02*
X46488D01*
X44488D02*
X45488Y171727D01*
X63000Y149300D02*
X64000Y151300D01*
X62000D02*
X64000D01*
X62000D02*
X63000Y149300D01*
X-46482Y198153D02*
X-45482Y200153D01*
X-47482D02*
X-45482D01*
X-47482D02*
X-46482Y198153D01*
X-31500Y195093D02*
X-30500Y197093D01*
X-32500D02*
X-30500D01*
X-32500D02*
X-31500Y195093D01*
X65851Y71200D02*
X66851Y73200D01*
X64851D02*
X66851D01*
X64851D02*
X65851Y71200D01*
X71851D02*
X72851Y73200D01*
X70851D02*
X72851D01*
X70851D02*
X71851Y71200D01*
X-16412Y135693D02*
X-15412Y137693D01*
X-17412D02*
X-15412D01*
X-17412D02*
X-16412Y135693D01*
X-52999Y150823D02*
X-51999Y152823D01*
X-53999D02*
X-51999D01*
X-53999D02*
X-52999Y150823D01*
X-75500Y156135D02*
X-74500Y158135D01*
X-76500D02*
X-74500D01*
X-76500D02*
X-75500Y156135D01*
X-75600Y142760D02*
X-74600Y144760D01*
X-76600D02*
X-74600D01*
X-76600D02*
X-75600Y142760D01*
X-56800Y160500D02*
X-55800Y162500D01*
X-57800D02*
X-55800D01*
X-57800D02*
X-56800Y160500D01*
X-54050Y160400D02*
X-53050Y162400D01*
X-55050D02*
X-53050D01*
X-55050D02*
X-54050Y160400D01*
X-44700Y161000D02*
X-43700Y163000D01*
X-45700D02*
X-43700D01*
X-45700D02*
X-44700Y161000D01*
X-54050Y156900D02*
X-53050Y158900D01*
X-55050D02*
X-53050D01*
X-55050D02*
X-54050Y156900D01*
X-50200Y144500D02*
X-49200Y146500D01*
X-51200D02*
X-49200D01*
X-51200D02*
X-50200Y144500D01*
X-52999Y142260D02*
X-51999Y144260D01*
X-53999D02*
X-51999D01*
X-53999D02*
X-52999Y142260D01*
X-52800Y137900D02*
X-51800Y139900D01*
X-53800D02*
X-51800D01*
X-53800D02*
X-52800Y137900D01*
X-62406Y160553D02*
X-61406Y162553D01*
X-63406D02*
X-61406D01*
X-63406D02*
X-62406Y160553D01*
X-5853Y129453D02*
X-4853Y131453D01*
X-6853D02*
X-4853D01*
X-6853D02*
X-5853Y129453D01*
Y124153D02*
X-4853Y126153D01*
X-6853D02*
X-4853D01*
X-6853D02*
X-5853Y124153D01*
X-24600Y129595D02*
X-23600Y131595D01*
X-25600D02*
X-23600D01*
X-25600D02*
X-24600Y129595D01*
X17000Y133100D02*
X18000Y135100D01*
X16000D02*
X18000D01*
X16000D02*
X17000Y133100D01*
X20600Y136100D02*
X21600Y138100D01*
X19600D02*
X21600D01*
X19600D02*
X20600Y136100D01*
X18300Y139300D02*
X19300Y141300D01*
X17300D02*
X19300D01*
X17300D02*
X18300Y139300D01*
X14300D02*
X15300Y141300D01*
X13300D02*
X15300D01*
X13300D02*
X14300Y139300D01*
X-13200Y139700D02*
X-12200Y141700D01*
X-14200D02*
X-12200D01*
X-14200D02*
X-13200Y139700D01*
X-26600Y155600D02*
X-25600Y157600D01*
X-27600D02*
X-25600D01*
X-27600D02*
X-26600Y155600D01*
X7500Y139300D02*
X8500Y141300D01*
X6500D02*
X8500D01*
X6500D02*
X7500Y139300D01*
X-65300Y172200D02*
X-64300Y174200D01*
X-66300D02*
X-64300D01*
X-66300D02*
X-65300Y172200D01*
X-42200Y187600D02*
X-41200Y189600D01*
X-43200D02*
X-41200D01*
X-43200D02*
X-42200Y187600D01*
X-51700D02*
X-50700Y189600D01*
X-52700D02*
X-50700D01*
X-52700D02*
X-51700Y187600D01*
X17461Y155772D02*
X18462Y157772D01*
X16462D02*
X18462D01*
X16462D02*
X17461Y155772D01*
X-36300Y211353D02*
X-35300Y213353D01*
X-37300D02*
X-35300D01*
X-37300D02*
X-36300Y211353D01*
X-93400Y161100D02*
X-92400Y163100D01*
X-94400D02*
X-92400D01*
X-94400D02*
X-93400Y161100D01*
X-36300Y221353D02*
X-35300Y223353D01*
X-37300D02*
X-35300D01*
X-37300D02*
X-36300Y221353D01*
X-97300Y161100D02*
X-96300Y163100D01*
X-98300D02*
X-96300D01*
X-98300D02*
X-97300Y161100D01*
X34800Y175400D02*
X35800Y177400D01*
X33800D02*
X35800D01*
X33800D02*
X34800Y175400D01*
X26000Y155772D02*
X27000Y157772D01*
X25000D02*
X27000D01*
X25000D02*
X26000Y155772D01*
X22254Y149400D02*
X23254Y151400D01*
X21254D02*
X23254D01*
X21254D02*
X22254Y149400D01*
X20762Y155772D02*
X21762Y157772D01*
X19762D02*
X21762D01*
X19762D02*
X20762Y155772D01*
X-22282Y124049D02*
X-21282Y126049D01*
X-23282D02*
X-21282D01*
X-23282D02*
X-22282Y124049D01*
X-15000Y156800D02*
X-14000Y158800D01*
X-16000D02*
X-14000D01*
X-16000D02*
X-15000Y156800D01*
X-85962Y98234D02*
X-84962Y100234D01*
X-86962D02*
X-84962D01*
X-86962D02*
X-85962Y98234D01*
X47440Y216352D02*
X48440Y218352D01*
X46440D02*
X48440D01*
X46440D02*
X47440Y216352D01*
X56500Y217944D02*
X57500Y219944D01*
X55500D02*
X57500D01*
X55500D02*
X56500Y217944D01*
X60310Y199950D02*
X61310Y201950D01*
X59310D02*
X61310D01*
X59310D02*
X60310Y199950D01*
X69100Y210500D02*
X70100Y212500D01*
X68100D02*
X70100D01*
X68100D02*
X69100Y210500D01*
X65213Y199950D02*
X66213Y201950D01*
X64213D02*
X66213D01*
X64213D02*
X65213Y199950D01*
X56500Y225800D02*
X57500Y227800D01*
X55500D02*
X57500D01*
X55500D02*
X56500Y225800D01*
X43233Y198200D02*
X44233Y200200D01*
X42233D02*
X44233D01*
X42233D02*
X43233Y198200D01*
X-68800Y175300D02*
X-67800Y177300D01*
X-69800D02*
X-67800D01*
X-69800D02*
X-68800Y175300D01*
X-89400Y161100D02*
X-88400Y163100D01*
X-90400D02*
X-88400D01*
X-90400D02*
X-89400Y161100D01*
X17500Y23698D02*
X18500Y25698D01*
X16500D02*
X18500D01*
X16500D02*
X17500Y23698D01*
X-32500Y52500D02*
X-31500Y54500D01*
X-33500D02*
X-31500D01*
X-33500D02*
X-32500Y52500D01*
X600Y34900D02*
X1600Y36900D01*
X-400D02*
X1600D01*
X-400D02*
X600Y34900D01*
X33546Y23264D02*
X34546Y25264D01*
X32546D02*
X34546D01*
X32546D02*
X33546Y23264D01*
X30646D02*
X31646Y25264D01*
X29646D02*
X31646D01*
X29646D02*
X30646Y23264D01*
X27746D02*
X28746Y25264D01*
X26746D02*
X28746D01*
X26746D02*
X27746Y23264D01*
X-7500Y23698D02*
X-6500Y25698D01*
X-8500D02*
X-6500D01*
X-8500D02*
X-7500Y23698D01*
X-12500D02*
X-11500Y25698D01*
X-13500D02*
X-11500D01*
X-13500D02*
X-12500Y23698D01*
Y34900D02*
X-11500Y36900D01*
X-13500D02*
X-11500D01*
X-13500D02*
X-12500Y34900D01*
Y103000D02*
X-11500Y105000D01*
X-13500D02*
X-11500D01*
X-13500D02*
X-12500Y103000D01*
X47500Y37800D02*
X48500Y39800D01*
X46500D02*
X48500D01*
X46500D02*
X47500Y37800D01*
Y34900D02*
X48500Y36900D01*
X46500D02*
X48500D01*
X46500D02*
X47500Y34900D01*
Y32000D02*
X48500Y34000D01*
X46500D02*
X48500D01*
X46500D02*
X47500Y32000D01*
Y26263D02*
X48500Y28264D01*
X46500D02*
X48500D01*
X46500D02*
X47500Y26263D01*
Y29100D02*
X48500Y31100D01*
X46500D02*
X48500D01*
X46500D02*
X47500Y29100D01*
X-20700Y95553D02*
X-19700Y97553D01*
X-21700D02*
X-19700D01*
X-21700D02*
X-20700Y95553D01*
X-25558Y87053D02*
X-24558Y89053D01*
X-26558D02*
X-24558D01*
X-26558D02*
X-25558Y87053D01*
X-34500Y100149D02*
X-33500Y102149D01*
X-35500D02*
X-33500D01*
X-35500D02*
X-34500Y100149D01*
X-23277Y89503D02*
X-22277Y91503D01*
X-24277D02*
X-22277D01*
X-24277D02*
X-23277Y89503D01*
X-24518Y98153D02*
X-23518Y100153D01*
X-25518D02*
X-23518D01*
X-25518D02*
X-24518Y98153D01*
X-12460Y210407D02*
X-11460Y212407D01*
X-13460D02*
X-11460D01*
X-13460D02*
X-12460Y210407D01*
X2900Y214647D02*
X3900Y216647D01*
X1900D02*
X3900D01*
X1900D02*
X2900Y214647D01*
X42471Y95841D02*
X43471Y97841D01*
X41471D02*
X43471D01*
X41471D02*
X42471Y95841D01*
X59709Y161115D02*
X60709Y163115D01*
X58709D02*
X60709D01*
X58709D02*
X59709Y161115D01*
X62300D02*
X63300Y163115D01*
X61300D02*
X63300D01*
X61300D02*
X62300Y161115D01*
X66500Y168617D02*
X67500Y170617D01*
X65500D02*
X67500D01*
X65500D02*
X66500Y168617D01*
X52400Y131032D02*
X53400Y133032D01*
X51400D02*
X53400D01*
X51400D02*
X52400Y131032D01*
X72300Y153204D02*
X73300Y155204D01*
X71300D02*
X73300D01*
X71300D02*
X72300Y153204D01*
X52450Y149300D02*
X53450Y151300D01*
X51450D02*
X53450D01*
X51450D02*
X52450Y149300D01*
X58600Y149301D02*
X59600Y151301D01*
X57600D02*
X59600D01*
X57600D02*
X58600Y149301D01*
X-75500Y137947D02*
X-74500Y139947D01*
X-76500D02*
X-74500D01*
X-76500D02*
X-75500Y137947D01*
X-67847Y142760D02*
X-66847Y144760D01*
X-68847D02*
X-66847D01*
X-68847D02*
X-67847Y142760D01*
X-65953Y137947D02*
X-64953Y139947D01*
X-66953D02*
X-64953D01*
X-66953D02*
X-65953Y137947D01*
X-70726Y137900D02*
X-69726Y139900D01*
X-71726D02*
X-69726D01*
X-71726D02*
X-70726Y137900D01*
X2500Y23698D02*
X3500Y25698D01*
X1500D02*
X3500D01*
X1500D02*
X2500Y23698D01*
X-22500Y16000D02*
X-21500Y18000D01*
X-23500D02*
X-21500D01*
X-23500D02*
X-22500Y16000D01*
X-17500D02*
X-16500Y18000D01*
X-18500D02*
X-16500D01*
X-18500D02*
X-17500Y16000D01*
X13056Y96588D02*
X14056Y98588D01*
X12056D02*
X14056D01*
X12056D02*
X13056Y96588D01*
X-2109Y93000D02*
X-1109Y95000D01*
X-3109D02*
X-1109D01*
X-3109D02*
X-2109Y93000D01*
X6050D02*
X7050Y95000D01*
X5050D02*
X7050D01*
X5050D02*
X6050Y93000D01*
X53056Y81604D02*
X54056Y83605D01*
X52056D02*
X54056D01*
X52056D02*
X53056Y81604D01*
X53000Y50000D02*
X54000Y52000D01*
X52000D02*
X54000D01*
X52000D02*
X53000Y50000D01*
X49713Y59600D02*
X50713Y61600D01*
X48713D02*
X50713D01*
X48713D02*
X49713Y59600D01*
X56200Y54000D02*
X57200Y56000D01*
X55200D02*
X57200D01*
X55200D02*
X56200Y54000D01*
X53019Y56900D02*
X54019Y58900D01*
X52019D02*
X54019D01*
X52019D02*
X53019Y56900D01*
X43980Y62231D02*
X44980Y64231D01*
X42980D02*
X44980D01*
X42980D02*
X43980Y62231D01*
X7400Y73900D02*
X8400Y75900D01*
X6400D02*
X8400D01*
X6400D02*
X7400Y73900D01*
Y70002D02*
X8400Y72002D01*
X6400D02*
X8400D01*
X6400D02*
X7400Y70002D01*
X21060D02*
X22060Y72002D01*
X20060D02*
X22060D01*
X20060D02*
X21060Y70002D01*
X-57400Y92227D02*
X-56400Y94227D01*
X-58400D02*
X-56400D01*
X-58400D02*
X-57400Y92227D01*
X-39296Y133791D02*
X-38296Y135791D01*
X-40296D02*
X-38296D01*
X-40296D02*
X-39296Y133791D01*
X-42500Y131524D02*
X-41500Y133524D01*
X-43500D02*
X-41500D01*
X-43500D02*
X-42500Y131524D01*
X-55600Y126700D02*
X-54600Y128700D01*
X-56600D02*
X-54600D01*
X-56600D02*
X-55600Y126700D01*
X-52900Y121166D02*
X-51900Y123166D01*
X-53900D02*
X-51900D01*
X-53900D02*
X-52900Y121166D01*
X-55600Y118300D02*
X-54600Y120300D01*
X-56600D02*
X-54600D01*
X-56600D02*
X-55600Y118300D01*
X-22227Y115962D02*
X-21227Y117962D01*
X-23227D02*
X-21227D01*
X-23227D02*
X-22227Y115962D01*
X5200Y118300D02*
X6200Y120300D01*
X4200D02*
X6200D01*
X4200D02*
X5200Y118300D01*
X17174Y114126D02*
X18174Y116126D01*
X16174D02*
X18174D01*
X16174D02*
X17174Y114126D01*
X11710Y99390D02*
X12710Y101390D01*
X10710D02*
X12710D01*
X10710D02*
X11710Y99390D01*
X22500Y43400D02*
X23500Y45400D01*
X21500D02*
X23500D01*
X21500D02*
X22500Y43400D01*
X25400D02*
X26400Y45400D01*
X24400D02*
X26400D01*
X24400D02*
X25400Y43400D01*
X28200D02*
X29200Y45400D01*
X27200D02*
X29200D01*
X27200D02*
X28200Y43400D01*
X30900D02*
X31900Y45400D01*
X29900D02*
X31900D01*
X29900D02*
X30900Y43400D01*
X33600D02*
X34600Y45400D01*
X32600D02*
X34600D01*
X32600D02*
X33600Y43400D01*
X1200Y107200D02*
X2200Y109200D01*
X200D02*
X2200D01*
X200D02*
X1200Y107200D01*
X25000Y88600D02*
X26000Y90600D01*
X24000D02*
X26000D01*
X24000D02*
X25000Y88600D01*
X28100Y78600D02*
X29100Y80600D01*
X27100D02*
X29100D01*
X27100D02*
X28100Y78600D01*
X14800Y49100D02*
X15800Y51100D01*
X13800D02*
X15800D01*
X13800D02*
X14800Y49100D01*
X19500Y50700D02*
X20500Y52700D01*
X18500D02*
X20500D01*
X18500D02*
X19500Y50700D01*
X34000Y86400D02*
X35000Y88400D01*
X33000D02*
X35000D01*
X33000D02*
X34000Y86400D01*
X26800Y103800D02*
X27800Y105800D01*
X25800D02*
X27800D01*
X25800D02*
X26800Y103800D01*
X34100Y78600D02*
X35100Y80600D01*
X33100D02*
X35100D01*
X33100D02*
X34100Y78600D01*
X40333Y89540D02*
X41333Y91540D01*
X39333D02*
X41333D01*
X39333D02*
X40333Y89540D01*
X38664Y86400D02*
X39664Y88400D01*
X37664D02*
X39664D01*
X37664D02*
X38664Y86400D01*
X-45600Y76400D02*
X-44600Y78400D01*
X-46600D02*
X-44600D01*
X-46600D02*
X-45600Y76400D01*
X-1000Y254906D02*
X0Y255406D01*
X1000Y254906D01*
X500Y255906D02*
X1000Y254906D01*
X500Y255906D02*
X1000Y256906D01*
X0Y256406D02*
X1000Y256906D01*
X-1000D02*
X0Y256406D01*
X-1000Y256906D02*
X-500Y255906D01*
X-1000Y254906D02*
X-500Y255906D01*
X-1000Y-1000D02*
X0Y-500D01*
X1000Y-1000D01*
X500Y0D02*
X1000Y-1000D01*
X500Y0D02*
X1000Y1000D01*
X0Y500D02*
X1000Y1000D01*
X-1000D02*
X0Y500D01*
X-1000Y1000D02*
X-500Y0D01*
X-1000Y-1000D02*
X-500Y0D01*
X109810Y62976D02*
X110810Y63476D01*
X111810Y62976D01*
X111310Y63976D02*
X111810Y62976D01*
X111310Y63976D02*
X111810Y64976D01*
X110810Y64476D02*
X111810Y64976D01*
X109810D02*
X110810Y64476D01*
X109810Y64976D02*
X110310Y63976D01*
X109810Y62976D02*
X110310Y63976D01*
X-111810Y190929D02*
X-110810Y191429D01*
X-109810Y190929D01*
X-110310Y191929D02*
X-109810Y190929D01*
X-110310Y191929D02*
X-109810Y192929D01*
X-110810Y192429D02*
X-109810Y192929D01*
X-111810D02*
X-110810Y192429D01*
X-111810Y192929D02*
X-111310Y191929D01*
X-111810Y190929D02*
X-111310Y191929D01*
X109810Y190929D02*
X110810Y191429D01*
X111810Y190929D01*
X111310Y191929D02*
X111810Y190929D01*
X111310Y191929D02*
X111810Y192929D01*
X110810Y192429D02*
X111810Y192929D01*
X109810D02*
X110810Y192429D01*
X109810Y192929D02*
X110310Y191929D01*
X109810Y190929D02*
X110310Y191929D01*
X-110900Y107553D02*
X-110400Y107053D01*
X-111400Y107553D02*
X-110900D01*
X-111400D02*
X-110900Y108053D01*
X-111400Y108553D02*
X-110900Y108053D01*
X-111400Y108553D02*
X-110900D01*
X-110400Y109053D01*
X-109900Y108553D01*
X-109400D01*
X-109900Y108053D02*
X-109400Y108553D01*
X-109900Y108053D02*
X-109400Y107553D01*
X-109900D02*
X-109400D01*
X-110400Y107053D02*
X-109900Y107553D01*
X-110900Y117553D02*
X-110400Y117053D01*
X-111400Y117553D02*
X-110900D01*
X-111400D02*
X-110900Y118053D01*
X-111400Y118553D02*
X-110900Y118053D01*
X-111400Y118553D02*
X-110900D01*
X-110400Y119053D01*
X-109900Y118553D01*
X-109400D01*
X-109900Y118053D02*
X-109400Y118553D01*
X-109900Y118053D02*
X-109400Y117553D01*
X-109900D02*
X-109400D01*
X-110400Y117053D02*
X-109900Y117553D01*
X-110900Y127553D02*
X-110400Y127053D01*
X-111400Y127553D02*
X-110900D01*
X-111400D02*
X-110900Y128053D01*
X-111400Y128553D02*
X-110900Y128053D01*
X-111400Y128553D02*
X-110900D01*
X-110400Y129053D01*
X-109900Y128553D01*
X-109400D01*
X-109900Y128053D02*
X-109400Y128553D01*
X-109900Y128053D02*
X-109400Y127553D01*
X-109900D02*
X-109400D01*
X-110400Y127053D02*
X-109900Y127553D01*
X-110900Y137553D02*
X-110400Y137053D01*
X-111400Y137553D02*
X-110900D01*
X-111400D02*
X-110900Y138053D01*
X-111400Y138553D02*
X-110900Y138053D01*
X-111400Y138553D02*
X-110900D01*
X-110400Y139053D01*
X-109900Y138553D01*
X-109400D01*
X-109900Y138053D02*
X-109400Y138553D01*
X-109900Y138053D02*
X-109400Y137553D01*
X-109900D02*
X-109400D01*
X-110400Y137053D02*
X-109900Y137553D01*
X-110900Y147553D02*
X-110400Y147053D01*
X-111400Y147553D02*
X-110900D01*
X-111400D02*
X-110900Y148053D01*
X-111400Y148553D02*
X-110900Y148053D01*
X-111400Y148553D02*
X-110900D01*
X-110400Y149053D01*
X-109900Y148553D01*
X-109400D01*
X-109900Y148053D02*
X-109400Y148553D01*
X-109900Y148053D02*
X-109400Y147553D01*
X-109900D02*
X-109400D01*
X-110400Y147053D02*
X-109900Y147553D01*
X-111810Y62976D02*
X-110810Y63476D01*
X-109810Y62976D01*
X-110310Y63976D02*
X-109810Y62976D01*
X-110310Y63976D02*
X-109810Y64976D01*
X-110810Y64476D02*
X-109810Y64976D01*
X-111810D02*
X-110810Y64476D01*
X-111810Y64976D02*
X-111310Y63976D01*
X-111810Y62976D02*
X-111310Y63976D01*
X-42201Y30426D02*
X-40201D01*
Y32426D01*
X-42201D02*
X-40201D01*
X-42201Y30426D02*
Y32426D01*
X35201Y30426D02*
X37201D01*
Y32426D01*
X35201D02*
X37201D01*
X35201Y30426D02*
Y32426D01*
D211*
X802720Y287997D02*
X807518D01*
X805119D01*
Y280799D01*
X813516D02*
X811117D01*
X809917Y281999D01*
Y284398D01*
X811117Y285598D01*
X813516D01*
X814716Y284398D01*
Y283199D01*
X809917D01*
X817115Y280799D02*
Y285598D01*
X818315D01*
X819514Y284398D01*
Y280799D01*
Y284398D01*
X820714Y285598D01*
X821914Y284398D01*
Y280799D01*
X824313Y278400D02*
Y285598D01*
X827912D01*
X829111Y284398D01*
Y281999D01*
X827912Y280799D01*
X824313D01*
X831510D02*
X833910D01*
X832710D01*
Y287997D01*
X831510D01*
X838708Y285598D02*
X841107D01*
X842307Y284398D01*
Y280799D01*
X838708D01*
X837508Y281999D01*
X838708Y283199D01*
X842307D01*
X845906Y286797D02*
Y285598D01*
X844706D01*
X847105D01*
X845906D01*
Y281999D01*
X847105Y280799D01*
X854303D02*
X851904D01*
X850704Y281999D01*
Y284398D01*
X851904Y285598D01*
X854303D01*
X855503Y284398D01*
Y283199D01*
X850704D01*
X728140Y280799D02*
Y287997D01*
X731739D01*
X732938Y286797D01*
Y284398D01*
X731739Y283199D01*
X728140D01*
X736537Y285598D02*
X738936D01*
X740136Y284398D01*
Y280799D01*
X736537D01*
X735338Y281999D01*
X736537Y283199D01*
X740136D01*
X747334Y287997D02*
Y280799D01*
X743735D01*
X742535Y281999D01*
Y284398D01*
X743735Y285598D01*
X747334D01*
X761729Y286797D02*
X760529Y287997D01*
X758130D01*
X756931Y286797D01*
Y285598D01*
X758130Y284398D01*
X760529D01*
X761729Y283199D01*
Y281999D01*
X760529Y280799D01*
X758130D01*
X756931Y281999D01*
X764128Y287997D02*
Y280799D01*
Y284398D01*
X765328Y285598D01*
X767727D01*
X768927Y284398D01*
Y280799D01*
X772526Y285598D02*
X774925D01*
X776124Y284398D01*
Y280799D01*
X772526D01*
X771326Y281999D01*
X772526Y283199D01*
X776124D01*
X778524Y278400D02*
Y285598D01*
X782122D01*
X783322Y284398D01*
Y281999D01*
X782122Y280799D01*
X778524D01*
X789320D02*
X786921D01*
X785721Y281999D01*
Y284398D01*
X786921Y285598D01*
X789320D01*
X790520Y284398D01*
Y283199D01*
X785721D01*
X669155Y287997D02*
Y283199D01*
X671554Y280799D01*
X673953Y283199D01*
Y287997D01*
X676353Y280799D02*
X678752D01*
X677552D01*
Y285598D01*
X676353D01*
X683550D02*
X685950D01*
X687149Y284398D01*
Y280799D01*
X683550D01*
X682351Y281999D01*
X683550Y283199D01*
X687149D01*
X689548Y280799D02*
X694347Y285598D01*
X696746Y280799D02*
Y287997D01*
X700345D01*
X701545Y286797D01*
Y284398D01*
X700345Y283199D01*
X696746D01*
X705143Y285598D02*
X707543D01*
X708742Y284398D01*
Y280799D01*
X705143D01*
X703944Y281999D01*
X705143Y283199D01*
X708742D01*
X715940Y287997D02*
Y280799D01*
X712341D01*
X711141Y281999D01*
Y284398D01*
X712341Y285598D01*
X715940D01*
X519200Y287997D02*
Y280799D01*
X522799D01*
X523998Y281999D01*
Y286797D01*
X522799Y287997D01*
X519200D01*
X526398Y285598D02*
Y280799D01*
Y283199D01*
X527597Y284398D01*
X528797Y285598D01*
X529996D01*
X533595Y280799D02*
X535995D01*
X534795D01*
Y285598D01*
X533595D01*
X539593Y280799D02*
X541993D01*
X540793D01*
Y287997D01*
X539593D01*
X545591Y280799D02*
X547991D01*
X546791D01*
Y287997D01*
X545591D01*
X558787D02*
Y280799D01*
X563586D01*
X567184Y285598D02*
X569584D01*
X570783Y284398D01*
Y280799D01*
X567184D01*
X565985Y281999D01*
X567184Y283199D01*
X570783D01*
X573182Y285598D02*
Y281999D01*
X574382Y280799D01*
X577981D01*
Y279600D01*
X576781Y278400D01*
X575582D01*
X577981Y280799D02*
Y285598D01*
X583979Y280799D02*
X581580D01*
X580380Y281999D01*
Y284398D01*
X581580Y285598D01*
X583979D01*
X585179Y284398D01*
Y283199D01*
X580380D01*
X587578Y285598D02*
Y280799D01*
Y283199D01*
X588777Y284398D01*
X589977Y285598D01*
X591177D01*
X601973Y280799D02*
Y287997D01*
X605572D01*
X606772Y286797D01*
Y284398D01*
X605572Y283199D01*
X601973D01*
X610370Y285598D02*
X612770D01*
X613969Y284398D01*
Y280799D01*
X610370D01*
X609171Y281999D01*
X610370Y283199D01*
X613969D01*
X616368Y280799D02*
X618768D01*
X617568D01*
Y285598D01*
X616368D01*
X622367D02*
Y280799D01*
Y283199D01*
X623566Y284398D01*
X624766Y285598D01*
X625965D01*
X445820Y287997D02*
Y280799D01*
Y284398D01*
X450618D01*
Y287997D01*
Y280799D01*
X454217D02*
X456616D01*
X457816Y281999D01*
Y284398D01*
X456616Y285598D01*
X454217D01*
X453018Y284398D01*
Y281999D01*
X454217Y280799D01*
X460215D02*
X462614D01*
X461415D01*
Y287997D01*
X460215D01*
X469812Y280799D02*
X467413D01*
X466213Y281999D01*
Y284398D01*
X467413Y285598D01*
X469812D01*
X471012Y284398D01*
Y283199D01*
X466213D01*
X480609Y287997D02*
X485407D01*
X483008D01*
Y280799D01*
X487806Y285598D02*
Y281999D01*
X489006Y280799D01*
X492605D01*
Y279600D01*
X491405Y278400D01*
X490205D01*
X492605Y280799D02*
Y285598D01*
X495004Y278400D02*
Y285598D01*
X498603D01*
X499802Y284398D01*
Y281999D01*
X498603Y280799D01*
X495004D01*
X505800D02*
X503401D01*
X502202Y281999D01*
Y284398D01*
X503401Y285598D01*
X505800D01*
X507000Y284398D01*
Y283199D01*
X502202D01*
X395232Y280799D02*
Y287997D01*
X398831D01*
X400031Y286797D01*
Y284398D01*
X398831Y283199D01*
X395232D01*
X402430Y280799D02*
X404829D01*
X403629D01*
Y287997D01*
X402430D01*
X409628Y285598D02*
X412027D01*
X413226Y284398D01*
Y280799D01*
X409628D01*
X408428Y281999D01*
X409628Y283199D01*
X413226D01*
X416825Y286797D02*
Y285598D01*
X415626D01*
X418025D01*
X416825D01*
Y281999D01*
X418025Y280799D01*
X425222D02*
X422823D01*
X421624Y281999D01*
Y284398D01*
X422823Y285598D01*
X425222D01*
X426422Y284398D01*
Y283199D01*
X421624D01*
X433620Y287997D02*
Y280799D01*
X430021D01*
X428821Y281999D01*
Y284398D01*
X430021Y285598D01*
X433620D01*
X280266Y287997D02*
Y280799D01*
Y284398D01*
X285064D01*
Y287997D01*
Y280799D01*
X288663D02*
X291062D01*
X292262Y281999D01*
Y284398D01*
X291062Y285598D01*
X288663D01*
X287463Y284398D01*
Y281999D01*
X288663Y280799D01*
X294661D02*
X297060D01*
X295861D01*
Y287997D01*
X294661D01*
X304258Y280799D02*
X301859D01*
X300659Y281999D01*
Y284398D01*
X301859Y285598D01*
X304258D01*
X305458Y284398D01*
Y283199D01*
X300659D01*
X319853Y286797D02*
X318653Y287997D01*
X316254D01*
X315055Y286797D01*
Y285598D01*
X316254Y284398D01*
X318653D01*
X319853Y283199D01*
Y281999D01*
X318653Y280799D01*
X316254D01*
X315055Y281999D01*
X322252Y280799D02*
X324652D01*
X323452D01*
Y285598D01*
X322252D01*
X328250D02*
X333049D01*
X328250Y280799D01*
X333049D01*
X339047D02*
X336648D01*
X335448Y281999D01*
Y284398D01*
X336648Y285598D01*
X339047D01*
X340247Y284398D01*
Y283199D01*
X335448D01*
X225080Y286797D02*
X223881Y287997D01*
X221481D01*
X220282Y286797D01*
Y281999D01*
X221481Y280799D01*
X223881D01*
X225080Y281999D01*
X228679Y280799D02*
X231078D01*
X232278Y281999D01*
Y284398D01*
X231078Y285598D01*
X228679D01*
X227479Y284398D01*
Y281999D01*
X228679Y280799D01*
X234677Y285598D02*
Y281999D01*
X235877Y280799D01*
X239475D01*
Y285598D01*
X241875Y280799D02*
Y285598D01*
X245474D01*
X246673Y284398D01*
Y280799D01*
X250272Y286797D02*
Y285598D01*
X249072D01*
X251472D01*
X250272D01*
Y281999D01*
X251472Y280799D01*
X174493Y286797D02*
X173293Y287997D01*
X170894D01*
X169694Y286797D01*
Y285598D01*
X170894Y284398D01*
X173293D01*
X174493Y283199D01*
Y281999D01*
X173293Y280799D01*
X170894D01*
X169694Y281999D01*
X176892Y285598D02*
Y281999D01*
X178091Y280799D01*
X181690D01*
Y279600D01*
X180491Y278400D01*
X179291D01*
X181690Y280799D02*
Y285598D01*
X184090Y280799D02*
Y285598D01*
X185289D01*
X186489Y284398D01*
Y280799D01*
Y284398D01*
X187688Y285598D01*
X188888Y284398D01*
Y280799D01*
X191287Y287997D02*
Y280799D01*
X194886D01*
X196086Y281999D01*
Y283199D01*
Y284398D01*
X194886Y285598D01*
X191287D01*
X199684Y280799D02*
X202084D01*
X203283Y281999D01*
Y284398D01*
X202084Y285598D01*
X199684D01*
X198485Y284398D01*
Y281999D01*
X199684Y280799D01*
X205682D02*
X208082D01*
X206882D01*
Y287997D01*
X205682D01*
M02*
