**ABCDEFGHIJKLMNOPQRSTUVWXYZabcdefghijklmnopqrstuvwxyz**************************
**PARASOLID !"#$%&'()*+,-./:;<=>?@[\]^_`{|}~0123456789**************************
**PART1;
MC=x64/Windows NT;
MC_MODEL=genuineintel family 6 model 12 stepping 3, intel(r) core(tm) i7-4700mq cpu @ 2.40ghz;
MC_ID=zlntbmasuk;
OS=windows nt (x64);
OS_RELEASE=6.3 windows 10 pro (build 15063) ;
FRU=mdc_ugii_v7.0_djl_can_vrh;
APPL=unigraphics;
SITE=unknown;
USER=Marek;
FORMAT=text;
GUISE=transmit;
KEY=pogo_pin_P75-B1;
FILE=C:\Users\Marek\Dropbox\Arduino\modely\pogo_pin_P75-B1.x_t;
DATE=14-feb-2018;
**PART2;
SCH=SCH_2901259_28101;
USFLD_SIZE=0;
**PART3;
**END_OF_HEADER*****************************************************************
T51 : TRANSMIT FILE created by modeller version 290125917 SCH_2201000_200000 10
 1 2 0 0 0 0 0 0 0 1e3 1e-8 0 0 0 1 0 1 2 11 2 2 0 1 3 0 1 4 0 0 0 12 3 68 5 6 0
 0 0 0 1e3 1e-8 2 7 0 1 0 1 1 8 9 10 11 12 13 14 0 0 0 0 11 4 1 0 1 7 0 1 0 2 0
 0 12 7 115 15 16 0 0 0 0 1e3 1e-8 4 0 3 1 0 1 1 17 18 19 20 21 22 23 0 0 0 0 81
 1 15 115 24 7 25 0 0 0 26 70 16 0 4 T7 0 0 6 20 1 27 27 13 17 42 0 7 0 28 0 0 2
9 0 50 18 10 0 30 31 0 0 +0 0 -.00404 0 0 1 1 0 0 31 19 23 0 22 32 0 0 +0 0 -.00
404 0 0 1 1 0 0 51e-5 29 20 33 0 23 33 0 -955453164502851e-33 0 -.01654 19 21 40
 0 7 29 0 34 V16 22 22 35 ?36 0 37 19 0 0 7 18 23 31 0 38 0 39 20 ?7 17 38 0 40
 38 38 23 0 0 0 0 ?18 39 72 0 41 23 0 33 ?7 17 41 0 42 41 41 39 0 0 0 0 ?29 33 9
1 0 39 0 20 237169225231204e-34 0 -.0164149740519876 15 42 75 0 41 43 44 14 43 7
3 45 ?46 30 42 17 47 -0 0 0 46 34 15 44 76 0 48 43 0 17 48 0 44 48 48 0 49 50 0
 0 +17 49 0 51 49 49 0 48 50 0 0 -16 50 70 52 ?48 53 0 54 0 0 7 81 1 52 99 55 50
 0 0 56 57 58 16 53 71 57 ?59 37 50 60 0 0 7 31 54 90 0 50 0 60 0 +0 0 -.0163513
9767981235 0 0 1 1 0 0 385e-6 31 60 89 0 53 54 32 0 +0 0 -.00404 0 0 1 1 0 0 385
e-6 31 32 17 0 37 60 19 0 +0 0 -.01644 0 0 1 1 0 0 51e-5 16 37 16 61 ?62 22 53 3
2 0 0 7 81 1 61 58 55 37 0 0 0 35 63 17 62 0 64 62 62 0 65 37 0 0 +15 64 45 0 62
 66 67 17 65 0 68 65 65 0 62 37 0 0 -15 68 4 0 65 28 0 14 28 1 69 ?66 0 40 17 70
 +0 0 46 66 34 81 1 69 106 71 28 72 0 0 73 74 14 66 5 73 ?30 28 64 17 31 +0 0 28
 30 34 15 40 46 0 38 28 68 54 70 2 0 28 75 31 0 +0 0 -.01504028536620575 0 0 1 -
2925777133221465e-20 .0015 1 0 0 14 46 77 76 ?0 43 51 17 75 -0 0 43 28 34 13 34
 41 0 0 0 0 0 0 21 30 14 30 9 77 ?43 66 78 17 18 +0 0 66 0 34 81 1 77 110 71 30
 79 0 73 45 80 15 78 66 0 81 30 82 17 81 0 78 81 81 0 59 53 0 0 -15 82 44 0 36 3
0 0 17 36 0 82 36 36 0 83 22 0 0 +17 83 0 67 83 83 0 36 22 0 0 -15 67 8 0 83 66
 0 17 59 0 84 59 59 0 81 53 0 0 +15 84 80 0 59 46 0 80 1 71 0 85 8001 0 0 0 0 3
 5 0 0 0 FFFFTFTFFFFFFF2 81 1 79 109 86 30 87 77 88 89 90 81 1 73 108 71 66 88 0
 69 77 91 81 1 45 112 71 43 89 0 77 76 92 83 3 80 .8 .8 .2 81 1 89 111 86 43 93
 45 79 94 95 81 1 76 114 71 46 94 0 45 0 96 83 3 92 .8 .8 .2 81 1 94 113 86 46 9
7 76 89 0 98 83 3 96 .8 .8 .2 80 1 86 99 100 8015 0 0 0 0 3 5 0 0 0 FFFFTFFFFFFF
FF2 81 1 97 103 55 46 0 94 93 0 101 83 1 98 0 80 1 55 102 103 9000 1 1 1 1 1 1 1
 1 0 FFFFTFTFFFFFFF3 81 1 93 102 55 43 0 89 87 97 104 84 32 101 39525bc18688a622
fd0c8f640e5f500e81 1 87 101 55 30 0 79 57 93 105 84 32 104 f5e941bd230369b1d66a9
d561c0e4dfd81 1 57 100 55 53 0 0 52 87 106 84 32 105 a896f101b2809d628dfdfafb764
e4bff84 32 106 0f1e1b97980ae12d213a9b652dda7aee79 15 103 UGS/ObjectState79 21 10
0 SDL/TYSA_TRANSLUCENCY83 1 95 0 81 1 88 107 86 66 56 73 72 79 107 83 3 91 .8 .8
 .2 81 1 56 62 55 66 0 88 108 52 109 81 1 72 105 86 28 108 69 0 88 110 83 1 107
 0 81 1 108 60 55 28 0 72 35 56 111 83 1 110 0 81 1 35 59 55 22 0 0 61 108 112 8
4 32 111 a8cf6d29f78b5f20bc667220055287d084 32 112 14e58da189acf9da8fa020f950104
40084 32 109 59a99bb6c1aaed023ee5651e4cd9f5ad83 1 90 0 79 15 85 SDL/TYSA_COLOUR1
5 51 79 0 49 46 84 51 75 86 0 46 47 70 0 +0 0 0 0 0 1 385e-6 1 0 0 54 47 87 0 43
 0 75 0 +0 0 -.01504028536620575 0 0 1 -2925777133221465e-20 .001375 1 0 0 51 31
 6 0 66 70 18 0 +0 0 0 0 0 1 51e-5 1 0 0 83 3 74 .8 .8 .2 84 32 63 90ba6d6ad7017
5433d3d75286f677ce184 32 58 1df34591713ade0035bbf33dc51822d819 29 43 0 7 0 21 17
 S74 20 27 6 0 0 97 113 25 94 76 15 0 0 0 0 0 0 0 0 0 0 0 0 0 0 81 2 113 98 114
 7 0 25 0 0 115 116 81 1 25 104 102 7 113 15 0 0 117 80 1 102 118 119 9000 0 0 0
 0 3 5 0 0 0 FFTFFFFFFFFFFF1 82 1 117 8 79 7 119 body_id80 2 114 120 121 8004 0
 0 0 0 3 5 0 0 0 FFTFFFFFFFFFFF2 3 83 1 115 7830.64 84 8 116 Kg/Cu M 79 16 121 S
DL/TYSA_DENSITY80 1 24 122 123 9000 0 0 0 0 3 5 0 0 0 FFTFFFFFFFFFFF1 82 1 26 47
 79 24 123 UG2/BODY_COLOR_ATTRIBUTE81 1 5 68 24 3 124 0 0 0 125 70 6 0 4 T3 0 0
 5 20 1 126 126 13 8 42 0 3 0 127 0 0 128 0 52 9 10 0 129 130 0 0 +0 0 0 0 0 -1
 0 .258819045102521 .965925826289068 -1 0 0 31 10 23 0 13 131 0 0 +0 0 -.0013808
58798800484 0 0 1 1 0 0 37e-5 29 11 39 0 14 0 0 0 0 0 19 12 40 0 3 128 0 132 V16
 13 22 133 ?134 0 135 10 0 0 3 18 14 37 0 136 0 0 11 ?3 17 136 0 137 136 136 14
 0 0 0 0 ?15 137 12 0 136 129 0 14 129 9 138 ?0 139 140 8 9 +0 0 139 0 132 81 1
 138 67 71 129 141 0 142 0 143 14 139 5 142 ?129 127 144 8 130 +0 0 127 129 132
 15 140 44 0 134 129 137 13 132 41 0 0 0 0 0 0 12 129 17 134 0 140 134 134 0 145
 13 0 0 +17 145 0 146 145 145 0 134 13 0 0 -15 146 8 0 145 139 0 81 1 142 66 71
 139 147 0 148 138 149 14 127 1 148 ?139 0 150 8 151 +0 0 0 139 132 15 144 45 0
 152 139 146 51 130 6 0 139 151 9 0 +0 0 0 0 0 1 37e-5 1 0 0 50 151 2 0 127 0 13
0 0 +-37e-5 0 -.00404 0 0 -1 -1 0 0 17 152 0 144 152 152 0 153 135 0 0 +17 153 0
 150 153 153 0 152 135 0 0 -16 135 16 154 ?152 13 0 131 0 0 3 81 1 154 58 55 135
 0 0 0 133 155 31 131 17 0 135 0 10 0 +0 0 -.00404 0 0 1 1 0 0 37e-5 81 1 133 59
 55 13 0 0 154 141 156 84 32 155 d2d1c1e0bbba6373c4371b36f4fd4d4481 1 141 60 55
 129 0 138 133 147 157 84 32 156 a2e3f7f17bd10bd41dc50eb519dfa09081 1 147 61 55
 139 0 142 141 158 159 84 32 157 eec4ff0f4c6254c765039ffaff8024c181 1 158 62 55
 127 0 148 147 0 160 84 32 159 1d9dc83f38ba21d08df98546ac7d5a9181 1 148 65 71 12
7 158 0 0 142 161 84 32 160 375d322bdd5490325624d1b849cf7aed83 3 161 1 1 1 15 15
0 4 0 153 127 0 83 3 149 1 1 1 83 3 143 1 1 1 19 128 43 0 3 0 12 8 S74 20 126 5
 0 0 158 162 124 138 5 0 0 0 0 0 0 0 0 0 0 0 0 0 0 0 81 2 162 63 114 3 0 124 0 0
 163 164 81 1 124 64 102 3 162 5 0 0 165 82 1 165 10 83 1 163 7830.64 84 8 164 K
g/Cu M 82 1 125 1 1 0 
