G04*
G04 #@! TF.GenerationSoftware,Altium Limited,Altium Designer,22.0.2 (36)*
G04*
G04 Layer_Color=2752767*
%FSLAX25Y25*%
%MOIN*%
G70*
G04*
G04 #@! TF.SameCoordinates,C39F9318-1882-4917-9D17-B6DD066E8D87*
G04*
G04*
G04 #@! TF.FilePolarity,Positive*
G04*
G01*
G75*
%ADD10C,0.01000*%
%ADD19C,0.01500*%
%ADD29C,0.00200*%
%ADD30C,0.01600*%
D10*
X970Y145233D02*
G03*
X970Y145233I-3333J0D01*
G01*
X-4030Y128567D02*
X-2363Y126900D01*
X-5696Y128567D02*
X-4030D01*
X-5696D02*
X-4030Y130233D01*
X-5696Y131900D02*
X-4030Y130233D01*
X-5696Y131900D02*
X-4030D01*
X-2363Y133567D01*
X-696Y131900D01*
X970D01*
X-696Y130233D02*
X970Y131900D01*
X-696Y130233D02*
X970Y128567D01*
X-696D02*
X970D01*
X-2363Y126900D02*
X-696Y128567D01*
X-5696Y111900D02*
X970D01*
Y118567D01*
X-5696D02*
X970D01*
X-5696Y111900D02*
Y118567D01*
X-2363Y96900D02*
X970Y103567D01*
X-5696D02*
X970D01*
X-5696D02*
X-2363Y96900D01*
X617354Y145899D02*
X614355D01*
X613355Y144899D01*
Y142900D01*
X614355Y141900D01*
X617354D01*
X623352D02*
X619353D01*
X623352Y145899D01*
Y146898D01*
X622353Y147898D01*
X620353D01*
X619353Y146898D01*
X629350Y147898D02*
X625352D01*
Y144899D01*
X627351Y145899D01*
X628351D01*
X629350Y144899D01*
Y142900D01*
X628351Y141900D01*
X626351D01*
X625352Y142900D01*
X631350Y146898D02*
X632349Y147898D01*
X634349D01*
X635348Y146898D01*
Y142900D01*
X634349Y141900D01*
X632349D01*
X631350Y142900D01*
Y146898D01*
X637348Y147898D02*
Y141900D01*
Y144899D01*
X638347Y145899D01*
X640347D01*
X641346Y144899D01*
Y141900D01*
X643346D02*
Y145899D01*
X646345D01*
X647344Y144899D01*
Y141900D01*
X653342D02*
X649344D01*
X653342Y145899D01*
Y146898D01*
X652343Y147898D01*
X650344D01*
X649344Y146898D01*
X655342D02*
X656342Y147898D01*
X658341D01*
X659341Y146898D01*
Y142900D01*
X658341Y141900D01*
X656342D01*
X655342Y142900D01*
Y146898D01*
X661340D02*
X662340Y147898D01*
X664339D01*
X665339Y146898D01*
Y142900D01*
X664339Y141900D01*
X662340D01*
X661340Y142900D01*
Y146898D01*
X617354Y130899D02*
X614355D01*
X613355Y129899D01*
Y127900D01*
X614355Y126900D01*
X617354D01*
X623352D02*
X619353D01*
X623352Y130899D01*
Y131898D01*
X622353Y132898D01*
X620353D01*
X619353Y131898D01*
X629350Y132898D02*
X625352D01*
Y129899D01*
X627351Y130899D01*
X628351D01*
X629350Y129899D01*
Y127900D01*
X628351Y126900D01*
X626351D01*
X625352Y127900D01*
X631350Y131898D02*
X632349Y132898D01*
X634349D01*
X635348Y131898D01*
Y127900D01*
X634349Y126900D01*
X632349D01*
X631350Y127900D01*
Y131898D01*
X637348Y132898D02*
Y126900D01*
Y129899D01*
X638347Y130899D01*
X640347D01*
X641346Y129899D01*
Y126900D01*
X643346D02*
Y130899D01*
X646345D01*
X647344Y129899D01*
Y126900D01*
X653342D02*
X649344D01*
X653342Y130899D01*
Y131898D01*
X652343Y132898D01*
X650344D01*
X649344Y131898D01*
X655342D02*
X656342Y132898D01*
X658341D01*
X659341Y131898D01*
Y127900D01*
X658341Y126900D01*
X656342D01*
X655342Y127900D01*
Y131898D01*
X661340D02*
X662340Y132898D01*
X664339D01*
X665339Y131898D01*
Y127900D01*
X664339Y126900D01*
X662340D01*
X661340Y127900D01*
Y131898D01*
X669337Y126900D02*
X667338Y128899D01*
Y130899D01*
X669337Y132898D01*
X672336Y126900D02*
X674336D01*
X673336D01*
Y132898D01*
X672336Y131898D01*
X677335Y126900D02*
X679334Y128899D01*
Y130899D01*
X677335Y132898D01*
X617354Y115899D02*
X614355D01*
X613355Y114899D01*
Y112900D01*
X614355Y111900D01*
X617354D01*
X619353Y116898D02*
X620353Y117898D01*
X622353D01*
X623352Y116898D01*
Y112900D01*
X622353Y111900D01*
X620353D01*
X619353Y112900D01*
Y116898D01*
X625352Y117898D02*
Y111900D01*
Y114899D01*
X626351Y115899D01*
X628351D01*
X629350Y114899D01*
Y111900D01*
X631350D02*
Y115899D01*
X634349D01*
X635348Y114899D01*
Y111900D01*
X637348D02*
X639347D01*
X638347D01*
Y117898D01*
X637348Y116898D01*
X642346D02*
X643346Y117898D01*
X645345D01*
X646345Y116898D01*
Y112900D01*
X645345Y111900D01*
X643346D01*
X642346Y112900D01*
Y116898D01*
X648344D02*
X649344Y117898D01*
X651343D01*
X652343Y116898D01*
Y112900D01*
X651343Y111900D01*
X649344D01*
X648344Y112900D01*
Y116898D01*
X615355Y96900D02*
X613355Y98899D01*
Y100899D01*
X615355Y102898D01*
X618354Y96900D02*
Y102898D01*
X620353Y100899D01*
X622353Y102898D01*
Y96900D01*
X624352D02*
X626351D01*
X625352D01*
Y100899D01*
X624352D01*
X629350D02*
X633349Y96900D01*
X631350Y98899D01*
X633349Y100899D01*
X629350Y96900D01*
X638347D02*
X636348D01*
X635348Y97900D01*
Y99899D01*
X636348Y100899D01*
X638347D01*
X639347Y99899D01*
Y98899D01*
X635348D01*
X645345Y102898D02*
Y96900D01*
X642346D01*
X641346Y97900D01*
Y99899D01*
X642346Y100899D01*
X645345D01*
X647344Y96900D02*
X649344Y98899D01*
Y100899D01*
X647344Y102898D01*
X538776Y141900D02*
Y147898D01*
X541775D01*
X542774Y146898D01*
Y144899D01*
X541775Y143899D01*
X538776D01*
X540775D02*
X542774Y141900D01*
X545773D02*
X547773D01*
X548772Y142900D01*
Y144899D01*
X547773Y145899D01*
X545773D01*
X544774Y144899D01*
Y142900D01*
X545773Y141900D01*
X550772Y145899D02*
Y142900D01*
X551771Y141900D01*
X554771D01*
Y145899D01*
X556770Y141900D02*
Y145899D01*
X559769D01*
X560769Y144899D01*
Y141900D01*
X566767Y147898D02*
Y141900D01*
X563768D01*
X562768Y142900D01*
Y144899D01*
X563768Y145899D01*
X566767D01*
X571765Y141900D02*
X569766D01*
X568766Y142900D01*
Y144899D01*
X569766Y145899D01*
X571765D01*
X572765Y144899D01*
Y143899D01*
X568766D01*
X578763Y147898D02*
Y141900D01*
X575764D01*
X574764Y142900D01*
Y144899D01*
X575764Y145899D01*
X578763D01*
X538776Y126900D02*
Y132898D01*
X541775D01*
X542774Y131898D01*
Y129899D01*
X541775Y128899D01*
X538776D01*
X540775D02*
X542774Y126900D01*
X545773D02*
X547773D01*
X548772Y127900D01*
Y129899D01*
X547773Y130899D01*
X545773D01*
X544774Y129899D01*
Y127900D01*
X545773Y126900D01*
X550772Y130899D02*
Y127900D01*
X551771Y126900D01*
X554771D01*
Y130899D01*
X556770Y126900D02*
Y130899D01*
X559769D01*
X560769Y129899D01*
Y126900D01*
X566767Y132898D02*
Y126900D01*
X563768D01*
X562768Y127900D01*
Y129899D01*
X563768Y130899D01*
X566767D01*
X571765Y126900D02*
X569766D01*
X568766Y127900D01*
Y129899D01*
X569766Y130899D01*
X571765D01*
X572765Y129899D01*
Y128899D01*
X568766D01*
X578763Y132898D02*
Y126900D01*
X575764D01*
X574764Y127900D01*
Y129899D01*
X575764Y130899D01*
X578763D01*
X538776Y111900D02*
Y117898D01*
X541775D01*
X542774Y116898D01*
Y114899D01*
X541775Y113899D01*
X538776D01*
X540775D02*
X542774Y111900D01*
X545773D02*
X547773D01*
X548772Y112900D01*
Y114899D01*
X547773Y115899D01*
X545773D01*
X544774Y114899D01*
Y112900D01*
X545773Y111900D01*
X550772Y115899D02*
Y112900D01*
X551771Y111900D01*
X554771D01*
Y115899D01*
X556770Y111900D02*
Y115899D01*
X559769D01*
X560769Y114899D01*
Y111900D01*
X566767Y117898D02*
Y111900D01*
X563768D01*
X562768Y112900D01*
Y114899D01*
X563768Y115899D01*
X566767D01*
X571765Y111900D02*
X569766D01*
X568766Y112900D01*
Y114899D01*
X569766Y115899D01*
X571765D01*
X572765Y114899D01*
Y113899D01*
X568766D01*
X578763Y117898D02*
Y111900D01*
X575764D01*
X574764Y112900D01*
Y114899D01*
X575764Y115899D01*
X578763D01*
X538776Y96900D02*
Y102898D01*
X541775D01*
X542774Y101898D01*
Y99899D01*
X541775Y98899D01*
X538776D01*
X540775D02*
X542774Y96900D01*
X545773D02*
X547773D01*
X548772Y97900D01*
Y99899D01*
X547773Y100899D01*
X545773D01*
X544774Y99899D01*
Y97900D01*
X545773Y96900D01*
X550772Y100899D02*
Y97900D01*
X551771Y96900D01*
X554771D01*
Y100899D01*
X556770Y96900D02*
Y100899D01*
X559769D01*
X560769Y99899D01*
Y96900D01*
X566767Y102898D02*
Y96900D01*
X563768D01*
X562768Y97900D01*
Y99899D01*
X563768Y100899D01*
X566767D01*
X571765Y96900D02*
X569766D01*
X568766Y97900D01*
Y99899D01*
X569766Y100899D01*
X571765D01*
X572765Y99899D01*
Y98899D01*
X568766D01*
X578763Y102898D02*
Y96900D01*
X575764D01*
X574764Y97900D01*
Y99899D01*
X575764Y100899D01*
X578763D01*
X479791Y141900D02*
Y147898D01*
X482790D01*
X483789Y146898D01*
Y144899D01*
X482790Y143899D01*
X479791D01*
X486789Y145899D02*
X488788D01*
X489788Y144899D01*
Y141900D01*
X486789D01*
X485789Y142900D01*
X486789Y143899D01*
X489788D01*
X495786Y147898D02*
Y141900D01*
X492787D01*
X491787Y142900D01*
Y144899D01*
X492787Y145899D01*
X495786D01*
X479791Y126900D02*
Y132898D01*
X482790D01*
X483789Y131898D01*
Y129899D01*
X482790Y128899D01*
X479791D01*
X486789Y130899D02*
X488788D01*
X489788Y129899D01*
Y126900D01*
X486789D01*
X485789Y127900D01*
X486789Y128899D01*
X489788D01*
X495786Y132898D02*
Y126900D01*
X492787D01*
X491787Y127900D01*
Y129899D01*
X492787Y130899D01*
X495786D01*
X479791Y111900D02*
Y117898D01*
X482790D01*
X483789Y116898D01*
Y114899D01*
X482790Y113899D01*
X479791D01*
X486789Y115899D02*
X488788D01*
X489788Y114899D01*
Y111900D01*
X486789D01*
X485789Y112900D01*
X486789Y113899D01*
X489788D01*
X495786Y117898D02*
Y111900D01*
X492787D01*
X491787Y112900D01*
Y114899D01*
X492787Y115899D01*
X495786D01*
X479791Y102898D02*
Y98899D01*
X481790Y96900D01*
X483789Y98899D01*
Y102898D01*
X485789Y96900D02*
X487788D01*
X486789D01*
Y100899D01*
X485789D01*
X491787D02*
X493786D01*
X494786Y99899D01*
Y96900D01*
X491787D01*
X490787Y97900D01*
X491787Y98899D01*
X494786D01*
X329836Y147898D02*
X333835D01*
X331835D01*
Y141900D01*
X336834D02*
X338833D01*
X339832Y142900D01*
Y144899D01*
X338833Y145899D01*
X336834D01*
X335834Y144899D01*
Y142900D01*
X336834Y141900D01*
X341832Y139901D02*
Y145899D01*
X344831D01*
X345831Y144899D01*
Y142900D01*
X344831Y141900D01*
X341832D01*
X353828Y147898D02*
Y141900D01*
X357827D01*
X360826Y145899D02*
X362825D01*
X363825Y144899D01*
Y141900D01*
X360826D01*
X359826Y142900D01*
X360826Y143899D01*
X363825D01*
X365824Y145899D02*
Y142900D01*
X366824Y141900D01*
X369823D01*
Y140900D01*
X368823Y139901D01*
X367824D01*
X369823Y141900D02*
Y145899D01*
X374821Y141900D02*
X372822D01*
X371822Y142900D01*
Y144899D01*
X372822Y145899D01*
X374821D01*
X375821Y144899D01*
Y143899D01*
X371822D01*
X377820Y145899D02*
Y141900D01*
Y143899D01*
X378820Y144899D01*
X379820Y145899D01*
X380819D01*
X389816Y144899D02*
X393815D01*
X401813Y147898D02*
Y141900D01*
X404811D01*
X405811Y142900D01*
Y143899D01*
X404811Y144899D01*
X401813D01*
X404811D01*
X405811Y145899D01*
Y146898D01*
X404811Y147898D01*
X401813D01*
X408810Y141900D02*
X410810D01*
X411809Y142900D01*
Y144899D01*
X410810Y145899D01*
X408810D01*
X407810Y144899D01*
Y142900D01*
X408810Y141900D01*
X414808Y146898D02*
Y145899D01*
X413809D01*
X415808D01*
X414808D01*
Y142900D01*
X415808Y141900D01*
X419807Y146898D02*
Y145899D01*
X418807D01*
X420806D01*
X419807D01*
Y142900D01*
X420806Y141900D01*
X424805D02*
X426804D01*
X427804Y142900D01*
Y144899D01*
X426804Y145899D01*
X424805D01*
X423805Y144899D01*
Y142900D01*
X424805Y141900D01*
X429803D02*
Y145899D01*
X430803D01*
X431803Y144899D01*
Y141900D01*
Y144899D01*
X432802Y145899D01*
X433802Y144899D01*
Y141900D01*
X441799Y147898D02*
Y141900D01*
X445798D01*
X448797Y145899D02*
X450797D01*
X451796Y144899D01*
Y141900D01*
X448797D01*
X447798Y142900D01*
X448797Y143899D01*
X451796D01*
X453796Y145899D02*
Y142900D01*
X454795Y141900D01*
X457794D01*
Y140900D01*
X456795Y139901D01*
X455795D01*
X457794Y141900D02*
Y145899D01*
X462793Y141900D02*
X460793D01*
X459794Y142900D01*
Y144899D01*
X460793Y145899D01*
X462793D01*
X463792Y144899D01*
Y143899D01*
X459794D01*
X465792Y145899D02*
Y141900D01*
Y143899D01*
X466791Y144899D01*
X467791Y145899D01*
X468791D01*
X329836Y132898D02*
X333835D01*
X331835D01*
Y126900D01*
X336834D02*
X338833D01*
X339832Y127900D01*
Y129899D01*
X338833Y130899D01*
X336834D01*
X335834Y129899D01*
Y127900D01*
X336834Y126900D01*
X341832Y124901D02*
Y130899D01*
X344831D01*
X345831Y129899D01*
Y127900D01*
X344831Y126900D01*
X341832D01*
X353828Y132898D02*
Y126900D01*
X357827D01*
X360826Y130899D02*
X362825D01*
X363825Y129899D01*
Y126900D01*
X360826D01*
X359826Y127900D01*
X360826Y128899D01*
X363825D01*
X365824Y130899D02*
Y127900D01*
X366824Y126900D01*
X369823D01*
Y125900D01*
X368823Y124901D01*
X367824D01*
X369823Y126900D02*
Y130899D01*
X374821Y126900D02*
X372822D01*
X371822Y127900D01*
Y129899D01*
X372822Y130899D01*
X374821D01*
X375821Y129899D01*
Y128899D01*
X371822D01*
X377820Y130899D02*
Y126900D01*
Y128899D01*
X378820Y129899D01*
X379820Y130899D01*
X380819D01*
X389816Y129899D02*
X393815D01*
X401813Y132898D02*
Y126900D01*
X404811D01*
X405811Y127900D01*
Y128899D01*
X404811Y129899D01*
X401813D01*
X404811D01*
X405811Y130899D01*
Y131898D01*
X404811Y132898D01*
X401813D01*
X408810Y126900D02*
X410810D01*
X411809Y127900D01*
Y129899D01*
X410810Y130899D01*
X408810D01*
X407810Y129899D01*
Y127900D01*
X408810Y126900D01*
X414808Y131898D02*
Y130899D01*
X413809D01*
X415808D01*
X414808D01*
Y127900D01*
X415808Y126900D01*
X419807Y131898D02*
Y130899D01*
X418807D01*
X420806D01*
X419807D01*
Y127900D01*
X420806Y126900D01*
X424805D02*
X426804D01*
X427804Y127900D01*
Y129899D01*
X426804Y130899D01*
X424805D01*
X423805Y129899D01*
Y127900D01*
X424805Y126900D01*
X429803D02*
Y130899D01*
X430803D01*
X431803Y129899D01*
Y126900D01*
Y129899D01*
X432802Y130899D01*
X433802Y129899D01*
Y126900D01*
X441799Y132898D02*
Y126900D01*
X445798D01*
X448797Y130899D02*
X450797D01*
X451796Y129899D01*
Y126900D01*
X448797D01*
X447798Y127900D01*
X448797Y128899D01*
X451796D01*
X453796Y130899D02*
Y127900D01*
X454795Y126900D01*
X457794D01*
Y125900D01*
X456795Y124901D01*
X455795D01*
X457794Y126900D02*
Y130899D01*
X462793Y126900D02*
X460793D01*
X459794Y127900D01*
Y129899D01*
X460793Y130899D01*
X462793D01*
X463792Y129899D01*
Y128899D01*
X459794D01*
X465792Y130899D02*
Y126900D01*
Y128899D01*
X466791Y129899D01*
X467791Y130899D01*
X468791D01*
X329836Y117898D02*
X333835D01*
X331835D01*
Y111900D01*
X336834D02*
X338833D01*
X339832Y112900D01*
Y114899D01*
X338833Y115899D01*
X336834D01*
X335834Y114899D01*
Y112900D01*
X336834Y111900D01*
X341832Y109901D02*
Y115899D01*
X344831D01*
X345831Y114899D01*
Y112900D01*
X344831Y111900D01*
X341832D01*
X353828Y117898D02*
Y111900D01*
X357827D01*
X360826Y115899D02*
X362825D01*
X363825Y114899D01*
Y111900D01*
X360826D01*
X359826Y112900D01*
X360826Y113899D01*
X363825D01*
X365824Y115899D02*
Y112900D01*
X366824Y111900D01*
X369823D01*
Y110900D01*
X368823Y109901D01*
X367824D01*
X369823Y111900D02*
Y115899D01*
X374821Y111900D02*
X372822D01*
X371822Y112900D01*
Y114899D01*
X372822Y115899D01*
X374821D01*
X375821Y114899D01*
Y113899D01*
X371822D01*
X377820Y115899D02*
Y111900D01*
Y113899D01*
X378820Y114899D01*
X379820Y115899D01*
X380819D01*
X389816Y114899D02*
X393815D01*
X401813Y117898D02*
Y111900D01*
X404811D01*
X405811Y112900D01*
Y113899D01*
X404811Y114899D01*
X401813D01*
X404811D01*
X405811Y115899D01*
Y116898D01*
X404811Y117898D01*
X401813D01*
X408810Y111900D02*
X410810D01*
X411809Y112900D01*
Y114899D01*
X410810Y115899D01*
X408810D01*
X407810Y114899D01*
Y112900D01*
X408810Y111900D01*
X414808Y116898D02*
Y115899D01*
X413809D01*
X415808D01*
X414808D01*
Y112900D01*
X415808Y111900D01*
X419807Y116898D02*
Y115899D01*
X418807D01*
X420806D01*
X419807D01*
Y112900D01*
X420806Y111900D01*
X424805D02*
X426804D01*
X427804Y112900D01*
Y114899D01*
X426804Y115899D01*
X424805D01*
X423805Y114899D01*
Y112900D01*
X424805Y111900D01*
X429803D02*
Y115899D01*
X430803D01*
X431803Y114899D01*
Y111900D01*
Y114899D01*
X432802Y115899D01*
X433802Y114899D01*
Y111900D01*
X441799Y117898D02*
Y111900D01*
X445798D01*
X448797Y115899D02*
X450797D01*
X451796Y114899D01*
Y111900D01*
X448797D01*
X447798Y112900D01*
X448797Y113899D01*
X451796D01*
X453796Y115899D02*
Y112900D01*
X454795Y111900D01*
X457794D01*
Y110900D01*
X456795Y109901D01*
X455795D01*
X457794Y111900D02*
Y115899D01*
X462793Y111900D02*
X460793D01*
X459794Y112900D01*
Y114899D01*
X460793Y115899D01*
X462793D01*
X463792Y114899D01*
Y113899D01*
X459794D01*
X465792Y115899D02*
Y111900D01*
Y113899D01*
X466791Y114899D01*
X467791Y115899D01*
X468791D01*
X329836Y102898D02*
X333835D01*
X331835D01*
Y96900D01*
X336834D02*
X338833D01*
X339832Y97900D01*
Y99899D01*
X338833Y100899D01*
X336834D01*
X335834Y99899D01*
Y97900D01*
X336834Y96900D01*
X341832Y94901D02*
Y100899D01*
X344831D01*
X345831Y99899D01*
Y97900D01*
X344831Y96900D01*
X341832D01*
X353828Y102898D02*
Y96900D01*
X357827D01*
X360826Y100899D02*
X362825D01*
X363825Y99899D01*
Y96900D01*
X360826D01*
X359826Y97900D01*
X360826Y98899D01*
X363825D01*
X365824Y100899D02*
Y97900D01*
X366824Y96900D01*
X369823D01*
Y95900D01*
X368823Y94901D01*
X367824D01*
X369823Y96900D02*
Y100899D01*
X374821Y96900D02*
X372822D01*
X371822Y97900D01*
Y99899D01*
X372822Y100899D01*
X374821D01*
X375821Y99899D01*
Y98899D01*
X371822D01*
X377820Y100899D02*
Y96900D01*
Y98899D01*
X378820Y99899D01*
X379820Y100899D01*
X380819D01*
X389816Y99899D02*
X393815D01*
X401813Y102898D02*
Y96900D01*
X404811D01*
X405811Y97900D01*
Y98899D01*
X404811Y99899D01*
X401813D01*
X404811D01*
X405811Y100899D01*
Y101898D01*
X404811Y102898D01*
X401813D01*
X408810Y96900D02*
X410810D01*
X411809Y97900D01*
Y99899D01*
X410810Y100899D01*
X408810D01*
X407810Y99899D01*
Y97900D01*
X408810Y96900D01*
X414808Y101898D02*
Y100899D01*
X413809D01*
X415808D01*
X414808D01*
Y97900D01*
X415808Y96900D01*
X419807Y101898D02*
Y100899D01*
X418807D01*
X420806D01*
X419807D01*
Y97900D01*
X420806Y96900D01*
X424805D02*
X426804D01*
X427804Y97900D01*
Y99899D01*
X426804Y100899D01*
X424805D01*
X423805Y99899D01*
Y97900D01*
X424805Y96900D01*
X429803D02*
Y100899D01*
X430803D01*
X431803Y99899D01*
Y96900D01*
Y99899D01*
X432802Y100899D01*
X433802Y99899D01*
Y96900D01*
X441799Y102898D02*
Y96900D01*
X445798D01*
X448797Y100899D02*
X450797D01*
X451796Y99899D01*
Y96900D01*
X448797D01*
X447798Y97900D01*
X448797Y98899D01*
X451796D01*
X453796Y100899D02*
Y97900D01*
X454795Y96900D01*
X457794D01*
Y95900D01*
X456795Y94901D01*
X455795D01*
X457794Y96900D02*
Y100899D01*
X462793Y96900D02*
X460793D01*
X459794Y97900D01*
Y99899D01*
X460793Y100899D01*
X462793D01*
X463792Y99899D01*
Y98899D01*
X459794D01*
X465792Y100899D02*
Y96900D01*
Y98899D01*
X466791Y99899D01*
X467791Y100899D01*
X468791D01*
X256455Y141900D02*
Y147898D01*
X259455D01*
X260454Y146898D01*
Y144899D01*
X259455Y143899D01*
X256455D01*
X258455D02*
X260454Y141900D01*
X263453D02*
X265453D01*
X266452Y142900D01*
Y144899D01*
X265453Y145899D01*
X263453D01*
X262454Y144899D01*
Y142900D01*
X263453Y141900D01*
X268452Y145899D02*
Y142900D01*
X269451Y141900D01*
X272450D01*
Y145899D01*
X274450Y141900D02*
Y145899D01*
X277449D01*
X278448Y144899D01*
Y141900D01*
X284447Y147898D02*
Y141900D01*
X281448D01*
X280448Y142900D01*
Y144899D01*
X281448Y145899D01*
X284447D01*
X256455Y126900D02*
Y132898D01*
X259455D01*
X260454Y131898D01*
Y129899D01*
X259455Y128899D01*
X256455D01*
X258455D02*
X260454Y126900D01*
X263453D02*
X265453D01*
X266452Y127900D01*
Y129899D01*
X265453Y130899D01*
X263453D01*
X262454Y129899D01*
Y127900D01*
X263453Y126900D01*
X268452Y130899D02*
Y127900D01*
X269451Y126900D01*
X272450D01*
Y130899D01*
X274450Y126900D02*
Y130899D01*
X277449D01*
X278448Y129899D01*
Y126900D01*
X284447Y132898D02*
Y126900D01*
X281448D01*
X280448Y127900D01*
Y129899D01*
X281448Y130899D01*
X284447D01*
X256455Y111900D02*
Y117898D01*
X259455D01*
X260454Y116898D01*
Y114899D01*
X259455Y113899D01*
X256455D01*
X258455D02*
X260454Y111900D01*
X263453D02*
X265453D01*
X266452Y112900D01*
Y114899D01*
X265453Y115899D01*
X263453D01*
X262454Y114899D01*
Y112900D01*
X263453Y111900D01*
X268452Y115899D02*
Y112900D01*
X269451Y111900D01*
X272450D01*
Y115899D01*
X274450Y111900D02*
Y115899D01*
X277449D01*
X278448Y114899D01*
Y111900D01*
X284447Y117898D02*
Y111900D01*
X281448D01*
X280448Y112900D01*
Y114899D01*
X281448Y115899D01*
X284447D01*
X256455Y96900D02*
Y102898D01*
X259455D01*
X260454Y101898D01*
Y99899D01*
X259455Y98899D01*
X256455D01*
X258455D02*
X260454Y96900D01*
X263453D02*
X265453D01*
X266452Y97900D01*
Y99899D01*
X265453Y100899D01*
X263453D01*
X262454Y99899D01*
Y97900D01*
X263453Y96900D01*
X268452Y100899D02*
Y97900D01*
X269451Y96900D01*
X272450D01*
Y100899D01*
X274450Y96900D02*
Y100899D01*
X277449D01*
X278448Y99899D01*
Y96900D01*
X284447Y102898D02*
Y96900D01*
X281448D01*
X280448Y97900D01*
Y99899D01*
X281448Y100899D01*
X284447D01*
X205868Y141900D02*
Y147898D01*
X209867Y141900D01*
Y147898D01*
X211866Y141900D02*
Y147898D01*
X214865D01*
X215865Y146898D01*
Y144899D01*
X214865Y143899D01*
X211866D01*
X217864Y147898D02*
X221863D01*
X219863D01*
Y141900D01*
X223862Y147898D02*
Y141900D01*
Y144899D01*
X227861D01*
Y147898D01*
Y141900D01*
X205868Y126900D02*
Y132898D01*
X209867Y126900D01*
Y132898D01*
X211866Y126900D02*
Y132898D01*
X214865D01*
X215865Y131898D01*
Y129899D01*
X214865Y128899D01*
X211866D01*
X217864Y132898D02*
X221863D01*
X219863D01*
Y126900D01*
X223862Y132898D02*
Y126900D01*
Y129899D01*
X227861D01*
Y132898D01*
Y126900D01*
X205868Y111900D02*
Y117898D01*
X209867Y111900D01*
Y117898D01*
X211866Y111900D02*
Y117898D01*
X214865D01*
X215865Y116898D01*
Y114899D01*
X214865Y113899D01*
X211866D01*
X217864Y117898D02*
X221863D01*
X219863D01*
Y111900D01*
X223862Y117898D02*
Y111900D01*
Y114899D01*
X227861D01*
Y117898D01*
Y111900D01*
X205868Y96900D02*
Y102898D01*
X208867D01*
X209867Y101898D01*
Y99899D01*
X208867Y98899D01*
X205868D01*
X211866Y102898D02*
X215865D01*
X213865D01*
Y96900D01*
X217864Y102898D02*
Y96900D01*
Y99899D01*
X221863D01*
Y102898D01*
Y96900D01*
X99899Y141900D02*
X95900D01*
X99899Y145899D01*
Y146898D01*
X98899Y147898D01*
X96900D01*
X95900Y146898D01*
X101898Y141900D02*
Y142900D01*
X102898D01*
Y141900D01*
X101898D01*
X106896Y146898D02*
X107896Y147898D01*
X109896D01*
X110895Y146898D01*
Y142900D01*
X109896Y141900D01*
X107896D01*
X106896Y142900D01*
Y146898D01*
X112894D02*
X113894Y147898D01*
X115893D01*
X116893Y146898D01*
Y142900D01*
X115893Y141900D01*
X113894D01*
X112894Y142900D01*
Y146898D01*
X118893D02*
X119892Y147898D01*
X121892D01*
X122891Y146898D01*
Y142900D01*
X121892Y141900D01*
X119892D01*
X118893Y142900D01*
Y146898D01*
X124891Y141900D02*
Y145899D01*
X125890D01*
X126890Y144899D01*
Y141900D01*
Y144899D01*
X127890Y145899D01*
X128889Y144899D01*
Y141900D01*
X130889D02*
Y145899D01*
X131888D01*
X132888Y144899D01*
Y141900D01*
Y144899D01*
X133888Y145899D01*
X134887Y144899D01*
Y141900D01*
X144884D02*
X142885Y143899D01*
Y145899D01*
X144884Y147898D01*
X147883D02*
X151882D01*
Y146898D01*
X147883Y142900D01*
Y141900D01*
X153881Y146898D02*
X154881Y147898D01*
X156880D01*
X157880Y146898D01*
Y145899D01*
X156880Y144899D01*
X157880Y143899D01*
Y142900D01*
X156880Y141900D01*
X154881D01*
X153881Y142900D01*
Y143899D01*
X154881Y144899D01*
X153881Y145899D01*
Y146898D01*
X154881Y144899D02*
X156880D01*
X159879Y141900D02*
Y142900D01*
X160879D01*
Y141900D01*
X159879D01*
X164878Y147898D02*
X168876D01*
Y146898D01*
X164878Y142900D01*
Y141900D01*
X173875D02*
Y147898D01*
X170876Y144899D01*
X174874D01*
X176874Y141900D02*
Y145899D01*
X177874D01*
X178873Y144899D01*
Y141900D01*
Y144899D01*
X179873Y145899D01*
X180872Y144899D01*
Y141900D01*
X182872D02*
X184871D01*
X183871D01*
Y145899D01*
X182872D01*
X187870Y141900D02*
X189870D01*
X188870D01*
Y147898D01*
X187870D01*
X192869Y141900D02*
X194868Y143899D01*
Y145899D01*
X192869Y147898D01*
X99899Y126900D02*
X95900D01*
X99899Y130899D01*
Y131898D01*
X98899Y132898D01*
X96900D01*
X95900Y131898D01*
X101898Y126900D02*
Y127900D01*
X102898D01*
Y126900D01*
X101898D01*
X106896Y131898D02*
X107896Y132898D01*
X109896D01*
X110895Y131898D01*
Y127900D01*
X109896Y126900D01*
X107896D01*
X106896Y127900D01*
Y131898D01*
X112894D02*
X113894Y132898D01*
X115893D01*
X116893Y131898D01*
Y127900D01*
X115893Y126900D01*
X113894D01*
X112894Y127900D01*
Y131898D01*
X118893D02*
X119892Y132898D01*
X121892D01*
X122891Y131898D01*
Y127900D01*
X121892Y126900D01*
X119892D01*
X118893Y127900D01*
Y131898D01*
X124891Y126900D02*
Y130899D01*
X125890D01*
X126890Y129899D01*
Y126900D01*
Y129899D01*
X127890Y130899D01*
X128889Y129899D01*
Y126900D01*
X130889D02*
Y130899D01*
X131888D01*
X132888Y129899D01*
Y126900D01*
Y129899D01*
X133888Y130899D01*
X134887Y129899D01*
Y126900D01*
X144884D02*
X142885Y128899D01*
Y130899D01*
X144884Y132898D01*
X147883D02*
X151882D01*
Y131898D01*
X147883Y127900D01*
Y126900D01*
X153881Y131898D02*
X154881Y132898D01*
X156880D01*
X157880Y131898D01*
Y130899D01*
X156880Y129899D01*
X157880Y128899D01*
Y127900D01*
X156880Y126900D01*
X154881D01*
X153881Y127900D01*
Y128899D01*
X154881Y129899D01*
X153881Y130899D01*
Y131898D01*
X154881Y129899D02*
X156880D01*
X159879Y126900D02*
Y127900D01*
X160879D01*
Y126900D01*
X159879D01*
X164878Y132898D02*
X168876D01*
Y131898D01*
X164878Y127900D01*
Y126900D01*
X174874Y132898D02*
X172875Y131898D01*
X170876Y129899D01*
Y127900D01*
X171875Y126900D01*
X173875D01*
X174874Y127900D01*
Y128899D01*
X173875Y129899D01*
X170876D01*
X176874Y126900D02*
Y130899D01*
X177874D01*
X178873Y129899D01*
Y126900D01*
Y129899D01*
X179873Y130899D01*
X180872Y129899D01*
Y126900D01*
X182872D02*
X184871D01*
X183871D01*
Y130899D01*
X182872D01*
X187870Y126900D02*
X189870D01*
X188870D01*
Y132898D01*
X187870D01*
X192869Y126900D02*
X194868Y128899D01*
Y130899D01*
X192869Y132898D01*
X95900Y111900D02*
X97899D01*
X96900D01*
Y117898D01*
X95900Y116898D01*
X100898Y111900D02*
Y112900D01*
X101898D01*
Y111900D01*
X100898D01*
X105897Y116898D02*
X106896Y117898D01*
X108896D01*
X109896Y116898D01*
Y112900D01*
X108896Y111900D01*
X106896D01*
X105897Y112900D01*
Y116898D01*
X111895D02*
X112894Y117898D01*
X114894D01*
X115893Y116898D01*
Y112900D01*
X114894Y111900D01*
X112894D01*
X111895Y112900D01*
Y116898D01*
X117893D02*
X118893Y117898D01*
X120892D01*
X121892Y116898D01*
Y112900D01*
X120892Y111900D01*
X118893D01*
X117893Y112900D01*
Y116898D01*
X123891Y111900D02*
Y115899D01*
X124891D01*
X125890Y114899D01*
Y111900D01*
Y114899D01*
X126890Y115899D01*
X127890Y114899D01*
Y111900D01*
X129889D02*
Y115899D01*
X130889D01*
X131888Y114899D01*
Y111900D01*
Y114899D01*
X132888Y115899D01*
X133888Y114899D01*
Y111900D01*
X143885D02*
X141885Y113899D01*
Y115899D01*
X143885Y117898D01*
X146883Y116898D02*
X147883Y117898D01*
X149882D01*
X150882Y116898D01*
Y115899D01*
X149882Y114899D01*
X148883D01*
X149882D01*
X150882Y113899D01*
Y112900D01*
X149882Y111900D01*
X147883D01*
X146883Y112900D01*
X152882D02*
X153881Y111900D01*
X155881D01*
X156880Y112900D01*
Y116898D01*
X155881Y117898D01*
X153881D01*
X152882Y116898D01*
Y115899D01*
X153881Y114899D01*
X156880D01*
X158880Y111900D02*
Y112900D01*
X159879D01*
Y111900D01*
X158880D01*
X163878Y116898D02*
X164878Y117898D01*
X166877D01*
X167877Y116898D01*
Y115899D01*
X166877Y114899D01*
X165877D01*
X166877D01*
X167877Y113899D01*
Y112900D01*
X166877Y111900D01*
X164878D01*
X163878Y112900D01*
X169876Y117898D02*
X173875D01*
Y116898D01*
X169876Y112900D01*
Y111900D01*
X175874D02*
Y115899D01*
X176874D01*
X177874Y114899D01*
Y111900D01*
Y114899D01*
X178873Y115899D01*
X179873Y114899D01*
Y111900D01*
X181872D02*
X183871D01*
X182872D01*
Y115899D01*
X181872D01*
X186871Y111900D02*
X188870D01*
X187870D01*
Y117898D01*
X186871D01*
X191869Y111900D02*
X193868Y113899D01*
Y115899D01*
X191869Y117898D01*
X95900Y101898D02*
X96900Y102898D01*
X98899D01*
X99899Y101898D01*
Y97900D01*
X98899Y96900D01*
X96900D01*
X95900Y97900D01*
Y101898D01*
X101898Y96900D02*
Y97900D01*
X102898D01*
Y96900D01*
X101898D01*
X106896Y101898D02*
X107896Y102898D01*
X109896D01*
X110895Y101898D01*
Y100899D01*
X109896Y99899D01*
X108896D01*
X109896D01*
X110895Y98899D01*
Y97900D01*
X109896Y96900D01*
X107896D01*
X106896Y97900D01*
X112894Y101898D02*
X113894Y102898D01*
X115893D01*
X116893Y101898D01*
Y97900D01*
X115893Y96900D01*
X113894D01*
X112894Y97900D01*
Y101898D01*
X118893D02*
X119892Y102898D01*
X121892D01*
X122891Y101898D01*
Y97900D01*
X121892Y96900D01*
X119892D01*
X118893Y97900D01*
Y101898D01*
X124891Y96900D02*
Y100899D01*
X125890D01*
X126890Y99899D01*
Y96900D01*
Y99899D01*
X127890Y100899D01*
X128889Y99899D01*
Y96900D01*
X130889D02*
Y100899D01*
X131888D01*
X132888Y99899D01*
Y96900D01*
Y99899D01*
X133888Y100899D01*
X134887Y99899D01*
Y96900D01*
X144884D02*
X142885Y98899D01*
Y100899D01*
X144884Y102898D01*
X147883Y96900D02*
X149882D01*
X148883D01*
Y102898D01*
X147883Y101898D01*
X152882Y96900D02*
X154881D01*
X153881D01*
Y102898D01*
X152882Y101898D01*
X157880Y96900D02*
Y97900D01*
X158880D01*
Y96900D01*
X157880D01*
X162878Y101898D02*
X163878Y102898D01*
X165877D01*
X166877Y101898D01*
Y100899D01*
X165877Y99899D01*
X166877Y98899D01*
Y97900D01*
X165877Y96900D01*
X163878D01*
X162878Y97900D01*
Y98899D01*
X163878Y99899D01*
X162878Y100899D01*
Y101898D01*
X163878Y99899D02*
X165877D01*
X168876Y96900D02*
X170876D01*
X169876D01*
Y102898D01*
X168876Y101898D01*
X173875Y96900D02*
Y100899D01*
X174874D01*
X175874Y99899D01*
Y96900D01*
Y99899D01*
X176874Y100899D01*
X177874Y99899D01*
Y96900D01*
X179873D02*
X181872D01*
X180872D01*
Y100899D01*
X179873D01*
X184871Y96900D02*
X186871D01*
X185871D01*
Y102898D01*
X184871D01*
X189870Y96900D02*
X191869Y98899D01*
Y100899D01*
X189870Y102898D01*
X47912Y82900D02*
X48912Y81900D01*
X50911D01*
X51911Y82900D01*
Y86898D01*
X50911Y87898D01*
X48912D01*
X47912Y86898D01*
Y85899D01*
X48912Y84899D01*
X51911D01*
X59908Y87898D02*
X63907D01*
X61907D01*
Y81900D01*
X66906D02*
X68905D01*
X69905Y82900D01*
Y84899D01*
X68905Y85899D01*
X66906D01*
X65906Y84899D01*
Y82900D01*
X66906Y81900D01*
X72904Y86898D02*
Y85899D01*
X71904D01*
X73904D01*
X72904D01*
Y82900D01*
X73904Y81900D01*
X77902Y85899D02*
X79902D01*
X80901Y84899D01*
Y81900D01*
X77902D01*
X76903Y82900D01*
X77902Y83899D01*
X80901D01*
X82901Y81900D02*
X84900D01*
X83900D01*
Y87898D01*
X82901D01*
X47912Y141900D02*
X49911D01*
X48912D01*
Y147898D01*
X47912Y146898D01*
Y126900D02*
X49911D01*
X48912D01*
Y132898D01*
X47912Y131898D01*
X51911Y111900D02*
X47912D01*
X51911Y115899D01*
Y116898D01*
X50911Y117898D01*
X48912D01*
X47912Y116898D01*
X51911Y102898D02*
X47912D01*
Y99899D01*
X49911Y100899D01*
X50911D01*
X51911Y99899D01*
Y97900D01*
X50911Y96900D01*
X48912D01*
X47912Y97900D01*
D19*
X-11676Y152400D02*
X690334D01*
X-11676Y92400D02*
X690334D01*
X-11676Y77400D02*
X690334D01*
Y167400D01*
X-11676D02*
X690334D01*
X-11676Y77400D02*
Y167400D01*
X608855Y77400D02*
Y167400D01*
X534276Y77400D02*
Y167400D01*
X475291Y77400D02*
Y167400D01*
X325336Y77400D02*
Y167400D01*
X251956Y77400D02*
Y167400D01*
X201368Y77400D02*
Y167400D01*
X91400Y77400D02*
Y167400D01*
X43412Y77400D02*
Y167400D01*
D29*
X42339Y47244D02*
G03*
X42339Y47244I-1000J0D01*
G01*
X33800Y3900D02*
X34800Y5900D01*
X32800D02*
X34800D01*
X32800D02*
X33800Y3900D01*
X36004Y198D02*
X37005Y2198D01*
X35004D02*
X37005D01*
X35004D02*
X36004Y198D01*
X23933Y-7202D02*
X24933Y-5202D01*
X22933D02*
X24933D01*
X22933D02*
X23933Y-7202D01*
X28854Y-2904D02*
X29854Y-904D01*
X27854D02*
X29854D01*
X27854D02*
X28854Y-2904D01*
X20376Y226D02*
X21376Y2226D01*
X19376D02*
X21376D01*
X19376D02*
X20376Y226D01*
X-500Y-500D02*
X0Y-1000D01*
X-1000Y-500D02*
X-500D01*
X-1000D02*
X-500Y0D01*
X-1000Y500D02*
X-500Y0D01*
X-1000Y500D02*
X-500D01*
X0Y1000D01*
X500Y500D01*
X1000D01*
X500Y0D02*
X1000Y500D01*
X500Y0D02*
X1000Y-500D01*
X500D02*
X1000D01*
X0Y-1000D02*
X500Y-500D01*
X26539Y-13787D02*
X28539D01*
Y-11787D01*
X26539D02*
X28539D01*
X26539Y-13787D02*
Y-11787D01*
X14728Y-13787D02*
X16728D01*
Y-11787D01*
X14728D02*
X16728D01*
X14728Y-13787D02*
Y-11787D01*
D30*
X613355Y164098D02*
X618154D01*
X615755D01*
Y156900D01*
X624152D02*
X621753D01*
X620553Y158100D01*
Y160499D01*
X621753Y161698D01*
X624152D01*
X625352Y160499D01*
Y159299D01*
X620553D01*
X627751Y156900D02*
Y161698D01*
X628950D01*
X630150Y160499D01*
Y156900D01*
Y160499D01*
X631350Y161698D01*
X632549Y160499D01*
Y156900D01*
X634948Y154501D02*
Y161698D01*
X638547D01*
X639747Y160499D01*
Y158100D01*
X638547Y156900D01*
X634948D01*
X642146D02*
X644545D01*
X643346D01*
Y164098D01*
X642146D01*
X649344Y161698D02*
X651743D01*
X652943Y160499D01*
Y156900D01*
X649344D01*
X648144Y158100D01*
X649344Y159299D01*
X652943D01*
X656541Y162898D02*
Y161698D01*
X655342D01*
X657741D01*
X656541D01*
Y158100D01*
X657741Y156900D01*
X664939D02*
X662539D01*
X661340Y158100D01*
Y160499D01*
X662539Y161698D01*
X664939D01*
X666138Y160499D01*
Y159299D01*
X661340D01*
X538776Y156900D02*
Y164098D01*
X542375D01*
X543574Y162898D01*
Y160499D01*
X542375Y159299D01*
X538776D01*
X547173Y161698D02*
X549572D01*
X550772Y160499D01*
Y156900D01*
X547173D01*
X545973Y158100D01*
X547173Y159299D01*
X550772D01*
X557969Y164098D02*
Y156900D01*
X554371D01*
X553171Y158100D01*
Y160499D01*
X554371Y161698D01*
X557969D01*
X572365Y162898D02*
X571165Y164098D01*
X568766D01*
X567566Y162898D01*
Y161698D01*
X568766Y160499D01*
X571165D01*
X572365Y159299D01*
Y158100D01*
X571165Y156900D01*
X568766D01*
X567566Y158100D01*
X574764Y164098D02*
Y156900D01*
Y160499D01*
X575964Y161698D01*
X578363D01*
X579563Y160499D01*
Y156900D01*
X583161Y161698D02*
X585561D01*
X586760Y160499D01*
Y156900D01*
X583161D01*
X581962Y158100D01*
X583161Y159299D01*
X586760D01*
X589159Y154501D02*
Y161698D01*
X592758D01*
X593958Y160499D01*
Y158100D01*
X592758Y156900D01*
X589159D01*
X599956D02*
X597557D01*
X596357Y158100D01*
Y160499D01*
X597557Y161698D01*
X599956D01*
X601156Y160499D01*
Y159299D01*
X596357D01*
X479791Y164098D02*
Y159299D01*
X482190Y156900D01*
X484589Y159299D01*
Y164098D01*
X486988Y156900D02*
X489388D01*
X488188D01*
Y161698D01*
X486988D01*
X494186D02*
X496585D01*
X497785Y160499D01*
Y156900D01*
X494186D01*
X492986Y158100D01*
X494186Y159299D01*
X497785D01*
X500184Y156900D02*
X504983Y161698D01*
X507382Y156900D02*
Y164098D01*
X510981D01*
X512180Y162898D01*
Y160499D01*
X510981Y159299D01*
X507382D01*
X515779Y161698D02*
X518178D01*
X519378Y160499D01*
Y156900D01*
X515779D01*
X514579Y158100D01*
X515779Y159299D01*
X519378D01*
X526576Y164098D02*
Y156900D01*
X522977D01*
X521777Y158100D01*
Y160499D01*
X522977Y161698D01*
X526576D01*
X329836Y164098D02*
Y156900D01*
X333435D01*
X334634Y158100D01*
Y162898D01*
X333435Y164098D01*
X329836D01*
X337033Y161698D02*
Y156900D01*
Y159299D01*
X338233Y160499D01*
X339433Y161698D01*
X340632D01*
X344231Y156900D02*
X346630D01*
X345431D01*
Y161698D01*
X344231D01*
X350229Y156900D02*
X352628D01*
X351429D01*
Y164098D01*
X350229D01*
X356227Y156900D02*
X358626D01*
X357427D01*
Y164098D01*
X356227D01*
X369423D02*
Y156900D01*
X374221D01*
X377820Y161698D02*
X380220D01*
X381419Y160499D01*
Y156900D01*
X377820D01*
X376621Y158100D01*
X377820Y159299D01*
X381419D01*
X383818Y161698D02*
Y158100D01*
X385018Y156900D01*
X388617D01*
Y155700D01*
X387417Y154501D01*
X386217D01*
X388617Y156900D02*
Y161698D01*
X394615Y156900D02*
X392216D01*
X391016Y158100D01*
Y160499D01*
X392216Y161698D01*
X394615D01*
X395814Y160499D01*
Y159299D01*
X391016D01*
X398214Y161698D02*
Y156900D01*
Y159299D01*
X399413Y160499D01*
X400613Y161698D01*
X401813D01*
X412609Y156900D02*
Y164098D01*
X416208D01*
X417407Y162898D01*
Y160499D01*
X416208Y159299D01*
X412609D01*
X421006Y161698D02*
X423406D01*
X424605Y160499D01*
Y156900D01*
X421006D01*
X419807Y158100D01*
X421006Y159299D01*
X424605D01*
X427004Y156900D02*
X429403D01*
X428204D01*
Y161698D01*
X427004D01*
X433002D02*
Y156900D01*
Y159299D01*
X434202Y160499D01*
X435402Y161698D01*
X436601D01*
X256455Y164098D02*
Y156900D01*
Y160499D01*
X261254D01*
Y164098D01*
Y156900D01*
X264853D02*
X267252D01*
X268452Y158100D01*
Y160499D01*
X267252Y161698D01*
X264853D01*
X263653Y160499D01*
Y158100D01*
X264853Y156900D01*
X270851D02*
X273250D01*
X272050D01*
Y164098D01*
X270851D01*
X280448Y156900D02*
X278049D01*
X276849Y158100D01*
Y160499D01*
X278049Y161698D01*
X280448D01*
X281647Y160499D01*
Y159299D01*
X276849D01*
X291244Y164098D02*
X296043D01*
X293643D01*
Y156900D01*
X298442Y161698D02*
Y158100D01*
X299642Y156900D01*
X303240D01*
Y155700D01*
X302041Y154501D01*
X300841D01*
X303240Y156900D02*
Y161698D01*
X305640Y154501D02*
Y161698D01*
X309239D01*
X310438Y160499D01*
Y158100D01*
X309239Y156900D01*
X305640D01*
X316436D02*
X314037D01*
X312837Y158100D01*
Y160499D01*
X314037Y161698D01*
X316436D01*
X317636Y160499D01*
Y159299D01*
X312837D01*
X205868Y156900D02*
Y164098D01*
X209467D01*
X210666Y162898D01*
Y160499D01*
X209467Y159299D01*
X205868D01*
X213066Y156900D02*
X215465D01*
X214265D01*
Y164098D01*
X213066D01*
X220263Y161698D02*
X222662D01*
X223862Y160499D01*
Y156900D01*
X220263D01*
X219064Y158100D01*
X220263Y159299D01*
X223862D01*
X227461Y162898D02*
Y161698D01*
X226261D01*
X228661D01*
X227461D01*
Y158100D01*
X228661Y156900D01*
X235858D02*
X233459D01*
X232259Y158100D01*
Y160499D01*
X233459Y161698D01*
X235858D01*
X237058Y160499D01*
Y159299D01*
X232259D01*
X244255Y164098D02*
Y156900D01*
X240657D01*
X239457Y158100D01*
Y160499D01*
X240657Y161698D01*
X244255D01*
X95900Y164098D02*
Y156900D01*
Y160499D01*
X100698D01*
Y164098D01*
Y156900D01*
X104297D02*
X106696D01*
X107896Y158100D01*
Y160499D01*
X106696Y161698D01*
X104297D01*
X103098Y160499D01*
Y158100D01*
X104297Y156900D01*
X110295D02*
X112695D01*
X111495D01*
Y164098D01*
X110295D01*
X119892Y156900D02*
X117493D01*
X116293Y158100D01*
Y160499D01*
X117493Y161698D01*
X119892D01*
X121092Y160499D01*
Y159299D01*
X116293D01*
X135487Y162898D02*
X134288Y164098D01*
X131888D01*
X130689Y162898D01*
Y161698D01*
X131888Y160499D01*
X134288D01*
X135487Y159299D01*
Y158100D01*
X134288Y156900D01*
X131888D01*
X130689Y158100D01*
X137886Y156900D02*
X140286D01*
X139086D01*
Y161698D01*
X137886D01*
X143885D02*
X148683D01*
X143885Y156900D01*
X148683D01*
X154681D02*
X152282D01*
X151082Y158100D01*
Y160499D01*
X152282Y161698D01*
X154681D01*
X155881Y160499D01*
Y159299D01*
X151082D01*
X52710Y162898D02*
X51511Y164098D01*
X49112D01*
X47912Y162898D01*
Y158100D01*
X49112Y156900D01*
X51511D01*
X52710Y158100D01*
X56309Y156900D02*
X58709D01*
X59908Y158100D01*
Y160499D01*
X58709Y161698D01*
X56309D01*
X55110Y160499D01*
Y158100D01*
X56309Y156900D01*
X62307Y161698D02*
Y158100D01*
X63507Y156900D01*
X67106D01*
Y161698D01*
X69505Y156900D02*
Y161698D01*
X73104D01*
X74303Y160499D01*
Y156900D01*
X77902Y162898D02*
Y161698D01*
X76703D01*
X79102D01*
X77902D01*
Y158100D01*
X79102Y156900D01*
X2123Y162898D02*
X923Y164098D01*
X-1476D01*
X-2676Y162898D01*
Y161698D01*
X-1476Y160499D01*
X923D01*
X2123Y159299D01*
Y158100D01*
X923Y156900D01*
X-1476D01*
X-2676Y158100D01*
X4522Y161698D02*
Y158100D01*
X5722Y156900D01*
X9320D01*
Y155700D01*
X8121Y154501D01*
X6921D01*
X9320Y156900D02*
Y161698D01*
X11720Y156900D02*
Y161698D01*
X12919D01*
X14119Y160499D01*
Y156900D01*
Y160499D01*
X15319Y161698D01*
X16518Y160499D01*
Y156900D01*
X18917Y164098D02*
Y156900D01*
X22516D01*
X23716Y158100D01*
Y159299D01*
Y160499D01*
X22516Y161698D01*
X18917D01*
X27315Y156900D02*
X29714D01*
X30913Y158100D01*
Y160499D01*
X29714Y161698D01*
X27315D01*
X26115Y160499D01*
Y158100D01*
X27315Y156900D01*
X33313D02*
X35712D01*
X34512D01*
Y164098D01*
X33313D01*
M02*
