G04*
G04 #@! TF.GenerationSoftware,Altium Limited,Altium Designer,22.0.2 (36)*
G04*
G04 Layer_Color=65535*
%FSLAX25Y25*%
%MOIN*%
G70*
G04*
G04 #@! TF.SameCoordinates,C39F9318-1882-4917-9D17-B6DD066E8D87*
G04*
G04*
G04 #@! TF.FilePolarity,Positive*
G04*
G01*
G75*
%ADD10C,0.01000*%
%ADD11C,0.00787*%
D10*
X34046Y-21287D02*
G03*
X34046Y-21287I-412J0D01*
G01*
X21472Y-18587D02*
X27734D01*
X8534Y-13687D02*
Y-12087D01*
X34834Y-13887D02*
Y-12187D01*
X26181Y4628D02*
X25772Y5447D01*
X24543Y6675D01*
X33141D01*
X10579Y4370D02*
X10988Y3142D01*
X12217Y2323D01*
X14264Y1913D01*
X15492D01*
X17539Y2323D01*
X18768Y3142D01*
X19177Y4370D01*
Y5189D01*
X18768Y6417D01*
X17539Y7236D01*
X15492Y7645D01*
X14264D01*
X12217Y7236D01*
X10988Y6417D01*
X10579Y5189D01*
Y4370D01*
X167Y-15999D02*
X-499Y-16666D01*
Y-17999D01*
X167Y-18665D01*
X833D01*
X1500Y-17999D01*
Y-16666D01*
X2166Y-15999D01*
X2833D01*
X3499Y-16666D01*
Y-17999D01*
X2833Y-18665D01*
X-499Y-14666D02*
X3499D01*
X2166Y-13333D01*
X3499Y-12001D01*
X-499D01*
X3499Y-10668D02*
Y-9335D01*
Y-10001D01*
X-499D01*
X167Y-10668D01*
D11*
X21172Y-6787D02*
Y-2287D01*
Y-6787D02*
X34834D01*
X16234Y-2287D02*
X21172D01*
X8534Y-6787D02*
X16234D01*
Y-2287D01*
M02*
