G04*
G04 #@! TF.GenerationSoftware,Altium Limited,Altium Designer,22.0.2 (36)*
G04*
G04 Layer_Color=3286880*
%FSLAX25Y25*%
%MOIN*%
G70*
G04*
G04 #@! TF.SameCoordinates,C39F9318-1882-4917-9D17-B6DD066E8D87*
G04*
G04*
G04 #@! TF.FilePolarity,Positive*
G04*
G01*
G75*
%ADD28C,0.00500*%
D28*
X45281Y54098D02*
G03*
X37367Y54098I-3957J-6852D01*
G01*
X39980Y20917D02*
G03*
X40016Y21337I-6014J733D01*
G01*
X34001Y15631D02*
G03*
X34309Y15638I0J6123D01*
G01*
X40025Y23623D02*
G03*
X38261Y27882I-6025J-0D01*
G01*
D02*
G03*
X34001Y29646I-4260J-4261D01*
G01*
X34309Y15638D02*
G03*
X39980Y20917I-308J6017D01*
G01*
X40016Y21337D02*
G03*
X40025Y21654I-6114J317D01*
G01*
X49237Y47245D02*
G03*
X45281Y54098I-7913J0D01*
G01*
X48575Y-6492D02*
G03*
X49237Y-5020I-1306J1472D01*
G01*
X37367Y54098D02*
G03*
X33411Y47245I3956J-6853D01*
G01*
X33406Y43107D02*
G03*
X33411Y43308I-3997J201D01*
G01*
X29955Y39400D02*
G03*
X33406Y43107I-483J3908D01*
G01*
X41946Y-12374D02*
G03*
X41285Y-13847I1307J-1472D01*
G01*
X41276Y-18027D02*
G03*
X41285Y-17716I-5993J311D01*
G01*
X41241Y-18438D02*
G03*
X41276Y-18027I-5896J719D01*
G01*
X35680Y-23614D02*
G03*
X41241Y-18438I-302J5900D01*
G01*
X35379Y-23621D02*
G03*
X35680Y-23614I0J6002D01*
G01*
X-5959Y-5918D02*
G03*
X-6352Y-4739I-1969J-0D01*
G01*
X-6837Y-4010D02*
G03*
X-6352Y-4739I6847J4030D01*
G01*
X-4230Y-21892D02*
G03*
X-54Y-23621I4176J4176D01*
G01*
X-5959Y-17716D02*
G03*
X-4230Y-21892I5906J-0D01*
G01*
X-6352Y4740D02*
G03*
X-6837Y-4010I6338J-4740D01*
G01*
X-6352Y4740D02*
G03*
X-5959Y5919I-1577J1179D01*
G01*
X29681Y39376D02*
G03*
X29955Y39400I-205J3955D01*
G01*
X29474Y39371D02*
G03*
X29681Y39376I0J4002D01*
G01*
X-4230Y37641D02*
G03*
X-5959Y33465I4176J-4176D01*
G01*
X-54Y39371D02*
G03*
X-4230Y37641I-0J-5906D01*
G01*
X3253Y21654D02*
G03*
X5017Y17395I6025J0D01*
G01*
Y27882D02*
G03*
X3253Y23623I4261J-4260D01*
G01*
X5017Y17395D02*
G03*
X9277Y15631I4259J4260D01*
G01*
Y29646D02*
G03*
X5017Y27882I-0J-6024D01*
G01*
X49237Y-5020D02*
Y47245D01*
X40025Y21654D02*
Y23623D01*
X33411Y43308D02*
Y47245D01*
X41285Y-17716D02*
Y-13847D01*
X-54Y-23621D02*
X35379D01*
X41946Y-12374D02*
X48575Y-6492D01*
X-5959Y-17716D02*
Y-5918D01*
X9277Y15631D02*
X34001D01*
X-5959Y5919D02*
Y33465D01*
X3253Y21654D02*
Y23623D01*
X-54Y39371D02*
X29474D01*
X9277Y29646D02*
X34001D01*
M02*
